M48
; DRILL file {KiCad (5.1.0-0)} date 2019 April 21, Sunday 14:51:30
; FORMAT={-:-/ absolute / inch / decimal}
; #@! TF.CreationDate,2019-04-21T14:51:30+03:00
; #@! TF.GenerationSoftware,Kicad,Pcbnew,(5.1.0-0)
; #@! TF.FileFunction,Plated,1,4,PTH
FMAT,2
INCH
T1C0.0157
T2C0.0276
T3C0.0315
T4C0.0394
T5C0.0630
%
G90
G05
T1
X4.185Y-2.625
X4.57Y-2.7
X4.68Y-3.16
X4.7Y-2.87
X4.745Y-2.45
X4.86Y-2.5
X4.86Y-2.66
X4.9Y-2.7
X4.94Y-2.73
X5.09Y-3.35
X5.105Y-3.525
X5.18Y-2.81
X5.23Y-3.76
X5.29Y-2.8
X5.3Y-3.105
X5.35Y-3.07
X5.395Y-2.57
X5.45Y-3.54
X5.6Y-3.44
X5.64Y-3.72
X5.775Y-3.275
X5.79Y-3.09
X6.25Y-3.135
T2
X5.655Y-2.47
T3
X4.4713Y-2.29
X4.4713Y-3.89
X4.5501Y-2.29
X4.5501Y-3.89
X4.6288Y-2.29
X4.6288Y-3.89
X4.7076Y-2.29
X4.7076Y-3.89
X4.7863Y-2.29
X4.7863Y-3.89
X4.865Y-2.29
X4.865Y-3.89
X4.9438Y-2.29
X4.9438Y-3.89
X5.0225Y-2.29
X5.0225Y-3.89
X5.1013Y-2.29
X5.1013Y-3.89
X5.18Y-2.29
X5.18Y-3.89
X5.2587Y-2.29
X5.2587Y-3.89
X5.3375Y-2.29
X5.3375Y-3.89
X5.4162Y-2.29
X5.4162Y-3.89
X5.495Y-2.29
X5.495Y-3.89
T4
X5.805Y-2.59
X5.905Y-2.59
X6.1Y-2.49
X6.1Y-2.59
X6.1Y-2.69
X6.1Y-2.79
X6.1Y-2.89
X6.1Y-2.99
X6.1Y-3.09
X6.1Y-3.19
X6.1Y-3.29
X6.1Y-3.39
X6.1Y-3.49
X6.1Y-3.59
X6.1Y-3.69
X4.47Y-3.61
X4.47Y-3.71
T5
X4.14Y-2.27
X4.215Y-3.905
X6.265Y-2.27
X6.265Y-3.905
T0
M30
