G04 #@! TF.GenerationSoftware,KiCad,Pcbnew,(5.1.0-0)*
G04 #@! TF.CreationDate,2019-04-21T15:27:38+03:00*
G04 #@! TF.ProjectId,ovms-swcan,6f766d73-2d73-4776-9361-6e2e6b696361,1.0*
G04 #@! TF.SameCoordinates,Original*
G04 #@! TF.FileFunction,Legend,Top*
G04 #@! TF.FilePolarity,Positive*
%FSLAX46Y46*%
G04 Gerber Fmt 4.6, Leading zero omitted, Abs format (unit mm)*
G04 Created by KiCad (PCBNEW (5.1.0-0)) date 2019-04-21 15:27:38*
%MOMM*%
%LPD*%
G04 APERTURE LIST*
%ADD10C,0.200000*%
%ADD11C,0.150000*%
%ADD12C,0.300000*%
%ADD13C,0.120000*%
G04 APERTURE END LIST*
D10*
X145529666Y-68256142D02*
X146139190Y-68256142D01*
X145834428Y-68560904D02*
X145834428Y-67951380D01*
X146939190Y-68560904D02*
X146482047Y-68560904D01*
X146710619Y-68560904D02*
X146710619Y-67760904D01*
X146634428Y-67875190D01*
X146558238Y-67951380D01*
X146482047Y-67989476D01*
X147243952Y-67837095D02*
X147282047Y-67799000D01*
X147358238Y-67760904D01*
X147548714Y-67760904D01*
X147624904Y-67799000D01*
X147663000Y-67837095D01*
X147701095Y-67913285D01*
X147701095Y-67989476D01*
X147663000Y-68103761D01*
X147205857Y-68560904D01*
X147701095Y-68560904D01*
X147929666Y-67760904D02*
X148196333Y-68560904D01*
X148463000Y-67760904D01*
X149758238Y-67799000D02*
X149682047Y-67760904D01*
X149567761Y-67760904D01*
X149453476Y-67799000D01*
X149377285Y-67875190D01*
X149339190Y-67951380D01*
X149301095Y-68103761D01*
X149301095Y-68218047D01*
X149339190Y-68370428D01*
X149377285Y-68446619D01*
X149453476Y-68522809D01*
X149567761Y-68560904D01*
X149643952Y-68560904D01*
X149758238Y-68522809D01*
X149796333Y-68484714D01*
X149796333Y-68218047D01*
X149643952Y-68218047D01*
X150139190Y-68560904D02*
X150139190Y-67760904D01*
X150596333Y-68560904D01*
X150596333Y-67760904D01*
X150977285Y-68560904D02*
X150977285Y-67760904D01*
X151167761Y-67760904D01*
X151282047Y-67799000D01*
X151358238Y-67875190D01*
X151396333Y-67951380D01*
X151434428Y-68103761D01*
X151434428Y-68218047D01*
X151396333Y-68370428D01*
X151358238Y-68446619D01*
X151282047Y-68522809D01*
X151167761Y-68560904D01*
X150977285Y-68560904D01*
D11*
X105449619Y-65786095D02*
X105449619Y-66357523D01*
X104449619Y-66071809D02*
X105449619Y-66071809D01*
X105449619Y-66595619D02*
X104449619Y-67262285D01*
X105449619Y-67262285D02*
X104449619Y-66595619D01*
X104449619Y-70699333D02*
X104925809Y-70366000D01*
X104449619Y-70127904D02*
X105449619Y-70127904D01*
X105449619Y-70508857D01*
X105402000Y-70604095D01*
X105354380Y-70651714D01*
X105259142Y-70699333D01*
X105116285Y-70699333D01*
X105021047Y-70651714D01*
X104973428Y-70604095D01*
X104925809Y-70508857D01*
X104925809Y-70127904D01*
X105449619Y-71032666D02*
X104449619Y-71699333D01*
X105449619Y-71699333D02*
X104449619Y-71032666D01*
X104497238Y-61690333D02*
X104449619Y-61833190D01*
X104449619Y-62071285D01*
X104497238Y-62166523D01*
X104544857Y-62214142D01*
X104640095Y-62261761D01*
X104735333Y-62261761D01*
X104830571Y-62214142D01*
X104878190Y-62166523D01*
X104925809Y-62071285D01*
X104973428Y-61880809D01*
X105021047Y-61785571D01*
X105068666Y-61737952D01*
X105163904Y-61690333D01*
X105259142Y-61690333D01*
X105354380Y-61737952D01*
X105402000Y-61785571D01*
X105449619Y-61880809D01*
X105449619Y-62118904D01*
X105402000Y-62261761D01*
X105449619Y-62547476D02*
X105449619Y-63118904D01*
X104449619Y-62833190D02*
X105449619Y-62833190D01*
X141359238Y-61063142D02*
X141311619Y-61110761D01*
X141168761Y-61158380D01*
X141073523Y-61158380D01*
X140930666Y-61110761D01*
X140835428Y-61015523D01*
X140787809Y-60920285D01*
X140740190Y-60729809D01*
X140740190Y-60586952D01*
X140787809Y-60396476D01*
X140835428Y-60301238D01*
X140930666Y-60206000D01*
X141073523Y-60158380D01*
X141168761Y-60158380D01*
X141311619Y-60206000D01*
X141359238Y-60253619D01*
X142264000Y-61158380D02*
X141787809Y-61158380D01*
X141787809Y-60158380D01*
X142597333Y-61158380D02*
X142597333Y-60158380D01*
X143168761Y-61158380D02*
X142740190Y-60586952D01*
X143168761Y-60158380D02*
X142597333Y-60729809D01*
X143359238Y-61253619D02*
X144121142Y-61253619D01*
X144549714Y-60158380D02*
X144740190Y-60158380D01*
X144835428Y-60206000D01*
X144930666Y-60301238D01*
X144978285Y-60491714D01*
X144978285Y-60825047D01*
X144930666Y-61015523D01*
X144835428Y-61110761D01*
X144740190Y-61158380D01*
X144549714Y-61158380D01*
X144454476Y-61110761D01*
X144359238Y-61015523D01*
X144311619Y-60825047D01*
X144311619Y-60491714D01*
X144359238Y-60301238D01*
X144454476Y-60206000D01*
X144549714Y-60158380D01*
X145406857Y-60158380D02*
X145406857Y-60967904D01*
X145454476Y-61063142D01*
X145502095Y-61110761D01*
X145597333Y-61158380D01*
X145787809Y-61158380D01*
X145883047Y-61110761D01*
X145930666Y-61063142D01*
X145978285Y-60967904D01*
X145978285Y-60158380D01*
X146311619Y-60158380D02*
X146883047Y-60158380D01*
X146597333Y-61158380D02*
X146597333Y-60158380D01*
X116451000Y-90019523D02*
X116498619Y-89924285D01*
X116498619Y-89781428D01*
X116451000Y-89638571D01*
X116355761Y-89543333D01*
X116260523Y-89495714D01*
X116070047Y-89448095D01*
X115927190Y-89448095D01*
X115736714Y-89495714D01*
X115641476Y-89543333D01*
X115546238Y-89638571D01*
X115498619Y-89781428D01*
X115498619Y-89876666D01*
X115546238Y-90019523D01*
X115593857Y-90067142D01*
X115927190Y-90067142D01*
X115927190Y-89876666D01*
X115498619Y-90495714D02*
X116498619Y-90495714D01*
X115498619Y-91067142D01*
X116498619Y-91067142D01*
X115498619Y-91543333D02*
X116498619Y-91543333D01*
X116498619Y-91781428D01*
X116451000Y-91924285D01*
X116355761Y-92019523D01*
X116260523Y-92067142D01*
X116070047Y-92114761D01*
X115927190Y-92114761D01*
X115736714Y-92067142D01*
X115641476Y-92019523D01*
X115546238Y-91924285D01*
X115498619Y-91781428D01*
X115498619Y-91543333D01*
X115546238Y-93257619D02*
X115498619Y-93400476D01*
X115498619Y-93638571D01*
X115546238Y-93733809D01*
X115593857Y-93781428D01*
X115689095Y-93829047D01*
X115784333Y-93829047D01*
X115879571Y-93781428D01*
X115927190Y-93733809D01*
X115974809Y-93638571D01*
X116022428Y-93448095D01*
X116070047Y-93352857D01*
X116117666Y-93305238D01*
X116212904Y-93257619D01*
X116308142Y-93257619D01*
X116403380Y-93305238D01*
X116451000Y-93352857D01*
X116498619Y-93448095D01*
X116498619Y-93686190D01*
X116451000Y-93829047D01*
X116498619Y-94162380D02*
X115498619Y-94400476D01*
X116212904Y-94590952D01*
X115498619Y-94781428D01*
X116498619Y-95019523D01*
X115593857Y-95971904D02*
X115546238Y-95924285D01*
X115498619Y-95781428D01*
X115498619Y-95686190D01*
X115546238Y-95543333D01*
X115641476Y-95448095D01*
X115736714Y-95400476D01*
X115927190Y-95352857D01*
X116070047Y-95352857D01*
X116260523Y-95400476D01*
X116355761Y-95448095D01*
X116451000Y-95543333D01*
X116498619Y-95686190D01*
X116498619Y-95781428D01*
X116451000Y-95924285D01*
X116403380Y-95971904D01*
D10*
X157651571Y-63915857D02*
X157651571Y-62715857D01*
X158051571Y-63573000D01*
X158451571Y-62715857D01*
X158451571Y-63915857D01*
X159651571Y-63915857D02*
X158965857Y-63915857D01*
X159308714Y-63915857D02*
X159308714Y-62715857D01*
X159194428Y-62887285D01*
X159080142Y-63001571D01*
X158965857Y-63058714D01*
X157651571Y-66455857D02*
X157651571Y-65255857D01*
X158051571Y-66113000D01*
X158451571Y-65255857D01*
X158451571Y-66455857D01*
X159251571Y-65255857D02*
X159365857Y-65255857D01*
X159480142Y-65313000D01*
X159537285Y-65370142D01*
X159594428Y-65484428D01*
X159651571Y-65713000D01*
X159651571Y-65998714D01*
X159594428Y-66227285D01*
X159537285Y-66341571D01*
X159480142Y-66398714D01*
X159365857Y-66455857D01*
X159251571Y-66455857D01*
X159137285Y-66398714D01*
X159080142Y-66341571D01*
X159023000Y-66227285D01*
X158965857Y-65998714D01*
X158965857Y-65713000D01*
X159023000Y-65484428D01*
X159080142Y-65370142D01*
X159137285Y-65313000D01*
X159251571Y-65255857D01*
X158423000Y-68995857D02*
X158023000Y-68424428D01*
X157737285Y-68995857D02*
X157737285Y-67795857D01*
X158194428Y-67795857D01*
X158308714Y-67853000D01*
X158365857Y-67910142D01*
X158423000Y-68024428D01*
X158423000Y-68195857D01*
X158365857Y-68310142D01*
X158308714Y-68367285D01*
X158194428Y-68424428D01*
X157737285Y-68424428D01*
X158823000Y-67795857D02*
X159623000Y-68995857D01*
X159623000Y-67795857D02*
X158823000Y-68995857D01*
X157708714Y-70335857D02*
X158394428Y-70335857D01*
X158051571Y-71535857D02*
X158051571Y-70335857D01*
X158680142Y-70335857D02*
X159480142Y-71535857D01*
X159480142Y-70335857D02*
X158680142Y-71535857D01*
X157537285Y-74075857D02*
X157537285Y-72875857D01*
X158108714Y-74075857D02*
X158108714Y-72875857D01*
X158794428Y-74075857D01*
X158794428Y-72875857D01*
X159194428Y-72875857D02*
X159880142Y-72875857D01*
X159537285Y-74075857D02*
X159537285Y-72875857D01*
X157851571Y-76501571D02*
X157794428Y-76558714D01*
X157623000Y-76615857D01*
X157508714Y-76615857D01*
X157337285Y-76558714D01*
X157223000Y-76444428D01*
X157165857Y-76330142D01*
X157108714Y-76101571D01*
X157108714Y-75930142D01*
X157165857Y-75701571D01*
X157223000Y-75587285D01*
X157337285Y-75473000D01*
X157508714Y-75415857D01*
X157623000Y-75415857D01*
X157794428Y-75473000D01*
X157851571Y-75530142D01*
X158308714Y-76558714D02*
X158480142Y-76615857D01*
X158765857Y-76615857D01*
X158880142Y-76558714D01*
X158937285Y-76501571D01*
X158994428Y-76387285D01*
X158994428Y-76273000D01*
X158937285Y-76158714D01*
X158880142Y-76101571D01*
X158765857Y-76044428D01*
X158537285Y-75987285D01*
X158423000Y-75930142D01*
X158365857Y-75873000D01*
X158308714Y-75758714D01*
X158308714Y-75644428D01*
X158365857Y-75530142D01*
X158423000Y-75473000D01*
X158537285Y-75415857D01*
X158823000Y-75415857D01*
X158994428Y-75473000D01*
X160023000Y-75815857D02*
X160023000Y-76615857D01*
X159737285Y-75358714D02*
X159451571Y-76215857D01*
X160194428Y-76215857D01*
X157851571Y-79041571D02*
X157794428Y-79098714D01*
X157623000Y-79155857D01*
X157508714Y-79155857D01*
X157337285Y-79098714D01*
X157223000Y-78984428D01*
X157165857Y-78870142D01*
X157108714Y-78641571D01*
X157108714Y-78470142D01*
X157165857Y-78241571D01*
X157223000Y-78127285D01*
X157337285Y-78013000D01*
X157508714Y-77955857D01*
X157623000Y-77955857D01*
X157794428Y-78013000D01*
X157851571Y-78070142D01*
X158308714Y-79098714D02*
X158480142Y-79155857D01*
X158765857Y-79155857D01*
X158880142Y-79098714D01*
X158937285Y-79041571D01*
X158994428Y-78927285D01*
X158994428Y-78813000D01*
X158937285Y-78698714D01*
X158880142Y-78641571D01*
X158765857Y-78584428D01*
X158537285Y-78527285D01*
X158423000Y-78470142D01*
X158365857Y-78413000D01*
X158308714Y-78298714D01*
X158308714Y-78184428D01*
X158365857Y-78070142D01*
X158423000Y-78013000D01*
X158537285Y-77955857D01*
X158823000Y-77955857D01*
X158994428Y-78013000D01*
X159394428Y-77955857D02*
X160137285Y-77955857D01*
X159737285Y-78413000D01*
X159908714Y-78413000D01*
X160023000Y-78470142D01*
X160080142Y-78527285D01*
X160137285Y-78641571D01*
X160137285Y-78927285D01*
X160080142Y-79041571D01*
X160023000Y-79098714D01*
X159908714Y-79155857D01*
X159565857Y-79155857D01*
X159451571Y-79098714D01*
X159394428Y-79041571D01*
X157851571Y-81581571D02*
X157794428Y-81638714D01*
X157623000Y-81695857D01*
X157508714Y-81695857D01*
X157337285Y-81638714D01*
X157223000Y-81524428D01*
X157165857Y-81410142D01*
X157108714Y-81181571D01*
X157108714Y-81010142D01*
X157165857Y-80781571D01*
X157223000Y-80667285D01*
X157337285Y-80553000D01*
X157508714Y-80495857D01*
X157623000Y-80495857D01*
X157794428Y-80553000D01*
X157851571Y-80610142D01*
X158308714Y-81638714D02*
X158480142Y-81695857D01*
X158765857Y-81695857D01*
X158880142Y-81638714D01*
X158937285Y-81581571D01*
X158994428Y-81467285D01*
X158994428Y-81353000D01*
X158937285Y-81238714D01*
X158880142Y-81181571D01*
X158765857Y-81124428D01*
X158537285Y-81067285D01*
X158423000Y-81010142D01*
X158365857Y-80953000D01*
X158308714Y-80838714D01*
X158308714Y-80724428D01*
X158365857Y-80610142D01*
X158423000Y-80553000D01*
X158537285Y-80495857D01*
X158823000Y-80495857D01*
X158994428Y-80553000D01*
X159451571Y-80610142D02*
X159508714Y-80553000D01*
X159623000Y-80495857D01*
X159908714Y-80495857D01*
X160023000Y-80553000D01*
X160080142Y-80610142D01*
X160137285Y-80724428D01*
X160137285Y-80838714D01*
X160080142Y-81010142D01*
X159394428Y-81695857D01*
X160137285Y-81695857D01*
X157851571Y-84121571D02*
X157794428Y-84178714D01*
X157623000Y-84235857D01*
X157508714Y-84235857D01*
X157337285Y-84178714D01*
X157223000Y-84064428D01*
X157165857Y-83950142D01*
X157108714Y-83721571D01*
X157108714Y-83550142D01*
X157165857Y-83321571D01*
X157223000Y-83207285D01*
X157337285Y-83093000D01*
X157508714Y-83035857D01*
X157623000Y-83035857D01*
X157794428Y-83093000D01*
X157851571Y-83150142D01*
X158308714Y-84178714D02*
X158480142Y-84235857D01*
X158765857Y-84235857D01*
X158880142Y-84178714D01*
X158937285Y-84121571D01*
X158994428Y-84007285D01*
X158994428Y-83893000D01*
X158937285Y-83778714D01*
X158880142Y-83721571D01*
X158765857Y-83664428D01*
X158537285Y-83607285D01*
X158423000Y-83550142D01*
X158365857Y-83493000D01*
X158308714Y-83378714D01*
X158308714Y-83264428D01*
X158365857Y-83150142D01*
X158423000Y-83093000D01*
X158537285Y-83035857D01*
X158823000Y-83035857D01*
X158994428Y-83093000D01*
X160137285Y-84235857D02*
X159451571Y-84235857D01*
X159794428Y-84235857D02*
X159794428Y-83035857D01*
X159680142Y-83207285D01*
X159565857Y-83321571D01*
X159451571Y-83378714D01*
X156991285Y-86775857D02*
X156991285Y-85575857D01*
X157391285Y-86433000D01*
X157791285Y-85575857D01*
X157791285Y-86775857D01*
X158362714Y-86775857D02*
X158362714Y-85575857D01*
X158877000Y-86718714D02*
X159048428Y-86775857D01*
X159334142Y-86775857D01*
X159448428Y-86718714D01*
X159505571Y-86661571D01*
X159562714Y-86547285D01*
X159562714Y-86433000D01*
X159505571Y-86318714D01*
X159448428Y-86261571D01*
X159334142Y-86204428D01*
X159105571Y-86147285D01*
X158991285Y-86090142D01*
X158934142Y-86033000D01*
X158877000Y-85918714D01*
X158877000Y-85804428D01*
X158934142Y-85690142D01*
X158991285Y-85633000D01*
X159105571Y-85575857D01*
X159391285Y-85575857D01*
X159562714Y-85633000D01*
X160305571Y-85575857D02*
X160534142Y-85575857D01*
X160648428Y-85633000D01*
X160762714Y-85747285D01*
X160819857Y-85975857D01*
X160819857Y-86375857D01*
X160762714Y-86604428D01*
X160648428Y-86718714D01*
X160534142Y-86775857D01*
X160305571Y-86775857D01*
X160191285Y-86718714D01*
X160077000Y-86604428D01*
X160019857Y-86375857D01*
X160019857Y-85975857D01*
X160077000Y-85747285D01*
X160191285Y-85633000D01*
X160305571Y-85575857D01*
X156991285Y-89315857D02*
X156991285Y-88115857D01*
X157391285Y-88973000D01*
X157791285Y-88115857D01*
X157791285Y-89315857D01*
X158591285Y-88115857D02*
X158819857Y-88115857D01*
X158934142Y-88173000D01*
X159048428Y-88287285D01*
X159105571Y-88515857D01*
X159105571Y-88915857D01*
X159048428Y-89144428D01*
X158934142Y-89258714D01*
X158819857Y-89315857D01*
X158591285Y-89315857D01*
X158477000Y-89258714D01*
X158362714Y-89144428D01*
X158305571Y-88915857D01*
X158305571Y-88515857D01*
X158362714Y-88287285D01*
X158477000Y-88173000D01*
X158591285Y-88115857D01*
X159562714Y-89258714D02*
X159734142Y-89315857D01*
X160019857Y-89315857D01*
X160134142Y-89258714D01*
X160191285Y-89201571D01*
X160248428Y-89087285D01*
X160248428Y-88973000D01*
X160191285Y-88858714D01*
X160134142Y-88801571D01*
X160019857Y-88744428D01*
X159791285Y-88687285D01*
X159677000Y-88630142D01*
X159619857Y-88573000D01*
X159562714Y-88458714D01*
X159562714Y-88344428D01*
X159619857Y-88230142D01*
X159677000Y-88173000D01*
X159791285Y-88115857D01*
X160077000Y-88115857D01*
X160248428Y-88173000D01*
X160762714Y-89315857D02*
X160762714Y-88115857D01*
X157908714Y-91741571D02*
X157851571Y-91798714D01*
X157680142Y-91855857D01*
X157565857Y-91855857D01*
X157394428Y-91798714D01*
X157280142Y-91684428D01*
X157223000Y-91570142D01*
X157165857Y-91341571D01*
X157165857Y-91170142D01*
X157223000Y-90941571D01*
X157280142Y-90827285D01*
X157394428Y-90713000D01*
X157565857Y-90655857D01*
X157680142Y-90655857D01*
X157851571Y-90713000D01*
X157908714Y-90770142D01*
X158994428Y-91855857D02*
X158423000Y-91855857D01*
X158423000Y-90655857D01*
X159394428Y-91855857D02*
X159394428Y-90655857D01*
X160080142Y-91855857D02*
X159565857Y-91170142D01*
X160080142Y-90655857D02*
X159394428Y-91341571D01*
X157708714Y-93126000D02*
X157594428Y-93068857D01*
X157423000Y-93068857D01*
X157251571Y-93126000D01*
X157137285Y-93240285D01*
X157080142Y-93354571D01*
X157023000Y-93583142D01*
X157023000Y-93754571D01*
X157080142Y-93983142D01*
X157137285Y-94097428D01*
X157251571Y-94211714D01*
X157423000Y-94268857D01*
X157537285Y-94268857D01*
X157708714Y-94211714D01*
X157765857Y-94154571D01*
X157765857Y-93754571D01*
X157537285Y-93754571D01*
X158280142Y-94268857D02*
X158280142Y-93068857D01*
X158965857Y-94268857D01*
X158965857Y-93068857D01*
X159537285Y-94268857D02*
X159537285Y-93068857D01*
X159823000Y-93068857D01*
X159994428Y-93126000D01*
X160108714Y-93240285D01*
X160165857Y-93354571D01*
X160223000Y-93583142D01*
X160223000Y-93754571D01*
X160165857Y-93983142D01*
X160108714Y-94097428D01*
X159994428Y-94211714D01*
X159823000Y-94268857D01*
X159537285Y-94268857D01*
X104362333Y-74052178D02*
X104400428Y-74009321D01*
X104514714Y-73928369D01*
X104590904Y-73890273D01*
X104705190Y-73856940D01*
X104895666Y-73833130D01*
X105048047Y-73852178D01*
X105238523Y-73923607D01*
X105352809Y-73985511D01*
X105429000Y-74042654D01*
X105543285Y-74152178D01*
X105581380Y-74204559D01*
X104705190Y-74904559D02*
X104667095Y-74804559D01*
X104667095Y-74614083D01*
X104705190Y-74523607D01*
X104743285Y-74480749D01*
X104819476Y-74442654D01*
X105048047Y-74471226D01*
X105124238Y-74528369D01*
X105162333Y-74580749D01*
X105200428Y-74680749D01*
X105200428Y-74871226D01*
X105162333Y-74961702D01*
X104362333Y-75195035D02*
X104400428Y-75247416D01*
X104514714Y-75356940D01*
X104590904Y-75414083D01*
X104705190Y-75475988D01*
X104895666Y-75547416D01*
X105048047Y-75566464D01*
X105238523Y-75542654D01*
X105352809Y-75509321D01*
X105429000Y-75471226D01*
X105543285Y-75390273D01*
X105581380Y-75347416D01*
X104667095Y-76756940D02*
X105467095Y-76856940D01*
X104895666Y-77118845D01*
X105467095Y-77523607D01*
X104667095Y-77423607D01*
X104667095Y-78328369D02*
X105086142Y-78380750D01*
X105162333Y-78342654D01*
X105200428Y-78252178D01*
X105200428Y-78061702D01*
X105162333Y-77961702D01*
X104705190Y-78333130D02*
X104667095Y-78233130D01*
X104667095Y-77995035D01*
X104705190Y-77904559D01*
X104781380Y-77866464D01*
X104857571Y-77875988D01*
X104933761Y-77933130D01*
X104971857Y-78033130D01*
X104971857Y-78271226D01*
X105009952Y-78371226D01*
X104667095Y-78804559D02*
X105200428Y-78871226D01*
X105048047Y-78852178D02*
X105124238Y-78909321D01*
X105162333Y-78961702D01*
X105200428Y-79061702D01*
X105200428Y-79156940D01*
X104667095Y-79423607D02*
X105467095Y-79523607D01*
X104971857Y-79556940D02*
X104667095Y-79804559D01*
X105200428Y-79871226D02*
X104895666Y-79452178D01*
X104667095Y-80375988D02*
X104705190Y-80285511D01*
X104743285Y-80242654D01*
X104819476Y-80204559D01*
X105048047Y-80233130D01*
X105124238Y-80290273D01*
X105162333Y-80342654D01*
X105200428Y-80442654D01*
X105200428Y-80585511D01*
X105162333Y-80675988D01*
X105124238Y-80718845D01*
X105048047Y-80756940D01*
X104819476Y-80728369D01*
X104743285Y-80671226D01*
X104705190Y-80618845D01*
X104667095Y-80518845D01*
X104667095Y-80375988D01*
X105467095Y-82285511D02*
X104895666Y-82214083D01*
X104781380Y-82152178D01*
X104705190Y-82047416D01*
X104667095Y-81899797D01*
X104667095Y-81804559D01*
X105200428Y-83156940D02*
X104667095Y-83090273D01*
X105200428Y-82728369D02*
X104781380Y-82675988D01*
X104705190Y-82714083D01*
X104667095Y-82804559D01*
X104667095Y-82947416D01*
X104705190Y-83047416D01*
X104743285Y-83099797D01*
X104667095Y-83566464D02*
X105467095Y-83666464D01*
X104667095Y-83995035D02*
X105086142Y-84047416D01*
X105162333Y-84009321D01*
X105200428Y-83918845D01*
X105200428Y-83775988D01*
X105162333Y-83675988D01*
X105124238Y-83623607D01*
X104667095Y-84899797D02*
X105086142Y-84952178D01*
X105162333Y-84914083D01*
X105200428Y-84823607D01*
X105200428Y-84633130D01*
X105162333Y-84533130D01*
X104705190Y-84904559D02*
X104667095Y-84804559D01*
X104667095Y-84566464D01*
X104705190Y-84475988D01*
X104781380Y-84437892D01*
X104857571Y-84447416D01*
X104933761Y-84504559D01*
X104971857Y-84604559D01*
X104971857Y-84842654D01*
X105009952Y-84942654D01*
X105200428Y-85442654D02*
X104667095Y-85375988D01*
X105124238Y-85433130D02*
X105162333Y-85485511D01*
X105200428Y-85585511D01*
X105200428Y-85728369D01*
X105162333Y-85818845D01*
X105086142Y-85856940D01*
X104667095Y-85804559D01*
X105200428Y-86347416D02*
X104667095Y-86280750D01*
X105124238Y-86337892D02*
X105162333Y-86390273D01*
X105200428Y-86490273D01*
X105200428Y-86633130D01*
X105162333Y-86723607D01*
X105086142Y-86761702D01*
X104667095Y-86709321D01*
X104705190Y-87571226D02*
X104667095Y-87471226D01*
X104667095Y-87280750D01*
X104705190Y-87190273D01*
X104781380Y-87152178D01*
X105086142Y-87190273D01*
X105162333Y-87247416D01*
X105200428Y-87347416D01*
X105200428Y-87537892D01*
X105162333Y-87628369D01*
X105086142Y-87666464D01*
X105009952Y-87656940D01*
X104933761Y-87171226D01*
X106953095Y-73953904D02*
X107486428Y-73953904D01*
X107334047Y-73953904D02*
X107410238Y-74001523D01*
X107448333Y-74049142D01*
X107486428Y-74144380D01*
X107486428Y-74239619D01*
X106991190Y-74953904D02*
X106953095Y-74858666D01*
X106953095Y-74668190D01*
X106991190Y-74572952D01*
X107067380Y-74525333D01*
X107372142Y-74525333D01*
X107448333Y-74572952D01*
X107486428Y-74668190D01*
X107486428Y-74858666D01*
X107448333Y-74953904D01*
X107372142Y-75001523D01*
X107295952Y-75001523D01*
X107219761Y-74525333D01*
X107486428Y-75334857D02*
X106953095Y-75572952D01*
X107486428Y-75811047D01*
X106953095Y-77477714D02*
X106953095Y-76906285D01*
X106953095Y-77192000D02*
X107753095Y-77192000D01*
X107638809Y-77096761D01*
X107562619Y-77001523D01*
X107524523Y-76906285D01*
X109264428Y-73994095D02*
X108464428Y-73994095D01*
X109226333Y-73994095D02*
X109264428Y-74089333D01*
X109264428Y-74279809D01*
X109226333Y-74375047D01*
X109188238Y-74422666D01*
X109112047Y-74470285D01*
X108883476Y-74470285D01*
X108807285Y-74422666D01*
X108769190Y-74375047D01*
X108731095Y-74279809D01*
X108731095Y-74089333D01*
X108769190Y-73994095D01*
X108731095Y-74898857D02*
X109264428Y-74898857D01*
X109112047Y-74898857D02*
X109188238Y-74946476D01*
X109226333Y-74994095D01*
X109264428Y-75089333D01*
X109264428Y-75184571D01*
X108731095Y-75660761D02*
X108769190Y-75565523D01*
X108807285Y-75517904D01*
X108883476Y-75470285D01*
X109112047Y-75470285D01*
X109188238Y-75517904D01*
X109226333Y-75565523D01*
X109264428Y-75660761D01*
X109264428Y-75803619D01*
X109226333Y-75898857D01*
X109188238Y-75946476D01*
X109112047Y-75994095D01*
X108883476Y-75994095D01*
X108807285Y-75946476D01*
X108769190Y-75898857D01*
X108731095Y-75803619D01*
X108731095Y-75660761D01*
X109264428Y-76279809D02*
X109264428Y-76660761D01*
X109531095Y-76422666D02*
X108845380Y-76422666D01*
X108769190Y-76470285D01*
X108731095Y-76565523D01*
X108731095Y-76660761D01*
X108731095Y-77136952D02*
X108769190Y-77041714D01*
X108807285Y-76994095D01*
X108883476Y-76946476D01*
X109112047Y-76946476D01*
X109188238Y-76994095D01*
X109226333Y-77041714D01*
X109264428Y-77136952D01*
X109264428Y-77279809D01*
X109226333Y-77375047D01*
X109188238Y-77422666D01*
X109112047Y-77470285D01*
X108883476Y-77470285D01*
X108807285Y-77422666D01*
X108769190Y-77375047D01*
X108731095Y-77279809D01*
X108731095Y-77136952D01*
X109264428Y-77756000D02*
X109264428Y-78136952D01*
X109531095Y-77898857D02*
X108845380Y-77898857D01*
X108769190Y-77946476D01*
X108731095Y-78041714D01*
X108731095Y-78136952D01*
X109264428Y-78375047D02*
X108731095Y-78613142D01*
X109264428Y-78851238D02*
X108731095Y-78613142D01*
X108540619Y-78517904D01*
X108502523Y-78470285D01*
X108464428Y-78375047D01*
X109264428Y-79232190D02*
X108464428Y-79232190D01*
X109226333Y-79232190D02*
X109264428Y-79327428D01*
X109264428Y-79517904D01*
X109226333Y-79613142D01*
X109188238Y-79660761D01*
X109112047Y-79708380D01*
X108883476Y-79708380D01*
X108807285Y-79660761D01*
X108769190Y-79613142D01*
X108731095Y-79517904D01*
X108731095Y-79327428D01*
X108769190Y-79232190D01*
X108769190Y-80517904D02*
X108731095Y-80422666D01*
X108731095Y-80232190D01*
X108769190Y-80136952D01*
X108845380Y-80089333D01*
X109150142Y-80089333D01*
X109226333Y-80136952D01*
X109264428Y-80232190D01*
X109264428Y-80422666D01*
X109226333Y-80517904D01*
X109150142Y-80565523D01*
X109073952Y-80565523D01*
X108997761Y-80089333D01*
X108731095Y-81756000D02*
X109531095Y-81756000D01*
X109226333Y-81756000D02*
X109264428Y-81851238D01*
X109264428Y-82041714D01*
X109226333Y-82136952D01*
X109188238Y-82184571D01*
X109112047Y-82232190D01*
X108883476Y-82232190D01*
X108807285Y-82184571D01*
X108769190Y-82136952D01*
X108731095Y-82041714D01*
X108731095Y-81851238D01*
X108769190Y-81756000D01*
X108731095Y-82803619D02*
X108769190Y-82708380D01*
X108807285Y-82660761D01*
X108883476Y-82613142D01*
X109112047Y-82613142D01*
X109188238Y-82660761D01*
X109226333Y-82708380D01*
X109264428Y-82803619D01*
X109264428Y-82946476D01*
X109226333Y-83041714D01*
X109188238Y-83089333D01*
X109112047Y-83136952D01*
X108883476Y-83136952D01*
X108807285Y-83089333D01*
X108769190Y-83041714D01*
X108731095Y-82946476D01*
X108731095Y-82803619D01*
X108731095Y-83994095D02*
X109150142Y-83994095D01*
X109226333Y-83946476D01*
X109264428Y-83851238D01*
X109264428Y-83660761D01*
X109226333Y-83565523D01*
X108769190Y-83994095D02*
X108731095Y-83898857D01*
X108731095Y-83660761D01*
X108769190Y-83565523D01*
X108845380Y-83517904D01*
X108921571Y-83517904D01*
X108997761Y-83565523D01*
X109035857Y-83660761D01*
X109035857Y-83898857D01*
X109073952Y-83994095D01*
X108731095Y-84470285D02*
X109264428Y-84470285D01*
X109112047Y-84470285D02*
X109188238Y-84517904D01*
X109226333Y-84565523D01*
X109264428Y-84660761D01*
X109264428Y-84756000D01*
X108731095Y-85517904D02*
X109531095Y-85517904D01*
X108769190Y-85517904D02*
X108731095Y-85422666D01*
X108731095Y-85232190D01*
X108769190Y-85136952D01*
X108807285Y-85089333D01*
X108883476Y-85041714D01*
X109112047Y-85041714D01*
X109188238Y-85089333D01*
X109226333Y-85136952D01*
X109264428Y-85232190D01*
X109264428Y-85422666D01*
X109226333Y-85517904D01*
D12*
X111909142Y-74156190D02*
X111909142Y-74460952D01*
X111852000Y-74613333D01*
X111737714Y-74765714D01*
X111509142Y-74841904D01*
X111109142Y-74841904D01*
X110880571Y-74765714D01*
X110766285Y-74613333D01*
X110709142Y-74460952D01*
X110709142Y-74156190D01*
X110766285Y-74003809D01*
X110880571Y-73851428D01*
X111109142Y-73775238D01*
X111509142Y-73775238D01*
X111737714Y-73851428D01*
X111852000Y-74003809D01*
X111909142Y-74156190D01*
X111909142Y-75299047D02*
X110709142Y-75832380D01*
X111909142Y-76365714D01*
X110709142Y-76899047D02*
X111909142Y-76899047D01*
X111052000Y-77432380D01*
X111909142Y-77965714D01*
X110709142Y-77965714D01*
X110766285Y-78651428D02*
X110709142Y-78880000D01*
X110709142Y-79260952D01*
X110766285Y-79413333D01*
X110823428Y-79489523D01*
X110937714Y-79565714D01*
X111052000Y-79565714D01*
X111166285Y-79489523D01*
X111223428Y-79413333D01*
X111280571Y-79260952D01*
X111337714Y-78956190D01*
X111394857Y-78803809D01*
X111452000Y-78727619D01*
X111566285Y-78651428D01*
X111680571Y-78651428D01*
X111794857Y-78727619D01*
X111852000Y-78803809D01*
X111909142Y-78956190D01*
X111909142Y-79337142D01*
X111852000Y-79565714D01*
X110766285Y-81394285D02*
X110709142Y-81622857D01*
X110709142Y-82003809D01*
X110766285Y-82156190D01*
X110823428Y-82232380D01*
X110937714Y-82308571D01*
X111052000Y-82308571D01*
X111166285Y-82232380D01*
X111223428Y-82156190D01*
X111280571Y-82003809D01*
X111337714Y-81699047D01*
X111394857Y-81546666D01*
X111452000Y-81470476D01*
X111566285Y-81394285D01*
X111680571Y-81394285D01*
X111794857Y-81470476D01*
X111852000Y-81546666D01*
X111909142Y-81699047D01*
X111909142Y-82080000D01*
X111852000Y-82308571D01*
X111909142Y-82841904D02*
X110709142Y-83222857D01*
X111566285Y-83527619D01*
X110709142Y-83832380D01*
X111909142Y-84213333D01*
X110823428Y-85737142D02*
X110766285Y-85660952D01*
X110709142Y-85432380D01*
X110709142Y-85280000D01*
X110766285Y-85051428D01*
X110880571Y-84899047D01*
X110994857Y-84822857D01*
X111223428Y-84746666D01*
X111394857Y-84746666D01*
X111623428Y-84822857D01*
X111737714Y-84899047D01*
X111852000Y-85051428D01*
X111909142Y-85280000D01*
X111909142Y-85432380D01*
X111852000Y-85660952D01*
X111794857Y-85737142D01*
X111052000Y-86346666D02*
X111052000Y-87108571D01*
X110709142Y-86194285D02*
X111909142Y-86727619D01*
X110709142Y-87260952D01*
X110709142Y-87794285D02*
X111909142Y-87794285D01*
X110709142Y-88708571D01*
X111909142Y-88708571D01*
D13*
X118967252Y-70464000D02*
X116744748Y-70464000D01*
X118967252Y-72284000D02*
X116744748Y-72284000D01*
D11*
X123487000Y-79156000D02*
X123487000Y-79106000D01*
X119337000Y-79156000D02*
X119337000Y-79011000D01*
X119337000Y-74006000D02*
X119337000Y-74151000D01*
X123487000Y-74006000D02*
X123487000Y-74151000D01*
X123487000Y-79156000D02*
X119337000Y-79156000D01*
X123487000Y-74006000D02*
X119337000Y-74006000D01*
D13*
X108921733Y-69344000D02*
X109264267Y-69344000D01*
X108921733Y-68324000D02*
X109264267Y-68324000D01*
X108921733Y-65026000D02*
X109264267Y-65026000D01*
X108921733Y-64006000D02*
X109264267Y-64006000D01*
X109264267Y-59688000D02*
X108921733Y-59688000D01*
X109264267Y-60708000D02*
X108921733Y-60708000D01*
X110708000Y-70033000D02*
X107848000Y-70033000D01*
X110708000Y-71953000D02*
X110708000Y-70033000D01*
X107848000Y-71953000D02*
X110708000Y-71953000D01*
X110708000Y-65715000D02*
X107848000Y-65715000D01*
X110708000Y-67635000D02*
X110708000Y-65715000D01*
X107848000Y-67635000D02*
X110708000Y-67635000D01*
X110690000Y-61397000D02*
X107830000Y-61397000D01*
X110690000Y-63317000D02*
X110690000Y-61397000D01*
X107830000Y-63317000D02*
X110690000Y-63317000D01*
X132610000Y-69491000D02*
X139860000Y-69491000D01*
X132610000Y-65891000D02*
X132610000Y-69491000D01*
X139860000Y-65891000D02*
X132610000Y-65891000D01*
D11*
X145650000Y-74357000D02*
X145400000Y-74357000D01*
X145650000Y-82107000D02*
X145305000Y-82107000D01*
X133750000Y-82107000D02*
X134095000Y-82107000D01*
X133750000Y-74357000D02*
X134095000Y-74357000D01*
X145650000Y-74357000D02*
X145650000Y-82107000D01*
X133750000Y-74357000D02*
X133750000Y-82107000D01*
X145400000Y-74357000D02*
X145400000Y-72532000D01*
D13*
X120395000Y-94702000D02*
X117095000Y-94702000D01*
X120395000Y-86574000D02*
X120395000Y-94702000D01*
X117095000Y-86574000D02*
X117095000Y-94702000D01*
X120395000Y-86574000D02*
X117095000Y-86574000D01*
X142687000Y-63688000D02*
X142687000Y-61788000D01*
X144587000Y-63688000D02*
X142687000Y-63688000D01*
X144587000Y-61788000D02*
X144587000Y-63688000D01*
X142687000Y-61788000D02*
X144587000Y-61788000D01*
X129457267Y-69848000D02*
X129114733Y-69848000D01*
X129457267Y-70868000D02*
X129114733Y-70868000D01*
X120013000Y-64344733D02*
X120013000Y-64687267D01*
X121033000Y-64344733D02*
X121033000Y-64687267D01*
X115741267Y-80516000D02*
X115398733Y-80516000D01*
X115741267Y-81536000D02*
X115398733Y-81536000D01*
X127383000Y-93135267D02*
X127383000Y-92792733D01*
X126363000Y-93135267D02*
X126363000Y-92792733D01*
X129796000Y-82608267D02*
X129796000Y-82265733D01*
X128776000Y-82608267D02*
X128776000Y-82265733D01*
X133352000Y-93135267D02*
X133352000Y-92792733D01*
X132332000Y-93135267D02*
X132332000Y-92792733D01*
X144782000Y-91978267D02*
X144782000Y-91635733D01*
X143762000Y-91978267D02*
X143762000Y-91635733D01*
X129344267Y-71880000D02*
X129001733Y-71880000D01*
X129344267Y-72900000D02*
X129001733Y-72900000D01*
X142750000Y-91978267D02*
X142750000Y-91635733D01*
X141730000Y-91978267D02*
X141730000Y-91635733D01*
X124714000Y-93334252D02*
X124714000Y-90561748D01*
X121920000Y-93345000D02*
X121920000Y-90572496D01*
X124726000Y-66056000D02*
X128826000Y-66056000D01*
X128826000Y-66056000D02*
X128826000Y-68056000D01*
X128826000Y-68056000D02*
X124726000Y-68056000D01*
X124726000Y-68056000D02*
X124726000Y-66056000D01*
X124696000Y-62373000D02*
X128796000Y-62373000D01*
X128796000Y-62373000D02*
X128796000Y-64373000D01*
X128796000Y-64373000D02*
X124696000Y-64373000D01*
X124696000Y-64373000D02*
X124696000Y-62373000D01*
X148574000Y-90294000D02*
X148574000Y-93094000D01*
X148574000Y-93094000D02*
X146574000Y-93094000D01*
X146574000Y-93094000D02*
X146574000Y-90294000D01*
X146574000Y-90294000D02*
X148574000Y-90294000D01*
X154940000Y-95056000D02*
X153610000Y-95056000D01*
X153610000Y-95056000D02*
X153610000Y-93726000D01*
X153610000Y-92456000D02*
X153610000Y-61916000D01*
X156270000Y-61916000D02*
X153610000Y-61916000D01*
X156270000Y-92456000D02*
X156270000Y-61916000D01*
X156270000Y-92456000D02*
X153610000Y-92456000D01*
X114868000Y-95564000D02*
X113538000Y-95564000D01*
X114868000Y-94234000D02*
X114868000Y-95564000D01*
X114868000Y-92964000D02*
X112208000Y-92964000D01*
X112208000Y-92964000D02*
X112208000Y-90364000D01*
X114868000Y-92964000D02*
X114868000Y-90364000D01*
X114868000Y-90364000D02*
X112208000Y-90364000D01*
X146117000Y-67116000D02*
X146117000Y-65786000D01*
X147447000Y-67116000D02*
X146117000Y-67116000D01*
X148717000Y-67116000D02*
X148717000Y-64456000D01*
X148717000Y-64456000D02*
X151317000Y-64456000D01*
X148717000Y-67116000D02*
X151317000Y-67116000D01*
X151317000Y-67116000D02*
X151317000Y-64456000D01*
X112512000Y-57106000D02*
X112512000Y-58166000D01*
X114572000Y-57106000D02*
X112556000Y-57106000D01*
X113572000Y-59226000D02*
X114572000Y-59226000D01*
X114572000Y-59226000D02*
X140632000Y-59226000D01*
X114572000Y-57106000D02*
X140632000Y-57106000D01*
X112512000Y-59226000D02*
X112512000Y-58166000D01*
X140632000Y-59226000D02*
X140632000Y-57106000D01*
X113572000Y-59226000D02*
X112512000Y-59226000D01*
X112512000Y-99866000D02*
X112512000Y-98806000D01*
X113572000Y-99866000D02*
X112512000Y-99866000D01*
X114572000Y-99866000D02*
X114572000Y-97746000D01*
X114572000Y-97746000D02*
X140632000Y-97746000D01*
X114572000Y-99866000D02*
X140632000Y-99866000D01*
X140632000Y-99866000D02*
X140632000Y-97746000D01*
X115398733Y-84330000D02*
X115741267Y-84330000D01*
X115398733Y-83310000D02*
X115741267Y-83310000D01*
X121353733Y-81536000D02*
X121696267Y-81536000D01*
X121353733Y-80516000D02*
X121696267Y-80516000D01*
X129157000Y-92806733D02*
X129157000Y-93149267D01*
X130177000Y-92806733D02*
X130177000Y-93149267D01*
X146683000Y-80600733D02*
X146683000Y-80943267D01*
X147703000Y-80600733D02*
X147703000Y-80943267D01*
X139617267Y-63625000D02*
X139274733Y-63625000D01*
X139617267Y-64645000D02*
X139274733Y-64645000D01*
X134448733Y-64645000D02*
X134791267Y-64645000D01*
X134448733Y-63625000D02*
X134791267Y-63625000D01*
D11*
X117689333Y-69826142D02*
X117641714Y-69873761D01*
X117498857Y-69921380D01*
X117403619Y-69921380D01*
X117260761Y-69873761D01*
X117165523Y-69778523D01*
X117117904Y-69683285D01*
X117070285Y-69492809D01*
X117070285Y-69349952D01*
X117117904Y-69159476D01*
X117165523Y-69064238D01*
X117260761Y-68969000D01*
X117403619Y-68921380D01*
X117498857Y-68921380D01*
X117641714Y-68969000D01*
X117689333Y-69016619D01*
X118594095Y-68921380D02*
X118117904Y-68921380D01*
X118070285Y-69397571D01*
X118117904Y-69349952D01*
X118213142Y-69302333D01*
X118451238Y-69302333D01*
X118546476Y-69349952D01*
X118594095Y-69397571D01*
X118641714Y-69492809D01*
X118641714Y-69730904D01*
X118594095Y-69826142D01*
X118546476Y-69873761D01*
X118451238Y-69921380D01*
X118213142Y-69921380D01*
X118117904Y-69873761D01*
X118070285Y-69826142D01*
X120650095Y-72731380D02*
X120650095Y-73540904D01*
X120697714Y-73636142D01*
X120745333Y-73683761D01*
X120840571Y-73731380D01*
X121031047Y-73731380D01*
X121126285Y-73683761D01*
X121173904Y-73636142D01*
X121221523Y-73540904D01*
X121221523Y-72731380D01*
X121650095Y-72826619D02*
X121697714Y-72779000D01*
X121792952Y-72731380D01*
X122031047Y-72731380D01*
X122126285Y-72779000D01*
X122173904Y-72826619D01*
X122221523Y-72921857D01*
X122221523Y-73017095D01*
X122173904Y-73159952D01*
X121602476Y-73731380D01*
X122221523Y-73731380D01*
X111752142Y-69286380D02*
X111418809Y-68810190D01*
X111180714Y-69286380D02*
X111180714Y-68286380D01*
X111561666Y-68286380D01*
X111656904Y-68334000D01*
X111704523Y-68381619D01*
X111752142Y-68476857D01*
X111752142Y-68619714D01*
X111704523Y-68714952D01*
X111656904Y-68762571D01*
X111561666Y-68810190D01*
X111180714Y-68810190D01*
X112704523Y-69286380D02*
X112133095Y-69286380D01*
X112418809Y-69286380D02*
X112418809Y-68286380D01*
X112323571Y-68429238D01*
X112228333Y-68524476D01*
X112133095Y-68572095D01*
X113323571Y-68286380D02*
X113418809Y-68286380D01*
X113514047Y-68334000D01*
X113561666Y-68381619D01*
X113609285Y-68476857D01*
X113656904Y-68667333D01*
X113656904Y-68905428D01*
X113609285Y-69095904D01*
X113561666Y-69191142D01*
X113514047Y-69238761D01*
X113418809Y-69286380D01*
X113323571Y-69286380D01*
X113228333Y-69238761D01*
X113180714Y-69191142D01*
X113133095Y-69095904D01*
X113085476Y-68905428D01*
X113085476Y-68667333D01*
X113133095Y-68476857D01*
X113180714Y-68381619D01*
X113228333Y-68334000D01*
X113323571Y-68286380D01*
X111607333Y-64968380D02*
X111274000Y-64492190D01*
X111035904Y-64968380D02*
X111035904Y-63968380D01*
X111416857Y-63968380D01*
X111512095Y-64016000D01*
X111559714Y-64063619D01*
X111607333Y-64158857D01*
X111607333Y-64301714D01*
X111559714Y-64396952D01*
X111512095Y-64444571D01*
X111416857Y-64492190D01*
X111035904Y-64492190D01*
X112083523Y-64968380D02*
X112274000Y-64968380D01*
X112369238Y-64920761D01*
X112416857Y-64873142D01*
X112512095Y-64730285D01*
X112559714Y-64539809D01*
X112559714Y-64158857D01*
X112512095Y-64063619D01*
X112464476Y-64016000D01*
X112369238Y-63968380D01*
X112178761Y-63968380D01*
X112083523Y-64016000D01*
X112035904Y-64063619D01*
X111988285Y-64158857D01*
X111988285Y-64396952D01*
X112035904Y-64492190D01*
X112083523Y-64539809D01*
X112178761Y-64587428D01*
X112369238Y-64587428D01*
X112464476Y-64539809D01*
X112512095Y-64492190D01*
X112559714Y-64396952D01*
X111607333Y-60650380D02*
X111274000Y-60174190D01*
X111035904Y-60650380D02*
X111035904Y-59650380D01*
X111416857Y-59650380D01*
X111512095Y-59698000D01*
X111559714Y-59745619D01*
X111607333Y-59840857D01*
X111607333Y-59983714D01*
X111559714Y-60078952D01*
X111512095Y-60126571D01*
X111416857Y-60174190D01*
X111035904Y-60174190D01*
X111940666Y-59650380D02*
X112607333Y-59650380D01*
X112178761Y-60650380D01*
X111148904Y-71445380D02*
X111148904Y-70445380D01*
X111387000Y-70445380D01*
X111529857Y-70493000D01*
X111625095Y-70588238D01*
X111672714Y-70683476D01*
X111720333Y-70873952D01*
X111720333Y-71016809D01*
X111672714Y-71207285D01*
X111625095Y-71302523D01*
X111529857Y-71397761D01*
X111387000Y-71445380D01*
X111148904Y-71445380D01*
X112053666Y-70445380D02*
X112672714Y-70445380D01*
X112339380Y-70826333D01*
X112482238Y-70826333D01*
X112577476Y-70873952D01*
X112625095Y-70921571D01*
X112672714Y-71016809D01*
X112672714Y-71254904D01*
X112625095Y-71350142D01*
X112577476Y-71397761D01*
X112482238Y-71445380D01*
X112196523Y-71445380D01*
X112101285Y-71397761D01*
X112053666Y-71350142D01*
X111148904Y-67127380D02*
X111148904Y-66127380D01*
X111387000Y-66127380D01*
X111529857Y-66175000D01*
X111625095Y-66270238D01*
X111672714Y-66365476D01*
X111720333Y-66555952D01*
X111720333Y-66698809D01*
X111672714Y-66889285D01*
X111625095Y-66984523D01*
X111529857Y-67079761D01*
X111387000Y-67127380D01*
X111148904Y-67127380D01*
X112101285Y-66222619D02*
X112148904Y-66175000D01*
X112244142Y-66127380D01*
X112482238Y-66127380D01*
X112577476Y-66175000D01*
X112625095Y-66222619D01*
X112672714Y-66317857D01*
X112672714Y-66413095D01*
X112625095Y-66555952D01*
X112053666Y-67127380D01*
X112672714Y-67127380D01*
X111148904Y-62809380D02*
X111148904Y-61809380D01*
X111387000Y-61809380D01*
X111529857Y-61857000D01*
X111625095Y-61952238D01*
X111672714Y-62047476D01*
X111720333Y-62237952D01*
X111720333Y-62380809D01*
X111672714Y-62571285D01*
X111625095Y-62666523D01*
X111529857Y-62761761D01*
X111387000Y-62809380D01*
X111148904Y-62809380D01*
X112672714Y-62809380D02*
X112101285Y-62809380D01*
X112387000Y-62809380D02*
X112387000Y-61809380D01*
X112291761Y-61952238D01*
X112196523Y-62047476D01*
X112101285Y-62095095D01*
X131349809Y-67667190D02*
X131349809Y-68143380D01*
X131016476Y-67143380D02*
X131349809Y-67667190D01*
X131683142Y-67143380D01*
X132540285Y-68143380D02*
X131968857Y-68143380D01*
X132254571Y-68143380D02*
X132254571Y-67143380D01*
X132159333Y-67286238D01*
X132064095Y-67381476D01*
X131968857Y-67429095D01*
X133389619Y-77089095D02*
X132580095Y-77089095D01*
X132484857Y-77136714D01*
X132437238Y-77184333D01*
X132389619Y-77279571D01*
X132389619Y-77470047D01*
X132437238Y-77565285D01*
X132484857Y-77612904D01*
X132580095Y-77660523D01*
X133389619Y-77660523D01*
X132389619Y-78660523D02*
X132389619Y-78089095D01*
X132389619Y-78374809D02*
X133389619Y-78374809D01*
X133246761Y-78279571D01*
X133151523Y-78184333D01*
X133103904Y-78089095D01*
X117205333Y-85431380D02*
X117776761Y-85431380D01*
X117491047Y-86431380D02*
X117491047Y-85431380D01*
X117967238Y-85431380D02*
X118300571Y-86431380D01*
X118633904Y-85431380D01*
X118919619Y-86383761D02*
X119062476Y-86431380D01*
X119300571Y-86431380D01*
X119395809Y-86383761D01*
X119443428Y-86336142D01*
X119491047Y-86240904D01*
X119491047Y-86145666D01*
X119443428Y-86050428D01*
X119395809Y-86002809D01*
X119300571Y-85955190D01*
X119110095Y-85907571D01*
X119014857Y-85859952D01*
X118967238Y-85812333D01*
X118919619Y-85717095D01*
X118919619Y-85621857D01*
X118967238Y-85526619D01*
X119014857Y-85479000D01*
X119110095Y-85431380D01*
X119348190Y-85431380D01*
X119491047Y-85479000D01*
X120443428Y-86431380D02*
X119872000Y-86431380D01*
X120157714Y-86431380D02*
X120157714Y-85431380D01*
X120062476Y-85574238D01*
X119967238Y-85669476D01*
X119872000Y-85717095D01*
X142375095Y-64095380D02*
X142946523Y-64095380D01*
X142660809Y-65095380D02*
X142660809Y-64095380D01*
X143279857Y-65095380D02*
X143279857Y-64095380D01*
X143660809Y-64095380D01*
X143756047Y-64143000D01*
X143803666Y-64190619D01*
X143851285Y-64285857D01*
X143851285Y-64428714D01*
X143803666Y-64523952D01*
X143756047Y-64571571D01*
X143660809Y-64619190D01*
X143279857Y-64619190D01*
X144803666Y-65095380D02*
X144232238Y-65095380D01*
X144517952Y-65095380D02*
X144517952Y-64095380D01*
X144422714Y-64238238D01*
X144327476Y-64333476D01*
X144232238Y-64381095D01*
X131691142Y-70810380D02*
X131357809Y-70334190D01*
X131119714Y-70810380D02*
X131119714Y-69810380D01*
X131500666Y-69810380D01*
X131595904Y-69858000D01*
X131643523Y-69905619D01*
X131691142Y-70000857D01*
X131691142Y-70143714D01*
X131643523Y-70238952D01*
X131595904Y-70286571D01*
X131500666Y-70334190D01*
X131119714Y-70334190D01*
X132643523Y-70810380D02*
X132072095Y-70810380D01*
X132357809Y-70810380D02*
X132357809Y-69810380D01*
X132262571Y-69953238D01*
X132167333Y-70048476D01*
X132072095Y-70096095D01*
X133024476Y-69905619D02*
X133072095Y-69858000D01*
X133167333Y-69810380D01*
X133405428Y-69810380D01*
X133500666Y-69858000D01*
X133548285Y-69905619D01*
X133595904Y-70000857D01*
X133595904Y-70096095D01*
X133548285Y-70238952D01*
X132976857Y-70810380D01*
X133595904Y-70810380D01*
X121500619Y-63873142D02*
X121976809Y-63539809D01*
X121500619Y-63301714D02*
X122500619Y-63301714D01*
X122500619Y-63682666D01*
X122453000Y-63777904D01*
X122405380Y-63825523D01*
X122310142Y-63873142D01*
X122167285Y-63873142D01*
X122072047Y-63825523D01*
X122024428Y-63777904D01*
X121976809Y-63682666D01*
X121976809Y-63301714D01*
X121500619Y-64825523D02*
X121500619Y-64254095D01*
X121500619Y-64539809D02*
X122500619Y-64539809D01*
X122357761Y-64444571D01*
X122262523Y-64349333D01*
X122214904Y-64254095D01*
X121500619Y-65777904D02*
X121500619Y-65206476D01*
X121500619Y-65492190D02*
X122500619Y-65492190D01*
X122357761Y-65396952D01*
X122262523Y-65301714D01*
X122214904Y-65206476D01*
X118070333Y-81478380D02*
X117737000Y-81002190D01*
X117498904Y-81478380D02*
X117498904Y-80478380D01*
X117879857Y-80478380D01*
X117975095Y-80526000D01*
X118022714Y-80573619D01*
X118070333Y-80668857D01*
X118070333Y-80811714D01*
X118022714Y-80906952D01*
X117975095Y-80954571D01*
X117879857Y-81002190D01*
X117498904Y-81002190D01*
X118641761Y-80906952D02*
X118546523Y-80859333D01*
X118498904Y-80811714D01*
X118451285Y-80716476D01*
X118451285Y-80668857D01*
X118498904Y-80573619D01*
X118546523Y-80526000D01*
X118641761Y-80478380D01*
X118832238Y-80478380D01*
X118927476Y-80526000D01*
X118975095Y-80573619D01*
X119022714Y-80668857D01*
X119022714Y-80716476D01*
X118975095Y-80811714D01*
X118927476Y-80859333D01*
X118832238Y-80906952D01*
X118641761Y-80906952D01*
X118546523Y-80954571D01*
X118498904Y-81002190D01*
X118451285Y-81097428D01*
X118451285Y-81287904D01*
X118498904Y-81383142D01*
X118546523Y-81430761D01*
X118641761Y-81478380D01*
X118832238Y-81478380D01*
X118927476Y-81430761D01*
X118975095Y-81383142D01*
X119022714Y-81287904D01*
X119022714Y-81097428D01*
X118975095Y-81002190D01*
X118927476Y-80954571D01*
X118832238Y-80906952D01*
X126579333Y-91003380D02*
X126246000Y-90527190D01*
X126007904Y-91003380D02*
X126007904Y-90003380D01*
X126388857Y-90003380D01*
X126484095Y-90051000D01*
X126531714Y-90098619D01*
X126579333Y-90193857D01*
X126579333Y-90336714D01*
X126531714Y-90431952D01*
X126484095Y-90479571D01*
X126388857Y-90527190D01*
X126007904Y-90527190D01*
X127436476Y-90003380D02*
X127246000Y-90003380D01*
X127150761Y-90051000D01*
X127103142Y-90098619D01*
X127007904Y-90241476D01*
X126960285Y-90431952D01*
X126960285Y-90812904D01*
X127007904Y-90908142D01*
X127055523Y-90955761D01*
X127150761Y-91003380D01*
X127341238Y-91003380D01*
X127436476Y-90955761D01*
X127484095Y-90908142D01*
X127531714Y-90812904D01*
X127531714Y-90574809D01*
X127484095Y-90479571D01*
X127436476Y-90431952D01*
X127341238Y-90384333D01*
X127150761Y-90384333D01*
X127055523Y-90431952D01*
X127007904Y-90479571D01*
X126960285Y-90574809D01*
X127403619Y-82270333D02*
X127879809Y-81937000D01*
X127403619Y-81698904D02*
X128403619Y-81698904D01*
X128403619Y-82079857D01*
X128356000Y-82175095D01*
X128308380Y-82222714D01*
X128213142Y-82270333D01*
X128070285Y-82270333D01*
X127975047Y-82222714D01*
X127927428Y-82175095D01*
X127879809Y-82079857D01*
X127879809Y-81698904D01*
X128403619Y-83175095D02*
X128403619Y-82698904D01*
X127927428Y-82651285D01*
X127975047Y-82698904D01*
X128022666Y-82794142D01*
X128022666Y-83032238D01*
X127975047Y-83127476D01*
X127927428Y-83175095D01*
X127832190Y-83222714D01*
X127594095Y-83222714D01*
X127498857Y-83175095D01*
X127451238Y-83127476D01*
X127403619Y-83032238D01*
X127403619Y-82794142D01*
X127451238Y-82698904D01*
X127498857Y-82651285D01*
X132675333Y-91003380D02*
X132342000Y-90527190D01*
X132103904Y-91003380D02*
X132103904Y-90003380D01*
X132484857Y-90003380D01*
X132580095Y-90051000D01*
X132627714Y-90098619D01*
X132675333Y-90193857D01*
X132675333Y-90336714D01*
X132627714Y-90431952D01*
X132580095Y-90479571D01*
X132484857Y-90527190D01*
X132103904Y-90527190D01*
X133532476Y-90336714D02*
X133532476Y-91003380D01*
X133294380Y-89955761D02*
X133056285Y-90670047D01*
X133675333Y-90670047D01*
X144105333Y-89860380D02*
X143772000Y-89384190D01*
X143533904Y-89860380D02*
X143533904Y-88860380D01*
X143914857Y-88860380D01*
X144010095Y-88908000D01*
X144057714Y-88955619D01*
X144105333Y-89050857D01*
X144105333Y-89193714D01*
X144057714Y-89288952D01*
X144010095Y-89336571D01*
X143914857Y-89384190D01*
X143533904Y-89384190D01*
X144438666Y-88860380D02*
X145057714Y-88860380D01*
X144724380Y-89241333D01*
X144867238Y-89241333D01*
X144962476Y-89288952D01*
X145010095Y-89336571D01*
X145057714Y-89431809D01*
X145057714Y-89669904D01*
X145010095Y-89765142D01*
X144962476Y-89812761D01*
X144867238Y-89860380D01*
X144581523Y-89860380D01*
X144486285Y-89812761D01*
X144438666Y-89765142D01*
X131659333Y-72842380D02*
X131326000Y-72366190D01*
X131087904Y-72842380D02*
X131087904Y-71842380D01*
X131468857Y-71842380D01*
X131564095Y-71890000D01*
X131611714Y-71937619D01*
X131659333Y-72032857D01*
X131659333Y-72175714D01*
X131611714Y-72270952D01*
X131564095Y-72318571D01*
X131468857Y-72366190D01*
X131087904Y-72366190D01*
X132040285Y-71937619D02*
X132087904Y-71890000D01*
X132183142Y-71842380D01*
X132421238Y-71842380D01*
X132516476Y-71890000D01*
X132564095Y-71937619D01*
X132611714Y-72032857D01*
X132611714Y-72128095D01*
X132564095Y-72270952D01*
X131992666Y-72842380D01*
X132611714Y-72842380D01*
X142073333Y-89860380D02*
X141740000Y-89384190D01*
X141501904Y-89860380D02*
X141501904Y-88860380D01*
X141882857Y-88860380D01*
X141978095Y-88908000D01*
X142025714Y-88955619D01*
X142073333Y-89050857D01*
X142073333Y-89193714D01*
X142025714Y-89288952D01*
X141978095Y-89336571D01*
X141882857Y-89384190D01*
X141501904Y-89384190D01*
X143025714Y-89860380D02*
X142454285Y-89860380D01*
X142740000Y-89860380D02*
X142740000Y-88860380D01*
X142644761Y-89003238D01*
X142549523Y-89098476D01*
X142454285Y-89146095D01*
X123277333Y-88717380D02*
X122801142Y-88717380D01*
X122801142Y-87717380D01*
X124134476Y-88717380D02*
X123563047Y-88717380D01*
X123848761Y-88717380D02*
X123848761Y-87717380D01*
X123753523Y-87860238D01*
X123658285Y-87955476D01*
X123563047Y-88003095D01*
X124222190Y-65730380D02*
X124222190Y-64730380D01*
X124555523Y-65444666D01*
X124888857Y-64730380D01*
X124888857Y-65730380D01*
X125888857Y-65730380D02*
X125317428Y-65730380D01*
X125603142Y-65730380D02*
X125603142Y-64730380D01*
X125507904Y-64873238D01*
X125412666Y-64968476D01*
X125317428Y-65016095D01*
X126079333Y-65825619D02*
X126841238Y-65825619D01*
X127031714Y-65682761D02*
X127174571Y-65730380D01*
X127412666Y-65730380D01*
X127507904Y-65682761D01*
X127555523Y-65635142D01*
X127603142Y-65539904D01*
X127603142Y-65444666D01*
X127555523Y-65349428D01*
X127507904Y-65301809D01*
X127412666Y-65254190D01*
X127222190Y-65206571D01*
X127126952Y-65158952D01*
X127079333Y-65111333D01*
X127031714Y-65016095D01*
X127031714Y-64920857D01*
X127079333Y-64825619D01*
X127126952Y-64778000D01*
X127222190Y-64730380D01*
X127460285Y-64730380D01*
X127603142Y-64778000D01*
X128031714Y-65206571D02*
X128365047Y-65206571D01*
X128507904Y-65730380D02*
X128031714Y-65730380D01*
X128031714Y-64730380D01*
X128507904Y-64730380D01*
X129412666Y-65730380D02*
X128936476Y-65730380D01*
X128936476Y-64730380D01*
X123842666Y-67508380D02*
X123842666Y-66508380D01*
X124176000Y-67222666D01*
X124509333Y-66508380D01*
X124509333Y-67508380D01*
X129042666Y-66508380D02*
X129709333Y-67508380D01*
X129709333Y-66508380D02*
X129042666Y-67508380D01*
X123968190Y-62047380D02*
X123968190Y-61047380D01*
X124301523Y-61761666D01*
X124634857Y-61047380D01*
X124634857Y-62047380D01*
X125301523Y-61047380D02*
X125396761Y-61047380D01*
X125492000Y-61095000D01*
X125539619Y-61142619D01*
X125587238Y-61237857D01*
X125634857Y-61428333D01*
X125634857Y-61666428D01*
X125587238Y-61856904D01*
X125539619Y-61952142D01*
X125492000Y-61999761D01*
X125396761Y-62047380D01*
X125301523Y-62047380D01*
X125206285Y-61999761D01*
X125158666Y-61952142D01*
X125111047Y-61856904D01*
X125063428Y-61666428D01*
X125063428Y-61428333D01*
X125111047Y-61237857D01*
X125158666Y-61142619D01*
X125206285Y-61095000D01*
X125301523Y-61047380D01*
X125825333Y-62142619D02*
X126587238Y-62142619D01*
X126777714Y-61999761D02*
X126920571Y-62047380D01*
X127158666Y-62047380D01*
X127253904Y-61999761D01*
X127301523Y-61952142D01*
X127349142Y-61856904D01*
X127349142Y-61761666D01*
X127301523Y-61666428D01*
X127253904Y-61618809D01*
X127158666Y-61571190D01*
X126968190Y-61523571D01*
X126872952Y-61475952D01*
X126825333Y-61428333D01*
X126777714Y-61333095D01*
X126777714Y-61237857D01*
X126825333Y-61142619D01*
X126872952Y-61095000D01*
X126968190Y-61047380D01*
X127206285Y-61047380D01*
X127349142Y-61095000D01*
X127777714Y-61523571D02*
X128111047Y-61523571D01*
X128253904Y-62047380D02*
X127777714Y-62047380D01*
X127777714Y-61047380D01*
X128253904Y-61047380D01*
X129158666Y-62047380D02*
X128682476Y-62047380D01*
X128682476Y-61047380D01*
X123812666Y-63825380D02*
X123812666Y-62825380D01*
X124146000Y-63539666D01*
X124479333Y-62825380D01*
X124479333Y-63825380D01*
X129012666Y-62825380D02*
X129679333Y-63825380D01*
X129679333Y-62825380D02*
X129012666Y-63825380D01*
X149153619Y-88781333D02*
X149629809Y-88448000D01*
X149153619Y-88209904D02*
X150153619Y-88209904D01*
X150153619Y-88590857D01*
X150106000Y-88686095D01*
X150058380Y-88733714D01*
X149963142Y-88781333D01*
X149820285Y-88781333D01*
X149725047Y-88733714D01*
X149677428Y-88686095D01*
X149629809Y-88590857D01*
X149629809Y-88209904D01*
X149677428Y-89209904D02*
X149677428Y-89543238D01*
X149153619Y-89686095D02*
X149153619Y-89209904D01*
X150153619Y-89209904D01*
X150153619Y-89686095D01*
X149201238Y-90067047D02*
X149153619Y-90209904D01*
X149153619Y-90448000D01*
X149201238Y-90543238D01*
X149248857Y-90590857D01*
X149344095Y-90638476D01*
X149439333Y-90638476D01*
X149534571Y-90590857D01*
X149582190Y-90543238D01*
X149629809Y-90448000D01*
X149677428Y-90257523D01*
X149725047Y-90162285D01*
X149772666Y-90114666D01*
X149867904Y-90067047D01*
X149963142Y-90067047D01*
X150058380Y-90114666D01*
X150106000Y-90162285D01*
X150153619Y-90257523D01*
X150153619Y-90495619D01*
X150106000Y-90638476D01*
X149677428Y-91067047D02*
X149677428Y-91400380D01*
X149153619Y-91543238D02*
X149153619Y-91067047D01*
X150153619Y-91067047D01*
X150153619Y-91543238D01*
X150153619Y-91828952D02*
X150153619Y-92400380D01*
X149153619Y-92114666D02*
X150153619Y-92114666D01*
X149058380Y-92495619D02*
X149058380Y-93257523D01*
X149201238Y-93448000D02*
X149153619Y-93590857D01*
X149153619Y-93828952D01*
X149201238Y-93924190D01*
X149248857Y-93971809D01*
X149344095Y-94019428D01*
X149439333Y-94019428D01*
X149534571Y-93971809D01*
X149582190Y-93924190D01*
X149629809Y-93828952D01*
X149677428Y-93638476D01*
X149725047Y-93543238D01*
X149772666Y-93495619D01*
X149867904Y-93448000D01*
X149963142Y-93448000D01*
X150058380Y-93495619D01*
X150106000Y-93543238D01*
X150153619Y-93638476D01*
X150153619Y-93876571D01*
X150106000Y-94019428D01*
X149677428Y-94448000D02*
X149677428Y-94781333D01*
X149153619Y-94924190D02*
X149153619Y-94448000D01*
X150153619Y-94448000D01*
X150153619Y-94924190D01*
X149153619Y-95828952D02*
X149153619Y-95352761D01*
X150153619Y-95352761D01*
X154606666Y-95948380D02*
X154606666Y-96662666D01*
X154559047Y-96805523D01*
X154463809Y-96900761D01*
X154320952Y-96948380D01*
X154225714Y-96948380D01*
X155511428Y-96281714D02*
X155511428Y-96948380D01*
X155273333Y-95900761D02*
X155035238Y-96615047D01*
X155654285Y-96615047D01*
X114085619Y-88693666D02*
X113371333Y-88693666D01*
X113228476Y-88646047D01*
X113133238Y-88550809D01*
X113085619Y-88407952D01*
X113085619Y-88312714D01*
X114085619Y-89074619D02*
X114085619Y-89693666D01*
X113704666Y-89360333D01*
X113704666Y-89503190D01*
X113657047Y-89598428D01*
X113609428Y-89646047D01*
X113514190Y-89693666D01*
X113276095Y-89693666D01*
X113180857Y-89646047D01*
X113133238Y-89598428D01*
X113085619Y-89503190D01*
X113085619Y-89217476D01*
X113133238Y-89122238D01*
X113180857Y-89074619D01*
X151939666Y-65365380D02*
X151939666Y-66079666D01*
X151892047Y-66222523D01*
X151796809Y-66317761D01*
X151653952Y-66365380D01*
X151558714Y-66365380D01*
X152368238Y-65460619D02*
X152415857Y-65413000D01*
X152511095Y-65365380D01*
X152749190Y-65365380D01*
X152844428Y-65413000D01*
X152892047Y-65460619D01*
X152939666Y-65555857D01*
X152939666Y-65651095D01*
X152892047Y-65793952D01*
X152320619Y-66365380D01*
X152939666Y-66365380D01*
X111833619Y-98472666D02*
X111119333Y-98472666D01*
X110976476Y-98425047D01*
X110881238Y-98329809D01*
X110833619Y-98186952D01*
X110833619Y-98091714D01*
X110833619Y-99472666D02*
X110833619Y-98901238D01*
X110833619Y-99186952D02*
X111833619Y-99186952D01*
X111690761Y-99091714D01*
X111595523Y-98996476D01*
X111547904Y-98901238D01*
X113085619Y-100869714D02*
X113085619Y-100298285D01*
X113085619Y-100584000D02*
X114085619Y-100584000D01*
X113942761Y-100488761D01*
X113847523Y-100393523D01*
X113799904Y-100298285D01*
X118070333Y-84177142D02*
X118022714Y-84224761D01*
X117879857Y-84272380D01*
X117784619Y-84272380D01*
X117641761Y-84224761D01*
X117546523Y-84129523D01*
X117498904Y-84034285D01*
X117451285Y-83843809D01*
X117451285Y-83700952D01*
X117498904Y-83510476D01*
X117546523Y-83415238D01*
X117641761Y-83320000D01*
X117784619Y-83272380D01*
X117879857Y-83272380D01*
X118022714Y-83320000D01*
X118070333Y-83367619D01*
X118403666Y-83272380D02*
X119070333Y-83272380D01*
X118641761Y-84272380D01*
X124039333Y-81383142D02*
X123991714Y-81430761D01*
X123848857Y-81478380D01*
X123753619Y-81478380D01*
X123610761Y-81430761D01*
X123515523Y-81335523D01*
X123467904Y-81240285D01*
X123420285Y-81049809D01*
X123420285Y-80906952D01*
X123467904Y-80716476D01*
X123515523Y-80621238D01*
X123610761Y-80526000D01*
X123753619Y-80478380D01*
X123848857Y-80478380D01*
X123991714Y-80526000D01*
X124039333Y-80573619D01*
X124896476Y-80478380D02*
X124706000Y-80478380D01*
X124610761Y-80526000D01*
X124563142Y-80573619D01*
X124467904Y-80716476D01*
X124420285Y-80906952D01*
X124420285Y-81287904D01*
X124467904Y-81383142D01*
X124515523Y-81430761D01*
X124610761Y-81478380D01*
X124801238Y-81478380D01*
X124896476Y-81430761D01*
X124944095Y-81383142D01*
X124991714Y-81287904D01*
X124991714Y-81049809D01*
X124944095Y-80954571D01*
X124896476Y-80906952D01*
X124801238Y-80859333D01*
X124610761Y-80859333D01*
X124515523Y-80906952D01*
X124467904Y-80954571D01*
X124420285Y-81049809D01*
X129500333Y-90908142D02*
X129452714Y-90955761D01*
X129309857Y-91003380D01*
X129214619Y-91003380D01*
X129071761Y-90955761D01*
X128976523Y-90860523D01*
X128928904Y-90765285D01*
X128881285Y-90574809D01*
X128881285Y-90431952D01*
X128928904Y-90241476D01*
X128976523Y-90146238D01*
X129071761Y-90051000D01*
X129214619Y-90003380D01*
X129309857Y-90003380D01*
X129452714Y-90051000D01*
X129500333Y-90098619D01*
X130357476Y-90336714D02*
X130357476Y-91003380D01*
X130119380Y-89955761D02*
X129881285Y-90670047D01*
X130500333Y-90670047D01*
X148265857Y-80605333D02*
X148218238Y-80557714D01*
X148170619Y-80414857D01*
X148170619Y-80319619D01*
X148218238Y-80176761D01*
X148313476Y-80081523D01*
X148408714Y-80033904D01*
X148599190Y-79986285D01*
X148742047Y-79986285D01*
X148932523Y-80033904D01*
X149027761Y-80081523D01*
X149123000Y-80176761D01*
X149170619Y-80319619D01*
X149170619Y-80414857D01*
X149123000Y-80557714D01*
X149075380Y-80605333D01*
X149170619Y-80938666D02*
X149170619Y-81557714D01*
X148789666Y-81224380D01*
X148789666Y-81367238D01*
X148742047Y-81462476D01*
X148694428Y-81510095D01*
X148599190Y-81557714D01*
X148361095Y-81557714D01*
X148265857Y-81510095D01*
X148218238Y-81462476D01*
X148170619Y-81367238D01*
X148170619Y-81081523D01*
X148218238Y-80986285D01*
X148265857Y-80938666D01*
X139279333Y-62968142D02*
X139231714Y-63015761D01*
X139088857Y-63063380D01*
X138993619Y-63063380D01*
X138850761Y-63015761D01*
X138755523Y-62920523D01*
X138707904Y-62825285D01*
X138660285Y-62634809D01*
X138660285Y-62491952D01*
X138707904Y-62301476D01*
X138755523Y-62206238D01*
X138850761Y-62111000D01*
X138993619Y-62063380D01*
X139088857Y-62063380D01*
X139231714Y-62111000D01*
X139279333Y-62158619D01*
X139660285Y-62158619D02*
X139707904Y-62111000D01*
X139803142Y-62063380D01*
X140041238Y-62063380D01*
X140136476Y-62111000D01*
X140184095Y-62158619D01*
X140231714Y-62253857D01*
X140231714Y-62349095D01*
X140184095Y-62491952D01*
X139612666Y-63063380D01*
X140231714Y-63063380D01*
X134453333Y-62968142D02*
X134405714Y-63015761D01*
X134262857Y-63063380D01*
X134167619Y-63063380D01*
X134024761Y-63015761D01*
X133929523Y-62920523D01*
X133881904Y-62825285D01*
X133834285Y-62634809D01*
X133834285Y-62491952D01*
X133881904Y-62301476D01*
X133929523Y-62206238D01*
X134024761Y-62111000D01*
X134167619Y-62063380D01*
X134262857Y-62063380D01*
X134405714Y-62111000D01*
X134453333Y-62158619D01*
X135405714Y-63063380D02*
X134834285Y-63063380D01*
X135120000Y-63063380D02*
X135120000Y-62063380D01*
X135024761Y-62206238D01*
X134929523Y-62301476D01*
X134834285Y-62349095D01*
M02*
