G04 #@! TF.GenerationSoftware,KiCad,Pcbnew,(5.1.0-0)*
G04 #@! TF.CreationDate,2019-04-23T18:51:06+03:00*
G04 #@! TF.ProjectId,ovms-swcan,6f766d73-2d73-4776-9361-6e2e6b696361,1.0*
G04 #@! TF.SameCoordinates,Original*
G04 #@! TF.FileFunction,Copper,L2,Inr*
G04 #@! TF.FilePolarity,Positive*
%FSLAX46Y46*%
G04 Gerber Fmt 4.6, Leading zero omitted, Abs format (unit mm)*
G04 Created by KiCad (PCBNEW (5.1.0-0)) date 2019-04-23 18:51:06*
%MOMM*%
%LPD*%
G04 APERTURE LIST*
%ADD10R,1.500000X1.500000*%
%ADD11O,1.700000X1.700000*%
%ADD12R,1.700000X1.700000*%
%ADD13O,1.350000X1.350000*%
%ADD14R,1.350000X1.350000*%
%ADD15C,2.800000*%
%ADD16C,0.635000*%
%ADD17C,1.000000*%
%ADD18C,0.200000*%
G04 APERTURE END LIST*
D10*
X143637000Y-62738000D03*
D11*
X154940000Y-63246000D03*
X154940000Y-65786000D03*
X154940000Y-68326000D03*
X154940000Y-70866000D03*
X154940000Y-73406000D03*
X154940000Y-75946000D03*
X154940000Y-78486000D03*
X154940000Y-81026000D03*
X154940000Y-83566000D03*
X154940000Y-86106000D03*
X154940000Y-88646000D03*
X154940000Y-91186000D03*
D12*
X154940000Y-93726000D03*
D11*
X113538000Y-91694000D03*
D12*
X113538000Y-94234000D03*
D11*
X149987000Y-65786000D03*
D12*
X147447000Y-65786000D03*
D13*
X139572000Y-58166000D03*
X131572000Y-58166000D03*
X125572000Y-58166000D03*
X135572000Y-58166000D03*
X123572000Y-58166000D03*
X137572000Y-58166000D03*
X133572000Y-58166000D03*
X115572000Y-58166000D03*
D14*
X113572000Y-58166000D03*
D13*
X121572000Y-58166000D03*
X117572000Y-58166000D03*
X129572000Y-58166000D03*
X119572000Y-58166000D03*
X127572000Y-58166000D03*
X139572000Y-98806000D03*
X137572000Y-98806000D03*
X135572000Y-98806000D03*
X133572000Y-98806000D03*
X131572000Y-98806000D03*
X129572000Y-98806000D03*
X127572000Y-98806000D03*
X125572000Y-98806000D03*
X123572000Y-98806000D03*
X121572000Y-98806000D03*
X119572000Y-98806000D03*
X117572000Y-98806000D03*
X115572000Y-98806000D03*
D14*
X113572000Y-98806000D03*
D15*
X107061000Y-99187000D03*
X159131000Y-99187000D03*
X105156000Y-57658000D03*
X159131000Y-57658000D03*
D16*
X118872000Y-80264000D03*
X134366000Y-71120000D03*
X129667000Y-89535000D03*
X119380000Y-72898000D03*
X147066000Y-78486000D03*
X137033000Y-65278000D03*
X106299000Y-66675000D03*
X131572000Y-71374000D03*
X143256000Y-94488000D03*
X132842000Y-95504000D03*
X129286000Y-85090000D03*
X146685000Y-83185000D03*
X120523000Y-62230000D03*
X116078000Y-68580000D03*
X138430000Y-89916000D03*
X142240000Y-87376000D03*
X125476000Y-69342000D03*
X123444000Y-67564000D03*
X123444000Y-63500000D03*
X134620000Y-78867000D03*
X124460000Y-68580000D03*
X135890000Y-77978000D03*
D17*
X137668000Y-60960000D02*
X137572000Y-60864000D01*
X136652000Y-61976000D02*
X137668000Y-60960000D01*
X122682000Y-61976000D02*
X136652000Y-61976000D01*
X137572000Y-60864000D02*
X137572000Y-58166000D01*
X116078000Y-68580000D02*
X122682000Y-61976000D01*
X145415000Y-60706000D02*
X147447000Y-62738000D01*
X137572000Y-59120594D02*
X139157406Y-60706000D01*
X147447000Y-62738000D02*
X147447000Y-65659000D01*
X139157406Y-60706000D02*
X145415000Y-60706000D01*
X137572000Y-58166000D02*
X137572000Y-59120594D01*
D18*
G36*
X157181385Y-56615909D02*
G01*
X157015545Y-57016284D01*
X156931000Y-57441319D01*
X156931000Y-57874681D01*
X157015545Y-58299716D01*
X157181385Y-58700091D01*
X157422148Y-59060418D01*
X157728582Y-59366852D01*
X158088909Y-59607615D01*
X158489284Y-59773455D01*
X158914319Y-59858000D01*
X159347681Y-59858000D01*
X159772716Y-59773455D01*
X160173091Y-59607615D01*
X160465000Y-59412567D01*
X160465001Y-97432433D01*
X160173091Y-97237385D01*
X159772716Y-97071545D01*
X159347681Y-96987000D01*
X158914319Y-96987000D01*
X158489284Y-97071545D01*
X158088909Y-97237385D01*
X157728582Y-97478148D01*
X157422148Y-97784582D01*
X157181385Y-98144909D01*
X157015545Y-98545284D01*
X156931000Y-98970319D01*
X156931000Y-99403681D01*
X157015545Y-99828716D01*
X157181385Y-100229091D01*
X157291574Y-100394000D01*
X108900426Y-100394000D01*
X109010615Y-100229091D01*
X109176455Y-99828716D01*
X109245620Y-99481000D01*
X112286058Y-99481000D01*
X112297797Y-99600189D01*
X112332563Y-99714797D01*
X112389020Y-99820421D01*
X112464999Y-99913001D01*
X112557579Y-99988980D01*
X112663203Y-100045437D01*
X112777811Y-100080203D01*
X112897000Y-100091942D01*
X113266000Y-100089000D01*
X113418000Y-99937000D01*
X113418000Y-98960000D01*
X112441000Y-98960000D01*
X112289000Y-99112000D01*
X112286058Y-99481000D01*
X109245620Y-99481000D01*
X109261000Y-99403681D01*
X109261000Y-98970319D01*
X109176455Y-98545284D01*
X109010615Y-98144909D01*
X109001322Y-98131000D01*
X112286058Y-98131000D01*
X112289000Y-98500000D01*
X112441000Y-98652000D01*
X113418000Y-98652000D01*
X113418000Y-97675000D01*
X113726000Y-97675000D01*
X113726000Y-98652000D01*
X113746000Y-98652000D01*
X113746000Y-98960000D01*
X113726000Y-98960000D01*
X113726000Y-99937000D01*
X113878000Y-100089000D01*
X114247000Y-100091942D01*
X114366189Y-100080203D01*
X114480797Y-100045437D01*
X114586421Y-99988980D01*
X114637416Y-99947129D01*
X114748569Y-100038351D01*
X115004811Y-100175315D01*
X115282850Y-100259657D01*
X115499548Y-100281000D01*
X115644452Y-100281000D01*
X115861150Y-100259657D01*
X116139189Y-100175315D01*
X116395431Y-100038351D01*
X116572000Y-99893444D01*
X116748569Y-100038351D01*
X117004811Y-100175315D01*
X117282850Y-100259657D01*
X117499548Y-100281000D01*
X117644452Y-100281000D01*
X117861150Y-100259657D01*
X118139189Y-100175315D01*
X118395431Y-100038351D01*
X118572000Y-99893444D01*
X118748569Y-100038351D01*
X119004811Y-100175315D01*
X119282850Y-100259657D01*
X119499548Y-100281000D01*
X119644452Y-100281000D01*
X119861150Y-100259657D01*
X120139189Y-100175315D01*
X120395431Y-100038351D01*
X120572000Y-99893444D01*
X120748569Y-100038351D01*
X121004811Y-100175315D01*
X121282850Y-100259657D01*
X121499548Y-100281000D01*
X121644452Y-100281000D01*
X121861150Y-100259657D01*
X122139189Y-100175315D01*
X122395431Y-100038351D01*
X122572000Y-99893444D01*
X122748569Y-100038351D01*
X123004811Y-100175315D01*
X123282850Y-100259657D01*
X123499548Y-100281000D01*
X123644452Y-100281000D01*
X123861150Y-100259657D01*
X124139189Y-100175315D01*
X124395431Y-100038351D01*
X124572000Y-99893444D01*
X124748569Y-100038351D01*
X125004811Y-100175315D01*
X125282850Y-100259657D01*
X125499548Y-100281000D01*
X125644452Y-100281000D01*
X125861150Y-100259657D01*
X126139189Y-100175315D01*
X126395431Y-100038351D01*
X126572000Y-99893444D01*
X126748569Y-100038351D01*
X127004811Y-100175315D01*
X127282850Y-100259657D01*
X127499548Y-100281000D01*
X127644452Y-100281000D01*
X127861150Y-100259657D01*
X128139189Y-100175315D01*
X128395431Y-100038351D01*
X128572000Y-99893444D01*
X128748569Y-100038351D01*
X129004811Y-100175315D01*
X129282850Y-100259657D01*
X129499548Y-100281000D01*
X129644452Y-100281000D01*
X129861150Y-100259657D01*
X130139189Y-100175315D01*
X130395431Y-100038351D01*
X130572000Y-99893444D01*
X130748569Y-100038351D01*
X131004811Y-100175315D01*
X131282850Y-100259657D01*
X131499548Y-100281000D01*
X131644452Y-100281000D01*
X131861150Y-100259657D01*
X132139189Y-100175315D01*
X132395431Y-100038351D01*
X132572000Y-99893444D01*
X132748569Y-100038351D01*
X133004811Y-100175315D01*
X133282850Y-100259657D01*
X133499548Y-100281000D01*
X133644452Y-100281000D01*
X133861150Y-100259657D01*
X134139189Y-100175315D01*
X134395431Y-100038351D01*
X134572000Y-99893444D01*
X134748569Y-100038351D01*
X135004811Y-100175315D01*
X135282850Y-100259657D01*
X135499548Y-100281000D01*
X135644452Y-100281000D01*
X135861150Y-100259657D01*
X136139189Y-100175315D01*
X136395431Y-100038351D01*
X136572000Y-99893444D01*
X136748569Y-100038351D01*
X137004811Y-100175315D01*
X137282850Y-100259657D01*
X137499548Y-100281000D01*
X137644452Y-100281000D01*
X137861150Y-100259657D01*
X138139189Y-100175315D01*
X138395431Y-100038351D01*
X138572000Y-99893444D01*
X138748569Y-100038351D01*
X139004811Y-100175315D01*
X139282850Y-100259657D01*
X139499548Y-100281000D01*
X139644452Y-100281000D01*
X139861150Y-100259657D01*
X140139189Y-100175315D01*
X140395431Y-100038351D01*
X140620028Y-99854028D01*
X140804351Y-99629431D01*
X140941315Y-99373189D01*
X141025657Y-99095150D01*
X141054136Y-98806000D01*
X141025657Y-98516850D01*
X140941315Y-98238811D01*
X140804351Y-97982569D01*
X140620028Y-97757972D01*
X140395431Y-97573649D01*
X140139189Y-97436685D01*
X139861150Y-97352343D01*
X139644452Y-97331000D01*
X139499548Y-97331000D01*
X139282850Y-97352343D01*
X139004811Y-97436685D01*
X138748569Y-97573649D01*
X138572000Y-97718556D01*
X138395431Y-97573649D01*
X138139189Y-97436685D01*
X137861150Y-97352343D01*
X137644452Y-97331000D01*
X137499548Y-97331000D01*
X137282850Y-97352343D01*
X137004811Y-97436685D01*
X136748569Y-97573649D01*
X136572000Y-97718556D01*
X136395431Y-97573649D01*
X136139189Y-97436685D01*
X135861150Y-97352343D01*
X135644452Y-97331000D01*
X135499548Y-97331000D01*
X135282850Y-97352343D01*
X135004811Y-97436685D01*
X134748569Y-97573649D01*
X134572000Y-97718556D01*
X134395431Y-97573649D01*
X134139189Y-97436685D01*
X133861150Y-97352343D01*
X133644452Y-97331000D01*
X133499548Y-97331000D01*
X133282850Y-97352343D01*
X133004811Y-97436685D01*
X132748569Y-97573649D01*
X132572000Y-97718556D01*
X132395431Y-97573649D01*
X132139189Y-97436685D01*
X131861150Y-97352343D01*
X131644452Y-97331000D01*
X131499548Y-97331000D01*
X131282850Y-97352343D01*
X131004811Y-97436685D01*
X130748569Y-97573649D01*
X130572000Y-97718556D01*
X130395431Y-97573649D01*
X130139189Y-97436685D01*
X129861150Y-97352343D01*
X129644452Y-97331000D01*
X129499548Y-97331000D01*
X129282850Y-97352343D01*
X129004811Y-97436685D01*
X128748569Y-97573649D01*
X128572000Y-97718556D01*
X128395431Y-97573649D01*
X128139189Y-97436685D01*
X127861150Y-97352343D01*
X127644452Y-97331000D01*
X127499548Y-97331000D01*
X127282850Y-97352343D01*
X127004811Y-97436685D01*
X126748569Y-97573649D01*
X126572000Y-97718556D01*
X126395431Y-97573649D01*
X126139189Y-97436685D01*
X125861150Y-97352343D01*
X125644452Y-97331000D01*
X125499548Y-97331000D01*
X125282850Y-97352343D01*
X125004811Y-97436685D01*
X124748569Y-97573649D01*
X124572000Y-97718556D01*
X124395431Y-97573649D01*
X124139189Y-97436685D01*
X123861150Y-97352343D01*
X123644452Y-97331000D01*
X123499548Y-97331000D01*
X123282850Y-97352343D01*
X123004811Y-97436685D01*
X122748569Y-97573649D01*
X122572000Y-97718556D01*
X122395431Y-97573649D01*
X122139189Y-97436685D01*
X121861150Y-97352343D01*
X121644452Y-97331000D01*
X121499548Y-97331000D01*
X121282850Y-97352343D01*
X121004811Y-97436685D01*
X120748569Y-97573649D01*
X120572000Y-97718556D01*
X120395431Y-97573649D01*
X120139189Y-97436685D01*
X119861150Y-97352343D01*
X119644452Y-97331000D01*
X119499548Y-97331000D01*
X119282850Y-97352343D01*
X119004811Y-97436685D01*
X118748569Y-97573649D01*
X118572000Y-97718556D01*
X118395431Y-97573649D01*
X118139189Y-97436685D01*
X117861150Y-97352343D01*
X117644452Y-97331000D01*
X117499548Y-97331000D01*
X117282850Y-97352343D01*
X117004811Y-97436685D01*
X116748569Y-97573649D01*
X116572000Y-97718556D01*
X116395431Y-97573649D01*
X116139189Y-97436685D01*
X115861150Y-97352343D01*
X115644452Y-97331000D01*
X115499548Y-97331000D01*
X115282850Y-97352343D01*
X115004811Y-97436685D01*
X114748569Y-97573649D01*
X114637416Y-97664871D01*
X114586421Y-97623020D01*
X114480797Y-97566563D01*
X114366189Y-97531797D01*
X114247000Y-97520058D01*
X113878000Y-97523000D01*
X113726000Y-97675000D01*
X113418000Y-97675000D01*
X113266000Y-97523000D01*
X112897000Y-97520058D01*
X112777811Y-97531797D01*
X112663203Y-97566563D01*
X112557579Y-97623020D01*
X112464999Y-97698999D01*
X112389020Y-97791579D01*
X112332563Y-97897203D01*
X112297797Y-98011811D01*
X112286058Y-98131000D01*
X109001322Y-98131000D01*
X108769852Y-97784582D01*
X108463418Y-97478148D01*
X108103091Y-97237385D01*
X107702716Y-97071545D01*
X107277681Y-96987000D01*
X106844319Y-96987000D01*
X106419284Y-97071545D01*
X106018909Y-97237385D01*
X105658582Y-97478148D01*
X105352148Y-97784582D01*
X105111385Y-98144909D01*
X104945545Y-98545284D01*
X104861000Y-98970319D01*
X104861000Y-99403681D01*
X104945545Y-99828716D01*
X105111385Y-100229091D01*
X105221574Y-100394000D01*
X103695000Y-100394000D01*
X103695000Y-91694000D01*
X111880017Y-91694000D01*
X111911875Y-92017456D01*
X112006223Y-92328483D01*
X112159438Y-92615126D01*
X112241746Y-92715419D01*
X112241394Y-92715607D01*
X112119578Y-92815578D01*
X112019607Y-92937394D01*
X111945321Y-93076372D01*
X111899576Y-93227173D01*
X111884130Y-93384000D01*
X111884130Y-95084000D01*
X111899576Y-95240827D01*
X111945321Y-95391628D01*
X112019607Y-95530606D01*
X112119578Y-95652422D01*
X112241394Y-95752393D01*
X112380372Y-95826679D01*
X112531173Y-95872424D01*
X112688000Y-95887870D01*
X114388000Y-95887870D01*
X114544827Y-95872424D01*
X114695628Y-95826679D01*
X114834606Y-95752393D01*
X114956422Y-95652422D01*
X115056393Y-95530606D01*
X115130679Y-95391628D01*
X115176424Y-95240827D01*
X115191870Y-95084000D01*
X115191870Y-93384000D01*
X115176424Y-93227173D01*
X115130679Y-93076372D01*
X115056393Y-92937394D01*
X114956422Y-92815578D01*
X114834606Y-92715607D01*
X114834254Y-92715419D01*
X114916562Y-92615126D01*
X115069777Y-92328483D01*
X115164125Y-92017456D01*
X115195983Y-91694000D01*
X115164125Y-91370544D01*
X115069777Y-91059517D01*
X114916562Y-90772874D01*
X114710371Y-90521629D01*
X114459126Y-90315438D01*
X114172483Y-90162223D01*
X113861456Y-90067875D01*
X113619052Y-90044000D01*
X113456948Y-90044000D01*
X113214544Y-90067875D01*
X112903517Y-90162223D01*
X112616874Y-90315438D01*
X112365629Y-90521629D01*
X112159438Y-90772874D01*
X112006223Y-91059517D01*
X111911875Y-91370544D01*
X111880017Y-91694000D01*
X103695000Y-91694000D01*
X103695000Y-89424936D01*
X128549500Y-89424936D01*
X128549500Y-89645064D01*
X128592445Y-89860963D01*
X128676684Y-90064335D01*
X128798981Y-90247365D01*
X128954635Y-90403019D01*
X129137665Y-90525316D01*
X129341037Y-90609555D01*
X129556936Y-90652500D01*
X129777064Y-90652500D01*
X129992963Y-90609555D01*
X130196335Y-90525316D01*
X130379365Y-90403019D01*
X130535019Y-90247365D01*
X130657316Y-90064335D01*
X130741555Y-89860963D01*
X130752500Y-89805936D01*
X137312500Y-89805936D01*
X137312500Y-90026064D01*
X137355445Y-90241963D01*
X137439684Y-90445335D01*
X137561981Y-90628365D01*
X137717635Y-90784019D01*
X137900665Y-90906316D01*
X138104037Y-90990555D01*
X138319936Y-91033500D01*
X138540064Y-91033500D01*
X138755963Y-90990555D01*
X138959335Y-90906316D01*
X139142365Y-90784019D01*
X139298019Y-90628365D01*
X139420316Y-90445335D01*
X139504555Y-90241963D01*
X139547500Y-90026064D01*
X139547500Y-89805936D01*
X139504555Y-89590037D01*
X139420316Y-89386665D01*
X139298019Y-89203635D01*
X139142365Y-89047981D01*
X138959335Y-88925684D01*
X138755963Y-88841445D01*
X138540064Y-88798500D01*
X138319936Y-88798500D01*
X138104037Y-88841445D01*
X137900665Y-88925684D01*
X137717635Y-89047981D01*
X137561981Y-89203635D01*
X137439684Y-89386665D01*
X137355445Y-89590037D01*
X137312500Y-89805936D01*
X130752500Y-89805936D01*
X130784500Y-89645064D01*
X130784500Y-89424936D01*
X130741555Y-89209037D01*
X130657316Y-89005665D01*
X130535019Y-88822635D01*
X130379365Y-88666981D01*
X130196335Y-88544684D01*
X129992963Y-88460445D01*
X129777064Y-88417500D01*
X129556936Y-88417500D01*
X129341037Y-88460445D01*
X129137665Y-88544684D01*
X128954635Y-88666981D01*
X128798981Y-88822635D01*
X128676684Y-89005665D01*
X128592445Y-89209037D01*
X128549500Y-89424936D01*
X103695000Y-89424936D01*
X103695000Y-87265936D01*
X141122500Y-87265936D01*
X141122500Y-87486064D01*
X141165445Y-87701963D01*
X141249684Y-87905335D01*
X141371981Y-88088365D01*
X141527635Y-88244019D01*
X141710665Y-88366316D01*
X141914037Y-88450555D01*
X142129936Y-88493500D01*
X142350064Y-88493500D01*
X142565963Y-88450555D01*
X142769335Y-88366316D01*
X142952365Y-88244019D01*
X143108019Y-88088365D01*
X143230316Y-87905335D01*
X143314555Y-87701963D01*
X143357500Y-87486064D01*
X143357500Y-87265936D01*
X143314555Y-87050037D01*
X143230316Y-86846665D01*
X143108019Y-86663635D01*
X142952365Y-86507981D01*
X142769335Y-86385684D01*
X142565963Y-86301445D01*
X142350064Y-86258500D01*
X142129936Y-86258500D01*
X141914037Y-86301445D01*
X141710665Y-86385684D01*
X141527635Y-86507981D01*
X141371981Y-86663635D01*
X141249684Y-86846665D01*
X141165445Y-87050037D01*
X141122500Y-87265936D01*
X103695000Y-87265936D01*
X103695000Y-80153936D01*
X117754500Y-80153936D01*
X117754500Y-80374064D01*
X117797445Y-80589963D01*
X117881684Y-80793335D01*
X118003981Y-80976365D01*
X118159635Y-81132019D01*
X118342665Y-81254316D01*
X118546037Y-81338555D01*
X118761936Y-81381500D01*
X118982064Y-81381500D01*
X119197963Y-81338555D01*
X119401335Y-81254316D01*
X119584365Y-81132019D01*
X119740019Y-80976365D01*
X119862316Y-80793335D01*
X119946555Y-80589963D01*
X119989500Y-80374064D01*
X119989500Y-80153936D01*
X119946555Y-79938037D01*
X119862316Y-79734665D01*
X119740019Y-79551635D01*
X119584365Y-79395981D01*
X119401335Y-79273684D01*
X119197963Y-79189445D01*
X118982064Y-79146500D01*
X118761936Y-79146500D01*
X118546037Y-79189445D01*
X118342665Y-79273684D01*
X118159635Y-79395981D01*
X118003981Y-79551635D01*
X117881684Y-79734665D01*
X117797445Y-79938037D01*
X117754500Y-80153936D01*
X103695000Y-80153936D01*
X103695000Y-78756936D01*
X133502500Y-78756936D01*
X133502500Y-78977064D01*
X133545445Y-79192963D01*
X133629684Y-79396335D01*
X133751981Y-79579365D01*
X133907635Y-79735019D01*
X134090665Y-79857316D01*
X134294037Y-79941555D01*
X134509936Y-79984500D01*
X134730064Y-79984500D01*
X134945963Y-79941555D01*
X135149335Y-79857316D01*
X135332365Y-79735019D01*
X135488019Y-79579365D01*
X135610316Y-79396335D01*
X135694555Y-79192963D01*
X135716453Y-79082873D01*
X135779936Y-79095500D01*
X136000064Y-79095500D01*
X136215963Y-79052555D01*
X136419335Y-78968316D01*
X136602365Y-78846019D01*
X136758019Y-78690365D01*
X136880316Y-78507335D01*
X136934742Y-78375936D01*
X145948500Y-78375936D01*
X145948500Y-78596064D01*
X145991445Y-78811963D01*
X146075684Y-79015335D01*
X146197981Y-79198365D01*
X146353635Y-79354019D01*
X146536665Y-79476316D01*
X146740037Y-79560555D01*
X146955936Y-79603500D01*
X147176064Y-79603500D01*
X147391963Y-79560555D01*
X147595335Y-79476316D01*
X147778365Y-79354019D01*
X147934019Y-79198365D01*
X148056316Y-79015335D01*
X148140555Y-78811963D01*
X148183500Y-78596064D01*
X148183500Y-78375936D01*
X148140555Y-78160037D01*
X148056316Y-77956665D01*
X147934019Y-77773635D01*
X147778365Y-77617981D01*
X147595335Y-77495684D01*
X147391963Y-77411445D01*
X147176064Y-77368500D01*
X146955936Y-77368500D01*
X146740037Y-77411445D01*
X146536665Y-77495684D01*
X146353635Y-77617981D01*
X146197981Y-77773635D01*
X146075684Y-77956665D01*
X145991445Y-78160037D01*
X145948500Y-78375936D01*
X136934742Y-78375936D01*
X136964555Y-78303963D01*
X137007500Y-78088064D01*
X137007500Y-77867936D01*
X136964555Y-77652037D01*
X136880316Y-77448665D01*
X136758019Y-77265635D01*
X136602365Y-77109981D01*
X136419335Y-76987684D01*
X136215963Y-76903445D01*
X136000064Y-76860500D01*
X135779936Y-76860500D01*
X135564037Y-76903445D01*
X135360665Y-76987684D01*
X135177635Y-77109981D01*
X135021981Y-77265635D01*
X134899684Y-77448665D01*
X134815445Y-77652037D01*
X134793547Y-77762127D01*
X134730064Y-77749500D01*
X134509936Y-77749500D01*
X134294037Y-77792445D01*
X134090665Y-77876684D01*
X133907635Y-77998981D01*
X133751981Y-78154635D01*
X133629684Y-78337665D01*
X133545445Y-78541037D01*
X133502500Y-78756936D01*
X103695000Y-78756936D01*
X103695000Y-72787936D01*
X118262500Y-72787936D01*
X118262500Y-73008064D01*
X118305445Y-73223963D01*
X118389684Y-73427335D01*
X118511981Y-73610365D01*
X118667635Y-73766019D01*
X118850665Y-73888316D01*
X119054037Y-73972555D01*
X119269936Y-74015500D01*
X119490064Y-74015500D01*
X119705963Y-73972555D01*
X119909335Y-73888316D01*
X120092365Y-73766019D01*
X120248019Y-73610365D01*
X120370316Y-73427335D01*
X120454555Y-73223963D01*
X120497500Y-73008064D01*
X120497500Y-72787936D01*
X120454555Y-72572037D01*
X120370316Y-72368665D01*
X120248019Y-72185635D01*
X120092365Y-72029981D01*
X119909335Y-71907684D01*
X119705963Y-71823445D01*
X119490064Y-71780500D01*
X119269936Y-71780500D01*
X119054037Y-71823445D01*
X118850665Y-71907684D01*
X118667635Y-72029981D01*
X118511981Y-72185635D01*
X118389684Y-72368665D01*
X118305445Y-72572037D01*
X118262500Y-72787936D01*
X103695000Y-72787936D01*
X103695000Y-71009936D01*
X133248500Y-71009936D01*
X133248500Y-71230064D01*
X133291445Y-71445963D01*
X133375684Y-71649335D01*
X133497981Y-71832365D01*
X133653635Y-71988019D01*
X133836665Y-72110316D01*
X134040037Y-72194555D01*
X134255936Y-72237500D01*
X134476064Y-72237500D01*
X134691963Y-72194555D01*
X134895335Y-72110316D01*
X135078365Y-71988019D01*
X135234019Y-71832365D01*
X135356316Y-71649335D01*
X135440555Y-71445963D01*
X135483500Y-71230064D01*
X135483500Y-71009936D01*
X135440555Y-70794037D01*
X135356316Y-70590665D01*
X135234019Y-70407635D01*
X135078365Y-70251981D01*
X134895335Y-70129684D01*
X134691963Y-70045445D01*
X134476064Y-70002500D01*
X134255936Y-70002500D01*
X134040037Y-70045445D01*
X133836665Y-70129684D01*
X133653635Y-70251981D01*
X133497981Y-70407635D01*
X133375684Y-70590665D01*
X133291445Y-70794037D01*
X133248500Y-71009936D01*
X103695000Y-71009936D01*
X103695000Y-59308270D01*
X103753582Y-59366852D01*
X104113909Y-59607615D01*
X104514284Y-59773455D01*
X104939319Y-59858000D01*
X105372681Y-59858000D01*
X105797716Y-59773455D01*
X106198091Y-59607615D01*
X106558418Y-59366852D01*
X106864852Y-59060418D01*
X107105615Y-58700091D01*
X107271455Y-58299716D01*
X107356000Y-57874681D01*
X107356000Y-57491000D01*
X112093130Y-57491000D01*
X112093130Y-58841000D01*
X112108576Y-58997827D01*
X112154321Y-59148628D01*
X112228607Y-59287606D01*
X112328578Y-59409422D01*
X112450394Y-59509393D01*
X112589372Y-59583679D01*
X112740173Y-59629424D01*
X112897000Y-59644870D01*
X114247000Y-59644870D01*
X114403827Y-59629424D01*
X114554628Y-59583679D01*
X114693606Y-59509393D01*
X114797223Y-59424357D01*
X115004811Y-59535315D01*
X115282850Y-59619657D01*
X115499548Y-59641000D01*
X115644452Y-59641000D01*
X115861150Y-59619657D01*
X116139189Y-59535315D01*
X116395431Y-59398351D01*
X116572000Y-59253444D01*
X116748569Y-59398351D01*
X117004811Y-59535315D01*
X117282850Y-59619657D01*
X117499548Y-59641000D01*
X117644452Y-59641000D01*
X117861150Y-59619657D01*
X118139189Y-59535315D01*
X118395431Y-59398351D01*
X118572000Y-59253444D01*
X118748569Y-59398351D01*
X119004811Y-59535315D01*
X119282850Y-59619657D01*
X119499548Y-59641000D01*
X119644452Y-59641000D01*
X119861150Y-59619657D01*
X120139189Y-59535315D01*
X120395431Y-59398351D01*
X120572000Y-59253444D01*
X120748569Y-59398351D01*
X121004811Y-59535315D01*
X121282850Y-59619657D01*
X121499548Y-59641000D01*
X121644452Y-59641000D01*
X121861150Y-59619657D01*
X122139189Y-59535315D01*
X122395431Y-59398351D01*
X122572000Y-59253444D01*
X122748569Y-59398351D01*
X123004811Y-59535315D01*
X123282850Y-59619657D01*
X123499548Y-59641000D01*
X123644452Y-59641000D01*
X123861150Y-59619657D01*
X124139189Y-59535315D01*
X124395431Y-59398351D01*
X124572000Y-59253444D01*
X124748569Y-59398351D01*
X125004811Y-59535315D01*
X125282850Y-59619657D01*
X125499548Y-59641000D01*
X125644452Y-59641000D01*
X125861150Y-59619657D01*
X126139189Y-59535315D01*
X126395431Y-59398351D01*
X126572000Y-59253444D01*
X126748569Y-59398351D01*
X127004811Y-59535315D01*
X127282850Y-59619657D01*
X127499548Y-59641000D01*
X127644452Y-59641000D01*
X127861150Y-59619657D01*
X128139189Y-59535315D01*
X128395431Y-59398351D01*
X128572000Y-59253444D01*
X128748569Y-59398351D01*
X129004811Y-59535315D01*
X129282850Y-59619657D01*
X129499548Y-59641000D01*
X129644452Y-59641000D01*
X129861150Y-59619657D01*
X130139189Y-59535315D01*
X130395431Y-59398351D01*
X130572000Y-59253444D01*
X130748569Y-59398351D01*
X131004811Y-59535315D01*
X131282850Y-59619657D01*
X131499548Y-59641000D01*
X131644452Y-59641000D01*
X131861150Y-59619657D01*
X132139189Y-59535315D01*
X132395431Y-59398351D01*
X132572000Y-59253444D01*
X132748569Y-59398351D01*
X133004811Y-59535315D01*
X133282850Y-59619657D01*
X133499548Y-59641000D01*
X133644452Y-59641000D01*
X133861150Y-59619657D01*
X134139189Y-59535315D01*
X134395431Y-59398351D01*
X134572000Y-59253444D01*
X134748569Y-59398351D01*
X135004811Y-59535315D01*
X135282850Y-59619657D01*
X135499548Y-59641000D01*
X135644452Y-59641000D01*
X135861150Y-59619657D01*
X136139189Y-59535315D01*
X136272001Y-59464326D01*
X136272000Y-60517522D01*
X136113523Y-60676000D01*
X122745860Y-60676000D01*
X122681999Y-60669710D01*
X122618138Y-60676000D01*
X122618136Y-60676000D01*
X122427155Y-60694810D01*
X122182104Y-60769145D01*
X121956264Y-60889860D01*
X121758313Y-61052313D01*
X121717602Y-61101920D01*
X115113603Y-67705920D01*
X114991860Y-67854265D01*
X114871145Y-68080105D01*
X114796811Y-68325156D01*
X114771710Y-68580000D01*
X114796811Y-68834844D01*
X114871145Y-69079895D01*
X114991860Y-69305735D01*
X115154314Y-69503686D01*
X115352265Y-69666140D01*
X115578105Y-69786855D01*
X115823156Y-69861189D01*
X116078000Y-69886290D01*
X116332844Y-69861189D01*
X116577895Y-69786855D01*
X116803735Y-69666140D01*
X116952080Y-69544397D01*
X119042541Y-67453936D01*
X122326500Y-67453936D01*
X122326500Y-67674064D01*
X122369445Y-67889963D01*
X122453684Y-68093335D01*
X122575981Y-68276365D01*
X122731635Y-68432019D01*
X122914665Y-68554316D01*
X123118037Y-68638555D01*
X123333936Y-68681500D01*
X123342500Y-68681500D01*
X123342500Y-68690064D01*
X123385445Y-68905963D01*
X123469684Y-69109335D01*
X123591981Y-69292365D01*
X123747635Y-69448019D01*
X123930665Y-69570316D01*
X124134037Y-69654555D01*
X124349936Y-69697500D01*
X124413680Y-69697500D01*
X124485684Y-69871335D01*
X124607981Y-70054365D01*
X124763635Y-70210019D01*
X124946665Y-70332316D01*
X125150037Y-70416555D01*
X125365936Y-70459500D01*
X125586064Y-70459500D01*
X125801963Y-70416555D01*
X126005335Y-70332316D01*
X126188365Y-70210019D01*
X126344019Y-70054365D01*
X126466316Y-69871335D01*
X126550555Y-69667963D01*
X126593500Y-69452064D01*
X126593500Y-69231936D01*
X126550555Y-69016037D01*
X126466316Y-68812665D01*
X126344019Y-68629635D01*
X126188365Y-68473981D01*
X126005335Y-68351684D01*
X125801963Y-68267445D01*
X125586064Y-68224500D01*
X125522320Y-68224500D01*
X125450316Y-68050665D01*
X125328019Y-67867635D01*
X125172365Y-67711981D01*
X124989335Y-67589684D01*
X124785963Y-67505445D01*
X124570064Y-67462500D01*
X124561500Y-67462500D01*
X124561500Y-67453936D01*
X124518555Y-67238037D01*
X124434316Y-67034665D01*
X124312019Y-66851635D01*
X124156365Y-66695981D01*
X123973335Y-66573684D01*
X123769963Y-66489445D01*
X123554064Y-66446500D01*
X123333936Y-66446500D01*
X123118037Y-66489445D01*
X122914665Y-66573684D01*
X122731635Y-66695981D01*
X122575981Y-66851635D01*
X122453684Y-67034665D01*
X122369445Y-67238037D01*
X122326500Y-67453936D01*
X119042541Y-67453936D01*
X121328541Y-65167936D01*
X135915500Y-65167936D01*
X135915500Y-65388064D01*
X135958445Y-65603963D01*
X136042684Y-65807335D01*
X136164981Y-65990365D01*
X136320635Y-66146019D01*
X136503665Y-66268316D01*
X136707037Y-66352555D01*
X136922936Y-66395500D01*
X137143064Y-66395500D01*
X137358963Y-66352555D01*
X137562335Y-66268316D01*
X137745365Y-66146019D01*
X137901019Y-65990365D01*
X138023316Y-65807335D01*
X138107555Y-65603963D01*
X138150500Y-65388064D01*
X138150500Y-65167936D01*
X138107555Y-64952037D01*
X138023316Y-64748665D01*
X137901019Y-64565635D01*
X137745365Y-64409981D01*
X137562335Y-64287684D01*
X137358963Y-64203445D01*
X137143064Y-64160500D01*
X136922936Y-64160500D01*
X136707037Y-64203445D01*
X136503665Y-64287684D01*
X136320635Y-64409981D01*
X136164981Y-64565635D01*
X136042684Y-64748665D01*
X135958445Y-64952037D01*
X135915500Y-65167936D01*
X121328541Y-65167936D01*
X122459075Y-64037403D01*
X122575981Y-64212365D01*
X122731635Y-64368019D01*
X122914665Y-64490316D01*
X123118037Y-64574555D01*
X123333936Y-64617500D01*
X123554064Y-64617500D01*
X123769963Y-64574555D01*
X123973335Y-64490316D01*
X124156365Y-64368019D01*
X124312019Y-64212365D01*
X124434316Y-64029335D01*
X124518555Y-63825963D01*
X124561500Y-63610064D01*
X124561500Y-63389936D01*
X124538837Y-63276000D01*
X136588139Y-63276000D01*
X136652000Y-63282290D01*
X136715861Y-63276000D01*
X136715864Y-63276000D01*
X136906845Y-63257190D01*
X137151896Y-63182855D01*
X137377736Y-63062140D01*
X137575687Y-62899687D01*
X137616403Y-62850074D01*
X138542086Y-61924392D01*
X138591686Y-61883686D01*
X138595117Y-61879505D01*
X138657510Y-61912855D01*
X138902561Y-61987190D01*
X139093542Y-62006000D01*
X139093543Y-62006000D01*
X139157406Y-62012290D01*
X139221269Y-62006000D01*
X142083130Y-62006000D01*
X142083130Y-63488000D01*
X142098576Y-63644827D01*
X142144321Y-63795628D01*
X142218607Y-63934606D01*
X142318578Y-64056422D01*
X142440394Y-64156393D01*
X142579372Y-64230679D01*
X142730173Y-64276424D01*
X142887000Y-64291870D01*
X144387000Y-64291870D01*
X144543827Y-64276424D01*
X144694628Y-64230679D01*
X144833606Y-64156393D01*
X144955422Y-64056422D01*
X145055393Y-63934606D01*
X145129679Y-63795628D01*
X145175424Y-63644827D01*
X145190870Y-63488000D01*
X145190870Y-62320347D01*
X146147000Y-63276478D01*
X146147001Y-64270392D01*
X146028578Y-64367578D01*
X145928607Y-64489394D01*
X145854321Y-64628372D01*
X145808576Y-64779173D01*
X145793130Y-64936000D01*
X145793130Y-66636000D01*
X145808576Y-66792827D01*
X145854321Y-66943628D01*
X145928607Y-67082606D01*
X146028578Y-67204422D01*
X146150394Y-67304393D01*
X146289372Y-67378679D01*
X146440173Y-67424424D01*
X146597000Y-67439870D01*
X148297000Y-67439870D01*
X148453827Y-67424424D01*
X148604628Y-67378679D01*
X148743606Y-67304393D01*
X148865422Y-67204422D01*
X148965393Y-67082606D01*
X148965581Y-67082254D01*
X149065874Y-67164562D01*
X149352517Y-67317777D01*
X149663544Y-67412125D01*
X149905948Y-67436000D01*
X150068052Y-67436000D01*
X150310456Y-67412125D01*
X150621483Y-67317777D01*
X150908126Y-67164562D01*
X151159371Y-66958371D01*
X151365562Y-66707126D01*
X151518777Y-66420483D01*
X151613125Y-66109456D01*
X151644983Y-65786000D01*
X151613125Y-65462544D01*
X151518777Y-65151517D01*
X151365562Y-64864874D01*
X151159371Y-64613629D01*
X150908126Y-64407438D01*
X150621483Y-64254223D01*
X150310456Y-64159875D01*
X150068052Y-64136000D01*
X149905948Y-64136000D01*
X149663544Y-64159875D01*
X149352517Y-64254223D01*
X149065874Y-64407438D01*
X148965581Y-64489746D01*
X148965393Y-64489394D01*
X148865422Y-64367578D01*
X148747000Y-64270392D01*
X148747000Y-63246000D01*
X153282017Y-63246000D01*
X153313875Y-63569456D01*
X153408223Y-63880483D01*
X153561438Y-64167126D01*
X153767629Y-64418371D01*
X153886591Y-64516000D01*
X153767629Y-64613629D01*
X153561438Y-64864874D01*
X153408223Y-65151517D01*
X153313875Y-65462544D01*
X153282017Y-65786000D01*
X153313875Y-66109456D01*
X153408223Y-66420483D01*
X153561438Y-66707126D01*
X153767629Y-66958371D01*
X153886591Y-67056000D01*
X153767629Y-67153629D01*
X153561438Y-67404874D01*
X153408223Y-67691517D01*
X153313875Y-68002544D01*
X153282017Y-68326000D01*
X153313875Y-68649456D01*
X153408223Y-68960483D01*
X153561438Y-69247126D01*
X153767629Y-69498371D01*
X153886591Y-69596000D01*
X153767629Y-69693629D01*
X153561438Y-69944874D01*
X153408223Y-70231517D01*
X153313875Y-70542544D01*
X153282017Y-70866000D01*
X153313875Y-71189456D01*
X153408223Y-71500483D01*
X153561438Y-71787126D01*
X153767629Y-72038371D01*
X153886591Y-72136000D01*
X153767629Y-72233629D01*
X153561438Y-72484874D01*
X153408223Y-72771517D01*
X153313875Y-73082544D01*
X153282017Y-73406000D01*
X153313875Y-73729456D01*
X153408223Y-74040483D01*
X153561438Y-74327126D01*
X153767629Y-74578371D01*
X153886591Y-74676000D01*
X153767629Y-74773629D01*
X153561438Y-75024874D01*
X153408223Y-75311517D01*
X153313875Y-75622544D01*
X153282017Y-75946000D01*
X153313875Y-76269456D01*
X153408223Y-76580483D01*
X153561438Y-76867126D01*
X153767629Y-77118371D01*
X153886591Y-77216000D01*
X153767629Y-77313629D01*
X153561438Y-77564874D01*
X153408223Y-77851517D01*
X153313875Y-78162544D01*
X153282017Y-78486000D01*
X153313875Y-78809456D01*
X153408223Y-79120483D01*
X153561438Y-79407126D01*
X153767629Y-79658371D01*
X153886591Y-79756000D01*
X153767629Y-79853629D01*
X153561438Y-80104874D01*
X153408223Y-80391517D01*
X153313875Y-80702544D01*
X153282017Y-81026000D01*
X153313875Y-81349456D01*
X153408223Y-81660483D01*
X153561438Y-81947126D01*
X153767629Y-82198371D01*
X153886591Y-82296000D01*
X153767629Y-82393629D01*
X153561438Y-82644874D01*
X153408223Y-82931517D01*
X153313875Y-83242544D01*
X153282017Y-83566000D01*
X153313875Y-83889456D01*
X153408223Y-84200483D01*
X153561438Y-84487126D01*
X153767629Y-84738371D01*
X153886591Y-84836000D01*
X153767629Y-84933629D01*
X153561438Y-85184874D01*
X153408223Y-85471517D01*
X153313875Y-85782544D01*
X153282017Y-86106000D01*
X153313875Y-86429456D01*
X153408223Y-86740483D01*
X153561438Y-87027126D01*
X153767629Y-87278371D01*
X153886591Y-87376000D01*
X153767629Y-87473629D01*
X153561438Y-87724874D01*
X153408223Y-88011517D01*
X153313875Y-88322544D01*
X153282017Y-88646000D01*
X153313875Y-88969456D01*
X153408223Y-89280483D01*
X153561438Y-89567126D01*
X153767629Y-89818371D01*
X153886591Y-89916000D01*
X153767629Y-90013629D01*
X153561438Y-90264874D01*
X153408223Y-90551517D01*
X153313875Y-90862544D01*
X153282017Y-91186000D01*
X153313875Y-91509456D01*
X153408223Y-91820483D01*
X153561438Y-92107126D01*
X153643746Y-92207419D01*
X153643394Y-92207607D01*
X153521578Y-92307578D01*
X153421607Y-92429394D01*
X153347321Y-92568372D01*
X153301576Y-92719173D01*
X153286130Y-92876000D01*
X153286130Y-94576000D01*
X153301576Y-94732827D01*
X153347321Y-94883628D01*
X153421607Y-95022606D01*
X153521578Y-95144422D01*
X153643394Y-95244393D01*
X153782372Y-95318679D01*
X153933173Y-95364424D01*
X154090000Y-95379870D01*
X155790000Y-95379870D01*
X155946827Y-95364424D01*
X156097628Y-95318679D01*
X156236606Y-95244393D01*
X156358422Y-95144422D01*
X156458393Y-95022606D01*
X156532679Y-94883628D01*
X156578424Y-94732827D01*
X156593870Y-94576000D01*
X156593870Y-92876000D01*
X156578424Y-92719173D01*
X156532679Y-92568372D01*
X156458393Y-92429394D01*
X156358422Y-92307578D01*
X156236606Y-92207607D01*
X156236254Y-92207419D01*
X156318562Y-92107126D01*
X156471777Y-91820483D01*
X156566125Y-91509456D01*
X156597983Y-91186000D01*
X156566125Y-90862544D01*
X156471777Y-90551517D01*
X156318562Y-90264874D01*
X156112371Y-90013629D01*
X155993409Y-89916000D01*
X156112371Y-89818371D01*
X156318562Y-89567126D01*
X156471777Y-89280483D01*
X156566125Y-88969456D01*
X156597983Y-88646000D01*
X156566125Y-88322544D01*
X156471777Y-88011517D01*
X156318562Y-87724874D01*
X156112371Y-87473629D01*
X155993409Y-87376000D01*
X156112371Y-87278371D01*
X156318562Y-87027126D01*
X156471777Y-86740483D01*
X156566125Y-86429456D01*
X156597983Y-86106000D01*
X156566125Y-85782544D01*
X156471777Y-85471517D01*
X156318562Y-85184874D01*
X156112371Y-84933629D01*
X155993409Y-84836000D01*
X156112371Y-84738371D01*
X156318562Y-84487126D01*
X156471777Y-84200483D01*
X156566125Y-83889456D01*
X156597983Y-83566000D01*
X156566125Y-83242544D01*
X156471777Y-82931517D01*
X156318562Y-82644874D01*
X156112371Y-82393629D01*
X155993409Y-82296000D01*
X156112371Y-82198371D01*
X156318562Y-81947126D01*
X156471777Y-81660483D01*
X156566125Y-81349456D01*
X156597983Y-81026000D01*
X156566125Y-80702544D01*
X156471777Y-80391517D01*
X156318562Y-80104874D01*
X156112371Y-79853629D01*
X155993409Y-79756000D01*
X156112371Y-79658371D01*
X156318562Y-79407126D01*
X156471777Y-79120483D01*
X156566125Y-78809456D01*
X156597983Y-78486000D01*
X156566125Y-78162544D01*
X156471777Y-77851517D01*
X156318562Y-77564874D01*
X156112371Y-77313629D01*
X155993409Y-77216000D01*
X156112371Y-77118371D01*
X156318562Y-76867126D01*
X156471777Y-76580483D01*
X156566125Y-76269456D01*
X156597983Y-75946000D01*
X156566125Y-75622544D01*
X156471777Y-75311517D01*
X156318562Y-75024874D01*
X156112371Y-74773629D01*
X155993409Y-74676000D01*
X156112371Y-74578371D01*
X156318562Y-74327126D01*
X156471777Y-74040483D01*
X156566125Y-73729456D01*
X156597983Y-73406000D01*
X156566125Y-73082544D01*
X156471777Y-72771517D01*
X156318562Y-72484874D01*
X156112371Y-72233629D01*
X155993409Y-72136000D01*
X156112371Y-72038371D01*
X156318562Y-71787126D01*
X156471777Y-71500483D01*
X156566125Y-71189456D01*
X156597983Y-70866000D01*
X156566125Y-70542544D01*
X156471777Y-70231517D01*
X156318562Y-69944874D01*
X156112371Y-69693629D01*
X155993409Y-69596000D01*
X156112371Y-69498371D01*
X156318562Y-69247126D01*
X156471777Y-68960483D01*
X156566125Y-68649456D01*
X156597983Y-68326000D01*
X156566125Y-68002544D01*
X156471777Y-67691517D01*
X156318562Y-67404874D01*
X156112371Y-67153629D01*
X155993409Y-67056000D01*
X156112371Y-66958371D01*
X156318562Y-66707126D01*
X156471777Y-66420483D01*
X156566125Y-66109456D01*
X156597983Y-65786000D01*
X156566125Y-65462544D01*
X156471777Y-65151517D01*
X156318562Y-64864874D01*
X156112371Y-64613629D01*
X155993409Y-64516000D01*
X156112371Y-64418371D01*
X156318562Y-64167126D01*
X156471777Y-63880483D01*
X156566125Y-63569456D01*
X156597983Y-63246000D01*
X156566125Y-62922544D01*
X156471777Y-62611517D01*
X156318562Y-62324874D01*
X156112371Y-62073629D01*
X155861126Y-61867438D01*
X155574483Y-61714223D01*
X155263456Y-61619875D01*
X155021052Y-61596000D01*
X154858948Y-61596000D01*
X154616544Y-61619875D01*
X154305517Y-61714223D01*
X154018874Y-61867438D01*
X153767629Y-62073629D01*
X153561438Y-62324874D01*
X153408223Y-62611517D01*
X153313875Y-62922544D01*
X153282017Y-63246000D01*
X148747000Y-63246000D01*
X148747000Y-62801861D01*
X148753290Y-62738000D01*
X148742848Y-62631981D01*
X148728190Y-62483155D01*
X148653855Y-62238104D01*
X148533140Y-62012264D01*
X148370687Y-61814313D01*
X148321080Y-61773602D01*
X146379403Y-59831926D01*
X146338687Y-59782313D01*
X146140736Y-59619860D01*
X145914896Y-59499145D01*
X145669845Y-59424810D01*
X145478864Y-59406000D01*
X145478861Y-59406000D01*
X145415000Y-59399710D01*
X145351139Y-59406000D01*
X140381121Y-59406000D01*
X140395431Y-59398351D01*
X140620028Y-59214028D01*
X140804351Y-58989431D01*
X140941315Y-58733189D01*
X141025657Y-58455150D01*
X141054136Y-58166000D01*
X141025657Y-57876850D01*
X140941315Y-57598811D01*
X140804351Y-57342569D01*
X140620028Y-57117972D01*
X140395431Y-56933649D01*
X140139189Y-56796685D01*
X139861150Y-56712343D01*
X139644452Y-56691000D01*
X139499548Y-56691000D01*
X139282850Y-56712343D01*
X139004811Y-56796685D01*
X138748569Y-56933649D01*
X138572000Y-57078556D01*
X138395431Y-56933649D01*
X138139189Y-56796685D01*
X137861150Y-56712343D01*
X137644452Y-56691000D01*
X137499548Y-56691000D01*
X137282850Y-56712343D01*
X137004811Y-56796685D01*
X136748569Y-56933649D01*
X136572000Y-57078556D01*
X136395431Y-56933649D01*
X136139189Y-56796685D01*
X135861150Y-56712343D01*
X135644452Y-56691000D01*
X135499548Y-56691000D01*
X135282850Y-56712343D01*
X135004811Y-56796685D01*
X134748569Y-56933649D01*
X134572000Y-57078556D01*
X134395431Y-56933649D01*
X134139189Y-56796685D01*
X133861150Y-56712343D01*
X133644452Y-56691000D01*
X133499548Y-56691000D01*
X133282850Y-56712343D01*
X133004811Y-56796685D01*
X132748569Y-56933649D01*
X132572000Y-57078556D01*
X132395431Y-56933649D01*
X132139189Y-56796685D01*
X131861150Y-56712343D01*
X131644452Y-56691000D01*
X131499548Y-56691000D01*
X131282850Y-56712343D01*
X131004811Y-56796685D01*
X130748569Y-56933649D01*
X130572000Y-57078556D01*
X130395431Y-56933649D01*
X130139189Y-56796685D01*
X129861150Y-56712343D01*
X129644452Y-56691000D01*
X129499548Y-56691000D01*
X129282850Y-56712343D01*
X129004811Y-56796685D01*
X128748569Y-56933649D01*
X128572000Y-57078556D01*
X128395431Y-56933649D01*
X128139189Y-56796685D01*
X127861150Y-56712343D01*
X127644452Y-56691000D01*
X127499548Y-56691000D01*
X127282850Y-56712343D01*
X127004811Y-56796685D01*
X126748569Y-56933649D01*
X126572000Y-57078556D01*
X126395431Y-56933649D01*
X126139189Y-56796685D01*
X125861150Y-56712343D01*
X125644452Y-56691000D01*
X125499548Y-56691000D01*
X125282850Y-56712343D01*
X125004811Y-56796685D01*
X124748569Y-56933649D01*
X124572000Y-57078556D01*
X124395431Y-56933649D01*
X124139189Y-56796685D01*
X123861150Y-56712343D01*
X123644452Y-56691000D01*
X123499548Y-56691000D01*
X123282850Y-56712343D01*
X123004811Y-56796685D01*
X122748569Y-56933649D01*
X122572000Y-57078556D01*
X122395431Y-56933649D01*
X122139189Y-56796685D01*
X121861150Y-56712343D01*
X121644452Y-56691000D01*
X121499548Y-56691000D01*
X121282850Y-56712343D01*
X121004811Y-56796685D01*
X120748569Y-56933649D01*
X120572000Y-57078556D01*
X120395431Y-56933649D01*
X120139189Y-56796685D01*
X119861150Y-56712343D01*
X119644452Y-56691000D01*
X119499548Y-56691000D01*
X119282850Y-56712343D01*
X119004811Y-56796685D01*
X118748569Y-56933649D01*
X118572000Y-57078556D01*
X118395431Y-56933649D01*
X118139189Y-56796685D01*
X117861150Y-56712343D01*
X117644452Y-56691000D01*
X117499548Y-56691000D01*
X117282850Y-56712343D01*
X117004811Y-56796685D01*
X116748569Y-56933649D01*
X116572000Y-57078556D01*
X116395431Y-56933649D01*
X116139189Y-56796685D01*
X115861150Y-56712343D01*
X115644452Y-56691000D01*
X115499548Y-56691000D01*
X115282850Y-56712343D01*
X115004811Y-56796685D01*
X114797223Y-56907643D01*
X114693606Y-56822607D01*
X114554628Y-56748321D01*
X114403827Y-56702576D01*
X114247000Y-56687130D01*
X112897000Y-56687130D01*
X112740173Y-56702576D01*
X112589372Y-56748321D01*
X112450394Y-56822607D01*
X112328578Y-56922578D01*
X112228607Y-57044394D01*
X112154321Y-57183372D01*
X112108576Y-57334173D01*
X112093130Y-57491000D01*
X107356000Y-57491000D01*
X107356000Y-57441319D01*
X107271455Y-57016284D01*
X107105615Y-56615909D01*
X107080285Y-56578000D01*
X157206715Y-56578000D01*
X157181385Y-56615909D01*
X157181385Y-56615909D01*
G37*
X157181385Y-56615909D02*
X157015545Y-57016284D01*
X156931000Y-57441319D01*
X156931000Y-57874681D01*
X157015545Y-58299716D01*
X157181385Y-58700091D01*
X157422148Y-59060418D01*
X157728582Y-59366852D01*
X158088909Y-59607615D01*
X158489284Y-59773455D01*
X158914319Y-59858000D01*
X159347681Y-59858000D01*
X159772716Y-59773455D01*
X160173091Y-59607615D01*
X160465000Y-59412567D01*
X160465001Y-97432433D01*
X160173091Y-97237385D01*
X159772716Y-97071545D01*
X159347681Y-96987000D01*
X158914319Y-96987000D01*
X158489284Y-97071545D01*
X158088909Y-97237385D01*
X157728582Y-97478148D01*
X157422148Y-97784582D01*
X157181385Y-98144909D01*
X157015545Y-98545284D01*
X156931000Y-98970319D01*
X156931000Y-99403681D01*
X157015545Y-99828716D01*
X157181385Y-100229091D01*
X157291574Y-100394000D01*
X108900426Y-100394000D01*
X109010615Y-100229091D01*
X109176455Y-99828716D01*
X109245620Y-99481000D01*
X112286058Y-99481000D01*
X112297797Y-99600189D01*
X112332563Y-99714797D01*
X112389020Y-99820421D01*
X112464999Y-99913001D01*
X112557579Y-99988980D01*
X112663203Y-100045437D01*
X112777811Y-100080203D01*
X112897000Y-100091942D01*
X113266000Y-100089000D01*
X113418000Y-99937000D01*
X113418000Y-98960000D01*
X112441000Y-98960000D01*
X112289000Y-99112000D01*
X112286058Y-99481000D01*
X109245620Y-99481000D01*
X109261000Y-99403681D01*
X109261000Y-98970319D01*
X109176455Y-98545284D01*
X109010615Y-98144909D01*
X109001322Y-98131000D01*
X112286058Y-98131000D01*
X112289000Y-98500000D01*
X112441000Y-98652000D01*
X113418000Y-98652000D01*
X113418000Y-97675000D01*
X113726000Y-97675000D01*
X113726000Y-98652000D01*
X113746000Y-98652000D01*
X113746000Y-98960000D01*
X113726000Y-98960000D01*
X113726000Y-99937000D01*
X113878000Y-100089000D01*
X114247000Y-100091942D01*
X114366189Y-100080203D01*
X114480797Y-100045437D01*
X114586421Y-99988980D01*
X114637416Y-99947129D01*
X114748569Y-100038351D01*
X115004811Y-100175315D01*
X115282850Y-100259657D01*
X115499548Y-100281000D01*
X115644452Y-100281000D01*
X115861150Y-100259657D01*
X116139189Y-100175315D01*
X116395431Y-100038351D01*
X116572000Y-99893444D01*
X116748569Y-100038351D01*
X117004811Y-100175315D01*
X117282850Y-100259657D01*
X117499548Y-100281000D01*
X117644452Y-100281000D01*
X117861150Y-100259657D01*
X118139189Y-100175315D01*
X118395431Y-100038351D01*
X118572000Y-99893444D01*
X118748569Y-100038351D01*
X119004811Y-100175315D01*
X119282850Y-100259657D01*
X119499548Y-100281000D01*
X119644452Y-100281000D01*
X119861150Y-100259657D01*
X120139189Y-100175315D01*
X120395431Y-100038351D01*
X120572000Y-99893444D01*
X120748569Y-100038351D01*
X121004811Y-100175315D01*
X121282850Y-100259657D01*
X121499548Y-100281000D01*
X121644452Y-100281000D01*
X121861150Y-100259657D01*
X122139189Y-100175315D01*
X122395431Y-100038351D01*
X122572000Y-99893444D01*
X122748569Y-100038351D01*
X123004811Y-100175315D01*
X123282850Y-100259657D01*
X123499548Y-100281000D01*
X123644452Y-100281000D01*
X123861150Y-100259657D01*
X124139189Y-100175315D01*
X124395431Y-100038351D01*
X124572000Y-99893444D01*
X124748569Y-100038351D01*
X125004811Y-100175315D01*
X125282850Y-100259657D01*
X125499548Y-100281000D01*
X125644452Y-100281000D01*
X125861150Y-100259657D01*
X126139189Y-100175315D01*
X126395431Y-100038351D01*
X126572000Y-99893444D01*
X126748569Y-100038351D01*
X127004811Y-100175315D01*
X127282850Y-100259657D01*
X127499548Y-100281000D01*
X127644452Y-100281000D01*
X127861150Y-100259657D01*
X128139189Y-100175315D01*
X128395431Y-100038351D01*
X128572000Y-99893444D01*
X128748569Y-100038351D01*
X129004811Y-100175315D01*
X129282850Y-100259657D01*
X129499548Y-100281000D01*
X129644452Y-100281000D01*
X129861150Y-100259657D01*
X130139189Y-100175315D01*
X130395431Y-100038351D01*
X130572000Y-99893444D01*
X130748569Y-100038351D01*
X131004811Y-100175315D01*
X131282850Y-100259657D01*
X131499548Y-100281000D01*
X131644452Y-100281000D01*
X131861150Y-100259657D01*
X132139189Y-100175315D01*
X132395431Y-100038351D01*
X132572000Y-99893444D01*
X132748569Y-100038351D01*
X133004811Y-100175315D01*
X133282850Y-100259657D01*
X133499548Y-100281000D01*
X133644452Y-100281000D01*
X133861150Y-100259657D01*
X134139189Y-100175315D01*
X134395431Y-100038351D01*
X134572000Y-99893444D01*
X134748569Y-100038351D01*
X135004811Y-100175315D01*
X135282850Y-100259657D01*
X135499548Y-100281000D01*
X135644452Y-100281000D01*
X135861150Y-100259657D01*
X136139189Y-100175315D01*
X136395431Y-100038351D01*
X136572000Y-99893444D01*
X136748569Y-100038351D01*
X137004811Y-100175315D01*
X137282850Y-100259657D01*
X137499548Y-100281000D01*
X137644452Y-100281000D01*
X137861150Y-100259657D01*
X138139189Y-100175315D01*
X138395431Y-100038351D01*
X138572000Y-99893444D01*
X138748569Y-100038351D01*
X139004811Y-100175315D01*
X139282850Y-100259657D01*
X139499548Y-100281000D01*
X139644452Y-100281000D01*
X139861150Y-100259657D01*
X140139189Y-100175315D01*
X140395431Y-100038351D01*
X140620028Y-99854028D01*
X140804351Y-99629431D01*
X140941315Y-99373189D01*
X141025657Y-99095150D01*
X141054136Y-98806000D01*
X141025657Y-98516850D01*
X140941315Y-98238811D01*
X140804351Y-97982569D01*
X140620028Y-97757972D01*
X140395431Y-97573649D01*
X140139189Y-97436685D01*
X139861150Y-97352343D01*
X139644452Y-97331000D01*
X139499548Y-97331000D01*
X139282850Y-97352343D01*
X139004811Y-97436685D01*
X138748569Y-97573649D01*
X138572000Y-97718556D01*
X138395431Y-97573649D01*
X138139189Y-97436685D01*
X137861150Y-97352343D01*
X137644452Y-97331000D01*
X137499548Y-97331000D01*
X137282850Y-97352343D01*
X137004811Y-97436685D01*
X136748569Y-97573649D01*
X136572000Y-97718556D01*
X136395431Y-97573649D01*
X136139189Y-97436685D01*
X135861150Y-97352343D01*
X135644452Y-97331000D01*
X135499548Y-97331000D01*
X135282850Y-97352343D01*
X135004811Y-97436685D01*
X134748569Y-97573649D01*
X134572000Y-97718556D01*
X134395431Y-97573649D01*
X134139189Y-97436685D01*
X133861150Y-97352343D01*
X133644452Y-97331000D01*
X133499548Y-97331000D01*
X133282850Y-97352343D01*
X133004811Y-97436685D01*
X132748569Y-97573649D01*
X132572000Y-97718556D01*
X132395431Y-97573649D01*
X132139189Y-97436685D01*
X131861150Y-97352343D01*
X131644452Y-97331000D01*
X131499548Y-97331000D01*
X131282850Y-97352343D01*
X131004811Y-97436685D01*
X130748569Y-97573649D01*
X130572000Y-97718556D01*
X130395431Y-97573649D01*
X130139189Y-97436685D01*
X129861150Y-97352343D01*
X129644452Y-97331000D01*
X129499548Y-97331000D01*
X129282850Y-97352343D01*
X129004811Y-97436685D01*
X128748569Y-97573649D01*
X128572000Y-97718556D01*
X128395431Y-97573649D01*
X128139189Y-97436685D01*
X127861150Y-97352343D01*
X127644452Y-97331000D01*
X127499548Y-97331000D01*
X127282850Y-97352343D01*
X127004811Y-97436685D01*
X126748569Y-97573649D01*
X126572000Y-97718556D01*
X126395431Y-97573649D01*
X126139189Y-97436685D01*
X125861150Y-97352343D01*
X125644452Y-97331000D01*
X125499548Y-97331000D01*
X125282850Y-97352343D01*
X125004811Y-97436685D01*
X124748569Y-97573649D01*
X124572000Y-97718556D01*
X124395431Y-97573649D01*
X124139189Y-97436685D01*
X123861150Y-97352343D01*
X123644452Y-97331000D01*
X123499548Y-97331000D01*
X123282850Y-97352343D01*
X123004811Y-97436685D01*
X122748569Y-97573649D01*
X122572000Y-97718556D01*
X122395431Y-97573649D01*
X122139189Y-97436685D01*
X121861150Y-97352343D01*
X121644452Y-97331000D01*
X121499548Y-97331000D01*
X121282850Y-97352343D01*
X121004811Y-97436685D01*
X120748569Y-97573649D01*
X120572000Y-97718556D01*
X120395431Y-97573649D01*
X120139189Y-97436685D01*
X119861150Y-97352343D01*
X119644452Y-97331000D01*
X119499548Y-97331000D01*
X119282850Y-97352343D01*
X119004811Y-97436685D01*
X118748569Y-97573649D01*
X118572000Y-97718556D01*
X118395431Y-97573649D01*
X118139189Y-97436685D01*
X117861150Y-97352343D01*
X117644452Y-97331000D01*
X117499548Y-97331000D01*
X117282850Y-97352343D01*
X117004811Y-97436685D01*
X116748569Y-97573649D01*
X116572000Y-97718556D01*
X116395431Y-97573649D01*
X116139189Y-97436685D01*
X115861150Y-97352343D01*
X115644452Y-97331000D01*
X115499548Y-97331000D01*
X115282850Y-97352343D01*
X115004811Y-97436685D01*
X114748569Y-97573649D01*
X114637416Y-97664871D01*
X114586421Y-97623020D01*
X114480797Y-97566563D01*
X114366189Y-97531797D01*
X114247000Y-97520058D01*
X113878000Y-97523000D01*
X113726000Y-97675000D01*
X113418000Y-97675000D01*
X113266000Y-97523000D01*
X112897000Y-97520058D01*
X112777811Y-97531797D01*
X112663203Y-97566563D01*
X112557579Y-97623020D01*
X112464999Y-97698999D01*
X112389020Y-97791579D01*
X112332563Y-97897203D01*
X112297797Y-98011811D01*
X112286058Y-98131000D01*
X109001322Y-98131000D01*
X108769852Y-97784582D01*
X108463418Y-97478148D01*
X108103091Y-97237385D01*
X107702716Y-97071545D01*
X107277681Y-96987000D01*
X106844319Y-96987000D01*
X106419284Y-97071545D01*
X106018909Y-97237385D01*
X105658582Y-97478148D01*
X105352148Y-97784582D01*
X105111385Y-98144909D01*
X104945545Y-98545284D01*
X104861000Y-98970319D01*
X104861000Y-99403681D01*
X104945545Y-99828716D01*
X105111385Y-100229091D01*
X105221574Y-100394000D01*
X103695000Y-100394000D01*
X103695000Y-91694000D01*
X111880017Y-91694000D01*
X111911875Y-92017456D01*
X112006223Y-92328483D01*
X112159438Y-92615126D01*
X112241746Y-92715419D01*
X112241394Y-92715607D01*
X112119578Y-92815578D01*
X112019607Y-92937394D01*
X111945321Y-93076372D01*
X111899576Y-93227173D01*
X111884130Y-93384000D01*
X111884130Y-95084000D01*
X111899576Y-95240827D01*
X111945321Y-95391628D01*
X112019607Y-95530606D01*
X112119578Y-95652422D01*
X112241394Y-95752393D01*
X112380372Y-95826679D01*
X112531173Y-95872424D01*
X112688000Y-95887870D01*
X114388000Y-95887870D01*
X114544827Y-95872424D01*
X114695628Y-95826679D01*
X114834606Y-95752393D01*
X114956422Y-95652422D01*
X115056393Y-95530606D01*
X115130679Y-95391628D01*
X115176424Y-95240827D01*
X115191870Y-95084000D01*
X115191870Y-93384000D01*
X115176424Y-93227173D01*
X115130679Y-93076372D01*
X115056393Y-92937394D01*
X114956422Y-92815578D01*
X114834606Y-92715607D01*
X114834254Y-92715419D01*
X114916562Y-92615126D01*
X115069777Y-92328483D01*
X115164125Y-92017456D01*
X115195983Y-91694000D01*
X115164125Y-91370544D01*
X115069777Y-91059517D01*
X114916562Y-90772874D01*
X114710371Y-90521629D01*
X114459126Y-90315438D01*
X114172483Y-90162223D01*
X113861456Y-90067875D01*
X113619052Y-90044000D01*
X113456948Y-90044000D01*
X113214544Y-90067875D01*
X112903517Y-90162223D01*
X112616874Y-90315438D01*
X112365629Y-90521629D01*
X112159438Y-90772874D01*
X112006223Y-91059517D01*
X111911875Y-91370544D01*
X111880017Y-91694000D01*
X103695000Y-91694000D01*
X103695000Y-89424936D01*
X128549500Y-89424936D01*
X128549500Y-89645064D01*
X128592445Y-89860963D01*
X128676684Y-90064335D01*
X128798981Y-90247365D01*
X128954635Y-90403019D01*
X129137665Y-90525316D01*
X129341037Y-90609555D01*
X129556936Y-90652500D01*
X129777064Y-90652500D01*
X129992963Y-90609555D01*
X130196335Y-90525316D01*
X130379365Y-90403019D01*
X130535019Y-90247365D01*
X130657316Y-90064335D01*
X130741555Y-89860963D01*
X130752500Y-89805936D01*
X137312500Y-89805936D01*
X137312500Y-90026064D01*
X137355445Y-90241963D01*
X137439684Y-90445335D01*
X137561981Y-90628365D01*
X137717635Y-90784019D01*
X137900665Y-90906316D01*
X138104037Y-90990555D01*
X138319936Y-91033500D01*
X138540064Y-91033500D01*
X138755963Y-90990555D01*
X138959335Y-90906316D01*
X139142365Y-90784019D01*
X139298019Y-90628365D01*
X139420316Y-90445335D01*
X139504555Y-90241963D01*
X139547500Y-90026064D01*
X139547500Y-89805936D01*
X139504555Y-89590037D01*
X139420316Y-89386665D01*
X139298019Y-89203635D01*
X139142365Y-89047981D01*
X138959335Y-88925684D01*
X138755963Y-88841445D01*
X138540064Y-88798500D01*
X138319936Y-88798500D01*
X138104037Y-88841445D01*
X137900665Y-88925684D01*
X137717635Y-89047981D01*
X137561981Y-89203635D01*
X137439684Y-89386665D01*
X137355445Y-89590037D01*
X137312500Y-89805936D01*
X130752500Y-89805936D01*
X130784500Y-89645064D01*
X130784500Y-89424936D01*
X130741555Y-89209037D01*
X130657316Y-89005665D01*
X130535019Y-88822635D01*
X130379365Y-88666981D01*
X130196335Y-88544684D01*
X129992963Y-88460445D01*
X129777064Y-88417500D01*
X129556936Y-88417500D01*
X129341037Y-88460445D01*
X129137665Y-88544684D01*
X128954635Y-88666981D01*
X128798981Y-88822635D01*
X128676684Y-89005665D01*
X128592445Y-89209037D01*
X128549500Y-89424936D01*
X103695000Y-89424936D01*
X103695000Y-87265936D01*
X141122500Y-87265936D01*
X141122500Y-87486064D01*
X141165445Y-87701963D01*
X141249684Y-87905335D01*
X141371981Y-88088365D01*
X141527635Y-88244019D01*
X141710665Y-88366316D01*
X141914037Y-88450555D01*
X142129936Y-88493500D01*
X142350064Y-88493500D01*
X142565963Y-88450555D01*
X142769335Y-88366316D01*
X142952365Y-88244019D01*
X143108019Y-88088365D01*
X143230316Y-87905335D01*
X143314555Y-87701963D01*
X143357500Y-87486064D01*
X143357500Y-87265936D01*
X143314555Y-87050037D01*
X143230316Y-86846665D01*
X143108019Y-86663635D01*
X142952365Y-86507981D01*
X142769335Y-86385684D01*
X142565963Y-86301445D01*
X142350064Y-86258500D01*
X142129936Y-86258500D01*
X141914037Y-86301445D01*
X141710665Y-86385684D01*
X141527635Y-86507981D01*
X141371981Y-86663635D01*
X141249684Y-86846665D01*
X141165445Y-87050037D01*
X141122500Y-87265936D01*
X103695000Y-87265936D01*
X103695000Y-80153936D01*
X117754500Y-80153936D01*
X117754500Y-80374064D01*
X117797445Y-80589963D01*
X117881684Y-80793335D01*
X118003981Y-80976365D01*
X118159635Y-81132019D01*
X118342665Y-81254316D01*
X118546037Y-81338555D01*
X118761936Y-81381500D01*
X118982064Y-81381500D01*
X119197963Y-81338555D01*
X119401335Y-81254316D01*
X119584365Y-81132019D01*
X119740019Y-80976365D01*
X119862316Y-80793335D01*
X119946555Y-80589963D01*
X119989500Y-80374064D01*
X119989500Y-80153936D01*
X119946555Y-79938037D01*
X119862316Y-79734665D01*
X119740019Y-79551635D01*
X119584365Y-79395981D01*
X119401335Y-79273684D01*
X119197963Y-79189445D01*
X118982064Y-79146500D01*
X118761936Y-79146500D01*
X118546037Y-79189445D01*
X118342665Y-79273684D01*
X118159635Y-79395981D01*
X118003981Y-79551635D01*
X117881684Y-79734665D01*
X117797445Y-79938037D01*
X117754500Y-80153936D01*
X103695000Y-80153936D01*
X103695000Y-78756936D01*
X133502500Y-78756936D01*
X133502500Y-78977064D01*
X133545445Y-79192963D01*
X133629684Y-79396335D01*
X133751981Y-79579365D01*
X133907635Y-79735019D01*
X134090665Y-79857316D01*
X134294037Y-79941555D01*
X134509936Y-79984500D01*
X134730064Y-79984500D01*
X134945963Y-79941555D01*
X135149335Y-79857316D01*
X135332365Y-79735019D01*
X135488019Y-79579365D01*
X135610316Y-79396335D01*
X135694555Y-79192963D01*
X135716453Y-79082873D01*
X135779936Y-79095500D01*
X136000064Y-79095500D01*
X136215963Y-79052555D01*
X136419335Y-78968316D01*
X136602365Y-78846019D01*
X136758019Y-78690365D01*
X136880316Y-78507335D01*
X136934742Y-78375936D01*
X145948500Y-78375936D01*
X145948500Y-78596064D01*
X145991445Y-78811963D01*
X146075684Y-79015335D01*
X146197981Y-79198365D01*
X146353635Y-79354019D01*
X146536665Y-79476316D01*
X146740037Y-79560555D01*
X146955936Y-79603500D01*
X147176064Y-79603500D01*
X147391963Y-79560555D01*
X147595335Y-79476316D01*
X147778365Y-79354019D01*
X147934019Y-79198365D01*
X148056316Y-79015335D01*
X148140555Y-78811963D01*
X148183500Y-78596064D01*
X148183500Y-78375936D01*
X148140555Y-78160037D01*
X148056316Y-77956665D01*
X147934019Y-77773635D01*
X147778365Y-77617981D01*
X147595335Y-77495684D01*
X147391963Y-77411445D01*
X147176064Y-77368500D01*
X146955936Y-77368500D01*
X146740037Y-77411445D01*
X146536665Y-77495684D01*
X146353635Y-77617981D01*
X146197981Y-77773635D01*
X146075684Y-77956665D01*
X145991445Y-78160037D01*
X145948500Y-78375936D01*
X136934742Y-78375936D01*
X136964555Y-78303963D01*
X137007500Y-78088064D01*
X137007500Y-77867936D01*
X136964555Y-77652037D01*
X136880316Y-77448665D01*
X136758019Y-77265635D01*
X136602365Y-77109981D01*
X136419335Y-76987684D01*
X136215963Y-76903445D01*
X136000064Y-76860500D01*
X135779936Y-76860500D01*
X135564037Y-76903445D01*
X135360665Y-76987684D01*
X135177635Y-77109981D01*
X135021981Y-77265635D01*
X134899684Y-77448665D01*
X134815445Y-77652037D01*
X134793547Y-77762127D01*
X134730064Y-77749500D01*
X134509936Y-77749500D01*
X134294037Y-77792445D01*
X134090665Y-77876684D01*
X133907635Y-77998981D01*
X133751981Y-78154635D01*
X133629684Y-78337665D01*
X133545445Y-78541037D01*
X133502500Y-78756936D01*
X103695000Y-78756936D01*
X103695000Y-72787936D01*
X118262500Y-72787936D01*
X118262500Y-73008064D01*
X118305445Y-73223963D01*
X118389684Y-73427335D01*
X118511981Y-73610365D01*
X118667635Y-73766019D01*
X118850665Y-73888316D01*
X119054037Y-73972555D01*
X119269936Y-74015500D01*
X119490064Y-74015500D01*
X119705963Y-73972555D01*
X119909335Y-73888316D01*
X120092365Y-73766019D01*
X120248019Y-73610365D01*
X120370316Y-73427335D01*
X120454555Y-73223963D01*
X120497500Y-73008064D01*
X120497500Y-72787936D01*
X120454555Y-72572037D01*
X120370316Y-72368665D01*
X120248019Y-72185635D01*
X120092365Y-72029981D01*
X119909335Y-71907684D01*
X119705963Y-71823445D01*
X119490064Y-71780500D01*
X119269936Y-71780500D01*
X119054037Y-71823445D01*
X118850665Y-71907684D01*
X118667635Y-72029981D01*
X118511981Y-72185635D01*
X118389684Y-72368665D01*
X118305445Y-72572037D01*
X118262500Y-72787936D01*
X103695000Y-72787936D01*
X103695000Y-71009936D01*
X133248500Y-71009936D01*
X133248500Y-71230064D01*
X133291445Y-71445963D01*
X133375684Y-71649335D01*
X133497981Y-71832365D01*
X133653635Y-71988019D01*
X133836665Y-72110316D01*
X134040037Y-72194555D01*
X134255936Y-72237500D01*
X134476064Y-72237500D01*
X134691963Y-72194555D01*
X134895335Y-72110316D01*
X135078365Y-71988019D01*
X135234019Y-71832365D01*
X135356316Y-71649335D01*
X135440555Y-71445963D01*
X135483500Y-71230064D01*
X135483500Y-71009936D01*
X135440555Y-70794037D01*
X135356316Y-70590665D01*
X135234019Y-70407635D01*
X135078365Y-70251981D01*
X134895335Y-70129684D01*
X134691963Y-70045445D01*
X134476064Y-70002500D01*
X134255936Y-70002500D01*
X134040037Y-70045445D01*
X133836665Y-70129684D01*
X133653635Y-70251981D01*
X133497981Y-70407635D01*
X133375684Y-70590665D01*
X133291445Y-70794037D01*
X133248500Y-71009936D01*
X103695000Y-71009936D01*
X103695000Y-59308270D01*
X103753582Y-59366852D01*
X104113909Y-59607615D01*
X104514284Y-59773455D01*
X104939319Y-59858000D01*
X105372681Y-59858000D01*
X105797716Y-59773455D01*
X106198091Y-59607615D01*
X106558418Y-59366852D01*
X106864852Y-59060418D01*
X107105615Y-58700091D01*
X107271455Y-58299716D01*
X107356000Y-57874681D01*
X107356000Y-57491000D01*
X112093130Y-57491000D01*
X112093130Y-58841000D01*
X112108576Y-58997827D01*
X112154321Y-59148628D01*
X112228607Y-59287606D01*
X112328578Y-59409422D01*
X112450394Y-59509393D01*
X112589372Y-59583679D01*
X112740173Y-59629424D01*
X112897000Y-59644870D01*
X114247000Y-59644870D01*
X114403827Y-59629424D01*
X114554628Y-59583679D01*
X114693606Y-59509393D01*
X114797223Y-59424357D01*
X115004811Y-59535315D01*
X115282850Y-59619657D01*
X115499548Y-59641000D01*
X115644452Y-59641000D01*
X115861150Y-59619657D01*
X116139189Y-59535315D01*
X116395431Y-59398351D01*
X116572000Y-59253444D01*
X116748569Y-59398351D01*
X117004811Y-59535315D01*
X117282850Y-59619657D01*
X117499548Y-59641000D01*
X117644452Y-59641000D01*
X117861150Y-59619657D01*
X118139189Y-59535315D01*
X118395431Y-59398351D01*
X118572000Y-59253444D01*
X118748569Y-59398351D01*
X119004811Y-59535315D01*
X119282850Y-59619657D01*
X119499548Y-59641000D01*
X119644452Y-59641000D01*
X119861150Y-59619657D01*
X120139189Y-59535315D01*
X120395431Y-59398351D01*
X120572000Y-59253444D01*
X120748569Y-59398351D01*
X121004811Y-59535315D01*
X121282850Y-59619657D01*
X121499548Y-59641000D01*
X121644452Y-59641000D01*
X121861150Y-59619657D01*
X122139189Y-59535315D01*
X122395431Y-59398351D01*
X122572000Y-59253444D01*
X122748569Y-59398351D01*
X123004811Y-59535315D01*
X123282850Y-59619657D01*
X123499548Y-59641000D01*
X123644452Y-59641000D01*
X123861150Y-59619657D01*
X124139189Y-59535315D01*
X124395431Y-59398351D01*
X124572000Y-59253444D01*
X124748569Y-59398351D01*
X125004811Y-59535315D01*
X125282850Y-59619657D01*
X125499548Y-59641000D01*
X125644452Y-59641000D01*
X125861150Y-59619657D01*
X126139189Y-59535315D01*
X126395431Y-59398351D01*
X126572000Y-59253444D01*
X126748569Y-59398351D01*
X127004811Y-59535315D01*
X127282850Y-59619657D01*
X127499548Y-59641000D01*
X127644452Y-59641000D01*
X127861150Y-59619657D01*
X128139189Y-59535315D01*
X128395431Y-59398351D01*
X128572000Y-59253444D01*
X128748569Y-59398351D01*
X129004811Y-59535315D01*
X129282850Y-59619657D01*
X129499548Y-59641000D01*
X129644452Y-59641000D01*
X129861150Y-59619657D01*
X130139189Y-59535315D01*
X130395431Y-59398351D01*
X130572000Y-59253444D01*
X130748569Y-59398351D01*
X131004811Y-59535315D01*
X131282850Y-59619657D01*
X131499548Y-59641000D01*
X131644452Y-59641000D01*
X131861150Y-59619657D01*
X132139189Y-59535315D01*
X132395431Y-59398351D01*
X132572000Y-59253444D01*
X132748569Y-59398351D01*
X133004811Y-59535315D01*
X133282850Y-59619657D01*
X133499548Y-59641000D01*
X133644452Y-59641000D01*
X133861150Y-59619657D01*
X134139189Y-59535315D01*
X134395431Y-59398351D01*
X134572000Y-59253444D01*
X134748569Y-59398351D01*
X135004811Y-59535315D01*
X135282850Y-59619657D01*
X135499548Y-59641000D01*
X135644452Y-59641000D01*
X135861150Y-59619657D01*
X136139189Y-59535315D01*
X136272001Y-59464326D01*
X136272000Y-60517522D01*
X136113523Y-60676000D01*
X122745860Y-60676000D01*
X122681999Y-60669710D01*
X122618138Y-60676000D01*
X122618136Y-60676000D01*
X122427155Y-60694810D01*
X122182104Y-60769145D01*
X121956264Y-60889860D01*
X121758313Y-61052313D01*
X121717602Y-61101920D01*
X115113603Y-67705920D01*
X114991860Y-67854265D01*
X114871145Y-68080105D01*
X114796811Y-68325156D01*
X114771710Y-68580000D01*
X114796811Y-68834844D01*
X114871145Y-69079895D01*
X114991860Y-69305735D01*
X115154314Y-69503686D01*
X115352265Y-69666140D01*
X115578105Y-69786855D01*
X115823156Y-69861189D01*
X116078000Y-69886290D01*
X116332844Y-69861189D01*
X116577895Y-69786855D01*
X116803735Y-69666140D01*
X116952080Y-69544397D01*
X119042541Y-67453936D01*
X122326500Y-67453936D01*
X122326500Y-67674064D01*
X122369445Y-67889963D01*
X122453684Y-68093335D01*
X122575981Y-68276365D01*
X122731635Y-68432019D01*
X122914665Y-68554316D01*
X123118037Y-68638555D01*
X123333936Y-68681500D01*
X123342500Y-68681500D01*
X123342500Y-68690064D01*
X123385445Y-68905963D01*
X123469684Y-69109335D01*
X123591981Y-69292365D01*
X123747635Y-69448019D01*
X123930665Y-69570316D01*
X124134037Y-69654555D01*
X124349936Y-69697500D01*
X124413680Y-69697500D01*
X124485684Y-69871335D01*
X124607981Y-70054365D01*
X124763635Y-70210019D01*
X124946665Y-70332316D01*
X125150037Y-70416555D01*
X125365936Y-70459500D01*
X125586064Y-70459500D01*
X125801963Y-70416555D01*
X126005335Y-70332316D01*
X126188365Y-70210019D01*
X126344019Y-70054365D01*
X126466316Y-69871335D01*
X126550555Y-69667963D01*
X126593500Y-69452064D01*
X126593500Y-69231936D01*
X126550555Y-69016037D01*
X126466316Y-68812665D01*
X126344019Y-68629635D01*
X126188365Y-68473981D01*
X126005335Y-68351684D01*
X125801963Y-68267445D01*
X125586064Y-68224500D01*
X125522320Y-68224500D01*
X125450316Y-68050665D01*
X125328019Y-67867635D01*
X125172365Y-67711981D01*
X124989335Y-67589684D01*
X124785963Y-67505445D01*
X124570064Y-67462500D01*
X124561500Y-67462500D01*
X124561500Y-67453936D01*
X124518555Y-67238037D01*
X124434316Y-67034665D01*
X124312019Y-66851635D01*
X124156365Y-66695981D01*
X123973335Y-66573684D01*
X123769963Y-66489445D01*
X123554064Y-66446500D01*
X123333936Y-66446500D01*
X123118037Y-66489445D01*
X122914665Y-66573684D01*
X122731635Y-66695981D01*
X122575981Y-66851635D01*
X122453684Y-67034665D01*
X122369445Y-67238037D01*
X122326500Y-67453936D01*
X119042541Y-67453936D01*
X121328541Y-65167936D01*
X135915500Y-65167936D01*
X135915500Y-65388064D01*
X135958445Y-65603963D01*
X136042684Y-65807335D01*
X136164981Y-65990365D01*
X136320635Y-66146019D01*
X136503665Y-66268316D01*
X136707037Y-66352555D01*
X136922936Y-66395500D01*
X137143064Y-66395500D01*
X137358963Y-66352555D01*
X137562335Y-66268316D01*
X137745365Y-66146019D01*
X137901019Y-65990365D01*
X138023316Y-65807335D01*
X138107555Y-65603963D01*
X138150500Y-65388064D01*
X138150500Y-65167936D01*
X138107555Y-64952037D01*
X138023316Y-64748665D01*
X137901019Y-64565635D01*
X137745365Y-64409981D01*
X137562335Y-64287684D01*
X137358963Y-64203445D01*
X137143064Y-64160500D01*
X136922936Y-64160500D01*
X136707037Y-64203445D01*
X136503665Y-64287684D01*
X136320635Y-64409981D01*
X136164981Y-64565635D01*
X136042684Y-64748665D01*
X135958445Y-64952037D01*
X135915500Y-65167936D01*
X121328541Y-65167936D01*
X122459075Y-64037403D01*
X122575981Y-64212365D01*
X122731635Y-64368019D01*
X122914665Y-64490316D01*
X123118037Y-64574555D01*
X123333936Y-64617500D01*
X123554064Y-64617500D01*
X123769963Y-64574555D01*
X123973335Y-64490316D01*
X124156365Y-64368019D01*
X124312019Y-64212365D01*
X124434316Y-64029335D01*
X124518555Y-63825963D01*
X124561500Y-63610064D01*
X124561500Y-63389936D01*
X124538837Y-63276000D01*
X136588139Y-63276000D01*
X136652000Y-63282290D01*
X136715861Y-63276000D01*
X136715864Y-63276000D01*
X136906845Y-63257190D01*
X137151896Y-63182855D01*
X137377736Y-63062140D01*
X137575687Y-62899687D01*
X137616403Y-62850074D01*
X138542086Y-61924392D01*
X138591686Y-61883686D01*
X138595117Y-61879505D01*
X138657510Y-61912855D01*
X138902561Y-61987190D01*
X139093542Y-62006000D01*
X139093543Y-62006000D01*
X139157406Y-62012290D01*
X139221269Y-62006000D01*
X142083130Y-62006000D01*
X142083130Y-63488000D01*
X142098576Y-63644827D01*
X142144321Y-63795628D01*
X142218607Y-63934606D01*
X142318578Y-64056422D01*
X142440394Y-64156393D01*
X142579372Y-64230679D01*
X142730173Y-64276424D01*
X142887000Y-64291870D01*
X144387000Y-64291870D01*
X144543827Y-64276424D01*
X144694628Y-64230679D01*
X144833606Y-64156393D01*
X144955422Y-64056422D01*
X145055393Y-63934606D01*
X145129679Y-63795628D01*
X145175424Y-63644827D01*
X145190870Y-63488000D01*
X145190870Y-62320347D01*
X146147000Y-63276478D01*
X146147001Y-64270392D01*
X146028578Y-64367578D01*
X145928607Y-64489394D01*
X145854321Y-64628372D01*
X145808576Y-64779173D01*
X145793130Y-64936000D01*
X145793130Y-66636000D01*
X145808576Y-66792827D01*
X145854321Y-66943628D01*
X145928607Y-67082606D01*
X146028578Y-67204422D01*
X146150394Y-67304393D01*
X146289372Y-67378679D01*
X146440173Y-67424424D01*
X146597000Y-67439870D01*
X148297000Y-67439870D01*
X148453827Y-67424424D01*
X148604628Y-67378679D01*
X148743606Y-67304393D01*
X148865422Y-67204422D01*
X148965393Y-67082606D01*
X148965581Y-67082254D01*
X149065874Y-67164562D01*
X149352517Y-67317777D01*
X149663544Y-67412125D01*
X149905948Y-67436000D01*
X150068052Y-67436000D01*
X150310456Y-67412125D01*
X150621483Y-67317777D01*
X150908126Y-67164562D01*
X151159371Y-66958371D01*
X151365562Y-66707126D01*
X151518777Y-66420483D01*
X151613125Y-66109456D01*
X151644983Y-65786000D01*
X151613125Y-65462544D01*
X151518777Y-65151517D01*
X151365562Y-64864874D01*
X151159371Y-64613629D01*
X150908126Y-64407438D01*
X150621483Y-64254223D01*
X150310456Y-64159875D01*
X150068052Y-64136000D01*
X149905948Y-64136000D01*
X149663544Y-64159875D01*
X149352517Y-64254223D01*
X149065874Y-64407438D01*
X148965581Y-64489746D01*
X148965393Y-64489394D01*
X148865422Y-64367578D01*
X148747000Y-64270392D01*
X148747000Y-63246000D01*
X153282017Y-63246000D01*
X153313875Y-63569456D01*
X153408223Y-63880483D01*
X153561438Y-64167126D01*
X153767629Y-64418371D01*
X153886591Y-64516000D01*
X153767629Y-64613629D01*
X153561438Y-64864874D01*
X153408223Y-65151517D01*
X153313875Y-65462544D01*
X153282017Y-65786000D01*
X153313875Y-66109456D01*
X153408223Y-66420483D01*
X153561438Y-66707126D01*
X153767629Y-66958371D01*
X153886591Y-67056000D01*
X153767629Y-67153629D01*
X153561438Y-67404874D01*
X153408223Y-67691517D01*
X153313875Y-68002544D01*
X153282017Y-68326000D01*
X153313875Y-68649456D01*
X153408223Y-68960483D01*
X153561438Y-69247126D01*
X153767629Y-69498371D01*
X153886591Y-69596000D01*
X153767629Y-69693629D01*
X153561438Y-69944874D01*
X153408223Y-70231517D01*
X153313875Y-70542544D01*
X153282017Y-70866000D01*
X153313875Y-71189456D01*
X153408223Y-71500483D01*
X153561438Y-71787126D01*
X153767629Y-72038371D01*
X153886591Y-72136000D01*
X153767629Y-72233629D01*
X153561438Y-72484874D01*
X153408223Y-72771517D01*
X153313875Y-73082544D01*
X153282017Y-73406000D01*
X153313875Y-73729456D01*
X153408223Y-74040483D01*
X153561438Y-74327126D01*
X153767629Y-74578371D01*
X153886591Y-74676000D01*
X153767629Y-74773629D01*
X153561438Y-75024874D01*
X153408223Y-75311517D01*
X153313875Y-75622544D01*
X153282017Y-75946000D01*
X153313875Y-76269456D01*
X153408223Y-76580483D01*
X153561438Y-76867126D01*
X153767629Y-77118371D01*
X153886591Y-77216000D01*
X153767629Y-77313629D01*
X153561438Y-77564874D01*
X153408223Y-77851517D01*
X153313875Y-78162544D01*
X153282017Y-78486000D01*
X153313875Y-78809456D01*
X153408223Y-79120483D01*
X153561438Y-79407126D01*
X153767629Y-79658371D01*
X153886591Y-79756000D01*
X153767629Y-79853629D01*
X153561438Y-80104874D01*
X153408223Y-80391517D01*
X153313875Y-80702544D01*
X153282017Y-81026000D01*
X153313875Y-81349456D01*
X153408223Y-81660483D01*
X153561438Y-81947126D01*
X153767629Y-82198371D01*
X153886591Y-82296000D01*
X153767629Y-82393629D01*
X153561438Y-82644874D01*
X153408223Y-82931517D01*
X153313875Y-83242544D01*
X153282017Y-83566000D01*
X153313875Y-83889456D01*
X153408223Y-84200483D01*
X153561438Y-84487126D01*
X153767629Y-84738371D01*
X153886591Y-84836000D01*
X153767629Y-84933629D01*
X153561438Y-85184874D01*
X153408223Y-85471517D01*
X153313875Y-85782544D01*
X153282017Y-86106000D01*
X153313875Y-86429456D01*
X153408223Y-86740483D01*
X153561438Y-87027126D01*
X153767629Y-87278371D01*
X153886591Y-87376000D01*
X153767629Y-87473629D01*
X153561438Y-87724874D01*
X153408223Y-88011517D01*
X153313875Y-88322544D01*
X153282017Y-88646000D01*
X153313875Y-88969456D01*
X153408223Y-89280483D01*
X153561438Y-89567126D01*
X153767629Y-89818371D01*
X153886591Y-89916000D01*
X153767629Y-90013629D01*
X153561438Y-90264874D01*
X153408223Y-90551517D01*
X153313875Y-90862544D01*
X153282017Y-91186000D01*
X153313875Y-91509456D01*
X153408223Y-91820483D01*
X153561438Y-92107126D01*
X153643746Y-92207419D01*
X153643394Y-92207607D01*
X153521578Y-92307578D01*
X153421607Y-92429394D01*
X153347321Y-92568372D01*
X153301576Y-92719173D01*
X153286130Y-92876000D01*
X153286130Y-94576000D01*
X153301576Y-94732827D01*
X153347321Y-94883628D01*
X153421607Y-95022606D01*
X153521578Y-95144422D01*
X153643394Y-95244393D01*
X153782372Y-95318679D01*
X153933173Y-95364424D01*
X154090000Y-95379870D01*
X155790000Y-95379870D01*
X155946827Y-95364424D01*
X156097628Y-95318679D01*
X156236606Y-95244393D01*
X156358422Y-95144422D01*
X156458393Y-95022606D01*
X156532679Y-94883628D01*
X156578424Y-94732827D01*
X156593870Y-94576000D01*
X156593870Y-92876000D01*
X156578424Y-92719173D01*
X156532679Y-92568372D01*
X156458393Y-92429394D01*
X156358422Y-92307578D01*
X156236606Y-92207607D01*
X156236254Y-92207419D01*
X156318562Y-92107126D01*
X156471777Y-91820483D01*
X156566125Y-91509456D01*
X156597983Y-91186000D01*
X156566125Y-90862544D01*
X156471777Y-90551517D01*
X156318562Y-90264874D01*
X156112371Y-90013629D01*
X155993409Y-89916000D01*
X156112371Y-89818371D01*
X156318562Y-89567126D01*
X156471777Y-89280483D01*
X156566125Y-88969456D01*
X156597983Y-88646000D01*
X156566125Y-88322544D01*
X156471777Y-88011517D01*
X156318562Y-87724874D01*
X156112371Y-87473629D01*
X155993409Y-87376000D01*
X156112371Y-87278371D01*
X156318562Y-87027126D01*
X156471777Y-86740483D01*
X156566125Y-86429456D01*
X156597983Y-86106000D01*
X156566125Y-85782544D01*
X156471777Y-85471517D01*
X156318562Y-85184874D01*
X156112371Y-84933629D01*
X155993409Y-84836000D01*
X156112371Y-84738371D01*
X156318562Y-84487126D01*
X156471777Y-84200483D01*
X156566125Y-83889456D01*
X156597983Y-83566000D01*
X156566125Y-83242544D01*
X156471777Y-82931517D01*
X156318562Y-82644874D01*
X156112371Y-82393629D01*
X155993409Y-82296000D01*
X156112371Y-82198371D01*
X156318562Y-81947126D01*
X156471777Y-81660483D01*
X156566125Y-81349456D01*
X156597983Y-81026000D01*
X156566125Y-80702544D01*
X156471777Y-80391517D01*
X156318562Y-80104874D01*
X156112371Y-79853629D01*
X155993409Y-79756000D01*
X156112371Y-79658371D01*
X156318562Y-79407126D01*
X156471777Y-79120483D01*
X156566125Y-78809456D01*
X156597983Y-78486000D01*
X156566125Y-78162544D01*
X156471777Y-77851517D01*
X156318562Y-77564874D01*
X156112371Y-77313629D01*
X155993409Y-77216000D01*
X156112371Y-77118371D01*
X156318562Y-76867126D01*
X156471777Y-76580483D01*
X156566125Y-76269456D01*
X156597983Y-75946000D01*
X156566125Y-75622544D01*
X156471777Y-75311517D01*
X156318562Y-75024874D01*
X156112371Y-74773629D01*
X155993409Y-74676000D01*
X156112371Y-74578371D01*
X156318562Y-74327126D01*
X156471777Y-74040483D01*
X156566125Y-73729456D01*
X156597983Y-73406000D01*
X156566125Y-73082544D01*
X156471777Y-72771517D01*
X156318562Y-72484874D01*
X156112371Y-72233629D01*
X155993409Y-72136000D01*
X156112371Y-72038371D01*
X156318562Y-71787126D01*
X156471777Y-71500483D01*
X156566125Y-71189456D01*
X156597983Y-70866000D01*
X156566125Y-70542544D01*
X156471777Y-70231517D01*
X156318562Y-69944874D01*
X156112371Y-69693629D01*
X155993409Y-69596000D01*
X156112371Y-69498371D01*
X156318562Y-69247126D01*
X156471777Y-68960483D01*
X156566125Y-68649456D01*
X156597983Y-68326000D01*
X156566125Y-68002544D01*
X156471777Y-67691517D01*
X156318562Y-67404874D01*
X156112371Y-67153629D01*
X155993409Y-67056000D01*
X156112371Y-66958371D01*
X156318562Y-66707126D01*
X156471777Y-66420483D01*
X156566125Y-66109456D01*
X156597983Y-65786000D01*
X156566125Y-65462544D01*
X156471777Y-65151517D01*
X156318562Y-64864874D01*
X156112371Y-64613629D01*
X155993409Y-64516000D01*
X156112371Y-64418371D01*
X156318562Y-64167126D01*
X156471777Y-63880483D01*
X156566125Y-63569456D01*
X156597983Y-63246000D01*
X156566125Y-62922544D01*
X156471777Y-62611517D01*
X156318562Y-62324874D01*
X156112371Y-62073629D01*
X155861126Y-61867438D01*
X155574483Y-61714223D01*
X155263456Y-61619875D01*
X155021052Y-61596000D01*
X154858948Y-61596000D01*
X154616544Y-61619875D01*
X154305517Y-61714223D01*
X154018874Y-61867438D01*
X153767629Y-62073629D01*
X153561438Y-62324874D01*
X153408223Y-62611517D01*
X153313875Y-62922544D01*
X153282017Y-63246000D01*
X148747000Y-63246000D01*
X148747000Y-62801861D01*
X148753290Y-62738000D01*
X148742848Y-62631981D01*
X148728190Y-62483155D01*
X148653855Y-62238104D01*
X148533140Y-62012264D01*
X148370687Y-61814313D01*
X148321080Y-61773602D01*
X146379403Y-59831926D01*
X146338687Y-59782313D01*
X146140736Y-59619860D01*
X145914896Y-59499145D01*
X145669845Y-59424810D01*
X145478864Y-59406000D01*
X145478861Y-59406000D01*
X145415000Y-59399710D01*
X145351139Y-59406000D01*
X140381121Y-59406000D01*
X140395431Y-59398351D01*
X140620028Y-59214028D01*
X140804351Y-58989431D01*
X140941315Y-58733189D01*
X141025657Y-58455150D01*
X141054136Y-58166000D01*
X141025657Y-57876850D01*
X140941315Y-57598811D01*
X140804351Y-57342569D01*
X140620028Y-57117972D01*
X140395431Y-56933649D01*
X140139189Y-56796685D01*
X139861150Y-56712343D01*
X139644452Y-56691000D01*
X139499548Y-56691000D01*
X139282850Y-56712343D01*
X139004811Y-56796685D01*
X138748569Y-56933649D01*
X138572000Y-57078556D01*
X138395431Y-56933649D01*
X138139189Y-56796685D01*
X137861150Y-56712343D01*
X137644452Y-56691000D01*
X137499548Y-56691000D01*
X137282850Y-56712343D01*
X137004811Y-56796685D01*
X136748569Y-56933649D01*
X136572000Y-57078556D01*
X136395431Y-56933649D01*
X136139189Y-56796685D01*
X135861150Y-56712343D01*
X135644452Y-56691000D01*
X135499548Y-56691000D01*
X135282850Y-56712343D01*
X135004811Y-56796685D01*
X134748569Y-56933649D01*
X134572000Y-57078556D01*
X134395431Y-56933649D01*
X134139189Y-56796685D01*
X133861150Y-56712343D01*
X133644452Y-56691000D01*
X133499548Y-56691000D01*
X133282850Y-56712343D01*
X133004811Y-56796685D01*
X132748569Y-56933649D01*
X132572000Y-57078556D01*
X132395431Y-56933649D01*
X132139189Y-56796685D01*
X131861150Y-56712343D01*
X131644452Y-56691000D01*
X131499548Y-56691000D01*
X131282850Y-56712343D01*
X131004811Y-56796685D01*
X130748569Y-56933649D01*
X130572000Y-57078556D01*
X130395431Y-56933649D01*
X130139189Y-56796685D01*
X129861150Y-56712343D01*
X129644452Y-56691000D01*
X129499548Y-56691000D01*
X129282850Y-56712343D01*
X129004811Y-56796685D01*
X128748569Y-56933649D01*
X128572000Y-57078556D01*
X128395431Y-56933649D01*
X128139189Y-56796685D01*
X127861150Y-56712343D01*
X127644452Y-56691000D01*
X127499548Y-56691000D01*
X127282850Y-56712343D01*
X127004811Y-56796685D01*
X126748569Y-56933649D01*
X126572000Y-57078556D01*
X126395431Y-56933649D01*
X126139189Y-56796685D01*
X125861150Y-56712343D01*
X125644452Y-56691000D01*
X125499548Y-56691000D01*
X125282850Y-56712343D01*
X125004811Y-56796685D01*
X124748569Y-56933649D01*
X124572000Y-57078556D01*
X124395431Y-56933649D01*
X124139189Y-56796685D01*
X123861150Y-56712343D01*
X123644452Y-56691000D01*
X123499548Y-56691000D01*
X123282850Y-56712343D01*
X123004811Y-56796685D01*
X122748569Y-56933649D01*
X122572000Y-57078556D01*
X122395431Y-56933649D01*
X122139189Y-56796685D01*
X121861150Y-56712343D01*
X121644452Y-56691000D01*
X121499548Y-56691000D01*
X121282850Y-56712343D01*
X121004811Y-56796685D01*
X120748569Y-56933649D01*
X120572000Y-57078556D01*
X120395431Y-56933649D01*
X120139189Y-56796685D01*
X119861150Y-56712343D01*
X119644452Y-56691000D01*
X119499548Y-56691000D01*
X119282850Y-56712343D01*
X119004811Y-56796685D01*
X118748569Y-56933649D01*
X118572000Y-57078556D01*
X118395431Y-56933649D01*
X118139189Y-56796685D01*
X117861150Y-56712343D01*
X117644452Y-56691000D01*
X117499548Y-56691000D01*
X117282850Y-56712343D01*
X117004811Y-56796685D01*
X116748569Y-56933649D01*
X116572000Y-57078556D01*
X116395431Y-56933649D01*
X116139189Y-56796685D01*
X115861150Y-56712343D01*
X115644452Y-56691000D01*
X115499548Y-56691000D01*
X115282850Y-56712343D01*
X115004811Y-56796685D01*
X114797223Y-56907643D01*
X114693606Y-56822607D01*
X114554628Y-56748321D01*
X114403827Y-56702576D01*
X114247000Y-56687130D01*
X112897000Y-56687130D01*
X112740173Y-56702576D01*
X112589372Y-56748321D01*
X112450394Y-56822607D01*
X112328578Y-56922578D01*
X112228607Y-57044394D01*
X112154321Y-57183372D01*
X112108576Y-57334173D01*
X112093130Y-57491000D01*
X107356000Y-57491000D01*
X107356000Y-57441319D01*
X107271455Y-57016284D01*
X107105615Y-56615909D01*
X107080285Y-56578000D01*
X157206715Y-56578000D01*
X157181385Y-56615909D01*
M02*
