G04 #@! TF.GenerationSoftware,KiCad,Pcbnew,(5.1.0-0)*
G04 #@! TF.CreationDate,2019-04-23T18:51:06+03:00*
G04 #@! TF.ProjectId,ovms-swcan,6f766d73-2d73-4776-9361-6e2e6b696361,1.0*
G04 #@! TF.SameCoordinates,Original*
G04 #@! TF.FileFunction,Copper,L3,Inr*
G04 #@! TF.FilePolarity,Positive*
%FSLAX46Y46*%
G04 Gerber Fmt 4.6, Leading zero omitted, Abs format (unit mm)*
G04 Created by KiCad (PCBNEW (5.1.0-0)) date 2019-04-23 18:51:06*
%MOMM*%
%LPD*%
G04 APERTURE LIST*
%ADD10R,1.500000X1.500000*%
%ADD11O,1.700000X1.700000*%
%ADD12R,1.700000X1.700000*%
%ADD13O,1.350000X1.350000*%
%ADD14R,1.350000X1.350000*%
%ADD15C,2.800000*%
%ADD16C,0.635000*%
%ADD17C,0.200000*%
G04 APERTURE END LIST*
D10*
X143637000Y-62738000D03*
D11*
X154940000Y-63246000D03*
X154940000Y-65786000D03*
X154940000Y-68326000D03*
X154940000Y-70866000D03*
X154940000Y-73406000D03*
X154940000Y-75946000D03*
X154940000Y-78486000D03*
X154940000Y-81026000D03*
X154940000Y-83566000D03*
X154940000Y-86106000D03*
X154940000Y-88646000D03*
X154940000Y-91186000D03*
D12*
X154940000Y-93726000D03*
D11*
X113538000Y-91694000D03*
D12*
X113538000Y-94234000D03*
D11*
X149987000Y-65786000D03*
D12*
X147447000Y-65786000D03*
D13*
X139572000Y-58166000D03*
X131572000Y-58166000D03*
X125572000Y-58166000D03*
X135572000Y-58166000D03*
X123572000Y-58166000D03*
X137572000Y-58166000D03*
X133572000Y-58166000D03*
X115572000Y-58166000D03*
D14*
X113572000Y-58166000D03*
D13*
X121572000Y-58166000D03*
X117572000Y-58166000D03*
X129572000Y-58166000D03*
X119572000Y-58166000D03*
X127572000Y-58166000D03*
X139572000Y-98806000D03*
X137572000Y-98806000D03*
X135572000Y-98806000D03*
X133572000Y-98806000D03*
X131572000Y-98806000D03*
X129572000Y-98806000D03*
X127572000Y-98806000D03*
X125572000Y-98806000D03*
X123572000Y-98806000D03*
X121572000Y-98806000D03*
X119572000Y-98806000D03*
X117572000Y-98806000D03*
X115572000Y-98806000D03*
D14*
X113572000Y-98806000D03*
D15*
X107061000Y-99187000D03*
X159131000Y-99187000D03*
X105156000Y-57658000D03*
X159131000Y-57658000D03*
D16*
X118872000Y-80264000D03*
X134366000Y-71120000D03*
X129667000Y-89535000D03*
X119380000Y-72898000D03*
X147066000Y-78486000D03*
X137033000Y-65278000D03*
X106299000Y-66675000D03*
X131572000Y-71374000D03*
X143256000Y-94488000D03*
X132842000Y-95504000D03*
X129286000Y-85090000D03*
X146685000Y-83185000D03*
X120523000Y-62230000D03*
X116078000Y-68580000D03*
X138430000Y-89916000D03*
X142240000Y-87376000D03*
X125476000Y-69342000D03*
X123444000Y-67564000D03*
X123444000Y-63500000D03*
X134620000Y-78867000D03*
X124460000Y-68580000D03*
X135890000Y-77978000D03*
D17*
G36*
X157181385Y-56615909D02*
G01*
X157015545Y-57016284D01*
X156931000Y-57441319D01*
X156931000Y-57874681D01*
X157015545Y-58299716D01*
X157181385Y-58700091D01*
X157422148Y-59060418D01*
X157728582Y-59366852D01*
X158088909Y-59607615D01*
X158489284Y-59773455D01*
X158914319Y-59858000D01*
X159347681Y-59858000D01*
X159772716Y-59773455D01*
X160173091Y-59607615D01*
X160428000Y-59437290D01*
X160428000Y-97407710D01*
X160173091Y-97237385D01*
X159772716Y-97071545D01*
X159347681Y-96987000D01*
X158914319Y-96987000D01*
X158489284Y-97071545D01*
X158088909Y-97237385D01*
X157728582Y-97478148D01*
X157422148Y-97784582D01*
X157181385Y-98144909D01*
X157015545Y-98545284D01*
X156931000Y-98970319D01*
X156931000Y-99403681D01*
X157015545Y-99828716D01*
X157181385Y-100229091D01*
X157291574Y-100394000D01*
X108900426Y-100394000D01*
X109010615Y-100229091D01*
X109176455Y-99828716D01*
X109261000Y-99403681D01*
X109261000Y-98970319D01*
X109176455Y-98545284D01*
X109010615Y-98144909D01*
X109001322Y-98131000D01*
X112093130Y-98131000D01*
X112093130Y-99481000D01*
X112108576Y-99637827D01*
X112154321Y-99788628D01*
X112228607Y-99927606D01*
X112328578Y-100049422D01*
X112450394Y-100149393D01*
X112589372Y-100223679D01*
X112740173Y-100269424D01*
X112897000Y-100284870D01*
X114247000Y-100284870D01*
X114403827Y-100269424D01*
X114554628Y-100223679D01*
X114693606Y-100149393D01*
X114797223Y-100064357D01*
X115004811Y-100175315D01*
X115282850Y-100259657D01*
X115499548Y-100281000D01*
X115644452Y-100281000D01*
X115861150Y-100259657D01*
X116139189Y-100175315D01*
X116395431Y-100038351D01*
X116572000Y-99893444D01*
X116748569Y-100038351D01*
X117004811Y-100175315D01*
X117282850Y-100259657D01*
X117499548Y-100281000D01*
X117644452Y-100281000D01*
X117861150Y-100259657D01*
X118139189Y-100175315D01*
X118395431Y-100038351D01*
X118572000Y-99893444D01*
X118748569Y-100038351D01*
X119004811Y-100175315D01*
X119282850Y-100259657D01*
X119499548Y-100281000D01*
X119644452Y-100281000D01*
X119861150Y-100259657D01*
X120139189Y-100175315D01*
X120395431Y-100038351D01*
X120572000Y-99893444D01*
X120748569Y-100038351D01*
X121004811Y-100175315D01*
X121282850Y-100259657D01*
X121499548Y-100281000D01*
X121644452Y-100281000D01*
X121861150Y-100259657D01*
X122139189Y-100175315D01*
X122395431Y-100038351D01*
X122572000Y-99893444D01*
X122748569Y-100038351D01*
X123004811Y-100175315D01*
X123282850Y-100259657D01*
X123499548Y-100281000D01*
X123644452Y-100281000D01*
X123861150Y-100259657D01*
X124139189Y-100175315D01*
X124395431Y-100038351D01*
X124572000Y-99893444D01*
X124748569Y-100038351D01*
X125004811Y-100175315D01*
X125282850Y-100259657D01*
X125499548Y-100281000D01*
X125644452Y-100281000D01*
X125861150Y-100259657D01*
X126139189Y-100175315D01*
X126395431Y-100038351D01*
X126572000Y-99893444D01*
X126748569Y-100038351D01*
X127004811Y-100175315D01*
X127282850Y-100259657D01*
X127499548Y-100281000D01*
X127644452Y-100281000D01*
X127861150Y-100259657D01*
X128139189Y-100175315D01*
X128395431Y-100038351D01*
X128572000Y-99893444D01*
X128748569Y-100038351D01*
X129004811Y-100175315D01*
X129282850Y-100259657D01*
X129499548Y-100281000D01*
X129644452Y-100281000D01*
X129861150Y-100259657D01*
X130139189Y-100175315D01*
X130395431Y-100038351D01*
X130572000Y-99893444D01*
X130748569Y-100038351D01*
X131004811Y-100175315D01*
X131282850Y-100259657D01*
X131499548Y-100281000D01*
X131644452Y-100281000D01*
X131861150Y-100259657D01*
X132139189Y-100175315D01*
X132395431Y-100038351D01*
X132572000Y-99893444D01*
X132748569Y-100038351D01*
X133004811Y-100175315D01*
X133282850Y-100259657D01*
X133499548Y-100281000D01*
X133644452Y-100281000D01*
X133861150Y-100259657D01*
X134139189Y-100175315D01*
X134395431Y-100038351D01*
X134572000Y-99893444D01*
X134748569Y-100038351D01*
X135004811Y-100175315D01*
X135282850Y-100259657D01*
X135499548Y-100281000D01*
X135644452Y-100281000D01*
X135861150Y-100259657D01*
X136139189Y-100175315D01*
X136395431Y-100038351D01*
X136572000Y-99893444D01*
X136748569Y-100038351D01*
X137004811Y-100175315D01*
X137282850Y-100259657D01*
X137499548Y-100281000D01*
X137644452Y-100281000D01*
X137861150Y-100259657D01*
X138139189Y-100175315D01*
X138395431Y-100038351D01*
X138572000Y-99893444D01*
X138748569Y-100038351D01*
X139004811Y-100175315D01*
X139282850Y-100259657D01*
X139499548Y-100281000D01*
X139644452Y-100281000D01*
X139861150Y-100259657D01*
X140139189Y-100175315D01*
X140395431Y-100038351D01*
X140620028Y-99854028D01*
X140804351Y-99629431D01*
X140941315Y-99373189D01*
X141025657Y-99095150D01*
X141054136Y-98806000D01*
X141025657Y-98516850D01*
X140941315Y-98238811D01*
X140804351Y-97982569D01*
X140620028Y-97757972D01*
X140395431Y-97573649D01*
X140139189Y-97436685D01*
X139861150Y-97352343D01*
X139644452Y-97331000D01*
X139499548Y-97331000D01*
X139282850Y-97352343D01*
X139004811Y-97436685D01*
X138748569Y-97573649D01*
X138572000Y-97718556D01*
X138395431Y-97573649D01*
X138139189Y-97436685D01*
X137861150Y-97352343D01*
X137644452Y-97331000D01*
X137499548Y-97331000D01*
X137282850Y-97352343D01*
X137004811Y-97436685D01*
X136748569Y-97573649D01*
X136572000Y-97718556D01*
X136395431Y-97573649D01*
X136139189Y-97436685D01*
X135861150Y-97352343D01*
X135644452Y-97331000D01*
X135499548Y-97331000D01*
X135282850Y-97352343D01*
X135004811Y-97436685D01*
X134748569Y-97573649D01*
X134572000Y-97718556D01*
X134395431Y-97573649D01*
X134139189Y-97436685D01*
X133861150Y-97352343D01*
X133644452Y-97331000D01*
X133499548Y-97331000D01*
X133282850Y-97352343D01*
X133004811Y-97436685D01*
X132748569Y-97573649D01*
X132572000Y-97718556D01*
X132395431Y-97573649D01*
X132139189Y-97436685D01*
X131861150Y-97352343D01*
X131644452Y-97331000D01*
X131499548Y-97331000D01*
X131282850Y-97352343D01*
X131004811Y-97436685D01*
X130748569Y-97573649D01*
X130572000Y-97718556D01*
X130395431Y-97573649D01*
X130139189Y-97436685D01*
X129861150Y-97352343D01*
X129644452Y-97331000D01*
X129499548Y-97331000D01*
X129282850Y-97352343D01*
X129004811Y-97436685D01*
X128748569Y-97573649D01*
X128572000Y-97718556D01*
X128395431Y-97573649D01*
X128139189Y-97436685D01*
X127861150Y-97352343D01*
X127644452Y-97331000D01*
X127499548Y-97331000D01*
X127282850Y-97352343D01*
X127004811Y-97436685D01*
X126748569Y-97573649D01*
X126572000Y-97718556D01*
X126395431Y-97573649D01*
X126139189Y-97436685D01*
X125861150Y-97352343D01*
X125644452Y-97331000D01*
X125499548Y-97331000D01*
X125282850Y-97352343D01*
X125004811Y-97436685D01*
X124748569Y-97573649D01*
X124572000Y-97718556D01*
X124395431Y-97573649D01*
X124139189Y-97436685D01*
X123861150Y-97352343D01*
X123644452Y-97331000D01*
X123499548Y-97331000D01*
X123282850Y-97352343D01*
X123004811Y-97436685D01*
X122748569Y-97573649D01*
X122572000Y-97718556D01*
X122395431Y-97573649D01*
X122139189Y-97436685D01*
X121861150Y-97352343D01*
X121644452Y-97331000D01*
X121499548Y-97331000D01*
X121282850Y-97352343D01*
X121004811Y-97436685D01*
X120748569Y-97573649D01*
X120572000Y-97718556D01*
X120395431Y-97573649D01*
X120139189Y-97436685D01*
X119861150Y-97352343D01*
X119644452Y-97331000D01*
X119499548Y-97331000D01*
X119282850Y-97352343D01*
X119004811Y-97436685D01*
X118748569Y-97573649D01*
X118572000Y-97718556D01*
X118395431Y-97573649D01*
X118139189Y-97436685D01*
X117861150Y-97352343D01*
X117644452Y-97331000D01*
X117499548Y-97331000D01*
X117282850Y-97352343D01*
X117004811Y-97436685D01*
X116748569Y-97573649D01*
X116572000Y-97718556D01*
X116395431Y-97573649D01*
X116139189Y-97436685D01*
X115861150Y-97352343D01*
X115644452Y-97331000D01*
X115499548Y-97331000D01*
X115282850Y-97352343D01*
X115004811Y-97436685D01*
X114797223Y-97547643D01*
X114693606Y-97462607D01*
X114554628Y-97388321D01*
X114403827Y-97342576D01*
X114247000Y-97327130D01*
X112897000Y-97327130D01*
X112740173Y-97342576D01*
X112589372Y-97388321D01*
X112450394Y-97462607D01*
X112328578Y-97562578D01*
X112228607Y-97684394D01*
X112154321Y-97823372D01*
X112108576Y-97974173D01*
X112093130Y-98131000D01*
X109001322Y-98131000D01*
X108769852Y-97784582D01*
X108463418Y-97478148D01*
X108103091Y-97237385D01*
X107702716Y-97071545D01*
X107277681Y-96987000D01*
X106844319Y-96987000D01*
X106419284Y-97071545D01*
X106018909Y-97237385D01*
X105658582Y-97478148D01*
X105352148Y-97784582D01*
X105111385Y-98144909D01*
X104945545Y-98545284D01*
X104861000Y-98970319D01*
X104861000Y-99403681D01*
X104945545Y-99828716D01*
X105111385Y-100229091D01*
X105221574Y-100394000D01*
X103986000Y-100394000D01*
X103986000Y-93384000D01*
X111884130Y-93384000D01*
X111884130Y-95084000D01*
X111899576Y-95240827D01*
X111945321Y-95391628D01*
X112019607Y-95530606D01*
X112119578Y-95652422D01*
X112241394Y-95752393D01*
X112380372Y-95826679D01*
X112531173Y-95872424D01*
X112688000Y-95887870D01*
X114388000Y-95887870D01*
X114544827Y-95872424D01*
X114695628Y-95826679D01*
X114834606Y-95752393D01*
X114956422Y-95652422D01*
X115056393Y-95530606D01*
X115129445Y-95393936D01*
X131724500Y-95393936D01*
X131724500Y-95614064D01*
X131767445Y-95829963D01*
X131851684Y-96033335D01*
X131973981Y-96216365D01*
X132129635Y-96372019D01*
X132312665Y-96494316D01*
X132516037Y-96578555D01*
X132731936Y-96621500D01*
X132952064Y-96621500D01*
X133167963Y-96578555D01*
X133371335Y-96494316D01*
X133554365Y-96372019D01*
X133710019Y-96216365D01*
X133832316Y-96033335D01*
X133916555Y-95829963D01*
X133959500Y-95614064D01*
X133959500Y-95393936D01*
X133916555Y-95178037D01*
X133832316Y-94974665D01*
X133710019Y-94791635D01*
X133554365Y-94635981D01*
X133371335Y-94513684D01*
X133167963Y-94429445D01*
X132952064Y-94386500D01*
X132731936Y-94386500D01*
X132516037Y-94429445D01*
X132312665Y-94513684D01*
X132129635Y-94635981D01*
X131973981Y-94791635D01*
X131851684Y-94974665D01*
X131767445Y-95178037D01*
X131724500Y-95393936D01*
X115129445Y-95393936D01*
X115130679Y-95391628D01*
X115176424Y-95240827D01*
X115191870Y-95084000D01*
X115191870Y-94377936D01*
X142138500Y-94377936D01*
X142138500Y-94598064D01*
X142181445Y-94813963D01*
X142265684Y-95017335D01*
X142387981Y-95200365D01*
X142543635Y-95356019D01*
X142726665Y-95478316D01*
X142930037Y-95562555D01*
X143145936Y-95605500D01*
X143366064Y-95605500D01*
X143581963Y-95562555D01*
X143785335Y-95478316D01*
X143968365Y-95356019D01*
X144124019Y-95200365D01*
X144246316Y-95017335D01*
X144330555Y-94813963D01*
X144373500Y-94598064D01*
X144373500Y-94576000D01*
X153479058Y-94576000D01*
X153490797Y-94695189D01*
X153525563Y-94809797D01*
X153582020Y-94915421D01*
X153657999Y-95008001D01*
X153750579Y-95083980D01*
X153856203Y-95140437D01*
X153970811Y-95175203D01*
X154090000Y-95186942D01*
X154634000Y-95184000D01*
X154786000Y-95032000D01*
X154786000Y-93880000D01*
X155094000Y-93880000D01*
X155094000Y-95032000D01*
X155246000Y-95184000D01*
X155790000Y-95186942D01*
X155909189Y-95175203D01*
X156023797Y-95140437D01*
X156129421Y-95083980D01*
X156222001Y-95008001D01*
X156297980Y-94915421D01*
X156354437Y-94809797D01*
X156389203Y-94695189D01*
X156400942Y-94576000D01*
X156398000Y-94032000D01*
X156246000Y-93880000D01*
X155094000Y-93880000D01*
X154786000Y-93880000D01*
X153634000Y-93880000D01*
X153482000Y-94032000D01*
X153479058Y-94576000D01*
X144373500Y-94576000D01*
X144373500Y-94377936D01*
X144330555Y-94162037D01*
X144246316Y-93958665D01*
X144124019Y-93775635D01*
X143968365Y-93619981D01*
X143785335Y-93497684D01*
X143581963Y-93413445D01*
X143366064Y-93370500D01*
X143145936Y-93370500D01*
X142930037Y-93413445D01*
X142726665Y-93497684D01*
X142543635Y-93619981D01*
X142387981Y-93775635D01*
X142265684Y-93958665D01*
X142181445Y-94162037D01*
X142138500Y-94377936D01*
X115191870Y-94377936D01*
X115191870Y-93384000D01*
X115176424Y-93227173D01*
X115130679Y-93076372D01*
X115056393Y-92937394D01*
X114956422Y-92815578D01*
X114834606Y-92715607D01*
X114695628Y-92641321D01*
X114653528Y-92628550D01*
X114801473Y-92421611D01*
X114919146Y-92161139D01*
X114945903Y-92072910D01*
X114834889Y-91848000D01*
X113692000Y-91848000D01*
X113692000Y-91868000D01*
X113384000Y-91868000D01*
X113384000Y-91848000D01*
X112241111Y-91848000D01*
X112130097Y-92072910D01*
X112156854Y-92161139D01*
X112274527Y-92421611D01*
X112422472Y-92628550D01*
X112380372Y-92641321D01*
X112241394Y-92715607D01*
X112119578Y-92815578D01*
X112019607Y-92937394D01*
X111945321Y-93076372D01*
X111899576Y-93227173D01*
X111884130Y-93384000D01*
X103986000Y-93384000D01*
X103986000Y-91315090D01*
X112130097Y-91315090D01*
X112241111Y-91540000D01*
X113384000Y-91540000D01*
X113384000Y-90396150D01*
X113692000Y-90396150D01*
X113692000Y-91540000D01*
X114834889Y-91540000D01*
X114945903Y-91315090D01*
X114919146Y-91226861D01*
X114801473Y-90966389D01*
X114635246Y-90733878D01*
X114426852Y-90538264D01*
X114184300Y-90387065D01*
X113916911Y-90286091D01*
X113692000Y-90396150D01*
X113384000Y-90396150D01*
X113159089Y-90286091D01*
X112891700Y-90387065D01*
X112649148Y-90538264D01*
X112440754Y-90733878D01*
X112274527Y-90966389D01*
X112156854Y-91226861D01*
X112130097Y-91315090D01*
X103986000Y-91315090D01*
X103986000Y-89805936D01*
X137312500Y-89805936D01*
X137312500Y-90026064D01*
X137355445Y-90241963D01*
X137439684Y-90445335D01*
X137561981Y-90628365D01*
X137717635Y-90784019D01*
X137900665Y-90906316D01*
X138104037Y-90990555D01*
X138319936Y-91033500D01*
X138540064Y-91033500D01*
X138755963Y-90990555D01*
X138959335Y-90906316D01*
X139142365Y-90784019D01*
X139298019Y-90628365D01*
X139420316Y-90445335D01*
X139504555Y-90241963D01*
X139547500Y-90026064D01*
X139547500Y-89805936D01*
X139504555Y-89590037D01*
X139420316Y-89386665D01*
X139298019Y-89203635D01*
X139142365Y-89047981D01*
X138959335Y-88925684D01*
X138755963Y-88841445D01*
X138540064Y-88798500D01*
X138319936Y-88798500D01*
X138104037Y-88841445D01*
X137900665Y-88925684D01*
X137717635Y-89047981D01*
X137561981Y-89203635D01*
X137439684Y-89386665D01*
X137355445Y-89590037D01*
X137312500Y-89805936D01*
X103986000Y-89805936D01*
X103986000Y-87265936D01*
X141122500Y-87265936D01*
X141122500Y-87486064D01*
X141165445Y-87701963D01*
X141249684Y-87905335D01*
X141371981Y-88088365D01*
X141527635Y-88244019D01*
X141710665Y-88366316D01*
X141914037Y-88450555D01*
X142129936Y-88493500D01*
X142350064Y-88493500D01*
X142565963Y-88450555D01*
X142769335Y-88366316D01*
X142952365Y-88244019D01*
X143108019Y-88088365D01*
X143230316Y-87905335D01*
X143314555Y-87701963D01*
X143357500Y-87486064D01*
X143357500Y-87265936D01*
X143314555Y-87050037D01*
X143230316Y-86846665D01*
X143108019Y-86663635D01*
X142952365Y-86507981D01*
X142769335Y-86385684D01*
X142565963Y-86301445D01*
X142350064Y-86258500D01*
X142129936Y-86258500D01*
X141914037Y-86301445D01*
X141710665Y-86385684D01*
X141527635Y-86507981D01*
X141371981Y-86663635D01*
X141249684Y-86846665D01*
X141165445Y-87050037D01*
X141122500Y-87265936D01*
X103986000Y-87265936D01*
X103986000Y-84979936D01*
X128168500Y-84979936D01*
X128168500Y-85200064D01*
X128211445Y-85415963D01*
X128295684Y-85619335D01*
X128417981Y-85802365D01*
X128573635Y-85958019D01*
X128756665Y-86080316D01*
X128960037Y-86164555D01*
X129175936Y-86207500D01*
X129396064Y-86207500D01*
X129611963Y-86164555D01*
X129815335Y-86080316D01*
X129998365Y-85958019D01*
X130154019Y-85802365D01*
X130276316Y-85619335D01*
X130360555Y-85415963D01*
X130403500Y-85200064D01*
X130403500Y-84979936D01*
X130360555Y-84764037D01*
X130276316Y-84560665D01*
X130154019Y-84377635D01*
X129998365Y-84221981D01*
X129815335Y-84099684D01*
X129611963Y-84015445D01*
X129396064Y-83972500D01*
X129175936Y-83972500D01*
X128960037Y-84015445D01*
X128756665Y-84099684D01*
X128573635Y-84221981D01*
X128417981Y-84377635D01*
X128295684Y-84560665D01*
X128211445Y-84764037D01*
X128168500Y-84979936D01*
X103986000Y-84979936D01*
X103986000Y-83074936D01*
X145567500Y-83074936D01*
X145567500Y-83295064D01*
X145610445Y-83510963D01*
X145694684Y-83714335D01*
X145816981Y-83897365D01*
X145972635Y-84053019D01*
X146155665Y-84175316D01*
X146359037Y-84259555D01*
X146574936Y-84302500D01*
X146795064Y-84302500D01*
X147010963Y-84259555D01*
X147214335Y-84175316D01*
X147397365Y-84053019D01*
X147553019Y-83897365D01*
X147675316Y-83714335D01*
X147759555Y-83510963D01*
X147802500Y-83295064D01*
X147802500Y-83074936D01*
X147759555Y-82859037D01*
X147675316Y-82655665D01*
X147553019Y-82472635D01*
X147397365Y-82316981D01*
X147214335Y-82194684D01*
X147010963Y-82110445D01*
X146795064Y-82067500D01*
X146574936Y-82067500D01*
X146359037Y-82110445D01*
X146155665Y-82194684D01*
X145972635Y-82316981D01*
X145816981Y-82472635D01*
X145694684Y-82655665D01*
X145610445Y-82859037D01*
X145567500Y-83074936D01*
X103986000Y-83074936D01*
X103986000Y-78756936D01*
X133502500Y-78756936D01*
X133502500Y-78977064D01*
X133545445Y-79192963D01*
X133629684Y-79396335D01*
X133751981Y-79579365D01*
X133907635Y-79735019D01*
X134090665Y-79857316D01*
X134294037Y-79941555D01*
X134509936Y-79984500D01*
X134730064Y-79984500D01*
X134945963Y-79941555D01*
X135149335Y-79857316D01*
X135332365Y-79735019D01*
X135488019Y-79579365D01*
X135610316Y-79396335D01*
X135694555Y-79192963D01*
X135716453Y-79082873D01*
X135779936Y-79095500D01*
X136000064Y-79095500D01*
X136215963Y-79052555D01*
X136419335Y-78968316D01*
X136602365Y-78846019D01*
X136758019Y-78690365D01*
X136880316Y-78507335D01*
X136964555Y-78303963D01*
X137007500Y-78088064D01*
X137007500Y-77867936D01*
X136964555Y-77652037D01*
X136880316Y-77448665D01*
X136758019Y-77265635D01*
X136602365Y-77109981D01*
X136419335Y-76987684D01*
X136215963Y-76903445D01*
X136000064Y-76860500D01*
X135779936Y-76860500D01*
X135564037Y-76903445D01*
X135360665Y-76987684D01*
X135177635Y-77109981D01*
X135021981Y-77265635D01*
X134899684Y-77448665D01*
X134815445Y-77652037D01*
X134793547Y-77762127D01*
X134730064Y-77749500D01*
X134509936Y-77749500D01*
X134294037Y-77792445D01*
X134090665Y-77876684D01*
X133907635Y-77998981D01*
X133751981Y-78154635D01*
X133629684Y-78337665D01*
X133545445Y-78541037D01*
X133502500Y-78756936D01*
X103986000Y-78756936D01*
X103986000Y-71263936D01*
X130454500Y-71263936D01*
X130454500Y-71484064D01*
X130497445Y-71699963D01*
X130581684Y-71903335D01*
X130703981Y-72086365D01*
X130859635Y-72242019D01*
X131042665Y-72364316D01*
X131246037Y-72448555D01*
X131461936Y-72491500D01*
X131682064Y-72491500D01*
X131897963Y-72448555D01*
X132101335Y-72364316D01*
X132284365Y-72242019D01*
X132440019Y-72086365D01*
X132562316Y-71903335D01*
X132646555Y-71699963D01*
X132689500Y-71484064D01*
X132689500Y-71263936D01*
X132646555Y-71048037D01*
X132562316Y-70844665D01*
X132440019Y-70661635D01*
X132284365Y-70505981D01*
X132101335Y-70383684D01*
X131897963Y-70299445D01*
X131682064Y-70256500D01*
X131461936Y-70256500D01*
X131246037Y-70299445D01*
X131042665Y-70383684D01*
X130859635Y-70505981D01*
X130703981Y-70661635D01*
X130581684Y-70844665D01*
X130497445Y-71048037D01*
X130454500Y-71263936D01*
X103986000Y-71263936D01*
X103986000Y-68469936D01*
X114960500Y-68469936D01*
X114960500Y-68690064D01*
X115003445Y-68905963D01*
X115087684Y-69109335D01*
X115209981Y-69292365D01*
X115365635Y-69448019D01*
X115548665Y-69570316D01*
X115752037Y-69654555D01*
X115967936Y-69697500D01*
X116188064Y-69697500D01*
X116403963Y-69654555D01*
X116607335Y-69570316D01*
X116790365Y-69448019D01*
X116946019Y-69292365D01*
X117068316Y-69109335D01*
X117152555Y-68905963D01*
X117195500Y-68690064D01*
X117195500Y-68469936D01*
X117152555Y-68254037D01*
X117068316Y-68050665D01*
X116946019Y-67867635D01*
X116790365Y-67711981D01*
X116607335Y-67589684D01*
X116403963Y-67505445D01*
X116188064Y-67462500D01*
X115967936Y-67462500D01*
X115752037Y-67505445D01*
X115548665Y-67589684D01*
X115365635Y-67711981D01*
X115209981Y-67867635D01*
X115087684Y-68050665D01*
X115003445Y-68254037D01*
X114960500Y-68469936D01*
X103986000Y-68469936D01*
X103986000Y-66564936D01*
X105181500Y-66564936D01*
X105181500Y-66785064D01*
X105224445Y-67000963D01*
X105308684Y-67204335D01*
X105430981Y-67387365D01*
X105586635Y-67543019D01*
X105769665Y-67665316D01*
X105973037Y-67749555D01*
X106188936Y-67792500D01*
X106409064Y-67792500D01*
X106624963Y-67749555D01*
X106828335Y-67665316D01*
X107011365Y-67543019D01*
X107100448Y-67453936D01*
X122326500Y-67453936D01*
X122326500Y-67674064D01*
X122369445Y-67889963D01*
X122453684Y-68093335D01*
X122575981Y-68276365D01*
X122731635Y-68432019D01*
X122914665Y-68554316D01*
X123118037Y-68638555D01*
X123333936Y-68681500D01*
X123342500Y-68681500D01*
X123342500Y-68690064D01*
X123385445Y-68905963D01*
X123469684Y-69109335D01*
X123591981Y-69292365D01*
X123747635Y-69448019D01*
X123930665Y-69570316D01*
X124134037Y-69654555D01*
X124349936Y-69697500D01*
X124413680Y-69697500D01*
X124485684Y-69871335D01*
X124607981Y-70054365D01*
X124763635Y-70210019D01*
X124946665Y-70332316D01*
X125150037Y-70416555D01*
X125365936Y-70459500D01*
X125586064Y-70459500D01*
X125801963Y-70416555D01*
X126005335Y-70332316D01*
X126188365Y-70210019D01*
X126344019Y-70054365D01*
X126466316Y-69871335D01*
X126550555Y-69667963D01*
X126593500Y-69452064D01*
X126593500Y-69231936D01*
X126550555Y-69016037D01*
X126466316Y-68812665D01*
X126344019Y-68629635D01*
X126188365Y-68473981D01*
X126005335Y-68351684D01*
X125801963Y-68267445D01*
X125586064Y-68224500D01*
X125522320Y-68224500D01*
X125450316Y-68050665D01*
X125328019Y-67867635D01*
X125172365Y-67711981D01*
X124989335Y-67589684D01*
X124785963Y-67505445D01*
X124570064Y-67462500D01*
X124561500Y-67462500D01*
X124561500Y-67453936D01*
X124518555Y-67238037D01*
X124434316Y-67034665D01*
X124312019Y-66851635D01*
X124156365Y-66695981D01*
X123973335Y-66573684D01*
X123769963Y-66489445D01*
X123554064Y-66446500D01*
X123333936Y-66446500D01*
X123118037Y-66489445D01*
X122914665Y-66573684D01*
X122731635Y-66695981D01*
X122575981Y-66851635D01*
X122453684Y-67034665D01*
X122369445Y-67238037D01*
X122326500Y-67453936D01*
X107100448Y-67453936D01*
X107167019Y-67387365D01*
X107289316Y-67204335D01*
X107373555Y-67000963D01*
X107416500Y-66785064D01*
X107416500Y-66564936D01*
X107373555Y-66349037D01*
X107289316Y-66145665D01*
X107167019Y-65962635D01*
X107011365Y-65806981D01*
X106828335Y-65684684D01*
X106624963Y-65600445D01*
X106409064Y-65557500D01*
X106188936Y-65557500D01*
X105973037Y-65600445D01*
X105769665Y-65684684D01*
X105586635Y-65806981D01*
X105430981Y-65962635D01*
X105308684Y-66145665D01*
X105224445Y-66349037D01*
X105181500Y-66564936D01*
X103986000Y-66564936D01*
X103986000Y-64936000D01*
X145793130Y-64936000D01*
X145793130Y-66636000D01*
X145808576Y-66792827D01*
X145854321Y-66943628D01*
X145928607Y-67082606D01*
X146028578Y-67204422D01*
X146150394Y-67304393D01*
X146289372Y-67378679D01*
X146440173Y-67424424D01*
X146597000Y-67439870D01*
X148297000Y-67439870D01*
X148453827Y-67424424D01*
X148604628Y-67378679D01*
X148743606Y-67304393D01*
X148865422Y-67204422D01*
X148965393Y-67082606D01*
X149039679Y-66943628D01*
X149052450Y-66901528D01*
X149259389Y-67049473D01*
X149519861Y-67167146D01*
X149608090Y-67193903D01*
X149833000Y-67082889D01*
X149833000Y-65940000D01*
X150141000Y-65940000D01*
X150141000Y-67082889D01*
X150365910Y-67193903D01*
X150454139Y-67167146D01*
X150714611Y-67049473D01*
X150947122Y-66883246D01*
X151142736Y-66674852D01*
X151293935Y-66432300D01*
X151394909Y-66164911D01*
X151284850Y-65940000D01*
X150141000Y-65940000D01*
X149833000Y-65940000D01*
X149813000Y-65940000D01*
X149813000Y-65632000D01*
X149833000Y-65632000D01*
X149833000Y-64489111D01*
X150141000Y-64489111D01*
X150141000Y-65632000D01*
X151284850Y-65632000D01*
X151394909Y-65407089D01*
X151293935Y-65139700D01*
X151142736Y-64897148D01*
X150947122Y-64688754D01*
X150714611Y-64522527D01*
X150454139Y-64404854D01*
X150365910Y-64378097D01*
X150141000Y-64489111D01*
X149833000Y-64489111D01*
X149608090Y-64378097D01*
X149519861Y-64404854D01*
X149259389Y-64522527D01*
X149052450Y-64670472D01*
X149039679Y-64628372D01*
X148965393Y-64489394D01*
X148865422Y-64367578D01*
X148743606Y-64267607D01*
X148604628Y-64193321D01*
X148453827Y-64147576D01*
X148297000Y-64132130D01*
X146597000Y-64132130D01*
X146440173Y-64147576D01*
X146289372Y-64193321D01*
X146150394Y-64267607D01*
X146028578Y-64367578D01*
X145928607Y-64489394D01*
X145854321Y-64628372D01*
X145808576Y-64779173D01*
X145793130Y-64936000D01*
X103986000Y-64936000D01*
X103986000Y-63389936D01*
X122326500Y-63389936D01*
X122326500Y-63610064D01*
X122369445Y-63825963D01*
X122453684Y-64029335D01*
X122575981Y-64212365D01*
X122731635Y-64368019D01*
X122914665Y-64490316D01*
X123118037Y-64574555D01*
X123333936Y-64617500D01*
X123554064Y-64617500D01*
X123769963Y-64574555D01*
X123973335Y-64490316D01*
X124156365Y-64368019D01*
X124312019Y-64212365D01*
X124434316Y-64029335D01*
X124518555Y-63825963D01*
X124561500Y-63610064D01*
X124561500Y-63389936D01*
X124518555Y-63174037D01*
X124434316Y-62970665D01*
X124312019Y-62787635D01*
X124156365Y-62631981D01*
X123973335Y-62509684D01*
X123769963Y-62425445D01*
X123554064Y-62382500D01*
X123333936Y-62382500D01*
X123118037Y-62425445D01*
X122914665Y-62509684D01*
X122731635Y-62631981D01*
X122575981Y-62787635D01*
X122453684Y-62970665D01*
X122369445Y-63174037D01*
X122326500Y-63389936D01*
X103986000Y-63389936D01*
X103986000Y-62119936D01*
X119405500Y-62119936D01*
X119405500Y-62340064D01*
X119448445Y-62555963D01*
X119532684Y-62759335D01*
X119654981Y-62942365D01*
X119810635Y-63098019D01*
X119993665Y-63220316D01*
X120197037Y-63304555D01*
X120412936Y-63347500D01*
X120633064Y-63347500D01*
X120848963Y-63304555D01*
X121052335Y-63220316D01*
X121235365Y-63098019D01*
X121391019Y-62942365D01*
X121513316Y-62759335D01*
X121597555Y-62555963D01*
X121640500Y-62340064D01*
X121640500Y-62119936D01*
X121614257Y-61988000D01*
X142083130Y-61988000D01*
X142083130Y-63488000D01*
X142098576Y-63644827D01*
X142144321Y-63795628D01*
X142218607Y-63934606D01*
X142318578Y-64056422D01*
X142440394Y-64156393D01*
X142579372Y-64230679D01*
X142730173Y-64276424D01*
X142887000Y-64291870D01*
X144387000Y-64291870D01*
X144543827Y-64276424D01*
X144694628Y-64230679D01*
X144833606Y-64156393D01*
X144955422Y-64056422D01*
X145055393Y-63934606D01*
X145129679Y-63795628D01*
X145175424Y-63644827D01*
X145190870Y-63488000D01*
X145190870Y-63246000D01*
X153282017Y-63246000D01*
X153313875Y-63569456D01*
X153408223Y-63880483D01*
X153561438Y-64167126D01*
X153767629Y-64418371D01*
X153886591Y-64516000D01*
X153767629Y-64613629D01*
X153561438Y-64864874D01*
X153408223Y-65151517D01*
X153313875Y-65462544D01*
X153282017Y-65786000D01*
X153313875Y-66109456D01*
X153408223Y-66420483D01*
X153561438Y-66707126D01*
X153767629Y-66958371D01*
X153886591Y-67056000D01*
X153767629Y-67153629D01*
X153561438Y-67404874D01*
X153408223Y-67691517D01*
X153313875Y-68002544D01*
X153282017Y-68326000D01*
X153313875Y-68649456D01*
X153408223Y-68960483D01*
X153561438Y-69247126D01*
X153767629Y-69498371D01*
X153886591Y-69596000D01*
X153767629Y-69693629D01*
X153561438Y-69944874D01*
X153408223Y-70231517D01*
X153313875Y-70542544D01*
X153282017Y-70866000D01*
X153313875Y-71189456D01*
X153408223Y-71500483D01*
X153561438Y-71787126D01*
X153767629Y-72038371D01*
X153886591Y-72136000D01*
X153767629Y-72233629D01*
X153561438Y-72484874D01*
X153408223Y-72771517D01*
X153313875Y-73082544D01*
X153282017Y-73406000D01*
X153313875Y-73729456D01*
X153408223Y-74040483D01*
X153561438Y-74327126D01*
X153767629Y-74578371D01*
X153886591Y-74676000D01*
X153767629Y-74773629D01*
X153561438Y-75024874D01*
X153408223Y-75311517D01*
X153313875Y-75622544D01*
X153282017Y-75946000D01*
X153313875Y-76269456D01*
X153408223Y-76580483D01*
X153561438Y-76867126D01*
X153767629Y-77118371D01*
X153886591Y-77216000D01*
X153767629Y-77313629D01*
X153561438Y-77564874D01*
X153408223Y-77851517D01*
X153313875Y-78162544D01*
X153282017Y-78486000D01*
X153313875Y-78809456D01*
X153408223Y-79120483D01*
X153561438Y-79407126D01*
X153767629Y-79658371D01*
X153886591Y-79756000D01*
X153767629Y-79853629D01*
X153561438Y-80104874D01*
X153408223Y-80391517D01*
X153313875Y-80702544D01*
X153282017Y-81026000D01*
X153313875Y-81349456D01*
X153408223Y-81660483D01*
X153561438Y-81947126D01*
X153767629Y-82198371D01*
X153886591Y-82296000D01*
X153767629Y-82393629D01*
X153561438Y-82644874D01*
X153408223Y-82931517D01*
X153313875Y-83242544D01*
X153282017Y-83566000D01*
X153313875Y-83889456D01*
X153408223Y-84200483D01*
X153561438Y-84487126D01*
X153767629Y-84738371D01*
X153886591Y-84836000D01*
X153767629Y-84933629D01*
X153561438Y-85184874D01*
X153408223Y-85471517D01*
X153313875Y-85782544D01*
X153282017Y-86106000D01*
X153313875Y-86429456D01*
X153408223Y-86740483D01*
X153561438Y-87027126D01*
X153767629Y-87278371D01*
X153886591Y-87376000D01*
X153767629Y-87473629D01*
X153561438Y-87724874D01*
X153408223Y-88011517D01*
X153313875Y-88322544D01*
X153282017Y-88646000D01*
X153313875Y-88969456D01*
X153408223Y-89280483D01*
X153561438Y-89567126D01*
X153767629Y-89818371D01*
X153886591Y-89916000D01*
X153767629Y-90013629D01*
X153561438Y-90264874D01*
X153408223Y-90551517D01*
X153313875Y-90862544D01*
X153282017Y-91186000D01*
X153313875Y-91509456D01*
X153408223Y-91820483D01*
X153561438Y-92107126D01*
X153767629Y-92358371D01*
X153768024Y-92358695D01*
X153750579Y-92368020D01*
X153657999Y-92443999D01*
X153582020Y-92536579D01*
X153525563Y-92642203D01*
X153490797Y-92756811D01*
X153479058Y-92876000D01*
X153482000Y-93420000D01*
X153634000Y-93572000D01*
X154786000Y-93572000D01*
X154786000Y-93552000D01*
X155094000Y-93552000D01*
X155094000Y-93572000D01*
X156246000Y-93572000D01*
X156398000Y-93420000D01*
X156400942Y-92876000D01*
X156389203Y-92756811D01*
X156354437Y-92642203D01*
X156297980Y-92536579D01*
X156222001Y-92443999D01*
X156129421Y-92368020D01*
X156111976Y-92358695D01*
X156112371Y-92358371D01*
X156318562Y-92107126D01*
X156471777Y-91820483D01*
X156566125Y-91509456D01*
X156597983Y-91186000D01*
X156566125Y-90862544D01*
X156471777Y-90551517D01*
X156318562Y-90264874D01*
X156112371Y-90013629D01*
X155993409Y-89916000D01*
X156112371Y-89818371D01*
X156318562Y-89567126D01*
X156471777Y-89280483D01*
X156566125Y-88969456D01*
X156597983Y-88646000D01*
X156566125Y-88322544D01*
X156471777Y-88011517D01*
X156318562Y-87724874D01*
X156112371Y-87473629D01*
X155993409Y-87376000D01*
X156112371Y-87278371D01*
X156318562Y-87027126D01*
X156471777Y-86740483D01*
X156566125Y-86429456D01*
X156597983Y-86106000D01*
X156566125Y-85782544D01*
X156471777Y-85471517D01*
X156318562Y-85184874D01*
X156112371Y-84933629D01*
X155993409Y-84836000D01*
X156112371Y-84738371D01*
X156318562Y-84487126D01*
X156471777Y-84200483D01*
X156566125Y-83889456D01*
X156597983Y-83566000D01*
X156566125Y-83242544D01*
X156471777Y-82931517D01*
X156318562Y-82644874D01*
X156112371Y-82393629D01*
X155993409Y-82296000D01*
X156112371Y-82198371D01*
X156318562Y-81947126D01*
X156471777Y-81660483D01*
X156566125Y-81349456D01*
X156597983Y-81026000D01*
X156566125Y-80702544D01*
X156471777Y-80391517D01*
X156318562Y-80104874D01*
X156112371Y-79853629D01*
X155993409Y-79756000D01*
X156112371Y-79658371D01*
X156318562Y-79407126D01*
X156471777Y-79120483D01*
X156566125Y-78809456D01*
X156597983Y-78486000D01*
X156566125Y-78162544D01*
X156471777Y-77851517D01*
X156318562Y-77564874D01*
X156112371Y-77313629D01*
X155993409Y-77216000D01*
X156112371Y-77118371D01*
X156318562Y-76867126D01*
X156471777Y-76580483D01*
X156566125Y-76269456D01*
X156597983Y-75946000D01*
X156566125Y-75622544D01*
X156471777Y-75311517D01*
X156318562Y-75024874D01*
X156112371Y-74773629D01*
X155993409Y-74676000D01*
X156112371Y-74578371D01*
X156318562Y-74327126D01*
X156471777Y-74040483D01*
X156566125Y-73729456D01*
X156597983Y-73406000D01*
X156566125Y-73082544D01*
X156471777Y-72771517D01*
X156318562Y-72484874D01*
X156112371Y-72233629D01*
X155993409Y-72136000D01*
X156112371Y-72038371D01*
X156318562Y-71787126D01*
X156471777Y-71500483D01*
X156566125Y-71189456D01*
X156597983Y-70866000D01*
X156566125Y-70542544D01*
X156471777Y-70231517D01*
X156318562Y-69944874D01*
X156112371Y-69693629D01*
X155993409Y-69596000D01*
X156112371Y-69498371D01*
X156318562Y-69247126D01*
X156471777Y-68960483D01*
X156566125Y-68649456D01*
X156597983Y-68326000D01*
X156566125Y-68002544D01*
X156471777Y-67691517D01*
X156318562Y-67404874D01*
X156112371Y-67153629D01*
X155993409Y-67056000D01*
X156112371Y-66958371D01*
X156318562Y-66707126D01*
X156471777Y-66420483D01*
X156566125Y-66109456D01*
X156597983Y-65786000D01*
X156566125Y-65462544D01*
X156471777Y-65151517D01*
X156318562Y-64864874D01*
X156112371Y-64613629D01*
X155993409Y-64516000D01*
X156112371Y-64418371D01*
X156318562Y-64167126D01*
X156471777Y-63880483D01*
X156566125Y-63569456D01*
X156597983Y-63246000D01*
X156566125Y-62922544D01*
X156471777Y-62611517D01*
X156318562Y-62324874D01*
X156112371Y-62073629D01*
X155861126Y-61867438D01*
X155574483Y-61714223D01*
X155263456Y-61619875D01*
X155021052Y-61596000D01*
X154858948Y-61596000D01*
X154616544Y-61619875D01*
X154305517Y-61714223D01*
X154018874Y-61867438D01*
X153767629Y-62073629D01*
X153561438Y-62324874D01*
X153408223Y-62611517D01*
X153313875Y-62922544D01*
X153282017Y-63246000D01*
X145190870Y-63246000D01*
X145190870Y-61988000D01*
X145175424Y-61831173D01*
X145129679Y-61680372D01*
X145055393Y-61541394D01*
X144955422Y-61419578D01*
X144833606Y-61319607D01*
X144694628Y-61245321D01*
X144543827Y-61199576D01*
X144387000Y-61184130D01*
X142887000Y-61184130D01*
X142730173Y-61199576D01*
X142579372Y-61245321D01*
X142440394Y-61319607D01*
X142318578Y-61419578D01*
X142218607Y-61541394D01*
X142144321Y-61680372D01*
X142098576Y-61831173D01*
X142083130Y-61988000D01*
X121614257Y-61988000D01*
X121597555Y-61904037D01*
X121513316Y-61700665D01*
X121391019Y-61517635D01*
X121235365Y-61361981D01*
X121052335Y-61239684D01*
X120848963Y-61155445D01*
X120633064Y-61112500D01*
X120412936Y-61112500D01*
X120197037Y-61155445D01*
X119993665Y-61239684D01*
X119810635Y-61361981D01*
X119654981Y-61517635D01*
X119532684Y-61700665D01*
X119448445Y-61904037D01*
X119405500Y-62119936D01*
X103986000Y-62119936D01*
X103986000Y-59522149D01*
X104113909Y-59607615D01*
X104514284Y-59773455D01*
X104939319Y-59858000D01*
X105372681Y-59858000D01*
X105797716Y-59773455D01*
X106198091Y-59607615D01*
X106558418Y-59366852D01*
X106864852Y-59060418D01*
X107105615Y-58700091D01*
X107271455Y-58299716D01*
X107356000Y-57874681D01*
X107356000Y-57491000D01*
X112093130Y-57491000D01*
X112093130Y-58841000D01*
X112108576Y-58997827D01*
X112154321Y-59148628D01*
X112228607Y-59287606D01*
X112328578Y-59409422D01*
X112450394Y-59509393D01*
X112589372Y-59583679D01*
X112740173Y-59629424D01*
X112897000Y-59644870D01*
X114247000Y-59644870D01*
X114403827Y-59629424D01*
X114554628Y-59583679D01*
X114693606Y-59509393D01*
X114797223Y-59424357D01*
X115004811Y-59535315D01*
X115282850Y-59619657D01*
X115499548Y-59641000D01*
X115644452Y-59641000D01*
X115861150Y-59619657D01*
X116139189Y-59535315D01*
X116395431Y-59398351D01*
X116572000Y-59253444D01*
X116748569Y-59398351D01*
X117004811Y-59535315D01*
X117282850Y-59619657D01*
X117499548Y-59641000D01*
X117644452Y-59641000D01*
X117861150Y-59619657D01*
X118139189Y-59535315D01*
X118395431Y-59398351D01*
X118572000Y-59253444D01*
X118748569Y-59398351D01*
X119004811Y-59535315D01*
X119282850Y-59619657D01*
X119499548Y-59641000D01*
X119644452Y-59641000D01*
X119861150Y-59619657D01*
X120139189Y-59535315D01*
X120395431Y-59398351D01*
X120572000Y-59253444D01*
X120748569Y-59398351D01*
X121004811Y-59535315D01*
X121282850Y-59619657D01*
X121499548Y-59641000D01*
X121644452Y-59641000D01*
X121861150Y-59619657D01*
X122139189Y-59535315D01*
X122395431Y-59398351D01*
X122572000Y-59253444D01*
X122748569Y-59398351D01*
X123004811Y-59535315D01*
X123282850Y-59619657D01*
X123499548Y-59641000D01*
X123644452Y-59641000D01*
X123861150Y-59619657D01*
X124139189Y-59535315D01*
X124395431Y-59398351D01*
X124572000Y-59253444D01*
X124748569Y-59398351D01*
X125004811Y-59535315D01*
X125282850Y-59619657D01*
X125499548Y-59641000D01*
X125644452Y-59641000D01*
X125861150Y-59619657D01*
X126139189Y-59535315D01*
X126395431Y-59398351D01*
X126572000Y-59253444D01*
X126748569Y-59398351D01*
X127004811Y-59535315D01*
X127282850Y-59619657D01*
X127499548Y-59641000D01*
X127644452Y-59641000D01*
X127861150Y-59619657D01*
X128139189Y-59535315D01*
X128395431Y-59398351D01*
X128572000Y-59253444D01*
X128748569Y-59398351D01*
X129004811Y-59535315D01*
X129282850Y-59619657D01*
X129499548Y-59641000D01*
X129644452Y-59641000D01*
X129861150Y-59619657D01*
X130139189Y-59535315D01*
X130395431Y-59398351D01*
X130572000Y-59253444D01*
X130748569Y-59398351D01*
X131004811Y-59535315D01*
X131282850Y-59619657D01*
X131499548Y-59641000D01*
X131644452Y-59641000D01*
X131861150Y-59619657D01*
X132139189Y-59535315D01*
X132395431Y-59398351D01*
X132572000Y-59253444D01*
X132748569Y-59398351D01*
X133004811Y-59535315D01*
X133282850Y-59619657D01*
X133499548Y-59641000D01*
X133644452Y-59641000D01*
X133861150Y-59619657D01*
X134139189Y-59535315D01*
X134395431Y-59398351D01*
X134572000Y-59253444D01*
X134748569Y-59398351D01*
X135004811Y-59535315D01*
X135282850Y-59619657D01*
X135499548Y-59641000D01*
X135644452Y-59641000D01*
X135861150Y-59619657D01*
X136139189Y-59535315D01*
X136395431Y-59398351D01*
X136572000Y-59253444D01*
X136748569Y-59398351D01*
X137004811Y-59535315D01*
X137282850Y-59619657D01*
X137499548Y-59641000D01*
X137644452Y-59641000D01*
X137861150Y-59619657D01*
X138139189Y-59535315D01*
X138395431Y-59398351D01*
X138620028Y-59214028D01*
X138706892Y-59108185D01*
X138741206Y-59143695D01*
X138947908Y-59286989D01*
X139178594Y-59387204D01*
X139220642Y-59399951D01*
X139418000Y-59286466D01*
X139418000Y-58320000D01*
X139726000Y-58320000D01*
X139726000Y-59286466D01*
X139923358Y-59399951D01*
X139965406Y-59387204D01*
X140196092Y-59286989D01*
X140402794Y-59143695D01*
X140577569Y-58962829D01*
X140713701Y-58751341D01*
X140805958Y-58517359D01*
X140693731Y-58320000D01*
X139726000Y-58320000D01*
X139418000Y-58320000D01*
X139398000Y-58320000D01*
X139398000Y-58012000D01*
X139418000Y-58012000D01*
X139418000Y-57045534D01*
X139726000Y-57045534D01*
X139726000Y-58012000D01*
X140693731Y-58012000D01*
X140805958Y-57814641D01*
X140713701Y-57580659D01*
X140577569Y-57369171D01*
X140402794Y-57188305D01*
X140196092Y-57045011D01*
X139965406Y-56944796D01*
X139923358Y-56932049D01*
X139726000Y-57045534D01*
X139418000Y-57045534D01*
X139220642Y-56932049D01*
X139178594Y-56944796D01*
X138947908Y-57045011D01*
X138741206Y-57188305D01*
X138706892Y-57223815D01*
X138620028Y-57117972D01*
X138395431Y-56933649D01*
X138139189Y-56796685D01*
X137861150Y-56712343D01*
X137644452Y-56691000D01*
X137499548Y-56691000D01*
X137282850Y-56712343D01*
X137004811Y-56796685D01*
X136748569Y-56933649D01*
X136572000Y-57078556D01*
X136395431Y-56933649D01*
X136139189Y-56796685D01*
X135861150Y-56712343D01*
X135644452Y-56691000D01*
X135499548Y-56691000D01*
X135282850Y-56712343D01*
X135004811Y-56796685D01*
X134748569Y-56933649D01*
X134572000Y-57078556D01*
X134395431Y-56933649D01*
X134139189Y-56796685D01*
X133861150Y-56712343D01*
X133644452Y-56691000D01*
X133499548Y-56691000D01*
X133282850Y-56712343D01*
X133004811Y-56796685D01*
X132748569Y-56933649D01*
X132572000Y-57078556D01*
X132395431Y-56933649D01*
X132139189Y-56796685D01*
X131861150Y-56712343D01*
X131644452Y-56691000D01*
X131499548Y-56691000D01*
X131282850Y-56712343D01*
X131004811Y-56796685D01*
X130748569Y-56933649D01*
X130572000Y-57078556D01*
X130395431Y-56933649D01*
X130139189Y-56796685D01*
X129861150Y-56712343D01*
X129644452Y-56691000D01*
X129499548Y-56691000D01*
X129282850Y-56712343D01*
X129004811Y-56796685D01*
X128748569Y-56933649D01*
X128572000Y-57078556D01*
X128395431Y-56933649D01*
X128139189Y-56796685D01*
X127861150Y-56712343D01*
X127644452Y-56691000D01*
X127499548Y-56691000D01*
X127282850Y-56712343D01*
X127004811Y-56796685D01*
X126748569Y-56933649D01*
X126572000Y-57078556D01*
X126395431Y-56933649D01*
X126139189Y-56796685D01*
X125861150Y-56712343D01*
X125644452Y-56691000D01*
X125499548Y-56691000D01*
X125282850Y-56712343D01*
X125004811Y-56796685D01*
X124748569Y-56933649D01*
X124572000Y-57078556D01*
X124395431Y-56933649D01*
X124139189Y-56796685D01*
X123861150Y-56712343D01*
X123644452Y-56691000D01*
X123499548Y-56691000D01*
X123282850Y-56712343D01*
X123004811Y-56796685D01*
X122748569Y-56933649D01*
X122572000Y-57078556D01*
X122395431Y-56933649D01*
X122139189Y-56796685D01*
X121861150Y-56712343D01*
X121644452Y-56691000D01*
X121499548Y-56691000D01*
X121282850Y-56712343D01*
X121004811Y-56796685D01*
X120748569Y-56933649D01*
X120572000Y-57078556D01*
X120395431Y-56933649D01*
X120139189Y-56796685D01*
X119861150Y-56712343D01*
X119644452Y-56691000D01*
X119499548Y-56691000D01*
X119282850Y-56712343D01*
X119004811Y-56796685D01*
X118748569Y-56933649D01*
X118572000Y-57078556D01*
X118395431Y-56933649D01*
X118139189Y-56796685D01*
X117861150Y-56712343D01*
X117644452Y-56691000D01*
X117499548Y-56691000D01*
X117282850Y-56712343D01*
X117004811Y-56796685D01*
X116748569Y-56933649D01*
X116572000Y-57078556D01*
X116395431Y-56933649D01*
X116139189Y-56796685D01*
X115861150Y-56712343D01*
X115644452Y-56691000D01*
X115499548Y-56691000D01*
X115282850Y-56712343D01*
X115004811Y-56796685D01*
X114797223Y-56907643D01*
X114693606Y-56822607D01*
X114554628Y-56748321D01*
X114403827Y-56702576D01*
X114247000Y-56687130D01*
X112897000Y-56687130D01*
X112740173Y-56702576D01*
X112589372Y-56748321D01*
X112450394Y-56822607D01*
X112328578Y-56922578D01*
X112228607Y-57044394D01*
X112154321Y-57183372D01*
X112108576Y-57334173D01*
X112093130Y-57491000D01*
X107356000Y-57491000D01*
X107356000Y-57441319D01*
X107271455Y-57016284D01*
X107105615Y-56615909D01*
X107080285Y-56578000D01*
X157206715Y-56578000D01*
X157181385Y-56615909D01*
X157181385Y-56615909D01*
G37*
X157181385Y-56615909D02*
X157015545Y-57016284D01*
X156931000Y-57441319D01*
X156931000Y-57874681D01*
X157015545Y-58299716D01*
X157181385Y-58700091D01*
X157422148Y-59060418D01*
X157728582Y-59366852D01*
X158088909Y-59607615D01*
X158489284Y-59773455D01*
X158914319Y-59858000D01*
X159347681Y-59858000D01*
X159772716Y-59773455D01*
X160173091Y-59607615D01*
X160428000Y-59437290D01*
X160428000Y-97407710D01*
X160173091Y-97237385D01*
X159772716Y-97071545D01*
X159347681Y-96987000D01*
X158914319Y-96987000D01*
X158489284Y-97071545D01*
X158088909Y-97237385D01*
X157728582Y-97478148D01*
X157422148Y-97784582D01*
X157181385Y-98144909D01*
X157015545Y-98545284D01*
X156931000Y-98970319D01*
X156931000Y-99403681D01*
X157015545Y-99828716D01*
X157181385Y-100229091D01*
X157291574Y-100394000D01*
X108900426Y-100394000D01*
X109010615Y-100229091D01*
X109176455Y-99828716D01*
X109261000Y-99403681D01*
X109261000Y-98970319D01*
X109176455Y-98545284D01*
X109010615Y-98144909D01*
X109001322Y-98131000D01*
X112093130Y-98131000D01*
X112093130Y-99481000D01*
X112108576Y-99637827D01*
X112154321Y-99788628D01*
X112228607Y-99927606D01*
X112328578Y-100049422D01*
X112450394Y-100149393D01*
X112589372Y-100223679D01*
X112740173Y-100269424D01*
X112897000Y-100284870D01*
X114247000Y-100284870D01*
X114403827Y-100269424D01*
X114554628Y-100223679D01*
X114693606Y-100149393D01*
X114797223Y-100064357D01*
X115004811Y-100175315D01*
X115282850Y-100259657D01*
X115499548Y-100281000D01*
X115644452Y-100281000D01*
X115861150Y-100259657D01*
X116139189Y-100175315D01*
X116395431Y-100038351D01*
X116572000Y-99893444D01*
X116748569Y-100038351D01*
X117004811Y-100175315D01*
X117282850Y-100259657D01*
X117499548Y-100281000D01*
X117644452Y-100281000D01*
X117861150Y-100259657D01*
X118139189Y-100175315D01*
X118395431Y-100038351D01*
X118572000Y-99893444D01*
X118748569Y-100038351D01*
X119004811Y-100175315D01*
X119282850Y-100259657D01*
X119499548Y-100281000D01*
X119644452Y-100281000D01*
X119861150Y-100259657D01*
X120139189Y-100175315D01*
X120395431Y-100038351D01*
X120572000Y-99893444D01*
X120748569Y-100038351D01*
X121004811Y-100175315D01*
X121282850Y-100259657D01*
X121499548Y-100281000D01*
X121644452Y-100281000D01*
X121861150Y-100259657D01*
X122139189Y-100175315D01*
X122395431Y-100038351D01*
X122572000Y-99893444D01*
X122748569Y-100038351D01*
X123004811Y-100175315D01*
X123282850Y-100259657D01*
X123499548Y-100281000D01*
X123644452Y-100281000D01*
X123861150Y-100259657D01*
X124139189Y-100175315D01*
X124395431Y-100038351D01*
X124572000Y-99893444D01*
X124748569Y-100038351D01*
X125004811Y-100175315D01*
X125282850Y-100259657D01*
X125499548Y-100281000D01*
X125644452Y-100281000D01*
X125861150Y-100259657D01*
X126139189Y-100175315D01*
X126395431Y-100038351D01*
X126572000Y-99893444D01*
X126748569Y-100038351D01*
X127004811Y-100175315D01*
X127282850Y-100259657D01*
X127499548Y-100281000D01*
X127644452Y-100281000D01*
X127861150Y-100259657D01*
X128139189Y-100175315D01*
X128395431Y-100038351D01*
X128572000Y-99893444D01*
X128748569Y-100038351D01*
X129004811Y-100175315D01*
X129282850Y-100259657D01*
X129499548Y-100281000D01*
X129644452Y-100281000D01*
X129861150Y-100259657D01*
X130139189Y-100175315D01*
X130395431Y-100038351D01*
X130572000Y-99893444D01*
X130748569Y-100038351D01*
X131004811Y-100175315D01*
X131282850Y-100259657D01*
X131499548Y-100281000D01*
X131644452Y-100281000D01*
X131861150Y-100259657D01*
X132139189Y-100175315D01*
X132395431Y-100038351D01*
X132572000Y-99893444D01*
X132748569Y-100038351D01*
X133004811Y-100175315D01*
X133282850Y-100259657D01*
X133499548Y-100281000D01*
X133644452Y-100281000D01*
X133861150Y-100259657D01*
X134139189Y-100175315D01*
X134395431Y-100038351D01*
X134572000Y-99893444D01*
X134748569Y-100038351D01*
X135004811Y-100175315D01*
X135282850Y-100259657D01*
X135499548Y-100281000D01*
X135644452Y-100281000D01*
X135861150Y-100259657D01*
X136139189Y-100175315D01*
X136395431Y-100038351D01*
X136572000Y-99893444D01*
X136748569Y-100038351D01*
X137004811Y-100175315D01*
X137282850Y-100259657D01*
X137499548Y-100281000D01*
X137644452Y-100281000D01*
X137861150Y-100259657D01*
X138139189Y-100175315D01*
X138395431Y-100038351D01*
X138572000Y-99893444D01*
X138748569Y-100038351D01*
X139004811Y-100175315D01*
X139282850Y-100259657D01*
X139499548Y-100281000D01*
X139644452Y-100281000D01*
X139861150Y-100259657D01*
X140139189Y-100175315D01*
X140395431Y-100038351D01*
X140620028Y-99854028D01*
X140804351Y-99629431D01*
X140941315Y-99373189D01*
X141025657Y-99095150D01*
X141054136Y-98806000D01*
X141025657Y-98516850D01*
X140941315Y-98238811D01*
X140804351Y-97982569D01*
X140620028Y-97757972D01*
X140395431Y-97573649D01*
X140139189Y-97436685D01*
X139861150Y-97352343D01*
X139644452Y-97331000D01*
X139499548Y-97331000D01*
X139282850Y-97352343D01*
X139004811Y-97436685D01*
X138748569Y-97573649D01*
X138572000Y-97718556D01*
X138395431Y-97573649D01*
X138139189Y-97436685D01*
X137861150Y-97352343D01*
X137644452Y-97331000D01*
X137499548Y-97331000D01*
X137282850Y-97352343D01*
X137004811Y-97436685D01*
X136748569Y-97573649D01*
X136572000Y-97718556D01*
X136395431Y-97573649D01*
X136139189Y-97436685D01*
X135861150Y-97352343D01*
X135644452Y-97331000D01*
X135499548Y-97331000D01*
X135282850Y-97352343D01*
X135004811Y-97436685D01*
X134748569Y-97573649D01*
X134572000Y-97718556D01*
X134395431Y-97573649D01*
X134139189Y-97436685D01*
X133861150Y-97352343D01*
X133644452Y-97331000D01*
X133499548Y-97331000D01*
X133282850Y-97352343D01*
X133004811Y-97436685D01*
X132748569Y-97573649D01*
X132572000Y-97718556D01*
X132395431Y-97573649D01*
X132139189Y-97436685D01*
X131861150Y-97352343D01*
X131644452Y-97331000D01*
X131499548Y-97331000D01*
X131282850Y-97352343D01*
X131004811Y-97436685D01*
X130748569Y-97573649D01*
X130572000Y-97718556D01*
X130395431Y-97573649D01*
X130139189Y-97436685D01*
X129861150Y-97352343D01*
X129644452Y-97331000D01*
X129499548Y-97331000D01*
X129282850Y-97352343D01*
X129004811Y-97436685D01*
X128748569Y-97573649D01*
X128572000Y-97718556D01*
X128395431Y-97573649D01*
X128139189Y-97436685D01*
X127861150Y-97352343D01*
X127644452Y-97331000D01*
X127499548Y-97331000D01*
X127282850Y-97352343D01*
X127004811Y-97436685D01*
X126748569Y-97573649D01*
X126572000Y-97718556D01*
X126395431Y-97573649D01*
X126139189Y-97436685D01*
X125861150Y-97352343D01*
X125644452Y-97331000D01*
X125499548Y-97331000D01*
X125282850Y-97352343D01*
X125004811Y-97436685D01*
X124748569Y-97573649D01*
X124572000Y-97718556D01*
X124395431Y-97573649D01*
X124139189Y-97436685D01*
X123861150Y-97352343D01*
X123644452Y-97331000D01*
X123499548Y-97331000D01*
X123282850Y-97352343D01*
X123004811Y-97436685D01*
X122748569Y-97573649D01*
X122572000Y-97718556D01*
X122395431Y-97573649D01*
X122139189Y-97436685D01*
X121861150Y-97352343D01*
X121644452Y-97331000D01*
X121499548Y-97331000D01*
X121282850Y-97352343D01*
X121004811Y-97436685D01*
X120748569Y-97573649D01*
X120572000Y-97718556D01*
X120395431Y-97573649D01*
X120139189Y-97436685D01*
X119861150Y-97352343D01*
X119644452Y-97331000D01*
X119499548Y-97331000D01*
X119282850Y-97352343D01*
X119004811Y-97436685D01*
X118748569Y-97573649D01*
X118572000Y-97718556D01*
X118395431Y-97573649D01*
X118139189Y-97436685D01*
X117861150Y-97352343D01*
X117644452Y-97331000D01*
X117499548Y-97331000D01*
X117282850Y-97352343D01*
X117004811Y-97436685D01*
X116748569Y-97573649D01*
X116572000Y-97718556D01*
X116395431Y-97573649D01*
X116139189Y-97436685D01*
X115861150Y-97352343D01*
X115644452Y-97331000D01*
X115499548Y-97331000D01*
X115282850Y-97352343D01*
X115004811Y-97436685D01*
X114797223Y-97547643D01*
X114693606Y-97462607D01*
X114554628Y-97388321D01*
X114403827Y-97342576D01*
X114247000Y-97327130D01*
X112897000Y-97327130D01*
X112740173Y-97342576D01*
X112589372Y-97388321D01*
X112450394Y-97462607D01*
X112328578Y-97562578D01*
X112228607Y-97684394D01*
X112154321Y-97823372D01*
X112108576Y-97974173D01*
X112093130Y-98131000D01*
X109001322Y-98131000D01*
X108769852Y-97784582D01*
X108463418Y-97478148D01*
X108103091Y-97237385D01*
X107702716Y-97071545D01*
X107277681Y-96987000D01*
X106844319Y-96987000D01*
X106419284Y-97071545D01*
X106018909Y-97237385D01*
X105658582Y-97478148D01*
X105352148Y-97784582D01*
X105111385Y-98144909D01*
X104945545Y-98545284D01*
X104861000Y-98970319D01*
X104861000Y-99403681D01*
X104945545Y-99828716D01*
X105111385Y-100229091D01*
X105221574Y-100394000D01*
X103986000Y-100394000D01*
X103986000Y-93384000D01*
X111884130Y-93384000D01*
X111884130Y-95084000D01*
X111899576Y-95240827D01*
X111945321Y-95391628D01*
X112019607Y-95530606D01*
X112119578Y-95652422D01*
X112241394Y-95752393D01*
X112380372Y-95826679D01*
X112531173Y-95872424D01*
X112688000Y-95887870D01*
X114388000Y-95887870D01*
X114544827Y-95872424D01*
X114695628Y-95826679D01*
X114834606Y-95752393D01*
X114956422Y-95652422D01*
X115056393Y-95530606D01*
X115129445Y-95393936D01*
X131724500Y-95393936D01*
X131724500Y-95614064D01*
X131767445Y-95829963D01*
X131851684Y-96033335D01*
X131973981Y-96216365D01*
X132129635Y-96372019D01*
X132312665Y-96494316D01*
X132516037Y-96578555D01*
X132731936Y-96621500D01*
X132952064Y-96621500D01*
X133167963Y-96578555D01*
X133371335Y-96494316D01*
X133554365Y-96372019D01*
X133710019Y-96216365D01*
X133832316Y-96033335D01*
X133916555Y-95829963D01*
X133959500Y-95614064D01*
X133959500Y-95393936D01*
X133916555Y-95178037D01*
X133832316Y-94974665D01*
X133710019Y-94791635D01*
X133554365Y-94635981D01*
X133371335Y-94513684D01*
X133167963Y-94429445D01*
X132952064Y-94386500D01*
X132731936Y-94386500D01*
X132516037Y-94429445D01*
X132312665Y-94513684D01*
X132129635Y-94635981D01*
X131973981Y-94791635D01*
X131851684Y-94974665D01*
X131767445Y-95178037D01*
X131724500Y-95393936D01*
X115129445Y-95393936D01*
X115130679Y-95391628D01*
X115176424Y-95240827D01*
X115191870Y-95084000D01*
X115191870Y-94377936D01*
X142138500Y-94377936D01*
X142138500Y-94598064D01*
X142181445Y-94813963D01*
X142265684Y-95017335D01*
X142387981Y-95200365D01*
X142543635Y-95356019D01*
X142726665Y-95478316D01*
X142930037Y-95562555D01*
X143145936Y-95605500D01*
X143366064Y-95605500D01*
X143581963Y-95562555D01*
X143785335Y-95478316D01*
X143968365Y-95356019D01*
X144124019Y-95200365D01*
X144246316Y-95017335D01*
X144330555Y-94813963D01*
X144373500Y-94598064D01*
X144373500Y-94576000D01*
X153479058Y-94576000D01*
X153490797Y-94695189D01*
X153525563Y-94809797D01*
X153582020Y-94915421D01*
X153657999Y-95008001D01*
X153750579Y-95083980D01*
X153856203Y-95140437D01*
X153970811Y-95175203D01*
X154090000Y-95186942D01*
X154634000Y-95184000D01*
X154786000Y-95032000D01*
X154786000Y-93880000D01*
X155094000Y-93880000D01*
X155094000Y-95032000D01*
X155246000Y-95184000D01*
X155790000Y-95186942D01*
X155909189Y-95175203D01*
X156023797Y-95140437D01*
X156129421Y-95083980D01*
X156222001Y-95008001D01*
X156297980Y-94915421D01*
X156354437Y-94809797D01*
X156389203Y-94695189D01*
X156400942Y-94576000D01*
X156398000Y-94032000D01*
X156246000Y-93880000D01*
X155094000Y-93880000D01*
X154786000Y-93880000D01*
X153634000Y-93880000D01*
X153482000Y-94032000D01*
X153479058Y-94576000D01*
X144373500Y-94576000D01*
X144373500Y-94377936D01*
X144330555Y-94162037D01*
X144246316Y-93958665D01*
X144124019Y-93775635D01*
X143968365Y-93619981D01*
X143785335Y-93497684D01*
X143581963Y-93413445D01*
X143366064Y-93370500D01*
X143145936Y-93370500D01*
X142930037Y-93413445D01*
X142726665Y-93497684D01*
X142543635Y-93619981D01*
X142387981Y-93775635D01*
X142265684Y-93958665D01*
X142181445Y-94162037D01*
X142138500Y-94377936D01*
X115191870Y-94377936D01*
X115191870Y-93384000D01*
X115176424Y-93227173D01*
X115130679Y-93076372D01*
X115056393Y-92937394D01*
X114956422Y-92815578D01*
X114834606Y-92715607D01*
X114695628Y-92641321D01*
X114653528Y-92628550D01*
X114801473Y-92421611D01*
X114919146Y-92161139D01*
X114945903Y-92072910D01*
X114834889Y-91848000D01*
X113692000Y-91848000D01*
X113692000Y-91868000D01*
X113384000Y-91868000D01*
X113384000Y-91848000D01*
X112241111Y-91848000D01*
X112130097Y-92072910D01*
X112156854Y-92161139D01*
X112274527Y-92421611D01*
X112422472Y-92628550D01*
X112380372Y-92641321D01*
X112241394Y-92715607D01*
X112119578Y-92815578D01*
X112019607Y-92937394D01*
X111945321Y-93076372D01*
X111899576Y-93227173D01*
X111884130Y-93384000D01*
X103986000Y-93384000D01*
X103986000Y-91315090D01*
X112130097Y-91315090D01*
X112241111Y-91540000D01*
X113384000Y-91540000D01*
X113384000Y-90396150D01*
X113692000Y-90396150D01*
X113692000Y-91540000D01*
X114834889Y-91540000D01*
X114945903Y-91315090D01*
X114919146Y-91226861D01*
X114801473Y-90966389D01*
X114635246Y-90733878D01*
X114426852Y-90538264D01*
X114184300Y-90387065D01*
X113916911Y-90286091D01*
X113692000Y-90396150D01*
X113384000Y-90396150D01*
X113159089Y-90286091D01*
X112891700Y-90387065D01*
X112649148Y-90538264D01*
X112440754Y-90733878D01*
X112274527Y-90966389D01*
X112156854Y-91226861D01*
X112130097Y-91315090D01*
X103986000Y-91315090D01*
X103986000Y-89805936D01*
X137312500Y-89805936D01*
X137312500Y-90026064D01*
X137355445Y-90241963D01*
X137439684Y-90445335D01*
X137561981Y-90628365D01*
X137717635Y-90784019D01*
X137900665Y-90906316D01*
X138104037Y-90990555D01*
X138319936Y-91033500D01*
X138540064Y-91033500D01*
X138755963Y-90990555D01*
X138959335Y-90906316D01*
X139142365Y-90784019D01*
X139298019Y-90628365D01*
X139420316Y-90445335D01*
X139504555Y-90241963D01*
X139547500Y-90026064D01*
X139547500Y-89805936D01*
X139504555Y-89590037D01*
X139420316Y-89386665D01*
X139298019Y-89203635D01*
X139142365Y-89047981D01*
X138959335Y-88925684D01*
X138755963Y-88841445D01*
X138540064Y-88798500D01*
X138319936Y-88798500D01*
X138104037Y-88841445D01*
X137900665Y-88925684D01*
X137717635Y-89047981D01*
X137561981Y-89203635D01*
X137439684Y-89386665D01*
X137355445Y-89590037D01*
X137312500Y-89805936D01*
X103986000Y-89805936D01*
X103986000Y-87265936D01*
X141122500Y-87265936D01*
X141122500Y-87486064D01*
X141165445Y-87701963D01*
X141249684Y-87905335D01*
X141371981Y-88088365D01*
X141527635Y-88244019D01*
X141710665Y-88366316D01*
X141914037Y-88450555D01*
X142129936Y-88493500D01*
X142350064Y-88493500D01*
X142565963Y-88450555D01*
X142769335Y-88366316D01*
X142952365Y-88244019D01*
X143108019Y-88088365D01*
X143230316Y-87905335D01*
X143314555Y-87701963D01*
X143357500Y-87486064D01*
X143357500Y-87265936D01*
X143314555Y-87050037D01*
X143230316Y-86846665D01*
X143108019Y-86663635D01*
X142952365Y-86507981D01*
X142769335Y-86385684D01*
X142565963Y-86301445D01*
X142350064Y-86258500D01*
X142129936Y-86258500D01*
X141914037Y-86301445D01*
X141710665Y-86385684D01*
X141527635Y-86507981D01*
X141371981Y-86663635D01*
X141249684Y-86846665D01*
X141165445Y-87050037D01*
X141122500Y-87265936D01*
X103986000Y-87265936D01*
X103986000Y-84979936D01*
X128168500Y-84979936D01*
X128168500Y-85200064D01*
X128211445Y-85415963D01*
X128295684Y-85619335D01*
X128417981Y-85802365D01*
X128573635Y-85958019D01*
X128756665Y-86080316D01*
X128960037Y-86164555D01*
X129175936Y-86207500D01*
X129396064Y-86207500D01*
X129611963Y-86164555D01*
X129815335Y-86080316D01*
X129998365Y-85958019D01*
X130154019Y-85802365D01*
X130276316Y-85619335D01*
X130360555Y-85415963D01*
X130403500Y-85200064D01*
X130403500Y-84979936D01*
X130360555Y-84764037D01*
X130276316Y-84560665D01*
X130154019Y-84377635D01*
X129998365Y-84221981D01*
X129815335Y-84099684D01*
X129611963Y-84015445D01*
X129396064Y-83972500D01*
X129175936Y-83972500D01*
X128960037Y-84015445D01*
X128756665Y-84099684D01*
X128573635Y-84221981D01*
X128417981Y-84377635D01*
X128295684Y-84560665D01*
X128211445Y-84764037D01*
X128168500Y-84979936D01*
X103986000Y-84979936D01*
X103986000Y-83074936D01*
X145567500Y-83074936D01*
X145567500Y-83295064D01*
X145610445Y-83510963D01*
X145694684Y-83714335D01*
X145816981Y-83897365D01*
X145972635Y-84053019D01*
X146155665Y-84175316D01*
X146359037Y-84259555D01*
X146574936Y-84302500D01*
X146795064Y-84302500D01*
X147010963Y-84259555D01*
X147214335Y-84175316D01*
X147397365Y-84053019D01*
X147553019Y-83897365D01*
X147675316Y-83714335D01*
X147759555Y-83510963D01*
X147802500Y-83295064D01*
X147802500Y-83074936D01*
X147759555Y-82859037D01*
X147675316Y-82655665D01*
X147553019Y-82472635D01*
X147397365Y-82316981D01*
X147214335Y-82194684D01*
X147010963Y-82110445D01*
X146795064Y-82067500D01*
X146574936Y-82067500D01*
X146359037Y-82110445D01*
X146155665Y-82194684D01*
X145972635Y-82316981D01*
X145816981Y-82472635D01*
X145694684Y-82655665D01*
X145610445Y-82859037D01*
X145567500Y-83074936D01*
X103986000Y-83074936D01*
X103986000Y-78756936D01*
X133502500Y-78756936D01*
X133502500Y-78977064D01*
X133545445Y-79192963D01*
X133629684Y-79396335D01*
X133751981Y-79579365D01*
X133907635Y-79735019D01*
X134090665Y-79857316D01*
X134294037Y-79941555D01*
X134509936Y-79984500D01*
X134730064Y-79984500D01*
X134945963Y-79941555D01*
X135149335Y-79857316D01*
X135332365Y-79735019D01*
X135488019Y-79579365D01*
X135610316Y-79396335D01*
X135694555Y-79192963D01*
X135716453Y-79082873D01*
X135779936Y-79095500D01*
X136000064Y-79095500D01*
X136215963Y-79052555D01*
X136419335Y-78968316D01*
X136602365Y-78846019D01*
X136758019Y-78690365D01*
X136880316Y-78507335D01*
X136964555Y-78303963D01*
X137007500Y-78088064D01*
X137007500Y-77867936D01*
X136964555Y-77652037D01*
X136880316Y-77448665D01*
X136758019Y-77265635D01*
X136602365Y-77109981D01*
X136419335Y-76987684D01*
X136215963Y-76903445D01*
X136000064Y-76860500D01*
X135779936Y-76860500D01*
X135564037Y-76903445D01*
X135360665Y-76987684D01*
X135177635Y-77109981D01*
X135021981Y-77265635D01*
X134899684Y-77448665D01*
X134815445Y-77652037D01*
X134793547Y-77762127D01*
X134730064Y-77749500D01*
X134509936Y-77749500D01*
X134294037Y-77792445D01*
X134090665Y-77876684D01*
X133907635Y-77998981D01*
X133751981Y-78154635D01*
X133629684Y-78337665D01*
X133545445Y-78541037D01*
X133502500Y-78756936D01*
X103986000Y-78756936D01*
X103986000Y-71263936D01*
X130454500Y-71263936D01*
X130454500Y-71484064D01*
X130497445Y-71699963D01*
X130581684Y-71903335D01*
X130703981Y-72086365D01*
X130859635Y-72242019D01*
X131042665Y-72364316D01*
X131246037Y-72448555D01*
X131461936Y-72491500D01*
X131682064Y-72491500D01*
X131897963Y-72448555D01*
X132101335Y-72364316D01*
X132284365Y-72242019D01*
X132440019Y-72086365D01*
X132562316Y-71903335D01*
X132646555Y-71699963D01*
X132689500Y-71484064D01*
X132689500Y-71263936D01*
X132646555Y-71048037D01*
X132562316Y-70844665D01*
X132440019Y-70661635D01*
X132284365Y-70505981D01*
X132101335Y-70383684D01*
X131897963Y-70299445D01*
X131682064Y-70256500D01*
X131461936Y-70256500D01*
X131246037Y-70299445D01*
X131042665Y-70383684D01*
X130859635Y-70505981D01*
X130703981Y-70661635D01*
X130581684Y-70844665D01*
X130497445Y-71048037D01*
X130454500Y-71263936D01*
X103986000Y-71263936D01*
X103986000Y-68469936D01*
X114960500Y-68469936D01*
X114960500Y-68690064D01*
X115003445Y-68905963D01*
X115087684Y-69109335D01*
X115209981Y-69292365D01*
X115365635Y-69448019D01*
X115548665Y-69570316D01*
X115752037Y-69654555D01*
X115967936Y-69697500D01*
X116188064Y-69697500D01*
X116403963Y-69654555D01*
X116607335Y-69570316D01*
X116790365Y-69448019D01*
X116946019Y-69292365D01*
X117068316Y-69109335D01*
X117152555Y-68905963D01*
X117195500Y-68690064D01*
X117195500Y-68469936D01*
X117152555Y-68254037D01*
X117068316Y-68050665D01*
X116946019Y-67867635D01*
X116790365Y-67711981D01*
X116607335Y-67589684D01*
X116403963Y-67505445D01*
X116188064Y-67462500D01*
X115967936Y-67462500D01*
X115752037Y-67505445D01*
X115548665Y-67589684D01*
X115365635Y-67711981D01*
X115209981Y-67867635D01*
X115087684Y-68050665D01*
X115003445Y-68254037D01*
X114960500Y-68469936D01*
X103986000Y-68469936D01*
X103986000Y-66564936D01*
X105181500Y-66564936D01*
X105181500Y-66785064D01*
X105224445Y-67000963D01*
X105308684Y-67204335D01*
X105430981Y-67387365D01*
X105586635Y-67543019D01*
X105769665Y-67665316D01*
X105973037Y-67749555D01*
X106188936Y-67792500D01*
X106409064Y-67792500D01*
X106624963Y-67749555D01*
X106828335Y-67665316D01*
X107011365Y-67543019D01*
X107100448Y-67453936D01*
X122326500Y-67453936D01*
X122326500Y-67674064D01*
X122369445Y-67889963D01*
X122453684Y-68093335D01*
X122575981Y-68276365D01*
X122731635Y-68432019D01*
X122914665Y-68554316D01*
X123118037Y-68638555D01*
X123333936Y-68681500D01*
X123342500Y-68681500D01*
X123342500Y-68690064D01*
X123385445Y-68905963D01*
X123469684Y-69109335D01*
X123591981Y-69292365D01*
X123747635Y-69448019D01*
X123930665Y-69570316D01*
X124134037Y-69654555D01*
X124349936Y-69697500D01*
X124413680Y-69697500D01*
X124485684Y-69871335D01*
X124607981Y-70054365D01*
X124763635Y-70210019D01*
X124946665Y-70332316D01*
X125150037Y-70416555D01*
X125365936Y-70459500D01*
X125586064Y-70459500D01*
X125801963Y-70416555D01*
X126005335Y-70332316D01*
X126188365Y-70210019D01*
X126344019Y-70054365D01*
X126466316Y-69871335D01*
X126550555Y-69667963D01*
X126593500Y-69452064D01*
X126593500Y-69231936D01*
X126550555Y-69016037D01*
X126466316Y-68812665D01*
X126344019Y-68629635D01*
X126188365Y-68473981D01*
X126005335Y-68351684D01*
X125801963Y-68267445D01*
X125586064Y-68224500D01*
X125522320Y-68224500D01*
X125450316Y-68050665D01*
X125328019Y-67867635D01*
X125172365Y-67711981D01*
X124989335Y-67589684D01*
X124785963Y-67505445D01*
X124570064Y-67462500D01*
X124561500Y-67462500D01*
X124561500Y-67453936D01*
X124518555Y-67238037D01*
X124434316Y-67034665D01*
X124312019Y-66851635D01*
X124156365Y-66695981D01*
X123973335Y-66573684D01*
X123769963Y-66489445D01*
X123554064Y-66446500D01*
X123333936Y-66446500D01*
X123118037Y-66489445D01*
X122914665Y-66573684D01*
X122731635Y-66695981D01*
X122575981Y-66851635D01*
X122453684Y-67034665D01*
X122369445Y-67238037D01*
X122326500Y-67453936D01*
X107100448Y-67453936D01*
X107167019Y-67387365D01*
X107289316Y-67204335D01*
X107373555Y-67000963D01*
X107416500Y-66785064D01*
X107416500Y-66564936D01*
X107373555Y-66349037D01*
X107289316Y-66145665D01*
X107167019Y-65962635D01*
X107011365Y-65806981D01*
X106828335Y-65684684D01*
X106624963Y-65600445D01*
X106409064Y-65557500D01*
X106188936Y-65557500D01*
X105973037Y-65600445D01*
X105769665Y-65684684D01*
X105586635Y-65806981D01*
X105430981Y-65962635D01*
X105308684Y-66145665D01*
X105224445Y-66349037D01*
X105181500Y-66564936D01*
X103986000Y-66564936D01*
X103986000Y-64936000D01*
X145793130Y-64936000D01*
X145793130Y-66636000D01*
X145808576Y-66792827D01*
X145854321Y-66943628D01*
X145928607Y-67082606D01*
X146028578Y-67204422D01*
X146150394Y-67304393D01*
X146289372Y-67378679D01*
X146440173Y-67424424D01*
X146597000Y-67439870D01*
X148297000Y-67439870D01*
X148453827Y-67424424D01*
X148604628Y-67378679D01*
X148743606Y-67304393D01*
X148865422Y-67204422D01*
X148965393Y-67082606D01*
X149039679Y-66943628D01*
X149052450Y-66901528D01*
X149259389Y-67049473D01*
X149519861Y-67167146D01*
X149608090Y-67193903D01*
X149833000Y-67082889D01*
X149833000Y-65940000D01*
X150141000Y-65940000D01*
X150141000Y-67082889D01*
X150365910Y-67193903D01*
X150454139Y-67167146D01*
X150714611Y-67049473D01*
X150947122Y-66883246D01*
X151142736Y-66674852D01*
X151293935Y-66432300D01*
X151394909Y-66164911D01*
X151284850Y-65940000D01*
X150141000Y-65940000D01*
X149833000Y-65940000D01*
X149813000Y-65940000D01*
X149813000Y-65632000D01*
X149833000Y-65632000D01*
X149833000Y-64489111D01*
X150141000Y-64489111D01*
X150141000Y-65632000D01*
X151284850Y-65632000D01*
X151394909Y-65407089D01*
X151293935Y-65139700D01*
X151142736Y-64897148D01*
X150947122Y-64688754D01*
X150714611Y-64522527D01*
X150454139Y-64404854D01*
X150365910Y-64378097D01*
X150141000Y-64489111D01*
X149833000Y-64489111D01*
X149608090Y-64378097D01*
X149519861Y-64404854D01*
X149259389Y-64522527D01*
X149052450Y-64670472D01*
X149039679Y-64628372D01*
X148965393Y-64489394D01*
X148865422Y-64367578D01*
X148743606Y-64267607D01*
X148604628Y-64193321D01*
X148453827Y-64147576D01*
X148297000Y-64132130D01*
X146597000Y-64132130D01*
X146440173Y-64147576D01*
X146289372Y-64193321D01*
X146150394Y-64267607D01*
X146028578Y-64367578D01*
X145928607Y-64489394D01*
X145854321Y-64628372D01*
X145808576Y-64779173D01*
X145793130Y-64936000D01*
X103986000Y-64936000D01*
X103986000Y-63389936D01*
X122326500Y-63389936D01*
X122326500Y-63610064D01*
X122369445Y-63825963D01*
X122453684Y-64029335D01*
X122575981Y-64212365D01*
X122731635Y-64368019D01*
X122914665Y-64490316D01*
X123118037Y-64574555D01*
X123333936Y-64617500D01*
X123554064Y-64617500D01*
X123769963Y-64574555D01*
X123973335Y-64490316D01*
X124156365Y-64368019D01*
X124312019Y-64212365D01*
X124434316Y-64029335D01*
X124518555Y-63825963D01*
X124561500Y-63610064D01*
X124561500Y-63389936D01*
X124518555Y-63174037D01*
X124434316Y-62970665D01*
X124312019Y-62787635D01*
X124156365Y-62631981D01*
X123973335Y-62509684D01*
X123769963Y-62425445D01*
X123554064Y-62382500D01*
X123333936Y-62382500D01*
X123118037Y-62425445D01*
X122914665Y-62509684D01*
X122731635Y-62631981D01*
X122575981Y-62787635D01*
X122453684Y-62970665D01*
X122369445Y-63174037D01*
X122326500Y-63389936D01*
X103986000Y-63389936D01*
X103986000Y-62119936D01*
X119405500Y-62119936D01*
X119405500Y-62340064D01*
X119448445Y-62555963D01*
X119532684Y-62759335D01*
X119654981Y-62942365D01*
X119810635Y-63098019D01*
X119993665Y-63220316D01*
X120197037Y-63304555D01*
X120412936Y-63347500D01*
X120633064Y-63347500D01*
X120848963Y-63304555D01*
X121052335Y-63220316D01*
X121235365Y-63098019D01*
X121391019Y-62942365D01*
X121513316Y-62759335D01*
X121597555Y-62555963D01*
X121640500Y-62340064D01*
X121640500Y-62119936D01*
X121614257Y-61988000D01*
X142083130Y-61988000D01*
X142083130Y-63488000D01*
X142098576Y-63644827D01*
X142144321Y-63795628D01*
X142218607Y-63934606D01*
X142318578Y-64056422D01*
X142440394Y-64156393D01*
X142579372Y-64230679D01*
X142730173Y-64276424D01*
X142887000Y-64291870D01*
X144387000Y-64291870D01*
X144543827Y-64276424D01*
X144694628Y-64230679D01*
X144833606Y-64156393D01*
X144955422Y-64056422D01*
X145055393Y-63934606D01*
X145129679Y-63795628D01*
X145175424Y-63644827D01*
X145190870Y-63488000D01*
X145190870Y-63246000D01*
X153282017Y-63246000D01*
X153313875Y-63569456D01*
X153408223Y-63880483D01*
X153561438Y-64167126D01*
X153767629Y-64418371D01*
X153886591Y-64516000D01*
X153767629Y-64613629D01*
X153561438Y-64864874D01*
X153408223Y-65151517D01*
X153313875Y-65462544D01*
X153282017Y-65786000D01*
X153313875Y-66109456D01*
X153408223Y-66420483D01*
X153561438Y-66707126D01*
X153767629Y-66958371D01*
X153886591Y-67056000D01*
X153767629Y-67153629D01*
X153561438Y-67404874D01*
X153408223Y-67691517D01*
X153313875Y-68002544D01*
X153282017Y-68326000D01*
X153313875Y-68649456D01*
X153408223Y-68960483D01*
X153561438Y-69247126D01*
X153767629Y-69498371D01*
X153886591Y-69596000D01*
X153767629Y-69693629D01*
X153561438Y-69944874D01*
X153408223Y-70231517D01*
X153313875Y-70542544D01*
X153282017Y-70866000D01*
X153313875Y-71189456D01*
X153408223Y-71500483D01*
X153561438Y-71787126D01*
X153767629Y-72038371D01*
X153886591Y-72136000D01*
X153767629Y-72233629D01*
X153561438Y-72484874D01*
X153408223Y-72771517D01*
X153313875Y-73082544D01*
X153282017Y-73406000D01*
X153313875Y-73729456D01*
X153408223Y-74040483D01*
X153561438Y-74327126D01*
X153767629Y-74578371D01*
X153886591Y-74676000D01*
X153767629Y-74773629D01*
X153561438Y-75024874D01*
X153408223Y-75311517D01*
X153313875Y-75622544D01*
X153282017Y-75946000D01*
X153313875Y-76269456D01*
X153408223Y-76580483D01*
X153561438Y-76867126D01*
X153767629Y-77118371D01*
X153886591Y-77216000D01*
X153767629Y-77313629D01*
X153561438Y-77564874D01*
X153408223Y-77851517D01*
X153313875Y-78162544D01*
X153282017Y-78486000D01*
X153313875Y-78809456D01*
X153408223Y-79120483D01*
X153561438Y-79407126D01*
X153767629Y-79658371D01*
X153886591Y-79756000D01*
X153767629Y-79853629D01*
X153561438Y-80104874D01*
X153408223Y-80391517D01*
X153313875Y-80702544D01*
X153282017Y-81026000D01*
X153313875Y-81349456D01*
X153408223Y-81660483D01*
X153561438Y-81947126D01*
X153767629Y-82198371D01*
X153886591Y-82296000D01*
X153767629Y-82393629D01*
X153561438Y-82644874D01*
X153408223Y-82931517D01*
X153313875Y-83242544D01*
X153282017Y-83566000D01*
X153313875Y-83889456D01*
X153408223Y-84200483D01*
X153561438Y-84487126D01*
X153767629Y-84738371D01*
X153886591Y-84836000D01*
X153767629Y-84933629D01*
X153561438Y-85184874D01*
X153408223Y-85471517D01*
X153313875Y-85782544D01*
X153282017Y-86106000D01*
X153313875Y-86429456D01*
X153408223Y-86740483D01*
X153561438Y-87027126D01*
X153767629Y-87278371D01*
X153886591Y-87376000D01*
X153767629Y-87473629D01*
X153561438Y-87724874D01*
X153408223Y-88011517D01*
X153313875Y-88322544D01*
X153282017Y-88646000D01*
X153313875Y-88969456D01*
X153408223Y-89280483D01*
X153561438Y-89567126D01*
X153767629Y-89818371D01*
X153886591Y-89916000D01*
X153767629Y-90013629D01*
X153561438Y-90264874D01*
X153408223Y-90551517D01*
X153313875Y-90862544D01*
X153282017Y-91186000D01*
X153313875Y-91509456D01*
X153408223Y-91820483D01*
X153561438Y-92107126D01*
X153767629Y-92358371D01*
X153768024Y-92358695D01*
X153750579Y-92368020D01*
X153657999Y-92443999D01*
X153582020Y-92536579D01*
X153525563Y-92642203D01*
X153490797Y-92756811D01*
X153479058Y-92876000D01*
X153482000Y-93420000D01*
X153634000Y-93572000D01*
X154786000Y-93572000D01*
X154786000Y-93552000D01*
X155094000Y-93552000D01*
X155094000Y-93572000D01*
X156246000Y-93572000D01*
X156398000Y-93420000D01*
X156400942Y-92876000D01*
X156389203Y-92756811D01*
X156354437Y-92642203D01*
X156297980Y-92536579D01*
X156222001Y-92443999D01*
X156129421Y-92368020D01*
X156111976Y-92358695D01*
X156112371Y-92358371D01*
X156318562Y-92107126D01*
X156471777Y-91820483D01*
X156566125Y-91509456D01*
X156597983Y-91186000D01*
X156566125Y-90862544D01*
X156471777Y-90551517D01*
X156318562Y-90264874D01*
X156112371Y-90013629D01*
X155993409Y-89916000D01*
X156112371Y-89818371D01*
X156318562Y-89567126D01*
X156471777Y-89280483D01*
X156566125Y-88969456D01*
X156597983Y-88646000D01*
X156566125Y-88322544D01*
X156471777Y-88011517D01*
X156318562Y-87724874D01*
X156112371Y-87473629D01*
X155993409Y-87376000D01*
X156112371Y-87278371D01*
X156318562Y-87027126D01*
X156471777Y-86740483D01*
X156566125Y-86429456D01*
X156597983Y-86106000D01*
X156566125Y-85782544D01*
X156471777Y-85471517D01*
X156318562Y-85184874D01*
X156112371Y-84933629D01*
X155993409Y-84836000D01*
X156112371Y-84738371D01*
X156318562Y-84487126D01*
X156471777Y-84200483D01*
X156566125Y-83889456D01*
X156597983Y-83566000D01*
X156566125Y-83242544D01*
X156471777Y-82931517D01*
X156318562Y-82644874D01*
X156112371Y-82393629D01*
X155993409Y-82296000D01*
X156112371Y-82198371D01*
X156318562Y-81947126D01*
X156471777Y-81660483D01*
X156566125Y-81349456D01*
X156597983Y-81026000D01*
X156566125Y-80702544D01*
X156471777Y-80391517D01*
X156318562Y-80104874D01*
X156112371Y-79853629D01*
X155993409Y-79756000D01*
X156112371Y-79658371D01*
X156318562Y-79407126D01*
X156471777Y-79120483D01*
X156566125Y-78809456D01*
X156597983Y-78486000D01*
X156566125Y-78162544D01*
X156471777Y-77851517D01*
X156318562Y-77564874D01*
X156112371Y-77313629D01*
X155993409Y-77216000D01*
X156112371Y-77118371D01*
X156318562Y-76867126D01*
X156471777Y-76580483D01*
X156566125Y-76269456D01*
X156597983Y-75946000D01*
X156566125Y-75622544D01*
X156471777Y-75311517D01*
X156318562Y-75024874D01*
X156112371Y-74773629D01*
X155993409Y-74676000D01*
X156112371Y-74578371D01*
X156318562Y-74327126D01*
X156471777Y-74040483D01*
X156566125Y-73729456D01*
X156597983Y-73406000D01*
X156566125Y-73082544D01*
X156471777Y-72771517D01*
X156318562Y-72484874D01*
X156112371Y-72233629D01*
X155993409Y-72136000D01*
X156112371Y-72038371D01*
X156318562Y-71787126D01*
X156471777Y-71500483D01*
X156566125Y-71189456D01*
X156597983Y-70866000D01*
X156566125Y-70542544D01*
X156471777Y-70231517D01*
X156318562Y-69944874D01*
X156112371Y-69693629D01*
X155993409Y-69596000D01*
X156112371Y-69498371D01*
X156318562Y-69247126D01*
X156471777Y-68960483D01*
X156566125Y-68649456D01*
X156597983Y-68326000D01*
X156566125Y-68002544D01*
X156471777Y-67691517D01*
X156318562Y-67404874D01*
X156112371Y-67153629D01*
X155993409Y-67056000D01*
X156112371Y-66958371D01*
X156318562Y-66707126D01*
X156471777Y-66420483D01*
X156566125Y-66109456D01*
X156597983Y-65786000D01*
X156566125Y-65462544D01*
X156471777Y-65151517D01*
X156318562Y-64864874D01*
X156112371Y-64613629D01*
X155993409Y-64516000D01*
X156112371Y-64418371D01*
X156318562Y-64167126D01*
X156471777Y-63880483D01*
X156566125Y-63569456D01*
X156597983Y-63246000D01*
X156566125Y-62922544D01*
X156471777Y-62611517D01*
X156318562Y-62324874D01*
X156112371Y-62073629D01*
X155861126Y-61867438D01*
X155574483Y-61714223D01*
X155263456Y-61619875D01*
X155021052Y-61596000D01*
X154858948Y-61596000D01*
X154616544Y-61619875D01*
X154305517Y-61714223D01*
X154018874Y-61867438D01*
X153767629Y-62073629D01*
X153561438Y-62324874D01*
X153408223Y-62611517D01*
X153313875Y-62922544D01*
X153282017Y-63246000D01*
X145190870Y-63246000D01*
X145190870Y-61988000D01*
X145175424Y-61831173D01*
X145129679Y-61680372D01*
X145055393Y-61541394D01*
X144955422Y-61419578D01*
X144833606Y-61319607D01*
X144694628Y-61245321D01*
X144543827Y-61199576D01*
X144387000Y-61184130D01*
X142887000Y-61184130D01*
X142730173Y-61199576D01*
X142579372Y-61245321D01*
X142440394Y-61319607D01*
X142318578Y-61419578D01*
X142218607Y-61541394D01*
X142144321Y-61680372D01*
X142098576Y-61831173D01*
X142083130Y-61988000D01*
X121614257Y-61988000D01*
X121597555Y-61904037D01*
X121513316Y-61700665D01*
X121391019Y-61517635D01*
X121235365Y-61361981D01*
X121052335Y-61239684D01*
X120848963Y-61155445D01*
X120633064Y-61112500D01*
X120412936Y-61112500D01*
X120197037Y-61155445D01*
X119993665Y-61239684D01*
X119810635Y-61361981D01*
X119654981Y-61517635D01*
X119532684Y-61700665D01*
X119448445Y-61904037D01*
X119405500Y-62119936D01*
X103986000Y-62119936D01*
X103986000Y-59522149D01*
X104113909Y-59607615D01*
X104514284Y-59773455D01*
X104939319Y-59858000D01*
X105372681Y-59858000D01*
X105797716Y-59773455D01*
X106198091Y-59607615D01*
X106558418Y-59366852D01*
X106864852Y-59060418D01*
X107105615Y-58700091D01*
X107271455Y-58299716D01*
X107356000Y-57874681D01*
X107356000Y-57491000D01*
X112093130Y-57491000D01*
X112093130Y-58841000D01*
X112108576Y-58997827D01*
X112154321Y-59148628D01*
X112228607Y-59287606D01*
X112328578Y-59409422D01*
X112450394Y-59509393D01*
X112589372Y-59583679D01*
X112740173Y-59629424D01*
X112897000Y-59644870D01*
X114247000Y-59644870D01*
X114403827Y-59629424D01*
X114554628Y-59583679D01*
X114693606Y-59509393D01*
X114797223Y-59424357D01*
X115004811Y-59535315D01*
X115282850Y-59619657D01*
X115499548Y-59641000D01*
X115644452Y-59641000D01*
X115861150Y-59619657D01*
X116139189Y-59535315D01*
X116395431Y-59398351D01*
X116572000Y-59253444D01*
X116748569Y-59398351D01*
X117004811Y-59535315D01*
X117282850Y-59619657D01*
X117499548Y-59641000D01*
X117644452Y-59641000D01*
X117861150Y-59619657D01*
X118139189Y-59535315D01*
X118395431Y-59398351D01*
X118572000Y-59253444D01*
X118748569Y-59398351D01*
X119004811Y-59535315D01*
X119282850Y-59619657D01*
X119499548Y-59641000D01*
X119644452Y-59641000D01*
X119861150Y-59619657D01*
X120139189Y-59535315D01*
X120395431Y-59398351D01*
X120572000Y-59253444D01*
X120748569Y-59398351D01*
X121004811Y-59535315D01*
X121282850Y-59619657D01*
X121499548Y-59641000D01*
X121644452Y-59641000D01*
X121861150Y-59619657D01*
X122139189Y-59535315D01*
X122395431Y-59398351D01*
X122572000Y-59253444D01*
X122748569Y-59398351D01*
X123004811Y-59535315D01*
X123282850Y-59619657D01*
X123499548Y-59641000D01*
X123644452Y-59641000D01*
X123861150Y-59619657D01*
X124139189Y-59535315D01*
X124395431Y-59398351D01*
X124572000Y-59253444D01*
X124748569Y-59398351D01*
X125004811Y-59535315D01*
X125282850Y-59619657D01*
X125499548Y-59641000D01*
X125644452Y-59641000D01*
X125861150Y-59619657D01*
X126139189Y-59535315D01*
X126395431Y-59398351D01*
X126572000Y-59253444D01*
X126748569Y-59398351D01*
X127004811Y-59535315D01*
X127282850Y-59619657D01*
X127499548Y-59641000D01*
X127644452Y-59641000D01*
X127861150Y-59619657D01*
X128139189Y-59535315D01*
X128395431Y-59398351D01*
X128572000Y-59253444D01*
X128748569Y-59398351D01*
X129004811Y-59535315D01*
X129282850Y-59619657D01*
X129499548Y-59641000D01*
X129644452Y-59641000D01*
X129861150Y-59619657D01*
X130139189Y-59535315D01*
X130395431Y-59398351D01*
X130572000Y-59253444D01*
X130748569Y-59398351D01*
X131004811Y-59535315D01*
X131282850Y-59619657D01*
X131499548Y-59641000D01*
X131644452Y-59641000D01*
X131861150Y-59619657D01*
X132139189Y-59535315D01*
X132395431Y-59398351D01*
X132572000Y-59253444D01*
X132748569Y-59398351D01*
X133004811Y-59535315D01*
X133282850Y-59619657D01*
X133499548Y-59641000D01*
X133644452Y-59641000D01*
X133861150Y-59619657D01*
X134139189Y-59535315D01*
X134395431Y-59398351D01*
X134572000Y-59253444D01*
X134748569Y-59398351D01*
X135004811Y-59535315D01*
X135282850Y-59619657D01*
X135499548Y-59641000D01*
X135644452Y-59641000D01*
X135861150Y-59619657D01*
X136139189Y-59535315D01*
X136395431Y-59398351D01*
X136572000Y-59253444D01*
X136748569Y-59398351D01*
X137004811Y-59535315D01*
X137282850Y-59619657D01*
X137499548Y-59641000D01*
X137644452Y-59641000D01*
X137861150Y-59619657D01*
X138139189Y-59535315D01*
X138395431Y-59398351D01*
X138620028Y-59214028D01*
X138706892Y-59108185D01*
X138741206Y-59143695D01*
X138947908Y-59286989D01*
X139178594Y-59387204D01*
X139220642Y-59399951D01*
X139418000Y-59286466D01*
X139418000Y-58320000D01*
X139726000Y-58320000D01*
X139726000Y-59286466D01*
X139923358Y-59399951D01*
X139965406Y-59387204D01*
X140196092Y-59286989D01*
X140402794Y-59143695D01*
X140577569Y-58962829D01*
X140713701Y-58751341D01*
X140805958Y-58517359D01*
X140693731Y-58320000D01*
X139726000Y-58320000D01*
X139418000Y-58320000D01*
X139398000Y-58320000D01*
X139398000Y-58012000D01*
X139418000Y-58012000D01*
X139418000Y-57045534D01*
X139726000Y-57045534D01*
X139726000Y-58012000D01*
X140693731Y-58012000D01*
X140805958Y-57814641D01*
X140713701Y-57580659D01*
X140577569Y-57369171D01*
X140402794Y-57188305D01*
X140196092Y-57045011D01*
X139965406Y-56944796D01*
X139923358Y-56932049D01*
X139726000Y-57045534D01*
X139418000Y-57045534D01*
X139220642Y-56932049D01*
X139178594Y-56944796D01*
X138947908Y-57045011D01*
X138741206Y-57188305D01*
X138706892Y-57223815D01*
X138620028Y-57117972D01*
X138395431Y-56933649D01*
X138139189Y-56796685D01*
X137861150Y-56712343D01*
X137644452Y-56691000D01*
X137499548Y-56691000D01*
X137282850Y-56712343D01*
X137004811Y-56796685D01*
X136748569Y-56933649D01*
X136572000Y-57078556D01*
X136395431Y-56933649D01*
X136139189Y-56796685D01*
X135861150Y-56712343D01*
X135644452Y-56691000D01*
X135499548Y-56691000D01*
X135282850Y-56712343D01*
X135004811Y-56796685D01*
X134748569Y-56933649D01*
X134572000Y-57078556D01*
X134395431Y-56933649D01*
X134139189Y-56796685D01*
X133861150Y-56712343D01*
X133644452Y-56691000D01*
X133499548Y-56691000D01*
X133282850Y-56712343D01*
X133004811Y-56796685D01*
X132748569Y-56933649D01*
X132572000Y-57078556D01*
X132395431Y-56933649D01*
X132139189Y-56796685D01*
X131861150Y-56712343D01*
X131644452Y-56691000D01*
X131499548Y-56691000D01*
X131282850Y-56712343D01*
X131004811Y-56796685D01*
X130748569Y-56933649D01*
X130572000Y-57078556D01*
X130395431Y-56933649D01*
X130139189Y-56796685D01*
X129861150Y-56712343D01*
X129644452Y-56691000D01*
X129499548Y-56691000D01*
X129282850Y-56712343D01*
X129004811Y-56796685D01*
X128748569Y-56933649D01*
X128572000Y-57078556D01*
X128395431Y-56933649D01*
X128139189Y-56796685D01*
X127861150Y-56712343D01*
X127644452Y-56691000D01*
X127499548Y-56691000D01*
X127282850Y-56712343D01*
X127004811Y-56796685D01*
X126748569Y-56933649D01*
X126572000Y-57078556D01*
X126395431Y-56933649D01*
X126139189Y-56796685D01*
X125861150Y-56712343D01*
X125644452Y-56691000D01*
X125499548Y-56691000D01*
X125282850Y-56712343D01*
X125004811Y-56796685D01*
X124748569Y-56933649D01*
X124572000Y-57078556D01*
X124395431Y-56933649D01*
X124139189Y-56796685D01*
X123861150Y-56712343D01*
X123644452Y-56691000D01*
X123499548Y-56691000D01*
X123282850Y-56712343D01*
X123004811Y-56796685D01*
X122748569Y-56933649D01*
X122572000Y-57078556D01*
X122395431Y-56933649D01*
X122139189Y-56796685D01*
X121861150Y-56712343D01*
X121644452Y-56691000D01*
X121499548Y-56691000D01*
X121282850Y-56712343D01*
X121004811Y-56796685D01*
X120748569Y-56933649D01*
X120572000Y-57078556D01*
X120395431Y-56933649D01*
X120139189Y-56796685D01*
X119861150Y-56712343D01*
X119644452Y-56691000D01*
X119499548Y-56691000D01*
X119282850Y-56712343D01*
X119004811Y-56796685D01*
X118748569Y-56933649D01*
X118572000Y-57078556D01*
X118395431Y-56933649D01*
X118139189Y-56796685D01*
X117861150Y-56712343D01*
X117644452Y-56691000D01*
X117499548Y-56691000D01*
X117282850Y-56712343D01*
X117004811Y-56796685D01*
X116748569Y-56933649D01*
X116572000Y-57078556D01*
X116395431Y-56933649D01*
X116139189Y-56796685D01*
X115861150Y-56712343D01*
X115644452Y-56691000D01*
X115499548Y-56691000D01*
X115282850Y-56712343D01*
X115004811Y-56796685D01*
X114797223Y-56907643D01*
X114693606Y-56822607D01*
X114554628Y-56748321D01*
X114403827Y-56702576D01*
X114247000Y-56687130D01*
X112897000Y-56687130D01*
X112740173Y-56702576D01*
X112589372Y-56748321D01*
X112450394Y-56822607D01*
X112328578Y-56922578D01*
X112228607Y-57044394D01*
X112154321Y-57183372D01*
X112108576Y-57334173D01*
X112093130Y-57491000D01*
X107356000Y-57491000D01*
X107356000Y-57441319D01*
X107271455Y-57016284D01*
X107105615Y-56615909D01*
X107080285Y-56578000D01*
X157206715Y-56578000D01*
X157181385Y-56615909D01*
M02*
