G04 #@! TF.GenerationSoftware,KiCad,Pcbnew,(5.1.0-0)*
G04 #@! TF.CreationDate,2019-04-23T18:51:06+03:00*
G04 #@! TF.ProjectId,ovms-swcan,6f766d73-2d73-4776-9361-6e2e6b696361,1.0*
G04 #@! TF.SameCoordinates,Original*
G04 #@! TF.FileFunction,Copper,L4,Bot*
G04 #@! TF.FilePolarity,Positive*
%FSLAX46Y46*%
G04 Gerber Fmt 4.6, Leading zero omitted, Abs format (unit mm)*
G04 Created by KiCad (PCBNEW (5.1.0-0)) date 2019-04-23 18:51:06*
%MOMM*%
%LPD*%
G04 APERTURE LIST*
%ADD10R,1.000000X1.500000*%
%ADD11R,1.500000X1.500000*%
%ADD12O,1.700000X1.700000*%
%ADD13R,1.700000X1.700000*%
%ADD14O,1.350000X1.350000*%
%ADD15R,1.350000X1.350000*%
%ADD16C,2.800000*%
%ADD17C,0.635000*%
%ADD18C,0.500000*%
%ADD19C,0.203200*%
%ADD20C,0.250000*%
G04 APERTURE END LIST*
D10*
X146334000Y-58547000D03*
X145034000Y-58547000D03*
X154447000Y-58547000D03*
X153147000Y-58547000D03*
D11*
X143637000Y-62738000D03*
D12*
X154940000Y-63246000D03*
X154940000Y-65786000D03*
X154940000Y-68326000D03*
X154940000Y-70866000D03*
X154940000Y-73406000D03*
X154940000Y-75946000D03*
X154940000Y-78486000D03*
X154940000Y-81026000D03*
X154940000Y-83566000D03*
X154940000Y-86106000D03*
X154940000Y-88646000D03*
X154940000Y-91186000D03*
D13*
X154940000Y-93726000D03*
D12*
X113538000Y-91694000D03*
D13*
X113538000Y-94234000D03*
D12*
X149987000Y-65786000D03*
D13*
X147447000Y-65786000D03*
D14*
X139572000Y-58166000D03*
X131572000Y-58166000D03*
X125572000Y-58166000D03*
X135572000Y-58166000D03*
X123572000Y-58166000D03*
X137572000Y-58166000D03*
X133572000Y-58166000D03*
X115572000Y-58166000D03*
D15*
X113572000Y-58166000D03*
D14*
X121572000Y-58166000D03*
X117572000Y-58166000D03*
X129572000Y-58166000D03*
X119572000Y-58166000D03*
X127572000Y-58166000D03*
X139572000Y-98806000D03*
X137572000Y-98806000D03*
X135572000Y-98806000D03*
X133572000Y-98806000D03*
X131572000Y-98806000D03*
X129572000Y-98806000D03*
X127572000Y-98806000D03*
X125572000Y-98806000D03*
X123572000Y-98806000D03*
X121572000Y-98806000D03*
X119572000Y-98806000D03*
X117572000Y-98806000D03*
X115572000Y-98806000D03*
D15*
X113572000Y-98806000D03*
D16*
X107061000Y-99187000D03*
X159131000Y-99187000D03*
X105156000Y-57658000D03*
X159131000Y-57658000D03*
D17*
X118872000Y-80264000D03*
X134366000Y-71120000D03*
X129667000Y-89535000D03*
X119380000Y-72898000D03*
X147066000Y-78486000D03*
X137033000Y-65278000D03*
X106299000Y-66675000D03*
X131572000Y-71374000D03*
X143256000Y-94488000D03*
X132842000Y-95504000D03*
X129286000Y-85090000D03*
X146685000Y-83185000D03*
X120523000Y-62230000D03*
X116078000Y-68580000D03*
X138430000Y-89916000D03*
X142240000Y-87376000D03*
X125476000Y-69342000D03*
X123444000Y-67564000D03*
X123444000Y-63500000D03*
X134620000Y-78867000D03*
X124460000Y-68580000D03*
X135890000Y-77978000D03*
D18*
X124968000Y-59944000D02*
X125510594Y-59401406D01*
X120395406Y-59944000D02*
X124968000Y-59944000D01*
X125510594Y-59401406D02*
X125510594Y-59182000D01*
X125572000Y-59120594D02*
X125572000Y-58166000D01*
X125510594Y-59182000D02*
X125572000Y-59120594D01*
X119572000Y-59120594D02*
X120395406Y-59944000D01*
X119572000Y-58166000D02*
X119572000Y-59120594D01*
X123572000Y-58166000D02*
X121572000Y-58166000D01*
X126365000Y-61087000D02*
X127572000Y-59880000D01*
X127572000Y-59880000D02*
X127572000Y-58166000D01*
X119507000Y-61087000D02*
X126365000Y-61087000D01*
X117572000Y-59152000D02*
X119507000Y-61087000D01*
X117572000Y-58166000D02*
X117572000Y-59152000D01*
D19*
X139572000Y-96392000D02*
X139572000Y-98806000D01*
X138430000Y-95250000D02*
X139572000Y-96392000D01*
X138430000Y-89916000D02*
X138430000Y-95250000D01*
X151638000Y-90932000D02*
X154940000Y-90932000D01*
X143764000Y-98806000D02*
X151638000Y-90932000D01*
X139572000Y-98806000D02*
X143764000Y-98806000D01*
X137572000Y-99760594D02*
X138141406Y-100330000D01*
X137572000Y-98806000D02*
X137572000Y-99760594D01*
X138141406Y-100330000D02*
X152400000Y-100330000D01*
X152400000Y-100330000D02*
X157480000Y-95250000D01*
X157480000Y-88392000D02*
X154940000Y-85852000D01*
X157480000Y-95250000D02*
X157480000Y-88392000D01*
X138132831Y-88280899D02*
X153626818Y-88280899D01*
X153737919Y-88392000D02*
X154940000Y-88392000D01*
X135572000Y-90841730D02*
X138132831Y-88280899D01*
X153626818Y-88280899D02*
X153737919Y-88392000D01*
X135572000Y-98806000D02*
X135572000Y-90841730D01*
X133002000Y-87376000D02*
X121572000Y-98806000D01*
X142240000Y-87376000D02*
X133002000Y-87376000D01*
D20*
X142561999Y-64383001D02*
X142561999Y-64135000D01*
X142810000Y-64135000D02*
X142561999Y-64383001D01*
X144712001Y-64383001D02*
X144464000Y-64135000D01*
X142561999Y-64135000D02*
X130683000Y-64135000D01*
X144464000Y-64135000D02*
X142810000Y-64135000D01*
X144712001Y-64135000D02*
X144712001Y-64383001D01*
X153797000Y-64135000D02*
X144712001Y-64135000D01*
X130683000Y-64135000D02*
X125476000Y-69342000D01*
X154940000Y-62992000D02*
X153797000Y-64135000D01*
X129540000Y-61468000D02*
X123444000Y-67564000D01*
D19*
X129921000Y-61087000D02*
X155448000Y-61087000D01*
X129540000Y-61468000D02*
X129921000Y-61087000D01*
D20*
X156083000Y-61087000D02*
X155448000Y-61087000D01*
X156718000Y-61722000D02*
X156083000Y-61087000D01*
X156464000Y-65532000D02*
X156718000Y-65278000D01*
X156718000Y-65278000D02*
X156718000Y-61722000D01*
X154940000Y-65532000D02*
X156464000Y-65532000D01*
X122174000Y-64770000D02*
X123444000Y-63500000D01*
X122174000Y-69088000D02*
X122174000Y-64770000D01*
X132207000Y-78867000D02*
X122174000Y-69088000D01*
X134620000Y-78867000D02*
X132207000Y-78867000D01*
X124460000Y-69850000D02*
X124460000Y-68580000D01*
X132715000Y-77978000D02*
X124460000Y-69850000D01*
D19*
X135440988Y-77978000D02*
X132715000Y-77978000D01*
X135890000Y-77978000D02*
X135440988Y-77978000D01*
X152443800Y-58547000D02*
X153147000Y-58547000D01*
X150538800Y-56642000D02*
X152443800Y-58547000D01*
X132588000Y-56642000D02*
X150538800Y-56642000D01*
X131572000Y-57658000D02*
X132588000Y-56642000D01*
X131572000Y-58166000D02*
X131572000Y-57658000D01*
X145034000Y-58547000D02*
X144330800Y-58547000D01*
X129572000Y-58833000D02*
X129572000Y-58166000D01*
X131064000Y-60325000D02*
X129572000Y-58833000D01*
X143002000Y-60325000D02*
X131064000Y-60325000D01*
X144907000Y-58420000D02*
X143002000Y-60325000D01*
D20*
X152086919Y-79883000D02*
X153737919Y-78232000D01*
X131445000Y-79883000D02*
X152086919Y-79883000D01*
X115572000Y-64010000D02*
X131445000Y-79883000D01*
X153737919Y-78232000D02*
X154940000Y-78232000D01*
X115572000Y-58166000D02*
X115572000Y-64010000D01*
D19*
X157861000Y-75565000D02*
X154940000Y-78486000D01*
X156591000Y-60325000D02*
X157861000Y-61595000D01*
X157861000Y-61595000D02*
X157861000Y-75565000D01*
X148815200Y-60325000D02*
X156591000Y-60325000D01*
X147037200Y-58547000D02*
X148815200Y-60325000D01*
X146334000Y-58547000D02*
X147037200Y-58547000D01*
D20*
X113572000Y-63280000D02*
X131064000Y-80772000D01*
X113572000Y-58166000D02*
X113572000Y-63280000D01*
D19*
X131191000Y-80899000D02*
X131064000Y-80772000D01*
X152273000Y-80899000D02*
X131191000Y-80899000D01*
X155129225Y-81026000D02*
X154940000Y-81026000D01*
X159512000Y-60960000D02*
X159512000Y-76643225D01*
X157099000Y-58547000D02*
X159512000Y-60960000D01*
X159512000Y-76643225D02*
X155129225Y-81026000D01*
X154447000Y-58547000D02*
X157099000Y-58547000D01*
D20*
X154940000Y-81026000D02*
X154940000Y-80772000D01*
X154813000Y-80899000D02*
X154940000Y-81026000D01*
X152146000Y-80899000D02*
X154813000Y-80899000D01*
X151892000Y-86360000D02*
X154940000Y-83312000D01*
X130018000Y-86360000D02*
X151892000Y-86360000D01*
X117572000Y-98806000D02*
X130018000Y-86360000D01*
D19*
X154940000Y-83566000D02*
X155575000Y-82931000D01*
M02*
