G04 #@! TF.GenerationSoftware,KiCad,Pcbnew,(5.1.0-0)*
G04 #@! TF.CreationDate,2019-04-23T18:51:07+03:00*
G04 #@! TF.ProjectId,ovms-swcan,6f766d73-2d73-4776-9361-6e2e6b696361,1.0*
G04 #@! TF.SameCoordinates,Original*
G04 #@! TF.FileFunction,Legend,Bot*
G04 #@! TF.FilePolarity,Positive*
%FSLAX46Y46*%
G04 Gerber Fmt 4.6, Leading zero omitted, Abs format (unit mm)*
G04 Created by KiCad (PCBNEW (5.1.0-0)) date 2019-04-23 18:51:07*
%MOMM*%
%LPD*%
G04 APERTURE LIST*
%ADD10C,0.120000*%
%ADD11C,0.150000*%
G04 APERTURE END LIST*
D10*
X147084000Y-57547000D02*
X144284000Y-57547000D01*
X144284000Y-57547000D02*
X144284000Y-59547000D01*
X144284000Y-59547000D02*
X147084000Y-59547000D01*
X147084000Y-59547000D02*
X147084000Y-57547000D01*
X155197000Y-57547000D02*
X152397000Y-57547000D01*
X152397000Y-57547000D02*
X152397000Y-59547000D01*
X152397000Y-59547000D02*
X155197000Y-59547000D01*
X155197000Y-59547000D02*
X155197000Y-57547000D01*
D11*
X146517333Y-56199380D02*
X146517333Y-56913666D01*
X146564952Y-57056523D01*
X146660190Y-57151761D01*
X146803047Y-57199380D01*
X146898285Y-57199380D01*
X146041142Y-57199380D02*
X146041142Y-56199380D01*
X145660190Y-56199380D01*
X145564952Y-56247000D01*
X145517333Y-56294619D01*
X145469714Y-56389857D01*
X145469714Y-56532714D01*
X145517333Y-56627952D01*
X145564952Y-56675571D01*
X145660190Y-56723190D01*
X146041142Y-56723190D01*
X144612571Y-56199380D02*
X144803047Y-56199380D01*
X144898285Y-56247000D01*
X144945904Y-56294619D01*
X145041142Y-56437476D01*
X145088761Y-56627952D01*
X145088761Y-57008904D01*
X145041142Y-57104142D01*
X144993523Y-57151761D01*
X144898285Y-57199380D01*
X144707809Y-57199380D01*
X144612571Y-57151761D01*
X144564952Y-57104142D01*
X144517333Y-57008904D01*
X144517333Y-56770809D01*
X144564952Y-56675571D01*
X144612571Y-56627952D01*
X144707809Y-56580333D01*
X144898285Y-56580333D01*
X144993523Y-56627952D01*
X145041142Y-56675571D01*
X145088761Y-56770809D01*
X148707809Y-60375571D02*
X148564952Y-60423190D01*
X148517333Y-60470809D01*
X148469714Y-60566047D01*
X148469714Y-60708904D01*
X148517333Y-60804142D01*
X148564952Y-60851761D01*
X148660190Y-60899380D01*
X149041142Y-60899380D01*
X149041142Y-59899380D01*
X148707809Y-59899380D01*
X148612571Y-59947000D01*
X148564952Y-59994619D01*
X148517333Y-60089857D01*
X148517333Y-60185095D01*
X148564952Y-60280333D01*
X148612571Y-60327952D01*
X148707809Y-60375571D01*
X149041142Y-60375571D01*
X148184000Y-59899380D02*
X147612571Y-59899380D01*
X147898285Y-60899380D02*
X147898285Y-59899380D01*
X147279238Y-60899380D02*
X147279238Y-59899380D01*
X146707809Y-60899380D01*
X146707809Y-59899380D01*
X146279238Y-59994619D02*
X146231619Y-59947000D01*
X146136380Y-59899380D01*
X145898285Y-59899380D01*
X145803047Y-59947000D01*
X145755428Y-59994619D01*
X145707809Y-60089857D01*
X145707809Y-60185095D01*
X145755428Y-60327952D01*
X146326857Y-60899380D01*
X145707809Y-60899380D01*
X145517333Y-60994619D02*
X144755428Y-60994619D01*
X144564952Y-60851761D02*
X144422095Y-60899380D01*
X144184000Y-60899380D01*
X144088761Y-60851761D01*
X144041142Y-60804142D01*
X143993523Y-60708904D01*
X143993523Y-60613666D01*
X144041142Y-60518428D01*
X144088761Y-60470809D01*
X144184000Y-60423190D01*
X144374476Y-60375571D01*
X144469714Y-60327952D01*
X144517333Y-60280333D01*
X144564952Y-60185095D01*
X144564952Y-60089857D01*
X144517333Y-59994619D01*
X144469714Y-59947000D01*
X144374476Y-59899380D01*
X144136380Y-59899380D01*
X143993523Y-59947000D01*
X143564952Y-60375571D02*
X143231619Y-60375571D01*
X143088761Y-60899380D02*
X143564952Y-60899380D01*
X143564952Y-59899380D01*
X143088761Y-59899380D01*
X142184000Y-60899380D02*
X142660190Y-60899380D01*
X142660190Y-59899380D01*
X154630333Y-56199380D02*
X154630333Y-56913666D01*
X154677952Y-57056523D01*
X154773190Y-57151761D01*
X154916047Y-57199380D01*
X155011285Y-57199380D01*
X154154142Y-57199380D02*
X154154142Y-56199380D01*
X153773190Y-56199380D01*
X153677952Y-56247000D01*
X153630333Y-56294619D01*
X153582714Y-56389857D01*
X153582714Y-56532714D01*
X153630333Y-56627952D01*
X153677952Y-56675571D01*
X153773190Y-56723190D01*
X154154142Y-56723190D01*
X152677952Y-56199380D02*
X153154142Y-56199380D01*
X153201761Y-56675571D01*
X153154142Y-56627952D01*
X153058904Y-56580333D01*
X152820809Y-56580333D01*
X152725571Y-56627952D01*
X152677952Y-56675571D01*
X152630333Y-56770809D01*
X152630333Y-57008904D01*
X152677952Y-57104142D01*
X152725571Y-57151761D01*
X152820809Y-57199380D01*
X153058904Y-57199380D01*
X153154142Y-57151761D01*
X153201761Y-57104142D01*
X156820809Y-60375571D02*
X156677952Y-60423190D01*
X156630333Y-60470809D01*
X156582714Y-60566047D01*
X156582714Y-60708904D01*
X156630333Y-60804142D01*
X156677952Y-60851761D01*
X156773190Y-60899380D01*
X157154142Y-60899380D01*
X157154142Y-59899380D01*
X156820809Y-59899380D01*
X156725571Y-59947000D01*
X156677952Y-59994619D01*
X156630333Y-60089857D01*
X156630333Y-60185095D01*
X156677952Y-60280333D01*
X156725571Y-60327952D01*
X156820809Y-60375571D01*
X157154142Y-60375571D01*
X156297000Y-59899380D02*
X155725571Y-59899380D01*
X156011285Y-60899380D02*
X156011285Y-59899380D01*
X155392238Y-60899380D02*
X155392238Y-59899380D01*
X154820809Y-60899380D01*
X154820809Y-59899380D01*
X153820809Y-60899380D02*
X154392238Y-60899380D01*
X154106523Y-60899380D02*
X154106523Y-59899380D01*
X154201761Y-60042238D01*
X154297000Y-60137476D01*
X154392238Y-60185095D01*
X153630333Y-60994619D02*
X152868428Y-60994619D01*
X152677952Y-60851761D02*
X152535095Y-60899380D01*
X152297000Y-60899380D01*
X152201761Y-60851761D01*
X152154142Y-60804142D01*
X152106523Y-60708904D01*
X152106523Y-60613666D01*
X152154142Y-60518428D01*
X152201761Y-60470809D01*
X152297000Y-60423190D01*
X152487476Y-60375571D01*
X152582714Y-60327952D01*
X152630333Y-60280333D01*
X152677952Y-60185095D01*
X152677952Y-60089857D01*
X152630333Y-59994619D01*
X152582714Y-59947000D01*
X152487476Y-59899380D01*
X152249380Y-59899380D01*
X152106523Y-59947000D01*
X151677952Y-60375571D02*
X151344619Y-60375571D01*
X151201761Y-60899380D02*
X151677952Y-60899380D01*
X151677952Y-59899380D01*
X151201761Y-59899380D01*
X150297000Y-60899380D02*
X150773190Y-60899380D01*
X150773190Y-59899380D01*
M02*
