G04 #@! TF.GenerationSoftware,KiCad,Pcbnew,(5.1.0-0)*
G04 #@! TF.CreationDate,2019-04-23T18:51:07+03:00*
G04 #@! TF.ProjectId,ovms-swcan,6f766d73-2d73-4776-9361-6e2e6b696361,1.0*
G04 #@! TF.SameCoordinates,Original*
G04 #@! TF.FileFunction,Soldermask,Top*
G04 #@! TF.FilePolarity,Negative*
%FSLAX46Y46*%
G04 Gerber Fmt 4.6, Leading zero omitted, Abs format (unit mm)*
G04 Created by KiCad (PCBNEW (5.1.0-0)) date 2019-04-23 18:51:07*
%MOMM*%
%LPD*%
G04 APERTURE LIST*
%ADD10C,0.100000*%
G04 APERTURE END LIST*
D10*
G36*
X139706801Y-97940044D02*
G01*
X139743530Y-97943661D01*
X139795919Y-97959553D01*
X139908469Y-97993694D01*
X140060475Y-98074943D01*
X140193712Y-98184288D01*
X140303057Y-98317525D01*
X140384306Y-98469531D01*
X140418447Y-98582081D01*
X140434339Y-98634470D01*
X140434339Y-98634472D01*
X140451234Y-98806000D01*
X140437119Y-98949301D01*
X140434339Y-98977530D01*
X140418447Y-99029919D01*
X140384306Y-99142469D01*
X140303057Y-99294475D01*
X140193712Y-99427712D01*
X140060475Y-99537057D01*
X139908469Y-99618306D01*
X139795919Y-99652447D01*
X139743530Y-99668339D01*
X139706801Y-99671956D01*
X139614984Y-99681000D01*
X139529016Y-99681000D01*
X139437199Y-99671956D01*
X139400470Y-99668339D01*
X139348081Y-99652447D01*
X139235531Y-99618306D01*
X139083525Y-99537057D01*
X138950288Y-99427712D01*
X138840943Y-99294475D01*
X138759694Y-99142469D01*
X138725553Y-99029919D01*
X138709661Y-98977530D01*
X138706881Y-98949301D01*
X138692766Y-98806000D01*
X138709661Y-98634472D01*
X138709661Y-98634470D01*
X138725553Y-98582081D01*
X138759694Y-98469531D01*
X138840943Y-98317525D01*
X138950288Y-98184288D01*
X139083525Y-98074943D01*
X139235531Y-97993694D01*
X139348081Y-97959553D01*
X139400470Y-97943661D01*
X139437199Y-97940044D01*
X139529016Y-97931000D01*
X139614984Y-97931000D01*
X139706801Y-97940044D01*
X139706801Y-97940044D01*
G37*
G36*
X137706801Y-97940044D02*
G01*
X137743530Y-97943661D01*
X137795919Y-97959553D01*
X137908469Y-97993694D01*
X138060475Y-98074943D01*
X138193712Y-98184288D01*
X138303057Y-98317525D01*
X138384306Y-98469531D01*
X138418447Y-98582081D01*
X138434339Y-98634470D01*
X138434339Y-98634472D01*
X138451234Y-98806000D01*
X138437119Y-98949301D01*
X138434339Y-98977530D01*
X138418447Y-99029919D01*
X138384306Y-99142469D01*
X138303057Y-99294475D01*
X138193712Y-99427712D01*
X138060475Y-99537057D01*
X137908469Y-99618306D01*
X137795919Y-99652447D01*
X137743530Y-99668339D01*
X137706801Y-99671956D01*
X137614984Y-99681000D01*
X137529016Y-99681000D01*
X137437199Y-99671956D01*
X137400470Y-99668339D01*
X137348081Y-99652447D01*
X137235531Y-99618306D01*
X137083525Y-99537057D01*
X136950288Y-99427712D01*
X136840943Y-99294475D01*
X136759694Y-99142469D01*
X136725553Y-99029919D01*
X136709661Y-98977530D01*
X136706881Y-98949301D01*
X136692766Y-98806000D01*
X136709661Y-98634472D01*
X136709661Y-98634470D01*
X136725553Y-98582081D01*
X136759694Y-98469531D01*
X136840943Y-98317525D01*
X136950288Y-98184288D01*
X137083525Y-98074943D01*
X137235531Y-97993694D01*
X137348081Y-97959553D01*
X137400470Y-97943661D01*
X137437199Y-97940044D01*
X137529016Y-97931000D01*
X137614984Y-97931000D01*
X137706801Y-97940044D01*
X137706801Y-97940044D01*
G37*
G36*
X135706801Y-97940044D02*
G01*
X135743530Y-97943661D01*
X135795919Y-97959553D01*
X135908469Y-97993694D01*
X136060475Y-98074943D01*
X136193712Y-98184288D01*
X136303057Y-98317525D01*
X136384306Y-98469531D01*
X136418447Y-98582081D01*
X136434339Y-98634470D01*
X136434339Y-98634472D01*
X136451234Y-98806000D01*
X136437119Y-98949301D01*
X136434339Y-98977530D01*
X136418447Y-99029919D01*
X136384306Y-99142469D01*
X136303057Y-99294475D01*
X136193712Y-99427712D01*
X136060475Y-99537057D01*
X135908469Y-99618306D01*
X135795919Y-99652447D01*
X135743530Y-99668339D01*
X135706801Y-99671956D01*
X135614984Y-99681000D01*
X135529016Y-99681000D01*
X135437199Y-99671956D01*
X135400470Y-99668339D01*
X135348081Y-99652447D01*
X135235531Y-99618306D01*
X135083525Y-99537057D01*
X134950288Y-99427712D01*
X134840943Y-99294475D01*
X134759694Y-99142469D01*
X134725553Y-99029919D01*
X134709661Y-98977530D01*
X134706881Y-98949301D01*
X134692766Y-98806000D01*
X134709661Y-98634472D01*
X134709661Y-98634470D01*
X134725553Y-98582081D01*
X134759694Y-98469531D01*
X134840943Y-98317525D01*
X134950288Y-98184288D01*
X135083525Y-98074943D01*
X135235531Y-97993694D01*
X135348081Y-97959553D01*
X135400470Y-97943661D01*
X135437199Y-97940044D01*
X135529016Y-97931000D01*
X135614984Y-97931000D01*
X135706801Y-97940044D01*
X135706801Y-97940044D01*
G37*
G36*
X133706801Y-97940044D02*
G01*
X133743530Y-97943661D01*
X133795919Y-97959553D01*
X133908469Y-97993694D01*
X134060475Y-98074943D01*
X134193712Y-98184288D01*
X134303057Y-98317525D01*
X134384306Y-98469531D01*
X134418447Y-98582081D01*
X134434339Y-98634470D01*
X134434339Y-98634472D01*
X134451234Y-98806000D01*
X134437119Y-98949301D01*
X134434339Y-98977530D01*
X134418447Y-99029919D01*
X134384306Y-99142469D01*
X134303057Y-99294475D01*
X134193712Y-99427712D01*
X134060475Y-99537057D01*
X133908469Y-99618306D01*
X133795919Y-99652447D01*
X133743530Y-99668339D01*
X133706801Y-99671956D01*
X133614984Y-99681000D01*
X133529016Y-99681000D01*
X133437199Y-99671956D01*
X133400470Y-99668339D01*
X133348081Y-99652447D01*
X133235531Y-99618306D01*
X133083525Y-99537057D01*
X132950288Y-99427712D01*
X132840943Y-99294475D01*
X132759694Y-99142469D01*
X132725553Y-99029919D01*
X132709661Y-98977530D01*
X132706881Y-98949301D01*
X132692766Y-98806000D01*
X132709661Y-98634472D01*
X132709661Y-98634470D01*
X132725553Y-98582081D01*
X132759694Y-98469531D01*
X132840943Y-98317525D01*
X132950288Y-98184288D01*
X133083525Y-98074943D01*
X133235531Y-97993694D01*
X133348081Y-97959553D01*
X133400470Y-97943661D01*
X133437199Y-97940044D01*
X133529016Y-97931000D01*
X133614984Y-97931000D01*
X133706801Y-97940044D01*
X133706801Y-97940044D01*
G37*
G36*
X131706801Y-97940044D02*
G01*
X131743530Y-97943661D01*
X131795919Y-97959553D01*
X131908469Y-97993694D01*
X132060475Y-98074943D01*
X132193712Y-98184288D01*
X132303057Y-98317525D01*
X132384306Y-98469531D01*
X132418447Y-98582081D01*
X132434339Y-98634470D01*
X132434339Y-98634472D01*
X132451234Y-98806000D01*
X132437119Y-98949301D01*
X132434339Y-98977530D01*
X132418447Y-99029919D01*
X132384306Y-99142469D01*
X132303057Y-99294475D01*
X132193712Y-99427712D01*
X132060475Y-99537057D01*
X131908469Y-99618306D01*
X131795919Y-99652447D01*
X131743530Y-99668339D01*
X131706801Y-99671956D01*
X131614984Y-99681000D01*
X131529016Y-99681000D01*
X131437199Y-99671956D01*
X131400470Y-99668339D01*
X131348081Y-99652447D01*
X131235531Y-99618306D01*
X131083525Y-99537057D01*
X130950288Y-99427712D01*
X130840943Y-99294475D01*
X130759694Y-99142469D01*
X130725553Y-99029919D01*
X130709661Y-98977530D01*
X130706881Y-98949301D01*
X130692766Y-98806000D01*
X130709661Y-98634472D01*
X130709661Y-98634470D01*
X130725553Y-98582081D01*
X130759694Y-98469531D01*
X130840943Y-98317525D01*
X130950288Y-98184288D01*
X131083525Y-98074943D01*
X131235531Y-97993694D01*
X131348081Y-97959553D01*
X131400470Y-97943661D01*
X131437199Y-97940044D01*
X131529016Y-97931000D01*
X131614984Y-97931000D01*
X131706801Y-97940044D01*
X131706801Y-97940044D01*
G37*
G36*
X129706801Y-97940044D02*
G01*
X129743530Y-97943661D01*
X129795919Y-97959553D01*
X129908469Y-97993694D01*
X130060475Y-98074943D01*
X130193712Y-98184288D01*
X130303057Y-98317525D01*
X130384306Y-98469531D01*
X130418447Y-98582081D01*
X130434339Y-98634470D01*
X130434339Y-98634472D01*
X130451234Y-98806000D01*
X130437119Y-98949301D01*
X130434339Y-98977530D01*
X130418447Y-99029919D01*
X130384306Y-99142469D01*
X130303057Y-99294475D01*
X130193712Y-99427712D01*
X130060475Y-99537057D01*
X129908469Y-99618306D01*
X129795919Y-99652447D01*
X129743530Y-99668339D01*
X129706801Y-99671956D01*
X129614984Y-99681000D01*
X129529016Y-99681000D01*
X129437199Y-99671956D01*
X129400470Y-99668339D01*
X129348081Y-99652447D01*
X129235531Y-99618306D01*
X129083525Y-99537057D01*
X128950288Y-99427712D01*
X128840943Y-99294475D01*
X128759694Y-99142469D01*
X128725553Y-99029919D01*
X128709661Y-98977530D01*
X128706881Y-98949301D01*
X128692766Y-98806000D01*
X128709661Y-98634472D01*
X128709661Y-98634470D01*
X128725553Y-98582081D01*
X128759694Y-98469531D01*
X128840943Y-98317525D01*
X128950288Y-98184288D01*
X129083525Y-98074943D01*
X129235531Y-97993694D01*
X129348081Y-97959553D01*
X129400470Y-97943661D01*
X129437199Y-97940044D01*
X129529016Y-97931000D01*
X129614984Y-97931000D01*
X129706801Y-97940044D01*
X129706801Y-97940044D01*
G37*
G36*
X127706801Y-97940044D02*
G01*
X127743530Y-97943661D01*
X127795919Y-97959553D01*
X127908469Y-97993694D01*
X128060475Y-98074943D01*
X128193712Y-98184288D01*
X128303057Y-98317525D01*
X128384306Y-98469531D01*
X128418447Y-98582081D01*
X128434339Y-98634470D01*
X128434339Y-98634472D01*
X128451234Y-98806000D01*
X128437119Y-98949301D01*
X128434339Y-98977530D01*
X128418447Y-99029919D01*
X128384306Y-99142469D01*
X128303057Y-99294475D01*
X128193712Y-99427712D01*
X128060475Y-99537057D01*
X127908469Y-99618306D01*
X127795919Y-99652447D01*
X127743530Y-99668339D01*
X127706801Y-99671956D01*
X127614984Y-99681000D01*
X127529016Y-99681000D01*
X127437199Y-99671956D01*
X127400470Y-99668339D01*
X127348081Y-99652447D01*
X127235531Y-99618306D01*
X127083525Y-99537057D01*
X126950288Y-99427712D01*
X126840943Y-99294475D01*
X126759694Y-99142469D01*
X126725553Y-99029919D01*
X126709661Y-98977530D01*
X126706881Y-98949301D01*
X126692766Y-98806000D01*
X126709661Y-98634472D01*
X126709661Y-98634470D01*
X126725553Y-98582081D01*
X126759694Y-98469531D01*
X126840943Y-98317525D01*
X126950288Y-98184288D01*
X127083525Y-98074943D01*
X127235531Y-97993694D01*
X127348081Y-97959553D01*
X127400470Y-97943661D01*
X127437199Y-97940044D01*
X127529016Y-97931000D01*
X127614984Y-97931000D01*
X127706801Y-97940044D01*
X127706801Y-97940044D01*
G37*
G36*
X125706801Y-97940044D02*
G01*
X125743530Y-97943661D01*
X125795919Y-97959553D01*
X125908469Y-97993694D01*
X126060475Y-98074943D01*
X126193712Y-98184288D01*
X126303057Y-98317525D01*
X126384306Y-98469531D01*
X126418447Y-98582081D01*
X126434339Y-98634470D01*
X126434339Y-98634472D01*
X126451234Y-98806000D01*
X126437119Y-98949301D01*
X126434339Y-98977530D01*
X126418447Y-99029919D01*
X126384306Y-99142469D01*
X126303057Y-99294475D01*
X126193712Y-99427712D01*
X126060475Y-99537057D01*
X125908469Y-99618306D01*
X125795919Y-99652447D01*
X125743530Y-99668339D01*
X125706801Y-99671956D01*
X125614984Y-99681000D01*
X125529016Y-99681000D01*
X125437199Y-99671956D01*
X125400470Y-99668339D01*
X125348081Y-99652447D01*
X125235531Y-99618306D01*
X125083525Y-99537057D01*
X124950288Y-99427712D01*
X124840943Y-99294475D01*
X124759694Y-99142469D01*
X124725553Y-99029919D01*
X124709661Y-98977530D01*
X124706881Y-98949301D01*
X124692766Y-98806000D01*
X124709661Y-98634472D01*
X124709661Y-98634470D01*
X124725553Y-98582081D01*
X124759694Y-98469531D01*
X124840943Y-98317525D01*
X124950288Y-98184288D01*
X125083525Y-98074943D01*
X125235531Y-97993694D01*
X125348081Y-97959553D01*
X125400470Y-97943661D01*
X125437199Y-97940044D01*
X125529016Y-97931000D01*
X125614984Y-97931000D01*
X125706801Y-97940044D01*
X125706801Y-97940044D01*
G37*
G36*
X123706801Y-97940044D02*
G01*
X123743530Y-97943661D01*
X123795919Y-97959553D01*
X123908469Y-97993694D01*
X124060475Y-98074943D01*
X124193712Y-98184288D01*
X124303057Y-98317525D01*
X124384306Y-98469531D01*
X124418447Y-98582081D01*
X124434339Y-98634470D01*
X124434339Y-98634472D01*
X124451234Y-98806000D01*
X124437119Y-98949301D01*
X124434339Y-98977530D01*
X124418447Y-99029919D01*
X124384306Y-99142469D01*
X124303057Y-99294475D01*
X124193712Y-99427712D01*
X124060475Y-99537057D01*
X123908469Y-99618306D01*
X123795919Y-99652447D01*
X123743530Y-99668339D01*
X123706801Y-99671956D01*
X123614984Y-99681000D01*
X123529016Y-99681000D01*
X123437199Y-99671956D01*
X123400470Y-99668339D01*
X123348081Y-99652447D01*
X123235531Y-99618306D01*
X123083525Y-99537057D01*
X122950288Y-99427712D01*
X122840943Y-99294475D01*
X122759694Y-99142469D01*
X122725553Y-99029919D01*
X122709661Y-98977530D01*
X122706881Y-98949301D01*
X122692766Y-98806000D01*
X122709661Y-98634472D01*
X122709661Y-98634470D01*
X122725553Y-98582081D01*
X122759694Y-98469531D01*
X122840943Y-98317525D01*
X122950288Y-98184288D01*
X123083525Y-98074943D01*
X123235531Y-97993694D01*
X123348081Y-97959553D01*
X123400470Y-97943661D01*
X123437199Y-97940044D01*
X123529016Y-97931000D01*
X123614984Y-97931000D01*
X123706801Y-97940044D01*
X123706801Y-97940044D01*
G37*
G36*
X121706801Y-97940044D02*
G01*
X121743530Y-97943661D01*
X121795919Y-97959553D01*
X121908469Y-97993694D01*
X122060475Y-98074943D01*
X122193712Y-98184288D01*
X122303057Y-98317525D01*
X122384306Y-98469531D01*
X122418447Y-98582081D01*
X122434339Y-98634470D01*
X122434339Y-98634472D01*
X122451234Y-98806000D01*
X122437119Y-98949301D01*
X122434339Y-98977530D01*
X122418447Y-99029919D01*
X122384306Y-99142469D01*
X122303057Y-99294475D01*
X122193712Y-99427712D01*
X122060475Y-99537057D01*
X121908469Y-99618306D01*
X121795919Y-99652447D01*
X121743530Y-99668339D01*
X121706801Y-99671956D01*
X121614984Y-99681000D01*
X121529016Y-99681000D01*
X121437199Y-99671956D01*
X121400470Y-99668339D01*
X121348081Y-99652447D01*
X121235531Y-99618306D01*
X121083525Y-99537057D01*
X120950288Y-99427712D01*
X120840943Y-99294475D01*
X120759694Y-99142469D01*
X120725553Y-99029919D01*
X120709661Y-98977530D01*
X120706881Y-98949301D01*
X120692766Y-98806000D01*
X120709661Y-98634472D01*
X120709661Y-98634470D01*
X120725553Y-98582081D01*
X120759694Y-98469531D01*
X120840943Y-98317525D01*
X120950288Y-98184288D01*
X121083525Y-98074943D01*
X121235531Y-97993694D01*
X121348081Y-97959553D01*
X121400470Y-97943661D01*
X121437199Y-97940044D01*
X121529016Y-97931000D01*
X121614984Y-97931000D01*
X121706801Y-97940044D01*
X121706801Y-97940044D01*
G37*
G36*
X119706801Y-97940044D02*
G01*
X119743530Y-97943661D01*
X119795919Y-97959553D01*
X119908469Y-97993694D01*
X120060475Y-98074943D01*
X120193712Y-98184288D01*
X120303057Y-98317525D01*
X120384306Y-98469531D01*
X120418447Y-98582081D01*
X120434339Y-98634470D01*
X120434339Y-98634472D01*
X120451234Y-98806000D01*
X120437119Y-98949301D01*
X120434339Y-98977530D01*
X120418447Y-99029919D01*
X120384306Y-99142469D01*
X120303057Y-99294475D01*
X120193712Y-99427712D01*
X120060475Y-99537057D01*
X119908469Y-99618306D01*
X119795919Y-99652447D01*
X119743530Y-99668339D01*
X119706801Y-99671956D01*
X119614984Y-99681000D01*
X119529016Y-99681000D01*
X119437199Y-99671956D01*
X119400470Y-99668339D01*
X119348081Y-99652447D01*
X119235531Y-99618306D01*
X119083525Y-99537057D01*
X118950288Y-99427712D01*
X118840943Y-99294475D01*
X118759694Y-99142469D01*
X118725553Y-99029919D01*
X118709661Y-98977530D01*
X118706881Y-98949301D01*
X118692766Y-98806000D01*
X118709661Y-98634472D01*
X118709661Y-98634470D01*
X118725553Y-98582081D01*
X118759694Y-98469531D01*
X118840943Y-98317525D01*
X118950288Y-98184288D01*
X119083525Y-98074943D01*
X119235531Y-97993694D01*
X119348081Y-97959553D01*
X119400470Y-97943661D01*
X119437199Y-97940044D01*
X119529016Y-97931000D01*
X119614984Y-97931000D01*
X119706801Y-97940044D01*
X119706801Y-97940044D01*
G37*
G36*
X117706801Y-97940044D02*
G01*
X117743530Y-97943661D01*
X117795919Y-97959553D01*
X117908469Y-97993694D01*
X118060475Y-98074943D01*
X118193712Y-98184288D01*
X118303057Y-98317525D01*
X118384306Y-98469531D01*
X118418447Y-98582081D01*
X118434339Y-98634470D01*
X118434339Y-98634472D01*
X118451234Y-98806000D01*
X118437119Y-98949301D01*
X118434339Y-98977530D01*
X118418447Y-99029919D01*
X118384306Y-99142469D01*
X118303057Y-99294475D01*
X118193712Y-99427712D01*
X118060475Y-99537057D01*
X117908469Y-99618306D01*
X117795919Y-99652447D01*
X117743530Y-99668339D01*
X117706801Y-99671956D01*
X117614984Y-99681000D01*
X117529016Y-99681000D01*
X117437199Y-99671956D01*
X117400470Y-99668339D01*
X117348081Y-99652447D01*
X117235531Y-99618306D01*
X117083525Y-99537057D01*
X116950288Y-99427712D01*
X116840943Y-99294475D01*
X116759694Y-99142469D01*
X116725553Y-99029919D01*
X116709661Y-98977530D01*
X116706881Y-98949301D01*
X116692766Y-98806000D01*
X116709661Y-98634472D01*
X116709661Y-98634470D01*
X116725553Y-98582081D01*
X116759694Y-98469531D01*
X116840943Y-98317525D01*
X116950288Y-98184288D01*
X117083525Y-98074943D01*
X117235531Y-97993694D01*
X117348081Y-97959553D01*
X117400470Y-97943661D01*
X117437199Y-97940044D01*
X117529016Y-97931000D01*
X117614984Y-97931000D01*
X117706801Y-97940044D01*
X117706801Y-97940044D01*
G37*
G36*
X115706801Y-97940044D02*
G01*
X115743530Y-97943661D01*
X115795919Y-97959553D01*
X115908469Y-97993694D01*
X116060475Y-98074943D01*
X116193712Y-98184288D01*
X116303057Y-98317525D01*
X116384306Y-98469531D01*
X116418447Y-98582081D01*
X116434339Y-98634470D01*
X116434339Y-98634472D01*
X116451234Y-98806000D01*
X116437119Y-98949301D01*
X116434339Y-98977530D01*
X116418447Y-99029919D01*
X116384306Y-99142469D01*
X116303057Y-99294475D01*
X116193712Y-99427712D01*
X116060475Y-99537057D01*
X115908469Y-99618306D01*
X115795919Y-99652447D01*
X115743530Y-99668339D01*
X115706801Y-99671956D01*
X115614984Y-99681000D01*
X115529016Y-99681000D01*
X115437199Y-99671956D01*
X115400470Y-99668339D01*
X115348081Y-99652447D01*
X115235531Y-99618306D01*
X115083525Y-99537057D01*
X114950288Y-99427712D01*
X114840943Y-99294475D01*
X114759694Y-99142469D01*
X114725553Y-99029919D01*
X114709661Y-98977530D01*
X114706881Y-98949301D01*
X114692766Y-98806000D01*
X114709661Y-98634472D01*
X114709661Y-98634470D01*
X114725553Y-98582081D01*
X114759694Y-98469531D01*
X114840943Y-98317525D01*
X114950288Y-98184288D01*
X115083525Y-98074943D01*
X115235531Y-97993694D01*
X115348081Y-97959553D01*
X115400470Y-97943661D01*
X115437199Y-97940044D01*
X115529016Y-97931000D01*
X115614984Y-97931000D01*
X115706801Y-97940044D01*
X115706801Y-97940044D01*
G37*
G36*
X114447000Y-99681000D02*
G01*
X112697000Y-99681000D01*
X112697000Y-97931000D01*
X114447000Y-97931000D01*
X114447000Y-99681000D01*
X114447000Y-99681000D01*
G37*
G36*
X114588000Y-95284000D02*
G01*
X112488000Y-95284000D01*
X112488000Y-93184000D01*
X114588000Y-93184000D01*
X114588000Y-95284000D01*
X114588000Y-95284000D01*
G37*
G36*
X155990000Y-94776000D02*
G01*
X153890000Y-94776000D01*
X153890000Y-92676000D01*
X155990000Y-92676000D01*
X155990000Y-94776000D01*
X155990000Y-94776000D01*
G37*
G36*
X124491950Y-92683039D02*
G01*
X124555942Y-92702451D01*
X124614912Y-92733971D01*
X124666606Y-92776394D01*
X124709029Y-92828088D01*
X124740549Y-92887058D01*
X124759961Y-92951050D01*
X124767000Y-93022517D01*
X124767000Y-94429483D01*
X124759961Y-94500950D01*
X124740549Y-94564942D01*
X124709029Y-94623912D01*
X124666606Y-94675606D01*
X124614912Y-94718029D01*
X124555942Y-94749549D01*
X124491950Y-94768961D01*
X124420483Y-94776000D01*
X122213517Y-94776000D01*
X122142050Y-94768961D01*
X122078058Y-94749549D01*
X122019088Y-94718029D01*
X121967394Y-94675606D01*
X121924971Y-94623912D01*
X121893451Y-94564942D01*
X121874039Y-94500950D01*
X121867000Y-94429483D01*
X121867000Y-93022517D01*
X121874039Y-92951050D01*
X121893451Y-92887058D01*
X121924971Y-92828088D01*
X121967394Y-92776394D01*
X122019088Y-92733971D01*
X122078058Y-92702451D01*
X122142050Y-92683039D01*
X122213517Y-92676000D01*
X124420483Y-92676000D01*
X124491950Y-92683039D01*
X124491950Y-92683039D01*
G37*
G36*
X119845000Y-94588000D02*
G01*
X117645000Y-94588000D01*
X117645000Y-91688000D01*
X119845000Y-91688000D01*
X119845000Y-94588000D01*
X119845000Y-94588000D01*
G37*
G36*
X130110492Y-93133998D02*
G01*
X130164335Y-93150332D01*
X130213958Y-93176855D01*
X130257451Y-93212549D01*
X130293145Y-93256042D01*
X130319668Y-93305665D01*
X130336002Y-93359508D01*
X130342000Y-93420408D01*
X130342000Y-94285592D01*
X130336002Y-94346492D01*
X130319668Y-94400335D01*
X130293145Y-94449958D01*
X130257451Y-94493451D01*
X130213958Y-94529145D01*
X130164335Y-94555668D01*
X130110492Y-94572002D01*
X130049592Y-94578000D01*
X129284408Y-94578000D01*
X129223508Y-94572002D01*
X129169665Y-94555668D01*
X129120042Y-94529145D01*
X129076549Y-94493451D01*
X129040855Y-94449958D01*
X129014332Y-94400335D01*
X128997998Y-94346492D01*
X128992000Y-94285592D01*
X128992000Y-93420408D01*
X128997998Y-93359508D01*
X129014332Y-93305665D01*
X129040855Y-93256042D01*
X129076549Y-93212549D01*
X129120042Y-93176855D01*
X129169665Y-93150332D01*
X129223508Y-93133998D01*
X129284408Y-93128000D01*
X130049592Y-93128000D01*
X130110492Y-93133998D01*
X130110492Y-93133998D01*
G37*
G36*
X133285492Y-93119998D02*
G01*
X133339335Y-93136332D01*
X133388958Y-93162855D01*
X133432451Y-93198549D01*
X133468145Y-93242042D01*
X133494668Y-93291665D01*
X133511002Y-93345508D01*
X133517000Y-93406408D01*
X133517000Y-94271592D01*
X133511002Y-94332492D01*
X133494668Y-94386335D01*
X133468145Y-94435958D01*
X133432451Y-94479451D01*
X133388958Y-94515145D01*
X133339335Y-94541668D01*
X133285492Y-94558002D01*
X133224592Y-94564000D01*
X132459408Y-94564000D01*
X132398508Y-94558002D01*
X132344665Y-94541668D01*
X132295042Y-94515145D01*
X132251549Y-94479451D01*
X132215855Y-94435958D01*
X132189332Y-94386335D01*
X132172998Y-94332492D01*
X132167000Y-94271592D01*
X132167000Y-93406408D01*
X132172998Y-93345508D01*
X132189332Y-93291665D01*
X132215855Y-93242042D01*
X132251549Y-93198549D01*
X132295042Y-93162855D01*
X132344665Y-93136332D01*
X132398508Y-93119998D01*
X132459408Y-93114000D01*
X133224592Y-93114000D01*
X133285492Y-93119998D01*
X133285492Y-93119998D01*
G37*
G36*
X127316492Y-93119998D02*
G01*
X127370335Y-93136332D01*
X127419958Y-93162855D01*
X127463451Y-93198549D01*
X127499145Y-93242042D01*
X127525668Y-93291665D01*
X127542002Y-93345508D01*
X127548000Y-93406408D01*
X127548000Y-94271592D01*
X127542002Y-94332492D01*
X127525668Y-94386335D01*
X127499145Y-94435958D01*
X127463451Y-94479451D01*
X127419958Y-94515145D01*
X127370335Y-94541668D01*
X127316492Y-94558002D01*
X127255592Y-94564000D01*
X126490408Y-94564000D01*
X126429508Y-94558002D01*
X126375665Y-94541668D01*
X126326042Y-94515145D01*
X126282549Y-94479451D01*
X126246855Y-94435958D01*
X126220332Y-94386335D01*
X126203998Y-94332492D01*
X126198000Y-94271592D01*
X126198000Y-93406408D01*
X126203998Y-93345508D01*
X126220332Y-93291665D01*
X126246855Y-93242042D01*
X126282549Y-93198549D01*
X126326042Y-93162855D01*
X126375665Y-93136332D01*
X126429508Y-93119998D01*
X126490408Y-93114000D01*
X127255592Y-93114000D01*
X127316492Y-93119998D01*
X127316492Y-93119998D01*
G37*
G36*
X144715492Y-91962998D02*
G01*
X144769335Y-91979332D01*
X144818958Y-92005855D01*
X144862451Y-92041549D01*
X144898145Y-92085042D01*
X144924668Y-92134665D01*
X144941002Y-92188508D01*
X144947000Y-92249408D01*
X144947000Y-93114592D01*
X144941002Y-93175492D01*
X144924668Y-93229335D01*
X144898145Y-93278958D01*
X144862451Y-93322451D01*
X144818958Y-93358145D01*
X144769335Y-93384668D01*
X144715492Y-93401002D01*
X144654592Y-93407000D01*
X143889408Y-93407000D01*
X143828508Y-93401002D01*
X143774665Y-93384668D01*
X143725042Y-93358145D01*
X143681549Y-93322451D01*
X143645855Y-93278958D01*
X143619332Y-93229335D01*
X143602998Y-93175492D01*
X143597000Y-93114592D01*
X143597000Y-92249408D01*
X143602998Y-92188508D01*
X143619332Y-92134665D01*
X143645855Y-92085042D01*
X143681549Y-92041549D01*
X143725042Y-92005855D01*
X143774665Y-91979332D01*
X143828508Y-91962998D01*
X143889408Y-91957000D01*
X144654592Y-91957000D01*
X144715492Y-91962998D01*
X144715492Y-91962998D01*
G37*
G36*
X142683492Y-91962998D02*
G01*
X142737335Y-91979332D01*
X142786958Y-92005855D01*
X142830451Y-92041549D01*
X142866145Y-92085042D01*
X142892668Y-92134665D01*
X142909002Y-92188508D01*
X142915000Y-92249408D01*
X142915000Y-93114592D01*
X142909002Y-93175492D01*
X142892668Y-93229335D01*
X142866145Y-93278958D01*
X142830451Y-93322451D01*
X142786958Y-93358145D01*
X142737335Y-93384668D01*
X142683492Y-93401002D01*
X142622592Y-93407000D01*
X141857408Y-93407000D01*
X141796508Y-93401002D01*
X141742665Y-93384668D01*
X141693042Y-93358145D01*
X141649549Y-93322451D01*
X141613855Y-93278958D01*
X141587332Y-93229335D01*
X141570998Y-93175492D01*
X141565000Y-93114592D01*
X141565000Y-92249408D01*
X141570998Y-92188508D01*
X141587332Y-92134665D01*
X141613855Y-92085042D01*
X141649549Y-92041549D01*
X141693042Y-92005855D01*
X141742665Y-91979332D01*
X141796508Y-91962998D01*
X141857408Y-91957000D01*
X142622592Y-91957000D01*
X142683492Y-91962998D01*
X142683492Y-91962998D01*
G37*
G36*
X148524000Y-93044000D02*
G01*
X146624000Y-93044000D01*
X146624000Y-90344000D01*
X148524000Y-90344000D01*
X148524000Y-93044000D01*
X148524000Y-93044000D01*
G37*
G36*
X130110492Y-91383998D02*
G01*
X130164335Y-91400332D01*
X130213958Y-91426855D01*
X130257451Y-91462549D01*
X130293145Y-91506042D01*
X130319668Y-91555665D01*
X130336002Y-91609508D01*
X130342000Y-91670408D01*
X130342000Y-92535592D01*
X130336002Y-92596492D01*
X130319668Y-92650335D01*
X130293145Y-92699958D01*
X130257451Y-92743451D01*
X130213958Y-92779145D01*
X130164335Y-92805668D01*
X130110492Y-92822002D01*
X130049592Y-92828000D01*
X129284408Y-92828000D01*
X129223508Y-92822002D01*
X129169665Y-92805668D01*
X129120042Y-92779145D01*
X129076549Y-92743451D01*
X129040855Y-92699958D01*
X129014332Y-92650335D01*
X128997998Y-92596492D01*
X128992000Y-92535592D01*
X128992000Y-91670408D01*
X128997998Y-91609508D01*
X129014332Y-91555665D01*
X129040855Y-91506042D01*
X129076549Y-91462549D01*
X129120042Y-91426855D01*
X129169665Y-91400332D01*
X129223508Y-91383998D01*
X129284408Y-91378000D01*
X130049592Y-91378000D01*
X130110492Y-91383998D01*
X130110492Y-91383998D01*
G37*
G36*
X127316492Y-91369998D02*
G01*
X127370335Y-91386332D01*
X127419958Y-91412855D01*
X127463451Y-91448549D01*
X127499145Y-91492042D01*
X127525668Y-91541665D01*
X127542002Y-91595508D01*
X127548000Y-91656408D01*
X127548000Y-92521592D01*
X127542002Y-92582492D01*
X127525668Y-92636335D01*
X127499145Y-92685958D01*
X127463451Y-92729451D01*
X127419958Y-92765145D01*
X127370335Y-92791668D01*
X127316492Y-92808002D01*
X127255592Y-92814000D01*
X126490408Y-92814000D01*
X126429508Y-92808002D01*
X126375665Y-92791668D01*
X126326042Y-92765145D01*
X126282549Y-92729451D01*
X126246855Y-92685958D01*
X126220332Y-92636335D01*
X126203998Y-92582492D01*
X126198000Y-92521592D01*
X126198000Y-91656408D01*
X126203998Y-91595508D01*
X126220332Y-91541665D01*
X126246855Y-91492042D01*
X126282549Y-91448549D01*
X126326042Y-91412855D01*
X126375665Y-91386332D01*
X126429508Y-91369998D01*
X126490408Y-91364000D01*
X127255592Y-91364000D01*
X127316492Y-91369998D01*
X127316492Y-91369998D01*
G37*
G36*
X133285492Y-91369998D02*
G01*
X133339335Y-91386332D01*
X133388958Y-91412855D01*
X133432451Y-91448549D01*
X133468145Y-91492042D01*
X133494668Y-91541665D01*
X133511002Y-91595508D01*
X133517000Y-91656408D01*
X133517000Y-92521592D01*
X133511002Y-92582492D01*
X133494668Y-92636335D01*
X133468145Y-92685958D01*
X133432451Y-92729451D01*
X133388958Y-92765145D01*
X133339335Y-92791668D01*
X133285492Y-92808002D01*
X133224592Y-92814000D01*
X132459408Y-92814000D01*
X132398508Y-92808002D01*
X132344665Y-92791668D01*
X132295042Y-92765145D01*
X132251549Y-92729451D01*
X132215855Y-92685958D01*
X132189332Y-92636335D01*
X132172998Y-92582492D01*
X132167000Y-92521592D01*
X132167000Y-91656408D01*
X132172998Y-91595508D01*
X132189332Y-91541665D01*
X132215855Y-91492042D01*
X132251549Y-91448549D01*
X132295042Y-91412855D01*
X132344665Y-91386332D01*
X132398508Y-91369998D01*
X132459408Y-91364000D01*
X133224592Y-91364000D01*
X133285492Y-91369998D01*
X133285492Y-91369998D01*
G37*
G36*
X113705271Y-90655395D02*
G01*
X113743836Y-90659193D01*
X113875787Y-90699220D01*
X113941763Y-90719233D01*
X114124169Y-90816731D01*
X114284054Y-90947946D01*
X114415269Y-91107831D01*
X114512767Y-91290237D01*
X114512767Y-91290238D01*
X114572807Y-91488164D01*
X114572807Y-91488166D01*
X114593081Y-91694000D01*
X114585381Y-91772171D01*
X114572807Y-91899836D01*
X114532780Y-92031787D01*
X114512767Y-92097763D01*
X114415269Y-92280169D01*
X114284054Y-92440054D01*
X114124169Y-92571269D01*
X113941763Y-92668767D01*
X113885091Y-92685958D01*
X113743836Y-92728807D01*
X113705271Y-92732605D01*
X113589584Y-92744000D01*
X113486416Y-92744000D01*
X113370729Y-92732605D01*
X113332164Y-92728807D01*
X113190909Y-92685958D01*
X113134237Y-92668767D01*
X112951831Y-92571269D01*
X112791946Y-92440054D01*
X112660731Y-92280169D01*
X112563233Y-92097763D01*
X112543220Y-92031787D01*
X112503193Y-91899836D01*
X112490619Y-91772171D01*
X112482919Y-91694000D01*
X112503193Y-91488166D01*
X112503193Y-91488164D01*
X112563233Y-91290238D01*
X112563233Y-91290237D01*
X112660731Y-91107831D01*
X112791946Y-90947946D01*
X112951831Y-90816731D01*
X113134237Y-90719233D01*
X113200213Y-90699220D01*
X113332164Y-90659193D01*
X113370729Y-90655395D01*
X113486416Y-90644000D01*
X113589584Y-90644000D01*
X113705271Y-90655395D01*
X113705271Y-90655395D01*
G37*
G36*
X155107272Y-90147395D02*
G01*
X155145836Y-90151193D01*
X155277787Y-90191220D01*
X155343763Y-90211233D01*
X155526169Y-90308731D01*
X155686054Y-90439946D01*
X155817269Y-90599831D01*
X155914767Y-90782237D01*
X155914767Y-90782238D01*
X155974807Y-90980164D01*
X155974807Y-90980166D01*
X155995081Y-91186000D01*
X155978143Y-91357961D01*
X155974807Y-91391836D01*
X155945586Y-91488164D01*
X155914767Y-91589763D01*
X155817269Y-91772169D01*
X155686054Y-91932054D01*
X155526169Y-92063269D01*
X155343763Y-92160767D01*
X155328674Y-92165344D01*
X155145836Y-92220807D01*
X155107272Y-92224605D01*
X154991584Y-92236000D01*
X154888416Y-92236000D01*
X154772728Y-92224605D01*
X154734164Y-92220807D01*
X154551326Y-92165344D01*
X154536237Y-92160767D01*
X154353831Y-92063269D01*
X154193946Y-91932054D01*
X154062731Y-91772169D01*
X153965233Y-91589763D01*
X153934414Y-91488164D01*
X153905193Y-91391836D01*
X153901857Y-91357961D01*
X153884919Y-91186000D01*
X153905193Y-90980166D01*
X153905193Y-90980164D01*
X153965233Y-90782238D01*
X153965233Y-90782237D01*
X154062731Y-90599831D01*
X154193946Y-90439946D01*
X154353831Y-90308731D01*
X154536237Y-90211233D01*
X154602213Y-90191220D01*
X154734164Y-90151193D01*
X154772728Y-90147395D01*
X154888416Y-90136000D01*
X154991584Y-90136000D01*
X155107272Y-90147395D01*
X155107272Y-90147395D01*
G37*
G36*
X142683492Y-90212998D02*
G01*
X142737335Y-90229332D01*
X142786958Y-90255855D01*
X142830451Y-90291549D01*
X142866145Y-90335042D01*
X142892668Y-90384665D01*
X142909002Y-90438508D01*
X142915000Y-90499408D01*
X142915000Y-91364592D01*
X142909002Y-91425492D01*
X142892668Y-91479335D01*
X142866145Y-91528958D01*
X142830451Y-91572451D01*
X142786958Y-91608145D01*
X142737335Y-91634668D01*
X142683492Y-91651002D01*
X142622592Y-91657000D01*
X141857408Y-91657000D01*
X141796508Y-91651002D01*
X141742665Y-91634668D01*
X141693042Y-91608145D01*
X141649549Y-91572451D01*
X141613855Y-91528958D01*
X141587332Y-91479335D01*
X141570998Y-91425492D01*
X141565000Y-91364592D01*
X141565000Y-90499408D01*
X141570998Y-90438508D01*
X141587332Y-90384665D01*
X141613855Y-90335042D01*
X141649549Y-90291549D01*
X141693042Y-90255855D01*
X141742665Y-90229332D01*
X141796508Y-90212998D01*
X141857408Y-90207000D01*
X142622592Y-90207000D01*
X142683492Y-90212998D01*
X142683492Y-90212998D01*
G37*
G36*
X144715492Y-90212998D02*
G01*
X144769335Y-90229332D01*
X144818958Y-90255855D01*
X144862451Y-90291549D01*
X144898145Y-90335042D01*
X144924668Y-90384665D01*
X144941002Y-90438508D01*
X144947000Y-90499408D01*
X144947000Y-91364592D01*
X144941002Y-91425492D01*
X144924668Y-91479335D01*
X144898145Y-91528958D01*
X144862451Y-91572451D01*
X144818958Y-91608145D01*
X144769335Y-91634668D01*
X144715492Y-91651002D01*
X144654592Y-91657000D01*
X143889408Y-91657000D01*
X143828508Y-91651002D01*
X143774665Y-91634668D01*
X143725042Y-91608145D01*
X143681549Y-91572451D01*
X143645855Y-91528958D01*
X143619332Y-91479335D01*
X143602998Y-91425492D01*
X143597000Y-91364592D01*
X143597000Y-90499408D01*
X143602998Y-90438508D01*
X143619332Y-90384665D01*
X143645855Y-90335042D01*
X143681549Y-90291549D01*
X143725042Y-90255855D01*
X143774665Y-90229332D01*
X143828508Y-90212998D01*
X143889408Y-90207000D01*
X144654592Y-90207000D01*
X144715492Y-90212998D01*
X144715492Y-90212998D01*
G37*
G36*
X124491950Y-89127039D02*
G01*
X124555942Y-89146451D01*
X124614912Y-89177971D01*
X124666606Y-89220394D01*
X124709029Y-89272088D01*
X124740549Y-89331058D01*
X124759961Y-89395050D01*
X124767000Y-89466517D01*
X124767000Y-90873483D01*
X124759961Y-90944950D01*
X124740549Y-91008942D01*
X124709029Y-91067912D01*
X124666606Y-91119606D01*
X124614912Y-91162029D01*
X124555942Y-91193549D01*
X124491950Y-91212961D01*
X124420483Y-91220000D01*
X122213517Y-91220000D01*
X122142050Y-91212961D01*
X122078058Y-91193549D01*
X122019088Y-91162029D01*
X121967394Y-91119606D01*
X121924971Y-91067912D01*
X121893451Y-91008942D01*
X121874039Y-90944950D01*
X121867000Y-90873483D01*
X121867000Y-89466517D01*
X121874039Y-89395050D01*
X121893451Y-89331058D01*
X121924971Y-89272088D01*
X121967394Y-89220394D01*
X122019088Y-89177971D01*
X122078058Y-89146451D01*
X122142050Y-89127039D01*
X122213517Y-89120000D01*
X124420483Y-89120000D01*
X124491950Y-89127039D01*
X124491950Y-89127039D01*
G37*
G36*
X155107272Y-87607395D02*
G01*
X155145836Y-87611193D01*
X155277787Y-87651220D01*
X155343763Y-87671233D01*
X155526169Y-87768731D01*
X155686054Y-87899946D01*
X155817269Y-88059831D01*
X155914767Y-88242237D01*
X155914767Y-88242238D01*
X155974807Y-88440164D01*
X155974807Y-88440166D01*
X155995081Y-88646000D01*
X155978143Y-88817961D01*
X155974807Y-88851836D01*
X155934780Y-88983787D01*
X155914767Y-89049763D01*
X155817269Y-89232169D01*
X155686054Y-89392054D01*
X155526169Y-89523269D01*
X155343763Y-89620767D01*
X155277787Y-89640780D01*
X155145836Y-89680807D01*
X155107272Y-89684605D01*
X154991584Y-89696000D01*
X154888416Y-89696000D01*
X154772728Y-89684605D01*
X154734164Y-89680807D01*
X154602213Y-89640780D01*
X154536237Y-89620767D01*
X154353831Y-89523269D01*
X154193946Y-89392054D01*
X154062731Y-89232169D01*
X153965233Y-89049763D01*
X153945220Y-88983787D01*
X153905193Y-88851836D01*
X153901857Y-88817961D01*
X153884919Y-88646000D01*
X153905193Y-88440166D01*
X153905193Y-88440164D01*
X153965233Y-88242238D01*
X153965233Y-88242237D01*
X154062731Y-88059831D01*
X154193946Y-87899946D01*
X154353831Y-87768731D01*
X154536237Y-87671233D01*
X154602213Y-87651220D01*
X154734164Y-87611193D01*
X154772728Y-87607395D01*
X154888416Y-87596000D01*
X154991584Y-87596000D01*
X155107272Y-87607395D01*
X155107272Y-87607395D01*
G37*
G36*
X119845000Y-89588000D02*
G01*
X117645000Y-89588000D01*
X117645000Y-86688000D01*
X119845000Y-86688000D01*
X119845000Y-89588000D01*
X119845000Y-89588000D01*
G37*
G36*
X155107272Y-85067395D02*
G01*
X155145836Y-85071193D01*
X155277787Y-85111220D01*
X155343763Y-85131233D01*
X155526169Y-85228731D01*
X155686054Y-85359946D01*
X155817269Y-85519831D01*
X155914767Y-85702237D01*
X155914767Y-85702238D01*
X155974807Y-85900164D01*
X155974807Y-85900166D01*
X155995081Y-86106000D01*
X155978143Y-86277961D01*
X155974807Y-86311836D01*
X155934780Y-86443787D01*
X155914767Y-86509763D01*
X155817269Y-86692169D01*
X155686054Y-86852054D01*
X155526169Y-86983269D01*
X155343763Y-87080767D01*
X155277787Y-87100780D01*
X155145836Y-87140807D01*
X155107272Y-87144605D01*
X154991584Y-87156000D01*
X154888416Y-87156000D01*
X154772728Y-87144605D01*
X154734164Y-87140807D01*
X154602213Y-87100780D01*
X154536237Y-87080767D01*
X154353831Y-86983269D01*
X154193946Y-86852054D01*
X154062731Y-86692169D01*
X153965233Y-86509763D01*
X153945220Y-86443787D01*
X153905193Y-86311836D01*
X153901857Y-86277961D01*
X153884919Y-86106000D01*
X153905193Y-85900166D01*
X153905193Y-85900164D01*
X153965233Y-85702238D01*
X153965233Y-85702237D01*
X154062731Y-85519831D01*
X154193946Y-85359946D01*
X154353831Y-85228731D01*
X154536237Y-85131233D01*
X154602213Y-85111220D01*
X154734164Y-85071193D01*
X154772728Y-85067395D01*
X154888416Y-85056000D01*
X154991584Y-85056000D01*
X155107272Y-85067395D01*
X155107272Y-85067395D01*
G37*
G36*
X155107272Y-82527395D02*
G01*
X155145836Y-82531193D01*
X155277787Y-82571220D01*
X155343763Y-82591233D01*
X155526169Y-82688731D01*
X155686054Y-82819946D01*
X155817269Y-82979831D01*
X155914767Y-83162237D01*
X155917331Y-83170691D01*
X155974807Y-83360164D01*
X155974807Y-83360166D01*
X155995081Y-83566000D01*
X155978143Y-83737961D01*
X155974807Y-83771836D01*
X155939871Y-83887005D01*
X155914767Y-83969763D01*
X155817269Y-84152169D01*
X155686054Y-84312054D01*
X155526169Y-84443269D01*
X155343763Y-84540767D01*
X155277787Y-84560780D01*
X155145836Y-84600807D01*
X155107271Y-84604605D01*
X154991584Y-84616000D01*
X154888416Y-84616000D01*
X154772729Y-84604605D01*
X154734164Y-84600807D01*
X154602213Y-84560780D01*
X154536237Y-84540767D01*
X154353831Y-84443269D01*
X154193946Y-84312054D01*
X154062731Y-84152169D01*
X153965233Y-83969763D01*
X153940129Y-83887005D01*
X153905193Y-83771836D01*
X153901857Y-83737961D01*
X153884919Y-83566000D01*
X153905193Y-83360166D01*
X153905193Y-83360164D01*
X153962669Y-83170691D01*
X153965233Y-83162237D01*
X154062731Y-82979831D01*
X154193946Y-82819946D01*
X154353831Y-82688731D01*
X154536237Y-82591233D01*
X154602213Y-82571220D01*
X154734164Y-82531193D01*
X154772728Y-82527395D01*
X154888416Y-82516000D01*
X154991584Y-82516000D01*
X155107272Y-82527395D01*
X155107272Y-82527395D01*
G37*
G36*
X115188492Y-83150998D02*
G01*
X115242335Y-83167332D01*
X115291958Y-83193855D01*
X115335451Y-83229549D01*
X115371145Y-83273042D01*
X115397668Y-83322665D01*
X115414002Y-83376508D01*
X115420000Y-83437408D01*
X115420000Y-84202592D01*
X115414002Y-84263492D01*
X115397668Y-84317335D01*
X115371145Y-84366958D01*
X115335451Y-84410451D01*
X115291958Y-84446145D01*
X115242335Y-84472668D01*
X115188492Y-84489002D01*
X115127592Y-84495000D01*
X114262408Y-84495000D01*
X114201508Y-84489002D01*
X114147665Y-84472668D01*
X114098042Y-84446145D01*
X114054549Y-84410451D01*
X114018855Y-84366958D01*
X113992332Y-84317335D01*
X113975998Y-84263492D01*
X113970000Y-84202592D01*
X113970000Y-83437408D01*
X113975998Y-83376508D01*
X113992332Y-83322665D01*
X114018855Y-83273042D01*
X114054549Y-83229549D01*
X114098042Y-83193855D01*
X114147665Y-83167332D01*
X114201508Y-83150998D01*
X114262408Y-83145000D01*
X115127592Y-83145000D01*
X115188492Y-83150998D01*
X115188492Y-83150998D01*
G37*
G36*
X116938492Y-83150998D02*
G01*
X116992335Y-83167332D01*
X117041958Y-83193855D01*
X117085451Y-83229549D01*
X117121145Y-83273042D01*
X117147668Y-83322665D01*
X117164002Y-83376508D01*
X117170000Y-83437408D01*
X117170000Y-84202592D01*
X117164002Y-84263492D01*
X117147668Y-84317335D01*
X117121145Y-84366958D01*
X117085451Y-84410451D01*
X117041958Y-84446145D01*
X116992335Y-84472668D01*
X116938492Y-84489002D01*
X116877592Y-84495000D01*
X116012408Y-84495000D01*
X115951508Y-84489002D01*
X115897665Y-84472668D01*
X115848042Y-84446145D01*
X115804549Y-84410451D01*
X115768855Y-84366958D01*
X115742332Y-84317335D01*
X115725998Y-84263492D01*
X115720000Y-84202592D01*
X115720000Y-83437408D01*
X115725998Y-83376508D01*
X115742332Y-83322665D01*
X115768855Y-83273042D01*
X115804549Y-83229549D01*
X115848042Y-83193855D01*
X115897665Y-83167332D01*
X115951508Y-83150998D01*
X116012408Y-83145000D01*
X116877592Y-83145000D01*
X116938492Y-83150998D01*
X116938492Y-83150998D01*
G37*
G36*
X135120000Y-84386000D02*
G01*
X134120000Y-84386000D01*
X134120000Y-81986000D01*
X135120000Y-81986000D01*
X135120000Y-84386000D01*
X135120000Y-84386000D01*
G37*
G36*
X138930000Y-84386000D02*
G01*
X137930000Y-84386000D01*
X137930000Y-81986000D01*
X138930000Y-81986000D01*
X138930000Y-84386000D01*
X138930000Y-84386000D01*
G37*
G36*
X136390000Y-84386000D02*
G01*
X135390000Y-84386000D01*
X135390000Y-81986000D01*
X136390000Y-81986000D01*
X136390000Y-84386000D01*
X136390000Y-84386000D01*
G37*
G36*
X137660000Y-84386000D02*
G01*
X136660000Y-84386000D01*
X136660000Y-81986000D01*
X137660000Y-81986000D01*
X137660000Y-84386000D01*
X137660000Y-84386000D01*
G37*
G36*
X140200000Y-84386000D02*
G01*
X139200000Y-84386000D01*
X139200000Y-81986000D01*
X140200000Y-81986000D01*
X140200000Y-84386000D01*
X140200000Y-84386000D01*
G37*
G36*
X141470000Y-84386000D02*
G01*
X140470000Y-84386000D01*
X140470000Y-81986000D01*
X141470000Y-81986000D01*
X141470000Y-84386000D01*
X141470000Y-84386000D01*
G37*
G36*
X142740000Y-84386000D02*
G01*
X141740000Y-84386000D01*
X141740000Y-81986000D01*
X142740000Y-81986000D01*
X142740000Y-84386000D01*
X142740000Y-84386000D01*
G37*
G36*
X144010000Y-84386000D02*
G01*
X143010000Y-84386000D01*
X143010000Y-81986000D01*
X144010000Y-81986000D01*
X144010000Y-84386000D01*
X144010000Y-84386000D01*
G37*
G36*
X145280000Y-84386000D02*
G01*
X144280000Y-84386000D01*
X144280000Y-81986000D01*
X145280000Y-81986000D01*
X145280000Y-84386000D01*
X145280000Y-84386000D01*
G37*
G36*
X129729492Y-82592998D02*
G01*
X129783335Y-82609332D01*
X129832958Y-82635855D01*
X129876451Y-82671549D01*
X129912145Y-82715042D01*
X129938668Y-82764665D01*
X129955002Y-82818508D01*
X129961000Y-82879408D01*
X129961000Y-83744592D01*
X129955002Y-83805492D01*
X129938668Y-83859335D01*
X129912145Y-83908958D01*
X129876451Y-83952451D01*
X129832958Y-83988145D01*
X129783335Y-84014668D01*
X129729492Y-84031002D01*
X129668592Y-84037000D01*
X128903408Y-84037000D01*
X128842508Y-84031002D01*
X128788665Y-84014668D01*
X128739042Y-83988145D01*
X128695549Y-83952451D01*
X128659855Y-83908958D01*
X128633332Y-83859335D01*
X128616998Y-83805492D01*
X128611000Y-83744592D01*
X128611000Y-82879408D01*
X128616998Y-82818508D01*
X128633332Y-82764665D01*
X128659855Y-82715042D01*
X128695549Y-82671549D01*
X128739042Y-82635855D01*
X128788665Y-82609332D01*
X128842508Y-82592998D01*
X128903408Y-82587000D01*
X129668592Y-82587000D01*
X129729492Y-82592998D01*
X129729492Y-82592998D01*
G37*
G36*
X147636492Y-80927998D02*
G01*
X147690335Y-80944332D01*
X147739958Y-80970855D01*
X147783451Y-81006549D01*
X147819145Y-81050042D01*
X147845668Y-81099665D01*
X147862002Y-81153508D01*
X147868000Y-81214408D01*
X147868000Y-82079592D01*
X147862002Y-82140492D01*
X147845668Y-82194335D01*
X147819145Y-82243958D01*
X147783451Y-82287451D01*
X147739958Y-82323145D01*
X147690335Y-82349668D01*
X147636492Y-82366002D01*
X147575592Y-82372000D01*
X146810408Y-82372000D01*
X146749508Y-82366002D01*
X146695665Y-82349668D01*
X146646042Y-82323145D01*
X146602549Y-82287451D01*
X146566855Y-82243958D01*
X146540332Y-82194335D01*
X146523998Y-82140492D01*
X146518000Y-82079592D01*
X146518000Y-81214408D01*
X146523998Y-81153508D01*
X146540332Y-81099665D01*
X146566855Y-81050042D01*
X146602549Y-81006549D01*
X146646042Y-80970855D01*
X146695665Y-80944332D01*
X146749508Y-80927998D01*
X146810408Y-80922000D01*
X147575592Y-80922000D01*
X147636492Y-80927998D01*
X147636492Y-80927998D01*
G37*
G36*
X129729492Y-80842998D02*
G01*
X129783335Y-80859332D01*
X129832958Y-80885855D01*
X129876451Y-80921549D01*
X129912145Y-80965042D01*
X129938668Y-81014665D01*
X129955002Y-81068508D01*
X129961000Y-81129408D01*
X129961000Y-81994592D01*
X129955002Y-82055492D01*
X129938668Y-82109335D01*
X129912145Y-82158958D01*
X129876451Y-82202451D01*
X129832958Y-82238145D01*
X129783335Y-82264668D01*
X129729492Y-82281002D01*
X129668592Y-82287000D01*
X128903408Y-82287000D01*
X128842508Y-82281002D01*
X128788665Y-82264668D01*
X128739042Y-82238145D01*
X128695549Y-82202451D01*
X128659855Y-82158958D01*
X128633332Y-82109335D01*
X128616998Y-82055492D01*
X128611000Y-81994592D01*
X128611000Y-81129408D01*
X128616998Y-81068508D01*
X128633332Y-81014665D01*
X128659855Y-80965042D01*
X128695549Y-80921549D01*
X128739042Y-80885855D01*
X128788665Y-80859332D01*
X128842508Y-80842998D01*
X128903408Y-80837000D01*
X129668592Y-80837000D01*
X129729492Y-80842998D01*
X129729492Y-80842998D01*
G37*
G36*
X155107272Y-79987395D02*
G01*
X155145836Y-79991193D01*
X155277787Y-80031220D01*
X155343763Y-80051233D01*
X155526169Y-80148731D01*
X155686054Y-80279946D01*
X155817269Y-80439831D01*
X155914767Y-80622237D01*
X155914767Y-80622238D01*
X155974807Y-80820164D01*
X155974807Y-80820166D01*
X155995081Y-81026000D01*
X155984803Y-81130344D01*
X155974807Y-81231836D01*
X155966415Y-81259500D01*
X155914767Y-81429763D01*
X155817269Y-81612169D01*
X155686054Y-81772054D01*
X155526169Y-81903269D01*
X155343763Y-82000767D01*
X155295711Y-82015343D01*
X155145836Y-82060807D01*
X155107271Y-82064605D01*
X154991584Y-82076000D01*
X154888416Y-82076000D01*
X154772729Y-82064605D01*
X154734164Y-82060807D01*
X154584289Y-82015343D01*
X154536237Y-82000767D01*
X154353831Y-81903269D01*
X154193946Y-81772054D01*
X154062731Y-81612169D01*
X153965233Y-81429763D01*
X153913585Y-81259500D01*
X153905193Y-81231836D01*
X153895197Y-81130344D01*
X153884919Y-81026000D01*
X153905193Y-80820166D01*
X153905193Y-80820164D01*
X153965233Y-80622238D01*
X153965233Y-80622237D01*
X154062731Y-80439831D01*
X154193946Y-80279946D01*
X154353831Y-80148731D01*
X154536237Y-80051233D01*
X154602213Y-80031220D01*
X154734164Y-79991193D01*
X154772728Y-79987395D01*
X154888416Y-79976000D01*
X154991584Y-79976000D01*
X155107272Y-79987395D01*
X155107272Y-79987395D01*
G37*
G36*
X115188492Y-80356998D02*
G01*
X115242335Y-80373332D01*
X115291958Y-80399855D01*
X115335451Y-80435549D01*
X115371145Y-80479042D01*
X115397668Y-80528665D01*
X115414002Y-80582508D01*
X115420000Y-80643408D01*
X115420000Y-81408592D01*
X115414002Y-81469492D01*
X115397668Y-81523335D01*
X115371145Y-81572958D01*
X115335451Y-81616451D01*
X115291958Y-81652145D01*
X115242335Y-81678668D01*
X115188492Y-81695002D01*
X115127592Y-81701000D01*
X114262408Y-81701000D01*
X114201508Y-81695002D01*
X114147665Y-81678668D01*
X114098042Y-81652145D01*
X114054549Y-81616451D01*
X114018855Y-81572958D01*
X113992332Y-81523335D01*
X113975998Y-81469492D01*
X113970000Y-81408592D01*
X113970000Y-80643408D01*
X113975998Y-80582508D01*
X113992332Y-80528665D01*
X114018855Y-80479042D01*
X114054549Y-80435549D01*
X114098042Y-80399855D01*
X114147665Y-80373332D01*
X114201508Y-80356998D01*
X114262408Y-80351000D01*
X115127592Y-80351000D01*
X115188492Y-80356998D01*
X115188492Y-80356998D01*
G37*
G36*
X116938492Y-80356998D02*
G01*
X116992335Y-80373332D01*
X117041958Y-80399855D01*
X117085451Y-80435549D01*
X117121145Y-80479042D01*
X117147668Y-80528665D01*
X117164002Y-80582508D01*
X117170000Y-80643408D01*
X117170000Y-81408592D01*
X117164002Y-81469492D01*
X117147668Y-81523335D01*
X117121145Y-81572958D01*
X117085451Y-81616451D01*
X117041958Y-81652145D01*
X116992335Y-81678668D01*
X116938492Y-81695002D01*
X116877592Y-81701000D01*
X116012408Y-81701000D01*
X115951508Y-81695002D01*
X115897665Y-81678668D01*
X115848042Y-81652145D01*
X115804549Y-81616451D01*
X115768855Y-81572958D01*
X115742332Y-81523335D01*
X115725998Y-81469492D01*
X115720000Y-81408592D01*
X115720000Y-80643408D01*
X115725998Y-80582508D01*
X115742332Y-80528665D01*
X115768855Y-80479042D01*
X115804549Y-80435549D01*
X115848042Y-80399855D01*
X115897665Y-80373332D01*
X115951508Y-80356998D01*
X116012408Y-80351000D01*
X116877592Y-80351000D01*
X116938492Y-80356998D01*
X116938492Y-80356998D01*
G37*
G36*
X121143492Y-80356998D02*
G01*
X121197335Y-80373332D01*
X121246958Y-80399855D01*
X121290451Y-80435549D01*
X121326145Y-80479042D01*
X121352668Y-80528665D01*
X121369002Y-80582508D01*
X121375000Y-80643408D01*
X121375000Y-81408592D01*
X121369002Y-81469492D01*
X121352668Y-81523335D01*
X121326145Y-81572958D01*
X121290451Y-81616451D01*
X121246958Y-81652145D01*
X121197335Y-81678668D01*
X121143492Y-81695002D01*
X121082592Y-81701000D01*
X120217408Y-81701000D01*
X120156508Y-81695002D01*
X120102665Y-81678668D01*
X120053042Y-81652145D01*
X120009549Y-81616451D01*
X119973855Y-81572958D01*
X119947332Y-81523335D01*
X119930998Y-81469492D01*
X119925000Y-81408592D01*
X119925000Y-80643408D01*
X119930998Y-80582508D01*
X119947332Y-80528665D01*
X119973855Y-80479042D01*
X120009549Y-80435549D01*
X120053042Y-80399855D01*
X120102665Y-80373332D01*
X120156508Y-80356998D01*
X120217408Y-80351000D01*
X121082592Y-80351000D01*
X121143492Y-80356998D01*
X121143492Y-80356998D01*
G37*
G36*
X122893492Y-80356998D02*
G01*
X122947335Y-80373332D01*
X122996958Y-80399855D01*
X123040451Y-80435549D01*
X123076145Y-80479042D01*
X123102668Y-80528665D01*
X123119002Y-80582508D01*
X123125000Y-80643408D01*
X123125000Y-81408592D01*
X123119002Y-81469492D01*
X123102668Y-81523335D01*
X123076145Y-81572958D01*
X123040451Y-81616451D01*
X122996958Y-81652145D01*
X122947335Y-81678668D01*
X122893492Y-81695002D01*
X122832592Y-81701000D01*
X121967408Y-81701000D01*
X121906508Y-81695002D01*
X121852665Y-81678668D01*
X121803042Y-81652145D01*
X121759549Y-81616451D01*
X121723855Y-81572958D01*
X121697332Y-81523335D01*
X121680998Y-81469492D01*
X121675000Y-81408592D01*
X121675000Y-80643408D01*
X121680998Y-80582508D01*
X121697332Y-80528665D01*
X121723855Y-80479042D01*
X121759549Y-80435549D01*
X121803042Y-80399855D01*
X121852665Y-80373332D01*
X121906508Y-80356998D01*
X121967408Y-80351000D01*
X122832592Y-80351000D01*
X122893492Y-80356998D01*
X122893492Y-80356998D01*
G37*
G36*
X147636492Y-79177998D02*
G01*
X147690335Y-79194332D01*
X147739958Y-79220855D01*
X147783451Y-79256549D01*
X147819145Y-79300042D01*
X147845668Y-79349665D01*
X147862002Y-79403508D01*
X147868000Y-79464408D01*
X147868000Y-80329592D01*
X147862002Y-80390492D01*
X147845668Y-80444335D01*
X147819145Y-80493958D01*
X147783451Y-80537451D01*
X147739958Y-80573145D01*
X147690335Y-80599668D01*
X147636492Y-80616002D01*
X147575592Y-80622000D01*
X146810408Y-80622000D01*
X146749508Y-80616002D01*
X146695665Y-80599668D01*
X146646042Y-80573145D01*
X146602549Y-80537451D01*
X146566855Y-80493958D01*
X146540332Y-80444335D01*
X146523998Y-80390492D01*
X146518000Y-80329592D01*
X146518000Y-79464408D01*
X146523998Y-79403508D01*
X146540332Y-79349665D01*
X146566855Y-79300042D01*
X146602549Y-79256549D01*
X146646042Y-79220855D01*
X146695665Y-79194332D01*
X146749508Y-79177998D01*
X146810408Y-79172000D01*
X147575592Y-79172000D01*
X147636492Y-79177998D01*
X147636492Y-79177998D01*
G37*
G36*
X155107272Y-77447395D02*
G01*
X155145836Y-77451193D01*
X155277787Y-77491220D01*
X155343763Y-77511233D01*
X155526169Y-77608731D01*
X155686054Y-77739946D01*
X155817269Y-77899831D01*
X155914767Y-78082237D01*
X155914767Y-78082238D01*
X155974807Y-78280164D01*
X155974807Y-78280166D01*
X155995081Y-78486000D01*
X155978143Y-78657961D01*
X155974807Y-78691836D01*
X155934780Y-78823787D01*
X155914767Y-78889763D01*
X155817269Y-79072169D01*
X155686054Y-79232054D01*
X155526169Y-79363269D01*
X155343763Y-79460767D01*
X155277787Y-79480780D01*
X155145836Y-79520807D01*
X155107271Y-79524605D01*
X154991584Y-79536000D01*
X154888416Y-79536000D01*
X154772729Y-79524605D01*
X154734164Y-79520807D01*
X154602213Y-79480780D01*
X154536237Y-79460767D01*
X154353831Y-79363269D01*
X154193946Y-79232054D01*
X154062731Y-79072169D01*
X153965233Y-78889763D01*
X153945220Y-78823787D01*
X153905193Y-78691836D01*
X153901857Y-78657961D01*
X153884919Y-78486000D01*
X153905193Y-78280166D01*
X153905193Y-78280164D01*
X153965233Y-78082238D01*
X153965233Y-78082237D01*
X154062731Y-77899831D01*
X154193946Y-77739946D01*
X154353831Y-77608731D01*
X154536237Y-77511233D01*
X154602213Y-77491220D01*
X154734164Y-77451193D01*
X154772728Y-77447395D01*
X154888416Y-77436000D01*
X154991584Y-77436000D01*
X155107272Y-77447395D01*
X155107272Y-77447395D01*
G37*
G36*
X125387000Y-78986000D02*
G01*
X123437000Y-78986000D01*
X123437000Y-77986000D01*
X125387000Y-77986000D01*
X125387000Y-78986000D01*
X125387000Y-78986000D01*
G37*
G36*
X119387000Y-78986000D02*
G01*
X117437000Y-78986000D01*
X117437000Y-77986000D01*
X119387000Y-77986000D01*
X119387000Y-78986000D01*
X119387000Y-78986000D01*
G37*
G36*
X125387000Y-77716000D02*
G01*
X123437000Y-77716000D01*
X123437000Y-76716000D01*
X125387000Y-76716000D01*
X125387000Y-77716000D01*
X125387000Y-77716000D01*
G37*
G36*
X119387000Y-77716000D02*
G01*
X117437000Y-77716000D01*
X117437000Y-76716000D01*
X119387000Y-76716000D01*
X119387000Y-77716000D01*
X119387000Y-77716000D01*
G37*
G36*
X155107272Y-74907395D02*
G01*
X155145836Y-74911193D01*
X155277787Y-74951220D01*
X155343763Y-74971233D01*
X155526169Y-75068731D01*
X155686054Y-75199946D01*
X155817269Y-75359831D01*
X155914767Y-75542237D01*
X155914767Y-75542238D01*
X155974807Y-75740164D01*
X155974807Y-75740166D01*
X155995081Y-75946000D01*
X155978143Y-76117961D01*
X155974807Y-76151836D01*
X155934780Y-76283787D01*
X155914767Y-76349763D01*
X155817269Y-76532169D01*
X155686054Y-76692054D01*
X155526169Y-76823269D01*
X155343763Y-76920767D01*
X155277787Y-76940780D01*
X155145836Y-76980807D01*
X155107271Y-76984605D01*
X154991584Y-76996000D01*
X154888416Y-76996000D01*
X154772729Y-76984605D01*
X154734164Y-76980807D01*
X154602213Y-76940780D01*
X154536237Y-76920767D01*
X154353831Y-76823269D01*
X154193946Y-76692054D01*
X154062731Y-76532169D01*
X153965233Y-76349763D01*
X153945220Y-76283787D01*
X153905193Y-76151836D01*
X153901857Y-76117961D01*
X153884919Y-75946000D01*
X153905193Y-75740166D01*
X153905193Y-75740164D01*
X153965233Y-75542238D01*
X153965233Y-75542237D01*
X154062731Y-75359831D01*
X154193946Y-75199946D01*
X154353831Y-75068731D01*
X154536237Y-74971233D01*
X154602213Y-74951220D01*
X154734164Y-74911193D01*
X154772728Y-74907395D01*
X154888416Y-74896000D01*
X154991584Y-74896000D01*
X155107272Y-74907395D01*
X155107272Y-74907395D01*
G37*
G36*
X125387000Y-76446000D02*
G01*
X123437000Y-76446000D01*
X123437000Y-75446000D01*
X125387000Y-75446000D01*
X125387000Y-76446000D01*
X125387000Y-76446000D01*
G37*
G36*
X119387000Y-76446000D02*
G01*
X117437000Y-76446000D01*
X117437000Y-75446000D01*
X119387000Y-75446000D01*
X119387000Y-76446000D01*
X119387000Y-76446000D01*
G37*
G36*
X125387000Y-75176000D02*
G01*
X123437000Y-75176000D01*
X123437000Y-74176000D01*
X125387000Y-74176000D01*
X125387000Y-75176000D01*
X125387000Y-75176000D01*
G37*
G36*
X119387000Y-75176000D02*
G01*
X117437000Y-75176000D01*
X117437000Y-74176000D01*
X119387000Y-74176000D01*
X119387000Y-75176000D01*
X119387000Y-75176000D01*
G37*
G36*
X140200000Y-74478000D02*
G01*
X139200000Y-74478000D01*
X139200000Y-72078000D01*
X140200000Y-72078000D01*
X140200000Y-74478000D01*
X140200000Y-74478000D01*
G37*
G36*
X135120000Y-74478000D02*
G01*
X134120000Y-74478000D01*
X134120000Y-72078000D01*
X135120000Y-72078000D01*
X135120000Y-74478000D01*
X135120000Y-74478000D01*
G37*
G36*
X136390000Y-74478000D02*
G01*
X135390000Y-74478000D01*
X135390000Y-72078000D01*
X136390000Y-72078000D01*
X136390000Y-74478000D01*
X136390000Y-74478000D01*
G37*
G36*
X137660000Y-74478000D02*
G01*
X136660000Y-74478000D01*
X136660000Y-72078000D01*
X137660000Y-72078000D01*
X137660000Y-74478000D01*
X137660000Y-74478000D01*
G37*
G36*
X145280000Y-74478000D02*
G01*
X144280000Y-74478000D01*
X144280000Y-72078000D01*
X145280000Y-72078000D01*
X145280000Y-74478000D01*
X145280000Y-74478000D01*
G37*
G36*
X144010000Y-74478000D02*
G01*
X143010000Y-74478000D01*
X143010000Y-72078000D01*
X144010000Y-72078000D01*
X144010000Y-74478000D01*
X144010000Y-74478000D01*
G37*
G36*
X138930000Y-74478000D02*
G01*
X137930000Y-74478000D01*
X137930000Y-72078000D01*
X138930000Y-72078000D01*
X138930000Y-74478000D01*
X138930000Y-74478000D01*
G37*
G36*
X142740000Y-74478000D02*
G01*
X141740000Y-74478000D01*
X141740000Y-72078000D01*
X142740000Y-72078000D01*
X142740000Y-74478000D01*
X142740000Y-74478000D01*
G37*
G36*
X141470000Y-74478000D02*
G01*
X140470000Y-74478000D01*
X140470000Y-72078000D01*
X141470000Y-72078000D01*
X141470000Y-74478000D01*
X141470000Y-74478000D01*
G37*
G36*
X155107272Y-72367395D02*
G01*
X155145836Y-72371193D01*
X155277787Y-72411220D01*
X155343763Y-72431233D01*
X155526169Y-72528731D01*
X155686054Y-72659946D01*
X155817269Y-72819831D01*
X155914767Y-73002237D01*
X155914767Y-73002238D01*
X155974807Y-73200164D01*
X155974807Y-73200166D01*
X155995081Y-73406000D01*
X155978143Y-73577961D01*
X155974807Y-73611836D01*
X155934780Y-73743787D01*
X155914767Y-73809763D01*
X155817269Y-73992169D01*
X155686054Y-74152054D01*
X155526169Y-74283269D01*
X155343763Y-74380767D01*
X155277787Y-74400780D01*
X155145836Y-74440807D01*
X155107271Y-74444605D01*
X154991584Y-74456000D01*
X154888416Y-74456000D01*
X154772729Y-74444605D01*
X154734164Y-74440807D01*
X154602213Y-74400780D01*
X154536237Y-74380767D01*
X154353831Y-74283269D01*
X154193946Y-74152054D01*
X154062731Y-73992169D01*
X153965233Y-73809763D01*
X153945220Y-73743787D01*
X153905193Y-73611836D01*
X153901857Y-73577961D01*
X153884919Y-73406000D01*
X153905193Y-73200166D01*
X153905193Y-73200164D01*
X153965233Y-73002238D01*
X153965233Y-73002237D01*
X154062731Y-72819831D01*
X154193946Y-72659946D01*
X154353831Y-72528731D01*
X154536237Y-72431233D01*
X154602213Y-72411220D01*
X154734164Y-72371193D01*
X154772728Y-72367395D01*
X154888416Y-72356000D01*
X154991584Y-72356000D01*
X155107272Y-72367395D01*
X155107272Y-72367395D01*
G37*
G36*
X130541492Y-71720998D02*
G01*
X130595335Y-71737332D01*
X130644958Y-71763855D01*
X130688451Y-71799549D01*
X130724145Y-71843042D01*
X130750668Y-71892665D01*
X130767002Y-71946508D01*
X130773000Y-72007408D01*
X130773000Y-72772592D01*
X130767002Y-72833492D01*
X130750668Y-72887335D01*
X130724145Y-72936958D01*
X130688451Y-72980451D01*
X130644958Y-73016145D01*
X130595335Y-73042668D01*
X130541492Y-73059002D01*
X130480592Y-73065000D01*
X129615408Y-73065000D01*
X129554508Y-73059002D01*
X129500665Y-73042668D01*
X129451042Y-73016145D01*
X129407549Y-72980451D01*
X129371855Y-72936958D01*
X129345332Y-72887335D01*
X129328998Y-72833492D01*
X129323000Y-72772592D01*
X129323000Y-72007408D01*
X129328998Y-71946508D01*
X129345332Y-71892665D01*
X129371855Y-71843042D01*
X129407549Y-71799549D01*
X129451042Y-71763855D01*
X129500665Y-71737332D01*
X129554508Y-71720998D01*
X129615408Y-71715000D01*
X130480592Y-71715000D01*
X130541492Y-71720998D01*
X130541492Y-71720998D01*
G37*
G36*
X128791492Y-71720998D02*
G01*
X128845335Y-71737332D01*
X128894958Y-71763855D01*
X128938451Y-71799549D01*
X128974145Y-71843042D01*
X129000668Y-71892665D01*
X129017002Y-71946508D01*
X129023000Y-72007408D01*
X129023000Y-72772592D01*
X129017002Y-72833492D01*
X129000668Y-72887335D01*
X128974145Y-72936958D01*
X128938451Y-72980451D01*
X128894958Y-73016145D01*
X128845335Y-73042668D01*
X128791492Y-73059002D01*
X128730592Y-73065000D01*
X127865408Y-73065000D01*
X127804508Y-73059002D01*
X127750665Y-73042668D01*
X127701042Y-73016145D01*
X127657549Y-72980451D01*
X127621855Y-72936958D01*
X127595332Y-72887335D01*
X127578998Y-72833492D01*
X127573000Y-72772592D01*
X127573000Y-72007408D01*
X127578998Y-71946508D01*
X127595332Y-71892665D01*
X127621855Y-71843042D01*
X127657549Y-71799549D01*
X127701042Y-71763855D01*
X127750665Y-71737332D01*
X127804508Y-71720998D01*
X127865408Y-71715000D01*
X128730592Y-71715000D01*
X128791492Y-71720998D01*
X128791492Y-71720998D01*
G37*
G36*
X116558509Y-70279186D02*
G01*
X116604426Y-70293115D01*
X116646739Y-70315732D01*
X116683829Y-70346171D01*
X116714268Y-70383261D01*
X116736885Y-70425574D01*
X116750814Y-70471491D01*
X116756000Y-70524146D01*
X116756000Y-72223854D01*
X116750814Y-72276509D01*
X116736885Y-72322426D01*
X116714268Y-72364739D01*
X116683829Y-72401829D01*
X116646739Y-72432268D01*
X116604426Y-72454885D01*
X116558509Y-72468814D01*
X116505854Y-72474000D01*
X115031146Y-72474000D01*
X114978491Y-72468814D01*
X114932574Y-72454885D01*
X114890261Y-72432268D01*
X114853171Y-72401829D01*
X114822732Y-72364739D01*
X114800115Y-72322426D01*
X114786186Y-72276509D01*
X114781000Y-72223854D01*
X114781000Y-70524146D01*
X114786186Y-70471491D01*
X114800115Y-70425574D01*
X114822732Y-70383261D01*
X114853171Y-70346171D01*
X114890261Y-70315732D01*
X114932574Y-70293115D01*
X114978491Y-70279186D01*
X115031146Y-70274000D01*
X116505854Y-70274000D01*
X116558509Y-70279186D01*
X116558509Y-70279186D01*
G37*
G36*
X120733509Y-70279186D02*
G01*
X120779426Y-70293115D01*
X120821739Y-70315732D01*
X120858829Y-70346171D01*
X120889268Y-70383261D01*
X120911885Y-70425574D01*
X120925814Y-70471491D01*
X120931000Y-70524146D01*
X120931000Y-72223854D01*
X120925814Y-72276509D01*
X120911885Y-72322426D01*
X120889268Y-72364739D01*
X120858829Y-72401829D01*
X120821739Y-72432268D01*
X120779426Y-72454885D01*
X120733509Y-72468814D01*
X120680854Y-72474000D01*
X119206146Y-72474000D01*
X119153491Y-72468814D01*
X119107574Y-72454885D01*
X119065261Y-72432268D01*
X119028171Y-72401829D01*
X118997732Y-72364739D01*
X118975115Y-72322426D01*
X118961186Y-72276509D01*
X118956000Y-72223854D01*
X118956000Y-70524146D01*
X118961186Y-70471491D01*
X118975115Y-70425574D01*
X118997732Y-70383261D01*
X119028171Y-70346171D01*
X119065261Y-70315732D01*
X119107574Y-70293115D01*
X119153491Y-70279186D01*
X119206146Y-70274000D01*
X120680854Y-70274000D01*
X120733509Y-70279186D01*
X120733509Y-70279186D01*
G37*
G36*
X155107271Y-69827395D02*
G01*
X155145836Y-69831193D01*
X155242992Y-69860665D01*
X155343763Y-69891233D01*
X155526169Y-69988731D01*
X155686054Y-70119946D01*
X155817269Y-70279831D01*
X155914767Y-70462237D01*
X155914767Y-70462238D01*
X155974807Y-70660164D01*
X155974807Y-70660166D01*
X155995081Y-70866000D01*
X155979271Y-71026515D01*
X155974807Y-71071836D01*
X155934780Y-71203787D01*
X155914767Y-71269763D01*
X155817269Y-71452169D01*
X155686054Y-71612054D01*
X155526169Y-71743269D01*
X155343763Y-71840767D01*
X155328697Y-71845337D01*
X155145836Y-71900807D01*
X155107271Y-71904605D01*
X154991584Y-71916000D01*
X154888416Y-71916000D01*
X154772729Y-71904605D01*
X154734164Y-71900807D01*
X154551303Y-71845337D01*
X154536237Y-71840767D01*
X154353831Y-71743269D01*
X154193946Y-71612054D01*
X154062731Y-71452169D01*
X153965233Y-71269763D01*
X153945220Y-71203787D01*
X153905193Y-71071836D01*
X153900729Y-71026515D01*
X153884919Y-70866000D01*
X153905193Y-70660166D01*
X153905193Y-70660164D01*
X153965233Y-70462238D01*
X153965233Y-70462237D01*
X154062731Y-70279831D01*
X154193946Y-70119946D01*
X154353831Y-69988731D01*
X154536237Y-69891233D01*
X154637008Y-69860665D01*
X154734164Y-69831193D01*
X154772729Y-69827395D01*
X154888416Y-69816000D01*
X154991584Y-69816000D01*
X155107271Y-69827395D01*
X155107271Y-69827395D01*
G37*
G36*
X110422179Y-70098862D02*
G01*
X110474700Y-70114795D01*
X110523096Y-70140663D01*
X110565521Y-70175479D01*
X110600337Y-70217904D01*
X110626205Y-70266300D01*
X110642138Y-70318821D01*
X110648000Y-70378342D01*
X110648000Y-71607658D01*
X110642138Y-71667179D01*
X110626205Y-71719700D01*
X110600337Y-71768096D01*
X110565521Y-71810521D01*
X110523096Y-71845337D01*
X110474700Y-71871205D01*
X110422179Y-71887138D01*
X110362658Y-71893000D01*
X109383342Y-71893000D01*
X109323821Y-71887138D01*
X109271300Y-71871205D01*
X109222904Y-71845337D01*
X109180479Y-71810521D01*
X109145663Y-71768096D01*
X109119795Y-71719700D01*
X109103862Y-71667179D01*
X109098000Y-71607658D01*
X109098000Y-70378342D01*
X109103862Y-70318821D01*
X109119795Y-70266300D01*
X109145663Y-70217904D01*
X109180479Y-70175479D01*
X109222904Y-70140663D01*
X109271300Y-70114795D01*
X109323821Y-70098862D01*
X109383342Y-70093000D01*
X110362658Y-70093000D01*
X110422179Y-70098862D01*
X110422179Y-70098862D01*
G37*
G36*
X108372179Y-70098862D02*
G01*
X108424700Y-70114795D01*
X108473096Y-70140663D01*
X108515521Y-70175479D01*
X108550337Y-70217904D01*
X108576205Y-70266300D01*
X108592138Y-70318821D01*
X108598000Y-70378342D01*
X108598000Y-71607658D01*
X108592138Y-71667179D01*
X108576205Y-71719700D01*
X108550337Y-71768096D01*
X108515521Y-71810521D01*
X108473096Y-71845337D01*
X108424700Y-71871205D01*
X108372179Y-71887138D01*
X108312658Y-71893000D01*
X107333342Y-71893000D01*
X107273821Y-71887138D01*
X107221300Y-71871205D01*
X107172904Y-71845337D01*
X107130479Y-71810521D01*
X107095663Y-71768096D01*
X107069795Y-71719700D01*
X107053862Y-71667179D01*
X107048000Y-71607658D01*
X107048000Y-70378342D01*
X107053862Y-70318821D01*
X107069795Y-70266300D01*
X107095663Y-70217904D01*
X107130479Y-70175479D01*
X107172904Y-70140663D01*
X107221300Y-70114795D01*
X107273821Y-70098862D01*
X107333342Y-70093000D01*
X108312658Y-70093000D01*
X108372179Y-70098862D01*
X108372179Y-70098862D01*
G37*
G36*
X128904492Y-69688998D02*
G01*
X128958335Y-69705332D01*
X129007958Y-69731855D01*
X129051451Y-69767549D01*
X129087145Y-69811042D01*
X129113668Y-69860665D01*
X129130002Y-69914508D01*
X129136000Y-69975408D01*
X129136000Y-70740592D01*
X129130002Y-70801492D01*
X129113668Y-70855335D01*
X129087145Y-70904958D01*
X129051451Y-70948451D01*
X129007958Y-70984145D01*
X128958335Y-71010668D01*
X128904492Y-71027002D01*
X128843592Y-71033000D01*
X127978408Y-71033000D01*
X127917508Y-71027002D01*
X127863665Y-71010668D01*
X127814042Y-70984145D01*
X127770549Y-70948451D01*
X127734855Y-70904958D01*
X127708332Y-70855335D01*
X127691998Y-70801492D01*
X127686000Y-70740592D01*
X127686000Y-69975408D01*
X127691998Y-69914508D01*
X127708332Y-69860665D01*
X127734855Y-69811042D01*
X127770549Y-69767549D01*
X127814042Y-69731855D01*
X127863665Y-69705332D01*
X127917508Y-69688998D01*
X127978408Y-69683000D01*
X128843592Y-69683000D01*
X128904492Y-69688998D01*
X128904492Y-69688998D01*
G37*
G36*
X130654492Y-69688998D02*
G01*
X130708335Y-69705332D01*
X130757958Y-69731855D01*
X130801451Y-69767549D01*
X130837145Y-69811042D01*
X130863668Y-69860665D01*
X130880002Y-69914508D01*
X130886000Y-69975408D01*
X130886000Y-70740592D01*
X130880002Y-70801492D01*
X130863668Y-70855335D01*
X130837145Y-70904958D01*
X130801451Y-70948451D01*
X130757958Y-70984145D01*
X130708335Y-71010668D01*
X130654492Y-71027002D01*
X130593592Y-71033000D01*
X129728408Y-71033000D01*
X129667508Y-71027002D01*
X129613665Y-71010668D01*
X129564042Y-70984145D01*
X129520549Y-70948451D01*
X129484855Y-70904958D01*
X129458332Y-70855335D01*
X129441998Y-70801492D01*
X129436000Y-70740592D01*
X129436000Y-69975408D01*
X129441998Y-69914508D01*
X129458332Y-69860665D01*
X129484855Y-69811042D01*
X129520549Y-69767549D01*
X129564042Y-69731855D01*
X129613665Y-69705332D01*
X129667508Y-69688998D01*
X129728408Y-69683000D01*
X130593592Y-69683000D01*
X130654492Y-69688998D01*
X130654492Y-69688998D01*
G37*
G36*
X108711492Y-68164998D02*
G01*
X108765335Y-68181332D01*
X108814958Y-68207855D01*
X108858451Y-68243549D01*
X108894145Y-68287042D01*
X108920668Y-68336665D01*
X108937002Y-68390508D01*
X108943000Y-68451408D01*
X108943000Y-69216592D01*
X108937002Y-69277492D01*
X108920668Y-69331335D01*
X108894145Y-69380958D01*
X108858451Y-69424451D01*
X108814958Y-69460145D01*
X108765335Y-69486668D01*
X108711492Y-69503002D01*
X108650592Y-69509000D01*
X107785408Y-69509000D01*
X107724508Y-69503002D01*
X107670665Y-69486668D01*
X107621042Y-69460145D01*
X107577549Y-69424451D01*
X107541855Y-69380958D01*
X107515332Y-69331335D01*
X107498998Y-69277492D01*
X107493000Y-69216592D01*
X107493000Y-68451408D01*
X107498998Y-68390508D01*
X107515332Y-68336665D01*
X107541855Y-68287042D01*
X107577549Y-68243549D01*
X107621042Y-68207855D01*
X107670665Y-68181332D01*
X107724508Y-68164998D01*
X107785408Y-68159000D01*
X108650592Y-68159000D01*
X108711492Y-68164998D01*
X108711492Y-68164998D01*
G37*
G36*
X110461492Y-68164998D02*
G01*
X110515335Y-68181332D01*
X110564958Y-68207855D01*
X110608451Y-68243549D01*
X110644145Y-68287042D01*
X110670668Y-68336665D01*
X110687002Y-68390508D01*
X110693000Y-68451408D01*
X110693000Y-69216592D01*
X110687002Y-69277492D01*
X110670668Y-69331335D01*
X110644145Y-69380958D01*
X110608451Y-69424451D01*
X110564958Y-69460145D01*
X110515335Y-69486668D01*
X110461492Y-69503002D01*
X110400592Y-69509000D01*
X109535408Y-69509000D01*
X109474508Y-69503002D01*
X109420665Y-69486668D01*
X109371042Y-69460145D01*
X109327549Y-69424451D01*
X109291855Y-69380958D01*
X109265332Y-69331335D01*
X109248998Y-69277492D01*
X109243000Y-69216592D01*
X109243000Y-68451408D01*
X109248998Y-68390508D01*
X109265332Y-68336665D01*
X109291855Y-68287042D01*
X109327549Y-68243549D01*
X109371042Y-68207855D01*
X109420665Y-68181332D01*
X109474508Y-68164998D01*
X109535408Y-68159000D01*
X110400592Y-68159000D01*
X110461492Y-68164998D01*
X110461492Y-68164998D01*
G37*
G36*
X155107271Y-67287395D02*
G01*
X155145836Y-67291193D01*
X155277787Y-67331220D01*
X155343763Y-67351233D01*
X155526169Y-67448731D01*
X155686054Y-67579946D01*
X155817269Y-67739831D01*
X155914767Y-67922237D01*
X155914767Y-67922238D01*
X155974807Y-68120164D01*
X155974807Y-68120166D01*
X155995081Y-68326000D01*
X155978287Y-68496500D01*
X155974807Y-68531836D01*
X155934780Y-68663787D01*
X155914767Y-68729763D01*
X155817269Y-68912169D01*
X155686054Y-69072054D01*
X155526169Y-69203269D01*
X155343763Y-69300767D01*
X155277787Y-69320780D01*
X155145836Y-69360807D01*
X155107271Y-69364605D01*
X154991584Y-69376000D01*
X154888416Y-69376000D01*
X154772729Y-69364605D01*
X154734164Y-69360807D01*
X154602213Y-69320780D01*
X154536237Y-69300767D01*
X154353831Y-69203269D01*
X154193946Y-69072054D01*
X154062731Y-68912169D01*
X153965233Y-68729763D01*
X153945220Y-68663787D01*
X153905193Y-68531836D01*
X153901713Y-68496500D01*
X153884919Y-68326000D01*
X153905193Y-68120166D01*
X153905193Y-68120164D01*
X153965233Y-67922238D01*
X153965233Y-67922237D01*
X154062731Y-67739831D01*
X154193946Y-67579946D01*
X154353831Y-67448731D01*
X154536237Y-67351233D01*
X154602213Y-67331220D01*
X154734164Y-67291193D01*
X154772729Y-67287395D01*
X154888416Y-67276000D01*
X154991584Y-67276000D01*
X155107271Y-67287395D01*
X155107271Y-67287395D01*
G37*
G36*
X136260000Y-69091000D02*
G01*
X132860000Y-69091000D01*
X132860000Y-66291000D01*
X136260000Y-66291000D01*
X136260000Y-69091000D01*
X136260000Y-69091000D01*
G37*
G36*
X141460000Y-69091000D02*
G01*
X138060000Y-69091000D01*
X138060000Y-66291000D01*
X141460000Y-66291000D01*
X141460000Y-69091000D01*
X141460000Y-69091000D01*
G37*
G36*
X128776000Y-68006000D02*
G01*
X124776000Y-68006000D01*
X124776000Y-66106000D01*
X128776000Y-66106000D01*
X128776000Y-68006000D01*
X128776000Y-68006000D01*
G37*
G36*
X108372179Y-65780862D02*
G01*
X108424700Y-65796795D01*
X108473096Y-65822663D01*
X108515521Y-65857479D01*
X108550337Y-65899904D01*
X108576205Y-65948300D01*
X108592138Y-66000821D01*
X108598000Y-66060342D01*
X108598000Y-67289658D01*
X108592138Y-67349179D01*
X108576205Y-67401700D01*
X108550337Y-67450096D01*
X108515521Y-67492521D01*
X108473096Y-67527337D01*
X108424700Y-67553205D01*
X108372179Y-67569138D01*
X108312658Y-67575000D01*
X107333342Y-67575000D01*
X107273821Y-67569138D01*
X107221300Y-67553205D01*
X107172904Y-67527337D01*
X107130479Y-67492521D01*
X107095663Y-67450096D01*
X107069795Y-67401700D01*
X107053862Y-67349179D01*
X107048000Y-67289658D01*
X107048000Y-66060342D01*
X107053862Y-66000821D01*
X107069795Y-65948300D01*
X107095663Y-65899904D01*
X107130479Y-65857479D01*
X107172904Y-65822663D01*
X107221300Y-65796795D01*
X107273821Y-65780862D01*
X107333342Y-65775000D01*
X108312658Y-65775000D01*
X108372179Y-65780862D01*
X108372179Y-65780862D01*
G37*
G36*
X110422179Y-65780862D02*
G01*
X110474700Y-65796795D01*
X110523096Y-65822663D01*
X110565521Y-65857479D01*
X110600337Y-65899904D01*
X110626205Y-65948300D01*
X110642138Y-66000821D01*
X110648000Y-66060342D01*
X110648000Y-67289658D01*
X110642138Y-67349179D01*
X110626205Y-67401700D01*
X110600337Y-67450096D01*
X110565521Y-67492521D01*
X110523096Y-67527337D01*
X110474700Y-67553205D01*
X110422179Y-67569138D01*
X110362658Y-67575000D01*
X109383342Y-67575000D01*
X109323821Y-67569138D01*
X109271300Y-67553205D01*
X109222904Y-67527337D01*
X109180479Y-67492521D01*
X109145663Y-67450096D01*
X109119795Y-67401700D01*
X109103862Y-67349179D01*
X109098000Y-67289658D01*
X109098000Y-66060342D01*
X109103862Y-66000821D01*
X109119795Y-65948300D01*
X109145663Y-65899904D01*
X109180479Y-65857479D01*
X109222904Y-65822663D01*
X109271300Y-65796795D01*
X109323821Y-65780862D01*
X109383342Y-65775000D01*
X110362658Y-65775000D01*
X110422179Y-65780862D01*
X110422179Y-65780862D01*
G37*
G36*
X150154271Y-64747395D02*
G01*
X150192836Y-64751193D01*
X150302005Y-64784309D01*
X150390763Y-64811233D01*
X150573169Y-64908731D01*
X150733054Y-65039946D01*
X150864269Y-65199831D01*
X150961767Y-65382237D01*
X150961767Y-65382238D01*
X151021807Y-65580164D01*
X151021807Y-65580166D01*
X151042081Y-65786000D01*
X151030098Y-65907656D01*
X151021807Y-65991836D01*
X150990917Y-66093668D01*
X150961767Y-66189763D01*
X150864269Y-66372169D01*
X150733054Y-66532054D01*
X150573169Y-66663269D01*
X150390763Y-66760767D01*
X150324787Y-66780780D01*
X150192836Y-66820807D01*
X150154271Y-66824605D01*
X150038584Y-66836000D01*
X149935416Y-66836000D01*
X149819729Y-66824605D01*
X149781164Y-66820807D01*
X149649213Y-66780780D01*
X149583237Y-66760767D01*
X149400831Y-66663269D01*
X149240946Y-66532054D01*
X149109731Y-66372169D01*
X149012233Y-66189763D01*
X148983083Y-66093668D01*
X148952193Y-65991836D01*
X148943902Y-65907656D01*
X148931919Y-65786000D01*
X148952193Y-65580166D01*
X148952193Y-65580164D01*
X149012233Y-65382238D01*
X149012233Y-65382237D01*
X149109731Y-65199831D01*
X149240946Y-65039946D01*
X149400831Y-64908731D01*
X149583237Y-64811233D01*
X149671995Y-64784309D01*
X149781164Y-64751193D01*
X149819729Y-64747395D01*
X149935416Y-64736000D01*
X150038584Y-64736000D01*
X150154271Y-64747395D01*
X150154271Y-64747395D01*
G37*
G36*
X148497000Y-66836000D02*
G01*
X146397000Y-66836000D01*
X146397000Y-64736000D01*
X148497000Y-64736000D01*
X148497000Y-66836000D01*
X148497000Y-66836000D01*
G37*
G36*
X155107271Y-64747395D02*
G01*
X155145836Y-64751193D01*
X155255005Y-64784309D01*
X155343763Y-64811233D01*
X155526169Y-64908731D01*
X155686054Y-65039946D01*
X155817269Y-65199831D01*
X155914767Y-65382237D01*
X155914767Y-65382238D01*
X155974807Y-65580164D01*
X155974807Y-65580166D01*
X155995081Y-65786000D01*
X155983098Y-65907656D01*
X155974807Y-65991836D01*
X155943917Y-66093668D01*
X155914767Y-66189763D01*
X155817269Y-66372169D01*
X155686054Y-66532054D01*
X155526169Y-66663269D01*
X155343763Y-66760767D01*
X155277787Y-66780780D01*
X155145836Y-66820807D01*
X155107271Y-66824605D01*
X154991584Y-66836000D01*
X154888416Y-66836000D01*
X154772729Y-66824605D01*
X154734164Y-66820807D01*
X154602213Y-66780780D01*
X154536237Y-66760767D01*
X154353831Y-66663269D01*
X154193946Y-66532054D01*
X154062731Y-66372169D01*
X153965233Y-66189763D01*
X153936083Y-66093668D01*
X153905193Y-65991836D01*
X153896902Y-65907656D01*
X153884919Y-65786000D01*
X153905193Y-65580166D01*
X153905193Y-65580164D01*
X153965233Y-65382238D01*
X153965233Y-65382237D01*
X154062731Y-65199831D01*
X154193946Y-65039946D01*
X154353831Y-64908731D01*
X154536237Y-64811233D01*
X154624995Y-64784309D01*
X154734164Y-64751193D01*
X154772729Y-64747395D01*
X154888416Y-64736000D01*
X154991584Y-64736000D01*
X155107271Y-64747395D01*
X155107271Y-64747395D01*
G37*
G36*
X120966492Y-64671998D02*
G01*
X121020335Y-64688332D01*
X121069958Y-64714855D01*
X121113451Y-64750549D01*
X121149145Y-64794042D01*
X121175668Y-64843665D01*
X121192002Y-64897508D01*
X121198000Y-64958408D01*
X121198000Y-65823592D01*
X121192002Y-65884492D01*
X121175668Y-65938335D01*
X121149145Y-65987958D01*
X121113451Y-66031451D01*
X121069958Y-66067145D01*
X121020335Y-66093668D01*
X120966492Y-66110002D01*
X120905592Y-66116000D01*
X120140408Y-66116000D01*
X120079508Y-66110002D01*
X120025665Y-66093668D01*
X119976042Y-66067145D01*
X119932549Y-66031451D01*
X119896855Y-65987958D01*
X119870332Y-65938335D01*
X119853998Y-65884492D01*
X119848000Y-65823592D01*
X119848000Y-64958408D01*
X119853998Y-64897508D01*
X119870332Y-64843665D01*
X119896855Y-64794042D01*
X119932549Y-64750549D01*
X119976042Y-64714855D01*
X120025665Y-64688332D01*
X120079508Y-64671998D01*
X120140408Y-64666000D01*
X120905592Y-64666000D01*
X120966492Y-64671998D01*
X120966492Y-64671998D01*
G37*
G36*
X108711492Y-63846998D02*
G01*
X108765335Y-63863332D01*
X108814958Y-63889855D01*
X108858451Y-63925549D01*
X108894145Y-63969042D01*
X108920668Y-64018665D01*
X108937002Y-64072508D01*
X108943000Y-64133408D01*
X108943000Y-64898592D01*
X108937002Y-64959492D01*
X108920668Y-65013335D01*
X108894145Y-65062958D01*
X108858451Y-65106451D01*
X108814958Y-65142145D01*
X108765335Y-65168668D01*
X108711492Y-65185002D01*
X108650592Y-65191000D01*
X107785408Y-65191000D01*
X107724508Y-65185002D01*
X107670665Y-65168668D01*
X107621042Y-65142145D01*
X107577549Y-65106451D01*
X107541855Y-65062958D01*
X107515332Y-65013335D01*
X107498998Y-64959492D01*
X107493000Y-64898592D01*
X107493000Y-64133408D01*
X107498998Y-64072508D01*
X107515332Y-64018665D01*
X107541855Y-63969042D01*
X107577549Y-63925549D01*
X107621042Y-63889855D01*
X107670665Y-63863332D01*
X107724508Y-63846998D01*
X107785408Y-63841000D01*
X108650592Y-63841000D01*
X108711492Y-63846998D01*
X108711492Y-63846998D01*
G37*
G36*
X110461492Y-63846998D02*
G01*
X110515335Y-63863332D01*
X110564958Y-63889855D01*
X110608451Y-63925549D01*
X110644145Y-63969042D01*
X110670668Y-64018665D01*
X110687002Y-64072508D01*
X110693000Y-64133408D01*
X110693000Y-64898592D01*
X110687002Y-64959492D01*
X110670668Y-65013335D01*
X110644145Y-65062958D01*
X110608451Y-65106451D01*
X110564958Y-65142145D01*
X110515335Y-65168668D01*
X110461492Y-65185002D01*
X110400592Y-65191000D01*
X109535408Y-65191000D01*
X109474508Y-65185002D01*
X109420665Y-65168668D01*
X109371042Y-65142145D01*
X109327549Y-65106451D01*
X109291855Y-65062958D01*
X109265332Y-65013335D01*
X109248998Y-64959492D01*
X109243000Y-64898592D01*
X109243000Y-64133408D01*
X109248998Y-64072508D01*
X109265332Y-64018665D01*
X109291855Y-63969042D01*
X109327549Y-63925549D01*
X109371042Y-63889855D01*
X109420665Y-63863332D01*
X109474508Y-63846998D01*
X109535408Y-63841000D01*
X110400592Y-63841000D01*
X110461492Y-63846998D01*
X110461492Y-63846998D01*
G37*
G36*
X134238492Y-63465998D02*
G01*
X134292335Y-63482332D01*
X134341958Y-63508855D01*
X134385451Y-63544549D01*
X134421145Y-63588042D01*
X134447668Y-63637665D01*
X134464002Y-63691508D01*
X134470000Y-63752408D01*
X134470000Y-64517592D01*
X134464002Y-64578492D01*
X134447668Y-64632335D01*
X134421145Y-64681958D01*
X134385451Y-64725451D01*
X134341958Y-64761145D01*
X134292335Y-64787668D01*
X134238492Y-64804002D01*
X134177592Y-64810000D01*
X133312408Y-64810000D01*
X133251508Y-64804002D01*
X133197665Y-64787668D01*
X133148042Y-64761145D01*
X133104549Y-64725451D01*
X133068855Y-64681958D01*
X133042332Y-64632335D01*
X133025998Y-64578492D01*
X133020000Y-64517592D01*
X133020000Y-63752408D01*
X133025998Y-63691508D01*
X133042332Y-63637665D01*
X133068855Y-63588042D01*
X133104549Y-63544549D01*
X133148042Y-63508855D01*
X133197665Y-63482332D01*
X133251508Y-63465998D01*
X133312408Y-63460000D01*
X134177592Y-63460000D01*
X134238492Y-63465998D01*
X134238492Y-63465998D01*
G37*
G36*
X140814492Y-63465998D02*
G01*
X140868335Y-63482332D01*
X140917958Y-63508855D01*
X140961451Y-63544549D01*
X140997145Y-63588042D01*
X141023668Y-63637665D01*
X141040002Y-63691508D01*
X141046000Y-63752408D01*
X141046000Y-64517592D01*
X141040002Y-64578492D01*
X141023668Y-64632335D01*
X140997145Y-64681958D01*
X140961451Y-64725451D01*
X140917958Y-64761145D01*
X140868335Y-64787668D01*
X140814492Y-64804002D01*
X140753592Y-64810000D01*
X139888408Y-64810000D01*
X139827508Y-64804002D01*
X139773665Y-64787668D01*
X139724042Y-64761145D01*
X139680549Y-64725451D01*
X139644855Y-64681958D01*
X139618332Y-64632335D01*
X139601998Y-64578492D01*
X139596000Y-64517592D01*
X139596000Y-63752408D01*
X139601998Y-63691508D01*
X139618332Y-63637665D01*
X139644855Y-63588042D01*
X139680549Y-63544549D01*
X139724042Y-63508855D01*
X139773665Y-63482332D01*
X139827508Y-63465998D01*
X139888408Y-63460000D01*
X140753592Y-63460000D01*
X140814492Y-63465998D01*
X140814492Y-63465998D01*
G37*
G36*
X139064492Y-63465998D02*
G01*
X139118335Y-63482332D01*
X139167958Y-63508855D01*
X139211451Y-63544549D01*
X139247145Y-63588042D01*
X139273668Y-63637665D01*
X139290002Y-63691508D01*
X139296000Y-63752408D01*
X139296000Y-64517592D01*
X139290002Y-64578492D01*
X139273668Y-64632335D01*
X139247145Y-64681958D01*
X139211451Y-64725451D01*
X139167958Y-64761145D01*
X139118335Y-64787668D01*
X139064492Y-64804002D01*
X139003592Y-64810000D01*
X138138408Y-64810000D01*
X138077508Y-64804002D01*
X138023665Y-64787668D01*
X137974042Y-64761145D01*
X137930549Y-64725451D01*
X137894855Y-64681958D01*
X137868332Y-64632335D01*
X137851998Y-64578492D01*
X137846000Y-64517592D01*
X137846000Y-63752408D01*
X137851998Y-63691508D01*
X137868332Y-63637665D01*
X137894855Y-63588042D01*
X137930549Y-63544549D01*
X137974042Y-63508855D01*
X138023665Y-63482332D01*
X138077508Y-63465998D01*
X138138408Y-63460000D01*
X139003592Y-63460000D01*
X139064492Y-63465998D01*
X139064492Y-63465998D01*
G37*
G36*
X135988492Y-63465998D02*
G01*
X136042335Y-63482332D01*
X136091958Y-63508855D01*
X136135451Y-63544549D01*
X136171145Y-63588042D01*
X136197668Y-63637665D01*
X136214002Y-63691508D01*
X136220000Y-63752408D01*
X136220000Y-64517592D01*
X136214002Y-64578492D01*
X136197668Y-64632335D01*
X136171145Y-64681958D01*
X136135451Y-64725451D01*
X136091958Y-64761145D01*
X136042335Y-64787668D01*
X135988492Y-64804002D01*
X135927592Y-64810000D01*
X135062408Y-64810000D01*
X135001508Y-64804002D01*
X134947665Y-64787668D01*
X134898042Y-64761145D01*
X134854549Y-64725451D01*
X134818855Y-64681958D01*
X134792332Y-64632335D01*
X134775998Y-64578492D01*
X134770000Y-64517592D01*
X134770000Y-63752408D01*
X134775998Y-63691508D01*
X134792332Y-63637665D01*
X134818855Y-63588042D01*
X134854549Y-63544549D01*
X134898042Y-63508855D01*
X134947665Y-63482332D01*
X135001508Y-63465998D01*
X135062408Y-63460000D01*
X135927592Y-63460000D01*
X135988492Y-63465998D01*
X135988492Y-63465998D01*
G37*
G36*
X120966492Y-62921998D02*
G01*
X121020335Y-62938332D01*
X121069958Y-62964855D01*
X121113451Y-63000549D01*
X121149145Y-63044042D01*
X121175668Y-63093665D01*
X121192002Y-63147508D01*
X121198000Y-63208408D01*
X121198000Y-64073592D01*
X121192002Y-64134492D01*
X121175668Y-64188335D01*
X121149145Y-64237958D01*
X121113451Y-64281451D01*
X121069958Y-64317145D01*
X121020335Y-64343668D01*
X120966492Y-64360002D01*
X120905592Y-64366000D01*
X120140408Y-64366000D01*
X120079508Y-64360002D01*
X120025665Y-64343668D01*
X119976042Y-64317145D01*
X119932549Y-64281451D01*
X119896855Y-64237958D01*
X119870332Y-64188335D01*
X119853998Y-64134492D01*
X119848000Y-64073592D01*
X119848000Y-63208408D01*
X119853998Y-63147508D01*
X119870332Y-63093665D01*
X119896855Y-63044042D01*
X119932549Y-63000549D01*
X119976042Y-62964855D01*
X120025665Y-62938332D01*
X120079508Y-62921998D01*
X120140408Y-62916000D01*
X120905592Y-62916000D01*
X120966492Y-62921998D01*
X120966492Y-62921998D01*
G37*
G36*
X128746000Y-64323000D02*
G01*
X124746000Y-64323000D01*
X124746000Y-62423000D01*
X128746000Y-62423000D01*
X128746000Y-64323000D01*
X128746000Y-64323000D01*
G37*
G36*
X155107271Y-62207395D02*
G01*
X155145836Y-62211193D01*
X155277787Y-62251220D01*
X155343763Y-62271233D01*
X155526169Y-62368731D01*
X155686054Y-62499946D01*
X155817269Y-62659831D01*
X155914767Y-62842237D01*
X155914767Y-62842238D01*
X155974807Y-63040164D01*
X155974807Y-63040166D01*
X155995081Y-63246000D01*
X155978143Y-63417961D01*
X155974807Y-63451836D01*
X155955076Y-63516879D01*
X155914767Y-63649763D01*
X155817269Y-63832169D01*
X155686054Y-63992054D01*
X155526169Y-64123269D01*
X155343763Y-64220767D01*
X155287091Y-64237958D01*
X155145836Y-64280807D01*
X155107272Y-64284605D01*
X154991584Y-64296000D01*
X154888416Y-64296000D01*
X154772728Y-64284605D01*
X154734164Y-64280807D01*
X154592909Y-64237958D01*
X154536237Y-64220767D01*
X154353831Y-64123269D01*
X154193946Y-63992054D01*
X154062731Y-63832169D01*
X153965233Y-63649763D01*
X153924924Y-63516879D01*
X153905193Y-63451836D01*
X153901857Y-63417961D01*
X153884919Y-63246000D01*
X153905193Y-63040166D01*
X153905193Y-63040164D01*
X153965233Y-62842238D01*
X153965233Y-62842237D01*
X154062731Y-62659831D01*
X154193946Y-62499946D01*
X154353831Y-62368731D01*
X154536237Y-62271233D01*
X154602213Y-62251220D01*
X154734164Y-62211193D01*
X154772729Y-62207395D01*
X154888416Y-62196000D01*
X154991584Y-62196000D01*
X155107271Y-62207395D01*
X155107271Y-62207395D01*
G37*
G36*
X144587000Y-63688000D02*
G01*
X142687000Y-63688000D01*
X142687000Y-61788000D01*
X144587000Y-61788000D01*
X144587000Y-63688000D01*
X144587000Y-63688000D01*
G37*
G36*
X108354179Y-61462862D02*
G01*
X108406700Y-61478795D01*
X108455096Y-61504663D01*
X108497521Y-61539479D01*
X108532337Y-61581904D01*
X108558205Y-61630300D01*
X108574138Y-61682821D01*
X108580000Y-61742342D01*
X108580000Y-62971658D01*
X108574138Y-63031179D01*
X108558205Y-63083700D01*
X108532337Y-63132096D01*
X108497521Y-63174521D01*
X108455096Y-63209337D01*
X108406700Y-63235205D01*
X108354179Y-63251138D01*
X108294658Y-63257000D01*
X107315342Y-63257000D01*
X107255821Y-63251138D01*
X107203300Y-63235205D01*
X107154904Y-63209337D01*
X107112479Y-63174521D01*
X107077663Y-63132096D01*
X107051795Y-63083700D01*
X107035862Y-63031179D01*
X107030000Y-62971658D01*
X107030000Y-61742342D01*
X107035862Y-61682821D01*
X107051795Y-61630300D01*
X107077663Y-61581904D01*
X107112479Y-61539479D01*
X107154904Y-61504663D01*
X107203300Y-61478795D01*
X107255821Y-61462862D01*
X107315342Y-61457000D01*
X108294658Y-61457000D01*
X108354179Y-61462862D01*
X108354179Y-61462862D01*
G37*
G36*
X110404179Y-61462862D02*
G01*
X110456700Y-61478795D01*
X110505096Y-61504663D01*
X110547521Y-61539479D01*
X110582337Y-61581904D01*
X110608205Y-61630300D01*
X110624138Y-61682821D01*
X110630000Y-61742342D01*
X110630000Y-62971658D01*
X110624138Y-63031179D01*
X110608205Y-63083700D01*
X110582337Y-63132096D01*
X110547521Y-63174521D01*
X110505096Y-63209337D01*
X110456700Y-63235205D01*
X110404179Y-63251138D01*
X110344658Y-63257000D01*
X109365342Y-63257000D01*
X109305821Y-63251138D01*
X109253300Y-63235205D01*
X109204904Y-63209337D01*
X109162479Y-63174521D01*
X109127663Y-63132096D01*
X109101795Y-63083700D01*
X109085862Y-63031179D01*
X109080000Y-62971658D01*
X109080000Y-61742342D01*
X109085862Y-61682821D01*
X109101795Y-61630300D01*
X109127663Y-61581904D01*
X109162479Y-61539479D01*
X109204904Y-61504663D01*
X109253300Y-61478795D01*
X109305821Y-61462862D01*
X109365342Y-61457000D01*
X110344658Y-61457000D01*
X110404179Y-61462862D01*
X110404179Y-61462862D01*
G37*
G36*
X108711492Y-59528998D02*
G01*
X108765335Y-59545332D01*
X108814958Y-59571855D01*
X108858451Y-59607549D01*
X108894145Y-59651042D01*
X108920668Y-59700665D01*
X108937002Y-59754508D01*
X108943000Y-59815408D01*
X108943000Y-60580592D01*
X108937002Y-60641492D01*
X108920668Y-60695335D01*
X108894145Y-60744958D01*
X108858451Y-60788451D01*
X108814958Y-60824145D01*
X108765335Y-60850668D01*
X108711492Y-60867002D01*
X108650592Y-60873000D01*
X107785408Y-60873000D01*
X107724508Y-60867002D01*
X107670665Y-60850668D01*
X107621042Y-60824145D01*
X107577549Y-60788451D01*
X107541855Y-60744958D01*
X107515332Y-60695335D01*
X107498998Y-60641492D01*
X107493000Y-60580592D01*
X107493000Y-59815408D01*
X107498998Y-59754508D01*
X107515332Y-59700665D01*
X107541855Y-59651042D01*
X107577549Y-59607549D01*
X107621042Y-59571855D01*
X107670665Y-59545332D01*
X107724508Y-59528998D01*
X107785408Y-59523000D01*
X108650592Y-59523000D01*
X108711492Y-59528998D01*
X108711492Y-59528998D01*
G37*
G36*
X110461492Y-59528998D02*
G01*
X110515335Y-59545332D01*
X110564958Y-59571855D01*
X110608451Y-59607549D01*
X110644145Y-59651042D01*
X110670668Y-59700665D01*
X110687002Y-59754508D01*
X110693000Y-59815408D01*
X110693000Y-60580592D01*
X110687002Y-60641492D01*
X110670668Y-60695335D01*
X110644145Y-60744958D01*
X110608451Y-60788451D01*
X110564958Y-60824145D01*
X110515335Y-60850668D01*
X110461492Y-60867002D01*
X110400592Y-60873000D01*
X109535408Y-60873000D01*
X109474508Y-60867002D01*
X109420665Y-60850668D01*
X109371042Y-60824145D01*
X109327549Y-60788451D01*
X109291855Y-60744958D01*
X109265332Y-60695335D01*
X109248998Y-60641492D01*
X109243000Y-60580592D01*
X109243000Y-59815408D01*
X109248998Y-59754508D01*
X109265332Y-59700665D01*
X109291855Y-59651042D01*
X109327549Y-59607549D01*
X109371042Y-59571855D01*
X109420665Y-59545332D01*
X109474508Y-59528998D01*
X109535408Y-59523000D01*
X110400592Y-59523000D01*
X110461492Y-59528998D01*
X110461492Y-59528998D01*
G37*
G36*
X119706801Y-57300044D02*
G01*
X119743530Y-57303661D01*
X119795919Y-57319553D01*
X119908469Y-57353694D01*
X120060475Y-57434943D01*
X120193712Y-57544288D01*
X120303057Y-57677525D01*
X120384306Y-57829531D01*
X120418447Y-57942081D01*
X120434339Y-57994470D01*
X120434339Y-57994472D01*
X120451234Y-58166000D01*
X120437119Y-58309301D01*
X120434339Y-58337530D01*
X120418447Y-58389919D01*
X120384306Y-58502469D01*
X120303057Y-58654475D01*
X120193712Y-58787712D01*
X120060475Y-58897057D01*
X119908469Y-58978306D01*
X119795919Y-59012447D01*
X119743530Y-59028339D01*
X119706801Y-59031956D01*
X119614984Y-59041000D01*
X119529016Y-59041000D01*
X119437199Y-59031956D01*
X119400470Y-59028339D01*
X119348081Y-59012447D01*
X119235531Y-58978306D01*
X119083525Y-58897057D01*
X118950288Y-58787712D01*
X118840943Y-58654475D01*
X118759694Y-58502469D01*
X118725553Y-58389919D01*
X118709661Y-58337530D01*
X118706881Y-58309301D01*
X118692766Y-58166000D01*
X118709661Y-57994472D01*
X118709661Y-57994470D01*
X118725553Y-57942081D01*
X118759694Y-57829531D01*
X118840943Y-57677525D01*
X118950288Y-57544288D01*
X119083525Y-57434943D01*
X119235531Y-57353694D01*
X119348081Y-57319553D01*
X119400470Y-57303661D01*
X119437199Y-57300044D01*
X119529016Y-57291000D01*
X119614984Y-57291000D01*
X119706801Y-57300044D01*
X119706801Y-57300044D01*
G37*
G36*
X127706801Y-57300044D02*
G01*
X127743530Y-57303661D01*
X127795919Y-57319553D01*
X127908469Y-57353694D01*
X128060475Y-57434943D01*
X128193712Y-57544288D01*
X128303057Y-57677525D01*
X128384306Y-57829531D01*
X128418447Y-57942081D01*
X128434339Y-57994470D01*
X128434339Y-57994472D01*
X128451234Y-58166000D01*
X128437119Y-58309301D01*
X128434339Y-58337530D01*
X128418447Y-58389919D01*
X128384306Y-58502469D01*
X128303057Y-58654475D01*
X128193712Y-58787712D01*
X128060475Y-58897057D01*
X127908469Y-58978306D01*
X127795919Y-59012447D01*
X127743530Y-59028339D01*
X127706801Y-59031956D01*
X127614984Y-59041000D01*
X127529016Y-59041000D01*
X127437199Y-59031956D01*
X127400470Y-59028339D01*
X127348081Y-59012447D01*
X127235531Y-58978306D01*
X127083525Y-58897057D01*
X126950288Y-58787712D01*
X126840943Y-58654475D01*
X126759694Y-58502469D01*
X126725553Y-58389919D01*
X126709661Y-58337530D01*
X126706881Y-58309301D01*
X126692766Y-58166000D01*
X126709661Y-57994472D01*
X126709661Y-57994470D01*
X126725553Y-57942081D01*
X126759694Y-57829531D01*
X126840943Y-57677525D01*
X126950288Y-57544288D01*
X127083525Y-57434943D01*
X127235531Y-57353694D01*
X127348081Y-57319553D01*
X127400470Y-57303661D01*
X127437199Y-57300044D01*
X127529016Y-57291000D01*
X127614984Y-57291000D01*
X127706801Y-57300044D01*
X127706801Y-57300044D01*
G37*
G36*
X129706801Y-57300044D02*
G01*
X129743530Y-57303661D01*
X129795919Y-57319553D01*
X129908469Y-57353694D01*
X130060475Y-57434943D01*
X130193712Y-57544288D01*
X130303057Y-57677525D01*
X130384306Y-57829531D01*
X130418447Y-57942081D01*
X130434339Y-57994470D01*
X130434339Y-57994472D01*
X130451234Y-58166000D01*
X130437119Y-58309301D01*
X130434339Y-58337530D01*
X130418447Y-58389919D01*
X130384306Y-58502469D01*
X130303057Y-58654475D01*
X130193712Y-58787712D01*
X130060475Y-58897057D01*
X129908469Y-58978306D01*
X129795919Y-59012447D01*
X129743530Y-59028339D01*
X129706801Y-59031956D01*
X129614984Y-59041000D01*
X129529016Y-59041000D01*
X129437199Y-59031956D01*
X129400470Y-59028339D01*
X129348081Y-59012447D01*
X129235531Y-58978306D01*
X129083525Y-58897057D01*
X128950288Y-58787712D01*
X128840943Y-58654475D01*
X128759694Y-58502469D01*
X128725553Y-58389919D01*
X128709661Y-58337530D01*
X128706881Y-58309301D01*
X128692766Y-58166000D01*
X128709661Y-57994472D01*
X128709661Y-57994470D01*
X128725553Y-57942081D01*
X128759694Y-57829531D01*
X128840943Y-57677525D01*
X128950288Y-57544288D01*
X129083525Y-57434943D01*
X129235531Y-57353694D01*
X129348081Y-57319553D01*
X129400470Y-57303661D01*
X129437199Y-57300044D01*
X129529016Y-57291000D01*
X129614984Y-57291000D01*
X129706801Y-57300044D01*
X129706801Y-57300044D01*
G37*
G36*
X117706801Y-57300044D02*
G01*
X117743530Y-57303661D01*
X117795919Y-57319553D01*
X117908469Y-57353694D01*
X118060475Y-57434943D01*
X118193712Y-57544288D01*
X118303057Y-57677525D01*
X118384306Y-57829531D01*
X118418447Y-57942081D01*
X118434339Y-57994470D01*
X118434339Y-57994472D01*
X118451234Y-58166000D01*
X118437119Y-58309301D01*
X118434339Y-58337530D01*
X118418447Y-58389919D01*
X118384306Y-58502469D01*
X118303057Y-58654475D01*
X118193712Y-58787712D01*
X118060475Y-58897057D01*
X117908469Y-58978306D01*
X117795919Y-59012447D01*
X117743530Y-59028339D01*
X117706801Y-59031956D01*
X117614984Y-59041000D01*
X117529016Y-59041000D01*
X117437199Y-59031956D01*
X117400470Y-59028339D01*
X117348081Y-59012447D01*
X117235531Y-58978306D01*
X117083525Y-58897057D01*
X116950288Y-58787712D01*
X116840943Y-58654475D01*
X116759694Y-58502469D01*
X116725553Y-58389919D01*
X116709661Y-58337530D01*
X116706881Y-58309301D01*
X116692766Y-58166000D01*
X116709661Y-57994472D01*
X116709661Y-57994470D01*
X116725553Y-57942081D01*
X116759694Y-57829531D01*
X116840943Y-57677525D01*
X116950288Y-57544288D01*
X117083525Y-57434943D01*
X117235531Y-57353694D01*
X117348081Y-57319553D01*
X117400470Y-57303661D01*
X117437199Y-57300044D01*
X117529016Y-57291000D01*
X117614984Y-57291000D01*
X117706801Y-57300044D01*
X117706801Y-57300044D01*
G37*
G36*
X121706801Y-57300044D02*
G01*
X121743530Y-57303661D01*
X121795919Y-57319553D01*
X121908469Y-57353694D01*
X122060475Y-57434943D01*
X122193712Y-57544288D01*
X122303057Y-57677525D01*
X122384306Y-57829531D01*
X122418447Y-57942081D01*
X122434339Y-57994470D01*
X122434339Y-57994472D01*
X122451234Y-58166000D01*
X122437119Y-58309301D01*
X122434339Y-58337530D01*
X122418447Y-58389919D01*
X122384306Y-58502469D01*
X122303057Y-58654475D01*
X122193712Y-58787712D01*
X122060475Y-58897057D01*
X121908469Y-58978306D01*
X121795919Y-59012447D01*
X121743530Y-59028339D01*
X121706801Y-59031956D01*
X121614984Y-59041000D01*
X121529016Y-59041000D01*
X121437199Y-59031956D01*
X121400470Y-59028339D01*
X121348081Y-59012447D01*
X121235531Y-58978306D01*
X121083525Y-58897057D01*
X120950288Y-58787712D01*
X120840943Y-58654475D01*
X120759694Y-58502469D01*
X120725553Y-58389919D01*
X120709661Y-58337530D01*
X120706881Y-58309301D01*
X120692766Y-58166000D01*
X120709661Y-57994472D01*
X120709661Y-57994470D01*
X120725553Y-57942081D01*
X120759694Y-57829531D01*
X120840943Y-57677525D01*
X120950288Y-57544288D01*
X121083525Y-57434943D01*
X121235531Y-57353694D01*
X121348081Y-57319553D01*
X121400470Y-57303661D01*
X121437199Y-57300044D01*
X121529016Y-57291000D01*
X121614984Y-57291000D01*
X121706801Y-57300044D01*
X121706801Y-57300044D01*
G37*
G36*
X114447000Y-59041000D02*
G01*
X112697000Y-59041000D01*
X112697000Y-57291000D01*
X114447000Y-57291000D01*
X114447000Y-59041000D01*
X114447000Y-59041000D01*
G37*
G36*
X115706801Y-57300044D02*
G01*
X115743530Y-57303661D01*
X115795919Y-57319553D01*
X115908469Y-57353694D01*
X116060475Y-57434943D01*
X116193712Y-57544288D01*
X116303057Y-57677525D01*
X116384306Y-57829531D01*
X116418447Y-57942081D01*
X116434339Y-57994470D01*
X116434339Y-57994472D01*
X116451234Y-58166000D01*
X116437119Y-58309301D01*
X116434339Y-58337530D01*
X116418447Y-58389919D01*
X116384306Y-58502469D01*
X116303057Y-58654475D01*
X116193712Y-58787712D01*
X116060475Y-58897057D01*
X115908469Y-58978306D01*
X115795919Y-59012447D01*
X115743530Y-59028339D01*
X115706801Y-59031956D01*
X115614984Y-59041000D01*
X115529016Y-59041000D01*
X115437199Y-59031956D01*
X115400470Y-59028339D01*
X115348081Y-59012447D01*
X115235531Y-58978306D01*
X115083525Y-58897057D01*
X114950288Y-58787712D01*
X114840943Y-58654475D01*
X114759694Y-58502469D01*
X114725553Y-58389919D01*
X114709661Y-58337530D01*
X114706881Y-58309301D01*
X114692766Y-58166000D01*
X114709661Y-57994472D01*
X114709661Y-57994470D01*
X114725553Y-57942081D01*
X114759694Y-57829531D01*
X114840943Y-57677525D01*
X114950288Y-57544288D01*
X115083525Y-57434943D01*
X115235531Y-57353694D01*
X115348081Y-57319553D01*
X115400470Y-57303661D01*
X115437199Y-57300044D01*
X115529016Y-57291000D01*
X115614984Y-57291000D01*
X115706801Y-57300044D01*
X115706801Y-57300044D01*
G37*
G36*
X139706801Y-57300044D02*
G01*
X139743530Y-57303661D01*
X139795919Y-57319553D01*
X139908469Y-57353694D01*
X140060475Y-57434943D01*
X140193712Y-57544288D01*
X140303057Y-57677525D01*
X140384306Y-57829531D01*
X140418447Y-57942081D01*
X140434339Y-57994470D01*
X140434339Y-57994472D01*
X140451234Y-58166000D01*
X140437119Y-58309301D01*
X140434339Y-58337530D01*
X140418447Y-58389919D01*
X140384306Y-58502469D01*
X140303057Y-58654475D01*
X140193712Y-58787712D01*
X140060475Y-58897057D01*
X139908469Y-58978306D01*
X139795919Y-59012447D01*
X139743530Y-59028339D01*
X139706801Y-59031956D01*
X139614984Y-59041000D01*
X139529016Y-59041000D01*
X139437199Y-59031956D01*
X139400470Y-59028339D01*
X139348081Y-59012447D01*
X139235531Y-58978306D01*
X139083525Y-58897057D01*
X138950288Y-58787712D01*
X138840943Y-58654475D01*
X138759694Y-58502469D01*
X138725553Y-58389919D01*
X138709661Y-58337530D01*
X138706881Y-58309301D01*
X138692766Y-58166000D01*
X138709661Y-57994472D01*
X138709661Y-57994470D01*
X138725553Y-57942081D01*
X138759694Y-57829531D01*
X138840943Y-57677525D01*
X138950288Y-57544288D01*
X139083525Y-57434943D01*
X139235531Y-57353694D01*
X139348081Y-57319553D01*
X139400470Y-57303661D01*
X139437199Y-57300044D01*
X139529016Y-57291000D01*
X139614984Y-57291000D01*
X139706801Y-57300044D01*
X139706801Y-57300044D01*
G37*
G36*
X137706801Y-57300044D02*
G01*
X137743530Y-57303661D01*
X137795919Y-57319553D01*
X137908469Y-57353694D01*
X138060475Y-57434943D01*
X138193712Y-57544288D01*
X138303057Y-57677525D01*
X138384306Y-57829531D01*
X138418447Y-57942081D01*
X138434339Y-57994470D01*
X138434339Y-57994472D01*
X138451234Y-58166000D01*
X138437119Y-58309301D01*
X138434339Y-58337530D01*
X138418447Y-58389919D01*
X138384306Y-58502469D01*
X138303057Y-58654475D01*
X138193712Y-58787712D01*
X138060475Y-58897057D01*
X137908469Y-58978306D01*
X137795919Y-59012447D01*
X137743530Y-59028339D01*
X137706801Y-59031956D01*
X137614984Y-59041000D01*
X137529016Y-59041000D01*
X137437199Y-59031956D01*
X137400470Y-59028339D01*
X137348081Y-59012447D01*
X137235531Y-58978306D01*
X137083525Y-58897057D01*
X136950288Y-58787712D01*
X136840943Y-58654475D01*
X136759694Y-58502469D01*
X136725553Y-58389919D01*
X136709661Y-58337530D01*
X136706881Y-58309301D01*
X136692766Y-58166000D01*
X136709661Y-57994472D01*
X136709661Y-57994470D01*
X136725553Y-57942081D01*
X136759694Y-57829531D01*
X136840943Y-57677525D01*
X136950288Y-57544288D01*
X137083525Y-57434943D01*
X137235531Y-57353694D01*
X137348081Y-57319553D01*
X137400470Y-57303661D01*
X137437199Y-57300044D01*
X137529016Y-57291000D01*
X137614984Y-57291000D01*
X137706801Y-57300044D01*
X137706801Y-57300044D01*
G37*
G36*
X135706801Y-57300044D02*
G01*
X135743530Y-57303661D01*
X135795919Y-57319553D01*
X135908469Y-57353694D01*
X136060475Y-57434943D01*
X136193712Y-57544288D01*
X136303057Y-57677525D01*
X136384306Y-57829531D01*
X136418447Y-57942081D01*
X136434339Y-57994470D01*
X136434339Y-57994472D01*
X136451234Y-58166000D01*
X136437119Y-58309301D01*
X136434339Y-58337530D01*
X136418447Y-58389919D01*
X136384306Y-58502469D01*
X136303057Y-58654475D01*
X136193712Y-58787712D01*
X136060475Y-58897057D01*
X135908469Y-58978306D01*
X135795919Y-59012447D01*
X135743530Y-59028339D01*
X135706801Y-59031956D01*
X135614984Y-59041000D01*
X135529016Y-59041000D01*
X135437199Y-59031956D01*
X135400470Y-59028339D01*
X135348081Y-59012447D01*
X135235531Y-58978306D01*
X135083525Y-58897057D01*
X134950288Y-58787712D01*
X134840943Y-58654475D01*
X134759694Y-58502469D01*
X134725553Y-58389919D01*
X134709661Y-58337530D01*
X134706881Y-58309301D01*
X134692766Y-58166000D01*
X134709661Y-57994472D01*
X134709661Y-57994470D01*
X134725553Y-57942081D01*
X134759694Y-57829531D01*
X134840943Y-57677525D01*
X134950288Y-57544288D01*
X135083525Y-57434943D01*
X135235531Y-57353694D01*
X135348081Y-57319553D01*
X135400470Y-57303661D01*
X135437199Y-57300044D01*
X135529016Y-57291000D01*
X135614984Y-57291000D01*
X135706801Y-57300044D01*
X135706801Y-57300044D01*
G37*
G36*
X133706801Y-57300044D02*
G01*
X133743530Y-57303661D01*
X133795919Y-57319553D01*
X133908469Y-57353694D01*
X134060475Y-57434943D01*
X134193712Y-57544288D01*
X134303057Y-57677525D01*
X134384306Y-57829531D01*
X134418447Y-57942081D01*
X134434339Y-57994470D01*
X134434339Y-57994472D01*
X134451234Y-58166000D01*
X134437119Y-58309301D01*
X134434339Y-58337530D01*
X134418447Y-58389919D01*
X134384306Y-58502469D01*
X134303057Y-58654475D01*
X134193712Y-58787712D01*
X134060475Y-58897057D01*
X133908469Y-58978306D01*
X133795919Y-59012447D01*
X133743530Y-59028339D01*
X133706801Y-59031956D01*
X133614984Y-59041000D01*
X133529016Y-59041000D01*
X133437199Y-59031956D01*
X133400470Y-59028339D01*
X133348081Y-59012447D01*
X133235531Y-58978306D01*
X133083525Y-58897057D01*
X132950288Y-58787712D01*
X132840943Y-58654475D01*
X132759694Y-58502469D01*
X132725553Y-58389919D01*
X132709661Y-58337530D01*
X132706881Y-58309301D01*
X132692766Y-58166000D01*
X132709661Y-57994472D01*
X132709661Y-57994470D01*
X132725553Y-57942081D01*
X132759694Y-57829531D01*
X132840943Y-57677525D01*
X132950288Y-57544288D01*
X133083525Y-57434943D01*
X133235531Y-57353694D01*
X133348081Y-57319553D01*
X133400470Y-57303661D01*
X133437199Y-57300044D01*
X133529016Y-57291000D01*
X133614984Y-57291000D01*
X133706801Y-57300044D01*
X133706801Y-57300044D01*
G37*
G36*
X123706801Y-57300044D02*
G01*
X123743530Y-57303661D01*
X123795919Y-57319553D01*
X123908469Y-57353694D01*
X124060475Y-57434943D01*
X124193712Y-57544288D01*
X124303057Y-57677525D01*
X124384306Y-57829531D01*
X124418447Y-57942081D01*
X124434339Y-57994470D01*
X124434339Y-57994472D01*
X124451234Y-58166000D01*
X124437119Y-58309301D01*
X124434339Y-58337530D01*
X124418447Y-58389919D01*
X124384306Y-58502469D01*
X124303057Y-58654475D01*
X124193712Y-58787712D01*
X124060475Y-58897057D01*
X123908469Y-58978306D01*
X123795919Y-59012447D01*
X123743530Y-59028339D01*
X123706801Y-59031956D01*
X123614984Y-59041000D01*
X123529016Y-59041000D01*
X123437199Y-59031956D01*
X123400470Y-59028339D01*
X123348081Y-59012447D01*
X123235531Y-58978306D01*
X123083525Y-58897057D01*
X122950288Y-58787712D01*
X122840943Y-58654475D01*
X122759694Y-58502469D01*
X122725553Y-58389919D01*
X122709661Y-58337530D01*
X122706881Y-58309301D01*
X122692766Y-58166000D01*
X122709661Y-57994472D01*
X122709661Y-57994470D01*
X122725553Y-57942081D01*
X122759694Y-57829531D01*
X122840943Y-57677525D01*
X122950288Y-57544288D01*
X123083525Y-57434943D01*
X123235531Y-57353694D01*
X123348081Y-57319553D01*
X123400470Y-57303661D01*
X123437199Y-57300044D01*
X123529016Y-57291000D01*
X123614984Y-57291000D01*
X123706801Y-57300044D01*
X123706801Y-57300044D01*
G37*
G36*
X131706801Y-57300044D02*
G01*
X131743530Y-57303661D01*
X131795919Y-57319553D01*
X131908469Y-57353694D01*
X132060475Y-57434943D01*
X132193712Y-57544288D01*
X132303057Y-57677525D01*
X132384306Y-57829531D01*
X132418447Y-57942081D01*
X132434339Y-57994470D01*
X132434339Y-57994472D01*
X132451234Y-58166000D01*
X132437119Y-58309301D01*
X132434339Y-58337530D01*
X132418447Y-58389919D01*
X132384306Y-58502469D01*
X132303057Y-58654475D01*
X132193712Y-58787712D01*
X132060475Y-58897057D01*
X131908469Y-58978306D01*
X131795919Y-59012447D01*
X131743530Y-59028339D01*
X131706801Y-59031956D01*
X131614984Y-59041000D01*
X131529016Y-59041000D01*
X131437199Y-59031956D01*
X131400470Y-59028339D01*
X131348081Y-59012447D01*
X131235531Y-58978306D01*
X131083525Y-58897057D01*
X130950288Y-58787712D01*
X130840943Y-58654475D01*
X130759694Y-58502469D01*
X130725553Y-58389919D01*
X130709661Y-58337530D01*
X130706881Y-58309301D01*
X130692766Y-58166000D01*
X130709661Y-57994472D01*
X130709661Y-57994470D01*
X130725553Y-57942081D01*
X130759694Y-57829531D01*
X130840943Y-57677525D01*
X130950288Y-57544288D01*
X131083525Y-57434943D01*
X131235531Y-57353694D01*
X131348081Y-57319553D01*
X131400470Y-57303661D01*
X131437199Y-57300044D01*
X131529016Y-57291000D01*
X131614984Y-57291000D01*
X131706801Y-57300044D01*
X131706801Y-57300044D01*
G37*
G36*
X125706801Y-57300044D02*
G01*
X125743530Y-57303661D01*
X125795919Y-57319553D01*
X125908469Y-57353694D01*
X126060475Y-57434943D01*
X126193712Y-57544288D01*
X126303057Y-57677525D01*
X126384306Y-57829531D01*
X126418447Y-57942081D01*
X126434339Y-57994470D01*
X126434339Y-57994472D01*
X126451234Y-58166000D01*
X126437119Y-58309301D01*
X126434339Y-58337530D01*
X126418447Y-58389919D01*
X126384306Y-58502469D01*
X126303057Y-58654475D01*
X126193712Y-58787712D01*
X126060475Y-58897057D01*
X125908469Y-58978306D01*
X125795919Y-59012447D01*
X125743530Y-59028339D01*
X125706801Y-59031956D01*
X125614984Y-59041000D01*
X125529016Y-59041000D01*
X125437199Y-59031956D01*
X125400470Y-59028339D01*
X125348081Y-59012447D01*
X125235531Y-58978306D01*
X125083525Y-58897057D01*
X124950288Y-58787712D01*
X124840943Y-58654475D01*
X124759694Y-58502469D01*
X124725553Y-58389919D01*
X124709661Y-58337530D01*
X124706881Y-58309301D01*
X124692766Y-58166000D01*
X124709661Y-57994472D01*
X124709661Y-57994470D01*
X124725553Y-57942081D01*
X124759694Y-57829531D01*
X124840943Y-57677525D01*
X124950288Y-57544288D01*
X125083525Y-57434943D01*
X125235531Y-57353694D01*
X125348081Y-57319553D01*
X125400470Y-57303661D01*
X125437199Y-57300044D01*
X125529016Y-57291000D01*
X125614984Y-57291000D01*
X125706801Y-57300044D01*
X125706801Y-57300044D01*
G37*
M02*
