G04 #@! TF.GenerationSoftware,KiCad,Pcbnew,(5.1.0-0)*
G04 #@! TF.CreationDate,2019-04-21T15:27:38+03:00*
G04 #@! TF.ProjectId,ovms-swcan,6f766d73-2d73-4776-9361-6e2e6b696361,1.0*
G04 #@! TF.SameCoordinates,Original*
G04 #@! TF.FileFunction,Copper,L2,Inr*
G04 #@! TF.FilePolarity,Positive*
%FSLAX46Y46*%
G04 Gerber Fmt 4.6, Leading zero omitted, Abs format (unit mm)*
G04 Created by KiCad (PCBNEW (5.1.0-0)) date 2019-04-21 15:27:38*
%MOMM*%
%LPD*%
G04 APERTURE LIST*
%ADD10R,1.500000X1.500000*%
%ADD11O,1.700000X1.700000*%
%ADD12R,1.700000X1.700000*%
%ADD13O,1.350000X1.350000*%
%ADD14R,1.350000X1.350000*%
%ADD15C,2.000000*%
%ADD16C,0.635000*%
%ADD17C,1.000000*%
%ADD18C,0.254000*%
G04 APERTURE END LIST*
D10*
X143637000Y-62738000D03*
D11*
X154940000Y-63246000D03*
X154940000Y-65786000D03*
X154940000Y-68326000D03*
X154940000Y-70866000D03*
X154940000Y-73406000D03*
X154940000Y-75946000D03*
X154940000Y-78486000D03*
X154940000Y-81026000D03*
X154940000Y-83566000D03*
X154940000Y-86106000D03*
X154940000Y-88646000D03*
X154940000Y-91186000D03*
D12*
X154940000Y-93726000D03*
D11*
X113538000Y-91694000D03*
D12*
X113538000Y-94234000D03*
D11*
X149987000Y-65786000D03*
D12*
X147447000Y-65786000D03*
D13*
X139572000Y-58166000D03*
X131572000Y-58166000D03*
X125572000Y-58166000D03*
X135572000Y-58166000D03*
X123572000Y-58166000D03*
X137572000Y-58166000D03*
X133572000Y-58166000D03*
X115572000Y-58166000D03*
D14*
X113572000Y-58166000D03*
D13*
X121572000Y-58166000D03*
X117572000Y-58166000D03*
X129572000Y-58166000D03*
X119572000Y-58166000D03*
X127572000Y-58166000D03*
X139572000Y-98806000D03*
X137572000Y-98806000D03*
X135572000Y-98806000D03*
X133572000Y-98806000D03*
X131572000Y-98806000D03*
X129572000Y-98806000D03*
X127572000Y-98806000D03*
X125572000Y-98806000D03*
X123572000Y-98806000D03*
X121572000Y-98806000D03*
X119572000Y-98806000D03*
X117572000Y-98806000D03*
X115572000Y-98806000D03*
D14*
X113572000Y-98806000D03*
D15*
X107061000Y-99187000D03*
X159131000Y-99187000D03*
X105156000Y-57658000D03*
X159131000Y-57658000D03*
D16*
X118872000Y-80264000D03*
X134366000Y-71120000D03*
X129667000Y-89535000D03*
X119380000Y-72898000D03*
X147066000Y-78486000D03*
X137033000Y-65278000D03*
X106299000Y-66675000D03*
X131572000Y-71374000D03*
X143256000Y-94488000D03*
X132842000Y-95504000D03*
X129286000Y-85090000D03*
X146685000Y-83185000D03*
X120523000Y-62230000D03*
X116078000Y-68580000D03*
X138430000Y-89916000D03*
X142240000Y-87376000D03*
X158750000Y-79629000D03*
X125476000Y-69342000D03*
X123444000Y-67564000D03*
X123444000Y-63500000D03*
X134620000Y-78867000D03*
X124460000Y-68580000D03*
X135890000Y-77978000D03*
D17*
X137668000Y-60960000D02*
X137572000Y-60864000D01*
X136652000Y-61976000D02*
X137668000Y-60960000D01*
X122682000Y-61976000D02*
X136652000Y-61976000D01*
X137572000Y-60864000D02*
X137572000Y-58166000D01*
X116078000Y-68580000D02*
X122682000Y-61976000D01*
X145415000Y-60706000D02*
X147447000Y-62738000D01*
X137572000Y-59120594D02*
X139157406Y-60706000D01*
X147447000Y-62738000D02*
X147447000Y-65659000D01*
X139157406Y-60706000D02*
X145415000Y-60706000D01*
X137572000Y-58166000D02*
X137572000Y-59120594D01*
D18*
G36*
X157861013Y-56615748D02*
G01*
X157682082Y-56883537D01*
X157558832Y-57181088D01*
X157496000Y-57496967D01*
X157496000Y-57819033D01*
X157558832Y-58134912D01*
X157682082Y-58432463D01*
X157861013Y-58700252D01*
X158088748Y-58927987D01*
X158356537Y-59106918D01*
X158654088Y-59230168D01*
X158969967Y-59293000D01*
X159292033Y-59293000D01*
X159607912Y-59230168D01*
X159905463Y-59106918D01*
X160173252Y-58927987D01*
X160400987Y-58700252D01*
X160579918Y-58432463D01*
X160630000Y-58311555D01*
X160630001Y-98533448D01*
X160579918Y-98412537D01*
X160400987Y-98144748D01*
X160173252Y-97917013D01*
X159905463Y-97738082D01*
X159607912Y-97614832D01*
X159292033Y-97552000D01*
X158969967Y-97552000D01*
X158654088Y-97614832D01*
X158356537Y-97738082D01*
X158088748Y-97917013D01*
X157861013Y-98144748D01*
X157682082Y-98412537D01*
X157558832Y-98710088D01*
X157496000Y-99025967D01*
X157496000Y-99348033D01*
X157558832Y-99663912D01*
X157682082Y-99961463D01*
X157861013Y-100229252D01*
X158088748Y-100456987D01*
X158088767Y-100457000D01*
X108103233Y-100457000D01*
X108103252Y-100456987D01*
X108330987Y-100229252D01*
X108509918Y-99961463D01*
X108633168Y-99663912D01*
X108669551Y-99481000D01*
X112258928Y-99481000D01*
X112271188Y-99605482D01*
X112307498Y-99725180D01*
X112366463Y-99835494D01*
X112445815Y-99932185D01*
X112542506Y-100011537D01*
X112652820Y-100070502D01*
X112772518Y-100106812D01*
X112897000Y-100119072D01*
X113286250Y-100116000D01*
X113445000Y-99957250D01*
X113445000Y-98933000D01*
X112420750Y-98933000D01*
X112262000Y-99091750D01*
X112258928Y-99481000D01*
X108669551Y-99481000D01*
X108696000Y-99348033D01*
X108696000Y-99025967D01*
X108633168Y-98710088D01*
X108509918Y-98412537D01*
X108330987Y-98144748D01*
X108317239Y-98131000D01*
X112258928Y-98131000D01*
X112262000Y-98520250D01*
X112420750Y-98679000D01*
X113445000Y-98679000D01*
X113445000Y-97654750D01*
X113699000Y-97654750D01*
X113699000Y-98679000D01*
X113719000Y-98679000D01*
X113719000Y-98933000D01*
X113699000Y-98933000D01*
X113699000Y-99957250D01*
X113857750Y-100116000D01*
X114247000Y-100119072D01*
X114371482Y-100106812D01*
X114491180Y-100070502D01*
X114601494Y-100011537D01*
X114698185Y-99932185D01*
X114771074Y-99843369D01*
X114840682Y-99900495D01*
X115068259Y-100022138D01*
X115315195Y-100097045D01*
X115507649Y-100116000D01*
X115636351Y-100116000D01*
X115828805Y-100097045D01*
X116075741Y-100022138D01*
X116303318Y-99900495D01*
X116502792Y-99736792D01*
X116572000Y-99652461D01*
X116641208Y-99736792D01*
X116840682Y-99900495D01*
X117068259Y-100022138D01*
X117315195Y-100097045D01*
X117507649Y-100116000D01*
X117636351Y-100116000D01*
X117828805Y-100097045D01*
X118075741Y-100022138D01*
X118303318Y-99900495D01*
X118502792Y-99736792D01*
X118572000Y-99652461D01*
X118641208Y-99736792D01*
X118840682Y-99900495D01*
X119068259Y-100022138D01*
X119315195Y-100097045D01*
X119507649Y-100116000D01*
X119636351Y-100116000D01*
X119828805Y-100097045D01*
X120075741Y-100022138D01*
X120303318Y-99900495D01*
X120502792Y-99736792D01*
X120572000Y-99652461D01*
X120641208Y-99736792D01*
X120840682Y-99900495D01*
X121068259Y-100022138D01*
X121315195Y-100097045D01*
X121507649Y-100116000D01*
X121636351Y-100116000D01*
X121828805Y-100097045D01*
X122075741Y-100022138D01*
X122303318Y-99900495D01*
X122502792Y-99736792D01*
X122572000Y-99652461D01*
X122641208Y-99736792D01*
X122840682Y-99900495D01*
X123068259Y-100022138D01*
X123315195Y-100097045D01*
X123507649Y-100116000D01*
X123636351Y-100116000D01*
X123828805Y-100097045D01*
X124075741Y-100022138D01*
X124303318Y-99900495D01*
X124502792Y-99736792D01*
X124572000Y-99652461D01*
X124641208Y-99736792D01*
X124840682Y-99900495D01*
X125068259Y-100022138D01*
X125315195Y-100097045D01*
X125507649Y-100116000D01*
X125636351Y-100116000D01*
X125828805Y-100097045D01*
X126075741Y-100022138D01*
X126303318Y-99900495D01*
X126502792Y-99736792D01*
X126572000Y-99652461D01*
X126641208Y-99736792D01*
X126840682Y-99900495D01*
X127068259Y-100022138D01*
X127315195Y-100097045D01*
X127507649Y-100116000D01*
X127636351Y-100116000D01*
X127828805Y-100097045D01*
X128075741Y-100022138D01*
X128303318Y-99900495D01*
X128502792Y-99736792D01*
X128572000Y-99652461D01*
X128641208Y-99736792D01*
X128840682Y-99900495D01*
X129068259Y-100022138D01*
X129315195Y-100097045D01*
X129507649Y-100116000D01*
X129636351Y-100116000D01*
X129828805Y-100097045D01*
X130075741Y-100022138D01*
X130303318Y-99900495D01*
X130502792Y-99736792D01*
X130572000Y-99652461D01*
X130641208Y-99736792D01*
X130840682Y-99900495D01*
X131068259Y-100022138D01*
X131315195Y-100097045D01*
X131507649Y-100116000D01*
X131636351Y-100116000D01*
X131828805Y-100097045D01*
X132075741Y-100022138D01*
X132303318Y-99900495D01*
X132502792Y-99736792D01*
X132572000Y-99652461D01*
X132641208Y-99736792D01*
X132840682Y-99900495D01*
X133068259Y-100022138D01*
X133315195Y-100097045D01*
X133507649Y-100116000D01*
X133636351Y-100116000D01*
X133828805Y-100097045D01*
X134075741Y-100022138D01*
X134303318Y-99900495D01*
X134502792Y-99736792D01*
X134572000Y-99652461D01*
X134641208Y-99736792D01*
X134840682Y-99900495D01*
X135068259Y-100022138D01*
X135315195Y-100097045D01*
X135507649Y-100116000D01*
X135636351Y-100116000D01*
X135828805Y-100097045D01*
X136075741Y-100022138D01*
X136303318Y-99900495D01*
X136502792Y-99736792D01*
X136572000Y-99652461D01*
X136641208Y-99736792D01*
X136840682Y-99900495D01*
X137068259Y-100022138D01*
X137315195Y-100097045D01*
X137507649Y-100116000D01*
X137636351Y-100116000D01*
X137828805Y-100097045D01*
X138075741Y-100022138D01*
X138303318Y-99900495D01*
X138502792Y-99736792D01*
X138572000Y-99652461D01*
X138641208Y-99736792D01*
X138840682Y-99900495D01*
X139068259Y-100022138D01*
X139315195Y-100097045D01*
X139507649Y-100116000D01*
X139636351Y-100116000D01*
X139828805Y-100097045D01*
X140075741Y-100022138D01*
X140303318Y-99900495D01*
X140502792Y-99736792D01*
X140666495Y-99537318D01*
X140788138Y-99309741D01*
X140863045Y-99062805D01*
X140888338Y-98806000D01*
X140863045Y-98549195D01*
X140788138Y-98302259D01*
X140666495Y-98074682D01*
X140502792Y-97875208D01*
X140303318Y-97711505D01*
X140075741Y-97589862D01*
X139828805Y-97514955D01*
X139636351Y-97496000D01*
X139507649Y-97496000D01*
X139315195Y-97514955D01*
X139068259Y-97589862D01*
X138840682Y-97711505D01*
X138641208Y-97875208D01*
X138572000Y-97959539D01*
X138502792Y-97875208D01*
X138303318Y-97711505D01*
X138075741Y-97589862D01*
X137828805Y-97514955D01*
X137636351Y-97496000D01*
X137507649Y-97496000D01*
X137315195Y-97514955D01*
X137068259Y-97589862D01*
X136840682Y-97711505D01*
X136641208Y-97875208D01*
X136572000Y-97959539D01*
X136502792Y-97875208D01*
X136303318Y-97711505D01*
X136075741Y-97589862D01*
X135828805Y-97514955D01*
X135636351Y-97496000D01*
X135507649Y-97496000D01*
X135315195Y-97514955D01*
X135068259Y-97589862D01*
X134840682Y-97711505D01*
X134641208Y-97875208D01*
X134572000Y-97959539D01*
X134502792Y-97875208D01*
X134303318Y-97711505D01*
X134075741Y-97589862D01*
X133828805Y-97514955D01*
X133636351Y-97496000D01*
X133507649Y-97496000D01*
X133315195Y-97514955D01*
X133068259Y-97589862D01*
X132840682Y-97711505D01*
X132641208Y-97875208D01*
X132572000Y-97959539D01*
X132502792Y-97875208D01*
X132303318Y-97711505D01*
X132075741Y-97589862D01*
X131828805Y-97514955D01*
X131636351Y-97496000D01*
X131507649Y-97496000D01*
X131315195Y-97514955D01*
X131068259Y-97589862D01*
X130840682Y-97711505D01*
X130641208Y-97875208D01*
X130572000Y-97959539D01*
X130502792Y-97875208D01*
X130303318Y-97711505D01*
X130075741Y-97589862D01*
X129828805Y-97514955D01*
X129636351Y-97496000D01*
X129507649Y-97496000D01*
X129315195Y-97514955D01*
X129068259Y-97589862D01*
X128840682Y-97711505D01*
X128641208Y-97875208D01*
X128572000Y-97959539D01*
X128502792Y-97875208D01*
X128303318Y-97711505D01*
X128075741Y-97589862D01*
X127828805Y-97514955D01*
X127636351Y-97496000D01*
X127507649Y-97496000D01*
X127315195Y-97514955D01*
X127068259Y-97589862D01*
X126840682Y-97711505D01*
X126641208Y-97875208D01*
X126572000Y-97959539D01*
X126502792Y-97875208D01*
X126303318Y-97711505D01*
X126075741Y-97589862D01*
X125828805Y-97514955D01*
X125636351Y-97496000D01*
X125507649Y-97496000D01*
X125315195Y-97514955D01*
X125068259Y-97589862D01*
X124840682Y-97711505D01*
X124641208Y-97875208D01*
X124572000Y-97959539D01*
X124502792Y-97875208D01*
X124303318Y-97711505D01*
X124075741Y-97589862D01*
X123828805Y-97514955D01*
X123636351Y-97496000D01*
X123507649Y-97496000D01*
X123315195Y-97514955D01*
X123068259Y-97589862D01*
X122840682Y-97711505D01*
X122641208Y-97875208D01*
X122572000Y-97959539D01*
X122502792Y-97875208D01*
X122303318Y-97711505D01*
X122075741Y-97589862D01*
X121828805Y-97514955D01*
X121636351Y-97496000D01*
X121507649Y-97496000D01*
X121315195Y-97514955D01*
X121068259Y-97589862D01*
X120840682Y-97711505D01*
X120641208Y-97875208D01*
X120572000Y-97959539D01*
X120502792Y-97875208D01*
X120303318Y-97711505D01*
X120075741Y-97589862D01*
X119828805Y-97514955D01*
X119636351Y-97496000D01*
X119507649Y-97496000D01*
X119315195Y-97514955D01*
X119068259Y-97589862D01*
X118840682Y-97711505D01*
X118641208Y-97875208D01*
X118572000Y-97959539D01*
X118502792Y-97875208D01*
X118303318Y-97711505D01*
X118075741Y-97589862D01*
X117828805Y-97514955D01*
X117636351Y-97496000D01*
X117507649Y-97496000D01*
X117315195Y-97514955D01*
X117068259Y-97589862D01*
X116840682Y-97711505D01*
X116641208Y-97875208D01*
X116572000Y-97959539D01*
X116502792Y-97875208D01*
X116303318Y-97711505D01*
X116075741Y-97589862D01*
X115828805Y-97514955D01*
X115636351Y-97496000D01*
X115507649Y-97496000D01*
X115315195Y-97514955D01*
X115068259Y-97589862D01*
X114840682Y-97711505D01*
X114771074Y-97768631D01*
X114698185Y-97679815D01*
X114601494Y-97600463D01*
X114491180Y-97541498D01*
X114371482Y-97505188D01*
X114247000Y-97492928D01*
X113857750Y-97496000D01*
X113699000Y-97654750D01*
X113445000Y-97654750D01*
X113286250Y-97496000D01*
X112897000Y-97492928D01*
X112772518Y-97505188D01*
X112652820Y-97541498D01*
X112542506Y-97600463D01*
X112445815Y-97679815D01*
X112366463Y-97776506D01*
X112307498Y-97886820D01*
X112271188Y-98006518D01*
X112258928Y-98131000D01*
X108317239Y-98131000D01*
X108103252Y-97917013D01*
X107835463Y-97738082D01*
X107537912Y-97614832D01*
X107222033Y-97552000D01*
X106899967Y-97552000D01*
X106584088Y-97614832D01*
X106286537Y-97738082D01*
X106018748Y-97917013D01*
X105791013Y-98144748D01*
X105612082Y-98412537D01*
X105488832Y-98710088D01*
X105426000Y-99025967D01*
X105426000Y-99348033D01*
X105488832Y-99663912D01*
X105612082Y-99961463D01*
X105791013Y-100229252D01*
X106018748Y-100456987D01*
X106018767Y-100457000D01*
X103530000Y-100457000D01*
X103530000Y-91694000D01*
X112045815Y-91694000D01*
X112074487Y-91985111D01*
X112159401Y-92265034D01*
X112297294Y-92523014D01*
X112482866Y-92749134D01*
X112512687Y-92773607D01*
X112443820Y-92794498D01*
X112333506Y-92853463D01*
X112236815Y-92932815D01*
X112157463Y-93029506D01*
X112098498Y-93139820D01*
X112062188Y-93259518D01*
X112049928Y-93384000D01*
X112049928Y-95084000D01*
X112062188Y-95208482D01*
X112098498Y-95328180D01*
X112157463Y-95438494D01*
X112236815Y-95535185D01*
X112333506Y-95614537D01*
X112443820Y-95673502D01*
X112563518Y-95709812D01*
X112688000Y-95722072D01*
X114388000Y-95722072D01*
X114512482Y-95709812D01*
X114632180Y-95673502D01*
X114742494Y-95614537D01*
X114839185Y-95535185D01*
X114918537Y-95438494D01*
X114977502Y-95328180D01*
X115013812Y-95208482D01*
X115026072Y-95084000D01*
X115026072Y-93384000D01*
X115013812Y-93259518D01*
X114977502Y-93139820D01*
X114918537Y-93029506D01*
X114839185Y-92932815D01*
X114742494Y-92853463D01*
X114632180Y-92794498D01*
X114563313Y-92773607D01*
X114593134Y-92749134D01*
X114778706Y-92523014D01*
X114916599Y-92265034D01*
X115001513Y-91985111D01*
X115030185Y-91694000D01*
X115001513Y-91402889D01*
X114916599Y-91122966D01*
X114778706Y-90864986D01*
X114593134Y-90638866D01*
X114367014Y-90453294D01*
X114109034Y-90315401D01*
X113829111Y-90230487D01*
X113610950Y-90209000D01*
X113465050Y-90209000D01*
X113246889Y-90230487D01*
X112966966Y-90315401D01*
X112708986Y-90453294D01*
X112482866Y-90638866D01*
X112297294Y-90864986D01*
X112159401Y-91122966D01*
X112074487Y-91402889D01*
X112045815Y-91694000D01*
X103530000Y-91694000D01*
X103530000Y-89441187D01*
X128714500Y-89441187D01*
X128714500Y-89628813D01*
X128751104Y-89812834D01*
X128822905Y-89986178D01*
X128927145Y-90142184D01*
X129059816Y-90274855D01*
X129215822Y-90379095D01*
X129389166Y-90450896D01*
X129573187Y-90487500D01*
X129760813Y-90487500D01*
X129944834Y-90450896D01*
X130118178Y-90379095D01*
X130274184Y-90274855D01*
X130406855Y-90142184D01*
X130511095Y-89986178D01*
X130579021Y-89822187D01*
X137477500Y-89822187D01*
X137477500Y-90009813D01*
X137514104Y-90193834D01*
X137585905Y-90367178D01*
X137690145Y-90523184D01*
X137822816Y-90655855D01*
X137978822Y-90760095D01*
X138152166Y-90831896D01*
X138336187Y-90868500D01*
X138523813Y-90868500D01*
X138707834Y-90831896D01*
X138881178Y-90760095D01*
X139037184Y-90655855D01*
X139169855Y-90523184D01*
X139274095Y-90367178D01*
X139345896Y-90193834D01*
X139382500Y-90009813D01*
X139382500Y-89822187D01*
X139345896Y-89638166D01*
X139274095Y-89464822D01*
X139169855Y-89308816D01*
X139037184Y-89176145D01*
X138881178Y-89071905D01*
X138707834Y-89000104D01*
X138523813Y-88963500D01*
X138336187Y-88963500D01*
X138152166Y-89000104D01*
X137978822Y-89071905D01*
X137822816Y-89176145D01*
X137690145Y-89308816D01*
X137585905Y-89464822D01*
X137514104Y-89638166D01*
X137477500Y-89822187D01*
X130579021Y-89822187D01*
X130582896Y-89812834D01*
X130619500Y-89628813D01*
X130619500Y-89441187D01*
X130582896Y-89257166D01*
X130511095Y-89083822D01*
X130406855Y-88927816D01*
X130274184Y-88795145D01*
X130118178Y-88690905D01*
X129944834Y-88619104D01*
X129760813Y-88582500D01*
X129573187Y-88582500D01*
X129389166Y-88619104D01*
X129215822Y-88690905D01*
X129059816Y-88795145D01*
X128927145Y-88927816D01*
X128822905Y-89083822D01*
X128751104Y-89257166D01*
X128714500Y-89441187D01*
X103530000Y-89441187D01*
X103530000Y-87282187D01*
X141287500Y-87282187D01*
X141287500Y-87469813D01*
X141324104Y-87653834D01*
X141395905Y-87827178D01*
X141500145Y-87983184D01*
X141632816Y-88115855D01*
X141788822Y-88220095D01*
X141962166Y-88291896D01*
X142146187Y-88328500D01*
X142333813Y-88328500D01*
X142517834Y-88291896D01*
X142691178Y-88220095D01*
X142847184Y-88115855D01*
X142979855Y-87983184D01*
X143084095Y-87827178D01*
X143155896Y-87653834D01*
X143192500Y-87469813D01*
X143192500Y-87282187D01*
X143155896Y-87098166D01*
X143084095Y-86924822D01*
X142979855Y-86768816D01*
X142847184Y-86636145D01*
X142691178Y-86531905D01*
X142517834Y-86460104D01*
X142333813Y-86423500D01*
X142146187Y-86423500D01*
X141962166Y-86460104D01*
X141788822Y-86531905D01*
X141632816Y-86636145D01*
X141500145Y-86768816D01*
X141395905Y-86924822D01*
X141324104Y-87098166D01*
X141287500Y-87282187D01*
X103530000Y-87282187D01*
X103530000Y-80170187D01*
X117919500Y-80170187D01*
X117919500Y-80357813D01*
X117956104Y-80541834D01*
X118027905Y-80715178D01*
X118132145Y-80871184D01*
X118264816Y-81003855D01*
X118420822Y-81108095D01*
X118594166Y-81179896D01*
X118778187Y-81216500D01*
X118965813Y-81216500D01*
X119149834Y-81179896D01*
X119323178Y-81108095D01*
X119479184Y-81003855D01*
X119611855Y-80871184D01*
X119716095Y-80715178D01*
X119787896Y-80541834D01*
X119824500Y-80357813D01*
X119824500Y-80170187D01*
X119787896Y-79986166D01*
X119716095Y-79812822D01*
X119611855Y-79656816D01*
X119479184Y-79524145D01*
X119323178Y-79419905D01*
X119149834Y-79348104D01*
X118965813Y-79311500D01*
X118778187Y-79311500D01*
X118594166Y-79348104D01*
X118420822Y-79419905D01*
X118264816Y-79524145D01*
X118132145Y-79656816D01*
X118027905Y-79812822D01*
X117956104Y-79986166D01*
X117919500Y-80170187D01*
X103530000Y-80170187D01*
X103530000Y-78773187D01*
X133667500Y-78773187D01*
X133667500Y-78960813D01*
X133704104Y-79144834D01*
X133775905Y-79318178D01*
X133880145Y-79474184D01*
X134012816Y-79606855D01*
X134168822Y-79711095D01*
X134342166Y-79782896D01*
X134526187Y-79819500D01*
X134713813Y-79819500D01*
X134897834Y-79782896D01*
X135071178Y-79711095D01*
X135227184Y-79606855D01*
X135359855Y-79474184D01*
X135464095Y-79318178D01*
X135535896Y-79144834D01*
X135572500Y-78960813D01*
X135572500Y-78877466D01*
X135612166Y-78893896D01*
X135796187Y-78930500D01*
X135983813Y-78930500D01*
X136167834Y-78893896D01*
X136341178Y-78822095D01*
X136497184Y-78717855D01*
X136629855Y-78585184D01*
X136734095Y-78429178D01*
X136749417Y-78392187D01*
X146113500Y-78392187D01*
X146113500Y-78579813D01*
X146150104Y-78763834D01*
X146221905Y-78937178D01*
X146326145Y-79093184D01*
X146458816Y-79225855D01*
X146614822Y-79330095D01*
X146788166Y-79401896D01*
X146972187Y-79438500D01*
X147159813Y-79438500D01*
X147343834Y-79401896D01*
X147517178Y-79330095D01*
X147673184Y-79225855D01*
X147805855Y-79093184D01*
X147910095Y-78937178D01*
X147981896Y-78763834D01*
X148018500Y-78579813D01*
X148018500Y-78392187D01*
X147981896Y-78208166D01*
X147910095Y-78034822D01*
X147805855Y-77878816D01*
X147673184Y-77746145D01*
X147517178Y-77641905D01*
X147343834Y-77570104D01*
X147159813Y-77533500D01*
X146972187Y-77533500D01*
X146788166Y-77570104D01*
X146614822Y-77641905D01*
X146458816Y-77746145D01*
X146326145Y-77878816D01*
X146221905Y-78034822D01*
X146150104Y-78208166D01*
X146113500Y-78392187D01*
X136749417Y-78392187D01*
X136805896Y-78255834D01*
X136842500Y-78071813D01*
X136842500Y-77884187D01*
X136805896Y-77700166D01*
X136734095Y-77526822D01*
X136629855Y-77370816D01*
X136497184Y-77238145D01*
X136341178Y-77133905D01*
X136167834Y-77062104D01*
X135983813Y-77025500D01*
X135796187Y-77025500D01*
X135612166Y-77062104D01*
X135438822Y-77133905D01*
X135282816Y-77238145D01*
X135150145Y-77370816D01*
X135045905Y-77526822D01*
X134974104Y-77700166D01*
X134937500Y-77884187D01*
X134937500Y-77967534D01*
X134897834Y-77951104D01*
X134713813Y-77914500D01*
X134526187Y-77914500D01*
X134342166Y-77951104D01*
X134168822Y-78022905D01*
X134012816Y-78127145D01*
X133880145Y-78259816D01*
X133775905Y-78415822D01*
X133704104Y-78589166D01*
X133667500Y-78773187D01*
X103530000Y-78773187D01*
X103530000Y-72804187D01*
X118427500Y-72804187D01*
X118427500Y-72991813D01*
X118464104Y-73175834D01*
X118535905Y-73349178D01*
X118640145Y-73505184D01*
X118772816Y-73637855D01*
X118928822Y-73742095D01*
X119102166Y-73813896D01*
X119286187Y-73850500D01*
X119473813Y-73850500D01*
X119657834Y-73813896D01*
X119831178Y-73742095D01*
X119987184Y-73637855D01*
X120119855Y-73505184D01*
X120224095Y-73349178D01*
X120295896Y-73175834D01*
X120332500Y-72991813D01*
X120332500Y-72804187D01*
X120295896Y-72620166D01*
X120224095Y-72446822D01*
X120119855Y-72290816D01*
X119987184Y-72158145D01*
X119831178Y-72053905D01*
X119657834Y-71982104D01*
X119473813Y-71945500D01*
X119286187Y-71945500D01*
X119102166Y-71982104D01*
X118928822Y-72053905D01*
X118772816Y-72158145D01*
X118640145Y-72290816D01*
X118535905Y-72446822D01*
X118464104Y-72620166D01*
X118427500Y-72804187D01*
X103530000Y-72804187D01*
X103530000Y-71026187D01*
X133413500Y-71026187D01*
X133413500Y-71213813D01*
X133450104Y-71397834D01*
X133521905Y-71571178D01*
X133626145Y-71727184D01*
X133758816Y-71859855D01*
X133914822Y-71964095D01*
X134088166Y-72035896D01*
X134272187Y-72072500D01*
X134459813Y-72072500D01*
X134643834Y-72035896D01*
X134817178Y-71964095D01*
X134973184Y-71859855D01*
X135105855Y-71727184D01*
X135210095Y-71571178D01*
X135281896Y-71397834D01*
X135318500Y-71213813D01*
X135318500Y-71026187D01*
X135281896Y-70842166D01*
X135210095Y-70668822D01*
X135105855Y-70512816D01*
X134973184Y-70380145D01*
X134817178Y-70275905D01*
X134643834Y-70204104D01*
X134459813Y-70167500D01*
X134272187Y-70167500D01*
X134088166Y-70204104D01*
X133914822Y-70275905D01*
X133758816Y-70380145D01*
X133626145Y-70512816D01*
X133521905Y-70668822D01*
X133450104Y-70842166D01*
X133413500Y-71026187D01*
X103530000Y-71026187D01*
X103530000Y-57864279D01*
X103583832Y-58134912D01*
X103707082Y-58432463D01*
X103886013Y-58700252D01*
X104113748Y-58927987D01*
X104381537Y-59106918D01*
X104679088Y-59230168D01*
X104994967Y-59293000D01*
X105317033Y-59293000D01*
X105632912Y-59230168D01*
X105930463Y-59106918D01*
X106198252Y-58927987D01*
X106425987Y-58700252D01*
X106604918Y-58432463D01*
X106728168Y-58134912D01*
X106791000Y-57819033D01*
X106791000Y-57496967D01*
X106789814Y-57491000D01*
X112258928Y-57491000D01*
X112258928Y-58841000D01*
X112271188Y-58965482D01*
X112307498Y-59085180D01*
X112366463Y-59195494D01*
X112445815Y-59292185D01*
X112542506Y-59371537D01*
X112652820Y-59430502D01*
X112772518Y-59466812D01*
X112897000Y-59479072D01*
X114247000Y-59479072D01*
X114371482Y-59466812D01*
X114491180Y-59430502D01*
X114601494Y-59371537D01*
X114698185Y-59292185D01*
X114771074Y-59203369D01*
X114840682Y-59260495D01*
X115068259Y-59382138D01*
X115315195Y-59457045D01*
X115507649Y-59476000D01*
X115636351Y-59476000D01*
X115828805Y-59457045D01*
X116075741Y-59382138D01*
X116303318Y-59260495D01*
X116502792Y-59096792D01*
X116572000Y-59012461D01*
X116641208Y-59096792D01*
X116840682Y-59260495D01*
X117068259Y-59382138D01*
X117315195Y-59457045D01*
X117507649Y-59476000D01*
X117636351Y-59476000D01*
X117828805Y-59457045D01*
X118075741Y-59382138D01*
X118303318Y-59260495D01*
X118502792Y-59096792D01*
X118572000Y-59012461D01*
X118641208Y-59096792D01*
X118840682Y-59260495D01*
X119068259Y-59382138D01*
X119315195Y-59457045D01*
X119507649Y-59476000D01*
X119636351Y-59476000D01*
X119828805Y-59457045D01*
X120075741Y-59382138D01*
X120303318Y-59260495D01*
X120502792Y-59096792D01*
X120572000Y-59012461D01*
X120641208Y-59096792D01*
X120840682Y-59260495D01*
X121068259Y-59382138D01*
X121315195Y-59457045D01*
X121507649Y-59476000D01*
X121636351Y-59476000D01*
X121828805Y-59457045D01*
X122075741Y-59382138D01*
X122303318Y-59260495D01*
X122502792Y-59096792D01*
X122572000Y-59012461D01*
X122641208Y-59096792D01*
X122840682Y-59260495D01*
X123068259Y-59382138D01*
X123315195Y-59457045D01*
X123507649Y-59476000D01*
X123636351Y-59476000D01*
X123828805Y-59457045D01*
X124075741Y-59382138D01*
X124303318Y-59260495D01*
X124502792Y-59096792D01*
X124572000Y-59012461D01*
X124641208Y-59096792D01*
X124840682Y-59260495D01*
X125068259Y-59382138D01*
X125315195Y-59457045D01*
X125507649Y-59476000D01*
X125636351Y-59476000D01*
X125828805Y-59457045D01*
X126075741Y-59382138D01*
X126303318Y-59260495D01*
X126502792Y-59096792D01*
X126572000Y-59012461D01*
X126641208Y-59096792D01*
X126840682Y-59260495D01*
X127068259Y-59382138D01*
X127315195Y-59457045D01*
X127507649Y-59476000D01*
X127636351Y-59476000D01*
X127828805Y-59457045D01*
X128075741Y-59382138D01*
X128303318Y-59260495D01*
X128502792Y-59096792D01*
X128572000Y-59012461D01*
X128641208Y-59096792D01*
X128840682Y-59260495D01*
X129068259Y-59382138D01*
X129315195Y-59457045D01*
X129507649Y-59476000D01*
X129636351Y-59476000D01*
X129828805Y-59457045D01*
X130075741Y-59382138D01*
X130303318Y-59260495D01*
X130502792Y-59096792D01*
X130572000Y-59012461D01*
X130641208Y-59096792D01*
X130840682Y-59260495D01*
X131068259Y-59382138D01*
X131315195Y-59457045D01*
X131507649Y-59476000D01*
X131636351Y-59476000D01*
X131828805Y-59457045D01*
X132075741Y-59382138D01*
X132303318Y-59260495D01*
X132502792Y-59096792D01*
X132572000Y-59012461D01*
X132641208Y-59096792D01*
X132840682Y-59260495D01*
X133068259Y-59382138D01*
X133315195Y-59457045D01*
X133507649Y-59476000D01*
X133636351Y-59476000D01*
X133828805Y-59457045D01*
X134075741Y-59382138D01*
X134303318Y-59260495D01*
X134502792Y-59096792D01*
X134572000Y-59012461D01*
X134641208Y-59096792D01*
X134840682Y-59260495D01*
X135068259Y-59382138D01*
X135315195Y-59457045D01*
X135507649Y-59476000D01*
X135636351Y-59476000D01*
X135828805Y-59457045D01*
X136075741Y-59382138D01*
X136303318Y-59260495D01*
X136434671Y-59152697D01*
X136437000Y-59176345D01*
X136437000Y-59176346D01*
X136437001Y-59176352D01*
X136437000Y-60585868D01*
X136181869Y-60841000D01*
X122737741Y-60841000D01*
X122681999Y-60835510D01*
X122626257Y-60841000D01*
X122626248Y-60841000D01*
X122459501Y-60857423D01*
X122245553Y-60922324D01*
X122048377Y-61027716D01*
X121875551Y-61169551D01*
X121840011Y-61212857D01*
X115236012Y-67816857D01*
X115129717Y-67946378D01*
X115024324Y-68143554D01*
X114959423Y-68357502D01*
X114937509Y-68580000D01*
X114959423Y-68802498D01*
X115024324Y-69016446D01*
X115129717Y-69213622D01*
X115271552Y-69386448D01*
X115444378Y-69528283D01*
X115641554Y-69633676D01*
X115855502Y-69698577D01*
X116078000Y-69720491D01*
X116300498Y-69698577D01*
X116514446Y-69633676D01*
X116711622Y-69528283D01*
X116841143Y-69421988D01*
X118792944Y-67470187D01*
X122491500Y-67470187D01*
X122491500Y-67657813D01*
X122528104Y-67841834D01*
X122599905Y-68015178D01*
X122704145Y-68171184D01*
X122836816Y-68303855D01*
X122992822Y-68408095D01*
X123166166Y-68479896D01*
X123350187Y-68516500D01*
X123507500Y-68516500D01*
X123507500Y-68673813D01*
X123544104Y-68857834D01*
X123615905Y-69031178D01*
X123720145Y-69187184D01*
X123852816Y-69319855D01*
X124008822Y-69424095D01*
X124182166Y-69495896D01*
X124366187Y-69532500D01*
X124542732Y-69532500D01*
X124560104Y-69619834D01*
X124631905Y-69793178D01*
X124736145Y-69949184D01*
X124868816Y-70081855D01*
X125024822Y-70186095D01*
X125198166Y-70257896D01*
X125382187Y-70294500D01*
X125569813Y-70294500D01*
X125753834Y-70257896D01*
X125927178Y-70186095D01*
X126083184Y-70081855D01*
X126215855Y-69949184D01*
X126320095Y-69793178D01*
X126391896Y-69619834D01*
X126428500Y-69435813D01*
X126428500Y-69248187D01*
X126391896Y-69064166D01*
X126320095Y-68890822D01*
X126215855Y-68734816D01*
X126083184Y-68602145D01*
X125927178Y-68497905D01*
X125753834Y-68426104D01*
X125569813Y-68389500D01*
X125393268Y-68389500D01*
X125375896Y-68302166D01*
X125304095Y-68128822D01*
X125199855Y-67972816D01*
X125067184Y-67840145D01*
X124911178Y-67735905D01*
X124737834Y-67664104D01*
X124553813Y-67627500D01*
X124396500Y-67627500D01*
X124396500Y-67470187D01*
X124359896Y-67286166D01*
X124288095Y-67112822D01*
X124183855Y-66956816D01*
X124051184Y-66824145D01*
X123895178Y-66719905D01*
X123721834Y-66648104D01*
X123537813Y-66611500D01*
X123350187Y-66611500D01*
X123166166Y-66648104D01*
X122992822Y-66719905D01*
X122836816Y-66824145D01*
X122704145Y-66956816D01*
X122599905Y-67112822D01*
X122528104Y-67286166D01*
X122491500Y-67470187D01*
X118792944Y-67470187D01*
X121078944Y-65184187D01*
X136080500Y-65184187D01*
X136080500Y-65371813D01*
X136117104Y-65555834D01*
X136188905Y-65729178D01*
X136293145Y-65885184D01*
X136425816Y-66017855D01*
X136581822Y-66122095D01*
X136755166Y-66193896D01*
X136939187Y-66230500D01*
X137126813Y-66230500D01*
X137310834Y-66193896D01*
X137484178Y-66122095D01*
X137640184Y-66017855D01*
X137772855Y-65885184D01*
X137877095Y-65729178D01*
X137948896Y-65555834D01*
X137985500Y-65371813D01*
X137985500Y-65184187D01*
X137948896Y-65000166D01*
X137877095Y-64826822D01*
X137772855Y-64670816D01*
X137640184Y-64538145D01*
X137484178Y-64433905D01*
X137310834Y-64362104D01*
X137126813Y-64325500D01*
X136939187Y-64325500D01*
X136755166Y-64362104D01*
X136581822Y-64433905D01*
X136425816Y-64538145D01*
X136293145Y-64670816D01*
X136188905Y-64826822D01*
X136117104Y-65000166D01*
X136080500Y-65184187D01*
X121078944Y-65184187D01*
X122521002Y-63742130D01*
X122528104Y-63777834D01*
X122599905Y-63951178D01*
X122704145Y-64107184D01*
X122836816Y-64239855D01*
X122992822Y-64344095D01*
X123166166Y-64415896D01*
X123350187Y-64452500D01*
X123537813Y-64452500D01*
X123721834Y-64415896D01*
X123895178Y-64344095D01*
X124051184Y-64239855D01*
X124183855Y-64107184D01*
X124288095Y-63951178D01*
X124359896Y-63777834D01*
X124396500Y-63593813D01*
X124396500Y-63406187D01*
X124359896Y-63222166D01*
X124313850Y-63111000D01*
X136596249Y-63111000D01*
X136652000Y-63116491D01*
X136707751Y-63111000D01*
X136707752Y-63111000D01*
X136874499Y-63094577D01*
X137088447Y-63029676D01*
X137285623Y-62924284D01*
X137458449Y-62782449D01*
X137493996Y-62739136D01*
X138431143Y-61801989D01*
X138474449Y-61766449D01*
X138553476Y-61670155D01*
X138720959Y-61759676D01*
X138934907Y-61824577D01*
X139157406Y-61846491D01*
X139213158Y-61841000D01*
X142268019Y-61841000D01*
X142261188Y-61863518D01*
X142248928Y-61988000D01*
X142248928Y-63488000D01*
X142261188Y-63612482D01*
X142297498Y-63732180D01*
X142356463Y-63842494D01*
X142435815Y-63939185D01*
X142532506Y-64018537D01*
X142642820Y-64077502D01*
X142762518Y-64113812D01*
X142887000Y-64126072D01*
X144387000Y-64126072D01*
X144511482Y-64113812D01*
X144631180Y-64077502D01*
X144741494Y-64018537D01*
X144838185Y-63939185D01*
X144917537Y-63842494D01*
X144976502Y-63732180D01*
X145012812Y-63612482D01*
X145025072Y-63488000D01*
X145025072Y-61988000D01*
X145017775Y-61913906D01*
X146312000Y-63208132D01*
X146312001Y-64368317D01*
X146242506Y-64405463D01*
X146145815Y-64484815D01*
X146066463Y-64581506D01*
X146007498Y-64691820D01*
X145971188Y-64811518D01*
X145958928Y-64936000D01*
X145958928Y-66636000D01*
X145971188Y-66760482D01*
X146007498Y-66880180D01*
X146066463Y-66990494D01*
X146145815Y-67087185D01*
X146242506Y-67166537D01*
X146352820Y-67225502D01*
X146472518Y-67261812D01*
X146597000Y-67274072D01*
X148297000Y-67274072D01*
X148421482Y-67261812D01*
X148541180Y-67225502D01*
X148651494Y-67166537D01*
X148748185Y-67087185D01*
X148827537Y-66990494D01*
X148886502Y-66880180D01*
X148907393Y-66811313D01*
X148931866Y-66841134D01*
X149157986Y-67026706D01*
X149415966Y-67164599D01*
X149695889Y-67249513D01*
X149914050Y-67271000D01*
X150059950Y-67271000D01*
X150278111Y-67249513D01*
X150558034Y-67164599D01*
X150816014Y-67026706D01*
X151042134Y-66841134D01*
X151227706Y-66615014D01*
X151365599Y-66357034D01*
X151450513Y-66077111D01*
X151479185Y-65786000D01*
X151450513Y-65494889D01*
X151365599Y-65214966D01*
X151227706Y-64956986D01*
X151042134Y-64730866D01*
X150816014Y-64545294D01*
X150558034Y-64407401D01*
X150278111Y-64322487D01*
X150059950Y-64301000D01*
X149914050Y-64301000D01*
X149695889Y-64322487D01*
X149415966Y-64407401D01*
X149157986Y-64545294D01*
X148931866Y-64730866D01*
X148907393Y-64760687D01*
X148886502Y-64691820D01*
X148827537Y-64581506D01*
X148748185Y-64484815D01*
X148651494Y-64405463D01*
X148582000Y-64368317D01*
X148582000Y-63246000D01*
X153447815Y-63246000D01*
X153476487Y-63537111D01*
X153561401Y-63817034D01*
X153699294Y-64075014D01*
X153884866Y-64301134D01*
X154110986Y-64486706D01*
X154165791Y-64516000D01*
X154110986Y-64545294D01*
X153884866Y-64730866D01*
X153699294Y-64956986D01*
X153561401Y-65214966D01*
X153476487Y-65494889D01*
X153447815Y-65786000D01*
X153476487Y-66077111D01*
X153561401Y-66357034D01*
X153699294Y-66615014D01*
X153884866Y-66841134D01*
X154110986Y-67026706D01*
X154165791Y-67056000D01*
X154110986Y-67085294D01*
X153884866Y-67270866D01*
X153699294Y-67496986D01*
X153561401Y-67754966D01*
X153476487Y-68034889D01*
X153447815Y-68326000D01*
X153476487Y-68617111D01*
X153561401Y-68897034D01*
X153699294Y-69155014D01*
X153884866Y-69381134D01*
X154110986Y-69566706D01*
X154165791Y-69596000D01*
X154110986Y-69625294D01*
X153884866Y-69810866D01*
X153699294Y-70036986D01*
X153561401Y-70294966D01*
X153476487Y-70574889D01*
X153447815Y-70866000D01*
X153476487Y-71157111D01*
X153561401Y-71437034D01*
X153699294Y-71695014D01*
X153884866Y-71921134D01*
X154110986Y-72106706D01*
X154165791Y-72136000D01*
X154110986Y-72165294D01*
X153884866Y-72350866D01*
X153699294Y-72576986D01*
X153561401Y-72834966D01*
X153476487Y-73114889D01*
X153447815Y-73406000D01*
X153476487Y-73697111D01*
X153561401Y-73977034D01*
X153699294Y-74235014D01*
X153884866Y-74461134D01*
X154110986Y-74646706D01*
X154165791Y-74676000D01*
X154110986Y-74705294D01*
X153884866Y-74890866D01*
X153699294Y-75116986D01*
X153561401Y-75374966D01*
X153476487Y-75654889D01*
X153447815Y-75946000D01*
X153476487Y-76237111D01*
X153561401Y-76517034D01*
X153699294Y-76775014D01*
X153884866Y-77001134D01*
X154110986Y-77186706D01*
X154165791Y-77216000D01*
X154110986Y-77245294D01*
X153884866Y-77430866D01*
X153699294Y-77656986D01*
X153561401Y-77914966D01*
X153476487Y-78194889D01*
X153447815Y-78486000D01*
X153476487Y-78777111D01*
X153561401Y-79057034D01*
X153699294Y-79315014D01*
X153884866Y-79541134D01*
X154110986Y-79726706D01*
X154165791Y-79756000D01*
X154110986Y-79785294D01*
X153884866Y-79970866D01*
X153699294Y-80196986D01*
X153561401Y-80454966D01*
X153476487Y-80734889D01*
X153447815Y-81026000D01*
X153476487Y-81317111D01*
X153561401Y-81597034D01*
X153699294Y-81855014D01*
X153884866Y-82081134D01*
X154110986Y-82266706D01*
X154165791Y-82296000D01*
X154110986Y-82325294D01*
X153884866Y-82510866D01*
X153699294Y-82736986D01*
X153561401Y-82994966D01*
X153476487Y-83274889D01*
X153447815Y-83566000D01*
X153476487Y-83857111D01*
X153561401Y-84137034D01*
X153699294Y-84395014D01*
X153884866Y-84621134D01*
X154110986Y-84806706D01*
X154165791Y-84836000D01*
X154110986Y-84865294D01*
X153884866Y-85050866D01*
X153699294Y-85276986D01*
X153561401Y-85534966D01*
X153476487Y-85814889D01*
X153447815Y-86106000D01*
X153476487Y-86397111D01*
X153561401Y-86677034D01*
X153699294Y-86935014D01*
X153884866Y-87161134D01*
X154110986Y-87346706D01*
X154165791Y-87376000D01*
X154110986Y-87405294D01*
X153884866Y-87590866D01*
X153699294Y-87816986D01*
X153561401Y-88074966D01*
X153476487Y-88354889D01*
X153447815Y-88646000D01*
X153476487Y-88937111D01*
X153561401Y-89217034D01*
X153699294Y-89475014D01*
X153884866Y-89701134D01*
X154110986Y-89886706D01*
X154165791Y-89916000D01*
X154110986Y-89945294D01*
X153884866Y-90130866D01*
X153699294Y-90356986D01*
X153561401Y-90614966D01*
X153476487Y-90894889D01*
X153447815Y-91186000D01*
X153476487Y-91477111D01*
X153561401Y-91757034D01*
X153699294Y-92015014D01*
X153884866Y-92241134D01*
X153914687Y-92265607D01*
X153845820Y-92286498D01*
X153735506Y-92345463D01*
X153638815Y-92424815D01*
X153559463Y-92521506D01*
X153500498Y-92631820D01*
X153464188Y-92751518D01*
X153451928Y-92876000D01*
X153451928Y-94576000D01*
X153464188Y-94700482D01*
X153500498Y-94820180D01*
X153559463Y-94930494D01*
X153638815Y-95027185D01*
X153735506Y-95106537D01*
X153845820Y-95165502D01*
X153965518Y-95201812D01*
X154090000Y-95214072D01*
X155790000Y-95214072D01*
X155914482Y-95201812D01*
X156034180Y-95165502D01*
X156144494Y-95106537D01*
X156241185Y-95027185D01*
X156320537Y-94930494D01*
X156379502Y-94820180D01*
X156415812Y-94700482D01*
X156428072Y-94576000D01*
X156428072Y-92876000D01*
X156415812Y-92751518D01*
X156379502Y-92631820D01*
X156320537Y-92521506D01*
X156241185Y-92424815D01*
X156144494Y-92345463D01*
X156034180Y-92286498D01*
X155965313Y-92265607D01*
X155995134Y-92241134D01*
X156180706Y-92015014D01*
X156318599Y-91757034D01*
X156403513Y-91477111D01*
X156432185Y-91186000D01*
X156403513Y-90894889D01*
X156318599Y-90614966D01*
X156180706Y-90356986D01*
X155995134Y-90130866D01*
X155769014Y-89945294D01*
X155714209Y-89916000D01*
X155769014Y-89886706D01*
X155995134Y-89701134D01*
X156180706Y-89475014D01*
X156318599Y-89217034D01*
X156403513Y-88937111D01*
X156432185Y-88646000D01*
X156403513Y-88354889D01*
X156318599Y-88074966D01*
X156180706Y-87816986D01*
X155995134Y-87590866D01*
X155769014Y-87405294D01*
X155714209Y-87376000D01*
X155769014Y-87346706D01*
X155995134Y-87161134D01*
X156180706Y-86935014D01*
X156318599Y-86677034D01*
X156403513Y-86397111D01*
X156432185Y-86106000D01*
X156403513Y-85814889D01*
X156318599Y-85534966D01*
X156180706Y-85276986D01*
X155995134Y-85050866D01*
X155769014Y-84865294D01*
X155714209Y-84836000D01*
X155769014Y-84806706D01*
X155995134Y-84621134D01*
X156180706Y-84395014D01*
X156318599Y-84137034D01*
X156403513Y-83857111D01*
X156432185Y-83566000D01*
X156403513Y-83274889D01*
X156318599Y-82994966D01*
X156180706Y-82736986D01*
X155995134Y-82510866D01*
X155769014Y-82325294D01*
X155714209Y-82296000D01*
X155769014Y-82266706D01*
X155995134Y-82081134D01*
X156180706Y-81855014D01*
X156318599Y-81597034D01*
X156403513Y-81317111D01*
X156432185Y-81026000D01*
X156403513Y-80734889D01*
X156318599Y-80454966D01*
X156180706Y-80196986D01*
X155995134Y-79970866D01*
X155769014Y-79785294D01*
X155714209Y-79756000D01*
X155769014Y-79726706D01*
X155995134Y-79541134D01*
X156000014Y-79535187D01*
X157797500Y-79535187D01*
X157797500Y-79722813D01*
X157834104Y-79906834D01*
X157905905Y-80080178D01*
X158010145Y-80236184D01*
X158142816Y-80368855D01*
X158298822Y-80473095D01*
X158472166Y-80544896D01*
X158656187Y-80581500D01*
X158843813Y-80581500D01*
X159027834Y-80544896D01*
X159201178Y-80473095D01*
X159357184Y-80368855D01*
X159489855Y-80236184D01*
X159594095Y-80080178D01*
X159665896Y-79906834D01*
X159702500Y-79722813D01*
X159702500Y-79535187D01*
X159665896Y-79351166D01*
X159594095Y-79177822D01*
X159489855Y-79021816D01*
X159357184Y-78889145D01*
X159201178Y-78784905D01*
X159027834Y-78713104D01*
X158843813Y-78676500D01*
X158656187Y-78676500D01*
X158472166Y-78713104D01*
X158298822Y-78784905D01*
X158142816Y-78889145D01*
X158010145Y-79021816D01*
X157905905Y-79177822D01*
X157834104Y-79351166D01*
X157797500Y-79535187D01*
X156000014Y-79535187D01*
X156180706Y-79315014D01*
X156318599Y-79057034D01*
X156403513Y-78777111D01*
X156432185Y-78486000D01*
X156403513Y-78194889D01*
X156318599Y-77914966D01*
X156180706Y-77656986D01*
X155995134Y-77430866D01*
X155769014Y-77245294D01*
X155714209Y-77216000D01*
X155769014Y-77186706D01*
X155995134Y-77001134D01*
X156180706Y-76775014D01*
X156318599Y-76517034D01*
X156403513Y-76237111D01*
X156432185Y-75946000D01*
X156403513Y-75654889D01*
X156318599Y-75374966D01*
X156180706Y-75116986D01*
X155995134Y-74890866D01*
X155769014Y-74705294D01*
X155714209Y-74676000D01*
X155769014Y-74646706D01*
X155995134Y-74461134D01*
X156180706Y-74235014D01*
X156318599Y-73977034D01*
X156403513Y-73697111D01*
X156432185Y-73406000D01*
X156403513Y-73114889D01*
X156318599Y-72834966D01*
X156180706Y-72576986D01*
X155995134Y-72350866D01*
X155769014Y-72165294D01*
X155714209Y-72136000D01*
X155769014Y-72106706D01*
X155995134Y-71921134D01*
X156180706Y-71695014D01*
X156318599Y-71437034D01*
X156403513Y-71157111D01*
X156432185Y-70866000D01*
X156403513Y-70574889D01*
X156318599Y-70294966D01*
X156180706Y-70036986D01*
X155995134Y-69810866D01*
X155769014Y-69625294D01*
X155714209Y-69596000D01*
X155769014Y-69566706D01*
X155995134Y-69381134D01*
X156180706Y-69155014D01*
X156318599Y-68897034D01*
X156403513Y-68617111D01*
X156432185Y-68326000D01*
X156403513Y-68034889D01*
X156318599Y-67754966D01*
X156180706Y-67496986D01*
X155995134Y-67270866D01*
X155769014Y-67085294D01*
X155714209Y-67056000D01*
X155769014Y-67026706D01*
X155995134Y-66841134D01*
X156180706Y-66615014D01*
X156318599Y-66357034D01*
X156403513Y-66077111D01*
X156432185Y-65786000D01*
X156403513Y-65494889D01*
X156318599Y-65214966D01*
X156180706Y-64956986D01*
X155995134Y-64730866D01*
X155769014Y-64545294D01*
X155714209Y-64516000D01*
X155769014Y-64486706D01*
X155995134Y-64301134D01*
X156180706Y-64075014D01*
X156318599Y-63817034D01*
X156403513Y-63537111D01*
X156432185Y-63246000D01*
X156403513Y-62954889D01*
X156318599Y-62674966D01*
X156180706Y-62416986D01*
X155995134Y-62190866D01*
X155769014Y-62005294D01*
X155511034Y-61867401D01*
X155231111Y-61782487D01*
X155012950Y-61761000D01*
X154867050Y-61761000D01*
X154648889Y-61782487D01*
X154368966Y-61867401D01*
X154110986Y-62005294D01*
X153884866Y-62190866D01*
X153699294Y-62416986D01*
X153561401Y-62674966D01*
X153476487Y-62954889D01*
X153447815Y-63246000D01*
X148582000Y-63246000D01*
X148582000Y-62793751D01*
X148587491Y-62738000D01*
X148565577Y-62515501D01*
X148500676Y-62301553D01*
X148445593Y-62198500D01*
X148395284Y-62104377D01*
X148253449Y-61931551D01*
X148210141Y-61896009D01*
X146256996Y-59942865D01*
X146221449Y-59899551D01*
X146048623Y-59757716D01*
X145851447Y-59652324D01*
X145637499Y-59587423D01*
X145470752Y-59571000D01*
X145470751Y-59571000D01*
X145415000Y-59565509D01*
X145359249Y-59571000D01*
X139627539Y-59571000D01*
X139532538Y-59476000D01*
X139636351Y-59476000D01*
X139828805Y-59457045D01*
X140075741Y-59382138D01*
X140303318Y-59260495D01*
X140502792Y-59096792D01*
X140666495Y-58897318D01*
X140788138Y-58669741D01*
X140863045Y-58422805D01*
X140888338Y-58166000D01*
X140863045Y-57909195D01*
X140788138Y-57662259D01*
X140666495Y-57434682D01*
X140502792Y-57235208D01*
X140303318Y-57071505D01*
X140075741Y-56949862D01*
X139828805Y-56874955D01*
X139636351Y-56856000D01*
X139507649Y-56856000D01*
X139315195Y-56874955D01*
X139068259Y-56949862D01*
X138840682Y-57071505D01*
X138641208Y-57235208D01*
X138572000Y-57319539D01*
X138502792Y-57235208D01*
X138303318Y-57071505D01*
X138075741Y-56949862D01*
X137828805Y-56874955D01*
X137636351Y-56856000D01*
X137507649Y-56856000D01*
X137315195Y-56874955D01*
X137068259Y-56949862D01*
X136840682Y-57071505D01*
X136641208Y-57235208D01*
X136572000Y-57319539D01*
X136502792Y-57235208D01*
X136303318Y-57071505D01*
X136075741Y-56949862D01*
X135828805Y-56874955D01*
X135636351Y-56856000D01*
X135507649Y-56856000D01*
X135315195Y-56874955D01*
X135068259Y-56949862D01*
X134840682Y-57071505D01*
X134641208Y-57235208D01*
X134572000Y-57319539D01*
X134502792Y-57235208D01*
X134303318Y-57071505D01*
X134075741Y-56949862D01*
X133828805Y-56874955D01*
X133636351Y-56856000D01*
X133507649Y-56856000D01*
X133315195Y-56874955D01*
X133068259Y-56949862D01*
X132840682Y-57071505D01*
X132641208Y-57235208D01*
X132572000Y-57319539D01*
X132502792Y-57235208D01*
X132303318Y-57071505D01*
X132075741Y-56949862D01*
X131828805Y-56874955D01*
X131636351Y-56856000D01*
X131507649Y-56856000D01*
X131315195Y-56874955D01*
X131068259Y-56949862D01*
X130840682Y-57071505D01*
X130641208Y-57235208D01*
X130572000Y-57319539D01*
X130502792Y-57235208D01*
X130303318Y-57071505D01*
X130075741Y-56949862D01*
X129828805Y-56874955D01*
X129636351Y-56856000D01*
X129507649Y-56856000D01*
X129315195Y-56874955D01*
X129068259Y-56949862D01*
X128840682Y-57071505D01*
X128641208Y-57235208D01*
X128572000Y-57319539D01*
X128502792Y-57235208D01*
X128303318Y-57071505D01*
X128075741Y-56949862D01*
X127828805Y-56874955D01*
X127636351Y-56856000D01*
X127507649Y-56856000D01*
X127315195Y-56874955D01*
X127068259Y-56949862D01*
X126840682Y-57071505D01*
X126641208Y-57235208D01*
X126572000Y-57319539D01*
X126502792Y-57235208D01*
X126303318Y-57071505D01*
X126075741Y-56949862D01*
X125828805Y-56874955D01*
X125636351Y-56856000D01*
X125507649Y-56856000D01*
X125315195Y-56874955D01*
X125068259Y-56949862D01*
X124840682Y-57071505D01*
X124641208Y-57235208D01*
X124572000Y-57319539D01*
X124502792Y-57235208D01*
X124303318Y-57071505D01*
X124075741Y-56949862D01*
X123828805Y-56874955D01*
X123636351Y-56856000D01*
X123507649Y-56856000D01*
X123315195Y-56874955D01*
X123068259Y-56949862D01*
X122840682Y-57071505D01*
X122641208Y-57235208D01*
X122572000Y-57319539D01*
X122502792Y-57235208D01*
X122303318Y-57071505D01*
X122075741Y-56949862D01*
X121828805Y-56874955D01*
X121636351Y-56856000D01*
X121507649Y-56856000D01*
X121315195Y-56874955D01*
X121068259Y-56949862D01*
X120840682Y-57071505D01*
X120641208Y-57235208D01*
X120572000Y-57319539D01*
X120502792Y-57235208D01*
X120303318Y-57071505D01*
X120075741Y-56949862D01*
X119828805Y-56874955D01*
X119636351Y-56856000D01*
X119507649Y-56856000D01*
X119315195Y-56874955D01*
X119068259Y-56949862D01*
X118840682Y-57071505D01*
X118641208Y-57235208D01*
X118572000Y-57319539D01*
X118502792Y-57235208D01*
X118303318Y-57071505D01*
X118075741Y-56949862D01*
X117828805Y-56874955D01*
X117636351Y-56856000D01*
X117507649Y-56856000D01*
X117315195Y-56874955D01*
X117068259Y-56949862D01*
X116840682Y-57071505D01*
X116641208Y-57235208D01*
X116572000Y-57319539D01*
X116502792Y-57235208D01*
X116303318Y-57071505D01*
X116075741Y-56949862D01*
X115828805Y-56874955D01*
X115636351Y-56856000D01*
X115507649Y-56856000D01*
X115315195Y-56874955D01*
X115068259Y-56949862D01*
X114840682Y-57071505D01*
X114771074Y-57128631D01*
X114698185Y-57039815D01*
X114601494Y-56960463D01*
X114491180Y-56901498D01*
X114371482Y-56865188D01*
X114247000Y-56852928D01*
X112897000Y-56852928D01*
X112772518Y-56865188D01*
X112652820Y-56901498D01*
X112542506Y-56960463D01*
X112445815Y-57039815D01*
X112366463Y-57136506D01*
X112307498Y-57246820D01*
X112271188Y-57366518D01*
X112258928Y-57491000D01*
X106789814Y-57491000D01*
X106728168Y-57181088D01*
X106604918Y-56883537D01*
X106425987Y-56615748D01*
X106223239Y-56413000D01*
X158063761Y-56413000D01*
X157861013Y-56615748D01*
X157861013Y-56615748D01*
G37*
X157861013Y-56615748D02*
X157682082Y-56883537D01*
X157558832Y-57181088D01*
X157496000Y-57496967D01*
X157496000Y-57819033D01*
X157558832Y-58134912D01*
X157682082Y-58432463D01*
X157861013Y-58700252D01*
X158088748Y-58927987D01*
X158356537Y-59106918D01*
X158654088Y-59230168D01*
X158969967Y-59293000D01*
X159292033Y-59293000D01*
X159607912Y-59230168D01*
X159905463Y-59106918D01*
X160173252Y-58927987D01*
X160400987Y-58700252D01*
X160579918Y-58432463D01*
X160630000Y-58311555D01*
X160630001Y-98533448D01*
X160579918Y-98412537D01*
X160400987Y-98144748D01*
X160173252Y-97917013D01*
X159905463Y-97738082D01*
X159607912Y-97614832D01*
X159292033Y-97552000D01*
X158969967Y-97552000D01*
X158654088Y-97614832D01*
X158356537Y-97738082D01*
X158088748Y-97917013D01*
X157861013Y-98144748D01*
X157682082Y-98412537D01*
X157558832Y-98710088D01*
X157496000Y-99025967D01*
X157496000Y-99348033D01*
X157558832Y-99663912D01*
X157682082Y-99961463D01*
X157861013Y-100229252D01*
X158088748Y-100456987D01*
X158088767Y-100457000D01*
X108103233Y-100457000D01*
X108103252Y-100456987D01*
X108330987Y-100229252D01*
X108509918Y-99961463D01*
X108633168Y-99663912D01*
X108669551Y-99481000D01*
X112258928Y-99481000D01*
X112271188Y-99605482D01*
X112307498Y-99725180D01*
X112366463Y-99835494D01*
X112445815Y-99932185D01*
X112542506Y-100011537D01*
X112652820Y-100070502D01*
X112772518Y-100106812D01*
X112897000Y-100119072D01*
X113286250Y-100116000D01*
X113445000Y-99957250D01*
X113445000Y-98933000D01*
X112420750Y-98933000D01*
X112262000Y-99091750D01*
X112258928Y-99481000D01*
X108669551Y-99481000D01*
X108696000Y-99348033D01*
X108696000Y-99025967D01*
X108633168Y-98710088D01*
X108509918Y-98412537D01*
X108330987Y-98144748D01*
X108317239Y-98131000D01*
X112258928Y-98131000D01*
X112262000Y-98520250D01*
X112420750Y-98679000D01*
X113445000Y-98679000D01*
X113445000Y-97654750D01*
X113699000Y-97654750D01*
X113699000Y-98679000D01*
X113719000Y-98679000D01*
X113719000Y-98933000D01*
X113699000Y-98933000D01*
X113699000Y-99957250D01*
X113857750Y-100116000D01*
X114247000Y-100119072D01*
X114371482Y-100106812D01*
X114491180Y-100070502D01*
X114601494Y-100011537D01*
X114698185Y-99932185D01*
X114771074Y-99843369D01*
X114840682Y-99900495D01*
X115068259Y-100022138D01*
X115315195Y-100097045D01*
X115507649Y-100116000D01*
X115636351Y-100116000D01*
X115828805Y-100097045D01*
X116075741Y-100022138D01*
X116303318Y-99900495D01*
X116502792Y-99736792D01*
X116572000Y-99652461D01*
X116641208Y-99736792D01*
X116840682Y-99900495D01*
X117068259Y-100022138D01*
X117315195Y-100097045D01*
X117507649Y-100116000D01*
X117636351Y-100116000D01*
X117828805Y-100097045D01*
X118075741Y-100022138D01*
X118303318Y-99900495D01*
X118502792Y-99736792D01*
X118572000Y-99652461D01*
X118641208Y-99736792D01*
X118840682Y-99900495D01*
X119068259Y-100022138D01*
X119315195Y-100097045D01*
X119507649Y-100116000D01*
X119636351Y-100116000D01*
X119828805Y-100097045D01*
X120075741Y-100022138D01*
X120303318Y-99900495D01*
X120502792Y-99736792D01*
X120572000Y-99652461D01*
X120641208Y-99736792D01*
X120840682Y-99900495D01*
X121068259Y-100022138D01*
X121315195Y-100097045D01*
X121507649Y-100116000D01*
X121636351Y-100116000D01*
X121828805Y-100097045D01*
X122075741Y-100022138D01*
X122303318Y-99900495D01*
X122502792Y-99736792D01*
X122572000Y-99652461D01*
X122641208Y-99736792D01*
X122840682Y-99900495D01*
X123068259Y-100022138D01*
X123315195Y-100097045D01*
X123507649Y-100116000D01*
X123636351Y-100116000D01*
X123828805Y-100097045D01*
X124075741Y-100022138D01*
X124303318Y-99900495D01*
X124502792Y-99736792D01*
X124572000Y-99652461D01*
X124641208Y-99736792D01*
X124840682Y-99900495D01*
X125068259Y-100022138D01*
X125315195Y-100097045D01*
X125507649Y-100116000D01*
X125636351Y-100116000D01*
X125828805Y-100097045D01*
X126075741Y-100022138D01*
X126303318Y-99900495D01*
X126502792Y-99736792D01*
X126572000Y-99652461D01*
X126641208Y-99736792D01*
X126840682Y-99900495D01*
X127068259Y-100022138D01*
X127315195Y-100097045D01*
X127507649Y-100116000D01*
X127636351Y-100116000D01*
X127828805Y-100097045D01*
X128075741Y-100022138D01*
X128303318Y-99900495D01*
X128502792Y-99736792D01*
X128572000Y-99652461D01*
X128641208Y-99736792D01*
X128840682Y-99900495D01*
X129068259Y-100022138D01*
X129315195Y-100097045D01*
X129507649Y-100116000D01*
X129636351Y-100116000D01*
X129828805Y-100097045D01*
X130075741Y-100022138D01*
X130303318Y-99900495D01*
X130502792Y-99736792D01*
X130572000Y-99652461D01*
X130641208Y-99736792D01*
X130840682Y-99900495D01*
X131068259Y-100022138D01*
X131315195Y-100097045D01*
X131507649Y-100116000D01*
X131636351Y-100116000D01*
X131828805Y-100097045D01*
X132075741Y-100022138D01*
X132303318Y-99900495D01*
X132502792Y-99736792D01*
X132572000Y-99652461D01*
X132641208Y-99736792D01*
X132840682Y-99900495D01*
X133068259Y-100022138D01*
X133315195Y-100097045D01*
X133507649Y-100116000D01*
X133636351Y-100116000D01*
X133828805Y-100097045D01*
X134075741Y-100022138D01*
X134303318Y-99900495D01*
X134502792Y-99736792D01*
X134572000Y-99652461D01*
X134641208Y-99736792D01*
X134840682Y-99900495D01*
X135068259Y-100022138D01*
X135315195Y-100097045D01*
X135507649Y-100116000D01*
X135636351Y-100116000D01*
X135828805Y-100097045D01*
X136075741Y-100022138D01*
X136303318Y-99900495D01*
X136502792Y-99736792D01*
X136572000Y-99652461D01*
X136641208Y-99736792D01*
X136840682Y-99900495D01*
X137068259Y-100022138D01*
X137315195Y-100097045D01*
X137507649Y-100116000D01*
X137636351Y-100116000D01*
X137828805Y-100097045D01*
X138075741Y-100022138D01*
X138303318Y-99900495D01*
X138502792Y-99736792D01*
X138572000Y-99652461D01*
X138641208Y-99736792D01*
X138840682Y-99900495D01*
X139068259Y-100022138D01*
X139315195Y-100097045D01*
X139507649Y-100116000D01*
X139636351Y-100116000D01*
X139828805Y-100097045D01*
X140075741Y-100022138D01*
X140303318Y-99900495D01*
X140502792Y-99736792D01*
X140666495Y-99537318D01*
X140788138Y-99309741D01*
X140863045Y-99062805D01*
X140888338Y-98806000D01*
X140863045Y-98549195D01*
X140788138Y-98302259D01*
X140666495Y-98074682D01*
X140502792Y-97875208D01*
X140303318Y-97711505D01*
X140075741Y-97589862D01*
X139828805Y-97514955D01*
X139636351Y-97496000D01*
X139507649Y-97496000D01*
X139315195Y-97514955D01*
X139068259Y-97589862D01*
X138840682Y-97711505D01*
X138641208Y-97875208D01*
X138572000Y-97959539D01*
X138502792Y-97875208D01*
X138303318Y-97711505D01*
X138075741Y-97589862D01*
X137828805Y-97514955D01*
X137636351Y-97496000D01*
X137507649Y-97496000D01*
X137315195Y-97514955D01*
X137068259Y-97589862D01*
X136840682Y-97711505D01*
X136641208Y-97875208D01*
X136572000Y-97959539D01*
X136502792Y-97875208D01*
X136303318Y-97711505D01*
X136075741Y-97589862D01*
X135828805Y-97514955D01*
X135636351Y-97496000D01*
X135507649Y-97496000D01*
X135315195Y-97514955D01*
X135068259Y-97589862D01*
X134840682Y-97711505D01*
X134641208Y-97875208D01*
X134572000Y-97959539D01*
X134502792Y-97875208D01*
X134303318Y-97711505D01*
X134075741Y-97589862D01*
X133828805Y-97514955D01*
X133636351Y-97496000D01*
X133507649Y-97496000D01*
X133315195Y-97514955D01*
X133068259Y-97589862D01*
X132840682Y-97711505D01*
X132641208Y-97875208D01*
X132572000Y-97959539D01*
X132502792Y-97875208D01*
X132303318Y-97711505D01*
X132075741Y-97589862D01*
X131828805Y-97514955D01*
X131636351Y-97496000D01*
X131507649Y-97496000D01*
X131315195Y-97514955D01*
X131068259Y-97589862D01*
X130840682Y-97711505D01*
X130641208Y-97875208D01*
X130572000Y-97959539D01*
X130502792Y-97875208D01*
X130303318Y-97711505D01*
X130075741Y-97589862D01*
X129828805Y-97514955D01*
X129636351Y-97496000D01*
X129507649Y-97496000D01*
X129315195Y-97514955D01*
X129068259Y-97589862D01*
X128840682Y-97711505D01*
X128641208Y-97875208D01*
X128572000Y-97959539D01*
X128502792Y-97875208D01*
X128303318Y-97711505D01*
X128075741Y-97589862D01*
X127828805Y-97514955D01*
X127636351Y-97496000D01*
X127507649Y-97496000D01*
X127315195Y-97514955D01*
X127068259Y-97589862D01*
X126840682Y-97711505D01*
X126641208Y-97875208D01*
X126572000Y-97959539D01*
X126502792Y-97875208D01*
X126303318Y-97711505D01*
X126075741Y-97589862D01*
X125828805Y-97514955D01*
X125636351Y-97496000D01*
X125507649Y-97496000D01*
X125315195Y-97514955D01*
X125068259Y-97589862D01*
X124840682Y-97711505D01*
X124641208Y-97875208D01*
X124572000Y-97959539D01*
X124502792Y-97875208D01*
X124303318Y-97711505D01*
X124075741Y-97589862D01*
X123828805Y-97514955D01*
X123636351Y-97496000D01*
X123507649Y-97496000D01*
X123315195Y-97514955D01*
X123068259Y-97589862D01*
X122840682Y-97711505D01*
X122641208Y-97875208D01*
X122572000Y-97959539D01*
X122502792Y-97875208D01*
X122303318Y-97711505D01*
X122075741Y-97589862D01*
X121828805Y-97514955D01*
X121636351Y-97496000D01*
X121507649Y-97496000D01*
X121315195Y-97514955D01*
X121068259Y-97589862D01*
X120840682Y-97711505D01*
X120641208Y-97875208D01*
X120572000Y-97959539D01*
X120502792Y-97875208D01*
X120303318Y-97711505D01*
X120075741Y-97589862D01*
X119828805Y-97514955D01*
X119636351Y-97496000D01*
X119507649Y-97496000D01*
X119315195Y-97514955D01*
X119068259Y-97589862D01*
X118840682Y-97711505D01*
X118641208Y-97875208D01*
X118572000Y-97959539D01*
X118502792Y-97875208D01*
X118303318Y-97711505D01*
X118075741Y-97589862D01*
X117828805Y-97514955D01*
X117636351Y-97496000D01*
X117507649Y-97496000D01*
X117315195Y-97514955D01*
X117068259Y-97589862D01*
X116840682Y-97711505D01*
X116641208Y-97875208D01*
X116572000Y-97959539D01*
X116502792Y-97875208D01*
X116303318Y-97711505D01*
X116075741Y-97589862D01*
X115828805Y-97514955D01*
X115636351Y-97496000D01*
X115507649Y-97496000D01*
X115315195Y-97514955D01*
X115068259Y-97589862D01*
X114840682Y-97711505D01*
X114771074Y-97768631D01*
X114698185Y-97679815D01*
X114601494Y-97600463D01*
X114491180Y-97541498D01*
X114371482Y-97505188D01*
X114247000Y-97492928D01*
X113857750Y-97496000D01*
X113699000Y-97654750D01*
X113445000Y-97654750D01*
X113286250Y-97496000D01*
X112897000Y-97492928D01*
X112772518Y-97505188D01*
X112652820Y-97541498D01*
X112542506Y-97600463D01*
X112445815Y-97679815D01*
X112366463Y-97776506D01*
X112307498Y-97886820D01*
X112271188Y-98006518D01*
X112258928Y-98131000D01*
X108317239Y-98131000D01*
X108103252Y-97917013D01*
X107835463Y-97738082D01*
X107537912Y-97614832D01*
X107222033Y-97552000D01*
X106899967Y-97552000D01*
X106584088Y-97614832D01*
X106286537Y-97738082D01*
X106018748Y-97917013D01*
X105791013Y-98144748D01*
X105612082Y-98412537D01*
X105488832Y-98710088D01*
X105426000Y-99025967D01*
X105426000Y-99348033D01*
X105488832Y-99663912D01*
X105612082Y-99961463D01*
X105791013Y-100229252D01*
X106018748Y-100456987D01*
X106018767Y-100457000D01*
X103530000Y-100457000D01*
X103530000Y-91694000D01*
X112045815Y-91694000D01*
X112074487Y-91985111D01*
X112159401Y-92265034D01*
X112297294Y-92523014D01*
X112482866Y-92749134D01*
X112512687Y-92773607D01*
X112443820Y-92794498D01*
X112333506Y-92853463D01*
X112236815Y-92932815D01*
X112157463Y-93029506D01*
X112098498Y-93139820D01*
X112062188Y-93259518D01*
X112049928Y-93384000D01*
X112049928Y-95084000D01*
X112062188Y-95208482D01*
X112098498Y-95328180D01*
X112157463Y-95438494D01*
X112236815Y-95535185D01*
X112333506Y-95614537D01*
X112443820Y-95673502D01*
X112563518Y-95709812D01*
X112688000Y-95722072D01*
X114388000Y-95722072D01*
X114512482Y-95709812D01*
X114632180Y-95673502D01*
X114742494Y-95614537D01*
X114839185Y-95535185D01*
X114918537Y-95438494D01*
X114977502Y-95328180D01*
X115013812Y-95208482D01*
X115026072Y-95084000D01*
X115026072Y-93384000D01*
X115013812Y-93259518D01*
X114977502Y-93139820D01*
X114918537Y-93029506D01*
X114839185Y-92932815D01*
X114742494Y-92853463D01*
X114632180Y-92794498D01*
X114563313Y-92773607D01*
X114593134Y-92749134D01*
X114778706Y-92523014D01*
X114916599Y-92265034D01*
X115001513Y-91985111D01*
X115030185Y-91694000D01*
X115001513Y-91402889D01*
X114916599Y-91122966D01*
X114778706Y-90864986D01*
X114593134Y-90638866D01*
X114367014Y-90453294D01*
X114109034Y-90315401D01*
X113829111Y-90230487D01*
X113610950Y-90209000D01*
X113465050Y-90209000D01*
X113246889Y-90230487D01*
X112966966Y-90315401D01*
X112708986Y-90453294D01*
X112482866Y-90638866D01*
X112297294Y-90864986D01*
X112159401Y-91122966D01*
X112074487Y-91402889D01*
X112045815Y-91694000D01*
X103530000Y-91694000D01*
X103530000Y-89441187D01*
X128714500Y-89441187D01*
X128714500Y-89628813D01*
X128751104Y-89812834D01*
X128822905Y-89986178D01*
X128927145Y-90142184D01*
X129059816Y-90274855D01*
X129215822Y-90379095D01*
X129389166Y-90450896D01*
X129573187Y-90487500D01*
X129760813Y-90487500D01*
X129944834Y-90450896D01*
X130118178Y-90379095D01*
X130274184Y-90274855D01*
X130406855Y-90142184D01*
X130511095Y-89986178D01*
X130579021Y-89822187D01*
X137477500Y-89822187D01*
X137477500Y-90009813D01*
X137514104Y-90193834D01*
X137585905Y-90367178D01*
X137690145Y-90523184D01*
X137822816Y-90655855D01*
X137978822Y-90760095D01*
X138152166Y-90831896D01*
X138336187Y-90868500D01*
X138523813Y-90868500D01*
X138707834Y-90831896D01*
X138881178Y-90760095D01*
X139037184Y-90655855D01*
X139169855Y-90523184D01*
X139274095Y-90367178D01*
X139345896Y-90193834D01*
X139382500Y-90009813D01*
X139382500Y-89822187D01*
X139345896Y-89638166D01*
X139274095Y-89464822D01*
X139169855Y-89308816D01*
X139037184Y-89176145D01*
X138881178Y-89071905D01*
X138707834Y-89000104D01*
X138523813Y-88963500D01*
X138336187Y-88963500D01*
X138152166Y-89000104D01*
X137978822Y-89071905D01*
X137822816Y-89176145D01*
X137690145Y-89308816D01*
X137585905Y-89464822D01*
X137514104Y-89638166D01*
X137477500Y-89822187D01*
X130579021Y-89822187D01*
X130582896Y-89812834D01*
X130619500Y-89628813D01*
X130619500Y-89441187D01*
X130582896Y-89257166D01*
X130511095Y-89083822D01*
X130406855Y-88927816D01*
X130274184Y-88795145D01*
X130118178Y-88690905D01*
X129944834Y-88619104D01*
X129760813Y-88582500D01*
X129573187Y-88582500D01*
X129389166Y-88619104D01*
X129215822Y-88690905D01*
X129059816Y-88795145D01*
X128927145Y-88927816D01*
X128822905Y-89083822D01*
X128751104Y-89257166D01*
X128714500Y-89441187D01*
X103530000Y-89441187D01*
X103530000Y-87282187D01*
X141287500Y-87282187D01*
X141287500Y-87469813D01*
X141324104Y-87653834D01*
X141395905Y-87827178D01*
X141500145Y-87983184D01*
X141632816Y-88115855D01*
X141788822Y-88220095D01*
X141962166Y-88291896D01*
X142146187Y-88328500D01*
X142333813Y-88328500D01*
X142517834Y-88291896D01*
X142691178Y-88220095D01*
X142847184Y-88115855D01*
X142979855Y-87983184D01*
X143084095Y-87827178D01*
X143155896Y-87653834D01*
X143192500Y-87469813D01*
X143192500Y-87282187D01*
X143155896Y-87098166D01*
X143084095Y-86924822D01*
X142979855Y-86768816D01*
X142847184Y-86636145D01*
X142691178Y-86531905D01*
X142517834Y-86460104D01*
X142333813Y-86423500D01*
X142146187Y-86423500D01*
X141962166Y-86460104D01*
X141788822Y-86531905D01*
X141632816Y-86636145D01*
X141500145Y-86768816D01*
X141395905Y-86924822D01*
X141324104Y-87098166D01*
X141287500Y-87282187D01*
X103530000Y-87282187D01*
X103530000Y-80170187D01*
X117919500Y-80170187D01*
X117919500Y-80357813D01*
X117956104Y-80541834D01*
X118027905Y-80715178D01*
X118132145Y-80871184D01*
X118264816Y-81003855D01*
X118420822Y-81108095D01*
X118594166Y-81179896D01*
X118778187Y-81216500D01*
X118965813Y-81216500D01*
X119149834Y-81179896D01*
X119323178Y-81108095D01*
X119479184Y-81003855D01*
X119611855Y-80871184D01*
X119716095Y-80715178D01*
X119787896Y-80541834D01*
X119824500Y-80357813D01*
X119824500Y-80170187D01*
X119787896Y-79986166D01*
X119716095Y-79812822D01*
X119611855Y-79656816D01*
X119479184Y-79524145D01*
X119323178Y-79419905D01*
X119149834Y-79348104D01*
X118965813Y-79311500D01*
X118778187Y-79311500D01*
X118594166Y-79348104D01*
X118420822Y-79419905D01*
X118264816Y-79524145D01*
X118132145Y-79656816D01*
X118027905Y-79812822D01*
X117956104Y-79986166D01*
X117919500Y-80170187D01*
X103530000Y-80170187D01*
X103530000Y-78773187D01*
X133667500Y-78773187D01*
X133667500Y-78960813D01*
X133704104Y-79144834D01*
X133775905Y-79318178D01*
X133880145Y-79474184D01*
X134012816Y-79606855D01*
X134168822Y-79711095D01*
X134342166Y-79782896D01*
X134526187Y-79819500D01*
X134713813Y-79819500D01*
X134897834Y-79782896D01*
X135071178Y-79711095D01*
X135227184Y-79606855D01*
X135359855Y-79474184D01*
X135464095Y-79318178D01*
X135535896Y-79144834D01*
X135572500Y-78960813D01*
X135572500Y-78877466D01*
X135612166Y-78893896D01*
X135796187Y-78930500D01*
X135983813Y-78930500D01*
X136167834Y-78893896D01*
X136341178Y-78822095D01*
X136497184Y-78717855D01*
X136629855Y-78585184D01*
X136734095Y-78429178D01*
X136749417Y-78392187D01*
X146113500Y-78392187D01*
X146113500Y-78579813D01*
X146150104Y-78763834D01*
X146221905Y-78937178D01*
X146326145Y-79093184D01*
X146458816Y-79225855D01*
X146614822Y-79330095D01*
X146788166Y-79401896D01*
X146972187Y-79438500D01*
X147159813Y-79438500D01*
X147343834Y-79401896D01*
X147517178Y-79330095D01*
X147673184Y-79225855D01*
X147805855Y-79093184D01*
X147910095Y-78937178D01*
X147981896Y-78763834D01*
X148018500Y-78579813D01*
X148018500Y-78392187D01*
X147981896Y-78208166D01*
X147910095Y-78034822D01*
X147805855Y-77878816D01*
X147673184Y-77746145D01*
X147517178Y-77641905D01*
X147343834Y-77570104D01*
X147159813Y-77533500D01*
X146972187Y-77533500D01*
X146788166Y-77570104D01*
X146614822Y-77641905D01*
X146458816Y-77746145D01*
X146326145Y-77878816D01*
X146221905Y-78034822D01*
X146150104Y-78208166D01*
X146113500Y-78392187D01*
X136749417Y-78392187D01*
X136805896Y-78255834D01*
X136842500Y-78071813D01*
X136842500Y-77884187D01*
X136805896Y-77700166D01*
X136734095Y-77526822D01*
X136629855Y-77370816D01*
X136497184Y-77238145D01*
X136341178Y-77133905D01*
X136167834Y-77062104D01*
X135983813Y-77025500D01*
X135796187Y-77025500D01*
X135612166Y-77062104D01*
X135438822Y-77133905D01*
X135282816Y-77238145D01*
X135150145Y-77370816D01*
X135045905Y-77526822D01*
X134974104Y-77700166D01*
X134937500Y-77884187D01*
X134937500Y-77967534D01*
X134897834Y-77951104D01*
X134713813Y-77914500D01*
X134526187Y-77914500D01*
X134342166Y-77951104D01*
X134168822Y-78022905D01*
X134012816Y-78127145D01*
X133880145Y-78259816D01*
X133775905Y-78415822D01*
X133704104Y-78589166D01*
X133667500Y-78773187D01*
X103530000Y-78773187D01*
X103530000Y-72804187D01*
X118427500Y-72804187D01*
X118427500Y-72991813D01*
X118464104Y-73175834D01*
X118535905Y-73349178D01*
X118640145Y-73505184D01*
X118772816Y-73637855D01*
X118928822Y-73742095D01*
X119102166Y-73813896D01*
X119286187Y-73850500D01*
X119473813Y-73850500D01*
X119657834Y-73813896D01*
X119831178Y-73742095D01*
X119987184Y-73637855D01*
X120119855Y-73505184D01*
X120224095Y-73349178D01*
X120295896Y-73175834D01*
X120332500Y-72991813D01*
X120332500Y-72804187D01*
X120295896Y-72620166D01*
X120224095Y-72446822D01*
X120119855Y-72290816D01*
X119987184Y-72158145D01*
X119831178Y-72053905D01*
X119657834Y-71982104D01*
X119473813Y-71945500D01*
X119286187Y-71945500D01*
X119102166Y-71982104D01*
X118928822Y-72053905D01*
X118772816Y-72158145D01*
X118640145Y-72290816D01*
X118535905Y-72446822D01*
X118464104Y-72620166D01*
X118427500Y-72804187D01*
X103530000Y-72804187D01*
X103530000Y-71026187D01*
X133413500Y-71026187D01*
X133413500Y-71213813D01*
X133450104Y-71397834D01*
X133521905Y-71571178D01*
X133626145Y-71727184D01*
X133758816Y-71859855D01*
X133914822Y-71964095D01*
X134088166Y-72035896D01*
X134272187Y-72072500D01*
X134459813Y-72072500D01*
X134643834Y-72035896D01*
X134817178Y-71964095D01*
X134973184Y-71859855D01*
X135105855Y-71727184D01*
X135210095Y-71571178D01*
X135281896Y-71397834D01*
X135318500Y-71213813D01*
X135318500Y-71026187D01*
X135281896Y-70842166D01*
X135210095Y-70668822D01*
X135105855Y-70512816D01*
X134973184Y-70380145D01*
X134817178Y-70275905D01*
X134643834Y-70204104D01*
X134459813Y-70167500D01*
X134272187Y-70167500D01*
X134088166Y-70204104D01*
X133914822Y-70275905D01*
X133758816Y-70380145D01*
X133626145Y-70512816D01*
X133521905Y-70668822D01*
X133450104Y-70842166D01*
X133413500Y-71026187D01*
X103530000Y-71026187D01*
X103530000Y-57864279D01*
X103583832Y-58134912D01*
X103707082Y-58432463D01*
X103886013Y-58700252D01*
X104113748Y-58927987D01*
X104381537Y-59106918D01*
X104679088Y-59230168D01*
X104994967Y-59293000D01*
X105317033Y-59293000D01*
X105632912Y-59230168D01*
X105930463Y-59106918D01*
X106198252Y-58927987D01*
X106425987Y-58700252D01*
X106604918Y-58432463D01*
X106728168Y-58134912D01*
X106791000Y-57819033D01*
X106791000Y-57496967D01*
X106789814Y-57491000D01*
X112258928Y-57491000D01*
X112258928Y-58841000D01*
X112271188Y-58965482D01*
X112307498Y-59085180D01*
X112366463Y-59195494D01*
X112445815Y-59292185D01*
X112542506Y-59371537D01*
X112652820Y-59430502D01*
X112772518Y-59466812D01*
X112897000Y-59479072D01*
X114247000Y-59479072D01*
X114371482Y-59466812D01*
X114491180Y-59430502D01*
X114601494Y-59371537D01*
X114698185Y-59292185D01*
X114771074Y-59203369D01*
X114840682Y-59260495D01*
X115068259Y-59382138D01*
X115315195Y-59457045D01*
X115507649Y-59476000D01*
X115636351Y-59476000D01*
X115828805Y-59457045D01*
X116075741Y-59382138D01*
X116303318Y-59260495D01*
X116502792Y-59096792D01*
X116572000Y-59012461D01*
X116641208Y-59096792D01*
X116840682Y-59260495D01*
X117068259Y-59382138D01*
X117315195Y-59457045D01*
X117507649Y-59476000D01*
X117636351Y-59476000D01*
X117828805Y-59457045D01*
X118075741Y-59382138D01*
X118303318Y-59260495D01*
X118502792Y-59096792D01*
X118572000Y-59012461D01*
X118641208Y-59096792D01*
X118840682Y-59260495D01*
X119068259Y-59382138D01*
X119315195Y-59457045D01*
X119507649Y-59476000D01*
X119636351Y-59476000D01*
X119828805Y-59457045D01*
X120075741Y-59382138D01*
X120303318Y-59260495D01*
X120502792Y-59096792D01*
X120572000Y-59012461D01*
X120641208Y-59096792D01*
X120840682Y-59260495D01*
X121068259Y-59382138D01*
X121315195Y-59457045D01*
X121507649Y-59476000D01*
X121636351Y-59476000D01*
X121828805Y-59457045D01*
X122075741Y-59382138D01*
X122303318Y-59260495D01*
X122502792Y-59096792D01*
X122572000Y-59012461D01*
X122641208Y-59096792D01*
X122840682Y-59260495D01*
X123068259Y-59382138D01*
X123315195Y-59457045D01*
X123507649Y-59476000D01*
X123636351Y-59476000D01*
X123828805Y-59457045D01*
X124075741Y-59382138D01*
X124303318Y-59260495D01*
X124502792Y-59096792D01*
X124572000Y-59012461D01*
X124641208Y-59096792D01*
X124840682Y-59260495D01*
X125068259Y-59382138D01*
X125315195Y-59457045D01*
X125507649Y-59476000D01*
X125636351Y-59476000D01*
X125828805Y-59457045D01*
X126075741Y-59382138D01*
X126303318Y-59260495D01*
X126502792Y-59096792D01*
X126572000Y-59012461D01*
X126641208Y-59096792D01*
X126840682Y-59260495D01*
X127068259Y-59382138D01*
X127315195Y-59457045D01*
X127507649Y-59476000D01*
X127636351Y-59476000D01*
X127828805Y-59457045D01*
X128075741Y-59382138D01*
X128303318Y-59260495D01*
X128502792Y-59096792D01*
X128572000Y-59012461D01*
X128641208Y-59096792D01*
X128840682Y-59260495D01*
X129068259Y-59382138D01*
X129315195Y-59457045D01*
X129507649Y-59476000D01*
X129636351Y-59476000D01*
X129828805Y-59457045D01*
X130075741Y-59382138D01*
X130303318Y-59260495D01*
X130502792Y-59096792D01*
X130572000Y-59012461D01*
X130641208Y-59096792D01*
X130840682Y-59260495D01*
X131068259Y-59382138D01*
X131315195Y-59457045D01*
X131507649Y-59476000D01*
X131636351Y-59476000D01*
X131828805Y-59457045D01*
X132075741Y-59382138D01*
X132303318Y-59260495D01*
X132502792Y-59096792D01*
X132572000Y-59012461D01*
X132641208Y-59096792D01*
X132840682Y-59260495D01*
X133068259Y-59382138D01*
X133315195Y-59457045D01*
X133507649Y-59476000D01*
X133636351Y-59476000D01*
X133828805Y-59457045D01*
X134075741Y-59382138D01*
X134303318Y-59260495D01*
X134502792Y-59096792D01*
X134572000Y-59012461D01*
X134641208Y-59096792D01*
X134840682Y-59260495D01*
X135068259Y-59382138D01*
X135315195Y-59457045D01*
X135507649Y-59476000D01*
X135636351Y-59476000D01*
X135828805Y-59457045D01*
X136075741Y-59382138D01*
X136303318Y-59260495D01*
X136434671Y-59152697D01*
X136437000Y-59176345D01*
X136437000Y-59176346D01*
X136437001Y-59176352D01*
X136437000Y-60585868D01*
X136181869Y-60841000D01*
X122737741Y-60841000D01*
X122681999Y-60835510D01*
X122626257Y-60841000D01*
X122626248Y-60841000D01*
X122459501Y-60857423D01*
X122245553Y-60922324D01*
X122048377Y-61027716D01*
X121875551Y-61169551D01*
X121840011Y-61212857D01*
X115236012Y-67816857D01*
X115129717Y-67946378D01*
X115024324Y-68143554D01*
X114959423Y-68357502D01*
X114937509Y-68580000D01*
X114959423Y-68802498D01*
X115024324Y-69016446D01*
X115129717Y-69213622D01*
X115271552Y-69386448D01*
X115444378Y-69528283D01*
X115641554Y-69633676D01*
X115855502Y-69698577D01*
X116078000Y-69720491D01*
X116300498Y-69698577D01*
X116514446Y-69633676D01*
X116711622Y-69528283D01*
X116841143Y-69421988D01*
X118792944Y-67470187D01*
X122491500Y-67470187D01*
X122491500Y-67657813D01*
X122528104Y-67841834D01*
X122599905Y-68015178D01*
X122704145Y-68171184D01*
X122836816Y-68303855D01*
X122992822Y-68408095D01*
X123166166Y-68479896D01*
X123350187Y-68516500D01*
X123507500Y-68516500D01*
X123507500Y-68673813D01*
X123544104Y-68857834D01*
X123615905Y-69031178D01*
X123720145Y-69187184D01*
X123852816Y-69319855D01*
X124008822Y-69424095D01*
X124182166Y-69495896D01*
X124366187Y-69532500D01*
X124542732Y-69532500D01*
X124560104Y-69619834D01*
X124631905Y-69793178D01*
X124736145Y-69949184D01*
X124868816Y-70081855D01*
X125024822Y-70186095D01*
X125198166Y-70257896D01*
X125382187Y-70294500D01*
X125569813Y-70294500D01*
X125753834Y-70257896D01*
X125927178Y-70186095D01*
X126083184Y-70081855D01*
X126215855Y-69949184D01*
X126320095Y-69793178D01*
X126391896Y-69619834D01*
X126428500Y-69435813D01*
X126428500Y-69248187D01*
X126391896Y-69064166D01*
X126320095Y-68890822D01*
X126215855Y-68734816D01*
X126083184Y-68602145D01*
X125927178Y-68497905D01*
X125753834Y-68426104D01*
X125569813Y-68389500D01*
X125393268Y-68389500D01*
X125375896Y-68302166D01*
X125304095Y-68128822D01*
X125199855Y-67972816D01*
X125067184Y-67840145D01*
X124911178Y-67735905D01*
X124737834Y-67664104D01*
X124553813Y-67627500D01*
X124396500Y-67627500D01*
X124396500Y-67470187D01*
X124359896Y-67286166D01*
X124288095Y-67112822D01*
X124183855Y-66956816D01*
X124051184Y-66824145D01*
X123895178Y-66719905D01*
X123721834Y-66648104D01*
X123537813Y-66611500D01*
X123350187Y-66611500D01*
X123166166Y-66648104D01*
X122992822Y-66719905D01*
X122836816Y-66824145D01*
X122704145Y-66956816D01*
X122599905Y-67112822D01*
X122528104Y-67286166D01*
X122491500Y-67470187D01*
X118792944Y-67470187D01*
X121078944Y-65184187D01*
X136080500Y-65184187D01*
X136080500Y-65371813D01*
X136117104Y-65555834D01*
X136188905Y-65729178D01*
X136293145Y-65885184D01*
X136425816Y-66017855D01*
X136581822Y-66122095D01*
X136755166Y-66193896D01*
X136939187Y-66230500D01*
X137126813Y-66230500D01*
X137310834Y-66193896D01*
X137484178Y-66122095D01*
X137640184Y-66017855D01*
X137772855Y-65885184D01*
X137877095Y-65729178D01*
X137948896Y-65555834D01*
X137985500Y-65371813D01*
X137985500Y-65184187D01*
X137948896Y-65000166D01*
X137877095Y-64826822D01*
X137772855Y-64670816D01*
X137640184Y-64538145D01*
X137484178Y-64433905D01*
X137310834Y-64362104D01*
X137126813Y-64325500D01*
X136939187Y-64325500D01*
X136755166Y-64362104D01*
X136581822Y-64433905D01*
X136425816Y-64538145D01*
X136293145Y-64670816D01*
X136188905Y-64826822D01*
X136117104Y-65000166D01*
X136080500Y-65184187D01*
X121078944Y-65184187D01*
X122521002Y-63742130D01*
X122528104Y-63777834D01*
X122599905Y-63951178D01*
X122704145Y-64107184D01*
X122836816Y-64239855D01*
X122992822Y-64344095D01*
X123166166Y-64415896D01*
X123350187Y-64452500D01*
X123537813Y-64452500D01*
X123721834Y-64415896D01*
X123895178Y-64344095D01*
X124051184Y-64239855D01*
X124183855Y-64107184D01*
X124288095Y-63951178D01*
X124359896Y-63777834D01*
X124396500Y-63593813D01*
X124396500Y-63406187D01*
X124359896Y-63222166D01*
X124313850Y-63111000D01*
X136596249Y-63111000D01*
X136652000Y-63116491D01*
X136707751Y-63111000D01*
X136707752Y-63111000D01*
X136874499Y-63094577D01*
X137088447Y-63029676D01*
X137285623Y-62924284D01*
X137458449Y-62782449D01*
X137493996Y-62739136D01*
X138431143Y-61801989D01*
X138474449Y-61766449D01*
X138553476Y-61670155D01*
X138720959Y-61759676D01*
X138934907Y-61824577D01*
X139157406Y-61846491D01*
X139213158Y-61841000D01*
X142268019Y-61841000D01*
X142261188Y-61863518D01*
X142248928Y-61988000D01*
X142248928Y-63488000D01*
X142261188Y-63612482D01*
X142297498Y-63732180D01*
X142356463Y-63842494D01*
X142435815Y-63939185D01*
X142532506Y-64018537D01*
X142642820Y-64077502D01*
X142762518Y-64113812D01*
X142887000Y-64126072D01*
X144387000Y-64126072D01*
X144511482Y-64113812D01*
X144631180Y-64077502D01*
X144741494Y-64018537D01*
X144838185Y-63939185D01*
X144917537Y-63842494D01*
X144976502Y-63732180D01*
X145012812Y-63612482D01*
X145025072Y-63488000D01*
X145025072Y-61988000D01*
X145017775Y-61913906D01*
X146312000Y-63208132D01*
X146312001Y-64368317D01*
X146242506Y-64405463D01*
X146145815Y-64484815D01*
X146066463Y-64581506D01*
X146007498Y-64691820D01*
X145971188Y-64811518D01*
X145958928Y-64936000D01*
X145958928Y-66636000D01*
X145971188Y-66760482D01*
X146007498Y-66880180D01*
X146066463Y-66990494D01*
X146145815Y-67087185D01*
X146242506Y-67166537D01*
X146352820Y-67225502D01*
X146472518Y-67261812D01*
X146597000Y-67274072D01*
X148297000Y-67274072D01*
X148421482Y-67261812D01*
X148541180Y-67225502D01*
X148651494Y-67166537D01*
X148748185Y-67087185D01*
X148827537Y-66990494D01*
X148886502Y-66880180D01*
X148907393Y-66811313D01*
X148931866Y-66841134D01*
X149157986Y-67026706D01*
X149415966Y-67164599D01*
X149695889Y-67249513D01*
X149914050Y-67271000D01*
X150059950Y-67271000D01*
X150278111Y-67249513D01*
X150558034Y-67164599D01*
X150816014Y-67026706D01*
X151042134Y-66841134D01*
X151227706Y-66615014D01*
X151365599Y-66357034D01*
X151450513Y-66077111D01*
X151479185Y-65786000D01*
X151450513Y-65494889D01*
X151365599Y-65214966D01*
X151227706Y-64956986D01*
X151042134Y-64730866D01*
X150816014Y-64545294D01*
X150558034Y-64407401D01*
X150278111Y-64322487D01*
X150059950Y-64301000D01*
X149914050Y-64301000D01*
X149695889Y-64322487D01*
X149415966Y-64407401D01*
X149157986Y-64545294D01*
X148931866Y-64730866D01*
X148907393Y-64760687D01*
X148886502Y-64691820D01*
X148827537Y-64581506D01*
X148748185Y-64484815D01*
X148651494Y-64405463D01*
X148582000Y-64368317D01*
X148582000Y-63246000D01*
X153447815Y-63246000D01*
X153476487Y-63537111D01*
X153561401Y-63817034D01*
X153699294Y-64075014D01*
X153884866Y-64301134D01*
X154110986Y-64486706D01*
X154165791Y-64516000D01*
X154110986Y-64545294D01*
X153884866Y-64730866D01*
X153699294Y-64956986D01*
X153561401Y-65214966D01*
X153476487Y-65494889D01*
X153447815Y-65786000D01*
X153476487Y-66077111D01*
X153561401Y-66357034D01*
X153699294Y-66615014D01*
X153884866Y-66841134D01*
X154110986Y-67026706D01*
X154165791Y-67056000D01*
X154110986Y-67085294D01*
X153884866Y-67270866D01*
X153699294Y-67496986D01*
X153561401Y-67754966D01*
X153476487Y-68034889D01*
X153447815Y-68326000D01*
X153476487Y-68617111D01*
X153561401Y-68897034D01*
X153699294Y-69155014D01*
X153884866Y-69381134D01*
X154110986Y-69566706D01*
X154165791Y-69596000D01*
X154110986Y-69625294D01*
X153884866Y-69810866D01*
X153699294Y-70036986D01*
X153561401Y-70294966D01*
X153476487Y-70574889D01*
X153447815Y-70866000D01*
X153476487Y-71157111D01*
X153561401Y-71437034D01*
X153699294Y-71695014D01*
X153884866Y-71921134D01*
X154110986Y-72106706D01*
X154165791Y-72136000D01*
X154110986Y-72165294D01*
X153884866Y-72350866D01*
X153699294Y-72576986D01*
X153561401Y-72834966D01*
X153476487Y-73114889D01*
X153447815Y-73406000D01*
X153476487Y-73697111D01*
X153561401Y-73977034D01*
X153699294Y-74235014D01*
X153884866Y-74461134D01*
X154110986Y-74646706D01*
X154165791Y-74676000D01*
X154110986Y-74705294D01*
X153884866Y-74890866D01*
X153699294Y-75116986D01*
X153561401Y-75374966D01*
X153476487Y-75654889D01*
X153447815Y-75946000D01*
X153476487Y-76237111D01*
X153561401Y-76517034D01*
X153699294Y-76775014D01*
X153884866Y-77001134D01*
X154110986Y-77186706D01*
X154165791Y-77216000D01*
X154110986Y-77245294D01*
X153884866Y-77430866D01*
X153699294Y-77656986D01*
X153561401Y-77914966D01*
X153476487Y-78194889D01*
X153447815Y-78486000D01*
X153476487Y-78777111D01*
X153561401Y-79057034D01*
X153699294Y-79315014D01*
X153884866Y-79541134D01*
X154110986Y-79726706D01*
X154165791Y-79756000D01*
X154110986Y-79785294D01*
X153884866Y-79970866D01*
X153699294Y-80196986D01*
X153561401Y-80454966D01*
X153476487Y-80734889D01*
X153447815Y-81026000D01*
X153476487Y-81317111D01*
X153561401Y-81597034D01*
X153699294Y-81855014D01*
X153884866Y-82081134D01*
X154110986Y-82266706D01*
X154165791Y-82296000D01*
X154110986Y-82325294D01*
X153884866Y-82510866D01*
X153699294Y-82736986D01*
X153561401Y-82994966D01*
X153476487Y-83274889D01*
X153447815Y-83566000D01*
X153476487Y-83857111D01*
X153561401Y-84137034D01*
X153699294Y-84395014D01*
X153884866Y-84621134D01*
X154110986Y-84806706D01*
X154165791Y-84836000D01*
X154110986Y-84865294D01*
X153884866Y-85050866D01*
X153699294Y-85276986D01*
X153561401Y-85534966D01*
X153476487Y-85814889D01*
X153447815Y-86106000D01*
X153476487Y-86397111D01*
X153561401Y-86677034D01*
X153699294Y-86935014D01*
X153884866Y-87161134D01*
X154110986Y-87346706D01*
X154165791Y-87376000D01*
X154110986Y-87405294D01*
X153884866Y-87590866D01*
X153699294Y-87816986D01*
X153561401Y-88074966D01*
X153476487Y-88354889D01*
X153447815Y-88646000D01*
X153476487Y-88937111D01*
X153561401Y-89217034D01*
X153699294Y-89475014D01*
X153884866Y-89701134D01*
X154110986Y-89886706D01*
X154165791Y-89916000D01*
X154110986Y-89945294D01*
X153884866Y-90130866D01*
X153699294Y-90356986D01*
X153561401Y-90614966D01*
X153476487Y-90894889D01*
X153447815Y-91186000D01*
X153476487Y-91477111D01*
X153561401Y-91757034D01*
X153699294Y-92015014D01*
X153884866Y-92241134D01*
X153914687Y-92265607D01*
X153845820Y-92286498D01*
X153735506Y-92345463D01*
X153638815Y-92424815D01*
X153559463Y-92521506D01*
X153500498Y-92631820D01*
X153464188Y-92751518D01*
X153451928Y-92876000D01*
X153451928Y-94576000D01*
X153464188Y-94700482D01*
X153500498Y-94820180D01*
X153559463Y-94930494D01*
X153638815Y-95027185D01*
X153735506Y-95106537D01*
X153845820Y-95165502D01*
X153965518Y-95201812D01*
X154090000Y-95214072D01*
X155790000Y-95214072D01*
X155914482Y-95201812D01*
X156034180Y-95165502D01*
X156144494Y-95106537D01*
X156241185Y-95027185D01*
X156320537Y-94930494D01*
X156379502Y-94820180D01*
X156415812Y-94700482D01*
X156428072Y-94576000D01*
X156428072Y-92876000D01*
X156415812Y-92751518D01*
X156379502Y-92631820D01*
X156320537Y-92521506D01*
X156241185Y-92424815D01*
X156144494Y-92345463D01*
X156034180Y-92286498D01*
X155965313Y-92265607D01*
X155995134Y-92241134D01*
X156180706Y-92015014D01*
X156318599Y-91757034D01*
X156403513Y-91477111D01*
X156432185Y-91186000D01*
X156403513Y-90894889D01*
X156318599Y-90614966D01*
X156180706Y-90356986D01*
X155995134Y-90130866D01*
X155769014Y-89945294D01*
X155714209Y-89916000D01*
X155769014Y-89886706D01*
X155995134Y-89701134D01*
X156180706Y-89475014D01*
X156318599Y-89217034D01*
X156403513Y-88937111D01*
X156432185Y-88646000D01*
X156403513Y-88354889D01*
X156318599Y-88074966D01*
X156180706Y-87816986D01*
X155995134Y-87590866D01*
X155769014Y-87405294D01*
X155714209Y-87376000D01*
X155769014Y-87346706D01*
X155995134Y-87161134D01*
X156180706Y-86935014D01*
X156318599Y-86677034D01*
X156403513Y-86397111D01*
X156432185Y-86106000D01*
X156403513Y-85814889D01*
X156318599Y-85534966D01*
X156180706Y-85276986D01*
X155995134Y-85050866D01*
X155769014Y-84865294D01*
X155714209Y-84836000D01*
X155769014Y-84806706D01*
X155995134Y-84621134D01*
X156180706Y-84395014D01*
X156318599Y-84137034D01*
X156403513Y-83857111D01*
X156432185Y-83566000D01*
X156403513Y-83274889D01*
X156318599Y-82994966D01*
X156180706Y-82736986D01*
X155995134Y-82510866D01*
X155769014Y-82325294D01*
X155714209Y-82296000D01*
X155769014Y-82266706D01*
X155995134Y-82081134D01*
X156180706Y-81855014D01*
X156318599Y-81597034D01*
X156403513Y-81317111D01*
X156432185Y-81026000D01*
X156403513Y-80734889D01*
X156318599Y-80454966D01*
X156180706Y-80196986D01*
X155995134Y-79970866D01*
X155769014Y-79785294D01*
X155714209Y-79756000D01*
X155769014Y-79726706D01*
X155995134Y-79541134D01*
X156000014Y-79535187D01*
X157797500Y-79535187D01*
X157797500Y-79722813D01*
X157834104Y-79906834D01*
X157905905Y-80080178D01*
X158010145Y-80236184D01*
X158142816Y-80368855D01*
X158298822Y-80473095D01*
X158472166Y-80544896D01*
X158656187Y-80581500D01*
X158843813Y-80581500D01*
X159027834Y-80544896D01*
X159201178Y-80473095D01*
X159357184Y-80368855D01*
X159489855Y-80236184D01*
X159594095Y-80080178D01*
X159665896Y-79906834D01*
X159702500Y-79722813D01*
X159702500Y-79535187D01*
X159665896Y-79351166D01*
X159594095Y-79177822D01*
X159489855Y-79021816D01*
X159357184Y-78889145D01*
X159201178Y-78784905D01*
X159027834Y-78713104D01*
X158843813Y-78676500D01*
X158656187Y-78676500D01*
X158472166Y-78713104D01*
X158298822Y-78784905D01*
X158142816Y-78889145D01*
X158010145Y-79021816D01*
X157905905Y-79177822D01*
X157834104Y-79351166D01*
X157797500Y-79535187D01*
X156000014Y-79535187D01*
X156180706Y-79315014D01*
X156318599Y-79057034D01*
X156403513Y-78777111D01*
X156432185Y-78486000D01*
X156403513Y-78194889D01*
X156318599Y-77914966D01*
X156180706Y-77656986D01*
X155995134Y-77430866D01*
X155769014Y-77245294D01*
X155714209Y-77216000D01*
X155769014Y-77186706D01*
X155995134Y-77001134D01*
X156180706Y-76775014D01*
X156318599Y-76517034D01*
X156403513Y-76237111D01*
X156432185Y-75946000D01*
X156403513Y-75654889D01*
X156318599Y-75374966D01*
X156180706Y-75116986D01*
X155995134Y-74890866D01*
X155769014Y-74705294D01*
X155714209Y-74676000D01*
X155769014Y-74646706D01*
X155995134Y-74461134D01*
X156180706Y-74235014D01*
X156318599Y-73977034D01*
X156403513Y-73697111D01*
X156432185Y-73406000D01*
X156403513Y-73114889D01*
X156318599Y-72834966D01*
X156180706Y-72576986D01*
X155995134Y-72350866D01*
X155769014Y-72165294D01*
X155714209Y-72136000D01*
X155769014Y-72106706D01*
X155995134Y-71921134D01*
X156180706Y-71695014D01*
X156318599Y-71437034D01*
X156403513Y-71157111D01*
X156432185Y-70866000D01*
X156403513Y-70574889D01*
X156318599Y-70294966D01*
X156180706Y-70036986D01*
X155995134Y-69810866D01*
X155769014Y-69625294D01*
X155714209Y-69596000D01*
X155769014Y-69566706D01*
X155995134Y-69381134D01*
X156180706Y-69155014D01*
X156318599Y-68897034D01*
X156403513Y-68617111D01*
X156432185Y-68326000D01*
X156403513Y-68034889D01*
X156318599Y-67754966D01*
X156180706Y-67496986D01*
X155995134Y-67270866D01*
X155769014Y-67085294D01*
X155714209Y-67056000D01*
X155769014Y-67026706D01*
X155995134Y-66841134D01*
X156180706Y-66615014D01*
X156318599Y-66357034D01*
X156403513Y-66077111D01*
X156432185Y-65786000D01*
X156403513Y-65494889D01*
X156318599Y-65214966D01*
X156180706Y-64956986D01*
X155995134Y-64730866D01*
X155769014Y-64545294D01*
X155714209Y-64516000D01*
X155769014Y-64486706D01*
X155995134Y-64301134D01*
X156180706Y-64075014D01*
X156318599Y-63817034D01*
X156403513Y-63537111D01*
X156432185Y-63246000D01*
X156403513Y-62954889D01*
X156318599Y-62674966D01*
X156180706Y-62416986D01*
X155995134Y-62190866D01*
X155769014Y-62005294D01*
X155511034Y-61867401D01*
X155231111Y-61782487D01*
X155012950Y-61761000D01*
X154867050Y-61761000D01*
X154648889Y-61782487D01*
X154368966Y-61867401D01*
X154110986Y-62005294D01*
X153884866Y-62190866D01*
X153699294Y-62416986D01*
X153561401Y-62674966D01*
X153476487Y-62954889D01*
X153447815Y-63246000D01*
X148582000Y-63246000D01*
X148582000Y-62793751D01*
X148587491Y-62738000D01*
X148565577Y-62515501D01*
X148500676Y-62301553D01*
X148445593Y-62198500D01*
X148395284Y-62104377D01*
X148253449Y-61931551D01*
X148210141Y-61896009D01*
X146256996Y-59942865D01*
X146221449Y-59899551D01*
X146048623Y-59757716D01*
X145851447Y-59652324D01*
X145637499Y-59587423D01*
X145470752Y-59571000D01*
X145470751Y-59571000D01*
X145415000Y-59565509D01*
X145359249Y-59571000D01*
X139627539Y-59571000D01*
X139532538Y-59476000D01*
X139636351Y-59476000D01*
X139828805Y-59457045D01*
X140075741Y-59382138D01*
X140303318Y-59260495D01*
X140502792Y-59096792D01*
X140666495Y-58897318D01*
X140788138Y-58669741D01*
X140863045Y-58422805D01*
X140888338Y-58166000D01*
X140863045Y-57909195D01*
X140788138Y-57662259D01*
X140666495Y-57434682D01*
X140502792Y-57235208D01*
X140303318Y-57071505D01*
X140075741Y-56949862D01*
X139828805Y-56874955D01*
X139636351Y-56856000D01*
X139507649Y-56856000D01*
X139315195Y-56874955D01*
X139068259Y-56949862D01*
X138840682Y-57071505D01*
X138641208Y-57235208D01*
X138572000Y-57319539D01*
X138502792Y-57235208D01*
X138303318Y-57071505D01*
X138075741Y-56949862D01*
X137828805Y-56874955D01*
X137636351Y-56856000D01*
X137507649Y-56856000D01*
X137315195Y-56874955D01*
X137068259Y-56949862D01*
X136840682Y-57071505D01*
X136641208Y-57235208D01*
X136572000Y-57319539D01*
X136502792Y-57235208D01*
X136303318Y-57071505D01*
X136075741Y-56949862D01*
X135828805Y-56874955D01*
X135636351Y-56856000D01*
X135507649Y-56856000D01*
X135315195Y-56874955D01*
X135068259Y-56949862D01*
X134840682Y-57071505D01*
X134641208Y-57235208D01*
X134572000Y-57319539D01*
X134502792Y-57235208D01*
X134303318Y-57071505D01*
X134075741Y-56949862D01*
X133828805Y-56874955D01*
X133636351Y-56856000D01*
X133507649Y-56856000D01*
X133315195Y-56874955D01*
X133068259Y-56949862D01*
X132840682Y-57071505D01*
X132641208Y-57235208D01*
X132572000Y-57319539D01*
X132502792Y-57235208D01*
X132303318Y-57071505D01*
X132075741Y-56949862D01*
X131828805Y-56874955D01*
X131636351Y-56856000D01*
X131507649Y-56856000D01*
X131315195Y-56874955D01*
X131068259Y-56949862D01*
X130840682Y-57071505D01*
X130641208Y-57235208D01*
X130572000Y-57319539D01*
X130502792Y-57235208D01*
X130303318Y-57071505D01*
X130075741Y-56949862D01*
X129828805Y-56874955D01*
X129636351Y-56856000D01*
X129507649Y-56856000D01*
X129315195Y-56874955D01*
X129068259Y-56949862D01*
X128840682Y-57071505D01*
X128641208Y-57235208D01*
X128572000Y-57319539D01*
X128502792Y-57235208D01*
X128303318Y-57071505D01*
X128075741Y-56949862D01*
X127828805Y-56874955D01*
X127636351Y-56856000D01*
X127507649Y-56856000D01*
X127315195Y-56874955D01*
X127068259Y-56949862D01*
X126840682Y-57071505D01*
X126641208Y-57235208D01*
X126572000Y-57319539D01*
X126502792Y-57235208D01*
X126303318Y-57071505D01*
X126075741Y-56949862D01*
X125828805Y-56874955D01*
X125636351Y-56856000D01*
X125507649Y-56856000D01*
X125315195Y-56874955D01*
X125068259Y-56949862D01*
X124840682Y-57071505D01*
X124641208Y-57235208D01*
X124572000Y-57319539D01*
X124502792Y-57235208D01*
X124303318Y-57071505D01*
X124075741Y-56949862D01*
X123828805Y-56874955D01*
X123636351Y-56856000D01*
X123507649Y-56856000D01*
X123315195Y-56874955D01*
X123068259Y-56949862D01*
X122840682Y-57071505D01*
X122641208Y-57235208D01*
X122572000Y-57319539D01*
X122502792Y-57235208D01*
X122303318Y-57071505D01*
X122075741Y-56949862D01*
X121828805Y-56874955D01*
X121636351Y-56856000D01*
X121507649Y-56856000D01*
X121315195Y-56874955D01*
X121068259Y-56949862D01*
X120840682Y-57071505D01*
X120641208Y-57235208D01*
X120572000Y-57319539D01*
X120502792Y-57235208D01*
X120303318Y-57071505D01*
X120075741Y-56949862D01*
X119828805Y-56874955D01*
X119636351Y-56856000D01*
X119507649Y-56856000D01*
X119315195Y-56874955D01*
X119068259Y-56949862D01*
X118840682Y-57071505D01*
X118641208Y-57235208D01*
X118572000Y-57319539D01*
X118502792Y-57235208D01*
X118303318Y-57071505D01*
X118075741Y-56949862D01*
X117828805Y-56874955D01*
X117636351Y-56856000D01*
X117507649Y-56856000D01*
X117315195Y-56874955D01*
X117068259Y-56949862D01*
X116840682Y-57071505D01*
X116641208Y-57235208D01*
X116572000Y-57319539D01*
X116502792Y-57235208D01*
X116303318Y-57071505D01*
X116075741Y-56949862D01*
X115828805Y-56874955D01*
X115636351Y-56856000D01*
X115507649Y-56856000D01*
X115315195Y-56874955D01*
X115068259Y-56949862D01*
X114840682Y-57071505D01*
X114771074Y-57128631D01*
X114698185Y-57039815D01*
X114601494Y-56960463D01*
X114491180Y-56901498D01*
X114371482Y-56865188D01*
X114247000Y-56852928D01*
X112897000Y-56852928D01*
X112772518Y-56865188D01*
X112652820Y-56901498D01*
X112542506Y-56960463D01*
X112445815Y-57039815D01*
X112366463Y-57136506D01*
X112307498Y-57246820D01*
X112271188Y-57366518D01*
X112258928Y-57491000D01*
X106789814Y-57491000D01*
X106728168Y-57181088D01*
X106604918Y-56883537D01*
X106425987Y-56615748D01*
X106223239Y-56413000D01*
X158063761Y-56413000D01*
X157861013Y-56615748D01*
M02*
