G04 #@! TF.GenerationSoftware,KiCad,Pcbnew,(5.1.0-0)*
G04 #@! TF.CreationDate,2019-04-23T18:51:07+03:00*
G04 #@! TF.ProjectId,ovms-swcan,6f766d73-2d73-4776-9361-6e2e6b696361,1.0*
G04 #@! TF.SameCoordinates,Original*
G04 #@! TF.FileFunction,Soldermask,Bot*
G04 #@! TF.FilePolarity,Negative*
%FSLAX46Y46*%
G04 Gerber Fmt 4.6, Leading zero omitted, Abs format (unit mm)*
G04 Created by KiCad (PCBNEW (5.1.0-0)) date 2019-04-23 18:51:07*
%MOMM*%
%LPD*%
G04 APERTURE LIST*
%ADD10C,0.100000*%
G04 APERTURE END LIST*
D10*
G36*
X139706801Y-97940044D02*
G01*
X139743530Y-97943661D01*
X139795919Y-97959553D01*
X139908469Y-97993694D01*
X140060475Y-98074943D01*
X140193712Y-98184288D01*
X140303057Y-98317525D01*
X140384306Y-98469531D01*
X140418447Y-98582081D01*
X140434339Y-98634470D01*
X140434339Y-98634472D01*
X140451234Y-98806000D01*
X140437119Y-98949301D01*
X140434339Y-98977530D01*
X140418447Y-99029919D01*
X140384306Y-99142469D01*
X140303057Y-99294475D01*
X140193712Y-99427712D01*
X140060475Y-99537057D01*
X139908469Y-99618306D01*
X139795919Y-99652447D01*
X139743530Y-99668339D01*
X139706801Y-99671956D01*
X139614984Y-99681000D01*
X139529016Y-99681000D01*
X139437199Y-99671956D01*
X139400470Y-99668339D01*
X139348081Y-99652447D01*
X139235531Y-99618306D01*
X139083525Y-99537057D01*
X138950288Y-99427712D01*
X138840943Y-99294475D01*
X138759694Y-99142469D01*
X138725553Y-99029919D01*
X138709661Y-98977530D01*
X138706881Y-98949301D01*
X138692766Y-98806000D01*
X138709661Y-98634472D01*
X138709661Y-98634470D01*
X138725553Y-98582081D01*
X138759694Y-98469531D01*
X138840943Y-98317525D01*
X138950288Y-98184288D01*
X139083525Y-98074943D01*
X139235531Y-97993694D01*
X139348081Y-97959553D01*
X139400470Y-97943661D01*
X139437199Y-97940044D01*
X139529016Y-97931000D01*
X139614984Y-97931000D01*
X139706801Y-97940044D01*
X139706801Y-97940044D01*
G37*
G36*
X137706801Y-97940044D02*
G01*
X137743530Y-97943661D01*
X137795919Y-97959553D01*
X137908469Y-97993694D01*
X138060475Y-98074943D01*
X138193712Y-98184288D01*
X138303057Y-98317525D01*
X138384306Y-98469531D01*
X138418447Y-98582081D01*
X138434339Y-98634470D01*
X138434339Y-98634472D01*
X138451234Y-98806000D01*
X138437119Y-98949301D01*
X138434339Y-98977530D01*
X138418447Y-99029919D01*
X138384306Y-99142469D01*
X138303057Y-99294475D01*
X138193712Y-99427712D01*
X138060475Y-99537057D01*
X137908469Y-99618306D01*
X137795919Y-99652447D01*
X137743530Y-99668339D01*
X137706801Y-99671956D01*
X137614984Y-99681000D01*
X137529016Y-99681000D01*
X137437199Y-99671956D01*
X137400470Y-99668339D01*
X137348081Y-99652447D01*
X137235531Y-99618306D01*
X137083525Y-99537057D01*
X136950288Y-99427712D01*
X136840943Y-99294475D01*
X136759694Y-99142469D01*
X136725553Y-99029919D01*
X136709661Y-98977530D01*
X136706881Y-98949301D01*
X136692766Y-98806000D01*
X136709661Y-98634472D01*
X136709661Y-98634470D01*
X136725553Y-98582081D01*
X136759694Y-98469531D01*
X136840943Y-98317525D01*
X136950288Y-98184288D01*
X137083525Y-98074943D01*
X137235531Y-97993694D01*
X137348081Y-97959553D01*
X137400470Y-97943661D01*
X137437199Y-97940044D01*
X137529016Y-97931000D01*
X137614984Y-97931000D01*
X137706801Y-97940044D01*
X137706801Y-97940044D01*
G37*
G36*
X135706801Y-97940044D02*
G01*
X135743530Y-97943661D01*
X135795919Y-97959553D01*
X135908469Y-97993694D01*
X136060475Y-98074943D01*
X136193712Y-98184288D01*
X136303057Y-98317525D01*
X136384306Y-98469531D01*
X136418447Y-98582081D01*
X136434339Y-98634470D01*
X136434339Y-98634472D01*
X136451234Y-98806000D01*
X136437119Y-98949301D01*
X136434339Y-98977530D01*
X136418447Y-99029919D01*
X136384306Y-99142469D01*
X136303057Y-99294475D01*
X136193712Y-99427712D01*
X136060475Y-99537057D01*
X135908469Y-99618306D01*
X135795919Y-99652447D01*
X135743530Y-99668339D01*
X135706801Y-99671956D01*
X135614984Y-99681000D01*
X135529016Y-99681000D01*
X135437199Y-99671956D01*
X135400470Y-99668339D01*
X135348081Y-99652447D01*
X135235531Y-99618306D01*
X135083525Y-99537057D01*
X134950288Y-99427712D01*
X134840943Y-99294475D01*
X134759694Y-99142469D01*
X134725553Y-99029919D01*
X134709661Y-98977530D01*
X134706881Y-98949301D01*
X134692766Y-98806000D01*
X134709661Y-98634472D01*
X134709661Y-98634470D01*
X134725553Y-98582081D01*
X134759694Y-98469531D01*
X134840943Y-98317525D01*
X134950288Y-98184288D01*
X135083525Y-98074943D01*
X135235531Y-97993694D01*
X135348081Y-97959553D01*
X135400470Y-97943661D01*
X135437199Y-97940044D01*
X135529016Y-97931000D01*
X135614984Y-97931000D01*
X135706801Y-97940044D01*
X135706801Y-97940044D01*
G37*
G36*
X133706801Y-97940044D02*
G01*
X133743530Y-97943661D01*
X133795919Y-97959553D01*
X133908469Y-97993694D01*
X134060475Y-98074943D01*
X134193712Y-98184288D01*
X134303057Y-98317525D01*
X134384306Y-98469531D01*
X134418447Y-98582081D01*
X134434339Y-98634470D01*
X134434339Y-98634472D01*
X134451234Y-98806000D01*
X134437119Y-98949301D01*
X134434339Y-98977530D01*
X134418447Y-99029919D01*
X134384306Y-99142469D01*
X134303057Y-99294475D01*
X134193712Y-99427712D01*
X134060475Y-99537057D01*
X133908469Y-99618306D01*
X133795919Y-99652447D01*
X133743530Y-99668339D01*
X133706801Y-99671956D01*
X133614984Y-99681000D01*
X133529016Y-99681000D01*
X133437199Y-99671956D01*
X133400470Y-99668339D01*
X133348081Y-99652447D01*
X133235531Y-99618306D01*
X133083525Y-99537057D01*
X132950288Y-99427712D01*
X132840943Y-99294475D01*
X132759694Y-99142469D01*
X132725553Y-99029919D01*
X132709661Y-98977530D01*
X132706881Y-98949301D01*
X132692766Y-98806000D01*
X132709661Y-98634472D01*
X132709661Y-98634470D01*
X132725553Y-98582081D01*
X132759694Y-98469531D01*
X132840943Y-98317525D01*
X132950288Y-98184288D01*
X133083525Y-98074943D01*
X133235531Y-97993694D01*
X133348081Y-97959553D01*
X133400470Y-97943661D01*
X133437199Y-97940044D01*
X133529016Y-97931000D01*
X133614984Y-97931000D01*
X133706801Y-97940044D01*
X133706801Y-97940044D01*
G37*
G36*
X131706801Y-97940044D02*
G01*
X131743530Y-97943661D01*
X131795919Y-97959553D01*
X131908469Y-97993694D01*
X132060475Y-98074943D01*
X132193712Y-98184288D01*
X132303057Y-98317525D01*
X132384306Y-98469531D01*
X132418447Y-98582081D01*
X132434339Y-98634470D01*
X132434339Y-98634472D01*
X132451234Y-98806000D01*
X132437119Y-98949301D01*
X132434339Y-98977530D01*
X132418447Y-99029919D01*
X132384306Y-99142469D01*
X132303057Y-99294475D01*
X132193712Y-99427712D01*
X132060475Y-99537057D01*
X131908469Y-99618306D01*
X131795919Y-99652447D01*
X131743530Y-99668339D01*
X131706801Y-99671956D01*
X131614984Y-99681000D01*
X131529016Y-99681000D01*
X131437199Y-99671956D01*
X131400470Y-99668339D01*
X131348081Y-99652447D01*
X131235531Y-99618306D01*
X131083525Y-99537057D01*
X130950288Y-99427712D01*
X130840943Y-99294475D01*
X130759694Y-99142469D01*
X130725553Y-99029919D01*
X130709661Y-98977530D01*
X130706881Y-98949301D01*
X130692766Y-98806000D01*
X130709661Y-98634472D01*
X130709661Y-98634470D01*
X130725553Y-98582081D01*
X130759694Y-98469531D01*
X130840943Y-98317525D01*
X130950288Y-98184288D01*
X131083525Y-98074943D01*
X131235531Y-97993694D01*
X131348081Y-97959553D01*
X131400470Y-97943661D01*
X131437199Y-97940044D01*
X131529016Y-97931000D01*
X131614984Y-97931000D01*
X131706801Y-97940044D01*
X131706801Y-97940044D01*
G37*
G36*
X129706801Y-97940044D02*
G01*
X129743530Y-97943661D01*
X129795919Y-97959553D01*
X129908469Y-97993694D01*
X130060475Y-98074943D01*
X130193712Y-98184288D01*
X130303057Y-98317525D01*
X130384306Y-98469531D01*
X130418447Y-98582081D01*
X130434339Y-98634470D01*
X130434339Y-98634472D01*
X130451234Y-98806000D01*
X130437119Y-98949301D01*
X130434339Y-98977530D01*
X130418447Y-99029919D01*
X130384306Y-99142469D01*
X130303057Y-99294475D01*
X130193712Y-99427712D01*
X130060475Y-99537057D01*
X129908469Y-99618306D01*
X129795919Y-99652447D01*
X129743530Y-99668339D01*
X129706801Y-99671956D01*
X129614984Y-99681000D01*
X129529016Y-99681000D01*
X129437199Y-99671956D01*
X129400470Y-99668339D01*
X129348081Y-99652447D01*
X129235531Y-99618306D01*
X129083525Y-99537057D01*
X128950288Y-99427712D01*
X128840943Y-99294475D01*
X128759694Y-99142469D01*
X128725553Y-99029919D01*
X128709661Y-98977530D01*
X128706881Y-98949301D01*
X128692766Y-98806000D01*
X128709661Y-98634472D01*
X128709661Y-98634470D01*
X128725553Y-98582081D01*
X128759694Y-98469531D01*
X128840943Y-98317525D01*
X128950288Y-98184288D01*
X129083525Y-98074943D01*
X129235531Y-97993694D01*
X129348081Y-97959553D01*
X129400470Y-97943661D01*
X129437199Y-97940044D01*
X129529016Y-97931000D01*
X129614984Y-97931000D01*
X129706801Y-97940044D01*
X129706801Y-97940044D01*
G37*
G36*
X127706801Y-97940044D02*
G01*
X127743530Y-97943661D01*
X127795919Y-97959553D01*
X127908469Y-97993694D01*
X128060475Y-98074943D01*
X128193712Y-98184288D01*
X128303057Y-98317525D01*
X128384306Y-98469531D01*
X128418447Y-98582081D01*
X128434339Y-98634470D01*
X128434339Y-98634472D01*
X128451234Y-98806000D01*
X128437119Y-98949301D01*
X128434339Y-98977530D01*
X128418447Y-99029919D01*
X128384306Y-99142469D01*
X128303057Y-99294475D01*
X128193712Y-99427712D01*
X128060475Y-99537057D01*
X127908469Y-99618306D01*
X127795919Y-99652447D01*
X127743530Y-99668339D01*
X127706801Y-99671956D01*
X127614984Y-99681000D01*
X127529016Y-99681000D01*
X127437199Y-99671956D01*
X127400470Y-99668339D01*
X127348081Y-99652447D01*
X127235531Y-99618306D01*
X127083525Y-99537057D01*
X126950288Y-99427712D01*
X126840943Y-99294475D01*
X126759694Y-99142469D01*
X126725553Y-99029919D01*
X126709661Y-98977530D01*
X126706881Y-98949301D01*
X126692766Y-98806000D01*
X126709661Y-98634472D01*
X126709661Y-98634470D01*
X126725553Y-98582081D01*
X126759694Y-98469531D01*
X126840943Y-98317525D01*
X126950288Y-98184288D01*
X127083525Y-98074943D01*
X127235531Y-97993694D01*
X127348081Y-97959553D01*
X127400470Y-97943661D01*
X127437199Y-97940044D01*
X127529016Y-97931000D01*
X127614984Y-97931000D01*
X127706801Y-97940044D01*
X127706801Y-97940044D01*
G37*
G36*
X125706801Y-97940044D02*
G01*
X125743530Y-97943661D01*
X125795919Y-97959553D01*
X125908469Y-97993694D01*
X126060475Y-98074943D01*
X126193712Y-98184288D01*
X126303057Y-98317525D01*
X126384306Y-98469531D01*
X126418447Y-98582081D01*
X126434339Y-98634470D01*
X126434339Y-98634472D01*
X126451234Y-98806000D01*
X126437119Y-98949301D01*
X126434339Y-98977530D01*
X126418447Y-99029919D01*
X126384306Y-99142469D01*
X126303057Y-99294475D01*
X126193712Y-99427712D01*
X126060475Y-99537057D01*
X125908469Y-99618306D01*
X125795919Y-99652447D01*
X125743530Y-99668339D01*
X125706801Y-99671956D01*
X125614984Y-99681000D01*
X125529016Y-99681000D01*
X125437199Y-99671956D01*
X125400470Y-99668339D01*
X125348081Y-99652447D01*
X125235531Y-99618306D01*
X125083525Y-99537057D01*
X124950288Y-99427712D01*
X124840943Y-99294475D01*
X124759694Y-99142469D01*
X124725553Y-99029919D01*
X124709661Y-98977530D01*
X124706881Y-98949301D01*
X124692766Y-98806000D01*
X124709661Y-98634472D01*
X124709661Y-98634470D01*
X124725553Y-98582081D01*
X124759694Y-98469531D01*
X124840943Y-98317525D01*
X124950288Y-98184288D01*
X125083525Y-98074943D01*
X125235531Y-97993694D01*
X125348081Y-97959553D01*
X125400470Y-97943661D01*
X125437199Y-97940044D01*
X125529016Y-97931000D01*
X125614984Y-97931000D01*
X125706801Y-97940044D01*
X125706801Y-97940044D01*
G37*
G36*
X123706801Y-97940044D02*
G01*
X123743530Y-97943661D01*
X123795919Y-97959553D01*
X123908469Y-97993694D01*
X124060475Y-98074943D01*
X124193712Y-98184288D01*
X124303057Y-98317525D01*
X124384306Y-98469531D01*
X124418447Y-98582081D01*
X124434339Y-98634470D01*
X124434339Y-98634472D01*
X124451234Y-98806000D01*
X124437119Y-98949301D01*
X124434339Y-98977530D01*
X124418447Y-99029919D01*
X124384306Y-99142469D01*
X124303057Y-99294475D01*
X124193712Y-99427712D01*
X124060475Y-99537057D01*
X123908469Y-99618306D01*
X123795919Y-99652447D01*
X123743530Y-99668339D01*
X123706801Y-99671956D01*
X123614984Y-99681000D01*
X123529016Y-99681000D01*
X123437199Y-99671956D01*
X123400470Y-99668339D01*
X123348081Y-99652447D01*
X123235531Y-99618306D01*
X123083525Y-99537057D01*
X122950288Y-99427712D01*
X122840943Y-99294475D01*
X122759694Y-99142469D01*
X122725553Y-99029919D01*
X122709661Y-98977530D01*
X122706881Y-98949301D01*
X122692766Y-98806000D01*
X122709661Y-98634472D01*
X122709661Y-98634470D01*
X122725553Y-98582081D01*
X122759694Y-98469531D01*
X122840943Y-98317525D01*
X122950288Y-98184288D01*
X123083525Y-98074943D01*
X123235531Y-97993694D01*
X123348081Y-97959553D01*
X123400470Y-97943661D01*
X123437199Y-97940044D01*
X123529016Y-97931000D01*
X123614984Y-97931000D01*
X123706801Y-97940044D01*
X123706801Y-97940044D01*
G37*
G36*
X121706801Y-97940044D02*
G01*
X121743530Y-97943661D01*
X121795919Y-97959553D01*
X121908469Y-97993694D01*
X122060475Y-98074943D01*
X122193712Y-98184288D01*
X122303057Y-98317525D01*
X122384306Y-98469531D01*
X122418447Y-98582081D01*
X122434339Y-98634470D01*
X122434339Y-98634472D01*
X122451234Y-98806000D01*
X122437119Y-98949301D01*
X122434339Y-98977530D01*
X122418447Y-99029919D01*
X122384306Y-99142469D01*
X122303057Y-99294475D01*
X122193712Y-99427712D01*
X122060475Y-99537057D01*
X121908469Y-99618306D01*
X121795919Y-99652447D01*
X121743530Y-99668339D01*
X121706801Y-99671956D01*
X121614984Y-99681000D01*
X121529016Y-99681000D01*
X121437199Y-99671956D01*
X121400470Y-99668339D01*
X121348081Y-99652447D01*
X121235531Y-99618306D01*
X121083525Y-99537057D01*
X120950288Y-99427712D01*
X120840943Y-99294475D01*
X120759694Y-99142469D01*
X120725553Y-99029919D01*
X120709661Y-98977530D01*
X120706881Y-98949301D01*
X120692766Y-98806000D01*
X120709661Y-98634472D01*
X120709661Y-98634470D01*
X120725553Y-98582081D01*
X120759694Y-98469531D01*
X120840943Y-98317525D01*
X120950288Y-98184288D01*
X121083525Y-98074943D01*
X121235531Y-97993694D01*
X121348081Y-97959553D01*
X121400470Y-97943661D01*
X121437199Y-97940044D01*
X121529016Y-97931000D01*
X121614984Y-97931000D01*
X121706801Y-97940044D01*
X121706801Y-97940044D01*
G37*
G36*
X119706801Y-97940044D02*
G01*
X119743530Y-97943661D01*
X119795919Y-97959553D01*
X119908469Y-97993694D01*
X120060475Y-98074943D01*
X120193712Y-98184288D01*
X120303057Y-98317525D01*
X120384306Y-98469531D01*
X120418447Y-98582081D01*
X120434339Y-98634470D01*
X120434339Y-98634472D01*
X120451234Y-98806000D01*
X120437119Y-98949301D01*
X120434339Y-98977530D01*
X120418447Y-99029919D01*
X120384306Y-99142469D01*
X120303057Y-99294475D01*
X120193712Y-99427712D01*
X120060475Y-99537057D01*
X119908469Y-99618306D01*
X119795919Y-99652447D01*
X119743530Y-99668339D01*
X119706801Y-99671956D01*
X119614984Y-99681000D01*
X119529016Y-99681000D01*
X119437199Y-99671956D01*
X119400470Y-99668339D01*
X119348081Y-99652447D01*
X119235531Y-99618306D01*
X119083525Y-99537057D01*
X118950288Y-99427712D01*
X118840943Y-99294475D01*
X118759694Y-99142469D01*
X118725553Y-99029919D01*
X118709661Y-98977530D01*
X118706881Y-98949301D01*
X118692766Y-98806000D01*
X118709661Y-98634472D01*
X118709661Y-98634470D01*
X118725553Y-98582081D01*
X118759694Y-98469531D01*
X118840943Y-98317525D01*
X118950288Y-98184288D01*
X119083525Y-98074943D01*
X119235531Y-97993694D01*
X119348081Y-97959553D01*
X119400470Y-97943661D01*
X119437199Y-97940044D01*
X119529016Y-97931000D01*
X119614984Y-97931000D01*
X119706801Y-97940044D01*
X119706801Y-97940044D01*
G37*
G36*
X117706801Y-97940044D02*
G01*
X117743530Y-97943661D01*
X117795919Y-97959553D01*
X117908469Y-97993694D01*
X118060475Y-98074943D01*
X118193712Y-98184288D01*
X118303057Y-98317525D01*
X118384306Y-98469531D01*
X118418447Y-98582081D01*
X118434339Y-98634470D01*
X118434339Y-98634472D01*
X118451234Y-98806000D01*
X118437119Y-98949301D01*
X118434339Y-98977530D01*
X118418447Y-99029919D01*
X118384306Y-99142469D01*
X118303057Y-99294475D01*
X118193712Y-99427712D01*
X118060475Y-99537057D01*
X117908469Y-99618306D01*
X117795919Y-99652447D01*
X117743530Y-99668339D01*
X117706801Y-99671956D01*
X117614984Y-99681000D01*
X117529016Y-99681000D01*
X117437199Y-99671956D01*
X117400470Y-99668339D01*
X117348081Y-99652447D01*
X117235531Y-99618306D01*
X117083525Y-99537057D01*
X116950288Y-99427712D01*
X116840943Y-99294475D01*
X116759694Y-99142469D01*
X116725553Y-99029919D01*
X116709661Y-98977530D01*
X116706881Y-98949301D01*
X116692766Y-98806000D01*
X116709661Y-98634472D01*
X116709661Y-98634470D01*
X116725553Y-98582081D01*
X116759694Y-98469531D01*
X116840943Y-98317525D01*
X116950288Y-98184288D01*
X117083525Y-98074943D01*
X117235531Y-97993694D01*
X117348081Y-97959553D01*
X117400470Y-97943661D01*
X117437199Y-97940044D01*
X117529016Y-97931000D01*
X117614984Y-97931000D01*
X117706801Y-97940044D01*
X117706801Y-97940044D01*
G37*
G36*
X115706801Y-97940044D02*
G01*
X115743530Y-97943661D01*
X115795919Y-97959553D01*
X115908469Y-97993694D01*
X116060475Y-98074943D01*
X116193712Y-98184288D01*
X116303057Y-98317525D01*
X116384306Y-98469531D01*
X116418447Y-98582081D01*
X116434339Y-98634470D01*
X116434339Y-98634472D01*
X116451234Y-98806000D01*
X116437119Y-98949301D01*
X116434339Y-98977530D01*
X116418447Y-99029919D01*
X116384306Y-99142469D01*
X116303057Y-99294475D01*
X116193712Y-99427712D01*
X116060475Y-99537057D01*
X115908469Y-99618306D01*
X115795919Y-99652447D01*
X115743530Y-99668339D01*
X115706801Y-99671956D01*
X115614984Y-99681000D01*
X115529016Y-99681000D01*
X115437199Y-99671956D01*
X115400470Y-99668339D01*
X115348081Y-99652447D01*
X115235531Y-99618306D01*
X115083525Y-99537057D01*
X114950288Y-99427712D01*
X114840943Y-99294475D01*
X114759694Y-99142469D01*
X114725553Y-99029919D01*
X114709661Y-98977530D01*
X114706881Y-98949301D01*
X114692766Y-98806000D01*
X114709661Y-98634472D01*
X114709661Y-98634470D01*
X114725553Y-98582081D01*
X114759694Y-98469531D01*
X114840943Y-98317525D01*
X114950288Y-98184288D01*
X115083525Y-98074943D01*
X115235531Y-97993694D01*
X115348081Y-97959553D01*
X115400470Y-97943661D01*
X115437199Y-97940044D01*
X115529016Y-97931000D01*
X115614984Y-97931000D01*
X115706801Y-97940044D01*
X115706801Y-97940044D01*
G37*
G36*
X114447000Y-99681000D02*
G01*
X112697000Y-99681000D01*
X112697000Y-97931000D01*
X114447000Y-97931000D01*
X114447000Y-99681000D01*
X114447000Y-99681000D01*
G37*
G36*
X114588000Y-95284000D02*
G01*
X112488000Y-95284000D01*
X112488000Y-93184000D01*
X114588000Y-93184000D01*
X114588000Y-95284000D01*
X114588000Y-95284000D01*
G37*
G36*
X155990000Y-94776000D02*
G01*
X153890000Y-94776000D01*
X153890000Y-92676000D01*
X155990000Y-92676000D01*
X155990000Y-94776000D01*
X155990000Y-94776000D01*
G37*
G36*
X113705271Y-90655395D02*
G01*
X113743836Y-90659193D01*
X113875787Y-90699220D01*
X113941763Y-90719233D01*
X114124169Y-90816731D01*
X114284054Y-90947946D01*
X114415269Y-91107831D01*
X114512767Y-91290237D01*
X114512767Y-91290238D01*
X114572807Y-91488164D01*
X114572807Y-91488166D01*
X114593081Y-91694000D01*
X114585381Y-91772171D01*
X114572807Y-91899836D01*
X114532780Y-92031787D01*
X114512767Y-92097763D01*
X114415269Y-92280169D01*
X114284054Y-92440054D01*
X114124169Y-92571269D01*
X113941763Y-92668767D01*
X113875787Y-92688780D01*
X113743836Y-92728807D01*
X113705271Y-92732605D01*
X113589584Y-92744000D01*
X113486416Y-92744000D01*
X113370729Y-92732605D01*
X113332164Y-92728807D01*
X113200213Y-92688780D01*
X113134237Y-92668767D01*
X112951831Y-92571269D01*
X112791946Y-92440054D01*
X112660731Y-92280169D01*
X112563233Y-92097763D01*
X112543220Y-92031787D01*
X112503193Y-91899836D01*
X112490619Y-91772171D01*
X112482919Y-91694000D01*
X112503193Y-91488166D01*
X112503193Y-91488164D01*
X112563233Y-91290238D01*
X112563233Y-91290237D01*
X112660731Y-91107831D01*
X112791946Y-90947946D01*
X112951831Y-90816731D01*
X113134237Y-90719233D01*
X113200213Y-90699220D01*
X113332164Y-90659193D01*
X113370729Y-90655395D01*
X113486416Y-90644000D01*
X113589584Y-90644000D01*
X113705271Y-90655395D01*
X113705271Y-90655395D01*
G37*
G36*
X155107272Y-90147395D02*
G01*
X155145836Y-90151193D01*
X155277787Y-90191220D01*
X155343763Y-90211233D01*
X155526169Y-90308731D01*
X155686054Y-90439946D01*
X155817269Y-90599831D01*
X155914767Y-90782237D01*
X155914767Y-90782238D01*
X155974807Y-90980164D01*
X155974807Y-90980166D01*
X155995081Y-91186000D01*
X155978143Y-91357961D01*
X155974807Y-91391836D01*
X155945586Y-91488164D01*
X155914767Y-91589763D01*
X155817269Y-91772169D01*
X155686054Y-91932054D01*
X155526169Y-92063269D01*
X155343763Y-92160767D01*
X155277787Y-92180780D01*
X155145836Y-92220807D01*
X155107272Y-92224605D01*
X154991584Y-92236000D01*
X154888416Y-92236000D01*
X154772728Y-92224605D01*
X154734164Y-92220807D01*
X154602213Y-92180780D01*
X154536237Y-92160767D01*
X154353831Y-92063269D01*
X154193946Y-91932054D01*
X154062731Y-91772169D01*
X153965233Y-91589763D01*
X153934414Y-91488164D01*
X153905193Y-91391836D01*
X153901857Y-91357961D01*
X153884919Y-91186000D01*
X153905193Y-90980166D01*
X153905193Y-90980164D01*
X153965233Y-90782238D01*
X153965233Y-90782237D01*
X154062731Y-90599831D01*
X154193946Y-90439946D01*
X154353831Y-90308731D01*
X154536237Y-90211233D01*
X154602213Y-90191220D01*
X154734164Y-90151193D01*
X154772728Y-90147395D01*
X154888416Y-90136000D01*
X154991584Y-90136000D01*
X155107272Y-90147395D01*
X155107272Y-90147395D01*
G37*
G36*
X155107272Y-87607395D02*
G01*
X155145836Y-87611193D01*
X155277787Y-87651220D01*
X155343763Y-87671233D01*
X155526169Y-87768731D01*
X155686054Y-87899946D01*
X155817269Y-88059831D01*
X155914767Y-88242237D01*
X155914767Y-88242238D01*
X155974807Y-88440164D01*
X155974807Y-88440166D01*
X155995081Y-88646000D01*
X155978143Y-88817961D01*
X155974807Y-88851836D01*
X155934780Y-88983787D01*
X155914767Y-89049763D01*
X155817269Y-89232169D01*
X155686054Y-89392054D01*
X155526169Y-89523269D01*
X155343763Y-89620767D01*
X155277787Y-89640780D01*
X155145836Y-89680807D01*
X155107272Y-89684605D01*
X154991584Y-89696000D01*
X154888416Y-89696000D01*
X154772728Y-89684605D01*
X154734164Y-89680807D01*
X154602213Y-89640780D01*
X154536237Y-89620767D01*
X154353831Y-89523269D01*
X154193946Y-89392054D01*
X154062731Y-89232169D01*
X153965233Y-89049763D01*
X153945220Y-88983787D01*
X153905193Y-88851836D01*
X153901857Y-88817961D01*
X153884919Y-88646000D01*
X153905193Y-88440166D01*
X153905193Y-88440164D01*
X153965233Y-88242238D01*
X153965233Y-88242237D01*
X154062731Y-88059831D01*
X154193946Y-87899946D01*
X154353831Y-87768731D01*
X154536237Y-87671233D01*
X154602213Y-87651220D01*
X154734164Y-87611193D01*
X154772728Y-87607395D01*
X154888416Y-87596000D01*
X154991584Y-87596000D01*
X155107272Y-87607395D01*
X155107272Y-87607395D01*
G37*
G36*
X155107272Y-85067395D02*
G01*
X155145836Y-85071193D01*
X155277787Y-85111220D01*
X155343763Y-85131233D01*
X155526169Y-85228731D01*
X155686054Y-85359946D01*
X155817269Y-85519831D01*
X155914767Y-85702237D01*
X155914767Y-85702238D01*
X155974807Y-85900164D01*
X155974807Y-85900166D01*
X155995081Y-86106000D01*
X155978143Y-86277961D01*
X155974807Y-86311836D01*
X155934780Y-86443787D01*
X155914767Y-86509763D01*
X155817269Y-86692169D01*
X155686054Y-86852054D01*
X155526169Y-86983269D01*
X155343763Y-87080767D01*
X155277787Y-87100780D01*
X155145836Y-87140807D01*
X155107272Y-87144605D01*
X154991584Y-87156000D01*
X154888416Y-87156000D01*
X154772728Y-87144605D01*
X154734164Y-87140807D01*
X154602213Y-87100780D01*
X154536237Y-87080767D01*
X154353831Y-86983269D01*
X154193946Y-86852054D01*
X154062731Y-86692169D01*
X153965233Y-86509763D01*
X153945220Y-86443787D01*
X153905193Y-86311836D01*
X153901857Y-86277961D01*
X153884919Y-86106000D01*
X153905193Y-85900166D01*
X153905193Y-85900164D01*
X153965233Y-85702238D01*
X153965233Y-85702237D01*
X154062731Y-85519831D01*
X154193946Y-85359946D01*
X154353831Y-85228731D01*
X154536237Y-85131233D01*
X154602213Y-85111220D01*
X154734164Y-85071193D01*
X154772728Y-85067395D01*
X154888416Y-85056000D01*
X154991584Y-85056000D01*
X155107272Y-85067395D01*
X155107272Y-85067395D01*
G37*
G36*
X155107272Y-82527395D02*
G01*
X155145836Y-82531193D01*
X155277787Y-82571220D01*
X155343763Y-82591233D01*
X155526169Y-82688731D01*
X155686054Y-82819946D01*
X155817269Y-82979831D01*
X155914767Y-83162237D01*
X155914767Y-83162238D01*
X155974807Y-83360164D01*
X155974807Y-83360166D01*
X155995081Y-83566000D01*
X155978143Y-83737961D01*
X155974807Y-83771836D01*
X155934780Y-83903787D01*
X155914767Y-83969763D01*
X155817269Y-84152169D01*
X155686054Y-84312054D01*
X155526169Y-84443269D01*
X155343763Y-84540767D01*
X155277787Y-84560780D01*
X155145836Y-84600807D01*
X155107271Y-84604605D01*
X154991584Y-84616000D01*
X154888416Y-84616000D01*
X154772729Y-84604605D01*
X154734164Y-84600807D01*
X154602213Y-84560780D01*
X154536237Y-84540767D01*
X154353831Y-84443269D01*
X154193946Y-84312054D01*
X154062731Y-84152169D01*
X153965233Y-83969763D01*
X153945220Y-83903787D01*
X153905193Y-83771836D01*
X153901857Y-83737961D01*
X153884919Y-83566000D01*
X153905193Y-83360166D01*
X153905193Y-83360164D01*
X153965233Y-83162238D01*
X153965233Y-83162237D01*
X154062731Y-82979831D01*
X154193946Y-82819946D01*
X154353831Y-82688731D01*
X154536237Y-82591233D01*
X154602213Y-82571220D01*
X154734164Y-82531193D01*
X154772728Y-82527395D01*
X154888416Y-82516000D01*
X154991584Y-82516000D01*
X155107272Y-82527395D01*
X155107272Y-82527395D01*
G37*
G36*
X155107272Y-79987395D02*
G01*
X155145836Y-79991193D01*
X155277787Y-80031220D01*
X155343763Y-80051233D01*
X155526169Y-80148731D01*
X155686054Y-80279946D01*
X155817269Y-80439831D01*
X155914767Y-80622237D01*
X155914767Y-80622238D01*
X155974807Y-80820164D01*
X155974807Y-80820166D01*
X155995081Y-81026000D01*
X155978143Y-81197961D01*
X155974807Y-81231836D01*
X155934780Y-81363787D01*
X155914767Y-81429763D01*
X155817269Y-81612169D01*
X155686054Y-81772054D01*
X155526169Y-81903269D01*
X155343763Y-82000767D01*
X155277787Y-82020780D01*
X155145836Y-82060807D01*
X155107271Y-82064605D01*
X154991584Y-82076000D01*
X154888416Y-82076000D01*
X154772729Y-82064605D01*
X154734164Y-82060807D01*
X154602213Y-82020780D01*
X154536237Y-82000767D01*
X154353831Y-81903269D01*
X154193946Y-81772054D01*
X154062731Y-81612169D01*
X153965233Y-81429763D01*
X153945220Y-81363787D01*
X153905193Y-81231836D01*
X153901857Y-81197961D01*
X153884919Y-81026000D01*
X153905193Y-80820166D01*
X153905193Y-80820164D01*
X153965233Y-80622238D01*
X153965233Y-80622237D01*
X154062731Y-80439831D01*
X154193946Y-80279946D01*
X154353831Y-80148731D01*
X154536237Y-80051233D01*
X154602213Y-80031220D01*
X154734164Y-79991193D01*
X154772728Y-79987395D01*
X154888416Y-79976000D01*
X154991584Y-79976000D01*
X155107272Y-79987395D01*
X155107272Y-79987395D01*
G37*
G36*
X155107272Y-77447395D02*
G01*
X155145836Y-77451193D01*
X155277787Y-77491220D01*
X155343763Y-77511233D01*
X155526169Y-77608731D01*
X155686054Y-77739946D01*
X155817269Y-77899831D01*
X155914767Y-78082237D01*
X155914767Y-78082238D01*
X155974807Y-78280164D01*
X155974807Y-78280166D01*
X155995081Y-78486000D01*
X155978143Y-78657961D01*
X155974807Y-78691836D01*
X155934780Y-78823787D01*
X155914767Y-78889763D01*
X155817269Y-79072169D01*
X155686054Y-79232054D01*
X155526169Y-79363269D01*
X155343763Y-79460767D01*
X155277787Y-79480780D01*
X155145836Y-79520807D01*
X155107271Y-79524605D01*
X154991584Y-79536000D01*
X154888416Y-79536000D01*
X154772729Y-79524605D01*
X154734164Y-79520807D01*
X154602213Y-79480780D01*
X154536237Y-79460767D01*
X154353831Y-79363269D01*
X154193946Y-79232054D01*
X154062731Y-79072169D01*
X153965233Y-78889763D01*
X153945220Y-78823787D01*
X153905193Y-78691836D01*
X153901857Y-78657961D01*
X153884919Y-78486000D01*
X153905193Y-78280166D01*
X153905193Y-78280164D01*
X153965233Y-78082238D01*
X153965233Y-78082237D01*
X154062731Y-77899831D01*
X154193946Y-77739946D01*
X154353831Y-77608731D01*
X154536237Y-77511233D01*
X154602213Y-77491220D01*
X154734164Y-77451193D01*
X154772728Y-77447395D01*
X154888416Y-77436000D01*
X154991584Y-77436000D01*
X155107272Y-77447395D01*
X155107272Y-77447395D01*
G37*
G36*
X155107272Y-74907395D02*
G01*
X155145836Y-74911193D01*
X155277787Y-74951220D01*
X155343763Y-74971233D01*
X155526169Y-75068731D01*
X155686054Y-75199946D01*
X155817269Y-75359831D01*
X155914767Y-75542237D01*
X155914767Y-75542238D01*
X155974807Y-75740164D01*
X155974807Y-75740166D01*
X155995081Y-75946000D01*
X155978143Y-76117961D01*
X155974807Y-76151836D01*
X155934780Y-76283787D01*
X155914767Y-76349763D01*
X155817269Y-76532169D01*
X155686054Y-76692054D01*
X155526169Y-76823269D01*
X155343763Y-76920767D01*
X155277787Y-76940780D01*
X155145836Y-76980807D01*
X155107271Y-76984605D01*
X154991584Y-76996000D01*
X154888416Y-76996000D01*
X154772729Y-76984605D01*
X154734164Y-76980807D01*
X154602213Y-76940780D01*
X154536237Y-76920767D01*
X154353831Y-76823269D01*
X154193946Y-76692054D01*
X154062731Y-76532169D01*
X153965233Y-76349763D01*
X153945220Y-76283787D01*
X153905193Y-76151836D01*
X153901857Y-76117961D01*
X153884919Y-75946000D01*
X153905193Y-75740166D01*
X153905193Y-75740164D01*
X153965233Y-75542238D01*
X153965233Y-75542237D01*
X154062731Y-75359831D01*
X154193946Y-75199946D01*
X154353831Y-75068731D01*
X154536237Y-74971233D01*
X154602213Y-74951220D01*
X154734164Y-74911193D01*
X154772728Y-74907395D01*
X154888416Y-74896000D01*
X154991584Y-74896000D01*
X155107272Y-74907395D01*
X155107272Y-74907395D01*
G37*
G36*
X155107272Y-72367395D02*
G01*
X155145836Y-72371193D01*
X155277787Y-72411220D01*
X155343763Y-72431233D01*
X155526169Y-72528731D01*
X155686054Y-72659946D01*
X155817269Y-72819831D01*
X155914767Y-73002237D01*
X155914767Y-73002238D01*
X155974807Y-73200164D01*
X155974807Y-73200166D01*
X155995081Y-73406000D01*
X155978143Y-73577961D01*
X155974807Y-73611836D01*
X155934780Y-73743787D01*
X155914767Y-73809763D01*
X155817269Y-73992169D01*
X155686054Y-74152054D01*
X155526169Y-74283269D01*
X155343763Y-74380767D01*
X155277787Y-74400780D01*
X155145836Y-74440807D01*
X155107271Y-74444605D01*
X154991584Y-74456000D01*
X154888416Y-74456000D01*
X154772729Y-74444605D01*
X154734164Y-74440807D01*
X154602213Y-74400780D01*
X154536237Y-74380767D01*
X154353831Y-74283269D01*
X154193946Y-74152054D01*
X154062731Y-73992169D01*
X153965233Y-73809763D01*
X153945220Y-73743787D01*
X153905193Y-73611836D01*
X153901857Y-73577961D01*
X153884919Y-73406000D01*
X153905193Y-73200166D01*
X153905193Y-73200164D01*
X153965233Y-73002238D01*
X153965233Y-73002237D01*
X154062731Y-72819831D01*
X154193946Y-72659946D01*
X154353831Y-72528731D01*
X154536237Y-72431233D01*
X154602213Y-72411220D01*
X154734164Y-72371193D01*
X154772728Y-72367395D01*
X154888416Y-72356000D01*
X154991584Y-72356000D01*
X155107272Y-72367395D01*
X155107272Y-72367395D01*
G37*
G36*
X155107271Y-69827395D02*
G01*
X155145836Y-69831193D01*
X155277787Y-69871220D01*
X155343763Y-69891233D01*
X155526169Y-69988731D01*
X155686054Y-70119946D01*
X155817269Y-70279831D01*
X155914767Y-70462237D01*
X155914767Y-70462238D01*
X155974807Y-70660164D01*
X155974807Y-70660166D01*
X155995081Y-70866000D01*
X155978143Y-71037961D01*
X155974807Y-71071836D01*
X155934780Y-71203787D01*
X155914767Y-71269763D01*
X155817269Y-71452169D01*
X155686054Y-71612054D01*
X155526169Y-71743269D01*
X155343763Y-71840767D01*
X155277787Y-71860780D01*
X155145836Y-71900807D01*
X155107271Y-71904605D01*
X154991584Y-71916000D01*
X154888416Y-71916000D01*
X154772729Y-71904605D01*
X154734164Y-71900807D01*
X154602213Y-71860780D01*
X154536237Y-71840767D01*
X154353831Y-71743269D01*
X154193946Y-71612054D01*
X154062731Y-71452169D01*
X153965233Y-71269763D01*
X153945220Y-71203787D01*
X153905193Y-71071836D01*
X153901857Y-71037961D01*
X153884919Y-70866000D01*
X153905193Y-70660166D01*
X153905193Y-70660164D01*
X153965233Y-70462238D01*
X153965233Y-70462237D01*
X154062731Y-70279831D01*
X154193946Y-70119946D01*
X154353831Y-69988731D01*
X154536237Y-69891233D01*
X154602213Y-69871220D01*
X154734164Y-69831193D01*
X154772729Y-69827395D01*
X154888416Y-69816000D01*
X154991584Y-69816000D01*
X155107271Y-69827395D01*
X155107271Y-69827395D01*
G37*
G36*
X155107271Y-67287395D02*
G01*
X155145836Y-67291193D01*
X155277787Y-67331220D01*
X155343763Y-67351233D01*
X155526169Y-67448731D01*
X155686054Y-67579946D01*
X155817269Y-67739831D01*
X155914767Y-67922237D01*
X155914767Y-67922238D01*
X155974807Y-68120164D01*
X155974807Y-68120166D01*
X155995081Y-68326000D01*
X155978143Y-68497961D01*
X155974807Y-68531836D01*
X155934780Y-68663787D01*
X155914767Y-68729763D01*
X155817269Y-68912169D01*
X155686054Y-69072054D01*
X155526169Y-69203269D01*
X155343763Y-69300767D01*
X155277787Y-69320780D01*
X155145836Y-69360807D01*
X155107271Y-69364605D01*
X154991584Y-69376000D01*
X154888416Y-69376000D01*
X154772729Y-69364605D01*
X154734164Y-69360807D01*
X154602213Y-69320780D01*
X154536237Y-69300767D01*
X154353831Y-69203269D01*
X154193946Y-69072054D01*
X154062731Y-68912169D01*
X153965233Y-68729763D01*
X153945220Y-68663787D01*
X153905193Y-68531836D01*
X153901857Y-68497961D01*
X153884919Y-68326000D01*
X153905193Y-68120166D01*
X153905193Y-68120164D01*
X153965233Y-67922238D01*
X153965233Y-67922237D01*
X154062731Y-67739831D01*
X154193946Y-67579946D01*
X154353831Y-67448731D01*
X154536237Y-67351233D01*
X154602213Y-67331220D01*
X154734164Y-67291193D01*
X154772729Y-67287395D01*
X154888416Y-67276000D01*
X154991584Y-67276000D01*
X155107271Y-67287395D01*
X155107271Y-67287395D01*
G37*
G36*
X155107271Y-64747395D02*
G01*
X155145836Y-64751193D01*
X155277787Y-64791220D01*
X155343763Y-64811233D01*
X155526169Y-64908731D01*
X155686054Y-65039946D01*
X155817269Y-65199831D01*
X155914767Y-65382237D01*
X155914767Y-65382238D01*
X155974807Y-65580164D01*
X155974807Y-65580166D01*
X155995081Y-65786000D01*
X155978143Y-65957961D01*
X155974807Y-65991836D01*
X155934780Y-66123787D01*
X155914767Y-66189763D01*
X155817269Y-66372169D01*
X155686054Y-66532054D01*
X155526169Y-66663269D01*
X155343763Y-66760767D01*
X155277787Y-66780780D01*
X155145836Y-66820807D01*
X155107271Y-66824605D01*
X154991584Y-66836000D01*
X154888416Y-66836000D01*
X154772729Y-66824605D01*
X154734164Y-66820807D01*
X154602213Y-66780780D01*
X154536237Y-66760767D01*
X154353831Y-66663269D01*
X154193946Y-66532054D01*
X154062731Y-66372169D01*
X153965233Y-66189763D01*
X153945220Y-66123787D01*
X153905193Y-65991836D01*
X153901857Y-65957961D01*
X153884919Y-65786000D01*
X153905193Y-65580166D01*
X153905193Y-65580164D01*
X153965233Y-65382238D01*
X153965233Y-65382237D01*
X154062731Y-65199831D01*
X154193946Y-65039946D01*
X154353831Y-64908731D01*
X154536237Y-64811233D01*
X154602213Y-64791220D01*
X154734164Y-64751193D01*
X154772729Y-64747395D01*
X154888416Y-64736000D01*
X154991584Y-64736000D01*
X155107271Y-64747395D01*
X155107271Y-64747395D01*
G37*
G36*
X148497000Y-66836000D02*
G01*
X146397000Y-66836000D01*
X146397000Y-64736000D01*
X148497000Y-64736000D01*
X148497000Y-66836000D01*
X148497000Y-66836000D01*
G37*
G36*
X150154271Y-64747395D02*
G01*
X150192836Y-64751193D01*
X150324787Y-64791220D01*
X150390763Y-64811233D01*
X150573169Y-64908731D01*
X150733054Y-65039946D01*
X150864269Y-65199831D01*
X150961767Y-65382237D01*
X150961767Y-65382238D01*
X151021807Y-65580164D01*
X151021807Y-65580166D01*
X151042081Y-65786000D01*
X151025143Y-65957961D01*
X151021807Y-65991836D01*
X150981780Y-66123787D01*
X150961767Y-66189763D01*
X150864269Y-66372169D01*
X150733054Y-66532054D01*
X150573169Y-66663269D01*
X150390763Y-66760767D01*
X150324787Y-66780780D01*
X150192836Y-66820807D01*
X150154271Y-66824605D01*
X150038584Y-66836000D01*
X149935416Y-66836000D01*
X149819729Y-66824605D01*
X149781164Y-66820807D01*
X149649213Y-66780780D01*
X149583237Y-66760767D01*
X149400831Y-66663269D01*
X149240946Y-66532054D01*
X149109731Y-66372169D01*
X149012233Y-66189763D01*
X148992220Y-66123787D01*
X148952193Y-65991836D01*
X148948857Y-65957961D01*
X148931919Y-65786000D01*
X148952193Y-65580166D01*
X148952193Y-65580164D01*
X149012233Y-65382238D01*
X149012233Y-65382237D01*
X149109731Y-65199831D01*
X149240946Y-65039946D01*
X149400831Y-64908731D01*
X149583237Y-64811233D01*
X149649213Y-64791220D01*
X149781164Y-64751193D01*
X149819729Y-64747395D01*
X149935416Y-64736000D01*
X150038584Y-64736000D01*
X150154271Y-64747395D01*
X150154271Y-64747395D01*
G37*
G36*
X155107271Y-62207395D02*
G01*
X155145836Y-62211193D01*
X155277787Y-62251220D01*
X155343763Y-62271233D01*
X155526169Y-62368731D01*
X155686054Y-62499946D01*
X155817269Y-62659831D01*
X155914767Y-62842237D01*
X155914767Y-62842238D01*
X155974807Y-63040164D01*
X155974807Y-63040166D01*
X155995081Y-63246000D01*
X155978143Y-63417961D01*
X155974807Y-63451836D01*
X155934780Y-63583787D01*
X155914767Y-63649763D01*
X155817269Y-63832169D01*
X155686054Y-63992054D01*
X155526169Y-64123269D01*
X155343763Y-64220767D01*
X155277787Y-64240780D01*
X155145836Y-64280807D01*
X155107272Y-64284605D01*
X154991584Y-64296000D01*
X154888416Y-64296000D01*
X154772728Y-64284605D01*
X154734164Y-64280807D01*
X154602213Y-64240780D01*
X154536237Y-64220767D01*
X154353831Y-64123269D01*
X154193946Y-63992054D01*
X154062731Y-63832169D01*
X153965233Y-63649763D01*
X153945220Y-63583787D01*
X153905193Y-63451836D01*
X153901857Y-63417961D01*
X153884919Y-63246000D01*
X153905193Y-63040166D01*
X153905193Y-63040164D01*
X153965233Y-62842238D01*
X153965233Y-62842237D01*
X154062731Y-62659831D01*
X154193946Y-62499946D01*
X154353831Y-62368731D01*
X154536237Y-62271233D01*
X154602213Y-62251220D01*
X154734164Y-62211193D01*
X154772729Y-62207395D01*
X154888416Y-62196000D01*
X154991584Y-62196000D01*
X155107271Y-62207395D01*
X155107271Y-62207395D01*
G37*
G36*
X144587000Y-63688000D02*
G01*
X142687000Y-63688000D01*
X142687000Y-61788000D01*
X144587000Y-61788000D01*
X144587000Y-63688000D01*
X144587000Y-63688000D01*
G37*
G36*
X147034000Y-59497000D02*
G01*
X144334000Y-59497000D01*
X144334000Y-57597000D01*
X147034000Y-57597000D01*
X147034000Y-59497000D01*
X147034000Y-59497000D01*
G37*
G36*
X155147000Y-59497000D02*
G01*
X152447000Y-59497000D01*
X152447000Y-57597000D01*
X155147000Y-57597000D01*
X155147000Y-59497000D01*
X155147000Y-59497000D01*
G37*
G36*
X139706801Y-57300044D02*
G01*
X139743530Y-57303661D01*
X139795919Y-57319553D01*
X139908469Y-57353694D01*
X140060475Y-57434943D01*
X140193712Y-57544288D01*
X140303057Y-57677525D01*
X140384306Y-57829531D01*
X140418447Y-57942081D01*
X140434339Y-57994470D01*
X140434339Y-57994472D01*
X140451234Y-58166000D01*
X140437119Y-58309301D01*
X140434339Y-58337530D01*
X140418447Y-58389919D01*
X140384306Y-58502469D01*
X140303057Y-58654475D01*
X140193712Y-58787712D01*
X140060475Y-58897057D01*
X139908469Y-58978306D01*
X139795919Y-59012447D01*
X139743530Y-59028339D01*
X139706801Y-59031956D01*
X139614984Y-59041000D01*
X139529016Y-59041000D01*
X139437199Y-59031956D01*
X139400470Y-59028339D01*
X139348081Y-59012447D01*
X139235531Y-58978306D01*
X139083525Y-58897057D01*
X138950288Y-58787712D01*
X138840943Y-58654475D01*
X138759694Y-58502469D01*
X138725553Y-58389919D01*
X138709661Y-58337530D01*
X138706881Y-58309301D01*
X138692766Y-58166000D01*
X138709661Y-57994472D01*
X138709661Y-57994470D01*
X138725553Y-57942081D01*
X138759694Y-57829531D01*
X138840943Y-57677525D01*
X138950288Y-57544288D01*
X139083525Y-57434943D01*
X139235531Y-57353694D01*
X139348081Y-57319553D01*
X139400470Y-57303661D01*
X139437199Y-57300044D01*
X139529016Y-57291000D01*
X139614984Y-57291000D01*
X139706801Y-57300044D01*
X139706801Y-57300044D01*
G37*
G36*
X131706801Y-57300044D02*
G01*
X131743530Y-57303661D01*
X131795919Y-57319553D01*
X131908469Y-57353694D01*
X132060475Y-57434943D01*
X132193712Y-57544288D01*
X132303057Y-57677525D01*
X132384306Y-57829531D01*
X132418447Y-57942081D01*
X132434339Y-57994470D01*
X132434339Y-57994472D01*
X132451234Y-58166000D01*
X132437119Y-58309301D01*
X132434339Y-58337530D01*
X132418447Y-58389919D01*
X132384306Y-58502469D01*
X132303057Y-58654475D01*
X132193712Y-58787712D01*
X132060475Y-58897057D01*
X131908469Y-58978306D01*
X131795919Y-59012447D01*
X131743530Y-59028339D01*
X131706801Y-59031956D01*
X131614984Y-59041000D01*
X131529016Y-59041000D01*
X131437199Y-59031956D01*
X131400470Y-59028339D01*
X131348081Y-59012447D01*
X131235531Y-58978306D01*
X131083525Y-58897057D01*
X130950288Y-58787712D01*
X130840943Y-58654475D01*
X130759694Y-58502469D01*
X130725553Y-58389919D01*
X130709661Y-58337530D01*
X130706881Y-58309301D01*
X130692766Y-58166000D01*
X130709661Y-57994472D01*
X130709661Y-57994470D01*
X130725553Y-57942081D01*
X130759694Y-57829531D01*
X130840943Y-57677525D01*
X130950288Y-57544288D01*
X131083525Y-57434943D01*
X131235531Y-57353694D01*
X131348081Y-57319553D01*
X131400470Y-57303661D01*
X131437199Y-57300044D01*
X131529016Y-57291000D01*
X131614984Y-57291000D01*
X131706801Y-57300044D01*
X131706801Y-57300044D01*
G37*
G36*
X125706801Y-57300044D02*
G01*
X125743530Y-57303661D01*
X125795919Y-57319553D01*
X125908469Y-57353694D01*
X126060475Y-57434943D01*
X126193712Y-57544288D01*
X126303057Y-57677525D01*
X126384306Y-57829531D01*
X126418447Y-57942081D01*
X126434339Y-57994470D01*
X126434339Y-57994472D01*
X126451234Y-58166000D01*
X126437119Y-58309301D01*
X126434339Y-58337530D01*
X126418447Y-58389919D01*
X126384306Y-58502469D01*
X126303057Y-58654475D01*
X126193712Y-58787712D01*
X126060475Y-58897057D01*
X125908469Y-58978306D01*
X125795919Y-59012447D01*
X125743530Y-59028339D01*
X125706801Y-59031956D01*
X125614984Y-59041000D01*
X125529016Y-59041000D01*
X125437199Y-59031956D01*
X125400470Y-59028339D01*
X125348081Y-59012447D01*
X125235531Y-58978306D01*
X125083525Y-58897057D01*
X124950288Y-58787712D01*
X124840943Y-58654475D01*
X124759694Y-58502469D01*
X124725553Y-58389919D01*
X124709661Y-58337530D01*
X124706881Y-58309301D01*
X124692766Y-58166000D01*
X124709661Y-57994472D01*
X124709661Y-57994470D01*
X124725553Y-57942081D01*
X124759694Y-57829531D01*
X124840943Y-57677525D01*
X124950288Y-57544288D01*
X125083525Y-57434943D01*
X125235531Y-57353694D01*
X125348081Y-57319553D01*
X125400470Y-57303661D01*
X125437199Y-57300044D01*
X125529016Y-57291000D01*
X125614984Y-57291000D01*
X125706801Y-57300044D01*
X125706801Y-57300044D01*
G37*
G36*
X135706801Y-57300044D02*
G01*
X135743530Y-57303661D01*
X135795919Y-57319553D01*
X135908469Y-57353694D01*
X136060475Y-57434943D01*
X136193712Y-57544288D01*
X136303057Y-57677525D01*
X136384306Y-57829531D01*
X136418447Y-57942081D01*
X136434339Y-57994470D01*
X136434339Y-57994472D01*
X136451234Y-58166000D01*
X136437119Y-58309301D01*
X136434339Y-58337530D01*
X136418447Y-58389919D01*
X136384306Y-58502469D01*
X136303057Y-58654475D01*
X136193712Y-58787712D01*
X136060475Y-58897057D01*
X135908469Y-58978306D01*
X135795919Y-59012447D01*
X135743530Y-59028339D01*
X135706801Y-59031956D01*
X135614984Y-59041000D01*
X135529016Y-59041000D01*
X135437199Y-59031956D01*
X135400470Y-59028339D01*
X135348081Y-59012447D01*
X135235531Y-58978306D01*
X135083525Y-58897057D01*
X134950288Y-58787712D01*
X134840943Y-58654475D01*
X134759694Y-58502469D01*
X134725553Y-58389919D01*
X134709661Y-58337530D01*
X134706881Y-58309301D01*
X134692766Y-58166000D01*
X134709661Y-57994472D01*
X134709661Y-57994470D01*
X134725553Y-57942081D01*
X134759694Y-57829531D01*
X134840943Y-57677525D01*
X134950288Y-57544288D01*
X135083525Y-57434943D01*
X135235531Y-57353694D01*
X135348081Y-57319553D01*
X135400470Y-57303661D01*
X135437199Y-57300044D01*
X135529016Y-57291000D01*
X135614984Y-57291000D01*
X135706801Y-57300044D01*
X135706801Y-57300044D01*
G37*
G36*
X123706801Y-57300044D02*
G01*
X123743530Y-57303661D01*
X123795919Y-57319553D01*
X123908469Y-57353694D01*
X124060475Y-57434943D01*
X124193712Y-57544288D01*
X124303057Y-57677525D01*
X124384306Y-57829531D01*
X124418447Y-57942081D01*
X124434339Y-57994470D01*
X124434339Y-57994472D01*
X124451234Y-58166000D01*
X124437119Y-58309301D01*
X124434339Y-58337530D01*
X124418447Y-58389919D01*
X124384306Y-58502469D01*
X124303057Y-58654475D01*
X124193712Y-58787712D01*
X124060475Y-58897057D01*
X123908469Y-58978306D01*
X123795919Y-59012447D01*
X123743530Y-59028339D01*
X123706801Y-59031956D01*
X123614984Y-59041000D01*
X123529016Y-59041000D01*
X123437199Y-59031956D01*
X123400470Y-59028339D01*
X123348081Y-59012447D01*
X123235531Y-58978306D01*
X123083525Y-58897057D01*
X122950288Y-58787712D01*
X122840943Y-58654475D01*
X122759694Y-58502469D01*
X122725553Y-58389919D01*
X122709661Y-58337530D01*
X122706881Y-58309301D01*
X122692766Y-58166000D01*
X122709661Y-57994472D01*
X122709661Y-57994470D01*
X122725553Y-57942081D01*
X122759694Y-57829531D01*
X122840943Y-57677525D01*
X122950288Y-57544288D01*
X123083525Y-57434943D01*
X123235531Y-57353694D01*
X123348081Y-57319553D01*
X123400470Y-57303661D01*
X123437199Y-57300044D01*
X123529016Y-57291000D01*
X123614984Y-57291000D01*
X123706801Y-57300044D01*
X123706801Y-57300044D01*
G37*
G36*
X137706801Y-57300044D02*
G01*
X137743530Y-57303661D01*
X137795919Y-57319553D01*
X137908469Y-57353694D01*
X138060475Y-57434943D01*
X138193712Y-57544288D01*
X138303057Y-57677525D01*
X138384306Y-57829531D01*
X138418447Y-57942081D01*
X138434339Y-57994470D01*
X138434339Y-57994472D01*
X138451234Y-58166000D01*
X138437119Y-58309301D01*
X138434339Y-58337530D01*
X138418447Y-58389919D01*
X138384306Y-58502469D01*
X138303057Y-58654475D01*
X138193712Y-58787712D01*
X138060475Y-58897057D01*
X137908469Y-58978306D01*
X137795919Y-59012447D01*
X137743530Y-59028339D01*
X137706801Y-59031956D01*
X137614984Y-59041000D01*
X137529016Y-59041000D01*
X137437199Y-59031956D01*
X137400470Y-59028339D01*
X137348081Y-59012447D01*
X137235531Y-58978306D01*
X137083525Y-58897057D01*
X136950288Y-58787712D01*
X136840943Y-58654475D01*
X136759694Y-58502469D01*
X136725553Y-58389919D01*
X136709661Y-58337530D01*
X136706881Y-58309301D01*
X136692766Y-58166000D01*
X136709661Y-57994472D01*
X136709661Y-57994470D01*
X136725553Y-57942081D01*
X136759694Y-57829531D01*
X136840943Y-57677525D01*
X136950288Y-57544288D01*
X137083525Y-57434943D01*
X137235531Y-57353694D01*
X137348081Y-57319553D01*
X137400470Y-57303661D01*
X137437199Y-57300044D01*
X137529016Y-57291000D01*
X137614984Y-57291000D01*
X137706801Y-57300044D01*
X137706801Y-57300044D01*
G37*
G36*
X117706801Y-57300044D02*
G01*
X117743530Y-57303661D01*
X117795919Y-57319553D01*
X117908469Y-57353694D01*
X118060475Y-57434943D01*
X118193712Y-57544288D01*
X118303057Y-57677525D01*
X118384306Y-57829531D01*
X118418447Y-57942081D01*
X118434339Y-57994470D01*
X118434339Y-57994472D01*
X118451234Y-58166000D01*
X118437119Y-58309301D01*
X118434339Y-58337530D01*
X118418447Y-58389919D01*
X118384306Y-58502469D01*
X118303057Y-58654475D01*
X118193712Y-58787712D01*
X118060475Y-58897057D01*
X117908469Y-58978306D01*
X117795919Y-59012447D01*
X117743530Y-59028339D01*
X117706801Y-59031956D01*
X117614984Y-59041000D01*
X117529016Y-59041000D01*
X117437199Y-59031956D01*
X117400470Y-59028339D01*
X117348081Y-59012447D01*
X117235531Y-58978306D01*
X117083525Y-58897057D01*
X116950288Y-58787712D01*
X116840943Y-58654475D01*
X116759694Y-58502469D01*
X116725553Y-58389919D01*
X116709661Y-58337530D01*
X116706881Y-58309301D01*
X116692766Y-58166000D01*
X116709661Y-57994472D01*
X116709661Y-57994470D01*
X116725553Y-57942081D01*
X116759694Y-57829531D01*
X116840943Y-57677525D01*
X116950288Y-57544288D01*
X117083525Y-57434943D01*
X117235531Y-57353694D01*
X117348081Y-57319553D01*
X117400470Y-57303661D01*
X117437199Y-57300044D01*
X117529016Y-57291000D01*
X117614984Y-57291000D01*
X117706801Y-57300044D01*
X117706801Y-57300044D01*
G37*
G36*
X115706801Y-57300044D02*
G01*
X115743530Y-57303661D01*
X115795919Y-57319553D01*
X115908469Y-57353694D01*
X116060475Y-57434943D01*
X116193712Y-57544288D01*
X116303057Y-57677525D01*
X116384306Y-57829531D01*
X116418447Y-57942081D01*
X116434339Y-57994470D01*
X116434339Y-57994472D01*
X116451234Y-58166000D01*
X116437119Y-58309301D01*
X116434339Y-58337530D01*
X116418447Y-58389919D01*
X116384306Y-58502469D01*
X116303057Y-58654475D01*
X116193712Y-58787712D01*
X116060475Y-58897057D01*
X115908469Y-58978306D01*
X115795919Y-59012447D01*
X115743530Y-59028339D01*
X115706801Y-59031956D01*
X115614984Y-59041000D01*
X115529016Y-59041000D01*
X115437199Y-59031956D01*
X115400470Y-59028339D01*
X115348081Y-59012447D01*
X115235531Y-58978306D01*
X115083525Y-58897057D01*
X114950288Y-58787712D01*
X114840943Y-58654475D01*
X114759694Y-58502469D01*
X114725553Y-58389919D01*
X114709661Y-58337530D01*
X114706881Y-58309301D01*
X114692766Y-58166000D01*
X114709661Y-57994472D01*
X114709661Y-57994470D01*
X114725553Y-57942081D01*
X114759694Y-57829531D01*
X114840943Y-57677525D01*
X114950288Y-57544288D01*
X115083525Y-57434943D01*
X115235531Y-57353694D01*
X115348081Y-57319553D01*
X115400470Y-57303661D01*
X115437199Y-57300044D01*
X115529016Y-57291000D01*
X115614984Y-57291000D01*
X115706801Y-57300044D01*
X115706801Y-57300044D01*
G37*
G36*
X114447000Y-59041000D02*
G01*
X112697000Y-59041000D01*
X112697000Y-57291000D01*
X114447000Y-57291000D01*
X114447000Y-59041000D01*
X114447000Y-59041000D01*
G37*
G36*
X121706801Y-57300044D02*
G01*
X121743530Y-57303661D01*
X121795919Y-57319553D01*
X121908469Y-57353694D01*
X122060475Y-57434943D01*
X122193712Y-57544288D01*
X122303057Y-57677525D01*
X122384306Y-57829531D01*
X122418447Y-57942081D01*
X122434339Y-57994470D01*
X122434339Y-57994472D01*
X122451234Y-58166000D01*
X122437119Y-58309301D01*
X122434339Y-58337530D01*
X122418447Y-58389919D01*
X122384306Y-58502469D01*
X122303057Y-58654475D01*
X122193712Y-58787712D01*
X122060475Y-58897057D01*
X121908469Y-58978306D01*
X121795919Y-59012447D01*
X121743530Y-59028339D01*
X121706801Y-59031956D01*
X121614984Y-59041000D01*
X121529016Y-59041000D01*
X121437199Y-59031956D01*
X121400470Y-59028339D01*
X121348081Y-59012447D01*
X121235531Y-58978306D01*
X121083525Y-58897057D01*
X120950288Y-58787712D01*
X120840943Y-58654475D01*
X120759694Y-58502469D01*
X120725553Y-58389919D01*
X120709661Y-58337530D01*
X120706881Y-58309301D01*
X120692766Y-58166000D01*
X120709661Y-57994472D01*
X120709661Y-57994470D01*
X120725553Y-57942081D01*
X120759694Y-57829531D01*
X120840943Y-57677525D01*
X120950288Y-57544288D01*
X121083525Y-57434943D01*
X121235531Y-57353694D01*
X121348081Y-57319553D01*
X121400470Y-57303661D01*
X121437199Y-57300044D01*
X121529016Y-57291000D01*
X121614984Y-57291000D01*
X121706801Y-57300044D01*
X121706801Y-57300044D01*
G37*
G36*
X129706801Y-57300044D02*
G01*
X129743530Y-57303661D01*
X129795919Y-57319553D01*
X129908469Y-57353694D01*
X130060475Y-57434943D01*
X130193712Y-57544288D01*
X130303057Y-57677525D01*
X130384306Y-57829531D01*
X130418447Y-57942081D01*
X130434339Y-57994470D01*
X130434339Y-57994472D01*
X130451234Y-58166000D01*
X130437119Y-58309301D01*
X130434339Y-58337530D01*
X130418447Y-58389919D01*
X130384306Y-58502469D01*
X130303057Y-58654475D01*
X130193712Y-58787712D01*
X130060475Y-58897057D01*
X129908469Y-58978306D01*
X129795919Y-59012447D01*
X129743530Y-59028339D01*
X129706801Y-59031956D01*
X129614984Y-59041000D01*
X129529016Y-59041000D01*
X129437199Y-59031956D01*
X129400470Y-59028339D01*
X129348081Y-59012447D01*
X129235531Y-58978306D01*
X129083525Y-58897057D01*
X128950288Y-58787712D01*
X128840943Y-58654475D01*
X128759694Y-58502469D01*
X128725553Y-58389919D01*
X128709661Y-58337530D01*
X128706881Y-58309301D01*
X128692766Y-58166000D01*
X128709661Y-57994472D01*
X128709661Y-57994470D01*
X128725553Y-57942081D01*
X128759694Y-57829531D01*
X128840943Y-57677525D01*
X128950288Y-57544288D01*
X129083525Y-57434943D01*
X129235531Y-57353694D01*
X129348081Y-57319553D01*
X129400470Y-57303661D01*
X129437199Y-57300044D01*
X129529016Y-57291000D01*
X129614984Y-57291000D01*
X129706801Y-57300044D01*
X129706801Y-57300044D01*
G37*
G36*
X119706801Y-57300044D02*
G01*
X119743530Y-57303661D01*
X119795919Y-57319553D01*
X119908469Y-57353694D01*
X120060475Y-57434943D01*
X120193712Y-57544288D01*
X120303057Y-57677525D01*
X120384306Y-57829531D01*
X120418447Y-57942081D01*
X120434339Y-57994470D01*
X120434339Y-57994472D01*
X120451234Y-58166000D01*
X120437119Y-58309301D01*
X120434339Y-58337530D01*
X120418447Y-58389919D01*
X120384306Y-58502469D01*
X120303057Y-58654475D01*
X120193712Y-58787712D01*
X120060475Y-58897057D01*
X119908469Y-58978306D01*
X119795919Y-59012447D01*
X119743530Y-59028339D01*
X119706801Y-59031956D01*
X119614984Y-59041000D01*
X119529016Y-59041000D01*
X119437199Y-59031956D01*
X119400470Y-59028339D01*
X119348081Y-59012447D01*
X119235531Y-58978306D01*
X119083525Y-58897057D01*
X118950288Y-58787712D01*
X118840943Y-58654475D01*
X118759694Y-58502469D01*
X118725553Y-58389919D01*
X118709661Y-58337530D01*
X118706881Y-58309301D01*
X118692766Y-58166000D01*
X118709661Y-57994472D01*
X118709661Y-57994470D01*
X118725553Y-57942081D01*
X118759694Y-57829531D01*
X118840943Y-57677525D01*
X118950288Y-57544288D01*
X119083525Y-57434943D01*
X119235531Y-57353694D01*
X119348081Y-57319553D01*
X119400470Y-57303661D01*
X119437199Y-57300044D01*
X119529016Y-57291000D01*
X119614984Y-57291000D01*
X119706801Y-57300044D01*
X119706801Y-57300044D01*
G37*
G36*
X127706801Y-57300044D02*
G01*
X127743530Y-57303661D01*
X127795919Y-57319553D01*
X127908469Y-57353694D01*
X128060475Y-57434943D01*
X128193712Y-57544288D01*
X128303057Y-57677525D01*
X128384306Y-57829531D01*
X128418447Y-57942081D01*
X128434339Y-57994470D01*
X128434339Y-57994472D01*
X128451234Y-58166000D01*
X128437119Y-58309301D01*
X128434339Y-58337530D01*
X128418447Y-58389919D01*
X128384306Y-58502469D01*
X128303057Y-58654475D01*
X128193712Y-58787712D01*
X128060475Y-58897057D01*
X127908469Y-58978306D01*
X127795919Y-59012447D01*
X127743530Y-59028339D01*
X127706801Y-59031956D01*
X127614984Y-59041000D01*
X127529016Y-59041000D01*
X127437199Y-59031956D01*
X127400470Y-59028339D01*
X127348081Y-59012447D01*
X127235531Y-58978306D01*
X127083525Y-58897057D01*
X126950288Y-58787712D01*
X126840943Y-58654475D01*
X126759694Y-58502469D01*
X126725553Y-58389919D01*
X126709661Y-58337530D01*
X126706881Y-58309301D01*
X126692766Y-58166000D01*
X126709661Y-57994472D01*
X126709661Y-57994470D01*
X126725553Y-57942081D01*
X126759694Y-57829531D01*
X126840943Y-57677525D01*
X126950288Y-57544288D01*
X127083525Y-57434943D01*
X127235531Y-57353694D01*
X127348081Y-57319553D01*
X127400470Y-57303661D01*
X127437199Y-57300044D01*
X127529016Y-57291000D01*
X127614984Y-57291000D01*
X127706801Y-57300044D01*
X127706801Y-57300044D01*
G37*
G36*
X133706801Y-57300044D02*
G01*
X133743530Y-57303661D01*
X133795919Y-57319553D01*
X133908469Y-57353694D01*
X134060475Y-57434943D01*
X134193712Y-57544288D01*
X134303057Y-57677525D01*
X134384306Y-57829531D01*
X134418447Y-57942081D01*
X134434339Y-57994470D01*
X134434339Y-57994472D01*
X134451234Y-58166000D01*
X134437119Y-58309301D01*
X134434339Y-58337530D01*
X134418447Y-58389919D01*
X134384306Y-58502469D01*
X134303057Y-58654475D01*
X134193712Y-58787712D01*
X134060475Y-58897057D01*
X133908469Y-58978306D01*
X133795919Y-59012447D01*
X133743530Y-59028339D01*
X133706801Y-59031956D01*
X133614984Y-59041000D01*
X133529016Y-59041000D01*
X133437199Y-59031956D01*
X133400470Y-59028339D01*
X133348081Y-59012447D01*
X133235531Y-58978306D01*
X133083525Y-58897057D01*
X132950288Y-58787712D01*
X132840943Y-58654475D01*
X132759694Y-58502469D01*
X132725553Y-58389919D01*
X132709661Y-58337530D01*
X132706881Y-58309301D01*
X132692766Y-58166000D01*
X132709661Y-57994472D01*
X132709661Y-57994470D01*
X132725553Y-57942081D01*
X132759694Y-57829531D01*
X132840943Y-57677525D01*
X132950288Y-57544288D01*
X133083525Y-57434943D01*
X133235531Y-57353694D01*
X133348081Y-57319553D01*
X133400470Y-57303661D01*
X133437199Y-57300044D01*
X133529016Y-57291000D01*
X133614984Y-57291000D01*
X133706801Y-57300044D01*
X133706801Y-57300044D01*
G37*
M02*
