G04 #@! TF.GenerationSoftware,KiCad,Pcbnew,(5.1.0-0)*
G04 #@! TF.CreationDate,2019-04-23T20:45:17+03:00*
G04 #@! TF.ProjectId,panel,70616e65-6c2e-46b6-9963-61645f706362,1.0*
G04 #@! TF.SameCoordinates,Original*
G04 #@! TF.FileFunction,Legend,Top*
G04 #@! TF.FilePolarity,Positive*
%FSLAX46Y46*%
G04 Gerber Fmt 4.6, Leading zero omitted, Abs format (unit mm)*
G04 Created by KiCad (PCBNEW (5.1.0-0)) date 2019-04-23 20:45:17*
%MOMM*%
%LPD*%
G04 APERTURE LIST*
%ADD10C,0.150000*%
%ADD11C,0.200000*%
%ADD12C,0.300000*%
%ADD13C,0.120000*%
G04 APERTURE END LIST*
D10*
X170791214Y-21589642D02*
X171076928Y-22351547D01*
X171362642Y-21589642D01*
X171124547Y-21208690D02*
X171124547Y-20351547D01*
X170457880Y-19351547D02*
X171457880Y-19018214D01*
X170457880Y-18684880D01*
X171076928Y-18351547D02*
X171076928Y-17589642D01*
X171362642Y-16542023D02*
X171410261Y-16589642D01*
X171457880Y-16732500D01*
X171457880Y-16827738D01*
X171410261Y-16970595D01*
X171315023Y-17065833D01*
X171219785Y-17113452D01*
X171029309Y-17161071D01*
X170886452Y-17161071D01*
X170695976Y-17113452D01*
X170600738Y-17065833D01*
X170505500Y-16970595D01*
X170457880Y-16827738D01*
X170457880Y-16732500D01*
X170505500Y-16589642D01*
X170553119Y-16542023D01*
X170791214Y-15684880D02*
X171457880Y-15684880D01*
X170791214Y-16113452D02*
X171315023Y-16113452D01*
X171410261Y-16065833D01*
X171457880Y-15970595D01*
X171457880Y-15827738D01*
X171410261Y-15732500D01*
X171362642Y-15684880D01*
X170791214Y-15351547D02*
X170791214Y-14970595D01*
X170457880Y-15208690D02*
X171315023Y-15208690D01*
X171410261Y-15161071D01*
X171457880Y-15065833D01*
X171457880Y-14970595D01*
X170330880Y-137238857D02*
X171330880Y-136905523D01*
X170330880Y-136572190D01*
X170949928Y-136238857D02*
X170949928Y-135476952D01*
X171235642Y-134429333D02*
X171283261Y-134476952D01*
X171330880Y-134619809D01*
X171330880Y-134715047D01*
X171283261Y-134857904D01*
X171188023Y-134953142D01*
X171092785Y-135000761D01*
X170902309Y-135048380D01*
X170759452Y-135048380D01*
X170568976Y-135000761D01*
X170473738Y-134953142D01*
X170378500Y-134857904D01*
X170330880Y-134715047D01*
X170330880Y-134619809D01*
X170378500Y-134476952D01*
X170426119Y-134429333D01*
X170664214Y-133572190D02*
X171330880Y-133572190D01*
X170664214Y-134000761D02*
X171188023Y-134000761D01*
X171283261Y-133953142D01*
X171330880Y-133857904D01*
X171330880Y-133715047D01*
X171283261Y-133619809D01*
X171235642Y-133572190D01*
X170664214Y-133238857D02*
X170664214Y-132857904D01*
X170330880Y-133096000D02*
X171188023Y-133096000D01*
X171283261Y-133048380D01*
X171330880Y-132953142D01*
X171330880Y-132857904D01*
X170997547Y-131857904D02*
X170997547Y-131000761D01*
X170664214Y-130619809D02*
X170949928Y-129857904D01*
X171235642Y-130619809D01*
X207581857Y-72937714D02*
X206819952Y-73223428D01*
X207581857Y-73509142D01*
X207962809Y-73271047D02*
X208819952Y-73271047D01*
X209819952Y-72604380D02*
X210153285Y-73604380D01*
X210486619Y-72604380D01*
X210819952Y-73223428D02*
X211581857Y-73223428D01*
X212629476Y-73509142D02*
X212581857Y-73556761D01*
X212439000Y-73604380D01*
X212343761Y-73604380D01*
X212200904Y-73556761D01*
X212105666Y-73461523D01*
X212058047Y-73366285D01*
X212010428Y-73175809D01*
X212010428Y-73032952D01*
X212058047Y-72842476D01*
X212105666Y-72747238D01*
X212200904Y-72652000D01*
X212343761Y-72604380D01*
X212439000Y-72604380D01*
X212581857Y-72652000D01*
X212629476Y-72699619D01*
X213486619Y-72937714D02*
X213486619Y-73604380D01*
X213058047Y-72937714D02*
X213058047Y-73461523D01*
X213105666Y-73556761D01*
X213200904Y-73604380D01*
X213343761Y-73604380D01*
X213439000Y-73556761D01*
X213486619Y-73509142D01*
X213819952Y-72937714D02*
X214200904Y-72937714D01*
X213962809Y-72604380D02*
X213962809Y-73461523D01*
X214010428Y-73556761D01*
X214105666Y-73604380D01*
X214200904Y-73604380D01*
X100124142Y-72350380D02*
X100457476Y-73350380D01*
X100790809Y-72350380D01*
X101124142Y-72969428D02*
X101886047Y-72969428D01*
X102933666Y-73255142D02*
X102886047Y-73302761D01*
X102743190Y-73350380D01*
X102647952Y-73350380D01*
X102505095Y-73302761D01*
X102409857Y-73207523D01*
X102362238Y-73112285D01*
X102314619Y-72921809D01*
X102314619Y-72778952D01*
X102362238Y-72588476D01*
X102409857Y-72493238D01*
X102505095Y-72398000D01*
X102647952Y-72350380D01*
X102743190Y-72350380D01*
X102886047Y-72398000D01*
X102933666Y-72445619D01*
X103790809Y-72683714D02*
X103790809Y-73350380D01*
X103362238Y-72683714D02*
X103362238Y-73207523D01*
X103409857Y-73302761D01*
X103505095Y-73350380D01*
X103647952Y-73350380D01*
X103743190Y-73302761D01*
X103790809Y-73255142D01*
X104124142Y-72683714D02*
X104505095Y-72683714D01*
X104267000Y-72350380D02*
X104267000Y-73207523D01*
X104314619Y-73302761D01*
X104409857Y-73350380D01*
X104505095Y-73350380D01*
X105505095Y-73017047D02*
X106362238Y-73017047D01*
X106743190Y-72683714D02*
X107505095Y-72969428D01*
X106743190Y-73255142D01*
X154546666Y-86290142D02*
X155156190Y-86290142D01*
X154851428Y-86594904D02*
X154851428Y-85985380D01*
X155956190Y-86594904D02*
X155499047Y-86594904D01*
X155727619Y-86594904D02*
X155727619Y-85794904D01*
X155651428Y-85909190D01*
X155575238Y-85985380D01*
X155499047Y-86023476D01*
X156260952Y-85871095D02*
X156299047Y-85833000D01*
X156375238Y-85794904D01*
X156565714Y-85794904D01*
X156641904Y-85833000D01*
X156680000Y-85871095D01*
X156718095Y-85947285D01*
X156718095Y-86023476D01*
X156680000Y-86137761D01*
X156222857Y-86594904D01*
X156718095Y-86594904D01*
X156946666Y-85794904D02*
X157213333Y-86594904D01*
X157480000Y-85794904D01*
X158775238Y-85833000D02*
X158699047Y-85794904D01*
X158584761Y-85794904D01*
X158470476Y-85833000D01*
X158394285Y-85909190D01*
X158356190Y-85985380D01*
X158318095Y-86137761D01*
X158318095Y-86252047D01*
X158356190Y-86404428D01*
X158394285Y-86480619D01*
X158470476Y-86556809D01*
X158584761Y-86594904D01*
X158660952Y-86594904D01*
X158775238Y-86556809D01*
X158813333Y-86518714D01*
X158813333Y-86252047D01*
X158660952Y-86252047D01*
X159156190Y-86594904D02*
X159156190Y-85794904D01*
X159613333Y-86594904D01*
X159613333Y-85794904D01*
X159994285Y-86594904D02*
X159994285Y-85794904D01*
X160184761Y-85794904D01*
X160299047Y-85833000D01*
X160375238Y-85909190D01*
X160413333Y-85985380D01*
X160451428Y-86137761D01*
X160451428Y-86252047D01*
X160413333Y-86404428D01*
X160375238Y-86480619D01*
X160299047Y-86556809D01*
X160184761Y-86594904D01*
X159994285Y-86594904D01*
X114466619Y-83820095D02*
X114466619Y-84391523D01*
X113466619Y-84105809D02*
X114466619Y-84105809D01*
X114466619Y-84629619D02*
X113466619Y-85296285D01*
X114466619Y-85296285D02*
X113466619Y-84629619D01*
X113466619Y-88733333D02*
X113942809Y-88400000D01*
X113466619Y-88161904D02*
X114466619Y-88161904D01*
X114466619Y-88542857D01*
X114419000Y-88638095D01*
X114371380Y-88685714D01*
X114276142Y-88733333D01*
X114133285Y-88733333D01*
X114038047Y-88685714D01*
X113990428Y-88638095D01*
X113942809Y-88542857D01*
X113942809Y-88161904D01*
X114466619Y-89066666D02*
X113466619Y-89733333D01*
X114466619Y-89733333D02*
X113466619Y-89066666D01*
X113514238Y-79724333D02*
X113466619Y-79867190D01*
X113466619Y-80105285D01*
X113514238Y-80200523D01*
X113561857Y-80248142D01*
X113657095Y-80295761D01*
X113752333Y-80295761D01*
X113847571Y-80248142D01*
X113895190Y-80200523D01*
X113942809Y-80105285D01*
X113990428Y-79914809D01*
X114038047Y-79819571D01*
X114085666Y-79771952D01*
X114180904Y-79724333D01*
X114276142Y-79724333D01*
X114371380Y-79771952D01*
X114419000Y-79819571D01*
X114466619Y-79914809D01*
X114466619Y-80152904D01*
X114419000Y-80295761D01*
X114466619Y-80581476D02*
X114466619Y-81152904D01*
X113466619Y-80867190D02*
X114466619Y-80867190D01*
X150376238Y-79097142D02*
X150328619Y-79144761D01*
X150185761Y-79192380D01*
X150090523Y-79192380D01*
X149947666Y-79144761D01*
X149852428Y-79049523D01*
X149804809Y-78954285D01*
X149757190Y-78763809D01*
X149757190Y-78620952D01*
X149804809Y-78430476D01*
X149852428Y-78335238D01*
X149947666Y-78240000D01*
X150090523Y-78192380D01*
X150185761Y-78192380D01*
X150328619Y-78240000D01*
X150376238Y-78287619D01*
X151281000Y-79192380D02*
X150804809Y-79192380D01*
X150804809Y-78192380D01*
X151614333Y-79192380D02*
X151614333Y-78192380D01*
X152185761Y-79192380D02*
X151757190Y-78620952D01*
X152185761Y-78192380D02*
X151614333Y-78763809D01*
X152376238Y-79287619D02*
X153138142Y-79287619D01*
X153566714Y-78192380D02*
X153757190Y-78192380D01*
X153852428Y-78240000D01*
X153947666Y-78335238D01*
X153995285Y-78525714D01*
X153995285Y-78859047D01*
X153947666Y-79049523D01*
X153852428Y-79144761D01*
X153757190Y-79192380D01*
X153566714Y-79192380D01*
X153471476Y-79144761D01*
X153376238Y-79049523D01*
X153328619Y-78859047D01*
X153328619Y-78525714D01*
X153376238Y-78335238D01*
X153471476Y-78240000D01*
X153566714Y-78192380D01*
X154423857Y-78192380D02*
X154423857Y-79001904D01*
X154471476Y-79097142D01*
X154519095Y-79144761D01*
X154614333Y-79192380D01*
X154804809Y-79192380D01*
X154900047Y-79144761D01*
X154947666Y-79097142D01*
X154995285Y-79001904D01*
X154995285Y-78192380D01*
X155328619Y-78192380D02*
X155900047Y-78192380D01*
X155614333Y-79192380D02*
X155614333Y-78192380D01*
X125468000Y-108053523D02*
X125515619Y-107958285D01*
X125515619Y-107815428D01*
X125468000Y-107672571D01*
X125372761Y-107577333D01*
X125277523Y-107529714D01*
X125087047Y-107482095D01*
X124944190Y-107482095D01*
X124753714Y-107529714D01*
X124658476Y-107577333D01*
X124563238Y-107672571D01*
X124515619Y-107815428D01*
X124515619Y-107910666D01*
X124563238Y-108053523D01*
X124610857Y-108101142D01*
X124944190Y-108101142D01*
X124944190Y-107910666D01*
X124515619Y-108529714D02*
X125515619Y-108529714D01*
X124515619Y-109101142D01*
X125515619Y-109101142D01*
X124515619Y-109577333D02*
X125515619Y-109577333D01*
X125515619Y-109815428D01*
X125468000Y-109958285D01*
X125372761Y-110053523D01*
X125277523Y-110101142D01*
X125087047Y-110148761D01*
X124944190Y-110148761D01*
X124753714Y-110101142D01*
X124658476Y-110053523D01*
X124563238Y-109958285D01*
X124515619Y-109815428D01*
X124515619Y-109577333D01*
X124563238Y-111291619D02*
X124515619Y-111434476D01*
X124515619Y-111672571D01*
X124563238Y-111767809D01*
X124610857Y-111815428D01*
X124706095Y-111863047D01*
X124801333Y-111863047D01*
X124896571Y-111815428D01*
X124944190Y-111767809D01*
X124991809Y-111672571D01*
X125039428Y-111482095D01*
X125087047Y-111386857D01*
X125134666Y-111339238D01*
X125229904Y-111291619D01*
X125325142Y-111291619D01*
X125420380Y-111339238D01*
X125468000Y-111386857D01*
X125515619Y-111482095D01*
X125515619Y-111720190D01*
X125468000Y-111863047D01*
X125515619Y-112196380D02*
X124515619Y-112434476D01*
X125229904Y-112624952D01*
X124515619Y-112815428D01*
X125515619Y-113053523D01*
X124610857Y-114005904D02*
X124563238Y-113958285D01*
X124515619Y-113815428D01*
X124515619Y-113720190D01*
X124563238Y-113577333D01*
X124658476Y-113482095D01*
X124753714Y-113434476D01*
X124944190Y-113386857D01*
X125087047Y-113386857D01*
X125277523Y-113434476D01*
X125372761Y-113482095D01*
X125468000Y-113577333D01*
X125515619Y-113720190D01*
X125515619Y-113815428D01*
X125468000Y-113958285D01*
X125420380Y-114005904D01*
D11*
X166668571Y-81949857D02*
X166668571Y-80749857D01*
X167068571Y-81607000D01*
X167468571Y-80749857D01*
X167468571Y-81949857D01*
X168668571Y-81949857D02*
X167982857Y-81949857D01*
X168325714Y-81949857D02*
X168325714Y-80749857D01*
X168211428Y-80921285D01*
X168097142Y-81035571D01*
X167982857Y-81092714D01*
X166668571Y-84489857D02*
X166668571Y-83289857D01*
X167068571Y-84147000D01*
X167468571Y-83289857D01*
X167468571Y-84489857D01*
X168268571Y-83289857D02*
X168382857Y-83289857D01*
X168497142Y-83347000D01*
X168554285Y-83404142D01*
X168611428Y-83518428D01*
X168668571Y-83747000D01*
X168668571Y-84032714D01*
X168611428Y-84261285D01*
X168554285Y-84375571D01*
X168497142Y-84432714D01*
X168382857Y-84489857D01*
X168268571Y-84489857D01*
X168154285Y-84432714D01*
X168097142Y-84375571D01*
X168040000Y-84261285D01*
X167982857Y-84032714D01*
X167982857Y-83747000D01*
X168040000Y-83518428D01*
X168097142Y-83404142D01*
X168154285Y-83347000D01*
X168268571Y-83289857D01*
X167440000Y-87029857D02*
X167040000Y-86458428D01*
X166754285Y-87029857D02*
X166754285Y-85829857D01*
X167211428Y-85829857D01*
X167325714Y-85887000D01*
X167382857Y-85944142D01*
X167440000Y-86058428D01*
X167440000Y-86229857D01*
X167382857Y-86344142D01*
X167325714Y-86401285D01*
X167211428Y-86458428D01*
X166754285Y-86458428D01*
X167840000Y-85829857D02*
X168640000Y-87029857D01*
X168640000Y-85829857D02*
X167840000Y-87029857D01*
X166725714Y-88369857D02*
X167411428Y-88369857D01*
X167068571Y-89569857D02*
X167068571Y-88369857D01*
X167697142Y-88369857D02*
X168497142Y-89569857D01*
X168497142Y-88369857D02*
X167697142Y-89569857D01*
X166554285Y-92109857D02*
X166554285Y-90909857D01*
X167125714Y-92109857D02*
X167125714Y-90909857D01*
X167811428Y-92109857D01*
X167811428Y-90909857D01*
X168211428Y-90909857D02*
X168897142Y-90909857D01*
X168554285Y-92109857D02*
X168554285Y-90909857D01*
X166868571Y-94535571D02*
X166811428Y-94592714D01*
X166640000Y-94649857D01*
X166525714Y-94649857D01*
X166354285Y-94592714D01*
X166240000Y-94478428D01*
X166182857Y-94364142D01*
X166125714Y-94135571D01*
X166125714Y-93964142D01*
X166182857Y-93735571D01*
X166240000Y-93621285D01*
X166354285Y-93507000D01*
X166525714Y-93449857D01*
X166640000Y-93449857D01*
X166811428Y-93507000D01*
X166868571Y-93564142D01*
X167325714Y-94592714D02*
X167497142Y-94649857D01*
X167782857Y-94649857D01*
X167897142Y-94592714D01*
X167954285Y-94535571D01*
X168011428Y-94421285D01*
X168011428Y-94307000D01*
X167954285Y-94192714D01*
X167897142Y-94135571D01*
X167782857Y-94078428D01*
X167554285Y-94021285D01*
X167440000Y-93964142D01*
X167382857Y-93907000D01*
X167325714Y-93792714D01*
X167325714Y-93678428D01*
X167382857Y-93564142D01*
X167440000Y-93507000D01*
X167554285Y-93449857D01*
X167840000Y-93449857D01*
X168011428Y-93507000D01*
X169040000Y-93849857D02*
X169040000Y-94649857D01*
X168754285Y-93392714D02*
X168468571Y-94249857D01*
X169211428Y-94249857D01*
X166868571Y-97075571D02*
X166811428Y-97132714D01*
X166640000Y-97189857D01*
X166525714Y-97189857D01*
X166354285Y-97132714D01*
X166240000Y-97018428D01*
X166182857Y-96904142D01*
X166125714Y-96675571D01*
X166125714Y-96504142D01*
X166182857Y-96275571D01*
X166240000Y-96161285D01*
X166354285Y-96047000D01*
X166525714Y-95989857D01*
X166640000Y-95989857D01*
X166811428Y-96047000D01*
X166868571Y-96104142D01*
X167325714Y-97132714D02*
X167497142Y-97189857D01*
X167782857Y-97189857D01*
X167897142Y-97132714D01*
X167954285Y-97075571D01*
X168011428Y-96961285D01*
X168011428Y-96847000D01*
X167954285Y-96732714D01*
X167897142Y-96675571D01*
X167782857Y-96618428D01*
X167554285Y-96561285D01*
X167440000Y-96504142D01*
X167382857Y-96447000D01*
X167325714Y-96332714D01*
X167325714Y-96218428D01*
X167382857Y-96104142D01*
X167440000Y-96047000D01*
X167554285Y-95989857D01*
X167840000Y-95989857D01*
X168011428Y-96047000D01*
X168411428Y-95989857D02*
X169154285Y-95989857D01*
X168754285Y-96447000D01*
X168925714Y-96447000D01*
X169040000Y-96504142D01*
X169097142Y-96561285D01*
X169154285Y-96675571D01*
X169154285Y-96961285D01*
X169097142Y-97075571D01*
X169040000Y-97132714D01*
X168925714Y-97189857D01*
X168582857Y-97189857D01*
X168468571Y-97132714D01*
X168411428Y-97075571D01*
X166868571Y-99615571D02*
X166811428Y-99672714D01*
X166640000Y-99729857D01*
X166525714Y-99729857D01*
X166354285Y-99672714D01*
X166240000Y-99558428D01*
X166182857Y-99444142D01*
X166125714Y-99215571D01*
X166125714Y-99044142D01*
X166182857Y-98815571D01*
X166240000Y-98701285D01*
X166354285Y-98587000D01*
X166525714Y-98529857D01*
X166640000Y-98529857D01*
X166811428Y-98587000D01*
X166868571Y-98644142D01*
X167325714Y-99672714D02*
X167497142Y-99729857D01*
X167782857Y-99729857D01*
X167897142Y-99672714D01*
X167954285Y-99615571D01*
X168011428Y-99501285D01*
X168011428Y-99387000D01*
X167954285Y-99272714D01*
X167897142Y-99215571D01*
X167782857Y-99158428D01*
X167554285Y-99101285D01*
X167440000Y-99044142D01*
X167382857Y-98987000D01*
X167325714Y-98872714D01*
X167325714Y-98758428D01*
X167382857Y-98644142D01*
X167440000Y-98587000D01*
X167554285Y-98529857D01*
X167840000Y-98529857D01*
X168011428Y-98587000D01*
X168468571Y-98644142D02*
X168525714Y-98587000D01*
X168640000Y-98529857D01*
X168925714Y-98529857D01*
X169040000Y-98587000D01*
X169097142Y-98644142D01*
X169154285Y-98758428D01*
X169154285Y-98872714D01*
X169097142Y-99044142D01*
X168411428Y-99729857D01*
X169154285Y-99729857D01*
X166868571Y-102155571D02*
X166811428Y-102212714D01*
X166640000Y-102269857D01*
X166525714Y-102269857D01*
X166354285Y-102212714D01*
X166240000Y-102098428D01*
X166182857Y-101984142D01*
X166125714Y-101755571D01*
X166125714Y-101584142D01*
X166182857Y-101355571D01*
X166240000Y-101241285D01*
X166354285Y-101127000D01*
X166525714Y-101069857D01*
X166640000Y-101069857D01*
X166811428Y-101127000D01*
X166868571Y-101184142D01*
X167325714Y-102212714D02*
X167497142Y-102269857D01*
X167782857Y-102269857D01*
X167897142Y-102212714D01*
X167954285Y-102155571D01*
X168011428Y-102041285D01*
X168011428Y-101927000D01*
X167954285Y-101812714D01*
X167897142Y-101755571D01*
X167782857Y-101698428D01*
X167554285Y-101641285D01*
X167440000Y-101584142D01*
X167382857Y-101527000D01*
X167325714Y-101412714D01*
X167325714Y-101298428D01*
X167382857Y-101184142D01*
X167440000Y-101127000D01*
X167554285Y-101069857D01*
X167840000Y-101069857D01*
X168011428Y-101127000D01*
X169154285Y-102269857D02*
X168468571Y-102269857D01*
X168811428Y-102269857D02*
X168811428Y-101069857D01*
X168697142Y-101241285D01*
X168582857Y-101355571D01*
X168468571Y-101412714D01*
X166008285Y-104809857D02*
X166008285Y-103609857D01*
X166408285Y-104467000D01*
X166808285Y-103609857D01*
X166808285Y-104809857D01*
X167379714Y-104809857D02*
X167379714Y-103609857D01*
X167894000Y-104752714D02*
X168065428Y-104809857D01*
X168351142Y-104809857D01*
X168465428Y-104752714D01*
X168522571Y-104695571D01*
X168579714Y-104581285D01*
X168579714Y-104467000D01*
X168522571Y-104352714D01*
X168465428Y-104295571D01*
X168351142Y-104238428D01*
X168122571Y-104181285D01*
X168008285Y-104124142D01*
X167951142Y-104067000D01*
X167894000Y-103952714D01*
X167894000Y-103838428D01*
X167951142Y-103724142D01*
X168008285Y-103667000D01*
X168122571Y-103609857D01*
X168408285Y-103609857D01*
X168579714Y-103667000D01*
X169322571Y-103609857D02*
X169551142Y-103609857D01*
X169665428Y-103667000D01*
X169779714Y-103781285D01*
X169836857Y-104009857D01*
X169836857Y-104409857D01*
X169779714Y-104638428D01*
X169665428Y-104752714D01*
X169551142Y-104809857D01*
X169322571Y-104809857D01*
X169208285Y-104752714D01*
X169094000Y-104638428D01*
X169036857Y-104409857D01*
X169036857Y-104009857D01*
X169094000Y-103781285D01*
X169208285Y-103667000D01*
X169322571Y-103609857D01*
X166008285Y-107349857D02*
X166008285Y-106149857D01*
X166408285Y-107007000D01*
X166808285Y-106149857D01*
X166808285Y-107349857D01*
X167608285Y-106149857D02*
X167836857Y-106149857D01*
X167951142Y-106207000D01*
X168065428Y-106321285D01*
X168122571Y-106549857D01*
X168122571Y-106949857D01*
X168065428Y-107178428D01*
X167951142Y-107292714D01*
X167836857Y-107349857D01*
X167608285Y-107349857D01*
X167494000Y-107292714D01*
X167379714Y-107178428D01*
X167322571Y-106949857D01*
X167322571Y-106549857D01*
X167379714Y-106321285D01*
X167494000Y-106207000D01*
X167608285Y-106149857D01*
X168579714Y-107292714D02*
X168751142Y-107349857D01*
X169036857Y-107349857D01*
X169151142Y-107292714D01*
X169208285Y-107235571D01*
X169265428Y-107121285D01*
X169265428Y-107007000D01*
X169208285Y-106892714D01*
X169151142Y-106835571D01*
X169036857Y-106778428D01*
X168808285Y-106721285D01*
X168694000Y-106664142D01*
X168636857Y-106607000D01*
X168579714Y-106492714D01*
X168579714Y-106378428D01*
X168636857Y-106264142D01*
X168694000Y-106207000D01*
X168808285Y-106149857D01*
X169094000Y-106149857D01*
X169265428Y-106207000D01*
X169779714Y-107349857D02*
X169779714Y-106149857D01*
X166925714Y-109775571D02*
X166868571Y-109832714D01*
X166697142Y-109889857D01*
X166582857Y-109889857D01*
X166411428Y-109832714D01*
X166297142Y-109718428D01*
X166240000Y-109604142D01*
X166182857Y-109375571D01*
X166182857Y-109204142D01*
X166240000Y-108975571D01*
X166297142Y-108861285D01*
X166411428Y-108747000D01*
X166582857Y-108689857D01*
X166697142Y-108689857D01*
X166868571Y-108747000D01*
X166925714Y-108804142D01*
X168011428Y-109889857D02*
X167440000Y-109889857D01*
X167440000Y-108689857D01*
X168411428Y-109889857D02*
X168411428Y-108689857D01*
X169097142Y-109889857D02*
X168582857Y-109204142D01*
X169097142Y-108689857D02*
X168411428Y-109375571D01*
X166725714Y-111160000D02*
X166611428Y-111102857D01*
X166440000Y-111102857D01*
X166268571Y-111160000D01*
X166154285Y-111274285D01*
X166097142Y-111388571D01*
X166040000Y-111617142D01*
X166040000Y-111788571D01*
X166097142Y-112017142D01*
X166154285Y-112131428D01*
X166268571Y-112245714D01*
X166440000Y-112302857D01*
X166554285Y-112302857D01*
X166725714Y-112245714D01*
X166782857Y-112188571D01*
X166782857Y-111788571D01*
X166554285Y-111788571D01*
X167297142Y-112302857D02*
X167297142Y-111102857D01*
X167982857Y-112302857D01*
X167982857Y-111102857D01*
X168554285Y-112302857D02*
X168554285Y-111102857D01*
X168840000Y-111102857D01*
X169011428Y-111160000D01*
X169125714Y-111274285D01*
X169182857Y-111388571D01*
X169240000Y-111617142D01*
X169240000Y-111788571D01*
X169182857Y-112017142D01*
X169125714Y-112131428D01*
X169011428Y-112245714D01*
X168840000Y-112302857D01*
X168554285Y-112302857D01*
X113379333Y-92086178D02*
X113417428Y-92043321D01*
X113531714Y-91962369D01*
X113607904Y-91924273D01*
X113722190Y-91890940D01*
X113912666Y-91867130D01*
X114065047Y-91886178D01*
X114255523Y-91957607D01*
X114369809Y-92019511D01*
X114446000Y-92076654D01*
X114560285Y-92186178D01*
X114598380Y-92238559D01*
X113722190Y-92938559D02*
X113684095Y-92838559D01*
X113684095Y-92648083D01*
X113722190Y-92557607D01*
X113760285Y-92514749D01*
X113836476Y-92476654D01*
X114065047Y-92505226D01*
X114141238Y-92562369D01*
X114179333Y-92614749D01*
X114217428Y-92714749D01*
X114217428Y-92905226D01*
X114179333Y-92995702D01*
X113379333Y-93229035D02*
X113417428Y-93281416D01*
X113531714Y-93390940D01*
X113607904Y-93448083D01*
X113722190Y-93509988D01*
X113912666Y-93581416D01*
X114065047Y-93600464D01*
X114255523Y-93576654D01*
X114369809Y-93543321D01*
X114446000Y-93505226D01*
X114560285Y-93424273D01*
X114598380Y-93381416D01*
X113684095Y-94790940D02*
X114484095Y-94890940D01*
X113912666Y-95152845D01*
X114484095Y-95557607D01*
X113684095Y-95457607D01*
X113684095Y-96362369D02*
X114103142Y-96414750D01*
X114179333Y-96376654D01*
X114217428Y-96286178D01*
X114217428Y-96095702D01*
X114179333Y-95995702D01*
X113722190Y-96367130D02*
X113684095Y-96267130D01*
X113684095Y-96029035D01*
X113722190Y-95938559D01*
X113798380Y-95900464D01*
X113874571Y-95909988D01*
X113950761Y-95967130D01*
X113988857Y-96067130D01*
X113988857Y-96305226D01*
X114026952Y-96405226D01*
X113684095Y-96838559D02*
X114217428Y-96905226D01*
X114065047Y-96886178D02*
X114141238Y-96943321D01*
X114179333Y-96995702D01*
X114217428Y-97095702D01*
X114217428Y-97190940D01*
X113684095Y-97457607D02*
X114484095Y-97557607D01*
X113988857Y-97590940D02*
X113684095Y-97838559D01*
X114217428Y-97905226D02*
X113912666Y-97486178D01*
X113684095Y-98409988D02*
X113722190Y-98319511D01*
X113760285Y-98276654D01*
X113836476Y-98238559D01*
X114065047Y-98267130D01*
X114141238Y-98324273D01*
X114179333Y-98376654D01*
X114217428Y-98476654D01*
X114217428Y-98619511D01*
X114179333Y-98709988D01*
X114141238Y-98752845D01*
X114065047Y-98790940D01*
X113836476Y-98762369D01*
X113760285Y-98705226D01*
X113722190Y-98652845D01*
X113684095Y-98552845D01*
X113684095Y-98409988D01*
X114484095Y-100319511D02*
X113912666Y-100248083D01*
X113798380Y-100186178D01*
X113722190Y-100081416D01*
X113684095Y-99933797D01*
X113684095Y-99838559D01*
X114217428Y-101190940D02*
X113684095Y-101124273D01*
X114217428Y-100762369D02*
X113798380Y-100709988D01*
X113722190Y-100748083D01*
X113684095Y-100838559D01*
X113684095Y-100981416D01*
X113722190Y-101081416D01*
X113760285Y-101133797D01*
X113684095Y-101600464D02*
X114484095Y-101700464D01*
X113684095Y-102029035D02*
X114103142Y-102081416D01*
X114179333Y-102043321D01*
X114217428Y-101952845D01*
X114217428Y-101809988D01*
X114179333Y-101709988D01*
X114141238Y-101657607D01*
X113684095Y-102933797D02*
X114103142Y-102986178D01*
X114179333Y-102948083D01*
X114217428Y-102857607D01*
X114217428Y-102667130D01*
X114179333Y-102567130D01*
X113722190Y-102938559D02*
X113684095Y-102838559D01*
X113684095Y-102600464D01*
X113722190Y-102509988D01*
X113798380Y-102471892D01*
X113874571Y-102481416D01*
X113950761Y-102538559D01*
X113988857Y-102638559D01*
X113988857Y-102876654D01*
X114026952Y-102976654D01*
X114217428Y-103476654D02*
X113684095Y-103409988D01*
X114141238Y-103467130D02*
X114179333Y-103519511D01*
X114217428Y-103619511D01*
X114217428Y-103762369D01*
X114179333Y-103852845D01*
X114103142Y-103890940D01*
X113684095Y-103838559D01*
X114217428Y-104381416D02*
X113684095Y-104314750D01*
X114141238Y-104371892D02*
X114179333Y-104424273D01*
X114217428Y-104524273D01*
X114217428Y-104667130D01*
X114179333Y-104757607D01*
X114103142Y-104795702D01*
X113684095Y-104743321D01*
X113722190Y-105605226D02*
X113684095Y-105505226D01*
X113684095Y-105314750D01*
X113722190Y-105224273D01*
X113798380Y-105186178D01*
X114103142Y-105224273D01*
X114179333Y-105281416D01*
X114217428Y-105381416D01*
X114217428Y-105571892D01*
X114179333Y-105662369D01*
X114103142Y-105700464D01*
X114026952Y-105690940D01*
X113950761Y-105205226D01*
X115970095Y-91987904D02*
X116503428Y-91987904D01*
X116351047Y-91987904D02*
X116427238Y-92035523D01*
X116465333Y-92083142D01*
X116503428Y-92178380D01*
X116503428Y-92273619D01*
X116008190Y-92987904D02*
X115970095Y-92892666D01*
X115970095Y-92702190D01*
X116008190Y-92606952D01*
X116084380Y-92559333D01*
X116389142Y-92559333D01*
X116465333Y-92606952D01*
X116503428Y-92702190D01*
X116503428Y-92892666D01*
X116465333Y-92987904D01*
X116389142Y-93035523D01*
X116312952Y-93035523D01*
X116236761Y-92559333D01*
X116503428Y-93368857D02*
X115970095Y-93606952D01*
X116503428Y-93845047D01*
X115970095Y-95511714D02*
X115970095Y-94940285D01*
X115970095Y-95226000D02*
X116770095Y-95226000D01*
X116655809Y-95130761D01*
X116579619Y-95035523D01*
X116541523Y-94940285D01*
X118281428Y-92028095D02*
X117481428Y-92028095D01*
X118243333Y-92028095D02*
X118281428Y-92123333D01*
X118281428Y-92313809D01*
X118243333Y-92409047D01*
X118205238Y-92456666D01*
X118129047Y-92504285D01*
X117900476Y-92504285D01*
X117824285Y-92456666D01*
X117786190Y-92409047D01*
X117748095Y-92313809D01*
X117748095Y-92123333D01*
X117786190Y-92028095D01*
X117748095Y-92932857D02*
X118281428Y-92932857D01*
X118129047Y-92932857D02*
X118205238Y-92980476D01*
X118243333Y-93028095D01*
X118281428Y-93123333D01*
X118281428Y-93218571D01*
X117748095Y-93694761D02*
X117786190Y-93599523D01*
X117824285Y-93551904D01*
X117900476Y-93504285D01*
X118129047Y-93504285D01*
X118205238Y-93551904D01*
X118243333Y-93599523D01*
X118281428Y-93694761D01*
X118281428Y-93837619D01*
X118243333Y-93932857D01*
X118205238Y-93980476D01*
X118129047Y-94028095D01*
X117900476Y-94028095D01*
X117824285Y-93980476D01*
X117786190Y-93932857D01*
X117748095Y-93837619D01*
X117748095Y-93694761D01*
X118281428Y-94313809D02*
X118281428Y-94694761D01*
X118548095Y-94456666D02*
X117862380Y-94456666D01*
X117786190Y-94504285D01*
X117748095Y-94599523D01*
X117748095Y-94694761D01*
X117748095Y-95170952D02*
X117786190Y-95075714D01*
X117824285Y-95028095D01*
X117900476Y-94980476D01*
X118129047Y-94980476D01*
X118205238Y-95028095D01*
X118243333Y-95075714D01*
X118281428Y-95170952D01*
X118281428Y-95313809D01*
X118243333Y-95409047D01*
X118205238Y-95456666D01*
X118129047Y-95504285D01*
X117900476Y-95504285D01*
X117824285Y-95456666D01*
X117786190Y-95409047D01*
X117748095Y-95313809D01*
X117748095Y-95170952D01*
X118281428Y-95790000D02*
X118281428Y-96170952D01*
X118548095Y-95932857D02*
X117862380Y-95932857D01*
X117786190Y-95980476D01*
X117748095Y-96075714D01*
X117748095Y-96170952D01*
X118281428Y-96409047D02*
X117748095Y-96647142D01*
X118281428Y-96885238D02*
X117748095Y-96647142D01*
X117557619Y-96551904D01*
X117519523Y-96504285D01*
X117481428Y-96409047D01*
X118281428Y-97266190D02*
X117481428Y-97266190D01*
X118243333Y-97266190D02*
X118281428Y-97361428D01*
X118281428Y-97551904D01*
X118243333Y-97647142D01*
X118205238Y-97694761D01*
X118129047Y-97742380D01*
X117900476Y-97742380D01*
X117824285Y-97694761D01*
X117786190Y-97647142D01*
X117748095Y-97551904D01*
X117748095Y-97361428D01*
X117786190Y-97266190D01*
X117786190Y-98551904D02*
X117748095Y-98456666D01*
X117748095Y-98266190D01*
X117786190Y-98170952D01*
X117862380Y-98123333D01*
X118167142Y-98123333D01*
X118243333Y-98170952D01*
X118281428Y-98266190D01*
X118281428Y-98456666D01*
X118243333Y-98551904D01*
X118167142Y-98599523D01*
X118090952Y-98599523D01*
X118014761Y-98123333D01*
X117748095Y-99790000D02*
X118548095Y-99790000D01*
X118243333Y-99790000D02*
X118281428Y-99885238D01*
X118281428Y-100075714D01*
X118243333Y-100170952D01*
X118205238Y-100218571D01*
X118129047Y-100266190D01*
X117900476Y-100266190D01*
X117824285Y-100218571D01*
X117786190Y-100170952D01*
X117748095Y-100075714D01*
X117748095Y-99885238D01*
X117786190Y-99790000D01*
X117748095Y-100837619D02*
X117786190Y-100742380D01*
X117824285Y-100694761D01*
X117900476Y-100647142D01*
X118129047Y-100647142D01*
X118205238Y-100694761D01*
X118243333Y-100742380D01*
X118281428Y-100837619D01*
X118281428Y-100980476D01*
X118243333Y-101075714D01*
X118205238Y-101123333D01*
X118129047Y-101170952D01*
X117900476Y-101170952D01*
X117824285Y-101123333D01*
X117786190Y-101075714D01*
X117748095Y-100980476D01*
X117748095Y-100837619D01*
X117748095Y-102028095D02*
X118167142Y-102028095D01*
X118243333Y-101980476D01*
X118281428Y-101885238D01*
X118281428Y-101694761D01*
X118243333Y-101599523D01*
X117786190Y-102028095D02*
X117748095Y-101932857D01*
X117748095Y-101694761D01*
X117786190Y-101599523D01*
X117862380Y-101551904D01*
X117938571Y-101551904D01*
X118014761Y-101599523D01*
X118052857Y-101694761D01*
X118052857Y-101932857D01*
X118090952Y-102028095D01*
X117748095Y-102504285D02*
X118281428Y-102504285D01*
X118129047Y-102504285D02*
X118205238Y-102551904D01*
X118243333Y-102599523D01*
X118281428Y-102694761D01*
X118281428Y-102790000D01*
X117748095Y-103551904D02*
X118548095Y-103551904D01*
X117786190Y-103551904D02*
X117748095Y-103456666D01*
X117748095Y-103266190D01*
X117786190Y-103170952D01*
X117824285Y-103123333D01*
X117900476Y-103075714D01*
X118129047Y-103075714D01*
X118205238Y-103123333D01*
X118243333Y-103170952D01*
X118281428Y-103266190D01*
X118281428Y-103456666D01*
X118243333Y-103551904D01*
D12*
X120926142Y-92190190D02*
X120926142Y-92494952D01*
X120869000Y-92647333D01*
X120754714Y-92799714D01*
X120526142Y-92875904D01*
X120126142Y-92875904D01*
X119897571Y-92799714D01*
X119783285Y-92647333D01*
X119726142Y-92494952D01*
X119726142Y-92190190D01*
X119783285Y-92037809D01*
X119897571Y-91885428D01*
X120126142Y-91809238D01*
X120526142Y-91809238D01*
X120754714Y-91885428D01*
X120869000Y-92037809D01*
X120926142Y-92190190D01*
X120926142Y-93333047D02*
X119726142Y-93866380D01*
X120926142Y-94399714D01*
X119726142Y-94933047D02*
X120926142Y-94933047D01*
X120069000Y-95466380D01*
X120926142Y-95999714D01*
X119726142Y-95999714D01*
X119783285Y-96685428D02*
X119726142Y-96914000D01*
X119726142Y-97294952D01*
X119783285Y-97447333D01*
X119840428Y-97523523D01*
X119954714Y-97599714D01*
X120069000Y-97599714D01*
X120183285Y-97523523D01*
X120240428Y-97447333D01*
X120297571Y-97294952D01*
X120354714Y-96990190D01*
X120411857Y-96837809D01*
X120469000Y-96761619D01*
X120583285Y-96685428D01*
X120697571Y-96685428D01*
X120811857Y-96761619D01*
X120869000Y-96837809D01*
X120926142Y-96990190D01*
X120926142Y-97371142D01*
X120869000Y-97599714D01*
X119783285Y-99428285D02*
X119726142Y-99656857D01*
X119726142Y-100037809D01*
X119783285Y-100190190D01*
X119840428Y-100266380D01*
X119954714Y-100342571D01*
X120069000Y-100342571D01*
X120183285Y-100266380D01*
X120240428Y-100190190D01*
X120297571Y-100037809D01*
X120354714Y-99733047D01*
X120411857Y-99580666D01*
X120469000Y-99504476D01*
X120583285Y-99428285D01*
X120697571Y-99428285D01*
X120811857Y-99504476D01*
X120869000Y-99580666D01*
X120926142Y-99733047D01*
X120926142Y-100114000D01*
X120869000Y-100342571D01*
X120926142Y-100875904D02*
X119726142Y-101256857D01*
X120583285Y-101561619D01*
X119726142Y-101866380D01*
X120926142Y-102247333D01*
X119840428Y-103771142D02*
X119783285Y-103694952D01*
X119726142Y-103466380D01*
X119726142Y-103314000D01*
X119783285Y-103085428D01*
X119897571Y-102933047D01*
X120011857Y-102856857D01*
X120240428Y-102780666D01*
X120411857Y-102780666D01*
X120640428Y-102856857D01*
X120754714Y-102933047D01*
X120869000Y-103085428D01*
X120926142Y-103314000D01*
X120926142Y-103466380D01*
X120869000Y-103694952D01*
X120811857Y-103771142D01*
X120069000Y-104380666D02*
X120069000Y-105142571D01*
X119726142Y-104228285D02*
X120926142Y-104761619D01*
X119726142Y-105294952D01*
X119726142Y-105828285D02*
X120926142Y-105828285D01*
X119726142Y-106742571D01*
X120926142Y-106742571D01*
D10*
X154546666Y-39617642D02*
X155156190Y-39617642D01*
X154851428Y-39922404D02*
X154851428Y-39312880D01*
X155956190Y-39922404D02*
X155499047Y-39922404D01*
X155727619Y-39922404D02*
X155727619Y-39122404D01*
X155651428Y-39236690D01*
X155575238Y-39312880D01*
X155499047Y-39350976D01*
X156260952Y-39198595D02*
X156299047Y-39160500D01*
X156375238Y-39122404D01*
X156565714Y-39122404D01*
X156641904Y-39160500D01*
X156680000Y-39198595D01*
X156718095Y-39274785D01*
X156718095Y-39350976D01*
X156680000Y-39465261D01*
X156222857Y-39922404D01*
X156718095Y-39922404D01*
X156946666Y-39122404D02*
X157213333Y-39922404D01*
X157480000Y-39122404D01*
X158775238Y-39160500D02*
X158699047Y-39122404D01*
X158584761Y-39122404D01*
X158470476Y-39160500D01*
X158394285Y-39236690D01*
X158356190Y-39312880D01*
X158318095Y-39465261D01*
X158318095Y-39579547D01*
X158356190Y-39731928D01*
X158394285Y-39808119D01*
X158470476Y-39884309D01*
X158584761Y-39922404D01*
X158660952Y-39922404D01*
X158775238Y-39884309D01*
X158813333Y-39846214D01*
X158813333Y-39579547D01*
X158660952Y-39579547D01*
X159156190Y-39922404D02*
X159156190Y-39122404D01*
X159613333Y-39922404D01*
X159613333Y-39122404D01*
X159994285Y-39922404D02*
X159994285Y-39122404D01*
X160184761Y-39122404D01*
X160299047Y-39160500D01*
X160375238Y-39236690D01*
X160413333Y-39312880D01*
X160451428Y-39465261D01*
X160451428Y-39579547D01*
X160413333Y-39731928D01*
X160375238Y-39808119D01*
X160299047Y-39884309D01*
X160184761Y-39922404D01*
X159994285Y-39922404D01*
X114466619Y-37147595D02*
X114466619Y-37719023D01*
X113466619Y-37433309D02*
X114466619Y-37433309D01*
X114466619Y-37957119D02*
X113466619Y-38623785D01*
X114466619Y-38623785D02*
X113466619Y-37957119D01*
X113466619Y-42060833D02*
X113942809Y-41727500D01*
X113466619Y-41489404D02*
X114466619Y-41489404D01*
X114466619Y-41870357D01*
X114419000Y-41965595D01*
X114371380Y-42013214D01*
X114276142Y-42060833D01*
X114133285Y-42060833D01*
X114038047Y-42013214D01*
X113990428Y-41965595D01*
X113942809Y-41870357D01*
X113942809Y-41489404D01*
X114466619Y-42394166D02*
X113466619Y-43060833D01*
X114466619Y-43060833D02*
X113466619Y-42394166D01*
X113514238Y-33051833D02*
X113466619Y-33194690D01*
X113466619Y-33432785D01*
X113514238Y-33528023D01*
X113561857Y-33575642D01*
X113657095Y-33623261D01*
X113752333Y-33623261D01*
X113847571Y-33575642D01*
X113895190Y-33528023D01*
X113942809Y-33432785D01*
X113990428Y-33242309D01*
X114038047Y-33147071D01*
X114085666Y-33099452D01*
X114180904Y-33051833D01*
X114276142Y-33051833D01*
X114371380Y-33099452D01*
X114419000Y-33147071D01*
X114466619Y-33242309D01*
X114466619Y-33480404D01*
X114419000Y-33623261D01*
X114466619Y-33908976D02*
X114466619Y-34480404D01*
X113466619Y-34194690D02*
X114466619Y-34194690D01*
X150376238Y-32424642D02*
X150328619Y-32472261D01*
X150185761Y-32519880D01*
X150090523Y-32519880D01*
X149947666Y-32472261D01*
X149852428Y-32377023D01*
X149804809Y-32281785D01*
X149757190Y-32091309D01*
X149757190Y-31948452D01*
X149804809Y-31757976D01*
X149852428Y-31662738D01*
X149947666Y-31567500D01*
X150090523Y-31519880D01*
X150185761Y-31519880D01*
X150328619Y-31567500D01*
X150376238Y-31615119D01*
X151281000Y-32519880D02*
X150804809Y-32519880D01*
X150804809Y-31519880D01*
X151614333Y-32519880D02*
X151614333Y-31519880D01*
X152185761Y-32519880D02*
X151757190Y-31948452D01*
X152185761Y-31519880D02*
X151614333Y-32091309D01*
X152376238Y-32615119D02*
X153138142Y-32615119D01*
X153566714Y-31519880D02*
X153757190Y-31519880D01*
X153852428Y-31567500D01*
X153947666Y-31662738D01*
X153995285Y-31853214D01*
X153995285Y-32186547D01*
X153947666Y-32377023D01*
X153852428Y-32472261D01*
X153757190Y-32519880D01*
X153566714Y-32519880D01*
X153471476Y-32472261D01*
X153376238Y-32377023D01*
X153328619Y-32186547D01*
X153328619Y-31853214D01*
X153376238Y-31662738D01*
X153471476Y-31567500D01*
X153566714Y-31519880D01*
X154423857Y-31519880D02*
X154423857Y-32329404D01*
X154471476Y-32424642D01*
X154519095Y-32472261D01*
X154614333Y-32519880D01*
X154804809Y-32519880D01*
X154900047Y-32472261D01*
X154947666Y-32424642D01*
X154995285Y-32329404D01*
X154995285Y-31519880D01*
X155328619Y-31519880D02*
X155900047Y-31519880D01*
X155614333Y-32519880D02*
X155614333Y-31519880D01*
X125468000Y-61381023D02*
X125515619Y-61285785D01*
X125515619Y-61142928D01*
X125468000Y-61000071D01*
X125372761Y-60904833D01*
X125277523Y-60857214D01*
X125087047Y-60809595D01*
X124944190Y-60809595D01*
X124753714Y-60857214D01*
X124658476Y-60904833D01*
X124563238Y-61000071D01*
X124515619Y-61142928D01*
X124515619Y-61238166D01*
X124563238Y-61381023D01*
X124610857Y-61428642D01*
X124944190Y-61428642D01*
X124944190Y-61238166D01*
X124515619Y-61857214D02*
X125515619Y-61857214D01*
X124515619Y-62428642D01*
X125515619Y-62428642D01*
X124515619Y-62904833D02*
X125515619Y-62904833D01*
X125515619Y-63142928D01*
X125468000Y-63285785D01*
X125372761Y-63381023D01*
X125277523Y-63428642D01*
X125087047Y-63476261D01*
X124944190Y-63476261D01*
X124753714Y-63428642D01*
X124658476Y-63381023D01*
X124563238Y-63285785D01*
X124515619Y-63142928D01*
X124515619Y-62904833D01*
X124563238Y-64619119D02*
X124515619Y-64761976D01*
X124515619Y-65000071D01*
X124563238Y-65095309D01*
X124610857Y-65142928D01*
X124706095Y-65190547D01*
X124801333Y-65190547D01*
X124896571Y-65142928D01*
X124944190Y-65095309D01*
X124991809Y-65000071D01*
X125039428Y-64809595D01*
X125087047Y-64714357D01*
X125134666Y-64666738D01*
X125229904Y-64619119D01*
X125325142Y-64619119D01*
X125420380Y-64666738D01*
X125468000Y-64714357D01*
X125515619Y-64809595D01*
X125515619Y-65047690D01*
X125468000Y-65190547D01*
X125515619Y-65523880D02*
X124515619Y-65761976D01*
X125229904Y-65952452D01*
X124515619Y-66142928D01*
X125515619Y-66381023D01*
X124610857Y-67333404D02*
X124563238Y-67285785D01*
X124515619Y-67142928D01*
X124515619Y-67047690D01*
X124563238Y-66904833D01*
X124658476Y-66809595D01*
X124753714Y-66761976D01*
X124944190Y-66714357D01*
X125087047Y-66714357D01*
X125277523Y-66761976D01*
X125372761Y-66809595D01*
X125468000Y-66904833D01*
X125515619Y-67047690D01*
X125515619Y-67142928D01*
X125468000Y-67285785D01*
X125420380Y-67333404D01*
D11*
X166668571Y-35277357D02*
X166668571Y-34077357D01*
X167068571Y-34934500D01*
X167468571Y-34077357D01*
X167468571Y-35277357D01*
X168668571Y-35277357D02*
X167982857Y-35277357D01*
X168325714Y-35277357D02*
X168325714Y-34077357D01*
X168211428Y-34248785D01*
X168097142Y-34363071D01*
X167982857Y-34420214D01*
X166668571Y-37817357D02*
X166668571Y-36617357D01*
X167068571Y-37474500D01*
X167468571Y-36617357D01*
X167468571Y-37817357D01*
X168268571Y-36617357D02*
X168382857Y-36617357D01*
X168497142Y-36674500D01*
X168554285Y-36731642D01*
X168611428Y-36845928D01*
X168668571Y-37074500D01*
X168668571Y-37360214D01*
X168611428Y-37588785D01*
X168554285Y-37703071D01*
X168497142Y-37760214D01*
X168382857Y-37817357D01*
X168268571Y-37817357D01*
X168154285Y-37760214D01*
X168097142Y-37703071D01*
X168040000Y-37588785D01*
X167982857Y-37360214D01*
X167982857Y-37074500D01*
X168040000Y-36845928D01*
X168097142Y-36731642D01*
X168154285Y-36674500D01*
X168268571Y-36617357D01*
X167440000Y-40357357D02*
X167040000Y-39785928D01*
X166754285Y-40357357D02*
X166754285Y-39157357D01*
X167211428Y-39157357D01*
X167325714Y-39214500D01*
X167382857Y-39271642D01*
X167440000Y-39385928D01*
X167440000Y-39557357D01*
X167382857Y-39671642D01*
X167325714Y-39728785D01*
X167211428Y-39785928D01*
X166754285Y-39785928D01*
X167840000Y-39157357D02*
X168640000Y-40357357D01*
X168640000Y-39157357D02*
X167840000Y-40357357D01*
X166725714Y-41697357D02*
X167411428Y-41697357D01*
X167068571Y-42897357D02*
X167068571Y-41697357D01*
X167697142Y-41697357D02*
X168497142Y-42897357D01*
X168497142Y-41697357D02*
X167697142Y-42897357D01*
X166554285Y-45437357D02*
X166554285Y-44237357D01*
X167125714Y-45437357D02*
X167125714Y-44237357D01*
X167811428Y-45437357D01*
X167811428Y-44237357D01*
X168211428Y-44237357D02*
X168897142Y-44237357D01*
X168554285Y-45437357D02*
X168554285Y-44237357D01*
X166868571Y-47863071D02*
X166811428Y-47920214D01*
X166640000Y-47977357D01*
X166525714Y-47977357D01*
X166354285Y-47920214D01*
X166240000Y-47805928D01*
X166182857Y-47691642D01*
X166125714Y-47463071D01*
X166125714Y-47291642D01*
X166182857Y-47063071D01*
X166240000Y-46948785D01*
X166354285Y-46834500D01*
X166525714Y-46777357D01*
X166640000Y-46777357D01*
X166811428Y-46834500D01*
X166868571Y-46891642D01*
X167325714Y-47920214D02*
X167497142Y-47977357D01*
X167782857Y-47977357D01*
X167897142Y-47920214D01*
X167954285Y-47863071D01*
X168011428Y-47748785D01*
X168011428Y-47634500D01*
X167954285Y-47520214D01*
X167897142Y-47463071D01*
X167782857Y-47405928D01*
X167554285Y-47348785D01*
X167440000Y-47291642D01*
X167382857Y-47234500D01*
X167325714Y-47120214D01*
X167325714Y-47005928D01*
X167382857Y-46891642D01*
X167440000Y-46834500D01*
X167554285Y-46777357D01*
X167840000Y-46777357D01*
X168011428Y-46834500D01*
X169040000Y-47177357D02*
X169040000Y-47977357D01*
X168754285Y-46720214D02*
X168468571Y-47577357D01*
X169211428Y-47577357D01*
X166868571Y-50403071D02*
X166811428Y-50460214D01*
X166640000Y-50517357D01*
X166525714Y-50517357D01*
X166354285Y-50460214D01*
X166240000Y-50345928D01*
X166182857Y-50231642D01*
X166125714Y-50003071D01*
X166125714Y-49831642D01*
X166182857Y-49603071D01*
X166240000Y-49488785D01*
X166354285Y-49374500D01*
X166525714Y-49317357D01*
X166640000Y-49317357D01*
X166811428Y-49374500D01*
X166868571Y-49431642D01*
X167325714Y-50460214D02*
X167497142Y-50517357D01*
X167782857Y-50517357D01*
X167897142Y-50460214D01*
X167954285Y-50403071D01*
X168011428Y-50288785D01*
X168011428Y-50174500D01*
X167954285Y-50060214D01*
X167897142Y-50003071D01*
X167782857Y-49945928D01*
X167554285Y-49888785D01*
X167440000Y-49831642D01*
X167382857Y-49774500D01*
X167325714Y-49660214D01*
X167325714Y-49545928D01*
X167382857Y-49431642D01*
X167440000Y-49374500D01*
X167554285Y-49317357D01*
X167840000Y-49317357D01*
X168011428Y-49374500D01*
X168411428Y-49317357D02*
X169154285Y-49317357D01*
X168754285Y-49774500D01*
X168925714Y-49774500D01*
X169040000Y-49831642D01*
X169097142Y-49888785D01*
X169154285Y-50003071D01*
X169154285Y-50288785D01*
X169097142Y-50403071D01*
X169040000Y-50460214D01*
X168925714Y-50517357D01*
X168582857Y-50517357D01*
X168468571Y-50460214D01*
X168411428Y-50403071D01*
X166868571Y-52943071D02*
X166811428Y-53000214D01*
X166640000Y-53057357D01*
X166525714Y-53057357D01*
X166354285Y-53000214D01*
X166240000Y-52885928D01*
X166182857Y-52771642D01*
X166125714Y-52543071D01*
X166125714Y-52371642D01*
X166182857Y-52143071D01*
X166240000Y-52028785D01*
X166354285Y-51914500D01*
X166525714Y-51857357D01*
X166640000Y-51857357D01*
X166811428Y-51914500D01*
X166868571Y-51971642D01*
X167325714Y-53000214D02*
X167497142Y-53057357D01*
X167782857Y-53057357D01*
X167897142Y-53000214D01*
X167954285Y-52943071D01*
X168011428Y-52828785D01*
X168011428Y-52714500D01*
X167954285Y-52600214D01*
X167897142Y-52543071D01*
X167782857Y-52485928D01*
X167554285Y-52428785D01*
X167440000Y-52371642D01*
X167382857Y-52314500D01*
X167325714Y-52200214D01*
X167325714Y-52085928D01*
X167382857Y-51971642D01*
X167440000Y-51914500D01*
X167554285Y-51857357D01*
X167840000Y-51857357D01*
X168011428Y-51914500D01*
X168468571Y-51971642D02*
X168525714Y-51914500D01*
X168640000Y-51857357D01*
X168925714Y-51857357D01*
X169040000Y-51914500D01*
X169097142Y-51971642D01*
X169154285Y-52085928D01*
X169154285Y-52200214D01*
X169097142Y-52371642D01*
X168411428Y-53057357D01*
X169154285Y-53057357D01*
X166868571Y-55483071D02*
X166811428Y-55540214D01*
X166640000Y-55597357D01*
X166525714Y-55597357D01*
X166354285Y-55540214D01*
X166240000Y-55425928D01*
X166182857Y-55311642D01*
X166125714Y-55083071D01*
X166125714Y-54911642D01*
X166182857Y-54683071D01*
X166240000Y-54568785D01*
X166354285Y-54454500D01*
X166525714Y-54397357D01*
X166640000Y-54397357D01*
X166811428Y-54454500D01*
X166868571Y-54511642D01*
X167325714Y-55540214D02*
X167497142Y-55597357D01*
X167782857Y-55597357D01*
X167897142Y-55540214D01*
X167954285Y-55483071D01*
X168011428Y-55368785D01*
X168011428Y-55254500D01*
X167954285Y-55140214D01*
X167897142Y-55083071D01*
X167782857Y-55025928D01*
X167554285Y-54968785D01*
X167440000Y-54911642D01*
X167382857Y-54854500D01*
X167325714Y-54740214D01*
X167325714Y-54625928D01*
X167382857Y-54511642D01*
X167440000Y-54454500D01*
X167554285Y-54397357D01*
X167840000Y-54397357D01*
X168011428Y-54454500D01*
X169154285Y-55597357D02*
X168468571Y-55597357D01*
X168811428Y-55597357D02*
X168811428Y-54397357D01*
X168697142Y-54568785D01*
X168582857Y-54683071D01*
X168468571Y-54740214D01*
X166008285Y-58137357D02*
X166008285Y-56937357D01*
X166408285Y-57794500D01*
X166808285Y-56937357D01*
X166808285Y-58137357D01*
X167379714Y-58137357D02*
X167379714Y-56937357D01*
X167894000Y-58080214D02*
X168065428Y-58137357D01*
X168351142Y-58137357D01*
X168465428Y-58080214D01*
X168522571Y-58023071D01*
X168579714Y-57908785D01*
X168579714Y-57794500D01*
X168522571Y-57680214D01*
X168465428Y-57623071D01*
X168351142Y-57565928D01*
X168122571Y-57508785D01*
X168008285Y-57451642D01*
X167951142Y-57394500D01*
X167894000Y-57280214D01*
X167894000Y-57165928D01*
X167951142Y-57051642D01*
X168008285Y-56994500D01*
X168122571Y-56937357D01*
X168408285Y-56937357D01*
X168579714Y-56994500D01*
X169322571Y-56937357D02*
X169551142Y-56937357D01*
X169665428Y-56994500D01*
X169779714Y-57108785D01*
X169836857Y-57337357D01*
X169836857Y-57737357D01*
X169779714Y-57965928D01*
X169665428Y-58080214D01*
X169551142Y-58137357D01*
X169322571Y-58137357D01*
X169208285Y-58080214D01*
X169094000Y-57965928D01*
X169036857Y-57737357D01*
X169036857Y-57337357D01*
X169094000Y-57108785D01*
X169208285Y-56994500D01*
X169322571Y-56937357D01*
X166008285Y-60677357D02*
X166008285Y-59477357D01*
X166408285Y-60334500D01*
X166808285Y-59477357D01*
X166808285Y-60677357D01*
X167608285Y-59477357D02*
X167836857Y-59477357D01*
X167951142Y-59534500D01*
X168065428Y-59648785D01*
X168122571Y-59877357D01*
X168122571Y-60277357D01*
X168065428Y-60505928D01*
X167951142Y-60620214D01*
X167836857Y-60677357D01*
X167608285Y-60677357D01*
X167494000Y-60620214D01*
X167379714Y-60505928D01*
X167322571Y-60277357D01*
X167322571Y-59877357D01*
X167379714Y-59648785D01*
X167494000Y-59534500D01*
X167608285Y-59477357D01*
X168579714Y-60620214D02*
X168751142Y-60677357D01*
X169036857Y-60677357D01*
X169151142Y-60620214D01*
X169208285Y-60563071D01*
X169265428Y-60448785D01*
X169265428Y-60334500D01*
X169208285Y-60220214D01*
X169151142Y-60163071D01*
X169036857Y-60105928D01*
X168808285Y-60048785D01*
X168694000Y-59991642D01*
X168636857Y-59934500D01*
X168579714Y-59820214D01*
X168579714Y-59705928D01*
X168636857Y-59591642D01*
X168694000Y-59534500D01*
X168808285Y-59477357D01*
X169094000Y-59477357D01*
X169265428Y-59534500D01*
X169779714Y-60677357D02*
X169779714Y-59477357D01*
X166925714Y-63103071D02*
X166868571Y-63160214D01*
X166697142Y-63217357D01*
X166582857Y-63217357D01*
X166411428Y-63160214D01*
X166297142Y-63045928D01*
X166240000Y-62931642D01*
X166182857Y-62703071D01*
X166182857Y-62531642D01*
X166240000Y-62303071D01*
X166297142Y-62188785D01*
X166411428Y-62074500D01*
X166582857Y-62017357D01*
X166697142Y-62017357D01*
X166868571Y-62074500D01*
X166925714Y-62131642D01*
X168011428Y-63217357D02*
X167440000Y-63217357D01*
X167440000Y-62017357D01*
X168411428Y-63217357D02*
X168411428Y-62017357D01*
X169097142Y-63217357D02*
X168582857Y-62531642D01*
X169097142Y-62017357D02*
X168411428Y-62703071D01*
X166725714Y-64487500D02*
X166611428Y-64430357D01*
X166440000Y-64430357D01*
X166268571Y-64487500D01*
X166154285Y-64601785D01*
X166097142Y-64716071D01*
X166040000Y-64944642D01*
X166040000Y-65116071D01*
X166097142Y-65344642D01*
X166154285Y-65458928D01*
X166268571Y-65573214D01*
X166440000Y-65630357D01*
X166554285Y-65630357D01*
X166725714Y-65573214D01*
X166782857Y-65516071D01*
X166782857Y-65116071D01*
X166554285Y-65116071D01*
X167297142Y-65630357D02*
X167297142Y-64430357D01*
X167982857Y-65630357D01*
X167982857Y-64430357D01*
X168554285Y-65630357D02*
X168554285Y-64430357D01*
X168840000Y-64430357D01*
X169011428Y-64487500D01*
X169125714Y-64601785D01*
X169182857Y-64716071D01*
X169240000Y-64944642D01*
X169240000Y-65116071D01*
X169182857Y-65344642D01*
X169125714Y-65458928D01*
X169011428Y-65573214D01*
X168840000Y-65630357D01*
X168554285Y-65630357D01*
X113379333Y-45413678D02*
X113417428Y-45370821D01*
X113531714Y-45289869D01*
X113607904Y-45251773D01*
X113722190Y-45218440D01*
X113912666Y-45194630D01*
X114065047Y-45213678D01*
X114255523Y-45285107D01*
X114369809Y-45347011D01*
X114446000Y-45404154D01*
X114560285Y-45513678D01*
X114598380Y-45566059D01*
X113722190Y-46266059D02*
X113684095Y-46166059D01*
X113684095Y-45975583D01*
X113722190Y-45885107D01*
X113760285Y-45842249D01*
X113836476Y-45804154D01*
X114065047Y-45832726D01*
X114141238Y-45889869D01*
X114179333Y-45942249D01*
X114217428Y-46042249D01*
X114217428Y-46232726D01*
X114179333Y-46323202D01*
X113379333Y-46556535D02*
X113417428Y-46608916D01*
X113531714Y-46718440D01*
X113607904Y-46775583D01*
X113722190Y-46837488D01*
X113912666Y-46908916D01*
X114065047Y-46927964D01*
X114255523Y-46904154D01*
X114369809Y-46870821D01*
X114446000Y-46832726D01*
X114560285Y-46751773D01*
X114598380Y-46708916D01*
X113684095Y-48118440D02*
X114484095Y-48218440D01*
X113912666Y-48480345D01*
X114484095Y-48885107D01*
X113684095Y-48785107D01*
X113684095Y-49689869D02*
X114103142Y-49742250D01*
X114179333Y-49704154D01*
X114217428Y-49613678D01*
X114217428Y-49423202D01*
X114179333Y-49323202D01*
X113722190Y-49694630D02*
X113684095Y-49594630D01*
X113684095Y-49356535D01*
X113722190Y-49266059D01*
X113798380Y-49227964D01*
X113874571Y-49237488D01*
X113950761Y-49294630D01*
X113988857Y-49394630D01*
X113988857Y-49632726D01*
X114026952Y-49732726D01*
X113684095Y-50166059D02*
X114217428Y-50232726D01*
X114065047Y-50213678D02*
X114141238Y-50270821D01*
X114179333Y-50323202D01*
X114217428Y-50423202D01*
X114217428Y-50518440D01*
X113684095Y-50785107D02*
X114484095Y-50885107D01*
X113988857Y-50918440D02*
X113684095Y-51166059D01*
X114217428Y-51232726D02*
X113912666Y-50813678D01*
X113684095Y-51737488D02*
X113722190Y-51647011D01*
X113760285Y-51604154D01*
X113836476Y-51566059D01*
X114065047Y-51594630D01*
X114141238Y-51651773D01*
X114179333Y-51704154D01*
X114217428Y-51804154D01*
X114217428Y-51947011D01*
X114179333Y-52037488D01*
X114141238Y-52080345D01*
X114065047Y-52118440D01*
X113836476Y-52089869D01*
X113760285Y-52032726D01*
X113722190Y-51980345D01*
X113684095Y-51880345D01*
X113684095Y-51737488D01*
X114484095Y-53647011D02*
X113912666Y-53575583D01*
X113798380Y-53513678D01*
X113722190Y-53408916D01*
X113684095Y-53261297D01*
X113684095Y-53166059D01*
X114217428Y-54518440D02*
X113684095Y-54451773D01*
X114217428Y-54089869D02*
X113798380Y-54037488D01*
X113722190Y-54075583D01*
X113684095Y-54166059D01*
X113684095Y-54308916D01*
X113722190Y-54408916D01*
X113760285Y-54461297D01*
X113684095Y-54927964D02*
X114484095Y-55027964D01*
X113684095Y-55356535D02*
X114103142Y-55408916D01*
X114179333Y-55370821D01*
X114217428Y-55280345D01*
X114217428Y-55137488D01*
X114179333Y-55037488D01*
X114141238Y-54985107D01*
X113684095Y-56261297D02*
X114103142Y-56313678D01*
X114179333Y-56275583D01*
X114217428Y-56185107D01*
X114217428Y-55994630D01*
X114179333Y-55894630D01*
X113722190Y-56266059D02*
X113684095Y-56166059D01*
X113684095Y-55927964D01*
X113722190Y-55837488D01*
X113798380Y-55799392D01*
X113874571Y-55808916D01*
X113950761Y-55866059D01*
X113988857Y-55966059D01*
X113988857Y-56204154D01*
X114026952Y-56304154D01*
X114217428Y-56804154D02*
X113684095Y-56737488D01*
X114141238Y-56794630D02*
X114179333Y-56847011D01*
X114217428Y-56947011D01*
X114217428Y-57089869D01*
X114179333Y-57180345D01*
X114103142Y-57218440D01*
X113684095Y-57166059D01*
X114217428Y-57708916D02*
X113684095Y-57642250D01*
X114141238Y-57699392D02*
X114179333Y-57751773D01*
X114217428Y-57851773D01*
X114217428Y-57994630D01*
X114179333Y-58085107D01*
X114103142Y-58123202D01*
X113684095Y-58070821D01*
X113722190Y-58932726D02*
X113684095Y-58832726D01*
X113684095Y-58642250D01*
X113722190Y-58551773D01*
X113798380Y-58513678D01*
X114103142Y-58551773D01*
X114179333Y-58608916D01*
X114217428Y-58708916D01*
X114217428Y-58899392D01*
X114179333Y-58989869D01*
X114103142Y-59027964D01*
X114026952Y-59018440D01*
X113950761Y-58532726D01*
X115970095Y-45315404D02*
X116503428Y-45315404D01*
X116351047Y-45315404D02*
X116427238Y-45363023D01*
X116465333Y-45410642D01*
X116503428Y-45505880D01*
X116503428Y-45601119D01*
X116008190Y-46315404D02*
X115970095Y-46220166D01*
X115970095Y-46029690D01*
X116008190Y-45934452D01*
X116084380Y-45886833D01*
X116389142Y-45886833D01*
X116465333Y-45934452D01*
X116503428Y-46029690D01*
X116503428Y-46220166D01*
X116465333Y-46315404D01*
X116389142Y-46363023D01*
X116312952Y-46363023D01*
X116236761Y-45886833D01*
X116503428Y-46696357D02*
X115970095Y-46934452D01*
X116503428Y-47172547D01*
X115970095Y-48839214D02*
X115970095Y-48267785D01*
X115970095Y-48553500D02*
X116770095Y-48553500D01*
X116655809Y-48458261D01*
X116579619Y-48363023D01*
X116541523Y-48267785D01*
X118281428Y-45355595D02*
X117481428Y-45355595D01*
X118243333Y-45355595D02*
X118281428Y-45450833D01*
X118281428Y-45641309D01*
X118243333Y-45736547D01*
X118205238Y-45784166D01*
X118129047Y-45831785D01*
X117900476Y-45831785D01*
X117824285Y-45784166D01*
X117786190Y-45736547D01*
X117748095Y-45641309D01*
X117748095Y-45450833D01*
X117786190Y-45355595D01*
X117748095Y-46260357D02*
X118281428Y-46260357D01*
X118129047Y-46260357D02*
X118205238Y-46307976D01*
X118243333Y-46355595D01*
X118281428Y-46450833D01*
X118281428Y-46546071D01*
X117748095Y-47022261D02*
X117786190Y-46927023D01*
X117824285Y-46879404D01*
X117900476Y-46831785D01*
X118129047Y-46831785D01*
X118205238Y-46879404D01*
X118243333Y-46927023D01*
X118281428Y-47022261D01*
X118281428Y-47165119D01*
X118243333Y-47260357D01*
X118205238Y-47307976D01*
X118129047Y-47355595D01*
X117900476Y-47355595D01*
X117824285Y-47307976D01*
X117786190Y-47260357D01*
X117748095Y-47165119D01*
X117748095Y-47022261D01*
X118281428Y-47641309D02*
X118281428Y-48022261D01*
X118548095Y-47784166D02*
X117862380Y-47784166D01*
X117786190Y-47831785D01*
X117748095Y-47927023D01*
X117748095Y-48022261D01*
X117748095Y-48498452D02*
X117786190Y-48403214D01*
X117824285Y-48355595D01*
X117900476Y-48307976D01*
X118129047Y-48307976D01*
X118205238Y-48355595D01*
X118243333Y-48403214D01*
X118281428Y-48498452D01*
X118281428Y-48641309D01*
X118243333Y-48736547D01*
X118205238Y-48784166D01*
X118129047Y-48831785D01*
X117900476Y-48831785D01*
X117824285Y-48784166D01*
X117786190Y-48736547D01*
X117748095Y-48641309D01*
X117748095Y-48498452D01*
X118281428Y-49117500D02*
X118281428Y-49498452D01*
X118548095Y-49260357D02*
X117862380Y-49260357D01*
X117786190Y-49307976D01*
X117748095Y-49403214D01*
X117748095Y-49498452D01*
X118281428Y-49736547D02*
X117748095Y-49974642D01*
X118281428Y-50212738D02*
X117748095Y-49974642D01*
X117557619Y-49879404D01*
X117519523Y-49831785D01*
X117481428Y-49736547D01*
X118281428Y-50593690D02*
X117481428Y-50593690D01*
X118243333Y-50593690D02*
X118281428Y-50688928D01*
X118281428Y-50879404D01*
X118243333Y-50974642D01*
X118205238Y-51022261D01*
X118129047Y-51069880D01*
X117900476Y-51069880D01*
X117824285Y-51022261D01*
X117786190Y-50974642D01*
X117748095Y-50879404D01*
X117748095Y-50688928D01*
X117786190Y-50593690D01*
X117786190Y-51879404D02*
X117748095Y-51784166D01*
X117748095Y-51593690D01*
X117786190Y-51498452D01*
X117862380Y-51450833D01*
X118167142Y-51450833D01*
X118243333Y-51498452D01*
X118281428Y-51593690D01*
X118281428Y-51784166D01*
X118243333Y-51879404D01*
X118167142Y-51927023D01*
X118090952Y-51927023D01*
X118014761Y-51450833D01*
X117748095Y-53117500D02*
X118548095Y-53117500D01*
X118243333Y-53117500D02*
X118281428Y-53212738D01*
X118281428Y-53403214D01*
X118243333Y-53498452D01*
X118205238Y-53546071D01*
X118129047Y-53593690D01*
X117900476Y-53593690D01*
X117824285Y-53546071D01*
X117786190Y-53498452D01*
X117748095Y-53403214D01*
X117748095Y-53212738D01*
X117786190Y-53117500D01*
X117748095Y-54165119D02*
X117786190Y-54069880D01*
X117824285Y-54022261D01*
X117900476Y-53974642D01*
X118129047Y-53974642D01*
X118205238Y-54022261D01*
X118243333Y-54069880D01*
X118281428Y-54165119D01*
X118281428Y-54307976D01*
X118243333Y-54403214D01*
X118205238Y-54450833D01*
X118129047Y-54498452D01*
X117900476Y-54498452D01*
X117824285Y-54450833D01*
X117786190Y-54403214D01*
X117748095Y-54307976D01*
X117748095Y-54165119D01*
X117748095Y-55355595D02*
X118167142Y-55355595D01*
X118243333Y-55307976D01*
X118281428Y-55212738D01*
X118281428Y-55022261D01*
X118243333Y-54927023D01*
X117786190Y-55355595D02*
X117748095Y-55260357D01*
X117748095Y-55022261D01*
X117786190Y-54927023D01*
X117862380Y-54879404D01*
X117938571Y-54879404D01*
X118014761Y-54927023D01*
X118052857Y-55022261D01*
X118052857Y-55260357D01*
X118090952Y-55355595D01*
X117748095Y-55831785D02*
X118281428Y-55831785D01*
X118129047Y-55831785D02*
X118205238Y-55879404D01*
X118243333Y-55927023D01*
X118281428Y-56022261D01*
X118281428Y-56117500D01*
X117748095Y-56879404D02*
X118548095Y-56879404D01*
X117786190Y-56879404D02*
X117748095Y-56784166D01*
X117748095Y-56593690D01*
X117786190Y-56498452D01*
X117824285Y-56450833D01*
X117900476Y-56403214D01*
X118129047Y-56403214D01*
X118205238Y-56450833D01*
X118243333Y-56498452D01*
X118281428Y-56593690D01*
X118281428Y-56784166D01*
X118243333Y-56879404D01*
D12*
X120926142Y-45517690D02*
X120926142Y-45822452D01*
X120869000Y-45974833D01*
X120754714Y-46127214D01*
X120526142Y-46203404D01*
X120126142Y-46203404D01*
X119897571Y-46127214D01*
X119783285Y-45974833D01*
X119726142Y-45822452D01*
X119726142Y-45517690D01*
X119783285Y-45365309D01*
X119897571Y-45212928D01*
X120126142Y-45136738D01*
X120526142Y-45136738D01*
X120754714Y-45212928D01*
X120869000Y-45365309D01*
X120926142Y-45517690D01*
X120926142Y-46660547D02*
X119726142Y-47193880D01*
X120926142Y-47727214D01*
X119726142Y-48260547D02*
X120926142Y-48260547D01*
X120069000Y-48793880D01*
X120926142Y-49327214D01*
X119726142Y-49327214D01*
X119783285Y-50012928D02*
X119726142Y-50241500D01*
X119726142Y-50622452D01*
X119783285Y-50774833D01*
X119840428Y-50851023D01*
X119954714Y-50927214D01*
X120069000Y-50927214D01*
X120183285Y-50851023D01*
X120240428Y-50774833D01*
X120297571Y-50622452D01*
X120354714Y-50317690D01*
X120411857Y-50165309D01*
X120469000Y-50089119D01*
X120583285Y-50012928D01*
X120697571Y-50012928D01*
X120811857Y-50089119D01*
X120869000Y-50165309D01*
X120926142Y-50317690D01*
X120926142Y-50698642D01*
X120869000Y-50927214D01*
X119783285Y-52755785D02*
X119726142Y-52984357D01*
X119726142Y-53365309D01*
X119783285Y-53517690D01*
X119840428Y-53593880D01*
X119954714Y-53670071D01*
X120069000Y-53670071D01*
X120183285Y-53593880D01*
X120240428Y-53517690D01*
X120297571Y-53365309D01*
X120354714Y-53060547D01*
X120411857Y-52908166D01*
X120469000Y-52831976D01*
X120583285Y-52755785D01*
X120697571Y-52755785D01*
X120811857Y-52831976D01*
X120869000Y-52908166D01*
X120926142Y-53060547D01*
X120926142Y-53441500D01*
X120869000Y-53670071D01*
X120926142Y-54203404D02*
X119726142Y-54584357D01*
X120583285Y-54889119D01*
X119726142Y-55193880D01*
X120926142Y-55574833D01*
X119840428Y-57098642D02*
X119783285Y-57022452D01*
X119726142Y-56793880D01*
X119726142Y-56641500D01*
X119783285Y-56412928D01*
X119897571Y-56260547D01*
X120011857Y-56184357D01*
X120240428Y-56108166D01*
X120411857Y-56108166D01*
X120640428Y-56184357D01*
X120754714Y-56260547D01*
X120869000Y-56412928D01*
X120926142Y-56641500D01*
X120926142Y-56793880D01*
X120869000Y-57022452D01*
X120811857Y-57098642D01*
X120069000Y-57708166D02*
X120069000Y-58470071D01*
X119726142Y-57555785D02*
X120926142Y-58089119D01*
X119726142Y-58622452D01*
X119726142Y-59155785D02*
X120926142Y-59155785D01*
X119726142Y-60070071D01*
X120926142Y-60070071D01*
D10*
X192995704Y-32505700D02*
X192919514Y-32467604D01*
X192805228Y-32467604D01*
X192690942Y-32505700D01*
X192614752Y-32581890D01*
X192576657Y-32658080D01*
X192538561Y-32810461D01*
X192538561Y-32924747D01*
X192576657Y-33077128D01*
X192614752Y-33153319D01*
X192690942Y-33229509D01*
X192805228Y-33267604D01*
X192881419Y-33267604D01*
X192995704Y-33229509D01*
X193033800Y-33191414D01*
X193033800Y-32924747D01*
X192881419Y-32924747D01*
X193376657Y-32848557D02*
X193643323Y-32848557D01*
X193757609Y-33267604D02*
X193376657Y-33267604D01*
X193376657Y-32467604D01*
X193757609Y-32467604D01*
X194100466Y-33267604D02*
X194100466Y-32467604D01*
X194405228Y-32467604D01*
X194481419Y-32505700D01*
X194519514Y-32543795D01*
X194557609Y-32619985D01*
X194557609Y-32734271D01*
X194519514Y-32810461D01*
X194481419Y-32848557D01*
X194405228Y-32886652D01*
X194100466Y-32886652D01*
X194709990Y-33343795D02*
X195319514Y-33343795D01*
X195471895Y-32543795D02*
X195509990Y-32505700D01*
X195586180Y-32467604D01*
X195776657Y-32467604D01*
X195852847Y-32505700D01*
X195890942Y-32543795D01*
X195929038Y-32619985D01*
X195929038Y-32696176D01*
X195890942Y-32810461D01*
X195433800Y-33267604D01*
X195929038Y-33267604D01*
X189954104Y-28860757D02*
X190220771Y-28860757D01*
X190335057Y-29279804D02*
X189954104Y-29279804D01*
X189954104Y-28479804D01*
X190335057Y-28479804D01*
X190601723Y-28479804D02*
X191135057Y-29279804D01*
X191135057Y-28479804D02*
X190601723Y-29279804D01*
X191439819Y-29279804D02*
X191439819Y-28479804D01*
X191744580Y-28479804D01*
X191820771Y-28517900D01*
X191858866Y-28555995D01*
X191896961Y-28632185D01*
X191896961Y-28746471D01*
X191858866Y-28822661D01*
X191820771Y-28860757D01*
X191744580Y-28898852D01*
X191439819Y-28898852D01*
X192049342Y-29355995D02*
X192658866Y-29355995D01*
X192811247Y-28555995D02*
X192849342Y-28517900D01*
X192925533Y-28479804D01*
X193116009Y-28479804D01*
X193192200Y-28517900D01*
X193230295Y-28555995D01*
X193268390Y-28632185D01*
X193268390Y-28708376D01*
X193230295Y-28822661D01*
X192773152Y-29279804D01*
X193268390Y-29279804D01*
X194826000Y-70878604D02*
X194778380Y-70973842D01*
X194778380Y-71116700D01*
X194826000Y-71259557D01*
X194921238Y-71354795D01*
X195016476Y-71402414D01*
X195206952Y-71450033D01*
X195349809Y-71450033D01*
X195540285Y-71402414D01*
X195635523Y-71354795D01*
X195730761Y-71259557D01*
X195778380Y-71116700D01*
X195778380Y-71021461D01*
X195730761Y-70878604D01*
X195683142Y-70830985D01*
X195349809Y-70830985D01*
X195349809Y-71021461D01*
X195778380Y-70402414D02*
X194778380Y-70402414D01*
X195778380Y-69830985D01*
X194778380Y-69830985D01*
X195778380Y-69354795D02*
X194778380Y-69354795D01*
X194778380Y-69116700D01*
X194826000Y-68973842D01*
X194921238Y-68878604D01*
X195016476Y-68830985D01*
X195206952Y-68783366D01*
X195349809Y-68783366D01*
X195540285Y-68830985D01*
X195635523Y-68878604D01*
X195730761Y-68973842D01*
X195778380Y-69116700D01*
X195778380Y-69354795D01*
X188879171Y-71534138D02*
X188879171Y-71200804D01*
X189402980Y-71057947D02*
X189402980Y-71534138D01*
X188402980Y-71534138D01*
X188402980Y-71057947D01*
X189402980Y-70105566D02*
X189402980Y-70676995D01*
X189402980Y-70391280D02*
X188402980Y-70391280D01*
X188545838Y-70486519D01*
X188641076Y-70581757D01*
X188688695Y-70676995D01*
X188498219Y-69724614D02*
X188450600Y-69676995D01*
X188402980Y-69581757D01*
X188402980Y-69343661D01*
X188450600Y-69248423D01*
X188498219Y-69200804D01*
X188593457Y-69153185D01*
X188688695Y-69153185D01*
X188831552Y-69200804D01*
X189402980Y-69772233D01*
X189402980Y-69153185D01*
X188402980Y-68867471D02*
X189402980Y-68534138D01*
X188402980Y-68200804D01*
X172980309Y-42932214D02*
X173018404Y-42817928D01*
X173018404Y-42627452D01*
X172980309Y-42551261D01*
X172942214Y-42513166D01*
X172866023Y-42475071D01*
X172789833Y-42475071D01*
X172713642Y-42513166D01*
X172675547Y-42551261D01*
X172637452Y-42627452D01*
X172599357Y-42779833D01*
X172561261Y-42856023D01*
X172523166Y-42894119D01*
X172446976Y-42932214D01*
X172370785Y-42932214D01*
X172294595Y-42894119D01*
X172256500Y-42856023D01*
X172218404Y-42779833D01*
X172218404Y-42589357D01*
X172256500Y-42475071D01*
X172218404Y-42208404D02*
X173018404Y-42017928D01*
X172446976Y-41865547D01*
X173018404Y-41713166D01*
X172218404Y-41522690D01*
X172942214Y-40760785D02*
X172980309Y-40798880D01*
X173018404Y-40913166D01*
X173018404Y-40989357D01*
X172980309Y-41103642D01*
X172904119Y-41179833D01*
X172827928Y-41217928D01*
X172675547Y-41256023D01*
X172561261Y-41256023D01*
X172408880Y-41217928D01*
X172332690Y-41179833D01*
X172256500Y-41103642D01*
X172218404Y-40989357D01*
X172218404Y-40913166D01*
X172256500Y-40798880D01*
X172294595Y-40760785D01*
X172256500Y-45123023D02*
X172218404Y-45199214D01*
X172218404Y-45313500D01*
X172256500Y-45427785D01*
X172332690Y-45503976D01*
X172408880Y-45542071D01*
X172561261Y-45580166D01*
X172675547Y-45580166D01*
X172827928Y-45542071D01*
X172904119Y-45503976D01*
X172980309Y-45427785D01*
X173018404Y-45313500D01*
X173018404Y-45237309D01*
X172980309Y-45123023D01*
X172942214Y-45084928D01*
X172675547Y-45084928D01*
X172675547Y-45237309D01*
X173018404Y-44742071D02*
X172218404Y-44742071D01*
X173018404Y-44284928D01*
X172218404Y-44284928D01*
X173018404Y-43903976D02*
X172218404Y-43903976D01*
X172218404Y-43713500D01*
X172256500Y-43599214D01*
X172332690Y-43523023D01*
X172408880Y-43484928D01*
X172561261Y-43446833D01*
X172675547Y-43446833D01*
X172827928Y-43484928D01*
X172904119Y-43523023D01*
X172980309Y-43599214D01*
X173018404Y-43713500D01*
X173018404Y-43903976D01*
X180181047Y-47021785D02*
X180219142Y-46983690D01*
X180333428Y-46945595D01*
X180409619Y-46945595D01*
X180523904Y-46983690D01*
X180600095Y-47059880D01*
X180638190Y-47136071D01*
X180676285Y-47288452D01*
X180676285Y-47402738D01*
X180638190Y-47555119D01*
X180600095Y-47631309D01*
X180523904Y-47707500D01*
X180409619Y-47745595D01*
X180333428Y-47745595D01*
X180219142Y-47707500D01*
X180181047Y-47669404D01*
X179876285Y-47174166D02*
X179495333Y-47174166D01*
X179952476Y-46945595D02*
X179685809Y-47745595D01*
X179419142Y-46945595D01*
X179152476Y-46945595D02*
X179152476Y-47745595D01*
X178695333Y-46945595D01*
X178695333Y-47745595D01*
X178352476Y-47669404D02*
X178314380Y-47707500D01*
X178238190Y-47745595D01*
X178047714Y-47745595D01*
X177971523Y-47707500D01*
X177933428Y-47669404D01*
X177895333Y-47593214D01*
X177895333Y-47517023D01*
X177933428Y-47402738D01*
X178390571Y-46945595D01*
X177895333Y-46945595D01*
X177742952Y-46869404D02*
X177133428Y-46869404D01*
X176942952Y-46945595D02*
X176942952Y-47745595D01*
X176942952Y-47364642D02*
X176485809Y-47364642D01*
X176485809Y-46945595D02*
X176485809Y-47745595D01*
X180085809Y-49561785D02*
X180123904Y-49523690D01*
X180238190Y-49485595D01*
X180314380Y-49485595D01*
X180428666Y-49523690D01*
X180504857Y-49599880D01*
X180542952Y-49676071D01*
X180581047Y-49828452D01*
X180581047Y-49942738D01*
X180542952Y-50095119D01*
X180504857Y-50171309D01*
X180428666Y-50247500D01*
X180314380Y-50285595D01*
X180238190Y-50285595D01*
X180123904Y-50247500D01*
X180085809Y-50209404D01*
X179781047Y-49714166D02*
X179400095Y-49714166D01*
X179857238Y-49485595D02*
X179590571Y-50285595D01*
X179323904Y-49485595D01*
X179057238Y-49485595D02*
X179057238Y-50285595D01*
X178600095Y-49485595D01*
X178600095Y-50285595D01*
X178257238Y-50209404D02*
X178219142Y-50247500D01*
X178142952Y-50285595D01*
X177952476Y-50285595D01*
X177876285Y-50247500D01*
X177838190Y-50209404D01*
X177800095Y-50133214D01*
X177800095Y-50057023D01*
X177838190Y-49942738D01*
X178295333Y-49485595D01*
X177800095Y-49485595D01*
X177647714Y-49409404D02*
X177038190Y-49409404D01*
X176466761Y-49485595D02*
X176847714Y-49485595D01*
X176847714Y-50285595D01*
X180181047Y-52101785D02*
X180219142Y-52063690D01*
X180333428Y-52025595D01*
X180409619Y-52025595D01*
X180523904Y-52063690D01*
X180600095Y-52139880D01*
X180638190Y-52216071D01*
X180676285Y-52368452D01*
X180676285Y-52482738D01*
X180638190Y-52635119D01*
X180600095Y-52711309D01*
X180523904Y-52787500D01*
X180409619Y-52825595D01*
X180333428Y-52825595D01*
X180219142Y-52787500D01*
X180181047Y-52749404D01*
X179876285Y-52254166D02*
X179495333Y-52254166D01*
X179952476Y-52025595D02*
X179685809Y-52825595D01*
X179419142Y-52025595D01*
X179152476Y-52025595D02*
X179152476Y-52825595D01*
X178695333Y-52025595D01*
X178695333Y-52825595D01*
X177895333Y-52025595D02*
X178352476Y-52025595D01*
X178123904Y-52025595D02*
X178123904Y-52825595D01*
X178200095Y-52711309D01*
X178276285Y-52635119D01*
X178352476Y-52597023D01*
X177742952Y-51949404D02*
X177133428Y-51949404D01*
X176942952Y-52025595D02*
X176942952Y-52825595D01*
X176942952Y-52444642D02*
X176485809Y-52444642D01*
X176485809Y-52025595D02*
X176485809Y-52825595D01*
X180085809Y-54590985D02*
X180123904Y-54552890D01*
X180238190Y-54514795D01*
X180314380Y-54514795D01*
X180428666Y-54552890D01*
X180504857Y-54629080D01*
X180542952Y-54705271D01*
X180581047Y-54857652D01*
X180581047Y-54971938D01*
X180542952Y-55124319D01*
X180504857Y-55200509D01*
X180428666Y-55276700D01*
X180314380Y-55314795D01*
X180238190Y-55314795D01*
X180123904Y-55276700D01*
X180085809Y-55238604D01*
X179781047Y-54743366D02*
X179400095Y-54743366D01*
X179857238Y-54514795D02*
X179590571Y-55314795D01*
X179323904Y-54514795D01*
X179057238Y-54514795D02*
X179057238Y-55314795D01*
X178600095Y-54514795D01*
X178600095Y-55314795D01*
X177800095Y-54514795D02*
X178257238Y-54514795D01*
X178028666Y-54514795D02*
X178028666Y-55314795D01*
X178104857Y-55200509D01*
X178181047Y-55124319D01*
X178257238Y-55086223D01*
X177647714Y-54438604D02*
X177038190Y-54438604D01*
X176466761Y-54514795D02*
X176847714Y-54514795D01*
X176847714Y-55314795D01*
X180181047Y-57283385D02*
X180219142Y-57245290D01*
X180333428Y-57207195D01*
X180409619Y-57207195D01*
X180523904Y-57245290D01*
X180600095Y-57321480D01*
X180638190Y-57397671D01*
X180676285Y-57550052D01*
X180676285Y-57664338D01*
X180638190Y-57816719D01*
X180600095Y-57892909D01*
X180523904Y-57969100D01*
X180409619Y-58007195D01*
X180333428Y-58007195D01*
X180219142Y-57969100D01*
X180181047Y-57931004D01*
X179876285Y-57435766D02*
X179495333Y-57435766D01*
X179952476Y-57207195D02*
X179685809Y-58007195D01*
X179419142Y-57207195D01*
X179152476Y-57207195D02*
X179152476Y-58007195D01*
X178695333Y-57207195D01*
X178695333Y-58007195D01*
X178162000Y-58007195D02*
X178085809Y-58007195D01*
X178009619Y-57969100D01*
X177971523Y-57931004D01*
X177933428Y-57854814D01*
X177895333Y-57702433D01*
X177895333Y-57511957D01*
X177933428Y-57359576D01*
X177971523Y-57283385D01*
X178009619Y-57245290D01*
X178085809Y-57207195D01*
X178162000Y-57207195D01*
X178238190Y-57245290D01*
X178276285Y-57283385D01*
X178314380Y-57359576D01*
X178352476Y-57511957D01*
X178352476Y-57702433D01*
X178314380Y-57854814D01*
X178276285Y-57931004D01*
X178238190Y-57969100D01*
X178162000Y-58007195D01*
X177742952Y-57131004D02*
X177133428Y-57131004D01*
X176942952Y-57207195D02*
X176942952Y-58007195D01*
X176942952Y-57626242D02*
X176485809Y-57626242D01*
X176485809Y-57207195D02*
X176485809Y-58007195D01*
X180085809Y-59747185D02*
X180123904Y-59709090D01*
X180238190Y-59670995D01*
X180314380Y-59670995D01*
X180428666Y-59709090D01*
X180504857Y-59785280D01*
X180542952Y-59861471D01*
X180581047Y-60013852D01*
X180581047Y-60128138D01*
X180542952Y-60280519D01*
X180504857Y-60356709D01*
X180428666Y-60432900D01*
X180314380Y-60470995D01*
X180238190Y-60470995D01*
X180123904Y-60432900D01*
X180085809Y-60394804D01*
X179781047Y-59899566D02*
X179400095Y-59899566D01*
X179857238Y-59670995D02*
X179590571Y-60470995D01*
X179323904Y-59670995D01*
X179057238Y-59670995D02*
X179057238Y-60470995D01*
X178600095Y-59670995D01*
X178600095Y-60470995D01*
X178066761Y-60470995D02*
X177990571Y-60470995D01*
X177914380Y-60432900D01*
X177876285Y-60394804D01*
X177838190Y-60318614D01*
X177800095Y-60166233D01*
X177800095Y-59975757D01*
X177838190Y-59823376D01*
X177876285Y-59747185D01*
X177914380Y-59709090D01*
X177990571Y-59670995D01*
X178066761Y-59670995D01*
X178142952Y-59709090D01*
X178181047Y-59747185D01*
X178219142Y-59823376D01*
X178257238Y-59975757D01*
X178257238Y-60166233D01*
X178219142Y-60318614D01*
X178181047Y-60394804D01*
X178142952Y-60432900D01*
X178066761Y-60470995D01*
X177647714Y-59594804D02*
X177038190Y-59594804D01*
X176466761Y-59670995D02*
X176847714Y-59670995D01*
X176847714Y-60470995D01*
X179336523Y-62490357D02*
X178727000Y-62490357D01*
X179031761Y-62185595D02*
X179031761Y-62795119D01*
X178422238Y-62985595D02*
X177927000Y-62985595D01*
X178193666Y-62680833D01*
X178079380Y-62680833D01*
X178003190Y-62642738D01*
X177965095Y-62604642D01*
X177927000Y-62528452D01*
X177927000Y-62337976D01*
X177965095Y-62261785D01*
X178003190Y-62223690D01*
X178079380Y-62185595D01*
X178307952Y-62185595D01*
X178384142Y-62223690D01*
X178422238Y-62261785D01*
X177698428Y-62985595D02*
X177431761Y-62185595D01*
X177165095Y-62985595D01*
X176974619Y-62985595D02*
X176479380Y-62985595D01*
X176746047Y-62680833D01*
X176631761Y-62680833D01*
X176555571Y-62642738D01*
X176517476Y-62604642D01*
X176479380Y-62528452D01*
X176479380Y-62337976D01*
X176517476Y-62261785D01*
X176555571Y-62223690D01*
X176631761Y-62185595D01*
X176860333Y-62185595D01*
X176936523Y-62223690D01*
X176974619Y-62261785D01*
X178155523Y-70567500D02*
X178231714Y-70605595D01*
X178346000Y-70605595D01*
X178460285Y-70567500D01*
X178536476Y-70491309D01*
X178574571Y-70415119D01*
X178612666Y-70262738D01*
X178612666Y-70148452D01*
X178574571Y-69996071D01*
X178536476Y-69919880D01*
X178460285Y-69843690D01*
X178346000Y-69805595D01*
X178269809Y-69805595D01*
X178155523Y-69843690D01*
X178117428Y-69881785D01*
X178117428Y-70148452D01*
X178269809Y-70148452D01*
X177774571Y-69805595D02*
X177774571Y-70605595D01*
X177317428Y-69805595D01*
X177317428Y-70605595D01*
X176936476Y-69805595D02*
X176936476Y-70605595D01*
X176746000Y-70605595D01*
X176631714Y-70567500D01*
X176555523Y-70491309D01*
X176517428Y-70415119D01*
X176479333Y-70262738D01*
X176479333Y-70148452D01*
X176517428Y-69996071D01*
X176555523Y-69919880D01*
X176631714Y-69843690D01*
X176746000Y-69805595D01*
X176936476Y-69805595D01*
X178155523Y-65487500D02*
X178231714Y-65525595D01*
X178346000Y-65525595D01*
X178460285Y-65487500D01*
X178536476Y-65411309D01*
X178574571Y-65335119D01*
X178612666Y-65182738D01*
X178612666Y-65068452D01*
X178574571Y-64916071D01*
X178536476Y-64839880D01*
X178460285Y-64763690D01*
X178346000Y-64725595D01*
X178269809Y-64725595D01*
X178155523Y-64763690D01*
X178117428Y-64801785D01*
X178117428Y-65068452D01*
X178269809Y-65068452D01*
X177774571Y-64725595D02*
X177774571Y-65525595D01*
X177317428Y-64725595D01*
X177317428Y-65525595D01*
X176936476Y-64725595D02*
X176936476Y-65525595D01*
X176746000Y-65525595D01*
X176631714Y-65487500D01*
X176555523Y-65411309D01*
X176517428Y-65335119D01*
X176479333Y-65182738D01*
X176479333Y-65068452D01*
X176517428Y-64916071D01*
X176555523Y-64839880D01*
X176631714Y-64763690D01*
X176746000Y-64725595D01*
X176936476Y-64725595D01*
X179463523Y-67570357D02*
X178854000Y-67570357D01*
X179158761Y-67265595D02*
X179158761Y-67875119D01*
X178054000Y-67265595D02*
X178511142Y-67265595D01*
X178282571Y-67265595D02*
X178282571Y-68065595D01*
X178358761Y-67951309D01*
X178434952Y-67875119D01*
X178511142Y-67837023D01*
X177749238Y-67989404D02*
X177711142Y-68027500D01*
X177634952Y-68065595D01*
X177444476Y-68065595D01*
X177368285Y-68027500D01*
X177330190Y-67989404D01*
X177292095Y-67913214D01*
X177292095Y-67837023D01*
X177330190Y-67722738D01*
X177787333Y-67265595D01*
X177292095Y-67265595D01*
X177063523Y-68065595D02*
X176796857Y-67265595D01*
X176530190Y-68065595D01*
X192995704Y-79178200D02*
X192919514Y-79140104D01*
X192805228Y-79140104D01*
X192690942Y-79178200D01*
X192614752Y-79254390D01*
X192576657Y-79330580D01*
X192538561Y-79482961D01*
X192538561Y-79597247D01*
X192576657Y-79749628D01*
X192614752Y-79825819D01*
X192690942Y-79902009D01*
X192805228Y-79940104D01*
X192881419Y-79940104D01*
X192995704Y-79902009D01*
X193033800Y-79863914D01*
X193033800Y-79597247D01*
X192881419Y-79597247D01*
X193376657Y-79521057D02*
X193643323Y-79521057D01*
X193757609Y-79940104D02*
X193376657Y-79940104D01*
X193376657Y-79140104D01*
X193757609Y-79140104D01*
X194100466Y-79940104D02*
X194100466Y-79140104D01*
X194405228Y-79140104D01*
X194481419Y-79178200D01*
X194519514Y-79216295D01*
X194557609Y-79292485D01*
X194557609Y-79406771D01*
X194519514Y-79482961D01*
X194481419Y-79521057D01*
X194405228Y-79559152D01*
X194100466Y-79559152D01*
X194709990Y-80016295D02*
X195319514Y-80016295D01*
X195471895Y-79216295D02*
X195509990Y-79178200D01*
X195586180Y-79140104D01*
X195776657Y-79140104D01*
X195852847Y-79178200D01*
X195890942Y-79216295D01*
X195929038Y-79292485D01*
X195929038Y-79368676D01*
X195890942Y-79482961D01*
X195433800Y-79940104D01*
X195929038Y-79940104D01*
X189954104Y-75533257D02*
X190220771Y-75533257D01*
X190335057Y-75952304D02*
X189954104Y-75952304D01*
X189954104Y-75152304D01*
X190335057Y-75152304D01*
X190601723Y-75152304D02*
X191135057Y-75952304D01*
X191135057Y-75152304D02*
X190601723Y-75952304D01*
X191439819Y-75952304D02*
X191439819Y-75152304D01*
X191744580Y-75152304D01*
X191820771Y-75190400D01*
X191858866Y-75228495D01*
X191896961Y-75304685D01*
X191896961Y-75418971D01*
X191858866Y-75495161D01*
X191820771Y-75533257D01*
X191744580Y-75571352D01*
X191439819Y-75571352D01*
X192049342Y-76028495D02*
X192658866Y-76028495D01*
X192811247Y-75228495D02*
X192849342Y-75190400D01*
X192925533Y-75152304D01*
X193116009Y-75152304D01*
X193192200Y-75190400D01*
X193230295Y-75228495D01*
X193268390Y-75304685D01*
X193268390Y-75380876D01*
X193230295Y-75495161D01*
X192773152Y-75952304D01*
X193268390Y-75952304D01*
X194826000Y-117551104D02*
X194778380Y-117646342D01*
X194778380Y-117789200D01*
X194826000Y-117932057D01*
X194921238Y-118027295D01*
X195016476Y-118074914D01*
X195206952Y-118122533D01*
X195349809Y-118122533D01*
X195540285Y-118074914D01*
X195635523Y-118027295D01*
X195730761Y-117932057D01*
X195778380Y-117789200D01*
X195778380Y-117693961D01*
X195730761Y-117551104D01*
X195683142Y-117503485D01*
X195349809Y-117503485D01*
X195349809Y-117693961D01*
X195778380Y-117074914D02*
X194778380Y-117074914D01*
X195778380Y-116503485D01*
X194778380Y-116503485D01*
X195778380Y-116027295D02*
X194778380Y-116027295D01*
X194778380Y-115789200D01*
X194826000Y-115646342D01*
X194921238Y-115551104D01*
X195016476Y-115503485D01*
X195206952Y-115455866D01*
X195349809Y-115455866D01*
X195540285Y-115503485D01*
X195635523Y-115551104D01*
X195730761Y-115646342D01*
X195778380Y-115789200D01*
X195778380Y-116027295D01*
X188879171Y-118206638D02*
X188879171Y-117873304D01*
X189402980Y-117730447D02*
X189402980Y-118206638D01*
X188402980Y-118206638D01*
X188402980Y-117730447D01*
X189402980Y-116778066D02*
X189402980Y-117349495D01*
X189402980Y-117063780D02*
X188402980Y-117063780D01*
X188545838Y-117159019D01*
X188641076Y-117254257D01*
X188688695Y-117349495D01*
X188498219Y-116397114D02*
X188450600Y-116349495D01*
X188402980Y-116254257D01*
X188402980Y-116016161D01*
X188450600Y-115920923D01*
X188498219Y-115873304D01*
X188593457Y-115825685D01*
X188688695Y-115825685D01*
X188831552Y-115873304D01*
X189402980Y-116444733D01*
X189402980Y-115825685D01*
X188402980Y-115539971D02*
X189402980Y-115206638D01*
X188402980Y-114873304D01*
X172980309Y-89604714D02*
X173018404Y-89490428D01*
X173018404Y-89299952D01*
X172980309Y-89223761D01*
X172942214Y-89185666D01*
X172866023Y-89147571D01*
X172789833Y-89147571D01*
X172713642Y-89185666D01*
X172675547Y-89223761D01*
X172637452Y-89299952D01*
X172599357Y-89452333D01*
X172561261Y-89528523D01*
X172523166Y-89566619D01*
X172446976Y-89604714D01*
X172370785Y-89604714D01*
X172294595Y-89566619D01*
X172256500Y-89528523D01*
X172218404Y-89452333D01*
X172218404Y-89261857D01*
X172256500Y-89147571D01*
X172218404Y-88880904D02*
X173018404Y-88690428D01*
X172446976Y-88538047D01*
X173018404Y-88385666D01*
X172218404Y-88195190D01*
X172942214Y-87433285D02*
X172980309Y-87471380D01*
X173018404Y-87585666D01*
X173018404Y-87661857D01*
X172980309Y-87776142D01*
X172904119Y-87852333D01*
X172827928Y-87890428D01*
X172675547Y-87928523D01*
X172561261Y-87928523D01*
X172408880Y-87890428D01*
X172332690Y-87852333D01*
X172256500Y-87776142D01*
X172218404Y-87661857D01*
X172218404Y-87585666D01*
X172256500Y-87471380D01*
X172294595Y-87433285D01*
X172256500Y-91795523D02*
X172218404Y-91871714D01*
X172218404Y-91986000D01*
X172256500Y-92100285D01*
X172332690Y-92176476D01*
X172408880Y-92214571D01*
X172561261Y-92252666D01*
X172675547Y-92252666D01*
X172827928Y-92214571D01*
X172904119Y-92176476D01*
X172980309Y-92100285D01*
X173018404Y-91986000D01*
X173018404Y-91909809D01*
X172980309Y-91795523D01*
X172942214Y-91757428D01*
X172675547Y-91757428D01*
X172675547Y-91909809D01*
X173018404Y-91414571D02*
X172218404Y-91414571D01*
X173018404Y-90957428D01*
X172218404Y-90957428D01*
X173018404Y-90576476D02*
X172218404Y-90576476D01*
X172218404Y-90386000D01*
X172256500Y-90271714D01*
X172332690Y-90195523D01*
X172408880Y-90157428D01*
X172561261Y-90119333D01*
X172675547Y-90119333D01*
X172827928Y-90157428D01*
X172904119Y-90195523D01*
X172980309Y-90271714D01*
X173018404Y-90386000D01*
X173018404Y-90576476D01*
X180181047Y-93694285D02*
X180219142Y-93656190D01*
X180333428Y-93618095D01*
X180409619Y-93618095D01*
X180523904Y-93656190D01*
X180600095Y-93732380D01*
X180638190Y-93808571D01*
X180676285Y-93960952D01*
X180676285Y-94075238D01*
X180638190Y-94227619D01*
X180600095Y-94303809D01*
X180523904Y-94380000D01*
X180409619Y-94418095D01*
X180333428Y-94418095D01*
X180219142Y-94380000D01*
X180181047Y-94341904D01*
X179876285Y-93846666D02*
X179495333Y-93846666D01*
X179952476Y-93618095D02*
X179685809Y-94418095D01*
X179419142Y-93618095D01*
X179152476Y-93618095D02*
X179152476Y-94418095D01*
X178695333Y-93618095D01*
X178695333Y-94418095D01*
X178352476Y-94341904D02*
X178314380Y-94380000D01*
X178238190Y-94418095D01*
X178047714Y-94418095D01*
X177971523Y-94380000D01*
X177933428Y-94341904D01*
X177895333Y-94265714D01*
X177895333Y-94189523D01*
X177933428Y-94075238D01*
X178390571Y-93618095D01*
X177895333Y-93618095D01*
X177742952Y-93541904D02*
X177133428Y-93541904D01*
X176942952Y-93618095D02*
X176942952Y-94418095D01*
X176942952Y-94037142D02*
X176485809Y-94037142D01*
X176485809Y-93618095D02*
X176485809Y-94418095D01*
X180085809Y-96234285D02*
X180123904Y-96196190D01*
X180238190Y-96158095D01*
X180314380Y-96158095D01*
X180428666Y-96196190D01*
X180504857Y-96272380D01*
X180542952Y-96348571D01*
X180581047Y-96500952D01*
X180581047Y-96615238D01*
X180542952Y-96767619D01*
X180504857Y-96843809D01*
X180428666Y-96920000D01*
X180314380Y-96958095D01*
X180238190Y-96958095D01*
X180123904Y-96920000D01*
X180085809Y-96881904D01*
X179781047Y-96386666D02*
X179400095Y-96386666D01*
X179857238Y-96158095D02*
X179590571Y-96958095D01*
X179323904Y-96158095D01*
X179057238Y-96158095D02*
X179057238Y-96958095D01*
X178600095Y-96158095D01*
X178600095Y-96958095D01*
X178257238Y-96881904D02*
X178219142Y-96920000D01*
X178142952Y-96958095D01*
X177952476Y-96958095D01*
X177876285Y-96920000D01*
X177838190Y-96881904D01*
X177800095Y-96805714D01*
X177800095Y-96729523D01*
X177838190Y-96615238D01*
X178295333Y-96158095D01*
X177800095Y-96158095D01*
X177647714Y-96081904D02*
X177038190Y-96081904D01*
X176466761Y-96158095D02*
X176847714Y-96158095D01*
X176847714Y-96958095D01*
X180181047Y-98774285D02*
X180219142Y-98736190D01*
X180333428Y-98698095D01*
X180409619Y-98698095D01*
X180523904Y-98736190D01*
X180600095Y-98812380D01*
X180638190Y-98888571D01*
X180676285Y-99040952D01*
X180676285Y-99155238D01*
X180638190Y-99307619D01*
X180600095Y-99383809D01*
X180523904Y-99460000D01*
X180409619Y-99498095D01*
X180333428Y-99498095D01*
X180219142Y-99460000D01*
X180181047Y-99421904D01*
X179876285Y-98926666D02*
X179495333Y-98926666D01*
X179952476Y-98698095D02*
X179685809Y-99498095D01*
X179419142Y-98698095D01*
X179152476Y-98698095D02*
X179152476Y-99498095D01*
X178695333Y-98698095D01*
X178695333Y-99498095D01*
X177895333Y-98698095D02*
X178352476Y-98698095D01*
X178123904Y-98698095D02*
X178123904Y-99498095D01*
X178200095Y-99383809D01*
X178276285Y-99307619D01*
X178352476Y-99269523D01*
X177742952Y-98621904D02*
X177133428Y-98621904D01*
X176942952Y-98698095D02*
X176942952Y-99498095D01*
X176942952Y-99117142D02*
X176485809Y-99117142D01*
X176485809Y-98698095D02*
X176485809Y-99498095D01*
X180085809Y-101263485D02*
X180123904Y-101225390D01*
X180238190Y-101187295D01*
X180314380Y-101187295D01*
X180428666Y-101225390D01*
X180504857Y-101301580D01*
X180542952Y-101377771D01*
X180581047Y-101530152D01*
X180581047Y-101644438D01*
X180542952Y-101796819D01*
X180504857Y-101873009D01*
X180428666Y-101949200D01*
X180314380Y-101987295D01*
X180238190Y-101987295D01*
X180123904Y-101949200D01*
X180085809Y-101911104D01*
X179781047Y-101415866D02*
X179400095Y-101415866D01*
X179857238Y-101187295D02*
X179590571Y-101987295D01*
X179323904Y-101187295D01*
X179057238Y-101187295D02*
X179057238Y-101987295D01*
X178600095Y-101187295D01*
X178600095Y-101987295D01*
X177800095Y-101187295D02*
X178257238Y-101187295D01*
X178028666Y-101187295D02*
X178028666Y-101987295D01*
X178104857Y-101873009D01*
X178181047Y-101796819D01*
X178257238Y-101758723D01*
X177647714Y-101111104D02*
X177038190Y-101111104D01*
X176466761Y-101187295D02*
X176847714Y-101187295D01*
X176847714Y-101987295D01*
X180181047Y-103955885D02*
X180219142Y-103917790D01*
X180333428Y-103879695D01*
X180409619Y-103879695D01*
X180523904Y-103917790D01*
X180600095Y-103993980D01*
X180638190Y-104070171D01*
X180676285Y-104222552D01*
X180676285Y-104336838D01*
X180638190Y-104489219D01*
X180600095Y-104565409D01*
X180523904Y-104641600D01*
X180409619Y-104679695D01*
X180333428Y-104679695D01*
X180219142Y-104641600D01*
X180181047Y-104603504D01*
X179876285Y-104108266D02*
X179495333Y-104108266D01*
X179952476Y-103879695D02*
X179685809Y-104679695D01*
X179419142Y-103879695D01*
X179152476Y-103879695D02*
X179152476Y-104679695D01*
X178695333Y-103879695D01*
X178695333Y-104679695D01*
X178162000Y-104679695D02*
X178085809Y-104679695D01*
X178009619Y-104641600D01*
X177971523Y-104603504D01*
X177933428Y-104527314D01*
X177895333Y-104374933D01*
X177895333Y-104184457D01*
X177933428Y-104032076D01*
X177971523Y-103955885D01*
X178009619Y-103917790D01*
X178085809Y-103879695D01*
X178162000Y-103879695D01*
X178238190Y-103917790D01*
X178276285Y-103955885D01*
X178314380Y-104032076D01*
X178352476Y-104184457D01*
X178352476Y-104374933D01*
X178314380Y-104527314D01*
X178276285Y-104603504D01*
X178238190Y-104641600D01*
X178162000Y-104679695D01*
X177742952Y-103803504D02*
X177133428Y-103803504D01*
X176942952Y-103879695D02*
X176942952Y-104679695D01*
X176942952Y-104298742D02*
X176485809Y-104298742D01*
X176485809Y-103879695D02*
X176485809Y-104679695D01*
X180085809Y-106419685D02*
X180123904Y-106381590D01*
X180238190Y-106343495D01*
X180314380Y-106343495D01*
X180428666Y-106381590D01*
X180504857Y-106457780D01*
X180542952Y-106533971D01*
X180581047Y-106686352D01*
X180581047Y-106800638D01*
X180542952Y-106953019D01*
X180504857Y-107029209D01*
X180428666Y-107105400D01*
X180314380Y-107143495D01*
X180238190Y-107143495D01*
X180123904Y-107105400D01*
X180085809Y-107067304D01*
X179781047Y-106572066D02*
X179400095Y-106572066D01*
X179857238Y-106343495D02*
X179590571Y-107143495D01*
X179323904Y-106343495D01*
X179057238Y-106343495D02*
X179057238Y-107143495D01*
X178600095Y-106343495D01*
X178600095Y-107143495D01*
X178066761Y-107143495D02*
X177990571Y-107143495D01*
X177914380Y-107105400D01*
X177876285Y-107067304D01*
X177838190Y-106991114D01*
X177800095Y-106838733D01*
X177800095Y-106648257D01*
X177838190Y-106495876D01*
X177876285Y-106419685D01*
X177914380Y-106381590D01*
X177990571Y-106343495D01*
X178066761Y-106343495D01*
X178142952Y-106381590D01*
X178181047Y-106419685D01*
X178219142Y-106495876D01*
X178257238Y-106648257D01*
X178257238Y-106838733D01*
X178219142Y-106991114D01*
X178181047Y-107067304D01*
X178142952Y-107105400D01*
X178066761Y-107143495D01*
X177647714Y-106267304D02*
X177038190Y-106267304D01*
X176466761Y-106343495D02*
X176847714Y-106343495D01*
X176847714Y-107143495D01*
X179336523Y-109162857D02*
X178727000Y-109162857D01*
X179031761Y-108858095D02*
X179031761Y-109467619D01*
X178422238Y-109658095D02*
X177927000Y-109658095D01*
X178193666Y-109353333D01*
X178079380Y-109353333D01*
X178003190Y-109315238D01*
X177965095Y-109277142D01*
X177927000Y-109200952D01*
X177927000Y-109010476D01*
X177965095Y-108934285D01*
X178003190Y-108896190D01*
X178079380Y-108858095D01*
X178307952Y-108858095D01*
X178384142Y-108896190D01*
X178422238Y-108934285D01*
X177698428Y-109658095D02*
X177431761Y-108858095D01*
X177165095Y-109658095D01*
X176974619Y-109658095D02*
X176479380Y-109658095D01*
X176746047Y-109353333D01*
X176631761Y-109353333D01*
X176555571Y-109315238D01*
X176517476Y-109277142D01*
X176479380Y-109200952D01*
X176479380Y-109010476D01*
X176517476Y-108934285D01*
X176555571Y-108896190D01*
X176631761Y-108858095D01*
X176860333Y-108858095D01*
X176936523Y-108896190D01*
X176974619Y-108934285D01*
X178155523Y-117240000D02*
X178231714Y-117278095D01*
X178346000Y-117278095D01*
X178460285Y-117240000D01*
X178536476Y-117163809D01*
X178574571Y-117087619D01*
X178612666Y-116935238D01*
X178612666Y-116820952D01*
X178574571Y-116668571D01*
X178536476Y-116592380D01*
X178460285Y-116516190D01*
X178346000Y-116478095D01*
X178269809Y-116478095D01*
X178155523Y-116516190D01*
X178117428Y-116554285D01*
X178117428Y-116820952D01*
X178269809Y-116820952D01*
X177774571Y-116478095D02*
X177774571Y-117278095D01*
X177317428Y-116478095D01*
X177317428Y-117278095D01*
X176936476Y-116478095D02*
X176936476Y-117278095D01*
X176746000Y-117278095D01*
X176631714Y-117240000D01*
X176555523Y-117163809D01*
X176517428Y-117087619D01*
X176479333Y-116935238D01*
X176479333Y-116820952D01*
X176517428Y-116668571D01*
X176555523Y-116592380D01*
X176631714Y-116516190D01*
X176746000Y-116478095D01*
X176936476Y-116478095D01*
X178155523Y-112160000D02*
X178231714Y-112198095D01*
X178346000Y-112198095D01*
X178460285Y-112160000D01*
X178536476Y-112083809D01*
X178574571Y-112007619D01*
X178612666Y-111855238D01*
X178612666Y-111740952D01*
X178574571Y-111588571D01*
X178536476Y-111512380D01*
X178460285Y-111436190D01*
X178346000Y-111398095D01*
X178269809Y-111398095D01*
X178155523Y-111436190D01*
X178117428Y-111474285D01*
X178117428Y-111740952D01*
X178269809Y-111740952D01*
X177774571Y-111398095D02*
X177774571Y-112198095D01*
X177317428Y-111398095D01*
X177317428Y-112198095D01*
X176936476Y-111398095D02*
X176936476Y-112198095D01*
X176746000Y-112198095D01*
X176631714Y-112160000D01*
X176555523Y-112083809D01*
X176517428Y-112007619D01*
X176479333Y-111855238D01*
X176479333Y-111740952D01*
X176517428Y-111588571D01*
X176555523Y-111512380D01*
X176631714Y-111436190D01*
X176746000Y-111398095D01*
X176936476Y-111398095D01*
X179463523Y-114242857D02*
X178854000Y-114242857D01*
X179158761Y-113938095D02*
X179158761Y-114547619D01*
X178054000Y-113938095D02*
X178511142Y-113938095D01*
X178282571Y-113938095D02*
X178282571Y-114738095D01*
X178358761Y-114623809D01*
X178434952Y-114547619D01*
X178511142Y-114509523D01*
X177749238Y-114661904D02*
X177711142Y-114700000D01*
X177634952Y-114738095D01*
X177444476Y-114738095D01*
X177368285Y-114700000D01*
X177330190Y-114661904D01*
X177292095Y-114585714D01*
X177292095Y-114509523D01*
X177330190Y-114395238D01*
X177787333Y-113938095D01*
X177292095Y-113938095D01*
X177063523Y-114738095D02*
X176796857Y-113938095D01*
X176530190Y-114738095D01*
D13*
X127984252Y-88498000D02*
X125761748Y-88498000D01*
X127984252Y-90318000D02*
X125761748Y-90318000D01*
D10*
X132504000Y-97190000D02*
X132504000Y-97140000D01*
X128354000Y-97190000D02*
X128354000Y-97045000D01*
X128354000Y-92040000D02*
X128354000Y-92185000D01*
X132504000Y-92040000D02*
X132504000Y-92185000D01*
X132504000Y-97190000D02*
X128354000Y-97190000D01*
X132504000Y-92040000D02*
X128354000Y-92040000D01*
D13*
X117938733Y-87378000D02*
X118281267Y-87378000D01*
X117938733Y-86358000D02*
X118281267Y-86358000D01*
X117938733Y-83060000D02*
X118281267Y-83060000D01*
X117938733Y-82040000D02*
X118281267Y-82040000D01*
X118281267Y-77722000D02*
X117938733Y-77722000D01*
X118281267Y-78742000D02*
X117938733Y-78742000D01*
X119725000Y-88067000D02*
X116865000Y-88067000D01*
X119725000Y-89987000D02*
X119725000Y-88067000D01*
X116865000Y-89987000D02*
X119725000Y-89987000D01*
X119725000Y-83749000D02*
X116865000Y-83749000D01*
X119725000Y-85669000D02*
X119725000Y-83749000D01*
X116865000Y-85669000D02*
X119725000Y-85669000D01*
X119707000Y-79431000D02*
X116847000Y-79431000D01*
X119707000Y-81351000D02*
X119707000Y-79431000D01*
X116847000Y-81351000D02*
X119707000Y-81351000D01*
X141627000Y-87525000D02*
X148877000Y-87525000D01*
X141627000Y-83925000D02*
X141627000Y-87525000D01*
X148877000Y-83925000D02*
X141627000Y-83925000D01*
D10*
X154667000Y-92391000D02*
X154417000Y-92391000D01*
X154667000Y-100141000D02*
X154322000Y-100141000D01*
X142767000Y-100141000D02*
X143112000Y-100141000D01*
X142767000Y-92391000D02*
X143112000Y-92391000D01*
X154667000Y-92391000D02*
X154667000Y-100141000D01*
X142767000Y-92391000D02*
X142767000Y-100141000D01*
X154417000Y-92391000D02*
X154417000Y-90566000D01*
D13*
X129412000Y-112736000D02*
X126112000Y-112736000D01*
X129412000Y-104608000D02*
X129412000Y-112736000D01*
X126112000Y-104608000D02*
X126112000Y-112736000D01*
X129412000Y-104608000D02*
X126112000Y-104608000D01*
X151704000Y-81722000D02*
X151704000Y-79822000D01*
X153604000Y-81722000D02*
X151704000Y-81722000D01*
X153604000Y-79822000D02*
X153604000Y-81722000D01*
X151704000Y-79822000D02*
X153604000Y-79822000D01*
X138474267Y-87882000D02*
X138131733Y-87882000D01*
X138474267Y-88902000D02*
X138131733Y-88902000D01*
X129030000Y-82378733D02*
X129030000Y-82721267D01*
X130050000Y-82378733D02*
X130050000Y-82721267D01*
X124758267Y-98550000D02*
X124415733Y-98550000D01*
X124758267Y-99570000D02*
X124415733Y-99570000D01*
X136400000Y-111169267D02*
X136400000Y-110826733D01*
X135380000Y-111169267D02*
X135380000Y-110826733D01*
X138813000Y-100642267D02*
X138813000Y-100299733D01*
X137793000Y-100642267D02*
X137793000Y-100299733D01*
X142369000Y-111169267D02*
X142369000Y-110826733D01*
X141349000Y-111169267D02*
X141349000Y-110826733D01*
X153799000Y-110012267D02*
X153799000Y-109669733D01*
X152779000Y-110012267D02*
X152779000Y-109669733D01*
X138361267Y-89914000D02*
X138018733Y-89914000D01*
X138361267Y-90934000D02*
X138018733Y-90934000D01*
X151767000Y-110012267D02*
X151767000Y-109669733D01*
X150747000Y-110012267D02*
X150747000Y-109669733D01*
X133731000Y-111368252D02*
X133731000Y-108595748D01*
X130937000Y-111379000D02*
X130937000Y-108606496D01*
X133743000Y-84090000D02*
X137843000Y-84090000D01*
X137843000Y-84090000D02*
X137843000Y-86090000D01*
X137843000Y-86090000D02*
X133743000Y-86090000D01*
X133743000Y-86090000D02*
X133743000Y-84090000D01*
X133713000Y-80407000D02*
X137813000Y-80407000D01*
X137813000Y-80407000D02*
X137813000Y-82407000D01*
X137813000Y-82407000D02*
X133713000Y-82407000D01*
X133713000Y-82407000D02*
X133713000Y-80407000D01*
X157591000Y-108328000D02*
X157591000Y-111128000D01*
X157591000Y-111128000D02*
X155591000Y-111128000D01*
X155591000Y-111128000D02*
X155591000Y-108328000D01*
X155591000Y-108328000D02*
X157591000Y-108328000D01*
X163957000Y-113090000D02*
X162627000Y-113090000D01*
X162627000Y-113090000D02*
X162627000Y-111760000D01*
X162627000Y-110490000D02*
X162627000Y-79950000D01*
X165287000Y-79950000D02*
X162627000Y-79950000D01*
X165287000Y-110490000D02*
X165287000Y-79950000D01*
X165287000Y-110490000D02*
X162627000Y-110490000D01*
X123885000Y-113598000D02*
X122555000Y-113598000D01*
X123885000Y-112268000D02*
X123885000Y-113598000D01*
X123885000Y-110998000D02*
X121225000Y-110998000D01*
X121225000Y-110998000D02*
X121225000Y-108398000D01*
X123885000Y-110998000D02*
X123885000Y-108398000D01*
X123885000Y-108398000D02*
X121225000Y-108398000D01*
X155134000Y-85150000D02*
X155134000Y-83820000D01*
X156464000Y-85150000D02*
X155134000Y-85150000D01*
X157734000Y-85150000D02*
X157734000Y-82490000D01*
X157734000Y-82490000D02*
X160334000Y-82490000D01*
X157734000Y-85150000D02*
X160334000Y-85150000D01*
X160334000Y-85150000D02*
X160334000Y-82490000D01*
X121529000Y-75140000D02*
X121529000Y-76200000D01*
X123589000Y-75140000D02*
X121573000Y-75140000D01*
X122589000Y-77260000D02*
X123589000Y-77260000D01*
X123589000Y-77260000D02*
X149649000Y-77260000D01*
X123589000Y-75140000D02*
X149649000Y-75140000D01*
X121529000Y-77260000D02*
X121529000Y-76200000D01*
X149649000Y-77260000D02*
X149649000Y-75140000D01*
X122589000Y-77260000D02*
X121529000Y-77260000D01*
X121529000Y-117900000D02*
X121529000Y-116840000D01*
X122589000Y-117900000D02*
X121529000Y-117900000D01*
X123589000Y-117900000D02*
X123589000Y-115780000D01*
X123589000Y-115780000D02*
X149649000Y-115780000D01*
X123589000Y-117900000D02*
X149649000Y-117900000D01*
X149649000Y-117900000D02*
X149649000Y-115780000D01*
X124415733Y-102364000D02*
X124758267Y-102364000D01*
X124415733Y-101344000D02*
X124758267Y-101344000D01*
X130370733Y-99570000D02*
X130713267Y-99570000D01*
X130370733Y-98550000D02*
X130713267Y-98550000D01*
X138174000Y-110840733D02*
X138174000Y-111183267D01*
X139194000Y-110840733D02*
X139194000Y-111183267D01*
X155700000Y-98634733D02*
X155700000Y-98977267D01*
X156720000Y-98634733D02*
X156720000Y-98977267D01*
X148634267Y-81659000D02*
X148291733Y-81659000D01*
X148634267Y-82679000D02*
X148291733Y-82679000D01*
X143465733Y-82679000D02*
X143808267Y-82679000D01*
X143465733Y-81659000D02*
X143808267Y-81659000D01*
X127984252Y-41825500D02*
X125761748Y-41825500D01*
X127984252Y-43645500D02*
X125761748Y-43645500D01*
D10*
X132504000Y-50517500D02*
X132504000Y-50467500D01*
X128354000Y-50517500D02*
X128354000Y-50372500D01*
X128354000Y-45367500D02*
X128354000Y-45512500D01*
X132504000Y-45367500D02*
X132504000Y-45512500D01*
X132504000Y-50517500D02*
X128354000Y-50517500D01*
X132504000Y-45367500D02*
X128354000Y-45367500D01*
D13*
X117938733Y-40705500D02*
X118281267Y-40705500D01*
X117938733Y-39685500D02*
X118281267Y-39685500D01*
X117938733Y-36387500D02*
X118281267Y-36387500D01*
X117938733Y-35367500D02*
X118281267Y-35367500D01*
X118281267Y-31049500D02*
X117938733Y-31049500D01*
X118281267Y-32069500D02*
X117938733Y-32069500D01*
X119725000Y-41394500D02*
X116865000Y-41394500D01*
X119725000Y-43314500D02*
X119725000Y-41394500D01*
X116865000Y-43314500D02*
X119725000Y-43314500D01*
X119725000Y-37076500D02*
X116865000Y-37076500D01*
X119725000Y-38996500D02*
X119725000Y-37076500D01*
X116865000Y-38996500D02*
X119725000Y-38996500D01*
X119707000Y-32758500D02*
X116847000Y-32758500D01*
X119707000Y-34678500D02*
X119707000Y-32758500D01*
X116847000Y-34678500D02*
X119707000Y-34678500D01*
X141627000Y-40852500D02*
X148877000Y-40852500D01*
X141627000Y-37252500D02*
X141627000Y-40852500D01*
X148877000Y-37252500D02*
X141627000Y-37252500D01*
D10*
X154667000Y-45718500D02*
X154417000Y-45718500D01*
X154667000Y-53468500D02*
X154322000Y-53468500D01*
X142767000Y-53468500D02*
X143112000Y-53468500D01*
X142767000Y-45718500D02*
X143112000Y-45718500D01*
X154667000Y-45718500D02*
X154667000Y-53468500D01*
X142767000Y-45718500D02*
X142767000Y-53468500D01*
X154417000Y-45718500D02*
X154417000Y-43893500D01*
D13*
X129412000Y-66063500D02*
X126112000Y-66063500D01*
X129412000Y-57935500D02*
X129412000Y-66063500D01*
X126112000Y-57935500D02*
X126112000Y-66063500D01*
X129412000Y-57935500D02*
X126112000Y-57935500D01*
X151704000Y-35049500D02*
X151704000Y-33149500D01*
X153604000Y-35049500D02*
X151704000Y-35049500D01*
X153604000Y-33149500D02*
X153604000Y-35049500D01*
X151704000Y-33149500D02*
X153604000Y-33149500D01*
X138474267Y-41209500D02*
X138131733Y-41209500D01*
X138474267Y-42229500D02*
X138131733Y-42229500D01*
X129030000Y-35706233D02*
X129030000Y-36048767D01*
X130050000Y-35706233D02*
X130050000Y-36048767D01*
X124758267Y-51877500D02*
X124415733Y-51877500D01*
X124758267Y-52897500D02*
X124415733Y-52897500D01*
X136400000Y-64496767D02*
X136400000Y-64154233D01*
X135380000Y-64496767D02*
X135380000Y-64154233D01*
X138813000Y-53969767D02*
X138813000Y-53627233D01*
X137793000Y-53969767D02*
X137793000Y-53627233D01*
X142369000Y-64496767D02*
X142369000Y-64154233D01*
X141349000Y-64496767D02*
X141349000Y-64154233D01*
X153799000Y-63339767D02*
X153799000Y-62997233D01*
X152779000Y-63339767D02*
X152779000Y-62997233D01*
X138361267Y-43241500D02*
X138018733Y-43241500D01*
X138361267Y-44261500D02*
X138018733Y-44261500D01*
X151767000Y-63339767D02*
X151767000Y-62997233D01*
X150747000Y-63339767D02*
X150747000Y-62997233D01*
X133731000Y-64695752D02*
X133731000Y-61923248D01*
X130937000Y-64706500D02*
X130937000Y-61933996D01*
X133743000Y-37417500D02*
X137843000Y-37417500D01*
X137843000Y-37417500D02*
X137843000Y-39417500D01*
X137843000Y-39417500D02*
X133743000Y-39417500D01*
X133743000Y-39417500D02*
X133743000Y-37417500D01*
X133713000Y-33734500D02*
X137813000Y-33734500D01*
X137813000Y-33734500D02*
X137813000Y-35734500D01*
X137813000Y-35734500D02*
X133713000Y-35734500D01*
X133713000Y-35734500D02*
X133713000Y-33734500D01*
X157591000Y-61655500D02*
X157591000Y-64455500D01*
X157591000Y-64455500D02*
X155591000Y-64455500D01*
X155591000Y-64455500D02*
X155591000Y-61655500D01*
X155591000Y-61655500D02*
X157591000Y-61655500D01*
X163957000Y-66417500D02*
X162627000Y-66417500D01*
X162627000Y-66417500D02*
X162627000Y-65087500D01*
X162627000Y-63817500D02*
X162627000Y-33277500D01*
X165287000Y-33277500D02*
X162627000Y-33277500D01*
X165287000Y-63817500D02*
X165287000Y-33277500D01*
X165287000Y-63817500D02*
X162627000Y-63817500D01*
X123885000Y-66925500D02*
X122555000Y-66925500D01*
X123885000Y-65595500D02*
X123885000Y-66925500D01*
X123885000Y-64325500D02*
X121225000Y-64325500D01*
X121225000Y-64325500D02*
X121225000Y-61725500D01*
X123885000Y-64325500D02*
X123885000Y-61725500D01*
X123885000Y-61725500D02*
X121225000Y-61725500D01*
X155134000Y-38477500D02*
X155134000Y-37147500D01*
X156464000Y-38477500D02*
X155134000Y-38477500D01*
X157734000Y-38477500D02*
X157734000Y-35817500D01*
X157734000Y-35817500D02*
X160334000Y-35817500D01*
X157734000Y-38477500D02*
X160334000Y-38477500D01*
X160334000Y-38477500D02*
X160334000Y-35817500D01*
X121529000Y-28467500D02*
X121529000Y-29527500D01*
X123589000Y-28467500D02*
X121573000Y-28467500D01*
X122589000Y-30587500D02*
X123589000Y-30587500D01*
X123589000Y-30587500D02*
X149649000Y-30587500D01*
X123589000Y-28467500D02*
X149649000Y-28467500D01*
X121529000Y-30587500D02*
X121529000Y-29527500D01*
X149649000Y-30587500D02*
X149649000Y-28467500D01*
X122589000Y-30587500D02*
X121529000Y-30587500D01*
X121529000Y-71227500D02*
X121529000Y-70167500D01*
X122589000Y-71227500D02*
X121529000Y-71227500D01*
X123589000Y-71227500D02*
X123589000Y-69107500D01*
X123589000Y-69107500D02*
X149649000Y-69107500D01*
X123589000Y-71227500D02*
X149649000Y-71227500D01*
X149649000Y-71227500D02*
X149649000Y-69107500D01*
X124415733Y-55691500D02*
X124758267Y-55691500D01*
X124415733Y-54671500D02*
X124758267Y-54671500D01*
X130370733Y-52897500D02*
X130713267Y-52897500D01*
X130370733Y-51877500D02*
X130713267Y-51877500D01*
X138174000Y-64168233D02*
X138174000Y-64510767D01*
X139194000Y-64168233D02*
X139194000Y-64510767D01*
X155700000Y-51962233D02*
X155700000Y-52304767D01*
X156720000Y-51962233D02*
X156720000Y-52304767D01*
X148634267Y-34986500D02*
X148291733Y-34986500D01*
X148634267Y-36006500D02*
X148291733Y-36006500D01*
X143465733Y-36006500D02*
X143808267Y-36006500D01*
X143465733Y-34986500D02*
X143808267Y-34986500D01*
X190338400Y-30848300D02*
X190338400Y-29518300D01*
X190338400Y-29518300D02*
X191668400Y-29518300D01*
X192938400Y-29518300D02*
X195538400Y-29518300D01*
X195538400Y-32178300D02*
X195538400Y-29518300D01*
X192938400Y-32178300D02*
X195538400Y-32178300D01*
X192938400Y-32178300D02*
X192938400Y-29518300D01*
X189500200Y-70091300D02*
X189500200Y-68761300D01*
X189500200Y-68761300D02*
X190830200Y-68761300D01*
X192100200Y-68761300D02*
X194700200Y-68761300D01*
X194700200Y-71421300D02*
X194700200Y-68761300D01*
X192100200Y-71421300D02*
X194700200Y-71421300D01*
X192100200Y-71421300D02*
X192100200Y-68761300D01*
X174371000Y-40643500D02*
X175701000Y-40643500D01*
X175701000Y-40643500D02*
X175701000Y-41973500D01*
X175701000Y-43243500D02*
X175701000Y-71243500D01*
X173041000Y-71243500D02*
X175701000Y-71243500D01*
X173041000Y-43243500D02*
X173041000Y-71243500D01*
X173041000Y-43243500D02*
X175701000Y-43243500D01*
X176673000Y-44516500D02*
X176673000Y-41716500D01*
X176673000Y-41716500D02*
X178673000Y-41716500D01*
X178673000Y-41716500D02*
X178673000Y-44516500D01*
X178673000Y-44516500D02*
X176673000Y-44516500D01*
X191029000Y-35832100D02*
X193709000Y-35832100D01*
X193709000Y-42072100D02*
X191029000Y-42072100D01*
X189249000Y-41922100D02*
X189249000Y-35982100D01*
X195489000Y-41922100D02*
X195489000Y-35982100D01*
X193783214Y-38952100D02*
G75*
G03X193783214Y-38952100I-1414214J0D01*
G01*
X191029000Y-47439900D02*
X193709000Y-47439900D01*
X193709000Y-53679900D02*
X191029000Y-53679900D01*
X189249000Y-53529900D02*
X189249000Y-47589900D01*
X195489000Y-53529900D02*
X195489000Y-47589900D01*
X193783214Y-50559900D02*
G75*
G03X193783214Y-50559900I-1414214J0D01*
G01*
X191029000Y-58996900D02*
X193709000Y-58996900D01*
X193709000Y-65236900D02*
X191029000Y-65236900D01*
X189249000Y-65086900D02*
X189249000Y-59146900D01*
X195489000Y-65086900D02*
X195489000Y-59146900D01*
X193783214Y-62116900D02*
G75*
G03X193783214Y-62116900I-1414214J0D01*
G01*
X172711000Y-29119500D02*
X175171000Y-29119500D01*
X172711000Y-27649500D02*
X172711000Y-29119500D01*
X175171000Y-27649500D02*
X172711000Y-27649500D01*
X172838000Y-32929500D02*
X175298000Y-32929500D01*
X172838000Y-31459500D02*
X172838000Y-32929500D01*
X175298000Y-31459500D02*
X172838000Y-31459500D01*
X172711000Y-36866500D02*
X175171000Y-36866500D01*
X172711000Y-35396500D02*
X172711000Y-36866500D01*
X175171000Y-35396500D02*
X172711000Y-35396500D01*
X176367000Y-29329500D02*
X173507000Y-29329500D01*
X176367000Y-31249500D02*
X176367000Y-29329500D01*
X173507000Y-31249500D02*
X176367000Y-31249500D01*
X176341600Y-33266500D02*
X173481600Y-33266500D01*
X176341600Y-35186500D02*
X176341600Y-33266500D01*
X173481600Y-35186500D02*
X176341600Y-35186500D01*
X176231000Y-37076500D02*
X173371000Y-37076500D01*
X176231000Y-38996500D02*
X176231000Y-37076500D01*
X173371000Y-38996500D02*
X176231000Y-38996500D01*
X190338400Y-77520800D02*
X190338400Y-76190800D01*
X190338400Y-76190800D02*
X191668400Y-76190800D01*
X192938400Y-76190800D02*
X195538400Y-76190800D01*
X195538400Y-78850800D02*
X195538400Y-76190800D01*
X192938400Y-78850800D02*
X195538400Y-78850800D01*
X192938400Y-78850800D02*
X192938400Y-76190800D01*
X189500200Y-116763800D02*
X189500200Y-115433800D01*
X189500200Y-115433800D02*
X190830200Y-115433800D01*
X192100200Y-115433800D02*
X194700200Y-115433800D01*
X194700200Y-118093800D02*
X194700200Y-115433800D01*
X192100200Y-118093800D02*
X194700200Y-118093800D01*
X192100200Y-118093800D02*
X192100200Y-115433800D01*
X174371000Y-87316000D02*
X175701000Y-87316000D01*
X175701000Y-87316000D02*
X175701000Y-88646000D01*
X175701000Y-89916000D02*
X175701000Y-117916000D01*
X173041000Y-117916000D02*
X175701000Y-117916000D01*
X173041000Y-89916000D02*
X173041000Y-117916000D01*
X173041000Y-89916000D02*
X175701000Y-89916000D01*
X176673000Y-91189000D02*
X176673000Y-88389000D01*
X176673000Y-88389000D02*
X178673000Y-88389000D01*
X178673000Y-88389000D02*
X178673000Y-91189000D01*
X178673000Y-91189000D02*
X176673000Y-91189000D01*
X191029000Y-82504600D02*
X193709000Y-82504600D01*
X193709000Y-88744600D02*
X191029000Y-88744600D01*
X189249000Y-88594600D02*
X189249000Y-82654600D01*
X195489000Y-88594600D02*
X195489000Y-82654600D01*
X193783214Y-85624600D02*
G75*
G03X193783214Y-85624600I-1414214J0D01*
G01*
X191029000Y-94112400D02*
X193709000Y-94112400D01*
X193709000Y-100352400D02*
X191029000Y-100352400D01*
X189249000Y-100202400D02*
X189249000Y-94262400D01*
X195489000Y-100202400D02*
X195489000Y-94262400D01*
X193783214Y-97232400D02*
G75*
G03X193783214Y-97232400I-1414214J0D01*
G01*
X191029000Y-105669400D02*
X193709000Y-105669400D01*
X193709000Y-111909400D02*
X191029000Y-111909400D01*
X189249000Y-111759400D02*
X189249000Y-105819400D01*
X195489000Y-111759400D02*
X195489000Y-105819400D01*
X193783214Y-108789400D02*
G75*
G03X193783214Y-108789400I-1414214J0D01*
G01*
X172711000Y-75792000D02*
X175171000Y-75792000D01*
X172711000Y-74322000D02*
X172711000Y-75792000D01*
X175171000Y-74322000D02*
X172711000Y-74322000D01*
X172838000Y-79602000D02*
X175298000Y-79602000D01*
X172838000Y-78132000D02*
X172838000Y-79602000D01*
X175298000Y-78132000D02*
X172838000Y-78132000D01*
X172711000Y-83539000D02*
X175171000Y-83539000D01*
X172711000Y-82069000D02*
X172711000Y-83539000D01*
X175171000Y-82069000D02*
X172711000Y-82069000D01*
X176367000Y-76002000D02*
X173507000Y-76002000D01*
X176367000Y-77922000D02*
X176367000Y-76002000D01*
X173507000Y-77922000D02*
X176367000Y-77922000D01*
X176341600Y-79939000D02*
X173481600Y-79939000D01*
X176341600Y-81859000D02*
X176341600Y-79939000D01*
X173481600Y-81859000D02*
X176341600Y-81859000D01*
X176231000Y-83749000D02*
X173371000Y-83749000D01*
X176231000Y-85669000D02*
X176231000Y-83749000D01*
X173371000Y-85669000D02*
X176231000Y-85669000D01*
D10*
X126706333Y-87860142D02*
X126658714Y-87907761D01*
X126515857Y-87955380D01*
X126420619Y-87955380D01*
X126277761Y-87907761D01*
X126182523Y-87812523D01*
X126134904Y-87717285D01*
X126087285Y-87526809D01*
X126087285Y-87383952D01*
X126134904Y-87193476D01*
X126182523Y-87098238D01*
X126277761Y-87003000D01*
X126420619Y-86955380D01*
X126515857Y-86955380D01*
X126658714Y-87003000D01*
X126706333Y-87050619D01*
X127611095Y-86955380D02*
X127134904Y-86955380D01*
X127087285Y-87431571D01*
X127134904Y-87383952D01*
X127230142Y-87336333D01*
X127468238Y-87336333D01*
X127563476Y-87383952D01*
X127611095Y-87431571D01*
X127658714Y-87526809D01*
X127658714Y-87764904D01*
X127611095Y-87860142D01*
X127563476Y-87907761D01*
X127468238Y-87955380D01*
X127230142Y-87955380D01*
X127134904Y-87907761D01*
X127087285Y-87860142D01*
X129667095Y-90765380D02*
X129667095Y-91574904D01*
X129714714Y-91670142D01*
X129762333Y-91717761D01*
X129857571Y-91765380D01*
X130048047Y-91765380D01*
X130143285Y-91717761D01*
X130190904Y-91670142D01*
X130238523Y-91574904D01*
X130238523Y-90765380D01*
X130667095Y-90860619D02*
X130714714Y-90813000D01*
X130809952Y-90765380D01*
X131048047Y-90765380D01*
X131143285Y-90813000D01*
X131190904Y-90860619D01*
X131238523Y-90955857D01*
X131238523Y-91051095D01*
X131190904Y-91193952D01*
X130619476Y-91765380D01*
X131238523Y-91765380D01*
X120769142Y-87320380D02*
X120435809Y-86844190D01*
X120197714Y-87320380D02*
X120197714Y-86320380D01*
X120578666Y-86320380D01*
X120673904Y-86368000D01*
X120721523Y-86415619D01*
X120769142Y-86510857D01*
X120769142Y-86653714D01*
X120721523Y-86748952D01*
X120673904Y-86796571D01*
X120578666Y-86844190D01*
X120197714Y-86844190D01*
X121721523Y-87320380D02*
X121150095Y-87320380D01*
X121435809Y-87320380D02*
X121435809Y-86320380D01*
X121340571Y-86463238D01*
X121245333Y-86558476D01*
X121150095Y-86606095D01*
X122340571Y-86320380D02*
X122435809Y-86320380D01*
X122531047Y-86368000D01*
X122578666Y-86415619D01*
X122626285Y-86510857D01*
X122673904Y-86701333D01*
X122673904Y-86939428D01*
X122626285Y-87129904D01*
X122578666Y-87225142D01*
X122531047Y-87272761D01*
X122435809Y-87320380D01*
X122340571Y-87320380D01*
X122245333Y-87272761D01*
X122197714Y-87225142D01*
X122150095Y-87129904D01*
X122102476Y-86939428D01*
X122102476Y-86701333D01*
X122150095Y-86510857D01*
X122197714Y-86415619D01*
X122245333Y-86368000D01*
X122340571Y-86320380D01*
X120624333Y-83002380D02*
X120291000Y-82526190D01*
X120052904Y-83002380D02*
X120052904Y-82002380D01*
X120433857Y-82002380D01*
X120529095Y-82050000D01*
X120576714Y-82097619D01*
X120624333Y-82192857D01*
X120624333Y-82335714D01*
X120576714Y-82430952D01*
X120529095Y-82478571D01*
X120433857Y-82526190D01*
X120052904Y-82526190D01*
X121100523Y-83002380D02*
X121291000Y-83002380D01*
X121386238Y-82954761D01*
X121433857Y-82907142D01*
X121529095Y-82764285D01*
X121576714Y-82573809D01*
X121576714Y-82192857D01*
X121529095Y-82097619D01*
X121481476Y-82050000D01*
X121386238Y-82002380D01*
X121195761Y-82002380D01*
X121100523Y-82050000D01*
X121052904Y-82097619D01*
X121005285Y-82192857D01*
X121005285Y-82430952D01*
X121052904Y-82526190D01*
X121100523Y-82573809D01*
X121195761Y-82621428D01*
X121386238Y-82621428D01*
X121481476Y-82573809D01*
X121529095Y-82526190D01*
X121576714Y-82430952D01*
X120624333Y-78684380D02*
X120291000Y-78208190D01*
X120052904Y-78684380D02*
X120052904Y-77684380D01*
X120433857Y-77684380D01*
X120529095Y-77732000D01*
X120576714Y-77779619D01*
X120624333Y-77874857D01*
X120624333Y-78017714D01*
X120576714Y-78112952D01*
X120529095Y-78160571D01*
X120433857Y-78208190D01*
X120052904Y-78208190D01*
X120957666Y-77684380D02*
X121624333Y-77684380D01*
X121195761Y-78684380D01*
X120165904Y-89479380D02*
X120165904Y-88479380D01*
X120404000Y-88479380D01*
X120546857Y-88527000D01*
X120642095Y-88622238D01*
X120689714Y-88717476D01*
X120737333Y-88907952D01*
X120737333Y-89050809D01*
X120689714Y-89241285D01*
X120642095Y-89336523D01*
X120546857Y-89431761D01*
X120404000Y-89479380D01*
X120165904Y-89479380D01*
X121070666Y-88479380D02*
X121689714Y-88479380D01*
X121356380Y-88860333D01*
X121499238Y-88860333D01*
X121594476Y-88907952D01*
X121642095Y-88955571D01*
X121689714Y-89050809D01*
X121689714Y-89288904D01*
X121642095Y-89384142D01*
X121594476Y-89431761D01*
X121499238Y-89479380D01*
X121213523Y-89479380D01*
X121118285Y-89431761D01*
X121070666Y-89384142D01*
X120165904Y-85161380D02*
X120165904Y-84161380D01*
X120404000Y-84161380D01*
X120546857Y-84209000D01*
X120642095Y-84304238D01*
X120689714Y-84399476D01*
X120737333Y-84589952D01*
X120737333Y-84732809D01*
X120689714Y-84923285D01*
X120642095Y-85018523D01*
X120546857Y-85113761D01*
X120404000Y-85161380D01*
X120165904Y-85161380D01*
X121118285Y-84256619D02*
X121165904Y-84209000D01*
X121261142Y-84161380D01*
X121499238Y-84161380D01*
X121594476Y-84209000D01*
X121642095Y-84256619D01*
X121689714Y-84351857D01*
X121689714Y-84447095D01*
X121642095Y-84589952D01*
X121070666Y-85161380D01*
X121689714Y-85161380D01*
X120165904Y-80843380D02*
X120165904Y-79843380D01*
X120404000Y-79843380D01*
X120546857Y-79891000D01*
X120642095Y-79986238D01*
X120689714Y-80081476D01*
X120737333Y-80271952D01*
X120737333Y-80414809D01*
X120689714Y-80605285D01*
X120642095Y-80700523D01*
X120546857Y-80795761D01*
X120404000Y-80843380D01*
X120165904Y-80843380D01*
X121689714Y-80843380D02*
X121118285Y-80843380D01*
X121404000Y-80843380D02*
X121404000Y-79843380D01*
X121308761Y-79986238D01*
X121213523Y-80081476D01*
X121118285Y-80129095D01*
X140366809Y-85701190D02*
X140366809Y-86177380D01*
X140033476Y-85177380D02*
X140366809Y-85701190D01*
X140700142Y-85177380D01*
X141557285Y-86177380D02*
X140985857Y-86177380D01*
X141271571Y-86177380D02*
X141271571Y-85177380D01*
X141176333Y-85320238D01*
X141081095Y-85415476D01*
X140985857Y-85463095D01*
X142406619Y-95123095D02*
X141597095Y-95123095D01*
X141501857Y-95170714D01*
X141454238Y-95218333D01*
X141406619Y-95313571D01*
X141406619Y-95504047D01*
X141454238Y-95599285D01*
X141501857Y-95646904D01*
X141597095Y-95694523D01*
X142406619Y-95694523D01*
X141406619Y-96694523D02*
X141406619Y-96123095D01*
X141406619Y-96408809D02*
X142406619Y-96408809D01*
X142263761Y-96313571D01*
X142168523Y-96218333D01*
X142120904Y-96123095D01*
X126222333Y-103465380D02*
X126793761Y-103465380D01*
X126508047Y-104465380D02*
X126508047Y-103465380D01*
X126984238Y-103465380D02*
X127317571Y-104465380D01*
X127650904Y-103465380D01*
X127936619Y-104417761D02*
X128079476Y-104465380D01*
X128317571Y-104465380D01*
X128412809Y-104417761D01*
X128460428Y-104370142D01*
X128508047Y-104274904D01*
X128508047Y-104179666D01*
X128460428Y-104084428D01*
X128412809Y-104036809D01*
X128317571Y-103989190D01*
X128127095Y-103941571D01*
X128031857Y-103893952D01*
X127984238Y-103846333D01*
X127936619Y-103751095D01*
X127936619Y-103655857D01*
X127984238Y-103560619D01*
X128031857Y-103513000D01*
X128127095Y-103465380D01*
X128365190Y-103465380D01*
X128508047Y-103513000D01*
X129460428Y-104465380D02*
X128889000Y-104465380D01*
X129174714Y-104465380D02*
X129174714Y-103465380D01*
X129079476Y-103608238D01*
X128984238Y-103703476D01*
X128889000Y-103751095D01*
X151392095Y-82129380D02*
X151963523Y-82129380D01*
X151677809Y-83129380D02*
X151677809Y-82129380D01*
X152296857Y-83129380D02*
X152296857Y-82129380D01*
X152677809Y-82129380D01*
X152773047Y-82177000D01*
X152820666Y-82224619D01*
X152868285Y-82319857D01*
X152868285Y-82462714D01*
X152820666Y-82557952D01*
X152773047Y-82605571D01*
X152677809Y-82653190D01*
X152296857Y-82653190D01*
X153820666Y-83129380D02*
X153249238Y-83129380D01*
X153534952Y-83129380D02*
X153534952Y-82129380D01*
X153439714Y-82272238D01*
X153344476Y-82367476D01*
X153249238Y-82415095D01*
X140708142Y-88844380D02*
X140374809Y-88368190D01*
X140136714Y-88844380D02*
X140136714Y-87844380D01*
X140517666Y-87844380D01*
X140612904Y-87892000D01*
X140660523Y-87939619D01*
X140708142Y-88034857D01*
X140708142Y-88177714D01*
X140660523Y-88272952D01*
X140612904Y-88320571D01*
X140517666Y-88368190D01*
X140136714Y-88368190D01*
X141660523Y-88844380D02*
X141089095Y-88844380D01*
X141374809Y-88844380D02*
X141374809Y-87844380D01*
X141279571Y-87987238D01*
X141184333Y-88082476D01*
X141089095Y-88130095D01*
X142041476Y-87939619D02*
X142089095Y-87892000D01*
X142184333Y-87844380D01*
X142422428Y-87844380D01*
X142517666Y-87892000D01*
X142565285Y-87939619D01*
X142612904Y-88034857D01*
X142612904Y-88130095D01*
X142565285Y-88272952D01*
X141993857Y-88844380D01*
X142612904Y-88844380D01*
X130517619Y-81907142D02*
X130993809Y-81573809D01*
X130517619Y-81335714D02*
X131517619Y-81335714D01*
X131517619Y-81716666D01*
X131470000Y-81811904D01*
X131422380Y-81859523D01*
X131327142Y-81907142D01*
X131184285Y-81907142D01*
X131089047Y-81859523D01*
X131041428Y-81811904D01*
X130993809Y-81716666D01*
X130993809Y-81335714D01*
X130517619Y-82859523D02*
X130517619Y-82288095D01*
X130517619Y-82573809D02*
X131517619Y-82573809D01*
X131374761Y-82478571D01*
X131279523Y-82383333D01*
X131231904Y-82288095D01*
X130517619Y-83811904D02*
X130517619Y-83240476D01*
X130517619Y-83526190D02*
X131517619Y-83526190D01*
X131374761Y-83430952D01*
X131279523Y-83335714D01*
X131231904Y-83240476D01*
X127087333Y-99512380D02*
X126754000Y-99036190D01*
X126515904Y-99512380D02*
X126515904Y-98512380D01*
X126896857Y-98512380D01*
X126992095Y-98560000D01*
X127039714Y-98607619D01*
X127087333Y-98702857D01*
X127087333Y-98845714D01*
X127039714Y-98940952D01*
X126992095Y-98988571D01*
X126896857Y-99036190D01*
X126515904Y-99036190D01*
X127658761Y-98940952D02*
X127563523Y-98893333D01*
X127515904Y-98845714D01*
X127468285Y-98750476D01*
X127468285Y-98702857D01*
X127515904Y-98607619D01*
X127563523Y-98560000D01*
X127658761Y-98512380D01*
X127849238Y-98512380D01*
X127944476Y-98560000D01*
X127992095Y-98607619D01*
X128039714Y-98702857D01*
X128039714Y-98750476D01*
X127992095Y-98845714D01*
X127944476Y-98893333D01*
X127849238Y-98940952D01*
X127658761Y-98940952D01*
X127563523Y-98988571D01*
X127515904Y-99036190D01*
X127468285Y-99131428D01*
X127468285Y-99321904D01*
X127515904Y-99417142D01*
X127563523Y-99464761D01*
X127658761Y-99512380D01*
X127849238Y-99512380D01*
X127944476Y-99464761D01*
X127992095Y-99417142D01*
X128039714Y-99321904D01*
X128039714Y-99131428D01*
X127992095Y-99036190D01*
X127944476Y-98988571D01*
X127849238Y-98940952D01*
X135596333Y-109037380D02*
X135263000Y-108561190D01*
X135024904Y-109037380D02*
X135024904Y-108037380D01*
X135405857Y-108037380D01*
X135501095Y-108085000D01*
X135548714Y-108132619D01*
X135596333Y-108227857D01*
X135596333Y-108370714D01*
X135548714Y-108465952D01*
X135501095Y-108513571D01*
X135405857Y-108561190D01*
X135024904Y-108561190D01*
X136453476Y-108037380D02*
X136263000Y-108037380D01*
X136167761Y-108085000D01*
X136120142Y-108132619D01*
X136024904Y-108275476D01*
X135977285Y-108465952D01*
X135977285Y-108846904D01*
X136024904Y-108942142D01*
X136072523Y-108989761D01*
X136167761Y-109037380D01*
X136358238Y-109037380D01*
X136453476Y-108989761D01*
X136501095Y-108942142D01*
X136548714Y-108846904D01*
X136548714Y-108608809D01*
X136501095Y-108513571D01*
X136453476Y-108465952D01*
X136358238Y-108418333D01*
X136167761Y-108418333D01*
X136072523Y-108465952D01*
X136024904Y-108513571D01*
X135977285Y-108608809D01*
X136420619Y-100304333D02*
X136896809Y-99971000D01*
X136420619Y-99732904D02*
X137420619Y-99732904D01*
X137420619Y-100113857D01*
X137373000Y-100209095D01*
X137325380Y-100256714D01*
X137230142Y-100304333D01*
X137087285Y-100304333D01*
X136992047Y-100256714D01*
X136944428Y-100209095D01*
X136896809Y-100113857D01*
X136896809Y-99732904D01*
X137420619Y-101209095D02*
X137420619Y-100732904D01*
X136944428Y-100685285D01*
X136992047Y-100732904D01*
X137039666Y-100828142D01*
X137039666Y-101066238D01*
X136992047Y-101161476D01*
X136944428Y-101209095D01*
X136849190Y-101256714D01*
X136611095Y-101256714D01*
X136515857Y-101209095D01*
X136468238Y-101161476D01*
X136420619Y-101066238D01*
X136420619Y-100828142D01*
X136468238Y-100732904D01*
X136515857Y-100685285D01*
X141692333Y-109037380D02*
X141359000Y-108561190D01*
X141120904Y-109037380D02*
X141120904Y-108037380D01*
X141501857Y-108037380D01*
X141597095Y-108085000D01*
X141644714Y-108132619D01*
X141692333Y-108227857D01*
X141692333Y-108370714D01*
X141644714Y-108465952D01*
X141597095Y-108513571D01*
X141501857Y-108561190D01*
X141120904Y-108561190D01*
X142549476Y-108370714D02*
X142549476Y-109037380D01*
X142311380Y-107989761D02*
X142073285Y-108704047D01*
X142692333Y-108704047D01*
X153122333Y-107894380D02*
X152789000Y-107418190D01*
X152550904Y-107894380D02*
X152550904Y-106894380D01*
X152931857Y-106894380D01*
X153027095Y-106942000D01*
X153074714Y-106989619D01*
X153122333Y-107084857D01*
X153122333Y-107227714D01*
X153074714Y-107322952D01*
X153027095Y-107370571D01*
X152931857Y-107418190D01*
X152550904Y-107418190D01*
X153455666Y-106894380D02*
X154074714Y-106894380D01*
X153741380Y-107275333D01*
X153884238Y-107275333D01*
X153979476Y-107322952D01*
X154027095Y-107370571D01*
X154074714Y-107465809D01*
X154074714Y-107703904D01*
X154027095Y-107799142D01*
X153979476Y-107846761D01*
X153884238Y-107894380D01*
X153598523Y-107894380D01*
X153503285Y-107846761D01*
X153455666Y-107799142D01*
X140676333Y-90876380D02*
X140343000Y-90400190D01*
X140104904Y-90876380D02*
X140104904Y-89876380D01*
X140485857Y-89876380D01*
X140581095Y-89924000D01*
X140628714Y-89971619D01*
X140676333Y-90066857D01*
X140676333Y-90209714D01*
X140628714Y-90304952D01*
X140581095Y-90352571D01*
X140485857Y-90400190D01*
X140104904Y-90400190D01*
X141057285Y-89971619D02*
X141104904Y-89924000D01*
X141200142Y-89876380D01*
X141438238Y-89876380D01*
X141533476Y-89924000D01*
X141581095Y-89971619D01*
X141628714Y-90066857D01*
X141628714Y-90162095D01*
X141581095Y-90304952D01*
X141009666Y-90876380D01*
X141628714Y-90876380D01*
X151090333Y-107894380D02*
X150757000Y-107418190D01*
X150518904Y-107894380D02*
X150518904Y-106894380D01*
X150899857Y-106894380D01*
X150995095Y-106942000D01*
X151042714Y-106989619D01*
X151090333Y-107084857D01*
X151090333Y-107227714D01*
X151042714Y-107322952D01*
X150995095Y-107370571D01*
X150899857Y-107418190D01*
X150518904Y-107418190D01*
X152042714Y-107894380D02*
X151471285Y-107894380D01*
X151757000Y-107894380D02*
X151757000Y-106894380D01*
X151661761Y-107037238D01*
X151566523Y-107132476D01*
X151471285Y-107180095D01*
X132294333Y-106751380D02*
X131818142Y-106751380D01*
X131818142Y-105751380D01*
X133151476Y-106751380D02*
X132580047Y-106751380D01*
X132865761Y-106751380D02*
X132865761Y-105751380D01*
X132770523Y-105894238D01*
X132675285Y-105989476D01*
X132580047Y-106037095D01*
X133239190Y-83764380D02*
X133239190Y-82764380D01*
X133572523Y-83478666D01*
X133905857Y-82764380D01*
X133905857Y-83764380D01*
X134905857Y-83764380D02*
X134334428Y-83764380D01*
X134620142Y-83764380D02*
X134620142Y-82764380D01*
X134524904Y-82907238D01*
X134429666Y-83002476D01*
X134334428Y-83050095D01*
X135096333Y-83859619D02*
X135858238Y-83859619D01*
X136048714Y-83716761D02*
X136191571Y-83764380D01*
X136429666Y-83764380D01*
X136524904Y-83716761D01*
X136572523Y-83669142D01*
X136620142Y-83573904D01*
X136620142Y-83478666D01*
X136572523Y-83383428D01*
X136524904Y-83335809D01*
X136429666Y-83288190D01*
X136239190Y-83240571D01*
X136143952Y-83192952D01*
X136096333Y-83145333D01*
X136048714Y-83050095D01*
X136048714Y-82954857D01*
X136096333Y-82859619D01*
X136143952Y-82812000D01*
X136239190Y-82764380D01*
X136477285Y-82764380D01*
X136620142Y-82812000D01*
X137048714Y-83240571D02*
X137382047Y-83240571D01*
X137524904Y-83764380D02*
X137048714Y-83764380D01*
X137048714Y-82764380D01*
X137524904Y-82764380D01*
X138429666Y-83764380D02*
X137953476Y-83764380D01*
X137953476Y-82764380D01*
X132859666Y-85542380D02*
X132859666Y-84542380D01*
X133193000Y-85256666D01*
X133526333Y-84542380D01*
X133526333Y-85542380D01*
X138059666Y-84542380D02*
X138726333Y-85542380D01*
X138726333Y-84542380D02*
X138059666Y-85542380D01*
X132985190Y-80081380D02*
X132985190Y-79081380D01*
X133318523Y-79795666D01*
X133651857Y-79081380D01*
X133651857Y-80081380D01*
X134318523Y-79081380D02*
X134413761Y-79081380D01*
X134509000Y-79129000D01*
X134556619Y-79176619D01*
X134604238Y-79271857D01*
X134651857Y-79462333D01*
X134651857Y-79700428D01*
X134604238Y-79890904D01*
X134556619Y-79986142D01*
X134509000Y-80033761D01*
X134413761Y-80081380D01*
X134318523Y-80081380D01*
X134223285Y-80033761D01*
X134175666Y-79986142D01*
X134128047Y-79890904D01*
X134080428Y-79700428D01*
X134080428Y-79462333D01*
X134128047Y-79271857D01*
X134175666Y-79176619D01*
X134223285Y-79129000D01*
X134318523Y-79081380D01*
X134842333Y-80176619D02*
X135604238Y-80176619D01*
X135794714Y-80033761D02*
X135937571Y-80081380D01*
X136175666Y-80081380D01*
X136270904Y-80033761D01*
X136318523Y-79986142D01*
X136366142Y-79890904D01*
X136366142Y-79795666D01*
X136318523Y-79700428D01*
X136270904Y-79652809D01*
X136175666Y-79605190D01*
X135985190Y-79557571D01*
X135889952Y-79509952D01*
X135842333Y-79462333D01*
X135794714Y-79367095D01*
X135794714Y-79271857D01*
X135842333Y-79176619D01*
X135889952Y-79129000D01*
X135985190Y-79081380D01*
X136223285Y-79081380D01*
X136366142Y-79129000D01*
X136794714Y-79557571D02*
X137128047Y-79557571D01*
X137270904Y-80081380D02*
X136794714Y-80081380D01*
X136794714Y-79081380D01*
X137270904Y-79081380D01*
X138175666Y-80081380D02*
X137699476Y-80081380D01*
X137699476Y-79081380D01*
X132829666Y-81859380D02*
X132829666Y-80859380D01*
X133163000Y-81573666D01*
X133496333Y-80859380D01*
X133496333Y-81859380D01*
X138029666Y-80859380D02*
X138696333Y-81859380D01*
X138696333Y-80859380D02*
X138029666Y-81859380D01*
X158170619Y-106815333D02*
X158646809Y-106482000D01*
X158170619Y-106243904D02*
X159170619Y-106243904D01*
X159170619Y-106624857D01*
X159123000Y-106720095D01*
X159075380Y-106767714D01*
X158980142Y-106815333D01*
X158837285Y-106815333D01*
X158742047Y-106767714D01*
X158694428Y-106720095D01*
X158646809Y-106624857D01*
X158646809Y-106243904D01*
X158694428Y-107243904D02*
X158694428Y-107577238D01*
X158170619Y-107720095D02*
X158170619Y-107243904D01*
X159170619Y-107243904D01*
X159170619Y-107720095D01*
X158218238Y-108101047D02*
X158170619Y-108243904D01*
X158170619Y-108482000D01*
X158218238Y-108577238D01*
X158265857Y-108624857D01*
X158361095Y-108672476D01*
X158456333Y-108672476D01*
X158551571Y-108624857D01*
X158599190Y-108577238D01*
X158646809Y-108482000D01*
X158694428Y-108291523D01*
X158742047Y-108196285D01*
X158789666Y-108148666D01*
X158884904Y-108101047D01*
X158980142Y-108101047D01*
X159075380Y-108148666D01*
X159123000Y-108196285D01*
X159170619Y-108291523D01*
X159170619Y-108529619D01*
X159123000Y-108672476D01*
X158694428Y-109101047D02*
X158694428Y-109434380D01*
X158170619Y-109577238D02*
X158170619Y-109101047D01*
X159170619Y-109101047D01*
X159170619Y-109577238D01*
X159170619Y-109862952D02*
X159170619Y-110434380D01*
X158170619Y-110148666D02*
X159170619Y-110148666D01*
X158075380Y-110529619D02*
X158075380Y-111291523D01*
X158218238Y-111482000D02*
X158170619Y-111624857D01*
X158170619Y-111862952D01*
X158218238Y-111958190D01*
X158265857Y-112005809D01*
X158361095Y-112053428D01*
X158456333Y-112053428D01*
X158551571Y-112005809D01*
X158599190Y-111958190D01*
X158646809Y-111862952D01*
X158694428Y-111672476D01*
X158742047Y-111577238D01*
X158789666Y-111529619D01*
X158884904Y-111482000D01*
X158980142Y-111482000D01*
X159075380Y-111529619D01*
X159123000Y-111577238D01*
X159170619Y-111672476D01*
X159170619Y-111910571D01*
X159123000Y-112053428D01*
X158694428Y-112482000D02*
X158694428Y-112815333D01*
X158170619Y-112958190D02*
X158170619Y-112482000D01*
X159170619Y-112482000D01*
X159170619Y-112958190D01*
X158170619Y-113862952D02*
X158170619Y-113386761D01*
X159170619Y-113386761D01*
X163623666Y-113982380D02*
X163623666Y-114696666D01*
X163576047Y-114839523D01*
X163480809Y-114934761D01*
X163337952Y-114982380D01*
X163242714Y-114982380D01*
X164528428Y-114315714D02*
X164528428Y-114982380D01*
X164290333Y-113934761D02*
X164052238Y-114649047D01*
X164671285Y-114649047D01*
X123102619Y-106727666D02*
X122388333Y-106727666D01*
X122245476Y-106680047D01*
X122150238Y-106584809D01*
X122102619Y-106441952D01*
X122102619Y-106346714D01*
X123102619Y-107108619D02*
X123102619Y-107727666D01*
X122721666Y-107394333D01*
X122721666Y-107537190D01*
X122674047Y-107632428D01*
X122626428Y-107680047D01*
X122531190Y-107727666D01*
X122293095Y-107727666D01*
X122197857Y-107680047D01*
X122150238Y-107632428D01*
X122102619Y-107537190D01*
X122102619Y-107251476D01*
X122150238Y-107156238D01*
X122197857Y-107108619D01*
X160956666Y-83399380D02*
X160956666Y-84113666D01*
X160909047Y-84256523D01*
X160813809Y-84351761D01*
X160670952Y-84399380D01*
X160575714Y-84399380D01*
X161385238Y-83494619D02*
X161432857Y-83447000D01*
X161528095Y-83399380D01*
X161766190Y-83399380D01*
X161861428Y-83447000D01*
X161909047Y-83494619D01*
X161956666Y-83589857D01*
X161956666Y-83685095D01*
X161909047Y-83827952D01*
X161337619Y-84399380D01*
X161956666Y-84399380D01*
X120850619Y-116506666D02*
X120136333Y-116506666D01*
X119993476Y-116459047D01*
X119898238Y-116363809D01*
X119850619Y-116220952D01*
X119850619Y-116125714D01*
X119850619Y-117506666D02*
X119850619Y-116935238D01*
X119850619Y-117220952D02*
X120850619Y-117220952D01*
X120707761Y-117125714D01*
X120612523Y-117030476D01*
X120564904Y-116935238D01*
X122102619Y-118903714D02*
X122102619Y-118332285D01*
X122102619Y-118618000D02*
X123102619Y-118618000D01*
X122959761Y-118522761D01*
X122864523Y-118427523D01*
X122816904Y-118332285D01*
X127087333Y-102211142D02*
X127039714Y-102258761D01*
X126896857Y-102306380D01*
X126801619Y-102306380D01*
X126658761Y-102258761D01*
X126563523Y-102163523D01*
X126515904Y-102068285D01*
X126468285Y-101877809D01*
X126468285Y-101734952D01*
X126515904Y-101544476D01*
X126563523Y-101449238D01*
X126658761Y-101354000D01*
X126801619Y-101306380D01*
X126896857Y-101306380D01*
X127039714Y-101354000D01*
X127087333Y-101401619D01*
X127420666Y-101306380D02*
X128087333Y-101306380D01*
X127658761Y-102306380D01*
X133056333Y-99417142D02*
X133008714Y-99464761D01*
X132865857Y-99512380D01*
X132770619Y-99512380D01*
X132627761Y-99464761D01*
X132532523Y-99369523D01*
X132484904Y-99274285D01*
X132437285Y-99083809D01*
X132437285Y-98940952D01*
X132484904Y-98750476D01*
X132532523Y-98655238D01*
X132627761Y-98560000D01*
X132770619Y-98512380D01*
X132865857Y-98512380D01*
X133008714Y-98560000D01*
X133056333Y-98607619D01*
X133913476Y-98512380D02*
X133723000Y-98512380D01*
X133627761Y-98560000D01*
X133580142Y-98607619D01*
X133484904Y-98750476D01*
X133437285Y-98940952D01*
X133437285Y-99321904D01*
X133484904Y-99417142D01*
X133532523Y-99464761D01*
X133627761Y-99512380D01*
X133818238Y-99512380D01*
X133913476Y-99464761D01*
X133961095Y-99417142D01*
X134008714Y-99321904D01*
X134008714Y-99083809D01*
X133961095Y-98988571D01*
X133913476Y-98940952D01*
X133818238Y-98893333D01*
X133627761Y-98893333D01*
X133532523Y-98940952D01*
X133484904Y-98988571D01*
X133437285Y-99083809D01*
X138517333Y-108942142D02*
X138469714Y-108989761D01*
X138326857Y-109037380D01*
X138231619Y-109037380D01*
X138088761Y-108989761D01*
X137993523Y-108894523D01*
X137945904Y-108799285D01*
X137898285Y-108608809D01*
X137898285Y-108465952D01*
X137945904Y-108275476D01*
X137993523Y-108180238D01*
X138088761Y-108085000D01*
X138231619Y-108037380D01*
X138326857Y-108037380D01*
X138469714Y-108085000D01*
X138517333Y-108132619D01*
X139374476Y-108370714D02*
X139374476Y-109037380D01*
X139136380Y-107989761D02*
X138898285Y-108704047D01*
X139517333Y-108704047D01*
X157282857Y-98639333D02*
X157235238Y-98591714D01*
X157187619Y-98448857D01*
X157187619Y-98353619D01*
X157235238Y-98210761D01*
X157330476Y-98115523D01*
X157425714Y-98067904D01*
X157616190Y-98020285D01*
X157759047Y-98020285D01*
X157949523Y-98067904D01*
X158044761Y-98115523D01*
X158140000Y-98210761D01*
X158187619Y-98353619D01*
X158187619Y-98448857D01*
X158140000Y-98591714D01*
X158092380Y-98639333D01*
X158187619Y-98972666D02*
X158187619Y-99591714D01*
X157806666Y-99258380D01*
X157806666Y-99401238D01*
X157759047Y-99496476D01*
X157711428Y-99544095D01*
X157616190Y-99591714D01*
X157378095Y-99591714D01*
X157282857Y-99544095D01*
X157235238Y-99496476D01*
X157187619Y-99401238D01*
X157187619Y-99115523D01*
X157235238Y-99020285D01*
X157282857Y-98972666D01*
X148296333Y-81002142D02*
X148248714Y-81049761D01*
X148105857Y-81097380D01*
X148010619Y-81097380D01*
X147867761Y-81049761D01*
X147772523Y-80954523D01*
X147724904Y-80859285D01*
X147677285Y-80668809D01*
X147677285Y-80525952D01*
X147724904Y-80335476D01*
X147772523Y-80240238D01*
X147867761Y-80145000D01*
X148010619Y-80097380D01*
X148105857Y-80097380D01*
X148248714Y-80145000D01*
X148296333Y-80192619D01*
X148677285Y-80192619D02*
X148724904Y-80145000D01*
X148820142Y-80097380D01*
X149058238Y-80097380D01*
X149153476Y-80145000D01*
X149201095Y-80192619D01*
X149248714Y-80287857D01*
X149248714Y-80383095D01*
X149201095Y-80525952D01*
X148629666Y-81097380D01*
X149248714Y-81097380D01*
X143470333Y-81002142D02*
X143422714Y-81049761D01*
X143279857Y-81097380D01*
X143184619Y-81097380D01*
X143041761Y-81049761D01*
X142946523Y-80954523D01*
X142898904Y-80859285D01*
X142851285Y-80668809D01*
X142851285Y-80525952D01*
X142898904Y-80335476D01*
X142946523Y-80240238D01*
X143041761Y-80145000D01*
X143184619Y-80097380D01*
X143279857Y-80097380D01*
X143422714Y-80145000D01*
X143470333Y-80192619D01*
X144422714Y-81097380D02*
X143851285Y-81097380D01*
X144137000Y-81097380D02*
X144137000Y-80097380D01*
X144041761Y-80240238D01*
X143946523Y-80335476D01*
X143851285Y-80383095D01*
X126706333Y-41187642D02*
X126658714Y-41235261D01*
X126515857Y-41282880D01*
X126420619Y-41282880D01*
X126277761Y-41235261D01*
X126182523Y-41140023D01*
X126134904Y-41044785D01*
X126087285Y-40854309D01*
X126087285Y-40711452D01*
X126134904Y-40520976D01*
X126182523Y-40425738D01*
X126277761Y-40330500D01*
X126420619Y-40282880D01*
X126515857Y-40282880D01*
X126658714Y-40330500D01*
X126706333Y-40378119D01*
X127611095Y-40282880D02*
X127134904Y-40282880D01*
X127087285Y-40759071D01*
X127134904Y-40711452D01*
X127230142Y-40663833D01*
X127468238Y-40663833D01*
X127563476Y-40711452D01*
X127611095Y-40759071D01*
X127658714Y-40854309D01*
X127658714Y-41092404D01*
X127611095Y-41187642D01*
X127563476Y-41235261D01*
X127468238Y-41282880D01*
X127230142Y-41282880D01*
X127134904Y-41235261D01*
X127087285Y-41187642D01*
X129667095Y-44092880D02*
X129667095Y-44902404D01*
X129714714Y-44997642D01*
X129762333Y-45045261D01*
X129857571Y-45092880D01*
X130048047Y-45092880D01*
X130143285Y-45045261D01*
X130190904Y-44997642D01*
X130238523Y-44902404D01*
X130238523Y-44092880D01*
X130667095Y-44188119D02*
X130714714Y-44140500D01*
X130809952Y-44092880D01*
X131048047Y-44092880D01*
X131143285Y-44140500D01*
X131190904Y-44188119D01*
X131238523Y-44283357D01*
X131238523Y-44378595D01*
X131190904Y-44521452D01*
X130619476Y-45092880D01*
X131238523Y-45092880D01*
X120769142Y-40647880D02*
X120435809Y-40171690D01*
X120197714Y-40647880D02*
X120197714Y-39647880D01*
X120578666Y-39647880D01*
X120673904Y-39695500D01*
X120721523Y-39743119D01*
X120769142Y-39838357D01*
X120769142Y-39981214D01*
X120721523Y-40076452D01*
X120673904Y-40124071D01*
X120578666Y-40171690D01*
X120197714Y-40171690D01*
X121721523Y-40647880D02*
X121150095Y-40647880D01*
X121435809Y-40647880D02*
X121435809Y-39647880D01*
X121340571Y-39790738D01*
X121245333Y-39885976D01*
X121150095Y-39933595D01*
X122340571Y-39647880D02*
X122435809Y-39647880D01*
X122531047Y-39695500D01*
X122578666Y-39743119D01*
X122626285Y-39838357D01*
X122673904Y-40028833D01*
X122673904Y-40266928D01*
X122626285Y-40457404D01*
X122578666Y-40552642D01*
X122531047Y-40600261D01*
X122435809Y-40647880D01*
X122340571Y-40647880D01*
X122245333Y-40600261D01*
X122197714Y-40552642D01*
X122150095Y-40457404D01*
X122102476Y-40266928D01*
X122102476Y-40028833D01*
X122150095Y-39838357D01*
X122197714Y-39743119D01*
X122245333Y-39695500D01*
X122340571Y-39647880D01*
X120624333Y-36329880D02*
X120291000Y-35853690D01*
X120052904Y-36329880D02*
X120052904Y-35329880D01*
X120433857Y-35329880D01*
X120529095Y-35377500D01*
X120576714Y-35425119D01*
X120624333Y-35520357D01*
X120624333Y-35663214D01*
X120576714Y-35758452D01*
X120529095Y-35806071D01*
X120433857Y-35853690D01*
X120052904Y-35853690D01*
X121100523Y-36329880D02*
X121291000Y-36329880D01*
X121386238Y-36282261D01*
X121433857Y-36234642D01*
X121529095Y-36091785D01*
X121576714Y-35901309D01*
X121576714Y-35520357D01*
X121529095Y-35425119D01*
X121481476Y-35377500D01*
X121386238Y-35329880D01*
X121195761Y-35329880D01*
X121100523Y-35377500D01*
X121052904Y-35425119D01*
X121005285Y-35520357D01*
X121005285Y-35758452D01*
X121052904Y-35853690D01*
X121100523Y-35901309D01*
X121195761Y-35948928D01*
X121386238Y-35948928D01*
X121481476Y-35901309D01*
X121529095Y-35853690D01*
X121576714Y-35758452D01*
X120624333Y-32011880D02*
X120291000Y-31535690D01*
X120052904Y-32011880D02*
X120052904Y-31011880D01*
X120433857Y-31011880D01*
X120529095Y-31059500D01*
X120576714Y-31107119D01*
X120624333Y-31202357D01*
X120624333Y-31345214D01*
X120576714Y-31440452D01*
X120529095Y-31488071D01*
X120433857Y-31535690D01*
X120052904Y-31535690D01*
X120957666Y-31011880D02*
X121624333Y-31011880D01*
X121195761Y-32011880D01*
X120165904Y-42806880D02*
X120165904Y-41806880D01*
X120404000Y-41806880D01*
X120546857Y-41854500D01*
X120642095Y-41949738D01*
X120689714Y-42044976D01*
X120737333Y-42235452D01*
X120737333Y-42378309D01*
X120689714Y-42568785D01*
X120642095Y-42664023D01*
X120546857Y-42759261D01*
X120404000Y-42806880D01*
X120165904Y-42806880D01*
X121070666Y-41806880D02*
X121689714Y-41806880D01*
X121356380Y-42187833D01*
X121499238Y-42187833D01*
X121594476Y-42235452D01*
X121642095Y-42283071D01*
X121689714Y-42378309D01*
X121689714Y-42616404D01*
X121642095Y-42711642D01*
X121594476Y-42759261D01*
X121499238Y-42806880D01*
X121213523Y-42806880D01*
X121118285Y-42759261D01*
X121070666Y-42711642D01*
X120165904Y-38488880D02*
X120165904Y-37488880D01*
X120404000Y-37488880D01*
X120546857Y-37536500D01*
X120642095Y-37631738D01*
X120689714Y-37726976D01*
X120737333Y-37917452D01*
X120737333Y-38060309D01*
X120689714Y-38250785D01*
X120642095Y-38346023D01*
X120546857Y-38441261D01*
X120404000Y-38488880D01*
X120165904Y-38488880D01*
X121118285Y-37584119D02*
X121165904Y-37536500D01*
X121261142Y-37488880D01*
X121499238Y-37488880D01*
X121594476Y-37536500D01*
X121642095Y-37584119D01*
X121689714Y-37679357D01*
X121689714Y-37774595D01*
X121642095Y-37917452D01*
X121070666Y-38488880D01*
X121689714Y-38488880D01*
X120165904Y-34170880D02*
X120165904Y-33170880D01*
X120404000Y-33170880D01*
X120546857Y-33218500D01*
X120642095Y-33313738D01*
X120689714Y-33408976D01*
X120737333Y-33599452D01*
X120737333Y-33742309D01*
X120689714Y-33932785D01*
X120642095Y-34028023D01*
X120546857Y-34123261D01*
X120404000Y-34170880D01*
X120165904Y-34170880D01*
X121689714Y-34170880D02*
X121118285Y-34170880D01*
X121404000Y-34170880D02*
X121404000Y-33170880D01*
X121308761Y-33313738D01*
X121213523Y-33408976D01*
X121118285Y-33456595D01*
X140366809Y-39028690D02*
X140366809Y-39504880D01*
X140033476Y-38504880D02*
X140366809Y-39028690D01*
X140700142Y-38504880D01*
X141557285Y-39504880D02*
X140985857Y-39504880D01*
X141271571Y-39504880D02*
X141271571Y-38504880D01*
X141176333Y-38647738D01*
X141081095Y-38742976D01*
X140985857Y-38790595D01*
X142406619Y-48450595D02*
X141597095Y-48450595D01*
X141501857Y-48498214D01*
X141454238Y-48545833D01*
X141406619Y-48641071D01*
X141406619Y-48831547D01*
X141454238Y-48926785D01*
X141501857Y-48974404D01*
X141597095Y-49022023D01*
X142406619Y-49022023D01*
X141406619Y-50022023D02*
X141406619Y-49450595D01*
X141406619Y-49736309D02*
X142406619Y-49736309D01*
X142263761Y-49641071D01*
X142168523Y-49545833D01*
X142120904Y-49450595D01*
X126222333Y-56792880D02*
X126793761Y-56792880D01*
X126508047Y-57792880D02*
X126508047Y-56792880D01*
X126984238Y-56792880D02*
X127317571Y-57792880D01*
X127650904Y-56792880D01*
X127936619Y-57745261D02*
X128079476Y-57792880D01*
X128317571Y-57792880D01*
X128412809Y-57745261D01*
X128460428Y-57697642D01*
X128508047Y-57602404D01*
X128508047Y-57507166D01*
X128460428Y-57411928D01*
X128412809Y-57364309D01*
X128317571Y-57316690D01*
X128127095Y-57269071D01*
X128031857Y-57221452D01*
X127984238Y-57173833D01*
X127936619Y-57078595D01*
X127936619Y-56983357D01*
X127984238Y-56888119D01*
X128031857Y-56840500D01*
X128127095Y-56792880D01*
X128365190Y-56792880D01*
X128508047Y-56840500D01*
X129460428Y-57792880D02*
X128889000Y-57792880D01*
X129174714Y-57792880D02*
X129174714Y-56792880D01*
X129079476Y-56935738D01*
X128984238Y-57030976D01*
X128889000Y-57078595D01*
X151392095Y-35456880D02*
X151963523Y-35456880D01*
X151677809Y-36456880D02*
X151677809Y-35456880D01*
X152296857Y-36456880D02*
X152296857Y-35456880D01*
X152677809Y-35456880D01*
X152773047Y-35504500D01*
X152820666Y-35552119D01*
X152868285Y-35647357D01*
X152868285Y-35790214D01*
X152820666Y-35885452D01*
X152773047Y-35933071D01*
X152677809Y-35980690D01*
X152296857Y-35980690D01*
X153820666Y-36456880D02*
X153249238Y-36456880D01*
X153534952Y-36456880D02*
X153534952Y-35456880D01*
X153439714Y-35599738D01*
X153344476Y-35694976D01*
X153249238Y-35742595D01*
X140708142Y-42171880D02*
X140374809Y-41695690D01*
X140136714Y-42171880D02*
X140136714Y-41171880D01*
X140517666Y-41171880D01*
X140612904Y-41219500D01*
X140660523Y-41267119D01*
X140708142Y-41362357D01*
X140708142Y-41505214D01*
X140660523Y-41600452D01*
X140612904Y-41648071D01*
X140517666Y-41695690D01*
X140136714Y-41695690D01*
X141660523Y-42171880D02*
X141089095Y-42171880D01*
X141374809Y-42171880D02*
X141374809Y-41171880D01*
X141279571Y-41314738D01*
X141184333Y-41409976D01*
X141089095Y-41457595D01*
X142041476Y-41267119D02*
X142089095Y-41219500D01*
X142184333Y-41171880D01*
X142422428Y-41171880D01*
X142517666Y-41219500D01*
X142565285Y-41267119D01*
X142612904Y-41362357D01*
X142612904Y-41457595D01*
X142565285Y-41600452D01*
X141993857Y-42171880D01*
X142612904Y-42171880D01*
X130517619Y-35234642D02*
X130993809Y-34901309D01*
X130517619Y-34663214D02*
X131517619Y-34663214D01*
X131517619Y-35044166D01*
X131470000Y-35139404D01*
X131422380Y-35187023D01*
X131327142Y-35234642D01*
X131184285Y-35234642D01*
X131089047Y-35187023D01*
X131041428Y-35139404D01*
X130993809Y-35044166D01*
X130993809Y-34663214D01*
X130517619Y-36187023D02*
X130517619Y-35615595D01*
X130517619Y-35901309D02*
X131517619Y-35901309D01*
X131374761Y-35806071D01*
X131279523Y-35710833D01*
X131231904Y-35615595D01*
X130517619Y-37139404D02*
X130517619Y-36567976D01*
X130517619Y-36853690D02*
X131517619Y-36853690D01*
X131374761Y-36758452D01*
X131279523Y-36663214D01*
X131231904Y-36567976D01*
X127087333Y-52839880D02*
X126754000Y-52363690D01*
X126515904Y-52839880D02*
X126515904Y-51839880D01*
X126896857Y-51839880D01*
X126992095Y-51887500D01*
X127039714Y-51935119D01*
X127087333Y-52030357D01*
X127087333Y-52173214D01*
X127039714Y-52268452D01*
X126992095Y-52316071D01*
X126896857Y-52363690D01*
X126515904Y-52363690D01*
X127658761Y-52268452D02*
X127563523Y-52220833D01*
X127515904Y-52173214D01*
X127468285Y-52077976D01*
X127468285Y-52030357D01*
X127515904Y-51935119D01*
X127563523Y-51887500D01*
X127658761Y-51839880D01*
X127849238Y-51839880D01*
X127944476Y-51887500D01*
X127992095Y-51935119D01*
X128039714Y-52030357D01*
X128039714Y-52077976D01*
X127992095Y-52173214D01*
X127944476Y-52220833D01*
X127849238Y-52268452D01*
X127658761Y-52268452D01*
X127563523Y-52316071D01*
X127515904Y-52363690D01*
X127468285Y-52458928D01*
X127468285Y-52649404D01*
X127515904Y-52744642D01*
X127563523Y-52792261D01*
X127658761Y-52839880D01*
X127849238Y-52839880D01*
X127944476Y-52792261D01*
X127992095Y-52744642D01*
X128039714Y-52649404D01*
X128039714Y-52458928D01*
X127992095Y-52363690D01*
X127944476Y-52316071D01*
X127849238Y-52268452D01*
X135596333Y-62364880D02*
X135263000Y-61888690D01*
X135024904Y-62364880D02*
X135024904Y-61364880D01*
X135405857Y-61364880D01*
X135501095Y-61412500D01*
X135548714Y-61460119D01*
X135596333Y-61555357D01*
X135596333Y-61698214D01*
X135548714Y-61793452D01*
X135501095Y-61841071D01*
X135405857Y-61888690D01*
X135024904Y-61888690D01*
X136453476Y-61364880D02*
X136263000Y-61364880D01*
X136167761Y-61412500D01*
X136120142Y-61460119D01*
X136024904Y-61602976D01*
X135977285Y-61793452D01*
X135977285Y-62174404D01*
X136024904Y-62269642D01*
X136072523Y-62317261D01*
X136167761Y-62364880D01*
X136358238Y-62364880D01*
X136453476Y-62317261D01*
X136501095Y-62269642D01*
X136548714Y-62174404D01*
X136548714Y-61936309D01*
X136501095Y-61841071D01*
X136453476Y-61793452D01*
X136358238Y-61745833D01*
X136167761Y-61745833D01*
X136072523Y-61793452D01*
X136024904Y-61841071D01*
X135977285Y-61936309D01*
X136420619Y-53631833D02*
X136896809Y-53298500D01*
X136420619Y-53060404D02*
X137420619Y-53060404D01*
X137420619Y-53441357D01*
X137373000Y-53536595D01*
X137325380Y-53584214D01*
X137230142Y-53631833D01*
X137087285Y-53631833D01*
X136992047Y-53584214D01*
X136944428Y-53536595D01*
X136896809Y-53441357D01*
X136896809Y-53060404D01*
X137420619Y-54536595D02*
X137420619Y-54060404D01*
X136944428Y-54012785D01*
X136992047Y-54060404D01*
X137039666Y-54155642D01*
X137039666Y-54393738D01*
X136992047Y-54488976D01*
X136944428Y-54536595D01*
X136849190Y-54584214D01*
X136611095Y-54584214D01*
X136515857Y-54536595D01*
X136468238Y-54488976D01*
X136420619Y-54393738D01*
X136420619Y-54155642D01*
X136468238Y-54060404D01*
X136515857Y-54012785D01*
X141692333Y-62364880D02*
X141359000Y-61888690D01*
X141120904Y-62364880D02*
X141120904Y-61364880D01*
X141501857Y-61364880D01*
X141597095Y-61412500D01*
X141644714Y-61460119D01*
X141692333Y-61555357D01*
X141692333Y-61698214D01*
X141644714Y-61793452D01*
X141597095Y-61841071D01*
X141501857Y-61888690D01*
X141120904Y-61888690D01*
X142549476Y-61698214D02*
X142549476Y-62364880D01*
X142311380Y-61317261D02*
X142073285Y-62031547D01*
X142692333Y-62031547D01*
X153122333Y-61221880D02*
X152789000Y-60745690D01*
X152550904Y-61221880D02*
X152550904Y-60221880D01*
X152931857Y-60221880D01*
X153027095Y-60269500D01*
X153074714Y-60317119D01*
X153122333Y-60412357D01*
X153122333Y-60555214D01*
X153074714Y-60650452D01*
X153027095Y-60698071D01*
X152931857Y-60745690D01*
X152550904Y-60745690D01*
X153455666Y-60221880D02*
X154074714Y-60221880D01*
X153741380Y-60602833D01*
X153884238Y-60602833D01*
X153979476Y-60650452D01*
X154027095Y-60698071D01*
X154074714Y-60793309D01*
X154074714Y-61031404D01*
X154027095Y-61126642D01*
X153979476Y-61174261D01*
X153884238Y-61221880D01*
X153598523Y-61221880D01*
X153503285Y-61174261D01*
X153455666Y-61126642D01*
X140676333Y-44203880D02*
X140343000Y-43727690D01*
X140104904Y-44203880D02*
X140104904Y-43203880D01*
X140485857Y-43203880D01*
X140581095Y-43251500D01*
X140628714Y-43299119D01*
X140676333Y-43394357D01*
X140676333Y-43537214D01*
X140628714Y-43632452D01*
X140581095Y-43680071D01*
X140485857Y-43727690D01*
X140104904Y-43727690D01*
X141057285Y-43299119D02*
X141104904Y-43251500D01*
X141200142Y-43203880D01*
X141438238Y-43203880D01*
X141533476Y-43251500D01*
X141581095Y-43299119D01*
X141628714Y-43394357D01*
X141628714Y-43489595D01*
X141581095Y-43632452D01*
X141009666Y-44203880D01*
X141628714Y-44203880D01*
X151090333Y-61221880D02*
X150757000Y-60745690D01*
X150518904Y-61221880D02*
X150518904Y-60221880D01*
X150899857Y-60221880D01*
X150995095Y-60269500D01*
X151042714Y-60317119D01*
X151090333Y-60412357D01*
X151090333Y-60555214D01*
X151042714Y-60650452D01*
X150995095Y-60698071D01*
X150899857Y-60745690D01*
X150518904Y-60745690D01*
X152042714Y-61221880D02*
X151471285Y-61221880D01*
X151757000Y-61221880D02*
X151757000Y-60221880D01*
X151661761Y-60364738D01*
X151566523Y-60459976D01*
X151471285Y-60507595D01*
X132294333Y-60078880D02*
X131818142Y-60078880D01*
X131818142Y-59078880D01*
X133151476Y-60078880D02*
X132580047Y-60078880D01*
X132865761Y-60078880D02*
X132865761Y-59078880D01*
X132770523Y-59221738D01*
X132675285Y-59316976D01*
X132580047Y-59364595D01*
X133239190Y-37091880D02*
X133239190Y-36091880D01*
X133572523Y-36806166D01*
X133905857Y-36091880D01*
X133905857Y-37091880D01*
X134905857Y-37091880D02*
X134334428Y-37091880D01*
X134620142Y-37091880D02*
X134620142Y-36091880D01*
X134524904Y-36234738D01*
X134429666Y-36329976D01*
X134334428Y-36377595D01*
X135096333Y-37187119D02*
X135858238Y-37187119D01*
X136048714Y-37044261D02*
X136191571Y-37091880D01*
X136429666Y-37091880D01*
X136524904Y-37044261D01*
X136572523Y-36996642D01*
X136620142Y-36901404D01*
X136620142Y-36806166D01*
X136572523Y-36710928D01*
X136524904Y-36663309D01*
X136429666Y-36615690D01*
X136239190Y-36568071D01*
X136143952Y-36520452D01*
X136096333Y-36472833D01*
X136048714Y-36377595D01*
X136048714Y-36282357D01*
X136096333Y-36187119D01*
X136143952Y-36139500D01*
X136239190Y-36091880D01*
X136477285Y-36091880D01*
X136620142Y-36139500D01*
X137048714Y-36568071D02*
X137382047Y-36568071D01*
X137524904Y-37091880D02*
X137048714Y-37091880D01*
X137048714Y-36091880D01*
X137524904Y-36091880D01*
X138429666Y-37091880D02*
X137953476Y-37091880D01*
X137953476Y-36091880D01*
X132859666Y-38869880D02*
X132859666Y-37869880D01*
X133193000Y-38584166D01*
X133526333Y-37869880D01*
X133526333Y-38869880D01*
X138059666Y-37869880D02*
X138726333Y-38869880D01*
X138726333Y-37869880D02*
X138059666Y-38869880D01*
X132985190Y-33408880D02*
X132985190Y-32408880D01*
X133318523Y-33123166D01*
X133651857Y-32408880D01*
X133651857Y-33408880D01*
X134318523Y-32408880D02*
X134413761Y-32408880D01*
X134509000Y-32456500D01*
X134556619Y-32504119D01*
X134604238Y-32599357D01*
X134651857Y-32789833D01*
X134651857Y-33027928D01*
X134604238Y-33218404D01*
X134556619Y-33313642D01*
X134509000Y-33361261D01*
X134413761Y-33408880D01*
X134318523Y-33408880D01*
X134223285Y-33361261D01*
X134175666Y-33313642D01*
X134128047Y-33218404D01*
X134080428Y-33027928D01*
X134080428Y-32789833D01*
X134128047Y-32599357D01*
X134175666Y-32504119D01*
X134223285Y-32456500D01*
X134318523Y-32408880D01*
X134842333Y-33504119D02*
X135604238Y-33504119D01*
X135794714Y-33361261D02*
X135937571Y-33408880D01*
X136175666Y-33408880D01*
X136270904Y-33361261D01*
X136318523Y-33313642D01*
X136366142Y-33218404D01*
X136366142Y-33123166D01*
X136318523Y-33027928D01*
X136270904Y-32980309D01*
X136175666Y-32932690D01*
X135985190Y-32885071D01*
X135889952Y-32837452D01*
X135842333Y-32789833D01*
X135794714Y-32694595D01*
X135794714Y-32599357D01*
X135842333Y-32504119D01*
X135889952Y-32456500D01*
X135985190Y-32408880D01*
X136223285Y-32408880D01*
X136366142Y-32456500D01*
X136794714Y-32885071D02*
X137128047Y-32885071D01*
X137270904Y-33408880D02*
X136794714Y-33408880D01*
X136794714Y-32408880D01*
X137270904Y-32408880D01*
X138175666Y-33408880D02*
X137699476Y-33408880D01*
X137699476Y-32408880D01*
X132829666Y-35186880D02*
X132829666Y-34186880D01*
X133163000Y-34901166D01*
X133496333Y-34186880D01*
X133496333Y-35186880D01*
X138029666Y-34186880D02*
X138696333Y-35186880D01*
X138696333Y-34186880D02*
X138029666Y-35186880D01*
X158170619Y-60142833D02*
X158646809Y-59809500D01*
X158170619Y-59571404D02*
X159170619Y-59571404D01*
X159170619Y-59952357D01*
X159123000Y-60047595D01*
X159075380Y-60095214D01*
X158980142Y-60142833D01*
X158837285Y-60142833D01*
X158742047Y-60095214D01*
X158694428Y-60047595D01*
X158646809Y-59952357D01*
X158646809Y-59571404D01*
X158694428Y-60571404D02*
X158694428Y-60904738D01*
X158170619Y-61047595D02*
X158170619Y-60571404D01*
X159170619Y-60571404D01*
X159170619Y-61047595D01*
X158218238Y-61428547D02*
X158170619Y-61571404D01*
X158170619Y-61809500D01*
X158218238Y-61904738D01*
X158265857Y-61952357D01*
X158361095Y-61999976D01*
X158456333Y-61999976D01*
X158551571Y-61952357D01*
X158599190Y-61904738D01*
X158646809Y-61809500D01*
X158694428Y-61619023D01*
X158742047Y-61523785D01*
X158789666Y-61476166D01*
X158884904Y-61428547D01*
X158980142Y-61428547D01*
X159075380Y-61476166D01*
X159123000Y-61523785D01*
X159170619Y-61619023D01*
X159170619Y-61857119D01*
X159123000Y-61999976D01*
X158694428Y-62428547D02*
X158694428Y-62761880D01*
X158170619Y-62904738D02*
X158170619Y-62428547D01*
X159170619Y-62428547D01*
X159170619Y-62904738D01*
X159170619Y-63190452D02*
X159170619Y-63761880D01*
X158170619Y-63476166D02*
X159170619Y-63476166D01*
X158075380Y-63857119D02*
X158075380Y-64619023D01*
X158218238Y-64809500D02*
X158170619Y-64952357D01*
X158170619Y-65190452D01*
X158218238Y-65285690D01*
X158265857Y-65333309D01*
X158361095Y-65380928D01*
X158456333Y-65380928D01*
X158551571Y-65333309D01*
X158599190Y-65285690D01*
X158646809Y-65190452D01*
X158694428Y-64999976D01*
X158742047Y-64904738D01*
X158789666Y-64857119D01*
X158884904Y-64809500D01*
X158980142Y-64809500D01*
X159075380Y-64857119D01*
X159123000Y-64904738D01*
X159170619Y-64999976D01*
X159170619Y-65238071D01*
X159123000Y-65380928D01*
X158694428Y-65809500D02*
X158694428Y-66142833D01*
X158170619Y-66285690D02*
X158170619Y-65809500D01*
X159170619Y-65809500D01*
X159170619Y-66285690D01*
X158170619Y-67190452D02*
X158170619Y-66714261D01*
X159170619Y-66714261D01*
X163623666Y-67309880D02*
X163623666Y-68024166D01*
X163576047Y-68167023D01*
X163480809Y-68262261D01*
X163337952Y-68309880D01*
X163242714Y-68309880D01*
X164528428Y-67643214D02*
X164528428Y-68309880D01*
X164290333Y-67262261D02*
X164052238Y-67976547D01*
X164671285Y-67976547D01*
X123102619Y-60055166D02*
X122388333Y-60055166D01*
X122245476Y-60007547D01*
X122150238Y-59912309D01*
X122102619Y-59769452D01*
X122102619Y-59674214D01*
X123102619Y-60436119D02*
X123102619Y-61055166D01*
X122721666Y-60721833D01*
X122721666Y-60864690D01*
X122674047Y-60959928D01*
X122626428Y-61007547D01*
X122531190Y-61055166D01*
X122293095Y-61055166D01*
X122197857Y-61007547D01*
X122150238Y-60959928D01*
X122102619Y-60864690D01*
X122102619Y-60578976D01*
X122150238Y-60483738D01*
X122197857Y-60436119D01*
X160956666Y-36726880D02*
X160956666Y-37441166D01*
X160909047Y-37584023D01*
X160813809Y-37679261D01*
X160670952Y-37726880D01*
X160575714Y-37726880D01*
X161385238Y-36822119D02*
X161432857Y-36774500D01*
X161528095Y-36726880D01*
X161766190Y-36726880D01*
X161861428Y-36774500D01*
X161909047Y-36822119D01*
X161956666Y-36917357D01*
X161956666Y-37012595D01*
X161909047Y-37155452D01*
X161337619Y-37726880D01*
X161956666Y-37726880D01*
X120850619Y-69834166D02*
X120136333Y-69834166D01*
X119993476Y-69786547D01*
X119898238Y-69691309D01*
X119850619Y-69548452D01*
X119850619Y-69453214D01*
X119850619Y-70834166D02*
X119850619Y-70262738D01*
X119850619Y-70548452D02*
X120850619Y-70548452D01*
X120707761Y-70453214D01*
X120612523Y-70357976D01*
X120564904Y-70262738D01*
X122102619Y-72231214D02*
X122102619Y-71659785D01*
X122102619Y-71945500D02*
X123102619Y-71945500D01*
X122959761Y-71850261D01*
X122864523Y-71755023D01*
X122816904Y-71659785D01*
X127087333Y-55538642D02*
X127039714Y-55586261D01*
X126896857Y-55633880D01*
X126801619Y-55633880D01*
X126658761Y-55586261D01*
X126563523Y-55491023D01*
X126515904Y-55395785D01*
X126468285Y-55205309D01*
X126468285Y-55062452D01*
X126515904Y-54871976D01*
X126563523Y-54776738D01*
X126658761Y-54681500D01*
X126801619Y-54633880D01*
X126896857Y-54633880D01*
X127039714Y-54681500D01*
X127087333Y-54729119D01*
X127420666Y-54633880D02*
X128087333Y-54633880D01*
X127658761Y-55633880D01*
X133056333Y-52744642D02*
X133008714Y-52792261D01*
X132865857Y-52839880D01*
X132770619Y-52839880D01*
X132627761Y-52792261D01*
X132532523Y-52697023D01*
X132484904Y-52601785D01*
X132437285Y-52411309D01*
X132437285Y-52268452D01*
X132484904Y-52077976D01*
X132532523Y-51982738D01*
X132627761Y-51887500D01*
X132770619Y-51839880D01*
X132865857Y-51839880D01*
X133008714Y-51887500D01*
X133056333Y-51935119D01*
X133913476Y-51839880D02*
X133723000Y-51839880D01*
X133627761Y-51887500D01*
X133580142Y-51935119D01*
X133484904Y-52077976D01*
X133437285Y-52268452D01*
X133437285Y-52649404D01*
X133484904Y-52744642D01*
X133532523Y-52792261D01*
X133627761Y-52839880D01*
X133818238Y-52839880D01*
X133913476Y-52792261D01*
X133961095Y-52744642D01*
X134008714Y-52649404D01*
X134008714Y-52411309D01*
X133961095Y-52316071D01*
X133913476Y-52268452D01*
X133818238Y-52220833D01*
X133627761Y-52220833D01*
X133532523Y-52268452D01*
X133484904Y-52316071D01*
X133437285Y-52411309D01*
X138517333Y-62269642D02*
X138469714Y-62317261D01*
X138326857Y-62364880D01*
X138231619Y-62364880D01*
X138088761Y-62317261D01*
X137993523Y-62222023D01*
X137945904Y-62126785D01*
X137898285Y-61936309D01*
X137898285Y-61793452D01*
X137945904Y-61602976D01*
X137993523Y-61507738D01*
X138088761Y-61412500D01*
X138231619Y-61364880D01*
X138326857Y-61364880D01*
X138469714Y-61412500D01*
X138517333Y-61460119D01*
X139374476Y-61698214D02*
X139374476Y-62364880D01*
X139136380Y-61317261D02*
X138898285Y-62031547D01*
X139517333Y-62031547D01*
X157282857Y-51966833D02*
X157235238Y-51919214D01*
X157187619Y-51776357D01*
X157187619Y-51681119D01*
X157235238Y-51538261D01*
X157330476Y-51443023D01*
X157425714Y-51395404D01*
X157616190Y-51347785D01*
X157759047Y-51347785D01*
X157949523Y-51395404D01*
X158044761Y-51443023D01*
X158140000Y-51538261D01*
X158187619Y-51681119D01*
X158187619Y-51776357D01*
X158140000Y-51919214D01*
X158092380Y-51966833D01*
X158187619Y-52300166D02*
X158187619Y-52919214D01*
X157806666Y-52585880D01*
X157806666Y-52728738D01*
X157759047Y-52823976D01*
X157711428Y-52871595D01*
X157616190Y-52919214D01*
X157378095Y-52919214D01*
X157282857Y-52871595D01*
X157235238Y-52823976D01*
X157187619Y-52728738D01*
X157187619Y-52443023D01*
X157235238Y-52347785D01*
X157282857Y-52300166D01*
X148296333Y-34329642D02*
X148248714Y-34377261D01*
X148105857Y-34424880D01*
X148010619Y-34424880D01*
X147867761Y-34377261D01*
X147772523Y-34282023D01*
X147724904Y-34186785D01*
X147677285Y-33996309D01*
X147677285Y-33853452D01*
X147724904Y-33662976D01*
X147772523Y-33567738D01*
X147867761Y-33472500D01*
X148010619Y-33424880D01*
X148105857Y-33424880D01*
X148248714Y-33472500D01*
X148296333Y-33520119D01*
X148677285Y-33520119D02*
X148724904Y-33472500D01*
X148820142Y-33424880D01*
X149058238Y-33424880D01*
X149153476Y-33472500D01*
X149201095Y-33520119D01*
X149248714Y-33615357D01*
X149248714Y-33710595D01*
X149201095Y-33853452D01*
X148629666Y-34424880D01*
X149248714Y-34424880D01*
X143470333Y-34329642D02*
X143422714Y-34377261D01*
X143279857Y-34424880D01*
X143184619Y-34424880D01*
X143041761Y-34377261D01*
X142946523Y-34282023D01*
X142898904Y-34186785D01*
X142851285Y-33996309D01*
X142851285Y-33853452D01*
X142898904Y-33662976D01*
X142946523Y-33567738D01*
X143041761Y-33472500D01*
X143184619Y-33424880D01*
X143279857Y-33424880D01*
X143422714Y-33472500D01*
X143470333Y-33520119D01*
X144422714Y-34424880D02*
X143851285Y-34424880D01*
X144137000Y-34424880D02*
X144137000Y-33424880D01*
X144041761Y-33567738D01*
X143946523Y-33662976D01*
X143851285Y-33710595D01*
X188350780Y-31181633D02*
X189065066Y-31181633D01*
X189207923Y-31229252D01*
X189303161Y-31324490D01*
X189350780Y-31467347D01*
X189350780Y-31562585D01*
X188350780Y-30800680D02*
X188350780Y-30181633D01*
X188731733Y-30514966D01*
X188731733Y-30372109D01*
X188779352Y-30276871D01*
X188826971Y-30229252D01*
X188922209Y-30181633D01*
X189160304Y-30181633D01*
X189255542Y-30229252D01*
X189303161Y-30276871D01*
X189350780Y-30372109D01*
X189350780Y-30657823D01*
X189303161Y-30753061D01*
X189255542Y-30800680D01*
X191995466Y-67587880D02*
X191995466Y-68302166D01*
X191947847Y-68445023D01*
X191852609Y-68540261D01*
X191709752Y-68587880D01*
X191614514Y-68587880D01*
X192424038Y-67683119D02*
X192471657Y-67635500D01*
X192566895Y-67587880D01*
X192804990Y-67587880D01*
X192900228Y-67635500D01*
X192947847Y-67683119D01*
X192995466Y-67778357D01*
X192995466Y-67873595D01*
X192947847Y-68016452D01*
X192376419Y-68587880D01*
X192995466Y-68587880D01*
X174037666Y-39095880D02*
X174037666Y-39810166D01*
X173990047Y-39953023D01*
X173894809Y-40048261D01*
X173751952Y-40095880D01*
X173656714Y-40095880D01*
X175037666Y-40095880D02*
X174466238Y-40095880D01*
X174751952Y-40095880D02*
X174751952Y-39095880D01*
X174656714Y-39238738D01*
X174561476Y-39333976D01*
X174466238Y-39381595D01*
X179856333Y-45266500D02*
X179889666Y-45166500D01*
X179889666Y-44999833D01*
X179856333Y-44933166D01*
X179823000Y-44899833D01*
X179756333Y-44866500D01*
X179689666Y-44866500D01*
X179623000Y-44899833D01*
X179589666Y-44933166D01*
X179556333Y-44999833D01*
X179523000Y-45133166D01*
X179489666Y-45199833D01*
X179456333Y-45233166D01*
X179389666Y-45266500D01*
X179323000Y-45266500D01*
X179256333Y-45233166D01*
X179223000Y-45199833D01*
X179189666Y-45133166D01*
X179189666Y-44966500D01*
X179223000Y-44866500D01*
X179189666Y-44633166D02*
X179889666Y-44466500D01*
X179389666Y-44333166D01*
X179889666Y-44199833D01*
X179189666Y-44033166D01*
X179823000Y-43366500D02*
X179856333Y-43399833D01*
X179889666Y-43499833D01*
X179889666Y-43566500D01*
X179856333Y-43666500D01*
X179789666Y-43733166D01*
X179723000Y-43766500D01*
X179589666Y-43799833D01*
X179489666Y-43799833D01*
X179356333Y-43766500D01*
X179289666Y-43733166D01*
X179223000Y-43666500D01*
X179189666Y-43566500D01*
X179189666Y-43499833D01*
X179223000Y-43399833D01*
X179256333Y-43366500D01*
X179956333Y-43233166D02*
X179956333Y-42699833D01*
X179856333Y-42566500D02*
X179889666Y-42466500D01*
X179889666Y-42299833D01*
X179856333Y-42233166D01*
X179823000Y-42199833D01*
X179756333Y-42166500D01*
X179689666Y-42166500D01*
X179623000Y-42199833D01*
X179589666Y-42233166D01*
X179556333Y-42299833D01*
X179523000Y-42433166D01*
X179489666Y-42499833D01*
X179456333Y-42533166D01*
X179389666Y-42566500D01*
X179323000Y-42566500D01*
X179256333Y-42533166D01*
X179223000Y-42499833D01*
X179189666Y-42433166D01*
X179189666Y-42266500D01*
X179223000Y-42166500D01*
X179523000Y-41866500D02*
X179523000Y-41633166D01*
X179889666Y-41533166D02*
X179889666Y-41866500D01*
X179189666Y-41866500D01*
X179189666Y-41533166D01*
X179889666Y-40899833D02*
X179889666Y-41233166D01*
X179189666Y-41233166D01*
X188473761Y-40285433D02*
X188521380Y-40142576D01*
X188521380Y-39904480D01*
X188473761Y-39809242D01*
X188426142Y-39761623D01*
X188330904Y-39714004D01*
X188235666Y-39714004D01*
X188140428Y-39761623D01*
X188092809Y-39809242D01*
X188045190Y-39904480D01*
X187997571Y-40094957D01*
X187949952Y-40190195D01*
X187902333Y-40237814D01*
X187807095Y-40285433D01*
X187711857Y-40285433D01*
X187616619Y-40237814D01*
X187569000Y-40190195D01*
X187521380Y-40094957D01*
X187521380Y-39856861D01*
X187569000Y-39714004D01*
X187521380Y-39380671D02*
X188521380Y-39142576D01*
X187807095Y-38952100D01*
X188521380Y-38761623D01*
X187521380Y-38523528D01*
X187521380Y-38237814D02*
X187521380Y-37618766D01*
X187902333Y-37952100D01*
X187902333Y-37809242D01*
X187949952Y-37714004D01*
X187997571Y-37666385D01*
X188092809Y-37618766D01*
X188330904Y-37618766D01*
X188426142Y-37666385D01*
X188473761Y-37714004D01*
X188521380Y-37809242D01*
X188521380Y-38094957D01*
X188473761Y-38190195D01*
X188426142Y-38237814D01*
X188473761Y-51893233D02*
X188521380Y-51750376D01*
X188521380Y-51512280D01*
X188473761Y-51417042D01*
X188426142Y-51369423D01*
X188330904Y-51321804D01*
X188235666Y-51321804D01*
X188140428Y-51369423D01*
X188092809Y-51417042D01*
X188045190Y-51512280D01*
X187997571Y-51702757D01*
X187949952Y-51797995D01*
X187902333Y-51845614D01*
X187807095Y-51893233D01*
X187711857Y-51893233D01*
X187616619Y-51845614D01*
X187569000Y-51797995D01*
X187521380Y-51702757D01*
X187521380Y-51464661D01*
X187569000Y-51321804D01*
X187521380Y-50988471D02*
X188521380Y-50750376D01*
X187807095Y-50559900D01*
X188521380Y-50369423D01*
X187521380Y-50131328D01*
X187616619Y-49797995D02*
X187569000Y-49750376D01*
X187521380Y-49655138D01*
X187521380Y-49417042D01*
X187569000Y-49321804D01*
X187616619Y-49274185D01*
X187711857Y-49226566D01*
X187807095Y-49226566D01*
X187949952Y-49274185D01*
X188521380Y-49845614D01*
X188521380Y-49226566D01*
X188473761Y-63450233D02*
X188521380Y-63307376D01*
X188521380Y-63069280D01*
X188473761Y-62974042D01*
X188426142Y-62926423D01*
X188330904Y-62878804D01*
X188235666Y-62878804D01*
X188140428Y-62926423D01*
X188092809Y-62974042D01*
X188045190Y-63069280D01*
X187997571Y-63259757D01*
X187949952Y-63354995D01*
X187902333Y-63402614D01*
X187807095Y-63450233D01*
X187711857Y-63450233D01*
X187616619Y-63402614D01*
X187569000Y-63354995D01*
X187521380Y-63259757D01*
X187521380Y-63021661D01*
X187569000Y-62878804D01*
X187521380Y-62545471D02*
X188521380Y-62307376D01*
X187807095Y-62116900D01*
X188521380Y-61926423D01*
X187521380Y-61688328D01*
X188521380Y-60783566D02*
X188521380Y-61354995D01*
X188521380Y-61069280D02*
X187521380Y-61069280D01*
X187664238Y-61164519D01*
X187759476Y-61259757D01*
X187807095Y-61354995D01*
X177030142Y-28836880D02*
X176696809Y-28360690D01*
X176458714Y-28836880D02*
X176458714Y-27836880D01*
X176839666Y-27836880D01*
X176934904Y-27884500D01*
X176982523Y-27932119D01*
X177030142Y-28027357D01*
X177030142Y-28170214D01*
X176982523Y-28265452D01*
X176934904Y-28313071D01*
X176839666Y-28360690D01*
X176458714Y-28360690D01*
X177982523Y-28836880D02*
X177411095Y-28836880D01*
X177696809Y-28836880D02*
X177696809Y-27836880D01*
X177601571Y-27979738D01*
X177506333Y-28074976D01*
X177411095Y-28122595D01*
X178363476Y-27932119D02*
X178411095Y-27884500D01*
X178506333Y-27836880D01*
X178744428Y-27836880D01*
X178839666Y-27884500D01*
X178887285Y-27932119D01*
X178934904Y-28027357D01*
X178934904Y-28122595D01*
X178887285Y-28265452D01*
X178315857Y-28836880D01*
X178934904Y-28836880D01*
X177157142Y-32646880D02*
X176823809Y-32170690D01*
X176585714Y-32646880D02*
X176585714Y-31646880D01*
X176966666Y-31646880D01*
X177061904Y-31694500D01*
X177109523Y-31742119D01*
X177157142Y-31837357D01*
X177157142Y-31980214D01*
X177109523Y-32075452D01*
X177061904Y-32123071D01*
X176966666Y-32170690D01*
X176585714Y-32170690D01*
X178109523Y-32646880D02*
X177538095Y-32646880D01*
X177823809Y-32646880D02*
X177823809Y-31646880D01*
X177728571Y-31789738D01*
X177633333Y-31884976D01*
X177538095Y-31932595D01*
X179061904Y-32646880D02*
X178490476Y-32646880D01*
X178776190Y-32646880D02*
X178776190Y-31646880D01*
X178680952Y-31789738D01*
X178585714Y-31884976D01*
X178490476Y-31932595D01*
X177030142Y-36583880D02*
X176696809Y-36107690D01*
X176458714Y-36583880D02*
X176458714Y-35583880D01*
X176839666Y-35583880D01*
X176934904Y-35631500D01*
X176982523Y-35679119D01*
X177030142Y-35774357D01*
X177030142Y-35917214D01*
X176982523Y-36012452D01*
X176934904Y-36060071D01*
X176839666Y-36107690D01*
X176458714Y-36107690D01*
X177982523Y-36583880D02*
X177411095Y-36583880D01*
X177696809Y-36583880D02*
X177696809Y-35583880D01*
X177601571Y-35726738D01*
X177506333Y-35821976D01*
X177411095Y-35869595D01*
X178601571Y-35583880D02*
X178696809Y-35583880D01*
X178792047Y-35631500D01*
X178839666Y-35679119D01*
X178887285Y-35774357D01*
X178934904Y-35964833D01*
X178934904Y-36202928D01*
X178887285Y-36393404D01*
X178839666Y-36488642D01*
X178792047Y-36536261D01*
X178696809Y-36583880D01*
X178601571Y-36583880D01*
X178506333Y-36536261D01*
X178458714Y-36488642D01*
X178411095Y-36393404D01*
X178363476Y-36202928D01*
X178363476Y-35964833D01*
X178411095Y-35774357D01*
X178458714Y-35679119D01*
X178506333Y-35631500D01*
X178601571Y-35583880D01*
X175650238Y-30741880D02*
X175316904Y-30265690D01*
X175078809Y-30741880D02*
X175078809Y-29741880D01*
X175459761Y-29741880D01*
X175555000Y-29789500D01*
X175602619Y-29837119D01*
X175650238Y-29932357D01*
X175650238Y-30075214D01*
X175602619Y-30170452D01*
X175555000Y-30218071D01*
X175459761Y-30265690D01*
X175078809Y-30265690D01*
X175983571Y-29741880D02*
X176650238Y-30741880D01*
X176650238Y-29741880D02*
X175983571Y-30741880D01*
X176793095Y-30837119D02*
X177555000Y-30837119D01*
X178269285Y-30741880D02*
X177793095Y-30741880D01*
X177793095Y-29741880D01*
X178602619Y-30218071D02*
X178935952Y-30218071D01*
X179078809Y-30741880D02*
X178602619Y-30741880D01*
X178602619Y-29741880D01*
X179078809Y-29741880D01*
X179507380Y-30741880D02*
X179507380Y-29741880D01*
X179745476Y-29741880D01*
X179888333Y-29789500D01*
X179983571Y-29884738D01*
X180031190Y-29979976D01*
X180078809Y-30170452D01*
X180078809Y-30313309D01*
X180031190Y-30503785D01*
X179983571Y-30599023D01*
X179888333Y-30694261D01*
X179745476Y-30741880D01*
X179507380Y-30741880D01*
X174902600Y-33678880D02*
X175474028Y-33678880D01*
X175188314Y-34678880D02*
X175188314Y-33678880D01*
X175712123Y-33678880D02*
X176378790Y-34678880D01*
X176378790Y-33678880D02*
X175712123Y-34678880D01*
X176521647Y-34774119D02*
X177283552Y-34774119D01*
X177997838Y-34678880D02*
X177521647Y-34678880D01*
X177521647Y-33678880D01*
X178331171Y-34155071D02*
X178664504Y-34155071D01*
X178807361Y-34678880D02*
X178331171Y-34678880D01*
X178331171Y-33678880D01*
X178807361Y-33678880D01*
X179235933Y-34678880D02*
X179235933Y-33678880D01*
X179474028Y-33678880D01*
X179616885Y-33726500D01*
X179712123Y-33821738D01*
X179759742Y-33916976D01*
X179807361Y-34107452D01*
X179807361Y-34250309D01*
X179759742Y-34440785D01*
X179712123Y-34536023D01*
X179616885Y-34631261D01*
X179474028Y-34678880D01*
X179235933Y-34678880D01*
X174728714Y-38441261D02*
X174871571Y-38488880D01*
X175109666Y-38488880D01*
X175204904Y-38441261D01*
X175252523Y-38393642D01*
X175300142Y-38298404D01*
X175300142Y-38203166D01*
X175252523Y-38107928D01*
X175204904Y-38060309D01*
X175109666Y-38012690D01*
X174919190Y-37965071D01*
X174823952Y-37917452D01*
X174776333Y-37869833D01*
X174728714Y-37774595D01*
X174728714Y-37679357D01*
X174776333Y-37584119D01*
X174823952Y-37536500D01*
X174919190Y-37488880D01*
X175157285Y-37488880D01*
X175300142Y-37536500D01*
X175585857Y-37488880D02*
X176157285Y-37488880D01*
X175871571Y-38488880D02*
X175871571Y-37488880D01*
X176443000Y-38203166D02*
X176919190Y-38203166D01*
X176347761Y-38488880D02*
X176681095Y-37488880D01*
X177014428Y-38488880D01*
X177204904Y-37488880D02*
X177776333Y-37488880D01*
X177490619Y-38488880D02*
X177490619Y-37488880D01*
X178109666Y-37488880D02*
X178109666Y-38298404D01*
X178157285Y-38393642D01*
X178204904Y-38441261D01*
X178300142Y-38488880D01*
X178490619Y-38488880D01*
X178585857Y-38441261D01*
X178633476Y-38393642D01*
X178681095Y-38298404D01*
X178681095Y-37488880D01*
X179109666Y-38441261D02*
X179252523Y-38488880D01*
X179490619Y-38488880D01*
X179585857Y-38441261D01*
X179633476Y-38393642D01*
X179681095Y-38298404D01*
X179681095Y-38203166D01*
X179633476Y-38107928D01*
X179585857Y-38060309D01*
X179490619Y-38012690D01*
X179300142Y-37965071D01*
X179204904Y-37917452D01*
X179157285Y-37869833D01*
X179109666Y-37774595D01*
X179109666Y-37679357D01*
X179157285Y-37584119D01*
X179204904Y-37536500D01*
X179300142Y-37488880D01*
X179538238Y-37488880D01*
X179681095Y-37536500D01*
X179871571Y-38584119D02*
X180633476Y-38584119D01*
X181347761Y-38488880D02*
X180871571Y-38488880D01*
X180871571Y-37488880D01*
X181681095Y-37965071D02*
X182014428Y-37965071D01*
X182157285Y-38488880D02*
X181681095Y-38488880D01*
X181681095Y-37488880D01*
X182157285Y-37488880D01*
X182585857Y-38488880D02*
X182585857Y-37488880D01*
X182823952Y-37488880D01*
X182966809Y-37536500D01*
X183062047Y-37631738D01*
X183109666Y-37726976D01*
X183157285Y-37917452D01*
X183157285Y-38060309D01*
X183109666Y-38250785D01*
X183062047Y-38346023D01*
X182966809Y-38441261D01*
X182823952Y-38488880D01*
X182585857Y-38488880D01*
X188350780Y-77854133D02*
X189065066Y-77854133D01*
X189207923Y-77901752D01*
X189303161Y-77996990D01*
X189350780Y-78139847D01*
X189350780Y-78235085D01*
X188350780Y-77473180D02*
X188350780Y-76854133D01*
X188731733Y-77187466D01*
X188731733Y-77044609D01*
X188779352Y-76949371D01*
X188826971Y-76901752D01*
X188922209Y-76854133D01*
X189160304Y-76854133D01*
X189255542Y-76901752D01*
X189303161Y-76949371D01*
X189350780Y-77044609D01*
X189350780Y-77330323D01*
X189303161Y-77425561D01*
X189255542Y-77473180D01*
X191995466Y-114260380D02*
X191995466Y-114974666D01*
X191947847Y-115117523D01*
X191852609Y-115212761D01*
X191709752Y-115260380D01*
X191614514Y-115260380D01*
X192424038Y-114355619D02*
X192471657Y-114308000D01*
X192566895Y-114260380D01*
X192804990Y-114260380D01*
X192900228Y-114308000D01*
X192947847Y-114355619D01*
X192995466Y-114450857D01*
X192995466Y-114546095D01*
X192947847Y-114688952D01*
X192376419Y-115260380D01*
X192995466Y-115260380D01*
X174037666Y-85768380D02*
X174037666Y-86482666D01*
X173990047Y-86625523D01*
X173894809Y-86720761D01*
X173751952Y-86768380D01*
X173656714Y-86768380D01*
X175037666Y-86768380D02*
X174466238Y-86768380D01*
X174751952Y-86768380D02*
X174751952Y-85768380D01*
X174656714Y-85911238D01*
X174561476Y-86006476D01*
X174466238Y-86054095D01*
X179856333Y-91939000D02*
X179889666Y-91839000D01*
X179889666Y-91672333D01*
X179856333Y-91605666D01*
X179823000Y-91572333D01*
X179756333Y-91539000D01*
X179689666Y-91539000D01*
X179623000Y-91572333D01*
X179589666Y-91605666D01*
X179556333Y-91672333D01*
X179523000Y-91805666D01*
X179489666Y-91872333D01*
X179456333Y-91905666D01*
X179389666Y-91939000D01*
X179323000Y-91939000D01*
X179256333Y-91905666D01*
X179223000Y-91872333D01*
X179189666Y-91805666D01*
X179189666Y-91639000D01*
X179223000Y-91539000D01*
X179189666Y-91305666D02*
X179889666Y-91139000D01*
X179389666Y-91005666D01*
X179889666Y-90872333D01*
X179189666Y-90705666D01*
X179823000Y-90039000D02*
X179856333Y-90072333D01*
X179889666Y-90172333D01*
X179889666Y-90239000D01*
X179856333Y-90339000D01*
X179789666Y-90405666D01*
X179723000Y-90439000D01*
X179589666Y-90472333D01*
X179489666Y-90472333D01*
X179356333Y-90439000D01*
X179289666Y-90405666D01*
X179223000Y-90339000D01*
X179189666Y-90239000D01*
X179189666Y-90172333D01*
X179223000Y-90072333D01*
X179256333Y-90039000D01*
X179956333Y-89905666D02*
X179956333Y-89372333D01*
X179856333Y-89239000D02*
X179889666Y-89139000D01*
X179889666Y-88972333D01*
X179856333Y-88905666D01*
X179823000Y-88872333D01*
X179756333Y-88839000D01*
X179689666Y-88839000D01*
X179623000Y-88872333D01*
X179589666Y-88905666D01*
X179556333Y-88972333D01*
X179523000Y-89105666D01*
X179489666Y-89172333D01*
X179456333Y-89205666D01*
X179389666Y-89239000D01*
X179323000Y-89239000D01*
X179256333Y-89205666D01*
X179223000Y-89172333D01*
X179189666Y-89105666D01*
X179189666Y-88939000D01*
X179223000Y-88839000D01*
X179523000Y-88539000D02*
X179523000Y-88305666D01*
X179889666Y-88205666D02*
X179889666Y-88539000D01*
X179189666Y-88539000D01*
X179189666Y-88205666D01*
X179889666Y-87572333D02*
X179889666Y-87905666D01*
X179189666Y-87905666D01*
X188473761Y-86957933D02*
X188521380Y-86815076D01*
X188521380Y-86576980D01*
X188473761Y-86481742D01*
X188426142Y-86434123D01*
X188330904Y-86386504D01*
X188235666Y-86386504D01*
X188140428Y-86434123D01*
X188092809Y-86481742D01*
X188045190Y-86576980D01*
X187997571Y-86767457D01*
X187949952Y-86862695D01*
X187902333Y-86910314D01*
X187807095Y-86957933D01*
X187711857Y-86957933D01*
X187616619Y-86910314D01*
X187569000Y-86862695D01*
X187521380Y-86767457D01*
X187521380Y-86529361D01*
X187569000Y-86386504D01*
X187521380Y-86053171D02*
X188521380Y-85815076D01*
X187807095Y-85624600D01*
X188521380Y-85434123D01*
X187521380Y-85196028D01*
X187521380Y-84910314D02*
X187521380Y-84291266D01*
X187902333Y-84624600D01*
X187902333Y-84481742D01*
X187949952Y-84386504D01*
X187997571Y-84338885D01*
X188092809Y-84291266D01*
X188330904Y-84291266D01*
X188426142Y-84338885D01*
X188473761Y-84386504D01*
X188521380Y-84481742D01*
X188521380Y-84767457D01*
X188473761Y-84862695D01*
X188426142Y-84910314D01*
X188473761Y-98565733D02*
X188521380Y-98422876D01*
X188521380Y-98184780D01*
X188473761Y-98089542D01*
X188426142Y-98041923D01*
X188330904Y-97994304D01*
X188235666Y-97994304D01*
X188140428Y-98041923D01*
X188092809Y-98089542D01*
X188045190Y-98184780D01*
X187997571Y-98375257D01*
X187949952Y-98470495D01*
X187902333Y-98518114D01*
X187807095Y-98565733D01*
X187711857Y-98565733D01*
X187616619Y-98518114D01*
X187569000Y-98470495D01*
X187521380Y-98375257D01*
X187521380Y-98137161D01*
X187569000Y-97994304D01*
X187521380Y-97660971D02*
X188521380Y-97422876D01*
X187807095Y-97232400D01*
X188521380Y-97041923D01*
X187521380Y-96803828D01*
X187616619Y-96470495D02*
X187569000Y-96422876D01*
X187521380Y-96327638D01*
X187521380Y-96089542D01*
X187569000Y-95994304D01*
X187616619Y-95946685D01*
X187711857Y-95899066D01*
X187807095Y-95899066D01*
X187949952Y-95946685D01*
X188521380Y-96518114D01*
X188521380Y-95899066D01*
X188473761Y-110122733D02*
X188521380Y-109979876D01*
X188521380Y-109741780D01*
X188473761Y-109646542D01*
X188426142Y-109598923D01*
X188330904Y-109551304D01*
X188235666Y-109551304D01*
X188140428Y-109598923D01*
X188092809Y-109646542D01*
X188045190Y-109741780D01*
X187997571Y-109932257D01*
X187949952Y-110027495D01*
X187902333Y-110075114D01*
X187807095Y-110122733D01*
X187711857Y-110122733D01*
X187616619Y-110075114D01*
X187569000Y-110027495D01*
X187521380Y-109932257D01*
X187521380Y-109694161D01*
X187569000Y-109551304D01*
X187521380Y-109217971D02*
X188521380Y-108979876D01*
X187807095Y-108789400D01*
X188521380Y-108598923D01*
X187521380Y-108360828D01*
X188521380Y-107456066D02*
X188521380Y-108027495D01*
X188521380Y-107741780D02*
X187521380Y-107741780D01*
X187664238Y-107837019D01*
X187759476Y-107932257D01*
X187807095Y-108027495D01*
X177030142Y-75509380D02*
X176696809Y-75033190D01*
X176458714Y-75509380D02*
X176458714Y-74509380D01*
X176839666Y-74509380D01*
X176934904Y-74557000D01*
X176982523Y-74604619D01*
X177030142Y-74699857D01*
X177030142Y-74842714D01*
X176982523Y-74937952D01*
X176934904Y-74985571D01*
X176839666Y-75033190D01*
X176458714Y-75033190D01*
X177982523Y-75509380D02*
X177411095Y-75509380D01*
X177696809Y-75509380D02*
X177696809Y-74509380D01*
X177601571Y-74652238D01*
X177506333Y-74747476D01*
X177411095Y-74795095D01*
X178363476Y-74604619D02*
X178411095Y-74557000D01*
X178506333Y-74509380D01*
X178744428Y-74509380D01*
X178839666Y-74557000D01*
X178887285Y-74604619D01*
X178934904Y-74699857D01*
X178934904Y-74795095D01*
X178887285Y-74937952D01*
X178315857Y-75509380D01*
X178934904Y-75509380D01*
X177157142Y-79319380D02*
X176823809Y-78843190D01*
X176585714Y-79319380D02*
X176585714Y-78319380D01*
X176966666Y-78319380D01*
X177061904Y-78367000D01*
X177109523Y-78414619D01*
X177157142Y-78509857D01*
X177157142Y-78652714D01*
X177109523Y-78747952D01*
X177061904Y-78795571D01*
X176966666Y-78843190D01*
X176585714Y-78843190D01*
X178109523Y-79319380D02*
X177538095Y-79319380D01*
X177823809Y-79319380D02*
X177823809Y-78319380D01*
X177728571Y-78462238D01*
X177633333Y-78557476D01*
X177538095Y-78605095D01*
X179061904Y-79319380D02*
X178490476Y-79319380D01*
X178776190Y-79319380D02*
X178776190Y-78319380D01*
X178680952Y-78462238D01*
X178585714Y-78557476D01*
X178490476Y-78605095D01*
X177030142Y-83256380D02*
X176696809Y-82780190D01*
X176458714Y-83256380D02*
X176458714Y-82256380D01*
X176839666Y-82256380D01*
X176934904Y-82304000D01*
X176982523Y-82351619D01*
X177030142Y-82446857D01*
X177030142Y-82589714D01*
X176982523Y-82684952D01*
X176934904Y-82732571D01*
X176839666Y-82780190D01*
X176458714Y-82780190D01*
X177982523Y-83256380D02*
X177411095Y-83256380D01*
X177696809Y-83256380D02*
X177696809Y-82256380D01*
X177601571Y-82399238D01*
X177506333Y-82494476D01*
X177411095Y-82542095D01*
X178601571Y-82256380D02*
X178696809Y-82256380D01*
X178792047Y-82304000D01*
X178839666Y-82351619D01*
X178887285Y-82446857D01*
X178934904Y-82637333D01*
X178934904Y-82875428D01*
X178887285Y-83065904D01*
X178839666Y-83161142D01*
X178792047Y-83208761D01*
X178696809Y-83256380D01*
X178601571Y-83256380D01*
X178506333Y-83208761D01*
X178458714Y-83161142D01*
X178411095Y-83065904D01*
X178363476Y-82875428D01*
X178363476Y-82637333D01*
X178411095Y-82446857D01*
X178458714Y-82351619D01*
X178506333Y-82304000D01*
X178601571Y-82256380D01*
X175650238Y-77414380D02*
X175316904Y-76938190D01*
X175078809Y-77414380D02*
X175078809Y-76414380D01*
X175459761Y-76414380D01*
X175555000Y-76462000D01*
X175602619Y-76509619D01*
X175650238Y-76604857D01*
X175650238Y-76747714D01*
X175602619Y-76842952D01*
X175555000Y-76890571D01*
X175459761Y-76938190D01*
X175078809Y-76938190D01*
X175983571Y-76414380D02*
X176650238Y-77414380D01*
X176650238Y-76414380D02*
X175983571Y-77414380D01*
X176793095Y-77509619D02*
X177555000Y-77509619D01*
X178269285Y-77414380D02*
X177793095Y-77414380D01*
X177793095Y-76414380D01*
X178602619Y-76890571D02*
X178935952Y-76890571D01*
X179078809Y-77414380D02*
X178602619Y-77414380D01*
X178602619Y-76414380D01*
X179078809Y-76414380D01*
X179507380Y-77414380D02*
X179507380Y-76414380D01*
X179745476Y-76414380D01*
X179888333Y-76462000D01*
X179983571Y-76557238D01*
X180031190Y-76652476D01*
X180078809Y-76842952D01*
X180078809Y-76985809D01*
X180031190Y-77176285D01*
X179983571Y-77271523D01*
X179888333Y-77366761D01*
X179745476Y-77414380D01*
X179507380Y-77414380D01*
X174902600Y-80351380D02*
X175474028Y-80351380D01*
X175188314Y-81351380D02*
X175188314Y-80351380D01*
X175712123Y-80351380D02*
X176378790Y-81351380D01*
X176378790Y-80351380D02*
X175712123Y-81351380D01*
X176521647Y-81446619D02*
X177283552Y-81446619D01*
X177997838Y-81351380D02*
X177521647Y-81351380D01*
X177521647Y-80351380D01*
X178331171Y-80827571D02*
X178664504Y-80827571D01*
X178807361Y-81351380D02*
X178331171Y-81351380D01*
X178331171Y-80351380D01*
X178807361Y-80351380D01*
X179235933Y-81351380D02*
X179235933Y-80351380D01*
X179474028Y-80351380D01*
X179616885Y-80399000D01*
X179712123Y-80494238D01*
X179759742Y-80589476D01*
X179807361Y-80779952D01*
X179807361Y-80922809D01*
X179759742Y-81113285D01*
X179712123Y-81208523D01*
X179616885Y-81303761D01*
X179474028Y-81351380D01*
X179235933Y-81351380D01*
X174728714Y-85113761D02*
X174871571Y-85161380D01*
X175109666Y-85161380D01*
X175204904Y-85113761D01*
X175252523Y-85066142D01*
X175300142Y-84970904D01*
X175300142Y-84875666D01*
X175252523Y-84780428D01*
X175204904Y-84732809D01*
X175109666Y-84685190D01*
X174919190Y-84637571D01*
X174823952Y-84589952D01*
X174776333Y-84542333D01*
X174728714Y-84447095D01*
X174728714Y-84351857D01*
X174776333Y-84256619D01*
X174823952Y-84209000D01*
X174919190Y-84161380D01*
X175157285Y-84161380D01*
X175300142Y-84209000D01*
X175585857Y-84161380D02*
X176157285Y-84161380D01*
X175871571Y-85161380D02*
X175871571Y-84161380D01*
X176443000Y-84875666D02*
X176919190Y-84875666D01*
X176347761Y-85161380D02*
X176681095Y-84161380D01*
X177014428Y-85161380D01*
X177204904Y-84161380D02*
X177776333Y-84161380D01*
X177490619Y-85161380D02*
X177490619Y-84161380D01*
X178109666Y-84161380D02*
X178109666Y-84970904D01*
X178157285Y-85066142D01*
X178204904Y-85113761D01*
X178300142Y-85161380D01*
X178490619Y-85161380D01*
X178585857Y-85113761D01*
X178633476Y-85066142D01*
X178681095Y-84970904D01*
X178681095Y-84161380D01*
X179109666Y-85113761D02*
X179252523Y-85161380D01*
X179490619Y-85161380D01*
X179585857Y-85113761D01*
X179633476Y-85066142D01*
X179681095Y-84970904D01*
X179681095Y-84875666D01*
X179633476Y-84780428D01*
X179585857Y-84732809D01*
X179490619Y-84685190D01*
X179300142Y-84637571D01*
X179204904Y-84589952D01*
X179157285Y-84542333D01*
X179109666Y-84447095D01*
X179109666Y-84351857D01*
X179157285Y-84256619D01*
X179204904Y-84209000D01*
X179300142Y-84161380D01*
X179538238Y-84161380D01*
X179681095Y-84209000D01*
X179871571Y-85256619D02*
X180633476Y-85256619D01*
X181347761Y-85161380D02*
X180871571Y-85161380D01*
X180871571Y-84161380D01*
X181681095Y-84637571D02*
X182014428Y-84637571D01*
X182157285Y-85161380D02*
X181681095Y-85161380D01*
X181681095Y-84161380D01*
X182157285Y-84161380D01*
X182585857Y-85161380D02*
X182585857Y-84161380D01*
X182823952Y-84161380D01*
X182966809Y-84209000D01*
X183062047Y-84304238D01*
X183109666Y-84399476D01*
X183157285Y-84589952D01*
X183157285Y-84732809D01*
X183109666Y-84923285D01*
X183062047Y-85018523D01*
X182966809Y-85113761D01*
X182823952Y-85161380D01*
X182585857Y-85161380D01*
M02*
