M48
; DRILL file {KiCad (5.1.0-0)} date 2019 April 23, Tuesday 20:45:21
; FORMAT={-:-/ absolute / inch / decimal}
; #@! TF.CreationDate,2019-04-23T20:45:21+03:00
; #@! TF.GenerationSoftware,Kicad,Pcbnew,(5.1.0-0)
; #@! TF.FileFunction,Plated,1,4,PTH
FMAT,2
INCH
T1C0.0157
T2C0.0276
T3C0.0315
T4C0.0394
T5C0.0866
T6C0.1260
%
G90
G05
T1
X4.54Y-1.4975
X4.54Y-3.335
X4.925Y-1.5725
X4.925Y-3.41
X5.035Y-2.0325
X5.035Y-3.87
X5.055Y-1.7425
X5.055Y-3.58
X5.1Y-1.3225
X5.1Y-3.16
X5.215Y-1.3725
X5.215Y-1.5325
X5.215Y-3.21
X5.215Y-3.37
X5.255Y-1.5725
X5.255Y-3.41
X5.295Y-1.6025
X5.295Y-3.44
X5.445Y-2.2225
X5.445Y-4.06
X5.46Y-2.3975
X5.46Y-4.235
X5.535Y-1.6825
X5.535Y-3.52
X5.585Y-2.6325
X5.585Y-4.47
X5.645Y-1.6725
X5.645Y-3.51
X5.655Y-1.9775
X5.655Y-3.815
X5.705Y-1.9425
X5.705Y-3.78
X5.75Y-1.4425
X5.75Y-3.28
X5.805Y-2.4125
X5.805Y-4.25
X5.955Y-2.3125
X5.955Y-4.15
X5.995Y-2.5925
X5.995Y-4.43
X6.13Y-2.1475
X6.13Y-3.985
X6.145Y-1.9625
X6.145Y-3.8
X6.799Y-1.2675
X6.799Y-3.105
X7.343Y-2.3525
X7.343Y-4.19
X7.41Y-2.7275
X7.41Y-4.565
X7.4235Y-1.5225
X7.4235Y-3.36
X7.55Y-2.0985
X7.55Y-3.936
X7.551Y-2.5355
X7.551Y-4.373
X7.575Y-1.6585
X7.575Y-3.496
X7.59Y-2.5885
X7.59Y-4.426
X7.595Y-2.0785
X7.595Y-3.916
X7.675Y-2.2435
X7.675Y-4.081
T2
X6.01Y-3.18
X6.01Y-1.3425
T3
X4.8263Y-3.0
X4.8263Y-4.6
X4.9051Y-3.0
X4.9051Y-4.6
X4.9838Y-3.0
X4.9838Y-4.6
X5.0626Y-3.0
X5.0626Y-4.6
X5.1413Y-3.0
X5.1413Y-4.6
X5.22Y-3.0
X5.22Y-4.6
X5.2988Y-3.0
X5.2988Y-4.6
X5.3775Y-3.0
X5.3775Y-4.6
X5.4563Y-3.0
X5.4563Y-4.6
X5.535Y-3.0
X5.535Y-4.6
X5.6137Y-3.0
X5.6137Y-4.6
X5.6925Y-3.0
X5.6925Y-4.6
X5.7712Y-3.0
X5.7712Y-4.6
X5.85Y-3.0
X5.85Y-4.6
X4.8263Y-1.1625
X4.8263Y-2.7625
X4.9051Y-1.1625
X4.9051Y-2.7625
X4.9838Y-1.1625
X4.9838Y-2.7625
X5.0626Y-1.1625
X5.0626Y-2.7625
X5.1413Y-1.1625
X5.1413Y-2.7625
X5.22Y-1.1625
X5.22Y-2.7625
X5.2988Y-1.1625
X5.2988Y-2.7625
X5.3775Y-1.1625
X5.3775Y-2.7625
X5.4563Y-1.1625
X5.4563Y-2.7625
X5.535Y-1.1625
X5.535Y-2.7625
X5.6137Y-1.1625
X5.6137Y-2.7625
X5.6925Y-1.1625
X5.6925Y-2.7625
X5.7712Y-1.1625
X5.7712Y-2.7625
X5.85Y-1.1625
X5.85Y-2.7625
T4
X7.16Y-1.5675
X7.16Y-1.6577
X7.16Y-1.7478
X7.16Y-1.838
X7.16Y-1.9281
X7.16Y-2.0183
X7.16Y-2.1084
X7.16Y-2.1986
X7.16Y-2.2888
X7.238Y-1.5224
X7.238Y-1.6126
X7.238Y-1.7027
X7.238Y-1.7929
X7.238Y-1.8831
X7.238Y-1.9732
X7.238Y-2.0634
X7.238Y-2.1535
X7.238Y-2.2437
X7.3159Y-1.5675
X7.3159Y-1.6577
X7.3159Y-1.7478
X7.3159Y-1.838
X7.3159Y-1.9281
X7.3159Y-2.0183
X7.3159Y-2.1084
X7.3159Y-2.1986
X6.455Y-3.2
X6.455Y-3.3
X6.455Y-3.4
X6.455Y-3.5
X6.455Y-3.6
X6.455Y-3.7
X6.455Y-3.8
X6.455Y-3.9
X6.455Y-4.0
X6.455Y-4.1
X6.455Y-4.2
X6.455Y-4.3
X6.455Y-4.4
X6.16Y-3.3
X4.825Y-4.32
X4.825Y-4.42
X7.485Y-2.3176
X7.485Y-2.5735
X7.6622Y-2.3176
X7.6622Y-2.5735
X6.16Y-1.4625
X6.26Y-1.4625
X7.546Y-3.052
X7.646Y-3.052
X7.485Y-3.7001
X7.485Y-3.956
X7.6622Y-3.7001
X6.865Y-3.49
X6.865Y-3.59
X6.865Y-3.69
X6.865Y-3.79
X6.865Y-3.89
X6.865Y-3.99
X6.865Y-4.09
X6.865Y-4.19
X6.865Y-4.29
X6.865Y-4.39
X6.865Y-4.49
X6.865Y-4.59
X7.485Y-1.4056
X7.485Y-1.6615
X7.6622Y-1.4056
X7.6622Y-1.6615
X7.546Y-1.2145
X7.646Y-1.2145
X7.6622Y-3.956
X6.865Y-1.6525
X6.865Y-1.7525
X7.613Y-2.7595
X7.513Y-2.7595
X6.865Y-1.8525
X6.865Y-1.9525
X6.865Y-2.0525
X6.865Y-2.1525
X6.865Y-2.2525
X6.865Y-2.3525
X6.865Y-2.4525
X6.865Y-2.5525
X6.865Y-2.6525
X6.26Y-3.3
X6.865Y-2.7525
X7.16Y-3.405
X7.485Y-4.1551
X7.485Y-4.411
X4.825Y-2.4825
X4.825Y-2.5825
X6.455Y-1.3625
X6.455Y-1.4625
X6.455Y-1.5625
X6.455Y-1.6625
X6.455Y-1.7625
X6.455Y-1.8625
X6.455Y-1.9625
X6.455Y-2.0625
X6.455Y-2.1625
X6.455Y-2.2625
X6.455Y-2.3625
X6.455Y-2.4625
X6.455Y-2.5625
X7.485Y-3.2431
X7.485Y-3.499
X7.6622Y-3.2431
X7.6622Y-4.1551
X7.6622Y-4.411
X7.485Y-1.8626
X7.485Y-2.1185
X7.6622Y-1.8626
X7.6622Y-2.1185
X7.16Y-4.0361
X7.6622Y-3.499
X7.16Y-3.5853
X7.16Y-3.9459
X7.16Y-4.1263
X7.238Y-3.3599
X7.513Y-4.597
X7.613Y-4.597
X7.16Y-3.4952
X7.16Y-3.6755
X7.16Y-3.7656
X7.16Y-3.8558
X7.238Y-3.4501
X7.238Y-3.5402
X7.238Y-3.6304
X7.238Y-3.7206
X7.238Y-3.8107
X7.238Y-3.9009
X7.238Y-3.991
X7.238Y-4.0812
X7.3159Y-3.405
X7.3159Y-3.4952
X7.3159Y-3.5853
X7.3159Y-3.6755
X7.3159Y-3.7656
X7.3159Y-3.8558
X7.3159Y-3.9459
X7.3159Y-4.0361
T5
X4.495Y-1.1425
X4.495Y-2.98
X4.57Y-2.7775
X4.57Y-4.615
X6.62Y-1.1425
X6.62Y-2.7775
X6.62Y-2.98
X6.62Y-4.615
T6
X7.238Y-1.2516
X7.238Y-2.5626
X7.238Y-3.0891
X7.238Y-4.4001
T0
M30
