G04 #@! TF.GenerationSoftware,KiCad,Pcbnew,(5.1.0-0)*
G04 #@! TF.CreationDate,2019-04-23T20:45:17+03:00*
G04 #@! TF.ProjectId,panel,70616e65-6c2e-46b6-9963-61645f706362,1.0*
G04 #@! TF.SameCoordinates,Original*
G04 #@! TF.FileFunction,Legend,Bot*
G04 #@! TF.FilePolarity,Positive*
%FSLAX46Y46*%
G04 Gerber Fmt 4.6, Leading zero omitted, Abs format (unit mm)*
G04 Created by KiCad (PCBNEW (5.1.0-0)) date 2019-04-23 20:45:17*
%MOMM*%
%LPD*%
G04 APERTURE LIST*
%ADD10C,0.150000*%
%ADD11C,0.120000*%
G04 APERTURE END LIST*
D10*
X173511904Y-29393119D02*
X173511904Y-29583595D01*
X173550000Y-29678833D01*
X173626190Y-29774071D01*
X173778571Y-29821690D01*
X174045238Y-29821690D01*
X174197619Y-29774071D01*
X174273809Y-29678833D01*
X174311904Y-29583595D01*
X174311904Y-29393119D01*
X174273809Y-29297880D01*
X174197619Y-29202642D01*
X174045238Y-29155023D01*
X173778571Y-29155023D01*
X173626190Y-29202642D01*
X173550000Y-29297880D01*
X173511904Y-29393119D01*
X173511904Y-30107404D02*
X174311904Y-30440738D01*
X173511904Y-30774071D01*
X174311904Y-31107404D02*
X173511904Y-31107404D01*
X174083333Y-31440738D01*
X173511904Y-31774071D01*
X174311904Y-31774071D01*
X174273809Y-32202642D02*
X174311904Y-32345500D01*
X174311904Y-32583595D01*
X174273809Y-32678833D01*
X174235714Y-32726452D01*
X174159523Y-32774071D01*
X174083333Y-32774071D01*
X174007142Y-32726452D01*
X173969047Y-32678833D01*
X173930952Y-32583595D01*
X173892857Y-32393119D01*
X173854761Y-32297880D01*
X173816666Y-32250261D01*
X173740476Y-32202642D01*
X173664285Y-32202642D01*
X173588095Y-32250261D01*
X173550000Y-32297880D01*
X173511904Y-32393119D01*
X173511904Y-32631214D01*
X173550000Y-32774071D01*
X174273809Y-33916928D02*
X174311904Y-34059785D01*
X174311904Y-34297880D01*
X174273809Y-34393119D01*
X174235714Y-34440738D01*
X174159523Y-34488357D01*
X174083333Y-34488357D01*
X174007142Y-34440738D01*
X173969047Y-34393119D01*
X173930952Y-34297880D01*
X173892857Y-34107404D01*
X173854761Y-34012166D01*
X173816666Y-33964547D01*
X173740476Y-33916928D01*
X173664285Y-33916928D01*
X173588095Y-33964547D01*
X173550000Y-34012166D01*
X173511904Y-34107404D01*
X173511904Y-34345500D01*
X173550000Y-34488357D01*
X173511904Y-34821690D02*
X174311904Y-35059785D01*
X173740476Y-35250261D01*
X174311904Y-35440738D01*
X173511904Y-35678833D01*
X174235714Y-36631214D02*
X174273809Y-36583595D01*
X174311904Y-36440738D01*
X174311904Y-36345500D01*
X174273809Y-36202642D01*
X174197619Y-36107404D01*
X174121428Y-36059785D01*
X173969047Y-36012166D01*
X173854761Y-36012166D01*
X173702380Y-36059785D01*
X173626190Y-36107404D01*
X173550000Y-36202642D01*
X173511904Y-36345500D01*
X173511904Y-36440738D01*
X173550000Y-36583595D01*
X173588095Y-36631214D01*
X174083333Y-37012166D02*
X174083333Y-37488357D01*
X174311904Y-36916928D02*
X173511904Y-37250261D01*
X174311904Y-37583595D01*
X174311904Y-37916928D02*
X173511904Y-37916928D01*
X174311904Y-38488357D01*
X173511904Y-38488357D01*
X175661904Y-29655023D02*
X174861904Y-29655023D01*
X175623809Y-29655023D02*
X175661904Y-29559785D01*
X175661904Y-29369309D01*
X175623809Y-29274071D01*
X175585714Y-29226452D01*
X175509523Y-29178833D01*
X175280952Y-29178833D01*
X175204761Y-29226452D01*
X175166666Y-29274071D01*
X175128571Y-29369309D01*
X175128571Y-29559785D01*
X175166666Y-29655023D01*
X175661904Y-30274071D02*
X175623809Y-30178833D01*
X175585714Y-30131214D01*
X175509523Y-30083595D01*
X175280952Y-30083595D01*
X175204761Y-30131214D01*
X175166666Y-30178833D01*
X175128571Y-30274071D01*
X175128571Y-30416928D01*
X175166666Y-30512166D01*
X175204761Y-30559785D01*
X175280952Y-30607404D01*
X175509523Y-30607404D01*
X175585714Y-30559785D01*
X175623809Y-30512166D01*
X175661904Y-30416928D01*
X175661904Y-30274071D01*
X175128571Y-31035976D02*
X175661904Y-31035976D01*
X175204761Y-31035976D02*
X175166666Y-31083595D01*
X175128571Y-31178833D01*
X175128571Y-31321690D01*
X175166666Y-31416928D01*
X175242857Y-31464547D01*
X175661904Y-31464547D01*
X175128571Y-32369309D02*
X175776190Y-32369309D01*
X175852380Y-32321690D01*
X175890476Y-32274071D01*
X175928571Y-32178833D01*
X175928571Y-32035976D01*
X175890476Y-31940738D01*
X175623809Y-32369309D02*
X175661904Y-32274071D01*
X175661904Y-32083595D01*
X175623809Y-31988357D01*
X175585714Y-31940738D01*
X175509523Y-31893119D01*
X175280952Y-31893119D01*
X175204761Y-31940738D01*
X175166666Y-31988357D01*
X175128571Y-32083595D01*
X175128571Y-32274071D01*
X175166666Y-32369309D01*
X175661904Y-32988357D02*
X175623809Y-32893119D01*
X175547619Y-32845500D01*
X174861904Y-32845500D01*
X175623809Y-33750261D02*
X175661904Y-33655023D01*
X175661904Y-33464547D01*
X175623809Y-33369309D01*
X175547619Y-33321690D01*
X175242857Y-33321690D01*
X175166666Y-33369309D01*
X175128571Y-33464547D01*
X175128571Y-33655023D01*
X175166666Y-33750261D01*
X175242857Y-33797880D01*
X175319047Y-33797880D01*
X175395238Y-33321690D01*
X175661904Y-34988357D02*
X175128571Y-34988357D01*
X175280952Y-34988357D02*
X175204761Y-35035976D01*
X175166666Y-35083595D01*
X175128571Y-35178833D01*
X175128571Y-35274071D01*
X175623809Y-35988357D02*
X175661904Y-35893119D01*
X175661904Y-35702642D01*
X175623809Y-35607404D01*
X175547619Y-35559785D01*
X175242857Y-35559785D01*
X175166666Y-35607404D01*
X175128571Y-35702642D01*
X175128571Y-35893119D01*
X175166666Y-35988357D01*
X175242857Y-36035976D01*
X175319047Y-36035976D01*
X175395238Y-35559785D01*
X175128571Y-36369309D02*
X175661904Y-36607404D01*
X175128571Y-36845500D01*
X175661904Y-38512166D02*
X175661904Y-37940738D01*
X175661904Y-38226452D02*
X174861904Y-38226452D01*
X174976190Y-38131214D01*
X175052380Y-38035976D01*
X175090476Y-37940738D01*
X173511904Y-76065619D02*
X173511904Y-76256095D01*
X173550000Y-76351333D01*
X173626190Y-76446571D01*
X173778571Y-76494190D01*
X174045238Y-76494190D01*
X174197619Y-76446571D01*
X174273809Y-76351333D01*
X174311904Y-76256095D01*
X174311904Y-76065619D01*
X174273809Y-75970380D01*
X174197619Y-75875142D01*
X174045238Y-75827523D01*
X173778571Y-75827523D01*
X173626190Y-75875142D01*
X173550000Y-75970380D01*
X173511904Y-76065619D01*
X173511904Y-76779904D02*
X174311904Y-77113238D01*
X173511904Y-77446571D01*
X174311904Y-77779904D02*
X173511904Y-77779904D01*
X174083333Y-78113238D01*
X173511904Y-78446571D01*
X174311904Y-78446571D01*
X174273809Y-78875142D02*
X174311904Y-79018000D01*
X174311904Y-79256095D01*
X174273809Y-79351333D01*
X174235714Y-79398952D01*
X174159523Y-79446571D01*
X174083333Y-79446571D01*
X174007142Y-79398952D01*
X173969047Y-79351333D01*
X173930952Y-79256095D01*
X173892857Y-79065619D01*
X173854761Y-78970380D01*
X173816666Y-78922761D01*
X173740476Y-78875142D01*
X173664285Y-78875142D01*
X173588095Y-78922761D01*
X173550000Y-78970380D01*
X173511904Y-79065619D01*
X173511904Y-79303714D01*
X173550000Y-79446571D01*
X174273809Y-80589428D02*
X174311904Y-80732285D01*
X174311904Y-80970380D01*
X174273809Y-81065619D01*
X174235714Y-81113238D01*
X174159523Y-81160857D01*
X174083333Y-81160857D01*
X174007142Y-81113238D01*
X173969047Y-81065619D01*
X173930952Y-80970380D01*
X173892857Y-80779904D01*
X173854761Y-80684666D01*
X173816666Y-80637047D01*
X173740476Y-80589428D01*
X173664285Y-80589428D01*
X173588095Y-80637047D01*
X173550000Y-80684666D01*
X173511904Y-80779904D01*
X173511904Y-81018000D01*
X173550000Y-81160857D01*
X173511904Y-81494190D02*
X174311904Y-81732285D01*
X173740476Y-81922761D01*
X174311904Y-82113238D01*
X173511904Y-82351333D01*
X174235714Y-83303714D02*
X174273809Y-83256095D01*
X174311904Y-83113238D01*
X174311904Y-83018000D01*
X174273809Y-82875142D01*
X174197619Y-82779904D01*
X174121428Y-82732285D01*
X173969047Y-82684666D01*
X173854761Y-82684666D01*
X173702380Y-82732285D01*
X173626190Y-82779904D01*
X173550000Y-82875142D01*
X173511904Y-83018000D01*
X173511904Y-83113238D01*
X173550000Y-83256095D01*
X173588095Y-83303714D01*
X174083333Y-83684666D02*
X174083333Y-84160857D01*
X174311904Y-83589428D02*
X173511904Y-83922761D01*
X174311904Y-84256095D01*
X174311904Y-84589428D02*
X173511904Y-84589428D01*
X174311904Y-85160857D01*
X173511904Y-85160857D01*
X175661904Y-76327523D02*
X174861904Y-76327523D01*
X175623809Y-76327523D02*
X175661904Y-76232285D01*
X175661904Y-76041809D01*
X175623809Y-75946571D01*
X175585714Y-75898952D01*
X175509523Y-75851333D01*
X175280952Y-75851333D01*
X175204761Y-75898952D01*
X175166666Y-75946571D01*
X175128571Y-76041809D01*
X175128571Y-76232285D01*
X175166666Y-76327523D01*
X175661904Y-76946571D02*
X175623809Y-76851333D01*
X175585714Y-76803714D01*
X175509523Y-76756095D01*
X175280952Y-76756095D01*
X175204761Y-76803714D01*
X175166666Y-76851333D01*
X175128571Y-76946571D01*
X175128571Y-77089428D01*
X175166666Y-77184666D01*
X175204761Y-77232285D01*
X175280952Y-77279904D01*
X175509523Y-77279904D01*
X175585714Y-77232285D01*
X175623809Y-77184666D01*
X175661904Y-77089428D01*
X175661904Y-76946571D01*
X175128571Y-77708476D02*
X175661904Y-77708476D01*
X175204761Y-77708476D02*
X175166666Y-77756095D01*
X175128571Y-77851333D01*
X175128571Y-77994190D01*
X175166666Y-78089428D01*
X175242857Y-78137047D01*
X175661904Y-78137047D01*
X175128571Y-79041809D02*
X175776190Y-79041809D01*
X175852380Y-78994190D01*
X175890476Y-78946571D01*
X175928571Y-78851333D01*
X175928571Y-78708476D01*
X175890476Y-78613238D01*
X175623809Y-79041809D02*
X175661904Y-78946571D01*
X175661904Y-78756095D01*
X175623809Y-78660857D01*
X175585714Y-78613238D01*
X175509523Y-78565619D01*
X175280952Y-78565619D01*
X175204761Y-78613238D01*
X175166666Y-78660857D01*
X175128571Y-78756095D01*
X175128571Y-78946571D01*
X175166666Y-79041809D01*
X175661904Y-79660857D02*
X175623809Y-79565619D01*
X175547619Y-79518000D01*
X174861904Y-79518000D01*
X175623809Y-80422761D02*
X175661904Y-80327523D01*
X175661904Y-80137047D01*
X175623809Y-80041809D01*
X175547619Y-79994190D01*
X175242857Y-79994190D01*
X175166666Y-80041809D01*
X175128571Y-80137047D01*
X175128571Y-80327523D01*
X175166666Y-80422761D01*
X175242857Y-80470380D01*
X175319047Y-80470380D01*
X175395238Y-79994190D01*
X175661904Y-81660857D02*
X175128571Y-81660857D01*
X175280952Y-81660857D02*
X175204761Y-81708476D01*
X175166666Y-81756095D01*
X175128571Y-81851333D01*
X175128571Y-81946571D01*
X175623809Y-82660857D02*
X175661904Y-82565619D01*
X175661904Y-82375142D01*
X175623809Y-82279904D01*
X175547619Y-82232285D01*
X175242857Y-82232285D01*
X175166666Y-82279904D01*
X175128571Y-82375142D01*
X175128571Y-82565619D01*
X175166666Y-82660857D01*
X175242857Y-82708476D01*
X175319047Y-82708476D01*
X175395238Y-82232285D01*
X175128571Y-83041809D02*
X175661904Y-83279904D01*
X175128571Y-83518000D01*
X175661904Y-85184666D02*
X175661904Y-84613238D01*
X175661904Y-84898952D02*
X174861904Y-84898952D01*
X174976190Y-84803714D01*
X175052380Y-84708476D01*
X175090476Y-84613238D01*
D11*
X156101000Y-75581000D02*
X153301000Y-75581000D01*
X153301000Y-75581000D02*
X153301000Y-77581000D01*
X153301000Y-77581000D02*
X156101000Y-77581000D01*
X156101000Y-77581000D02*
X156101000Y-75581000D01*
X164214000Y-75581000D02*
X161414000Y-75581000D01*
X161414000Y-75581000D02*
X161414000Y-77581000D01*
X161414000Y-77581000D02*
X164214000Y-77581000D01*
X164214000Y-77581000D02*
X164214000Y-75581000D01*
X156101000Y-28908500D02*
X153301000Y-28908500D01*
X153301000Y-28908500D02*
X153301000Y-30908500D01*
X153301000Y-30908500D02*
X156101000Y-30908500D01*
X156101000Y-30908500D02*
X156101000Y-28908500D01*
X164214000Y-28908500D02*
X161414000Y-28908500D01*
X161414000Y-28908500D02*
X161414000Y-30908500D01*
X161414000Y-30908500D02*
X164214000Y-30908500D01*
X164214000Y-30908500D02*
X164214000Y-28908500D01*
X181582256Y-36423030D02*
X186682256Y-37322298D01*
X181582256Y-60455970D02*
X186682256Y-59556702D01*
X188054000Y-38957079D02*
X188054000Y-57921921D01*
X179634000Y-38057811D02*
X179634000Y-58821189D01*
X177072675Y-39814500D02*
X176639662Y-39564500D01*
X176639662Y-40064500D02*
X177072675Y-39814500D01*
X176639662Y-39564500D02*
X176639662Y-40064500D01*
X189094000Y-28779500D02*
X178594000Y-28779500D01*
X190154000Y-67039500D02*
X190154000Y-29839500D01*
X178594000Y-68099500D02*
X189094000Y-68099500D01*
X177534000Y-29839500D02*
X177534000Y-67039500D01*
X186682256Y-59556702D02*
G75*
G03X188054000Y-57921921I-288256J1634781D01*
G01*
X186682256Y-37322298D02*
G75*
G02X188054000Y-38957079I-288256J-1634781D01*
G01*
X181582256Y-60455970D02*
G75*
G02X179634000Y-58821189I-288256J1634781D01*
G01*
X181582256Y-36423030D02*
G75*
G03X179634000Y-38057811I-288256J-1634781D01*
G01*
X190154000Y-67039500D02*
G75*
G02X189094000Y-68099500I-1060000J0D01*
G01*
X190154000Y-29839500D02*
G75*
G03X189094000Y-28779500I-1060000J0D01*
G01*
X178594000Y-68099500D02*
G75*
G02X177534000Y-67039500I0J1060000D01*
G01*
X177534000Y-29839500D02*
G75*
G02X178594000Y-28779500I1060000J0D01*
G01*
X190795800Y-43981700D02*
X193255800Y-43981700D01*
X190795800Y-45451700D02*
X190795800Y-43981700D01*
X193255800Y-45451700D02*
X190795800Y-45451700D01*
X180419900Y-68835600D02*
X182879900Y-68835600D01*
X180419900Y-70305600D02*
X180419900Y-68835600D01*
X182879900Y-70305600D02*
X180419900Y-70305600D01*
X191543000Y-40610900D02*
X191543000Y-38150900D01*
X193013000Y-40610900D02*
X191543000Y-40610900D01*
X193013000Y-38150900D02*
X193013000Y-40610900D01*
X192305000Y-52167900D02*
X192305000Y-49707900D01*
X193775000Y-52167900D02*
X192305000Y-52167900D01*
X193775000Y-49707900D02*
X193775000Y-52167900D01*
X192251000Y-48847900D02*
X192251000Y-51307900D01*
X190781000Y-48847900D02*
X192251000Y-48847900D01*
X190781000Y-51307900D02*
X190781000Y-48847900D01*
X192432000Y-63851900D02*
X192432000Y-61391900D01*
X193902000Y-63851900D02*
X192432000Y-63851900D01*
X193902000Y-61391900D02*
X193902000Y-63851900D01*
X192378000Y-60531900D02*
X192378000Y-62991900D01*
X190908000Y-60531900D02*
X192378000Y-60531900D01*
X190908000Y-62991900D02*
X190908000Y-60531900D01*
X194192000Y-57846900D02*
X191732000Y-57846900D01*
X194192000Y-56376900D02*
X194192000Y-57846900D01*
X191732000Y-56376900D02*
X194192000Y-56376900D01*
X194192000Y-56322900D02*
X191732000Y-56322900D01*
X194192000Y-54852900D02*
X194192000Y-56322900D01*
X191732000Y-54852900D02*
X194192000Y-54852900D01*
X194065000Y-68273600D02*
X191605000Y-68273600D01*
X194065000Y-66803600D02*
X194065000Y-68273600D01*
X191605000Y-66803600D02*
X194065000Y-66803600D01*
X184598200Y-69483300D02*
X187058200Y-69483300D01*
X184598200Y-70953300D02*
X184598200Y-69483300D01*
X187058200Y-70953300D02*
X184598200Y-70953300D01*
X181582256Y-83095530D02*
X186682256Y-83994798D01*
X181582256Y-107128470D02*
X186682256Y-106229202D01*
X188054000Y-85629579D02*
X188054000Y-104594421D01*
X179634000Y-84730311D02*
X179634000Y-105493689D01*
X177072675Y-86487000D02*
X176639662Y-86237000D01*
X176639662Y-86737000D02*
X177072675Y-86487000D01*
X176639662Y-86237000D02*
X176639662Y-86737000D01*
X189094000Y-75452000D02*
X178594000Y-75452000D01*
X190154000Y-113712000D02*
X190154000Y-76512000D01*
X178594000Y-114772000D02*
X189094000Y-114772000D01*
X177534000Y-76512000D02*
X177534000Y-113712000D01*
X186682256Y-106229202D02*
G75*
G03X188054000Y-104594421I-288256J1634781D01*
G01*
X186682256Y-83994798D02*
G75*
G02X188054000Y-85629579I-288256J-1634781D01*
G01*
X181582256Y-107128470D02*
G75*
G02X179634000Y-105493689I-288256J1634781D01*
G01*
X181582256Y-83095530D02*
G75*
G03X179634000Y-84730311I-288256J-1634781D01*
G01*
X190154000Y-113712000D02*
G75*
G02X189094000Y-114772000I-1060000J0D01*
G01*
X190154000Y-76512000D02*
G75*
G03X189094000Y-75452000I-1060000J0D01*
G01*
X178594000Y-114772000D02*
G75*
G02X177534000Y-113712000I0J1060000D01*
G01*
X177534000Y-76512000D02*
G75*
G02X178594000Y-75452000I1060000J0D01*
G01*
X190795800Y-90654200D02*
X193255800Y-90654200D01*
X190795800Y-92124200D02*
X190795800Y-90654200D01*
X193255800Y-92124200D02*
X190795800Y-92124200D01*
X180419900Y-115508100D02*
X182879900Y-115508100D01*
X180419900Y-116978100D02*
X180419900Y-115508100D01*
X182879900Y-116978100D02*
X180419900Y-116978100D01*
X191543000Y-87283400D02*
X191543000Y-84823400D01*
X193013000Y-87283400D02*
X191543000Y-87283400D01*
X193013000Y-84823400D02*
X193013000Y-87283400D01*
X192305000Y-98840400D02*
X192305000Y-96380400D01*
X193775000Y-98840400D02*
X192305000Y-98840400D01*
X193775000Y-96380400D02*
X193775000Y-98840400D01*
X192251000Y-95520400D02*
X192251000Y-97980400D01*
X190781000Y-95520400D02*
X192251000Y-95520400D01*
X190781000Y-97980400D02*
X190781000Y-95520400D01*
X192432000Y-110524400D02*
X192432000Y-108064400D01*
X193902000Y-110524400D02*
X192432000Y-110524400D01*
X193902000Y-108064400D02*
X193902000Y-110524400D01*
X192378000Y-107204400D02*
X192378000Y-109664400D01*
X190908000Y-107204400D02*
X192378000Y-107204400D01*
X190908000Y-109664400D02*
X190908000Y-107204400D01*
X194192000Y-104519400D02*
X191732000Y-104519400D01*
X194192000Y-103049400D02*
X194192000Y-104519400D01*
X191732000Y-103049400D02*
X194192000Y-103049400D01*
X194192000Y-102995400D02*
X191732000Y-102995400D01*
X194192000Y-101525400D02*
X194192000Y-102995400D01*
X191732000Y-101525400D02*
X194192000Y-101525400D01*
X194065000Y-114946100D02*
X191605000Y-114946100D01*
X194065000Y-113476100D02*
X194065000Y-114946100D01*
X191605000Y-113476100D02*
X194065000Y-113476100D01*
X184598200Y-116155800D02*
X187058200Y-116155800D01*
X184598200Y-117625800D02*
X184598200Y-116155800D01*
X187058200Y-117625800D02*
X184598200Y-117625800D01*
D10*
X155534333Y-74233380D02*
X155534333Y-74947666D01*
X155581952Y-75090523D01*
X155677190Y-75185761D01*
X155820047Y-75233380D01*
X155915285Y-75233380D01*
X155058142Y-75233380D02*
X155058142Y-74233380D01*
X154677190Y-74233380D01*
X154581952Y-74281000D01*
X154534333Y-74328619D01*
X154486714Y-74423857D01*
X154486714Y-74566714D01*
X154534333Y-74661952D01*
X154581952Y-74709571D01*
X154677190Y-74757190D01*
X155058142Y-74757190D01*
X153629571Y-74233380D02*
X153820047Y-74233380D01*
X153915285Y-74281000D01*
X153962904Y-74328619D01*
X154058142Y-74471476D01*
X154105761Y-74661952D01*
X154105761Y-75042904D01*
X154058142Y-75138142D01*
X154010523Y-75185761D01*
X153915285Y-75233380D01*
X153724809Y-75233380D01*
X153629571Y-75185761D01*
X153581952Y-75138142D01*
X153534333Y-75042904D01*
X153534333Y-74804809D01*
X153581952Y-74709571D01*
X153629571Y-74661952D01*
X153724809Y-74614333D01*
X153915285Y-74614333D01*
X154010523Y-74661952D01*
X154058142Y-74709571D01*
X154105761Y-74804809D01*
X157724809Y-78409571D02*
X157581952Y-78457190D01*
X157534333Y-78504809D01*
X157486714Y-78600047D01*
X157486714Y-78742904D01*
X157534333Y-78838142D01*
X157581952Y-78885761D01*
X157677190Y-78933380D01*
X158058142Y-78933380D01*
X158058142Y-77933380D01*
X157724809Y-77933380D01*
X157629571Y-77981000D01*
X157581952Y-78028619D01*
X157534333Y-78123857D01*
X157534333Y-78219095D01*
X157581952Y-78314333D01*
X157629571Y-78361952D01*
X157724809Y-78409571D01*
X158058142Y-78409571D01*
X157201000Y-77933380D02*
X156629571Y-77933380D01*
X156915285Y-78933380D02*
X156915285Y-77933380D01*
X156296238Y-78933380D02*
X156296238Y-77933380D01*
X155724809Y-78933380D01*
X155724809Y-77933380D01*
X155296238Y-78028619D02*
X155248619Y-77981000D01*
X155153380Y-77933380D01*
X154915285Y-77933380D01*
X154820047Y-77981000D01*
X154772428Y-78028619D01*
X154724809Y-78123857D01*
X154724809Y-78219095D01*
X154772428Y-78361952D01*
X155343857Y-78933380D01*
X154724809Y-78933380D01*
X154534333Y-79028619D02*
X153772428Y-79028619D01*
X153581952Y-78885761D02*
X153439095Y-78933380D01*
X153201000Y-78933380D01*
X153105761Y-78885761D01*
X153058142Y-78838142D01*
X153010523Y-78742904D01*
X153010523Y-78647666D01*
X153058142Y-78552428D01*
X153105761Y-78504809D01*
X153201000Y-78457190D01*
X153391476Y-78409571D01*
X153486714Y-78361952D01*
X153534333Y-78314333D01*
X153581952Y-78219095D01*
X153581952Y-78123857D01*
X153534333Y-78028619D01*
X153486714Y-77981000D01*
X153391476Y-77933380D01*
X153153380Y-77933380D01*
X153010523Y-77981000D01*
X152581952Y-78409571D02*
X152248619Y-78409571D01*
X152105761Y-78933380D02*
X152581952Y-78933380D01*
X152581952Y-77933380D01*
X152105761Y-77933380D01*
X151201000Y-78933380D02*
X151677190Y-78933380D01*
X151677190Y-77933380D01*
X163647333Y-74233380D02*
X163647333Y-74947666D01*
X163694952Y-75090523D01*
X163790190Y-75185761D01*
X163933047Y-75233380D01*
X164028285Y-75233380D01*
X163171142Y-75233380D02*
X163171142Y-74233380D01*
X162790190Y-74233380D01*
X162694952Y-74281000D01*
X162647333Y-74328619D01*
X162599714Y-74423857D01*
X162599714Y-74566714D01*
X162647333Y-74661952D01*
X162694952Y-74709571D01*
X162790190Y-74757190D01*
X163171142Y-74757190D01*
X161694952Y-74233380D02*
X162171142Y-74233380D01*
X162218761Y-74709571D01*
X162171142Y-74661952D01*
X162075904Y-74614333D01*
X161837809Y-74614333D01*
X161742571Y-74661952D01*
X161694952Y-74709571D01*
X161647333Y-74804809D01*
X161647333Y-75042904D01*
X161694952Y-75138142D01*
X161742571Y-75185761D01*
X161837809Y-75233380D01*
X162075904Y-75233380D01*
X162171142Y-75185761D01*
X162218761Y-75138142D01*
X165837809Y-78409571D02*
X165694952Y-78457190D01*
X165647333Y-78504809D01*
X165599714Y-78600047D01*
X165599714Y-78742904D01*
X165647333Y-78838142D01*
X165694952Y-78885761D01*
X165790190Y-78933380D01*
X166171142Y-78933380D01*
X166171142Y-77933380D01*
X165837809Y-77933380D01*
X165742571Y-77981000D01*
X165694952Y-78028619D01*
X165647333Y-78123857D01*
X165647333Y-78219095D01*
X165694952Y-78314333D01*
X165742571Y-78361952D01*
X165837809Y-78409571D01*
X166171142Y-78409571D01*
X165314000Y-77933380D02*
X164742571Y-77933380D01*
X165028285Y-78933380D02*
X165028285Y-77933380D01*
X164409238Y-78933380D02*
X164409238Y-77933380D01*
X163837809Y-78933380D01*
X163837809Y-77933380D01*
X162837809Y-78933380D02*
X163409238Y-78933380D01*
X163123523Y-78933380D02*
X163123523Y-77933380D01*
X163218761Y-78076238D01*
X163314000Y-78171476D01*
X163409238Y-78219095D01*
X162647333Y-79028619D02*
X161885428Y-79028619D01*
X161694952Y-78885761D02*
X161552095Y-78933380D01*
X161314000Y-78933380D01*
X161218761Y-78885761D01*
X161171142Y-78838142D01*
X161123523Y-78742904D01*
X161123523Y-78647666D01*
X161171142Y-78552428D01*
X161218761Y-78504809D01*
X161314000Y-78457190D01*
X161504476Y-78409571D01*
X161599714Y-78361952D01*
X161647333Y-78314333D01*
X161694952Y-78219095D01*
X161694952Y-78123857D01*
X161647333Y-78028619D01*
X161599714Y-77981000D01*
X161504476Y-77933380D01*
X161266380Y-77933380D01*
X161123523Y-77981000D01*
X160694952Y-78409571D02*
X160361619Y-78409571D01*
X160218761Y-78933380D02*
X160694952Y-78933380D01*
X160694952Y-77933380D01*
X160218761Y-77933380D01*
X159314000Y-78933380D02*
X159790190Y-78933380D01*
X159790190Y-77933380D01*
X155534333Y-27560880D02*
X155534333Y-28275166D01*
X155581952Y-28418023D01*
X155677190Y-28513261D01*
X155820047Y-28560880D01*
X155915285Y-28560880D01*
X155058142Y-28560880D02*
X155058142Y-27560880D01*
X154677190Y-27560880D01*
X154581952Y-27608500D01*
X154534333Y-27656119D01*
X154486714Y-27751357D01*
X154486714Y-27894214D01*
X154534333Y-27989452D01*
X154581952Y-28037071D01*
X154677190Y-28084690D01*
X155058142Y-28084690D01*
X153629571Y-27560880D02*
X153820047Y-27560880D01*
X153915285Y-27608500D01*
X153962904Y-27656119D01*
X154058142Y-27798976D01*
X154105761Y-27989452D01*
X154105761Y-28370404D01*
X154058142Y-28465642D01*
X154010523Y-28513261D01*
X153915285Y-28560880D01*
X153724809Y-28560880D01*
X153629571Y-28513261D01*
X153581952Y-28465642D01*
X153534333Y-28370404D01*
X153534333Y-28132309D01*
X153581952Y-28037071D01*
X153629571Y-27989452D01*
X153724809Y-27941833D01*
X153915285Y-27941833D01*
X154010523Y-27989452D01*
X154058142Y-28037071D01*
X154105761Y-28132309D01*
X157724809Y-31737071D02*
X157581952Y-31784690D01*
X157534333Y-31832309D01*
X157486714Y-31927547D01*
X157486714Y-32070404D01*
X157534333Y-32165642D01*
X157581952Y-32213261D01*
X157677190Y-32260880D01*
X158058142Y-32260880D01*
X158058142Y-31260880D01*
X157724809Y-31260880D01*
X157629571Y-31308500D01*
X157581952Y-31356119D01*
X157534333Y-31451357D01*
X157534333Y-31546595D01*
X157581952Y-31641833D01*
X157629571Y-31689452D01*
X157724809Y-31737071D01*
X158058142Y-31737071D01*
X157201000Y-31260880D02*
X156629571Y-31260880D01*
X156915285Y-32260880D02*
X156915285Y-31260880D01*
X156296238Y-32260880D02*
X156296238Y-31260880D01*
X155724809Y-32260880D01*
X155724809Y-31260880D01*
X155296238Y-31356119D02*
X155248619Y-31308500D01*
X155153380Y-31260880D01*
X154915285Y-31260880D01*
X154820047Y-31308500D01*
X154772428Y-31356119D01*
X154724809Y-31451357D01*
X154724809Y-31546595D01*
X154772428Y-31689452D01*
X155343857Y-32260880D01*
X154724809Y-32260880D01*
X154534333Y-32356119D02*
X153772428Y-32356119D01*
X153581952Y-32213261D02*
X153439095Y-32260880D01*
X153201000Y-32260880D01*
X153105761Y-32213261D01*
X153058142Y-32165642D01*
X153010523Y-32070404D01*
X153010523Y-31975166D01*
X153058142Y-31879928D01*
X153105761Y-31832309D01*
X153201000Y-31784690D01*
X153391476Y-31737071D01*
X153486714Y-31689452D01*
X153534333Y-31641833D01*
X153581952Y-31546595D01*
X153581952Y-31451357D01*
X153534333Y-31356119D01*
X153486714Y-31308500D01*
X153391476Y-31260880D01*
X153153380Y-31260880D01*
X153010523Y-31308500D01*
X152581952Y-31737071D02*
X152248619Y-31737071D01*
X152105761Y-32260880D02*
X152581952Y-32260880D01*
X152581952Y-31260880D01*
X152105761Y-31260880D01*
X151201000Y-32260880D02*
X151677190Y-32260880D01*
X151677190Y-31260880D01*
X163647333Y-27560880D02*
X163647333Y-28275166D01*
X163694952Y-28418023D01*
X163790190Y-28513261D01*
X163933047Y-28560880D01*
X164028285Y-28560880D01*
X163171142Y-28560880D02*
X163171142Y-27560880D01*
X162790190Y-27560880D01*
X162694952Y-27608500D01*
X162647333Y-27656119D01*
X162599714Y-27751357D01*
X162599714Y-27894214D01*
X162647333Y-27989452D01*
X162694952Y-28037071D01*
X162790190Y-28084690D01*
X163171142Y-28084690D01*
X161694952Y-27560880D02*
X162171142Y-27560880D01*
X162218761Y-28037071D01*
X162171142Y-27989452D01*
X162075904Y-27941833D01*
X161837809Y-27941833D01*
X161742571Y-27989452D01*
X161694952Y-28037071D01*
X161647333Y-28132309D01*
X161647333Y-28370404D01*
X161694952Y-28465642D01*
X161742571Y-28513261D01*
X161837809Y-28560880D01*
X162075904Y-28560880D01*
X162171142Y-28513261D01*
X162218761Y-28465642D01*
X165837809Y-31737071D02*
X165694952Y-31784690D01*
X165647333Y-31832309D01*
X165599714Y-31927547D01*
X165599714Y-32070404D01*
X165647333Y-32165642D01*
X165694952Y-32213261D01*
X165790190Y-32260880D01*
X166171142Y-32260880D01*
X166171142Y-31260880D01*
X165837809Y-31260880D01*
X165742571Y-31308500D01*
X165694952Y-31356119D01*
X165647333Y-31451357D01*
X165647333Y-31546595D01*
X165694952Y-31641833D01*
X165742571Y-31689452D01*
X165837809Y-31737071D01*
X166171142Y-31737071D01*
X165314000Y-31260880D02*
X164742571Y-31260880D01*
X165028285Y-32260880D02*
X165028285Y-31260880D01*
X164409238Y-32260880D02*
X164409238Y-31260880D01*
X163837809Y-32260880D01*
X163837809Y-31260880D01*
X162837809Y-32260880D02*
X163409238Y-32260880D01*
X163123523Y-32260880D02*
X163123523Y-31260880D01*
X163218761Y-31403738D01*
X163314000Y-31498976D01*
X163409238Y-31546595D01*
X162647333Y-32356119D02*
X161885428Y-32356119D01*
X161694952Y-32213261D02*
X161552095Y-32260880D01*
X161314000Y-32260880D01*
X161218761Y-32213261D01*
X161171142Y-32165642D01*
X161123523Y-32070404D01*
X161123523Y-31975166D01*
X161171142Y-31879928D01*
X161218761Y-31832309D01*
X161314000Y-31784690D01*
X161504476Y-31737071D01*
X161599714Y-31689452D01*
X161647333Y-31641833D01*
X161694952Y-31546595D01*
X161694952Y-31451357D01*
X161647333Y-31356119D01*
X161599714Y-31308500D01*
X161504476Y-31260880D01*
X161266380Y-31260880D01*
X161123523Y-31308500D01*
X160694952Y-31737071D02*
X160361619Y-31737071D01*
X160218761Y-32260880D02*
X160694952Y-32260880D01*
X160694952Y-31260880D01*
X160218761Y-31260880D01*
X159314000Y-32260880D02*
X159790190Y-32260880D01*
X159790190Y-31260880D01*
X195637085Y-45078604D02*
X195903752Y-44697652D01*
X196094228Y-45078604D02*
X196094228Y-44278604D01*
X195789466Y-44278604D01*
X195713276Y-44316700D01*
X195675180Y-44354795D01*
X195637085Y-44430985D01*
X195637085Y-44545271D01*
X195675180Y-44621461D01*
X195713276Y-44659557D01*
X195789466Y-44697652D01*
X196094228Y-44697652D01*
X194875180Y-45078604D02*
X195332323Y-45078604D01*
X195103752Y-45078604D02*
X195103752Y-44278604D01*
X195179942Y-44392890D01*
X195256133Y-44469080D01*
X195332323Y-44507176D01*
X194189466Y-44545271D02*
X194189466Y-45078604D01*
X194379942Y-44240509D02*
X194570419Y-44811938D01*
X194075180Y-44811938D01*
X182608457Y-71445380D02*
X182941790Y-70969190D01*
X183179885Y-71445380D02*
X183179885Y-70445380D01*
X182798933Y-70445380D01*
X182703695Y-70493000D01*
X182656076Y-70540619D01*
X182608457Y-70635857D01*
X182608457Y-70778714D01*
X182656076Y-70873952D01*
X182703695Y-70921571D01*
X182798933Y-70969190D01*
X183179885Y-70969190D01*
X181656076Y-71445380D02*
X182227504Y-71445380D01*
X181941790Y-71445380D02*
X181941790Y-70445380D01*
X182037028Y-70588238D01*
X182132266Y-70683476D01*
X182227504Y-70731095D01*
X181322742Y-70445380D02*
X180703695Y-70445380D01*
X181037028Y-70826333D01*
X180894171Y-70826333D01*
X180798933Y-70873952D01*
X180751314Y-70921571D01*
X180703695Y-71016809D01*
X180703695Y-71254904D01*
X180751314Y-71350142D01*
X180798933Y-71397761D01*
X180894171Y-71445380D01*
X181179885Y-71445380D01*
X181275123Y-71397761D01*
X181322742Y-71350142D01*
X194160380Y-38784233D02*
X193684190Y-38450900D01*
X194160380Y-38212804D02*
X193160380Y-38212804D01*
X193160380Y-38593757D01*
X193208000Y-38688995D01*
X193255619Y-38736614D01*
X193350857Y-38784233D01*
X193493714Y-38784233D01*
X193588952Y-38736614D01*
X193636571Y-38688995D01*
X193684190Y-38593757D01*
X193684190Y-38212804D01*
X194160380Y-39260423D02*
X194160380Y-39450900D01*
X194112761Y-39546138D01*
X194065142Y-39593757D01*
X193922285Y-39688995D01*
X193731809Y-39736614D01*
X193350857Y-39736614D01*
X193255619Y-39688995D01*
X193208000Y-39641376D01*
X193160380Y-39546138D01*
X193160380Y-39355661D01*
X193208000Y-39260423D01*
X193255619Y-39212804D01*
X193350857Y-39165185D01*
X193588952Y-39165185D01*
X193684190Y-39212804D01*
X193731809Y-39260423D01*
X193779428Y-39355661D01*
X193779428Y-39546138D01*
X193731809Y-39641376D01*
X193684190Y-39688995D01*
X193588952Y-39736614D01*
X193492380Y-47801233D02*
X193016190Y-47467900D01*
X193492380Y-47229804D02*
X192492380Y-47229804D01*
X192492380Y-47610757D01*
X192540000Y-47705995D01*
X192587619Y-47753614D01*
X192682857Y-47801233D01*
X192825714Y-47801233D01*
X192920952Y-47753614D01*
X192968571Y-47705995D01*
X193016190Y-47610757D01*
X193016190Y-47229804D01*
X192920952Y-48372661D02*
X192873333Y-48277423D01*
X192825714Y-48229804D01*
X192730476Y-48182185D01*
X192682857Y-48182185D01*
X192587619Y-48229804D01*
X192540000Y-48277423D01*
X192492380Y-48372661D01*
X192492380Y-48563138D01*
X192540000Y-48658376D01*
X192587619Y-48705995D01*
X192682857Y-48753614D01*
X192730476Y-48753614D01*
X192825714Y-48705995D01*
X192873333Y-48658376D01*
X192920952Y-48563138D01*
X192920952Y-48372661D01*
X192968571Y-48277423D01*
X193016190Y-48229804D01*
X193111428Y-48182185D01*
X193301904Y-48182185D01*
X193397142Y-48229804D01*
X193444761Y-48277423D01*
X193492380Y-48372661D01*
X193492380Y-48563138D01*
X193444761Y-48658376D01*
X193397142Y-48705995D01*
X193301904Y-48753614D01*
X193111428Y-48753614D01*
X193016190Y-48705995D01*
X192968571Y-48658376D01*
X192920952Y-48563138D01*
X192095380Y-47801233D02*
X191619190Y-47467900D01*
X192095380Y-47229804D02*
X191095380Y-47229804D01*
X191095380Y-47610757D01*
X191143000Y-47705995D01*
X191190619Y-47753614D01*
X191285857Y-47801233D01*
X191428714Y-47801233D01*
X191523952Y-47753614D01*
X191571571Y-47705995D01*
X191619190Y-47610757D01*
X191619190Y-47229804D01*
X191095380Y-48134566D02*
X191095380Y-48801233D01*
X192095380Y-48372661D01*
X193619380Y-59358233D02*
X193143190Y-59024900D01*
X193619380Y-58786804D02*
X192619380Y-58786804D01*
X192619380Y-59167757D01*
X192667000Y-59262995D01*
X192714619Y-59310614D01*
X192809857Y-59358233D01*
X192952714Y-59358233D01*
X193047952Y-59310614D01*
X193095571Y-59262995D01*
X193143190Y-59167757D01*
X193143190Y-58786804D01*
X192619380Y-60215376D02*
X192619380Y-60024900D01*
X192667000Y-59929661D01*
X192714619Y-59882042D01*
X192857476Y-59786804D01*
X193047952Y-59739185D01*
X193428904Y-59739185D01*
X193524142Y-59786804D01*
X193571761Y-59834423D01*
X193619380Y-59929661D01*
X193619380Y-60120138D01*
X193571761Y-60215376D01*
X193524142Y-60262995D01*
X193428904Y-60310614D01*
X193190809Y-60310614D01*
X193095571Y-60262995D01*
X193047952Y-60215376D01*
X193000333Y-60120138D01*
X193000333Y-59929661D01*
X193047952Y-59834423D01*
X193095571Y-59786804D01*
X193190809Y-59739185D01*
X192095380Y-59358233D02*
X191619190Y-59024900D01*
X192095380Y-58786804D02*
X191095380Y-58786804D01*
X191095380Y-59167757D01*
X191143000Y-59262995D01*
X191190619Y-59310614D01*
X191285857Y-59358233D01*
X191428714Y-59358233D01*
X191523952Y-59310614D01*
X191571571Y-59262995D01*
X191619190Y-59167757D01*
X191619190Y-58786804D01*
X191095380Y-60262995D02*
X191095380Y-59786804D01*
X191571571Y-59739185D01*
X191523952Y-59786804D01*
X191476333Y-59882042D01*
X191476333Y-60120138D01*
X191523952Y-60215376D01*
X191571571Y-60262995D01*
X191666809Y-60310614D01*
X191904904Y-60310614D01*
X192000142Y-60262995D01*
X192047761Y-60215376D01*
X192095380Y-60120138D01*
X192095380Y-59882042D01*
X192047761Y-59786804D01*
X192000142Y-59739185D01*
X190158666Y-57564280D02*
X190492000Y-57088090D01*
X190730095Y-57564280D02*
X190730095Y-56564280D01*
X190349142Y-56564280D01*
X190253904Y-56611900D01*
X190206285Y-56659519D01*
X190158666Y-56754757D01*
X190158666Y-56897614D01*
X190206285Y-56992852D01*
X190253904Y-57040471D01*
X190349142Y-57088090D01*
X190730095Y-57088090D01*
X189301523Y-56897614D02*
X189301523Y-57564280D01*
X189539619Y-56516661D02*
X189777714Y-57230947D01*
X189158666Y-57230947D01*
X190158666Y-56040280D02*
X190492000Y-55564090D01*
X190730095Y-56040280D02*
X190730095Y-55040280D01*
X190349142Y-55040280D01*
X190253904Y-55087900D01*
X190206285Y-55135519D01*
X190158666Y-55230757D01*
X190158666Y-55373614D01*
X190206285Y-55468852D01*
X190253904Y-55516471D01*
X190349142Y-55564090D01*
X190730095Y-55564090D01*
X189825333Y-55040280D02*
X189206285Y-55040280D01*
X189539619Y-55421233D01*
X189396761Y-55421233D01*
X189301523Y-55468852D01*
X189253904Y-55516471D01*
X189206285Y-55611709D01*
X189206285Y-55849804D01*
X189253904Y-55945042D01*
X189301523Y-55992661D01*
X189396761Y-56040280D01*
X189682476Y-56040280D01*
X189777714Y-55992661D01*
X189825333Y-55945042D01*
X195111666Y-67990980D02*
X195445000Y-67514790D01*
X195683095Y-67990980D02*
X195683095Y-66990980D01*
X195302142Y-66990980D01*
X195206904Y-67038600D01*
X195159285Y-67086219D01*
X195111666Y-67181457D01*
X195111666Y-67324314D01*
X195159285Y-67419552D01*
X195206904Y-67467171D01*
X195302142Y-67514790D01*
X195683095Y-67514790D01*
X194730714Y-67086219D02*
X194683095Y-67038600D01*
X194587857Y-66990980D01*
X194349761Y-66990980D01*
X194254523Y-67038600D01*
X194206904Y-67086219D01*
X194159285Y-67181457D01*
X194159285Y-67276695D01*
X194206904Y-67419552D01*
X194778333Y-67990980D01*
X194159285Y-67990980D01*
X188978866Y-70670680D02*
X189312200Y-70194490D01*
X189550295Y-70670680D02*
X189550295Y-69670680D01*
X189169342Y-69670680D01*
X189074104Y-69718300D01*
X189026485Y-69765919D01*
X188978866Y-69861157D01*
X188978866Y-70004014D01*
X189026485Y-70099252D01*
X189074104Y-70146871D01*
X189169342Y-70194490D01*
X189550295Y-70194490D01*
X188026485Y-70670680D02*
X188597914Y-70670680D01*
X188312200Y-70670680D02*
X188312200Y-69670680D01*
X188407438Y-69813538D01*
X188502676Y-69908776D01*
X188597914Y-69956395D01*
X195637085Y-91751104D02*
X195903752Y-91370152D01*
X196094228Y-91751104D02*
X196094228Y-90951104D01*
X195789466Y-90951104D01*
X195713276Y-90989200D01*
X195675180Y-91027295D01*
X195637085Y-91103485D01*
X195637085Y-91217771D01*
X195675180Y-91293961D01*
X195713276Y-91332057D01*
X195789466Y-91370152D01*
X196094228Y-91370152D01*
X194875180Y-91751104D02*
X195332323Y-91751104D01*
X195103752Y-91751104D02*
X195103752Y-90951104D01*
X195179942Y-91065390D01*
X195256133Y-91141580D01*
X195332323Y-91179676D01*
X194189466Y-91217771D02*
X194189466Y-91751104D01*
X194379942Y-90913009D02*
X194570419Y-91484438D01*
X194075180Y-91484438D01*
X182608457Y-118117880D02*
X182941790Y-117641690D01*
X183179885Y-118117880D02*
X183179885Y-117117880D01*
X182798933Y-117117880D01*
X182703695Y-117165500D01*
X182656076Y-117213119D01*
X182608457Y-117308357D01*
X182608457Y-117451214D01*
X182656076Y-117546452D01*
X182703695Y-117594071D01*
X182798933Y-117641690D01*
X183179885Y-117641690D01*
X181656076Y-118117880D02*
X182227504Y-118117880D01*
X181941790Y-118117880D02*
X181941790Y-117117880D01*
X182037028Y-117260738D01*
X182132266Y-117355976D01*
X182227504Y-117403595D01*
X181322742Y-117117880D02*
X180703695Y-117117880D01*
X181037028Y-117498833D01*
X180894171Y-117498833D01*
X180798933Y-117546452D01*
X180751314Y-117594071D01*
X180703695Y-117689309D01*
X180703695Y-117927404D01*
X180751314Y-118022642D01*
X180798933Y-118070261D01*
X180894171Y-118117880D01*
X181179885Y-118117880D01*
X181275123Y-118070261D01*
X181322742Y-118022642D01*
X194160380Y-85456733D02*
X193684190Y-85123400D01*
X194160380Y-84885304D02*
X193160380Y-84885304D01*
X193160380Y-85266257D01*
X193208000Y-85361495D01*
X193255619Y-85409114D01*
X193350857Y-85456733D01*
X193493714Y-85456733D01*
X193588952Y-85409114D01*
X193636571Y-85361495D01*
X193684190Y-85266257D01*
X193684190Y-84885304D01*
X194160380Y-85932923D02*
X194160380Y-86123400D01*
X194112761Y-86218638D01*
X194065142Y-86266257D01*
X193922285Y-86361495D01*
X193731809Y-86409114D01*
X193350857Y-86409114D01*
X193255619Y-86361495D01*
X193208000Y-86313876D01*
X193160380Y-86218638D01*
X193160380Y-86028161D01*
X193208000Y-85932923D01*
X193255619Y-85885304D01*
X193350857Y-85837685D01*
X193588952Y-85837685D01*
X193684190Y-85885304D01*
X193731809Y-85932923D01*
X193779428Y-86028161D01*
X193779428Y-86218638D01*
X193731809Y-86313876D01*
X193684190Y-86361495D01*
X193588952Y-86409114D01*
X193492380Y-94473733D02*
X193016190Y-94140400D01*
X193492380Y-93902304D02*
X192492380Y-93902304D01*
X192492380Y-94283257D01*
X192540000Y-94378495D01*
X192587619Y-94426114D01*
X192682857Y-94473733D01*
X192825714Y-94473733D01*
X192920952Y-94426114D01*
X192968571Y-94378495D01*
X193016190Y-94283257D01*
X193016190Y-93902304D01*
X192920952Y-95045161D02*
X192873333Y-94949923D01*
X192825714Y-94902304D01*
X192730476Y-94854685D01*
X192682857Y-94854685D01*
X192587619Y-94902304D01*
X192540000Y-94949923D01*
X192492380Y-95045161D01*
X192492380Y-95235638D01*
X192540000Y-95330876D01*
X192587619Y-95378495D01*
X192682857Y-95426114D01*
X192730476Y-95426114D01*
X192825714Y-95378495D01*
X192873333Y-95330876D01*
X192920952Y-95235638D01*
X192920952Y-95045161D01*
X192968571Y-94949923D01*
X193016190Y-94902304D01*
X193111428Y-94854685D01*
X193301904Y-94854685D01*
X193397142Y-94902304D01*
X193444761Y-94949923D01*
X193492380Y-95045161D01*
X193492380Y-95235638D01*
X193444761Y-95330876D01*
X193397142Y-95378495D01*
X193301904Y-95426114D01*
X193111428Y-95426114D01*
X193016190Y-95378495D01*
X192968571Y-95330876D01*
X192920952Y-95235638D01*
X192095380Y-94473733D02*
X191619190Y-94140400D01*
X192095380Y-93902304D02*
X191095380Y-93902304D01*
X191095380Y-94283257D01*
X191143000Y-94378495D01*
X191190619Y-94426114D01*
X191285857Y-94473733D01*
X191428714Y-94473733D01*
X191523952Y-94426114D01*
X191571571Y-94378495D01*
X191619190Y-94283257D01*
X191619190Y-93902304D01*
X191095380Y-94807066D02*
X191095380Y-95473733D01*
X192095380Y-95045161D01*
X193619380Y-106030733D02*
X193143190Y-105697400D01*
X193619380Y-105459304D02*
X192619380Y-105459304D01*
X192619380Y-105840257D01*
X192667000Y-105935495D01*
X192714619Y-105983114D01*
X192809857Y-106030733D01*
X192952714Y-106030733D01*
X193047952Y-105983114D01*
X193095571Y-105935495D01*
X193143190Y-105840257D01*
X193143190Y-105459304D01*
X192619380Y-106887876D02*
X192619380Y-106697400D01*
X192667000Y-106602161D01*
X192714619Y-106554542D01*
X192857476Y-106459304D01*
X193047952Y-106411685D01*
X193428904Y-106411685D01*
X193524142Y-106459304D01*
X193571761Y-106506923D01*
X193619380Y-106602161D01*
X193619380Y-106792638D01*
X193571761Y-106887876D01*
X193524142Y-106935495D01*
X193428904Y-106983114D01*
X193190809Y-106983114D01*
X193095571Y-106935495D01*
X193047952Y-106887876D01*
X193000333Y-106792638D01*
X193000333Y-106602161D01*
X193047952Y-106506923D01*
X193095571Y-106459304D01*
X193190809Y-106411685D01*
X192095380Y-106030733D02*
X191619190Y-105697400D01*
X192095380Y-105459304D02*
X191095380Y-105459304D01*
X191095380Y-105840257D01*
X191143000Y-105935495D01*
X191190619Y-105983114D01*
X191285857Y-106030733D01*
X191428714Y-106030733D01*
X191523952Y-105983114D01*
X191571571Y-105935495D01*
X191619190Y-105840257D01*
X191619190Y-105459304D01*
X191095380Y-106935495D02*
X191095380Y-106459304D01*
X191571571Y-106411685D01*
X191523952Y-106459304D01*
X191476333Y-106554542D01*
X191476333Y-106792638D01*
X191523952Y-106887876D01*
X191571571Y-106935495D01*
X191666809Y-106983114D01*
X191904904Y-106983114D01*
X192000142Y-106935495D01*
X192047761Y-106887876D01*
X192095380Y-106792638D01*
X192095380Y-106554542D01*
X192047761Y-106459304D01*
X192000142Y-106411685D01*
X190158666Y-104236780D02*
X190492000Y-103760590D01*
X190730095Y-104236780D02*
X190730095Y-103236780D01*
X190349142Y-103236780D01*
X190253904Y-103284400D01*
X190206285Y-103332019D01*
X190158666Y-103427257D01*
X190158666Y-103570114D01*
X190206285Y-103665352D01*
X190253904Y-103712971D01*
X190349142Y-103760590D01*
X190730095Y-103760590D01*
X189301523Y-103570114D02*
X189301523Y-104236780D01*
X189539619Y-103189161D02*
X189777714Y-103903447D01*
X189158666Y-103903447D01*
X190158666Y-102712780D02*
X190492000Y-102236590D01*
X190730095Y-102712780D02*
X190730095Y-101712780D01*
X190349142Y-101712780D01*
X190253904Y-101760400D01*
X190206285Y-101808019D01*
X190158666Y-101903257D01*
X190158666Y-102046114D01*
X190206285Y-102141352D01*
X190253904Y-102188971D01*
X190349142Y-102236590D01*
X190730095Y-102236590D01*
X189825333Y-101712780D02*
X189206285Y-101712780D01*
X189539619Y-102093733D01*
X189396761Y-102093733D01*
X189301523Y-102141352D01*
X189253904Y-102188971D01*
X189206285Y-102284209D01*
X189206285Y-102522304D01*
X189253904Y-102617542D01*
X189301523Y-102665161D01*
X189396761Y-102712780D01*
X189682476Y-102712780D01*
X189777714Y-102665161D01*
X189825333Y-102617542D01*
X195111666Y-114663480D02*
X195445000Y-114187290D01*
X195683095Y-114663480D02*
X195683095Y-113663480D01*
X195302142Y-113663480D01*
X195206904Y-113711100D01*
X195159285Y-113758719D01*
X195111666Y-113853957D01*
X195111666Y-113996814D01*
X195159285Y-114092052D01*
X195206904Y-114139671D01*
X195302142Y-114187290D01*
X195683095Y-114187290D01*
X194730714Y-113758719D02*
X194683095Y-113711100D01*
X194587857Y-113663480D01*
X194349761Y-113663480D01*
X194254523Y-113711100D01*
X194206904Y-113758719D01*
X194159285Y-113853957D01*
X194159285Y-113949195D01*
X194206904Y-114092052D01*
X194778333Y-114663480D01*
X194159285Y-114663480D01*
X188978866Y-117343180D02*
X189312200Y-116866990D01*
X189550295Y-117343180D02*
X189550295Y-116343180D01*
X189169342Y-116343180D01*
X189074104Y-116390800D01*
X189026485Y-116438419D01*
X188978866Y-116533657D01*
X188978866Y-116676514D01*
X189026485Y-116771752D01*
X189074104Y-116819371D01*
X189169342Y-116866990D01*
X189550295Y-116866990D01*
X188026485Y-117343180D02*
X188597914Y-117343180D01*
X188312200Y-117343180D02*
X188312200Y-116343180D01*
X188407438Y-116486038D01*
X188502676Y-116581276D01*
X188597914Y-116628895D01*
M02*
