M48
; DRILL file {KiCad (5.1.0-0)} date 2019 April 23, Tuesday 20:34:47
; FORMAT={-:-/ absolute / inch / decimal}
; #@! TF.CreationDate,2019-04-23T20:34:47+03:00
; #@! TF.GenerationSoftware,Kicad,Pcbnew,(5.1.0-0)
; #@! TF.FileFunction,Plated,1,4,PTH
FMAT,2
INCH
T1C0.0157
T2C0.0394
T3C0.1260
%
G90
G05
T1
X0.635Y-1.13
X0.774Y-1.31
X0.827Y-1.271
X1.01Y-1.063
X1.119Y-1.395
X1.264Y-1.27
X1.284Y-1.315
X1.704Y-1.295
X1.84Y-1.1435
X2.095Y-0.519
T2
X2.148Y-1.266
X2.148Y-1.366
X1.701Y-1.205
X1.701Y-1.3822
X1.9569Y-1.205
X1.9569Y-1.3822
X0.789Y-1.205
X0.789Y-1.3822
X1.0449Y-1.205
X1.0449Y-1.3822
X1.244Y-1.205
X1.244Y-1.3822
X1.4999Y-1.205
X1.0737Y-0.88
X1.1188Y-0.958
X1.1639Y-0.88
X1.1639Y-1.0359
X1.209Y-0.958
X1.2541Y-0.88
X1.2541Y-1.0359
X1.2991Y-0.958
X1.3442Y-0.88
X1.3442Y-1.0359
X1.3893Y-0.958
X1.4344Y-0.88
X1.4344Y-1.0359
X1.4794Y-0.958
X1.5245Y-0.88
X1.5245Y-1.0359
X1.5696Y-0.958
X1.6147Y-0.88
X1.6147Y-1.0359
X1.6598Y-0.958
X1.7048Y-0.88
X1.7048Y-1.0359
X1.7499Y-0.958
X1.795Y-0.88
X1.4999Y-1.3822
X1.795Y-1.0359
X1.8401Y-0.958
X0.61Y-0.585
X0.71Y-0.585
X0.81Y-0.585
X0.91Y-0.585
X1.01Y-0.585
X1.11Y-0.585
X1.21Y-0.585
X1.31Y-0.585
X1.41Y-0.585
X1.51Y-0.585
X1.61Y-0.585
X1.71Y-0.585
X0.603Y-1.233
X0.603Y-1.333
T3
X0.7999Y-0.958
X2.1109Y-0.958
T0
M30
