G04 #@! TF.GenerationSoftware,KiCad,Pcbnew,(5.1.0-0)*
G04 #@! TF.CreationDate,2019-04-21T16:41:31+03:00*
G04 #@! TF.ProjectId,ovms-swcan-dongle,6f766d73-2d73-4776-9361-6e2d646f6e67,rev?*
G04 #@! TF.SameCoordinates,Original*
G04 #@! TF.FileFunction,Copper,L3,Inr*
G04 #@! TF.FilePolarity,Positive*
%FSLAX46Y46*%
G04 Gerber Fmt 4.6, Leading zero omitted, Abs format (unit mm)*
G04 Created by KiCad (PCBNEW (5.1.0-0)) date 2019-04-21 16:41:31*
%MOMM*%
%LPD*%
G04 APERTURE LIST*
%ADD10O,1.700000X1.700000*%
%ADD11R,1.700000X1.700000*%
%ADD12C,1.700000*%
%ADD13C,4.000000*%
%ADD14C,1.600000*%
%ADD15R,1.600000X1.600000*%
%ADD16C,0.800000*%
%ADD17C,0.150000*%
G04 APERTURE END LIST*
D10*
X15494000Y-14859000D03*
X18034000Y-14859000D03*
X20574000Y-14859000D03*
X23114000Y-14859000D03*
X25654000Y-14859000D03*
X28194000Y-14859000D03*
X30734000Y-14859000D03*
X33274000Y-14859000D03*
X35814000Y-14859000D03*
X38354000Y-14859000D03*
X40894000Y-14859000D03*
D11*
X43434000Y-14859000D03*
D12*
X40055800Y-30607000D03*
X46555800Y-30607000D03*
X40055800Y-35107000D03*
X46555800Y-35107000D03*
X28448000Y-30607000D03*
X34948000Y-30607000D03*
X28448000Y-35107000D03*
X34948000Y-35107000D03*
X16891000Y-30607000D03*
X23391000Y-30607000D03*
X16891000Y-35107000D03*
X23391000Y-35107000D03*
D13*
X20318000Y-24332000D03*
X53618000Y-24332000D03*
D14*
X29563000Y-26312000D03*
X31853000Y-26312000D03*
X34143000Y-26312000D03*
X36433000Y-26312000D03*
X38723000Y-26312000D03*
X41013000Y-26312000D03*
X43303000Y-26312000D03*
X45593000Y-26312000D03*
X28418000Y-24332000D03*
X30708000Y-24332000D03*
X32998000Y-24332000D03*
X35288000Y-24332000D03*
X37578000Y-24332000D03*
X39868000Y-24332000D03*
X42158000Y-24332000D03*
X44448000Y-24332000D03*
X46738000Y-24332000D03*
X27273000Y-22352000D03*
X29563000Y-22352000D03*
X31853000Y-22352000D03*
X34143000Y-22352000D03*
X36433000Y-22352000D03*
X38723000Y-22352000D03*
X41013000Y-22352000D03*
X43303000Y-22352000D03*
D15*
X45593000Y-22352000D03*
D11*
X50546000Y-33528000D03*
X55626000Y-33528000D03*
D16*
X46736000Y-29046000D03*
X25273000Y-35433000D03*
X40132000Y-32893000D03*
X16510000Y-33274000D03*
X29464002Y-33401000D03*
X15951200Y-28181300D03*
X28956000Y-32258000D03*
X53213000Y-12953990D03*
X17856200Y-32283400D03*
D17*
G36*
X52038000Y-13069717D02*
G01*
X52083155Y-13296725D01*
X52171729Y-13510561D01*
X52300318Y-13703009D01*
X52463981Y-13866672D01*
X52656429Y-13995261D01*
X52870265Y-14083835D01*
X53097273Y-14128990D01*
X53328727Y-14128990D01*
X53555735Y-14083835D01*
X53769571Y-13995261D01*
X53962019Y-13866672D01*
X54125682Y-13703009D01*
X54254271Y-13510561D01*
X54342845Y-13296725D01*
X54388000Y-13069717D01*
X54388000Y-12865000D01*
X57493000Y-12865000D01*
X57493001Y-36157000D01*
X47803897Y-36157000D01*
X47818020Y-36142877D01*
X47995857Y-35876726D01*
X48118352Y-35580995D01*
X48180800Y-35267049D01*
X48180800Y-34946951D01*
X48118352Y-34633005D01*
X47995857Y-34337274D01*
X47818020Y-34071123D01*
X47591677Y-33844780D01*
X47325526Y-33666943D01*
X47029795Y-33544448D01*
X46715849Y-33482000D01*
X46395751Y-33482000D01*
X46081805Y-33544448D01*
X45786074Y-33666943D01*
X45519923Y-33844780D01*
X45293580Y-34071123D01*
X45115743Y-34337274D01*
X44993248Y-34633005D01*
X44930800Y-34946951D01*
X44930800Y-35267049D01*
X44993248Y-35580995D01*
X45115743Y-35876726D01*
X45293580Y-36142877D01*
X45307703Y-36157000D01*
X41303897Y-36157000D01*
X41318020Y-36142877D01*
X41495857Y-35876726D01*
X41618352Y-35580995D01*
X41680800Y-35267049D01*
X41680800Y-34946951D01*
X41618352Y-34633005D01*
X41495857Y-34337274D01*
X41318020Y-34071123D01*
X41091677Y-33844780D01*
X40825526Y-33666943D01*
X40529795Y-33544448D01*
X40215849Y-33482000D01*
X39895751Y-33482000D01*
X39581805Y-33544448D01*
X39286074Y-33666943D01*
X39019923Y-33844780D01*
X38793580Y-34071123D01*
X38615743Y-34337274D01*
X38493248Y-34633005D01*
X38430800Y-34946951D01*
X38430800Y-35267049D01*
X38493248Y-35580995D01*
X38615743Y-35876726D01*
X38793580Y-36142877D01*
X38807703Y-36157000D01*
X36196097Y-36157000D01*
X36210220Y-36142877D01*
X36388057Y-35876726D01*
X36510552Y-35580995D01*
X36573000Y-35267049D01*
X36573000Y-34946951D01*
X36510552Y-34633005D01*
X36388057Y-34337274D01*
X36210220Y-34071123D01*
X35983877Y-33844780D01*
X35717726Y-33666943D01*
X35421995Y-33544448D01*
X35108049Y-33482000D01*
X34787951Y-33482000D01*
X34474005Y-33544448D01*
X34178274Y-33666943D01*
X33912123Y-33844780D01*
X33685780Y-34071123D01*
X33507943Y-34337274D01*
X33385448Y-34633005D01*
X33323000Y-34946951D01*
X33323000Y-35267049D01*
X33385448Y-35580995D01*
X33507943Y-35876726D01*
X33685780Y-36142877D01*
X33699903Y-36157000D01*
X29696097Y-36157000D01*
X29710220Y-36142877D01*
X29888057Y-35876726D01*
X30010552Y-35580995D01*
X30073000Y-35267049D01*
X30073000Y-34946951D01*
X30010552Y-34633005D01*
X29888057Y-34337274D01*
X29710220Y-34071123D01*
X29483877Y-33844780D01*
X29217726Y-33666943D01*
X28921995Y-33544448D01*
X28608049Y-33482000D01*
X28287951Y-33482000D01*
X27974005Y-33544448D01*
X27678274Y-33666943D01*
X27412123Y-33844780D01*
X27185780Y-34071123D01*
X27007943Y-34337274D01*
X26885448Y-34633005D01*
X26823000Y-34946951D01*
X26823000Y-35267049D01*
X26885448Y-35580995D01*
X27007943Y-35876726D01*
X27185780Y-36142877D01*
X27199903Y-36157000D01*
X24639097Y-36157000D01*
X24653220Y-36142877D01*
X24831057Y-35876726D01*
X24953552Y-35580995D01*
X25016000Y-35267049D01*
X25016000Y-34946951D01*
X24953552Y-34633005D01*
X24831057Y-34337274D01*
X24653220Y-34071123D01*
X24426877Y-33844780D01*
X24160726Y-33666943D01*
X23864995Y-33544448D01*
X23551049Y-33482000D01*
X23230951Y-33482000D01*
X22917005Y-33544448D01*
X22621274Y-33666943D01*
X22355123Y-33844780D01*
X22128780Y-34071123D01*
X21950943Y-34337274D01*
X21828448Y-34633005D01*
X21766000Y-34946951D01*
X21766000Y-35267049D01*
X21828448Y-35580995D01*
X21950943Y-35876726D01*
X22128780Y-36142877D01*
X22142903Y-36157000D01*
X18139097Y-36157000D01*
X18153220Y-36142877D01*
X18331057Y-35876726D01*
X18453552Y-35580995D01*
X18516000Y-35267049D01*
X18516000Y-34946951D01*
X18453552Y-34633005D01*
X18331057Y-34337274D01*
X18153220Y-34071123D01*
X17926877Y-33844780D01*
X17660726Y-33666943D01*
X17364995Y-33544448D01*
X17051049Y-33482000D01*
X16730951Y-33482000D01*
X16417005Y-33544448D01*
X16121274Y-33666943D01*
X15855123Y-33844780D01*
X15628780Y-34071123D01*
X15450943Y-34337274D01*
X15328448Y-34633005D01*
X15266000Y-34946951D01*
X15266000Y-35267049D01*
X15328448Y-35580995D01*
X15450943Y-35876726D01*
X15628780Y-36142877D01*
X15642903Y-36157000D01*
X13627000Y-36157000D01*
X13627000Y-28065573D01*
X14776200Y-28065573D01*
X14776200Y-28297027D01*
X14821355Y-28524035D01*
X14909929Y-28737871D01*
X15038518Y-28930319D01*
X15202181Y-29093982D01*
X15394629Y-29222571D01*
X15608465Y-29311145D01*
X15835473Y-29356300D01*
X15843603Y-29356300D01*
X15628780Y-29571123D01*
X15450943Y-29837274D01*
X15328448Y-30133005D01*
X15266000Y-30446951D01*
X15266000Y-30767049D01*
X15328448Y-31080995D01*
X15450943Y-31376726D01*
X15628780Y-31642877D01*
X15855123Y-31869220D01*
X16121274Y-32047057D01*
X16417005Y-32169552D01*
X16681200Y-32222104D01*
X16681200Y-32399127D01*
X16726355Y-32626135D01*
X16814929Y-32839971D01*
X16943518Y-33032419D01*
X17107181Y-33196082D01*
X17299629Y-33324671D01*
X17513465Y-33413245D01*
X17740473Y-33458400D01*
X17971927Y-33458400D01*
X18198935Y-33413245D01*
X18412771Y-33324671D01*
X18605219Y-33196082D01*
X18768882Y-33032419D01*
X18897471Y-32839971D01*
X18986045Y-32626135D01*
X19031200Y-32399127D01*
X19031200Y-32167673D01*
X18986045Y-31940665D01*
X18897471Y-31726829D01*
X18768882Y-31534381D01*
X18605219Y-31370718D01*
X18412771Y-31242129D01*
X18390611Y-31232950D01*
X18453552Y-31080995D01*
X18516000Y-30767049D01*
X18516000Y-30446951D01*
X21766000Y-30446951D01*
X21766000Y-30767049D01*
X21828448Y-31080995D01*
X21950943Y-31376726D01*
X22128780Y-31642877D01*
X22355123Y-31869220D01*
X22621274Y-32047057D01*
X22917005Y-32169552D01*
X23230951Y-32232000D01*
X23551049Y-32232000D01*
X23864995Y-32169552D01*
X24160726Y-32047057D01*
X24426877Y-31869220D01*
X24653220Y-31642877D01*
X24831057Y-31376726D01*
X24953552Y-31080995D01*
X25016000Y-30767049D01*
X25016000Y-30446951D01*
X26823000Y-30446951D01*
X26823000Y-30767049D01*
X26885448Y-31080995D01*
X27007943Y-31376726D01*
X27185780Y-31642877D01*
X27412123Y-31869220D01*
X27678274Y-32047057D01*
X27790679Y-32093616D01*
X27781000Y-32142273D01*
X27781000Y-32373727D01*
X27826155Y-32600735D01*
X27914729Y-32814571D01*
X28043318Y-33007019D01*
X28206981Y-33170682D01*
X28399429Y-33299271D01*
X28613265Y-33387845D01*
X28840273Y-33433000D01*
X29071727Y-33433000D01*
X29298735Y-33387845D01*
X29512571Y-33299271D01*
X29705019Y-33170682D01*
X29868682Y-33007019D01*
X29997271Y-32814571D01*
X30053840Y-32678000D01*
X48917251Y-32678000D01*
X48917251Y-34378000D01*
X48932214Y-34529926D01*
X48976530Y-34676014D01*
X49048494Y-34810650D01*
X49145341Y-34928659D01*
X49263350Y-35025506D01*
X49397986Y-35097470D01*
X49544074Y-35141786D01*
X49696000Y-35156749D01*
X51396000Y-35156749D01*
X51547926Y-35141786D01*
X51694014Y-35097470D01*
X51828650Y-35025506D01*
X51946659Y-34928659D01*
X52043506Y-34810650D01*
X52115470Y-34676014D01*
X52159786Y-34529926D01*
X52174749Y-34378000D01*
X52174749Y-32678000D01*
X53997251Y-32678000D01*
X53997251Y-34378000D01*
X54012214Y-34529926D01*
X54056530Y-34676014D01*
X54128494Y-34810650D01*
X54225341Y-34928659D01*
X54343350Y-35025506D01*
X54477986Y-35097470D01*
X54624074Y-35141786D01*
X54776000Y-35156749D01*
X56476000Y-35156749D01*
X56627926Y-35141786D01*
X56774014Y-35097470D01*
X56908650Y-35025506D01*
X57026659Y-34928659D01*
X57123506Y-34810650D01*
X57195470Y-34676014D01*
X57239786Y-34529926D01*
X57254749Y-34378000D01*
X57254749Y-32678000D01*
X57239786Y-32526074D01*
X57195470Y-32379986D01*
X57123506Y-32245350D01*
X57026659Y-32127341D01*
X56908650Y-32030494D01*
X56774014Y-31958530D01*
X56627926Y-31914214D01*
X56476000Y-31899251D01*
X54776000Y-31899251D01*
X54624074Y-31914214D01*
X54477986Y-31958530D01*
X54343350Y-32030494D01*
X54225341Y-32127341D01*
X54128494Y-32245350D01*
X54056530Y-32379986D01*
X54012214Y-32526074D01*
X53997251Y-32678000D01*
X52174749Y-32678000D01*
X52159786Y-32526074D01*
X52115470Y-32379986D01*
X52043506Y-32245350D01*
X51946659Y-32127341D01*
X51828650Y-32030494D01*
X51694014Y-31958530D01*
X51547926Y-31914214D01*
X51396000Y-31899251D01*
X49696000Y-31899251D01*
X49544074Y-31914214D01*
X49397986Y-31958530D01*
X49263350Y-32030494D01*
X49145341Y-32127341D01*
X49048494Y-32245350D01*
X48976530Y-32379986D01*
X48932214Y-32526074D01*
X48917251Y-32678000D01*
X30053840Y-32678000D01*
X30085845Y-32600735D01*
X30131000Y-32373727D01*
X30131000Y-32142273D01*
X30085845Y-31915265D01*
X29997271Y-31701429D01*
X29868682Y-31508981D01*
X29827322Y-31467621D01*
X29888057Y-31376726D01*
X30010552Y-31080995D01*
X30073000Y-30767049D01*
X30073000Y-30446951D01*
X33323000Y-30446951D01*
X33323000Y-30767049D01*
X33385448Y-31080995D01*
X33507943Y-31376726D01*
X33685780Y-31642877D01*
X33912123Y-31869220D01*
X34178274Y-32047057D01*
X34474005Y-32169552D01*
X34787951Y-32232000D01*
X35108049Y-32232000D01*
X35421995Y-32169552D01*
X35717726Y-32047057D01*
X35983877Y-31869220D01*
X36210220Y-31642877D01*
X36388057Y-31376726D01*
X36510552Y-31080995D01*
X36573000Y-30767049D01*
X36573000Y-30446951D01*
X38430800Y-30446951D01*
X38430800Y-30767049D01*
X38493248Y-31080995D01*
X38615743Y-31376726D01*
X38793580Y-31642877D01*
X39019923Y-31869220D01*
X39286074Y-32047057D01*
X39581805Y-32169552D01*
X39895751Y-32232000D01*
X40215849Y-32232000D01*
X40529795Y-32169552D01*
X40825526Y-32047057D01*
X41091677Y-31869220D01*
X41318020Y-31642877D01*
X41495857Y-31376726D01*
X41618352Y-31080995D01*
X41680800Y-30767049D01*
X41680800Y-30446951D01*
X44930800Y-30446951D01*
X44930800Y-30767049D01*
X44993248Y-31080995D01*
X45115743Y-31376726D01*
X45293580Y-31642877D01*
X45519923Y-31869220D01*
X45786074Y-32047057D01*
X46081805Y-32169552D01*
X46395751Y-32232000D01*
X46715849Y-32232000D01*
X47029795Y-32169552D01*
X47325526Y-32047057D01*
X47591677Y-31869220D01*
X47818020Y-31642877D01*
X47995857Y-31376726D01*
X48118352Y-31080995D01*
X48180800Y-30767049D01*
X48180800Y-30446951D01*
X48118352Y-30133005D01*
X47995857Y-29837274D01*
X47818020Y-29571123D01*
X47798417Y-29551520D01*
X47865845Y-29388735D01*
X47911000Y-29161727D01*
X47911000Y-28930273D01*
X47865845Y-28703265D01*
X47777271Y-28489429D01*
X47648682Y-28296981D01*
X47485019Y-28133318D01*
X47292571Y-28004729D01*
X47078735Y-27916155D01*
X46851727Y-27871000D01*
X46620273Y-27871000D01*
X46393265Y-27916155D01*
X46179429Y-28004729D01*
X45986981Y-28133318D01*
X45823318Y-28296981D01*
X45694729Y-28489429D01*
X45606155Y-28703265D01*
X45561000Y-28930273D01*
X45561000Y-29161727D01*
X45588321Y-29299078D01*
X45519923Y-29344780D01*
X45293580Y-29571123D01*
X45115743Y-29837274D01*
X44993248Y-30133005D01*
X44930800Y-30446951D01*
X41680800Y-30446951D01*
X41618352Y-30133005D01*
X41495857Y-29837274D01*
X41318020Y-29571123D01*
X41091677Y-29344780D01*
X40825526Y-29166943D01*
X40529795Y-29044448D01*
X40215849Y-28982000D01*
X39895751Y-28982000D01*
X39581805Y-29044448D01*
X39286074Y-29166943D01*
X39019923Y-29344780D01*
X38793580Y-29571123D01*
X38615743Y-29837274D01*
X38493248Y-30133005D01*
X38430800Y-30446951D01*
X36573000Y-30446951D01*
X36510552Y-30133005D01*
X36388057Y-29837274D01*
X36210220Y-29571123D01*
X35983877Y-29344780D01*
X35717726Y-29166943D01*
X35421995Y-29044448D01*
X35108049Y-28982000D01*
X34787951Y-28982000D01*
X34474005Y-29044448D01*
X34178274Y-29166943D01*
X33912123Y-29344780D01*
X33685780Y-29571123D01*
X33507943Y-29837274D01*
X33385448Y-30133005D01*
X33323000Y-30446951D01*
X30073000Y-30446951D01*
X30010552Y-30133005D01*
X29888057Y-29837274D01*
X29710220Y-29571123D01*
X29483877Y-29344780D01*
X29217726Y-29166943D01*
X28921995Y-29044448D01*
X28608049Y-28982000D01*
X28287951Y-28982000D01*
X27974005Y-29044448D01*
X27678274Y-29166943D01*
X27412123Y-29344780D01*
X27185780Y-29571123D01*
X27007943Y-29837274D01*
X26885448Y-30133005D01*
X26823000Y-30446951D01*
X25016000Y-30446951D01*
X24953552Y-30133005D01*
X24831057Y-29837274D01*
X24653220Y-29571123D01*
X24426877Y-29344780D01*
X24160726Y-29166943D01*
X23864995Y-29044448D01*
X23551049Y-28982000D01*
X23230951Y-28982000D01*
X22917005Y-29044448D01*
X22621274Y-29166943D01*
X22355123Y-29344780D01*
X22128780Y-29571123D01*
X21950943Y-29837274D01*
X21828448Y-30133005D01*
X21766000Y-30446951D01*
X18516000Y-30446951D01*
X18453552Y-30133005D01*
X18331057Y-29837274D01*
X18153220Y-29571123D01*
X17926877Y-29344780D01*
X17660726Y-29166943D01*
X17364995Y-29044448D01*
X17051049Y-28982000D01*
X16812201Y-28982000D01*
X16863882Y-28930319D01*
X16992471Y-28737871D01*
X17081045Y-28524035D01*
X17126200Y-28297027D01*
X17126200Y-28065573D01*
X17081045Y-27838565D01*
X16992471Y-27624729D01*
X16863882Y-27432281D01*
X16700219Y-27268618D01*
X16507771Y-27140029D01*
X16293935Y-27051455D01*
X16066927Y-27006300D01*
X15835473Y-27006300D01*
X15608465Y-27051455D01*
X15394629Y-27140029D01*
X15202181Y-27268618D01*
X15038518Y-27432281D01*
X14909929Y-27624729D01*
X14821355Y-27838565D01*
X14776200Y-28065573D01*
X13627000Y-28065573D01*
X13627000Y-24058686D01*
X17543000Y-24058686D01*
X17543000Y-24605314D01*
X17649642Y-25141438D01*
X17858827Y-25646455D01*
X18162517Y-26100959D01*
X18549041Y-26487483D01*
X19003545Y-26791173D01*
X19508562Y-27000358D01*
X20044686Y-27107000D01*
X20591314Y-27107000D01*
X21127438Y-27000358D01*
X21632455Y-26791173D01*
X22086959Y-26487483D01*
X22473483Y-26100959D01*
X22777173Y-25646455D01*
X22986358Y-25141438D01*
X23093000Y-24605314D01*
X23093000Y-24058686D01*
X22986358Y-23522562D01*
X22777173Y-23017545D01*
X22473483Y-22563041D01*
X22107318Y-22196876D01*
X25698000Y-22196876D01*
X25698000Y-22507124D01*
X25758526Y-22811411D01*
X25877253Y-23098042D01*
X26049617Y-23356004D01*
X26268996Y-23575383D01*
X26526958Y-23747747D01*
X26813589Y-23866474D01*
X26901273Y-23883915D01*
X26843000Y-24176876D01*
X26843000Y-24487124D01*
X26903526Y-24791411D01*
X27022253Y-25078042D01*
X27194617Y-25336004D01*
X27413996Y-25555383D01*
X27671958Y-25727747D01*
X27958589Y-25846474D01*
X28046273Y-25863915D01*
X27988000Y-26156876D01*
X27988000Y-26467124D01*
X28048526Y-26771411D01*
X28167253Y-27058042D01*
X28339617Y-27316004D01*
X28558996Y-27535383D01*
X28816958Y-27707747D01*
X29103589Y-27826474D01*
X29407876Y-27887000D01*
X29718124Y-27887000D01*
X30022411Y-27826474D01*
X30309042Y-27707747D01*
X30567004Y-27535383D01*
X30708000Y-27394387D01*
X30848996Y-27535383D01*
X31106958Y-27707747D01*
X31393589Y-27826474D01*
X31697876Y-27887000D01*
X32008124Y-27887000D01*
X32312411Y-27826474D01*
X32599042Y-27707747D01*
X32857004Y-27535383D01*
X32998000Y-27394387D01*
X33138996Y-27535383D01*
X33396958Y-27707747D01*
X33683589Y-27826474D01*
X33987876Y-27887000D01*
X34298124Y-27887000D01*
X34602411Y-27826474D01*
X34889042Y-27707747D01*
X35147004Y-27535383D01*
X35366383Y-27316004D01*
X35371050Y-27309018D01*
X35689126Y-27309018D01*
X35767778Y-27532133D01*
X36018597Y-27638467D01*
X36285340Y-27693825D01*
X36557758Y-27696081D01*
X36825381Y-27645147D01*
X37077926Y-27542982D01*
X37098222Y-27532133D01*
X37176874Y-27309018D01*
X36433000Y-26565144D01*
X35689126Y-27309018D01*
X35371050Y-27309018D01*
X35538747Y-27058042D01*
X35612946Y-26878910D01*
X36179856Y-26312000D01*
X36165714Y-26297858D01*
X36418858Y-26044714D01*
X36433000Y-26058856D01*
X36447143Y-26044714D01*
X36700287Y-26297858D01*
X36686144Y-26312000D01*
X37253054Y-26878910D01*
X37327253Y-27058042D01*
X37499617Y-27316004D01*
X37718996Y-27535383D01*
X37976958Y-27707747D01*
X38263589Y-27826474D01*
X38567876Y-27887000D01*
X38878124Y-27887000D01*
X39182411Y-27826474D01*
X39469042Y-27707747D01*
X39727004Y-27535383D01*
X39868000Y-27394387D01*
X40008996Y-27535383D01*
X40266958Y-27707747D01*
X40553589Y-27826474D01*
X40857876Y-27887000D01*
X41168124Y-27887000D01*
X41472411Y-27826474D01*
X41759042Y-27707747D01*
X42017004Y-27535383D01*
X42158000Y-27394387D01*
X42298996Y-27535383D01*
X42556958Y-27707747D01*
X42843589Y-27826474D01*
X43147876Y-27887000D01*
X43458124Y-27887000D01*
X43762411Y-27826474D01*
X44049042Y-27707747D01*
X44307004Y-27535383D01*
X44448000Y-27394387D01*
X44588996Y-27535383D01*
X44846958Y-27707747D01*
X45133589Y-27826474D01*
X45437876Y-27887000D01*
X45748124Y-27887000D01*
X46052411Y-27826474D01*
X46339042Y-27707747D01*
X46597004Y-27535383D01*
X46816383Y-27316004D01*
X46988747Y-27058042D01*
X47107474Y-26771411D01*
X47168000Y-26467124D01*
X47168000Y-26156876D01*
X47109727Y-25863915D01*
X47197411Y-25846474D01*
X47484042Y-25727747D01*
X47742004Y-25555383D01*
X47961383Y-25336004D01*
X48133747Y-25078042D01*
X48252474Y-24791411D01*
X48313000Y-24487124D01*
X48313000Y-24176876D01*
X48289491Y-24058686D01*
X50843000Y-24058686D01*
X50843000Y-24605314D01*
X50949642Y-25141438D01*
X51158827Y-25646455D01*
X51462517Y-26100959D01*
X51849041Y-26487483D01*
X52303545Y-26791173D01*
X52808562Y-27000358D01*
X53344686Y-27107000D01*
X53891314Y-27107000D01*
X54427438Y-27000358D01*
X54932455Y-26791173D01*
X55386959Y-26487483D01*
X55773483Y-26100959D01*
X56077173Y-25646455D01*
X56286358Y-25141438D01*
X56393000Y-24605314D01*
X56393000Y-24058686D01*
X56286358Y-23522562D01*
X56077173Y-23017545D01*
X55773483Y-22563041D01*
X55386959Y-22176517D01*
X54932455Y-21872827D01*
X54427438Y-21663642D01*
X53891314Y-21557000D01*
X53344686Y-21557000D01*
X52808562Y-21663642D01*
X52303545Y-21872827D01*
X51849041Y-22176517D01*
X51462517Y-22563041D01*
X51158827Y-23017545D01*
X50949642Y-23522562D01*
X50843000Y-24058686D01*
X48289491Y-24058686D01*
X48252474Y-23872589D01*
X48133747Y-23585958D01*
X47961383Y-23327996D01*
X47742004Y-23108617D01*
X47484042Y-22936253D01*
X47197411Y-22817526D01*
X47171749Y-22812422D01*
X47171749Y-21552000D01*
X47156786Y-21400074D01*
X47112470Y-21253986D01*
X47040506Y-21119350D01*
X46943659Y-21001341D01*
X46825650Y-20904494D01*
X46691014Y-20832530D01*
X46544926Y-20788214D01*
X46393000Y-20773251D01*
X44793000Y-20773251D01*
X44641074Y-20788214D01*
X44494986Y-20832530D01*
X44360350Y-20904494D01*
X44242341Y-21001341D01*
X44197782Y-21055637D01*
X44049042Y-20956253D01*
X43762411Y-20837526D01*
X43458124Y-20777000D01*
X43147876Y-20777000D01*
X42843589Y-20837526D01*
X42556958Y-20956253D01*
X42298996Y-21128617D01*
X42158000Y-21269613D01*
X42017004Y-21128617D01*
X41759042Y-20956253D01*
X41472411Y-20837526D01*
X41168124Y-20777000D01*
X40857876Y-20777000D01*
X40553589Y-20837526D01*
X40266958Y-20956253D01*
X40008996Y-21128617D01*
X39868000Y-21269613D01*
X39727004Y-21128617D01*
X39469042Y-20956253D01*
X39182411Y-20837526D01*
X38878124Y-20777000D01*
X38567876Y-20777000D01*
X38263589Y-20837526D01*
X37976958Y-20956253D01*
X37718996Y-21128617D01*
X37578000Y-21269613D01*
X37437004Y-21128617D01*
X37179042Y-20956253D01*
X36892411Y-20837526D01*
X36588124Y-20777000D01*
X36277876Y-20777000D01*
X35973589Y-20837526D01*
X35686958Y-20956253D01*
X35428996Y-21128617D01*
X35288000Y-21269613D01*
X35147004Y-21128617D01*
X34889042Y-20956253D01*
X34602411Y-20837526D01*
X34298124Y-20777000D01*
X33987876Y-20777000D01*
X33683589Y-20837526D01*
X33396958Y-20956253D01*
X33138996Y-21128617D01*
X32998000Y-21269613D01*
X32857004Y-21128617D01*
X32599042Y-20956253D01*
X32312411Y-20837526D01*
X32008124Y-20777000D01*
X31697876Y-20777000D01*
X31393589Y-20837526D01*
X31106958Y-20956253D01*
X30848996Y-21128617D01*
X30629617Y-21347996D01*
X30457253Y-21605958D01*
X30383054Y-21785090D01*
X29816144Y-22352000D01*
X29830287Y-22366143D01*
X29577143Y-22619287D01*
X29563000Y-22605144D01*
X29548858Y-22619287D01*
X29295714Y-22366143D01*
X29309856Y-22352000D01*
X28742946Y-21785090D01*
X28668747Y-21605958D01*
X28501051Y-21354982D01*
X28819126Y-21354982D01*
X29563000Y-22098856D01*
X30306874Y-21354982D01*
X30228222Y-21131867D01*
X29977403Y-21025533D01*
X29710660Y-20970175D01*
X29438242Y-20967919D01*
X29170619Y-21018853D01*
X28918074Y-21121018D01*
X28897778Y-21131867D01*
X28819126Y-21354982D01*
X28501051Y-21354982D01*
X28496383Y-21347996D01*
X28277004Y-21128617D01*
X28019042Y-20956253D01*
X27732411Y-20837526D01*
X27428124Y-20777000D01*
X27117876Y-20777000D01*
X26813589Y-20837526D01*
X26526958Y-20956253D01*
X26268996Y-21128617D01*
X26049617Y-21347996D01*
X25877253Y-21605958D01*
X25758526Y-21892589D01*
X25698000Y-22196876D01*
X22107318Y-22196876D01*
X22086959Y-22176517D01*
X21632455Y-21872827D01*
X21127438Y-21663642D01*
X20591314Y-21557000D01*
X20044686Y-21557000D01*
X19508562Y-21663642D01*
X19003545Y-21872827D01*
X18549041Y-22176517D01*
X18162517Y-22563041D01*
X17858827Y-23017545D01*
X17649642Y-23522562D01*
X17543000Y-24058686D01*
X13627000Y-24058686D01*
X13627000Y-15258212D01*
X14117723Y-15258212D01*
X14222050Y-15519040D01*
X14375258Y-15754503D01*
X14571458Y-15955552D01*
X14803111Y-16114461D01*
X15061315Y-16225123D01*
X15094789Y-16235270D01*
X15315000Y-16133744D01*
X15315000Y-15038000D01*
X14217967Y-15038000D01*
X14117723Y-15258212D01*
X13627000Y-15258212D01*
X13627000Y-14459788D01*
X14117723Y-14459788D01*
X14217967Y-14680000D01*
X15315000Y-14680000D01*
X15315000Y-13584256D01*
X15673000Y-13584256D01*
X15673000Y-14680000D01*
X15693000Y-14680000D01*
X15693000Y-15038000D01*
X15673000Y-15038000D01*
X15673000Y-16133744D01*
X15893211Y-16235270D01*
X15926685Y-16225123D01*
X16184889Y-16114461D01*
X16416542Y-15955552D01*
X16612742Y-15754503D01*
X16644226Y-15706116D01*
X16676325Y-15766170D01*
X16879392Y-16013608D01*
X17126830Y-16216675D01*
X17409131Y-16367568D01*
X17715444Y-16460487D01*
X17954176Y-16484000D01*
X18113824Y-16484000D01*
X18352556Y-16460487D01*
X18658869Y-16367568D01*
X18941170Y-16216675D01*
X19188608Y-16013608D01*
X19391675Y-15766170D01*
X19423774Y-15706116D01*
X19455258Y-15754503D01*
X19651458Y-15955552D01*
X19883111Y-16114461D01*
X20141315Y-16225123D01*
X20174789Y-16235270D01*
X20395000Y-16133744D01*
X20395000Y-15038000D01*
X20375000Y-15038000D01*
X20375000Y-14680000D01*
X20395000Y-14680000D01*
X20395000Y-13584256D01*
X20753000Y-13584256D01*
X20753000Y-14680000D01*
X20773000Y-14680000D01*
X20773000Y-15038000D01*
X20753000Y-15038000D01*
X20753000Y-16133744D01*
X20973211Y-16235270D01*
X21006685Y-16225123D01*
X21264889Y-16114461D01*
X21496542Y-15955552D01*
X21692742Y-15754503D01*
X21724226Y-15706116D01*
X21756325Y-15766170D01*
X21959392Y-16013608D01*
X22206830Y-16216675D01*
X22489131Y-16367568D01*
X22795444Y-16460487D01*
X23034176Y-16484000D01*
X23193824Y-16484000D01*
X23432556Y-16460487D01*
X23738869Y-16367568D01*
X24021170Y-16216675D01*
X24268608Y-16013608D01*
X24384000Y-15873002D01*
X24499392Y-16013608D01*
X24746830Y-16216675D01*
X25029131Y-16367568D01*
X25335444Y-16460487D01*
X25574176Y-16484000D01*
X25733824Y-16484000D01*
X25972556Y-16460487D01*
X26278869Y-16367568D01*
X26561170Y-16216675D01*
X26808608Y-16013608D01*
X26924000Y-15873002D01*
X27039392Y-16013608D01*
X27286830Y-16216675D01*
X27569131Y-16367568D01*
X27875444Y-16460487D01*
X28114176Y-16484000D01*
X28273824Y-16484000D01*
X28512556Y-16460487D01*
X28818869Y-16367568D01*
X29101170Y-16216675D01*
X29348608Y-16013608D01*
X29464000Y-15873002D01*
X29579392Y-16013608D01*
X29826830Y-16216675D01*
X30109131Y-16367568D01*
X30415444Y-16460487D01*
X30654176Y-16484000D01*
X30813824Y-16484000D01*
X31052556Y-16460487D01*
X31358869Y-16367568D01*
X31641170Y-16216675D01*
X31888608Y-16013608D01*
X32004000Y-15873002D01*
X32119392Y-16013608D01*
X32366830Y-16216675D01*
X32649131Y-16367568D01*
X32955444Y-16460487D01*
X33194176Y-16484000D01*
X33353824Y-16484000D01*
X33592556Y-16460487D01*
X33898869Y-16367568D01*
X34181170Y-16216675D01*
X34428608Y-16013608D01*
X34544000Y-15873002D01*
X34659392Y-16013608D01*
X34906830Y-16216675D01*
X35189131Y-16367568D01*
X35495444Y-16460487D01*
X35734176Y-16484000D01*
X35893824Y-16484000D01*
X36132556Y-16460487D01*
X36438869Y-16367568D01*
X36721170Y-16216675D01*
X36968608Y-16013608D01*
X37084000Y-15873002D01*
X37199392Y-16013608D01*
X37446830Y-16216675D01*
X37729131Y-16367568D01*
X38035444Y-16460487D01*
X38274176Y-16484000D01*
X38433824Y-16484000D01*
X38672556Y-16460487D01*
X38978869Y-16367568D01*
X39261170Y-16216675D01*
X39508608Y-16013608D01*
X39711675Y-15766170D01*
X39743774Y-15706116D01*
X39775258Y-15754503D01*
X39971458Y-15955552D01*
X40203111Y-16114461D01*
X40461315Y-16225123D01*
X40494789Y-16235270D01*
X40715000Y-16133744D01*
X40715000Y-15038000D01*
X40695000Y-15038000D01*
X40695000Y-14680000D01*
X40715000Y-14680000D01*
X40715000Y-13584256D01*
X41073000Y-13584256D01*
X41073000Y-14680000D01*
X41093000Y-14680000D01*
X41093000Y-15038000D01*
X41073000Y-15038000D01*
X41073000Y-16133744D01*
X41293211Y-16235270D01*
X41326685Y-16225123D01*
X41584889Y-16114461D01*
X41816542Y-15955552D01*
X41841241Y-15930242D01*
X41864530Y-16007014D01*
X41936494Y-16141650D01*
X42033341Y-16259659D01*
X42151350Y-16356506D01*
X42285986Y-16428470D01*
X42432074Y-16472786D01*
X42584000Y-16487749D01*
X44284000Y-16487749D01*
X44435926Y-16472786D01*
X44582014Y-16428470D01*
X44716650Y-16356506D01*
X44834659Y-16259659D01*
X44931506Y-16141650D01*
X45003470Y-16007014D01*
X45047786Y-15860926D01*
X45062749Y-15709000D01*
X45062749Y-14009000D01*
X45047786Y-13857074D01*
X45003470Y-13710986D01*
X44931506Y-13576350D01*
X44834659Y-13458341D01*
X44716650Y-13361494D01*
X44582014Y-13289530D01*
X44435926Y-13245214D01*
X44284000Y-13230251D01*
X42584000Y-13230251D01*
X42432074Y-13245214D01*
X42285986Y-13289530D01*
X42151350Y-13361494D01*
X42033341Y-13458341D01*
X41936494Y-13576350D01*
X41864530Y-13710986D01*
X41841241Y-13787758D01*
X41816542Y-13762448D01*
X41584889Y-13603539D01*
X41326685Y-13492877D01*
X41293211Y-13482730D01*
X41073000Y-13584256D01*
X40715000Y-13584256D01*
X40494789Y-13482730D01*
X40461315Y-13492877D01*
X40203111Y-13603539D01*
X39971458Y-13762448D01*
X39775258Y-13963497D01*
X39743774Y-14011884D01*
X39711675Y-13951830D01*
X39508608Y-13704392D01*
X39261170Y-13501325D01*
X38978869Y-13350432D01*
X38672556Y-13257513D01*
X38433824Y-13234000D01*
X38274176Y-13234000D01*
X38035444Y-13257513D01*
X37729131Y-13350432D01*
X37446830Y-13501325D01*
X37199392Y-13704392D01*
X37084000Y-13844998D01*
X36968608Y-13704392D01*
X36721170Y-13501325D01*
X36438869Y-13350432D01*
X36132556Y-13257513D01*
X35893824Y-13234000D01*
X35734176Y-13234000D01*
X35495444Y-13257513D01*
X35189131Y-13350432D01*
X34906830Y-13501325D01*
X34659392Y-13704392D01*
X34544000Y-13844998D01*
X34428608Y-13704392D01*
X34181170Y-13501325D01*
X33898869Y-13350432D01*
X33592556Y-13257513D01*
X33353824Y-13234000D01*
X33194176Y-13234000D01*
X32955444Y-13257513D01*
X32649131Y-13350432D01*
X32366830Y-13501325D01*
X32119392Y-13704392D01*
X32004000Y-13844998D01*
X31888608Y-13704392D01*
X31641170Y-13501325D01*
X31358869Y-13350432D01*
X31052556Y-13257513D01*
X30813824Y-13234000D01*
X30654176Y-13234000D01*
X30415444Y-13257513D01*
X30109131Y-13350432D01*
X29826830Y-13501325D01*
X29579392Y-13704392D01*
X29464000Y-13844998D01*
X29348608Y-13704392D01*
X29101170Y-13501325D01*
X28818869Y-13350432D01*
X28512556Y-13257513D01*
X28273824Y-13234000D01*
X28114176Y-13234000D01*
X27875444Y-13257513D01*
X27569131Y-13350432D01*
X27286830Y-13501325D01*
X27039392Y-13704392D01*
X26924000Y-13844998D01*
X26808608Y-13704392D01*
X26561170Y-13501325D01*
X26278869Y-13350432D01*
X25972556Y-13257513D01*
X25733824Y-13234000D01*
X25574176Y-13234000D01*
X25335444Y-13257513D01*
X25029131Y-13350432D01*
X24746830Y-13501325D01*
X24499392Y-13704392D01*
X24384000Y-13844998D01*
X24268608Y-13704392D01*
X24021170Y-13501325D01*
X23738869Y-13350432D01*
X23432556Y-13257513D01*
X23193824Y-13234000D01*
X23034176Y-13234000D01*
X22795444Y-13257513D01*
X22489131Y-13350432D01*
X22206830Y-13501325D01*
X21959392Y-13704392D01*
X21756325Y-13951830D01*
X21724226Y-14011884D01*
X21692742Y-13963497D01*
X21496542Y-13762448D01*
X21264889Y-13603539D01*
X21006685Y-13492877D01*
X20973211Y-13482730D01*
X20753000Y-13584256D01*
X20395000Y-13584256D01*
X20174789Y-13482730D01*
X20141315Y-13492877D01*
X19883111Y-13603539D01*
X19651458Y-13762448D01*
X19455258Y-13963497D01*
X19423774Y-14011884D01*
X19391675Y-13951830D01*
X19188608Y-13704392D01*
X18941170Y-13501325D01*
X18658869Y-13350432D01*
X18352556Y-13257513D01*
X18113824Y-13234000D01*
X17954176Y-13234000D01*
X17715444Y-13257513D01*
X17409131Y-13350432D01*
X17126830Y-13501325D01*
X16879392Y-13704392D01*
X16676325Y-13951830D01*
X16644226Y-14011884D01*
X16612742Y-13963497D01*
X16416542Y-13762448D01*
X16184889Y-13603539D01*
X15926685Y-13492877D01*
X15893211Y-13482730D01*
X15673000Y-13584256D01*
X15315000Y-13584256D01*
X15094789Y-13482730D01*
X15061315Y-13492877D01*
X14803111Y-13603539D01*
X14571458Y-13762448D01*
X14375258Y-13963497D01*
X14222050Y-14198960D01*
X14117723Y-14459788D01*
X13627000Y-14459788D01*
X13627000Y-12865000D01*
X52038000Y-12865000D01*
X52038000Y-13069717D01*
X52038000Y-13069717D01*
G37*
X52038000Y-13069717D02*
X52083155Y-13296725D01*
X52171729Y-13510561D01*
X52300318Y-13703009D01*
X52463981Y-13866672D01*
X52656429Y-13995261D01*
X52870265Y-14083835D01*
X53097273Y-14128990D01*
X53328727Y-14128990D01*
X53555735Y-14083835D01*
X53769571Y-13995261D01*
X53962019Y-13866672D01*
X54125682Y-13703009D01*
X54254271Y-13510561D01*
X54342845Y-13296725D01*
X54388000Y-13069717D01*
X54388000Y-12865000D01*
X57493000Y-12865000D01*
X57493001Y-36157000D01*
X47803897Y-36157000D01*
X47818020Y-36142877D01*
X47995857Y-35876726D01*
X48118352Y-35580995D01*
X48180800Y-35267049D01*
X48180800Y-34946951D01*
X48118352Y-34633005D01*
X47995857Y-34337274D01*
X47818020Y-34071123D01*
X47591677Y-33844780D01*
X47325526Y-33666943D01*
X47029795Y-33544448D01*
X46715849Y-33482000D01*
X46395751Y-33482000D01*
X46081805Y-33544448D01*
X45786074Y-33666943D01*
X45519923Y-33844780D01*
X45293580Y-34071123D01*
X45115743Y-34337274D01*
X44993248Y-34633005D01*
X44930800Y-34946951D01*
X44930800Y-35267049D01*
X44993248Y-35580995D01*
X45115743Y-35876726D01*
X45293580Y-36142877D01*
X45307703Y-36157000D01*
X41303897Y-36157000D01*
X41318020Y-36142877D01*
X41495857Y-35876726D01*
X41618352Y-35580995D01*
X41680800Y-35267049D01*
X41680800Y-34946951D01*
X41618352Y-34633005D01*
X41495857Y-34337274D01*
X41318020Y-34071123D01*
X41091677Y-33844780D01*
X40825526Y-33666943D01*
X40529795Y-33544448D01*
X40215849Y-33482000D01*
X39895751Y-33482000D01*
X39581805Y-33544448D01*
X39286074Y-33666943D01*
X39019923Y-33844780D01*
X38793580Y-34071123D01*
X38615743Y-34337274D01*
X38493248Y-34633005D01*
X38430800Y-34946951D01*
X38430800Y-35267049D01*
X38493248Y-35580995D01*
X38615743Y-35876726D01*
X38793580Y-36142877D01*
X38807703Y-36157000D01*
X36196097Y-36157000D01*
X36210220Y-36142877D01*
X36388057Y-35876726D01*
X36510552Y-35580995D01*
X36573000Y-35267049D01*
X36573000Y-34946951D01*
X36510552Y-34633005D01*
X36388057Y-34337274D01*
X36210220Y-34071123D01*
X35983877Y-33844780D01*
X35717726Y-33666943D01*
X35421995Y-33544448D01*
X35108049Y-33482000D01*
X34787951Y-33482000D01*
X34474005Y-33544448D01*
X34178274Y-33666943D01*
X33912123Y-33844780D01*
X33685780Y-34071123D01*
X33507943Y-34337274D01*
X33385448Y-34633005D01*
X33323000Y-34946951D01*
X33323000Y-35267049D01*
X33385448Y-35580995D01*
X33507943Y-35876726D01*
X33685780Y-36142877D01*
X33699903Y-36157000D01*
X29696097Y-36157000D01*
X29710220Y-36142877D01*
X29888057Y-35876726D01*
X30010552Y-35580995D01*
X30073000Y-35267049D01*
X30073000Y-34946951D01*
X30010552Y-34633005D01*
X29888057Y-34337274D01*
X29710220Y-34071123D01*
X29483877Y-33844780D01*
X29217726Y-33666943D01*
X28921995Y-33544448D01*
X28608049Y-33482000D01*
X28287951Y-33482000D01*
X27974005Y-33544448D01*
X27678274Y-33666943D01*
X27412123Y-33844780D01*
X27185780Y-34071123D01*
X27007943Y-34337274D01*
X26885448Y-34633005D01*
X26823000Y-34946951D01*
X26823000Y-35267049D01*
X26885448Y-35580995D01*
X27007943Y-35876726D01*
X27185780Y-36142877D01*
X27199903Y-36157000D01*
X24639097Y-36157000D01*
X24653220Y-36142877D01*
X24831057Y-35876726D01*
X24953552Y-35580995D01*
X25016000Y-35267049D01*
X25016000Y-34946951D01*
X24953552Y-34633005D01*
X24831057Y-34337274D01*
X24653220Y-34071123D01*
X24426877Y-33844780D01*
X24160726Y-33666943D01*
X23864995Y-33544448D01*
X23551049Y-33482000D01*
X23230951Y-33482000D01*
X22917005Y-33544448D01*
X22621274Y-33666943D01*
X22355123Y-33844780D01*
X22128780Y-34071123D01*
X21950943Y-34337274D01*
X21828448Y-34633005D01*
X21766000Y-34946951D01*
X21766000Y-35267049D01*
X21828448Y-35580995D01*
X21950943Y-35876726D01*
X22128780Y-36142877D01*
X22142903Y-36157000D01*
X18139097Y-36157000D01*
X18153220Y-36142877D01*
X18331057Y-35876726D01*
X18453552Y-35580995D01*
X18516000Y-35267049D01*
X18516000Y-34946951D01*
X18453552Y-34633005D01*
X18331057Y-34337274D01*
X18153220Y-34071123D01*
X17926877Y-33844780D01*
X17660726Y-33666943D01*
X17364995Y-33544448D01*
X17051049Y-33482000D01*
X16730951Y-33482000D01*
X16417005Y-33544448D01*
X16121274Y-33666943D01*
X15855123Y-33844780D01*
X15628780Y-34071123D01*
X15450943Y-34337274D01*
X15328448Y-34633005D01*
X15266000Y-34946951D01*
X15266000Y-35267049D01*
X15328448Y-35580995D01*
X15450943Y-35876726D01*
X15628780Y-36142877D01*
X15642903Y-36157000D01*
X13627000Y-36157000D01*
X13627000Y-28065573D01*
X14776200Y-28065573D01*
X14776200Y-28297027D01*
X14821355Y-28524035D01*
X14909929Y-28737871D01*
X15038518Y-28930319D01*
X15202181Y-29093982D01*
X15394629Y-29222571D01*
X15608465Y-29311145D01*
X15835473Y-29356300D01*
X15843603Y-29356300D01*
X15628780Y-29571123D01*
X15450943Y-29837274D01*
X15328448Y-30133005D01*
X15266000Y-30446951D01*
X15266000Y-30767049D01*
X15328448Y-31080995D01*
X15450943Y-31376726D01*
X15628780Y-31642877D01*
X15855123Y-31869220D01*
X16121274Y-32047057D01*
X16417005Y-32169552D01*
X16681200Y-32222104D01*
X16681200Y-32399127D01*
X16726355Y-32626135D01*
X16814929Y-32839971D01*
X16943518Y-33032419D01*
X17107181Y-33196082D01*
X17299629Y-33324671D01*
X17513465Y-33413245D01*
X17740473Y-33458400D01*
X17971927Y-33458400D01*
X18198935Y-33413245D01*
X18412771Y-33324671D01*
X18605219Y-33196082D01*
X18768882Y-33032419D01*
X18897471Y-32839971D01*
X18986045Y-32626135D01*
X19031200Y-32399127D01*
X19031200Y-32167673D01*
X18986045Y-31940665D01*
X18897471Y-31726829D01*
X18768882Y-31534381D01*
X18605219Y-31370718D01*
X18412771Y-31242129D01*
X18390611Y-31232950D01*
X18453552Y-31080995D01*
X18516000Y-30767049D01*
X18516000Y-30446951D01*
X21766000Y-30446951D01*
X21766000Y-30767049D01*
X21828448Y-31080995D01*
X21950943Y-31376726D01*
X22128780Y-31642877D01*
X22355123Y-31869220D01*
X22621274Y-32047057D01*
X22917005Y-32169552D01*
X23230951Y-32232000D01*
X23551049Y-32232000D01*
X23864995Y-32169552D01*
X24160726Y-32047057D01*
X24426877Y-31869220D01*
X24653220Y-31642877D01*
X24831057Y-31376726D01*
X24953552Y-31080995D01*
X25016000Y-30767049D01*
X25016000Y-30446951D01*
X26823000Y-30446951D01*
X26823000Y-30767049D01*
X26885448Y-31080995D01*
X27007943Y-31376726D01*
X27185780Y-31642877D01*
X27412123Y-31869220D01*
X27678274Y-32047057D01*
X27790679Y-32093616D01*
X27781000Y-32142273D01*
X27781000Y-32373727D01*
X27826155Y-32600735D01*
X27914729Y-32814571D01*
X28043318Y-33007019D01*
X28206981Y-33170682D01*
X28399429Y-33299271D01*
X28613265Y-33387845D01*
X28840273Y-33433000D01*
X29071727Y-33433000D01*
X29298735Y-33387845D01*
X29512571Y-33299271D01*
X29705019Y-33170682D01*
X29868682Y-33007019D01*
X29997271Y-32814571D01*
X30053840Y-32678000D01*
X48917251Y-32678000D01*
X48917251Y-34378000D01*
X48932214Y-34529926D01*
X48976530Y-34676014D01*
X49048494Y-34810650D01*
X49145341Y-34928659D01*
X49263350Y-35025506D01*
X49397986Y-35097470D01*
X49544074Y-35141786D01*
X49696000Y-35156749D01*
X51396000Y-35156749D01*
X51547926Y-35141786D01*
X51694014Y-35097470D01*
X51828650Y-35025506D01*
X51946659Y-34928659D01*
X52043506Y-34810650D01*
X52115470Y-34676014D01*
X52159786Y-34529926D01*
X52174749Y-34378000D01*
X52174749Y-32678000D01*
X53997251Y-32678000D01*
X53997251Y-34378000D01*
X54012214Y-34529926D01*
X54056530Y-34676014D01*
X54128494Y-34810650D01*
X54225341Y-34928659D01*
X54343350Y-35025506D01*
X54477986Y-35097470D01*
X54624074Y-35141786D01*
X54776000Y-35156749D01*
X56476000Y-35156749D01*
X56627926Y-35141786D01*
X56774014Y-35097470D01*
X56908650Y-35025506D01*
X57026659Y-34928659D01*
X57123506Y-34810650D01*
X57195470Y-34676014D01*
X57239786Y-34529926D01*
X57254749Y-34378000D01*
X57254749Y-32678000D01*
X57239786Y-32526074D01*
X57195470Y-32379986D01*
X57123506Y-32245350D01*
X57026659Y-32127341D01*
X56908650Y-32030494D01*
X56774014Y-31958530D01*
X56627926Y-31914214D01*
X56476000Y-31899251D01*
X54776000Y-31899251D01*
X54624074Y-31914214D01*
X54477986Y-31958530D01*
X54343350Y-32030494D01*
X54225341Y-32127341D01*
X54128494Y-32245350D01*
X54056530Y-32379986D01*
X54012214Y-32526074D01*
X53997251Y-32678000D01*
X52174749Y-32678000D01*
X52159786Y-32526074D01*
X52115470Y-32379986D01*
X52043506Y-32245350D01*
X51946659Y-32127341D01*
X51828650Y-32030494D01*
X51694014Y-31958530D01*
X51547926Y-31914214D01*
X51396000Y-31899251D01*
X49696000Y-31899251D01*
X49544074Y-31914214D01*
X49397986Y-31958530D01*
X49263350Y-32030494D01*
X49145341Y-32127341D01*
X49048494Y-32245350D01*
X48976530Y-32379986D01*
X48932214Y-32526074D01*
X48917251Y-32678000D01*
X30053840Y-32678000D01*
X30085845Y-32600735D01*
X30131000Y-32373727D01*
X30131000Y-32142273D01*
X30085845Y-31915265D01*
X29997271Y-31701429D01*
X29868682Y-31508981D01*
X29827322Y-31467621D01*
X29888057Y-31376726D01*
X30010552Y-31080995D01*
X30073000Y-30767049D01*
X30073000Y-30446951D01*
X33323000Y-30446951D01*
X33323000Y-30767049D01*
X33385448Y-31080995D01*
X33507943Y-31376726D01*
X33685780Y-31642877D01*
X33912123Y-31869220D01*
X34178274Y-32047057D01*
X34474005Y-32169552D01*
X34787951Y-32232000D01*
X35108049Y-32232000D01*
X35421995Y-32169552D01*
X35717726Y-32047057D01*
X35983877Y-31869220D01*
X36210220Y-31642877D01*
X36388057Y-31376726D01*
X36510552Y-31080995D01*
X36573000Y-30767049D01*
X36573000Y-30446951D01*
X38430800Y-30446951D01*
X38430800Y-30767049D01*
X38493248Y-31080995D01*
X38615743Y-31376726D01*
X38793580Y-31642877D01*
X39019923Y-31869220D01*
X39286074Y-32047057D01*
X39581805Y-32169552D01*
X39895751Y-32232000D01*
X40215849Y-32232000D01*
X40529795Y-32169552D01*
X40825526Y-32047057D01*
X41091677Y-31869220D01*
X41318020Y-31642877D01*
X41495857Y-31376726D01*
X41618352Y-31080995D01*
X41680800Y-30767049D01*
X41680800Y-30446951D01*
X44930800Y-30446951D01*
X44930800Y-30767049D01*
X44993248Y-31080995D01*
X45115743Y-31376726D01*
X45293580Y-31642877D01*
X45519923Y-31869220D01*
X45786074Y-32047057D01*
X46081805Y-32169552D01*
X46395751Y-32232000D01*
X46715849Y-32232000D01*
X47029795Y-32169552D01*
X47325526Y-32047057D01*
X47591677Y-31869220D01*
X47818020Y-31642877D01*
X47995857Y-31376726D01*
X48118352Y-31080995D01*
X48180800Y-30767049D01*
X48180800Y-30446951D01*
X48118352Y-30133005D01*
X47995857Y-29837274D01*
X47818020Y-29571123D01*
X47798417Y-29551520D01*
X47865845Y-29388735D01*
X47911000Y-29161727D01*
X47911000Y-28930273D01*
X47865845Y-28703265D01*
X47777271Y-28489429D01*
X47648682Y-28296981D01*
X47485019Y-28133318D01*
X47292571Y-28004729D01*
X47078735Y-27916155D01*
X46851727Y-27871000D01*
X46620273Y-27871000D01*
X46393265Y-27916155D01*
X46179429Y-28004729D01*
X45986981Y-28133318D01*
X45823318Y-28296981D01*
X45694729Y-28489429D01*
X45606155Y-28703265D01*
X45561000Y-28930273D01*
X45561000Y-29161727D01*
X45588321Y-29299078D01*
X45519923Y-29344780D01*
X45293580Y-29571123D01*
X45115743Y-29837274D01*
X44993248Y-30133005D01*
X44930800Y-30446951D01*
X41680800Y-30446951D01*
X41618352Y-30133005D01*
X41495857Y-29837274D01*
X41318020Y-29571123D01*
X41091677Y-29344780D01*
X40825526Y-29166943D01*
X40529795Y-29044448D01*
X40215849Y-28982000D01*
X39895751Y-28982000D01*
X39581805Y-29044448D01*
X39286074Y-29166943D01*
X39019923Y-29344780D01*
X38793580Y-29571123D01*
X38615743Y-29837274D01*
X38493248Y-30133005D01*
X38430800Y-30446951D01*
X36573000Y-30446951D01*
X36510552Y-30133005D01*
X36388057Y-29837274D01*
X36210220Y-29571123D01*
X35983877Y-29344780D01*
X35717726Y-29166943D01*
X35421995Y-29044448D01*
X35108049Y-28982000D01*
X34787951Y-28982000D01*
X34474005Y-29044448D01*
X34178274Y-29166943D01*
X33912123Y-29344780D01*
X33685780Y-29571123D01*
X33507943Y-29837274D01*
X33385448Y-30133005D01*
X33323000Y-30446951D01*
X30073000Y-30446951D01*
X30010552Y-30133005D01*
X29888057Y-29837274D01*
X29710220Y-29571123D01*
X29483877Y-29344780D01*
X29217726Y-29166943D01*
X28921995Y-29044448D01*
X28608049Y-28982000D01*
X28287951Y-28982000D01*
X27974005Y-29044448D01*
X27678274Y-29166943D01*
X27412123Y-29344780D01*
X27185780Y-29571123D01*
X27007943Y-29837274D01*
X26885448Y-30133005D01*
X26823000Y-30446951D01*
X25016000Y-30446951D01*
X24953552Y-30133005D01*
X24831057Y-29837274D01*
X24653220Y-29571123D01*
X24426877Y-29344780D01*
X24160726Y-29166943D01*
X23864995Y-29044448D01*
X23551049Y-28982000D01*
X23230951Y-28982000D01*
X22917005Y-29044448D01*
X22621274Y-29166943D01*
X22355123Y-29344780D01*
X22128780Y-29571123D01*
X21950943Y-29837274D01*
X21828448Y-30133005D01*
X21766000Y-30446951D01*
X18516000Y-30446951D01*
X18453552Y-30133005D01*
X18331057Y-29837274D01*
X18153220Y-29571123D01*
X17926877Y-29344780D01*
X17660726Y-29166943D01*
X17364995Y-29044448D01*
X17051049Y-28982000D01*
X16812201Y-28982000D01*
X16863882Y-28930319D01*
X16992471Y-28737871D01*
X17081045Y-28524035D01*
X17126200Y-28297027D01*
X17126200Y-28065573D01*
X17081045Y-27838565D01*
X16992471Y-27624729D01*
X16863882Y-27432281D01*
X16700219Y-27268618D01*
X16507771Y-27140029D01*
X16293935Y-27051455D01*
X16066927Y-27006300D01*
X15835473Y-27006300D01*
X15608465Y-27051455D01*
X15394629Y-27140029D01*
X15202181Y-27268618D01*
X15038518Y-27432281D01*
X14909929Y-27624729D01*
X14821355Y-27838565D01*
X14776200Y-28065573D01*
X13627000Y-28065573D01*
X13627000Y-24058686D01*
X17543000Y-24058686D01*
X17543000Y-24605314D01*
X17649642Y-25141438D01*
X17858827Y-25646455D01*
X18162517Y-26100959D01*
X18549041Y-26487483D01*
X19003545Y-26791173D01*
X19508562Y-27000358D01*
X20044686Y-27107000D01*
X20591314Y-27107000D01*
X21127438Y-27000358D01*
X21632455Y-26791173D01*
X22086959Y-26487483D01*
X22473483Y-26100959D01*
X22777173Y-25646455D01*
X22986358Y-25141438D01*
X23093000Y-24605314D01*
X23093000Y-24058686D01*
X22986358Y-23522562D01*
X22777173Y-23017545D01*
X22473483Y-22563041D01*
X22107318Y-22196876D01*
X25698000Y-22196876D01*
X25698000Y-22507124D01*
X25758526Y-22811411D01*
X25877253Y-23098042D01*
X26049617Y-23356004D01*
X26268996Y-23575383D01*
X26526958Y-23747747D01*
X26813589Y-23866474D01*
X26901273Y-23883915D01*
X26843000Y-24176876D01*
X26843000Y-24487124D01*
X26903526Y-24791411D01*
X27022253Y-25078042D01*
X27194617Y-25336004D01*
X27413996Y-25555383D01*
X27671958Y-25727747D01*
X27958589Y-25846474D01*
X28046273Y-25863915D01*
X27988000Y-26156876D01*
X27988000Y-26467124D01*
X28048526Y-26771411D01*
X28167253Y-27058042D01*
X28339617Y-27316004D01*
X28558996Y-27535383D01*
X28816958Y-27707747D01*
X29103589Y-27826474D01*
X29407876Y-27887000D01*
X29718124Y-27887000D01*
X30022411Y-27826474D01*
X30309042Y-27707747D01*
X30567004Y-27535383D01*
X30708000Y-27394387D01*
X30848996Y-27535383D01*
X31106958Y-27707747D01*
X31393589Y-27826474D01*
X31697876Y-27887000D01*
X32008124Y-27887000D01*
X32312411Y-27826474D01*
X32599042Y-27707747D01*
X32857004Y-27535383D01*
X32998000Y-27394387D01*
X33138996Y-27535383D01*
X33396958Y-27707747D01*
X33683589Y-27826474D01*
X33987876Y-27887000D01*
X34298124Y-27887000D01*
X34602411Y-27826474D01*
X34889042Y-27707747D01*
X35147004Y-27535383D01*
X35366383Y-27316004D01*
X35371050Y-27309018D01*
X35689126Y-27309018D01*
X35767778Y-27532133D01*
X36018597Y-27638467D01*
X36285340Y-27693825D01*
X36557758Y-27696081D01*
X36825381Y-27645147D01*
X37077926Y-27542982D01*
X37098222Y-27532133D01*
X37176874Y-27309018D01*
X36433000Y-26565144D01*
X35689126Y-27309018D01*
X35371050Y-27309018D01*
X35538747Y-27058042D01*
X35612946Y-26878910D01*
X36179856Y-26312000D01*
X36165714Y-26297858D01*
X36418858Y-26044714D01*
X36433000Y-26058856D01*
X36447143Y-26044714D01*
X36700287Y-26297858D01*
X36686144Y-26312000D01*
X37253054Y-26878910D01*
X37327253Y-27058042D01*
X37499617Y-27316004D01*
X37718996Y-27535383D01*
X37976958Y-27707747D01*
X38263589Y-27826474D01*
X38567876Y-27887000D01*
X38878124Y-27887000D01*
X39182411Y-27826474D01*
X39469042Y-27707747D01*
X39727004Y-27535383D01*
X39868000Y-27394387D01*
X40008996Y-27535383D01*
X40266958Y-27707747D01*
X40553589Y-27826474D01*
X40857876Y-27887000D01*
X41168124Y-27887000D01*
X41472411Y-27826474D01*
X41759042Y-27707747D01*
X42017004Y-27535383D01*
X42158000Y-27394387D01*
X42298996Y-27535383D01*
X42556958Y-27707747D01*
X42843589Y-27826474D01*
X43147876Y-27887000D01*
X43458124Y-27887000D01*
X43762411Y-27826474D01*
X44049042Y-27707747D01*
X44307004Y-27535383D01*
X44448000Y-27394387D01*
X44588996Y-27535383D01*
X44846958Y-27707747D01*
X45133589Y-27826474D01*
X45437876Y-27887000D01*
X45748124Y-27887000D01*
X46052411Y-27826474D01*
X46339042Y-27707747D01*
X46597004Y-27535383D01*
X46816383Y-27316004D01*
X46988747Y-27058042D01*
X47107474Y-26771411D01*
X47168000Y-26467124D01*
X47168000Y-26156876D01*
X47109727Y-25863915D01*
X47197411Y-25846474D01*
X47484042Y-25727747D01*
X47742004Y-25555383D01*
X47961383Y-25336004D01*
X48133747Y-25078042D01*
X48252474Y-24791411D01*
X48313000Y-24487124D01*
X48313000Y-24176876D01*
X48289491Y-24058686D01*
X50843000Y-24058686D01*
X50843000Y-24605314D01*
X50949642Y-25141438D01*
X51158827Y-25646455D01*
X51462517Y-26100959D01*
X51849041Y-26487483D01*
X52303545Y-26791173D01*
X52808562Y-27000358D01*
X53344686Y-27107000D01*
X53891314Y-27107000D01*
X54427438Y-27000358D01*
X54932455Y-26791173D01*
X55386959Y-26487483D01*
X55773483Y-26100959D01*
X56077173Y-25646455D01*
X56286358Y-25141438D01*
X56393000Y-24605314D01*
X56393000Y-24058686D01*
X56286358Y-23522562D01*
X56077173Y-23017545D01*
X55773483Y-22563041D01*
X55386959Y-22176517D01*
X54932455Y-21872827D01*
X54427438Y-21663642D01*
X53891314Y-21557000D01*
X53344686Y-21557000D01*
X52808562Y-21663642D01*
X52303545Y-21872827D01*
X51849041Y-22176517D01*
X51462517Y-22563041D01*
X51158827Y-23017545D01*
X50949642Y-23522562D01*
X50843000Y-24058686D01*
X48289491Y-24058686D01*
X48252474Y-23872589D01*
X48133747Y-23585958D01*
X47961383Y-23327996D01*
X47742004Y-23108617D01*
X47484042Y-22936253D01*
X47197411Y-22817526D01*
X47171749Y-22812422D01*
X47171749Y-21552000D01*
X47156786Y-21400074D01*
X47112470Y-21253986D01*
X47040506Y-21119350D01*
X46943659Y-21001341D01*
X46825650Y-20904494D01*
X46691014Y-20832530D01*
X46544926Y-20788214D01*
X46393000Y-20773251D01*
X44793000Y-20773251D01*
X44641074Y-20788214D01*
X44494986Y-20832530D01*
X44360350Y-20904494D01*
X44242341Y-21001341D01*
X44197782Y-21055637D01*
X44049042Y-20956253D01*
X43762411Y-20837526D01*
X43458124Y-20777000D01*
X43147876Y-20777000D01*
X42843589Y-20837526D01*
X42556958Y-20956253D01*
X42298996Y-21128617D01*
X42158000Y-21269613D01*
X42017004Y-21128617D01*
X41759042Y-20956253D01*
X41472411Y-20837526D01*
X41168124Y-20777000D01*
X40857876Y-20777000D01*
X40553589Y-20837526D01*
X40266958Y-20956253D01*
X40008996Y-21128617D01*
X39868000Y-21269613D01*
X39727004Y-21128617D01*
X39469042Y-20956253D01*
X39182411Y-20837526D01*
X38878124Y-20777000D01*
X38567876Y-20777000D01*
X38263589Y-20837526D01*
X37976958Y-20956253D01*
X37718996Y-21128617D01*
X37578000Y-21269613D01*
X37437004Y-21128617D01*
X37179042Y-20956253D01*
X36892411Y-20837526D01*
X36588124Y-20777000D01*
X36277876Y-20777000D01*
X35973589Y-20837526D01*
X35686958Y-20956253D01*
X35428996Y-21128617D01*
X35288000Y-21269613D01*
X35147004Y-21128617D01*
X34889042Y-20956253D01*
X34602411Y-20837526D01*
X34298124Y-20777000D01*
X33987876Y-20777000D01*
X33683589Y-20837526D01*
X33396958Y-20956253D01*
X33138996Y-21128617D01*
X32998000Y-21269613D01*
X32857004Y-21128617D01*
X32599042Y-20956253D01*
X32312411Y-20837526D01*
X32008124Y-20777000D01*
X31697876Y-20777000D01*
X31393589Y-20837526D01*
X31106958Y-20956253D01*
X30848996Y-21128617D01*
X30629617Y-21347996D01*
X30457253Y-21605958D01*
X30383054Y-21785090D01*
X29816144Y-22352000D01*
X29830287Y-22366143D01*
X29577143Y-22619287D01*
X29563000Y-22605144D01*
X29548858Y-22619287D01*
X29295714Y-22366143D01*
X29309856Y-22352000D01*
X28742946Y-21785090D01*
X28668747Y-21605958D01*
X28501051Y-21354982D01*
X28819126Y-21354982D01*
X29563000Y-22098856D01*
X30306874Y-21354982D01*
X30228222Y-21131867D01*
X29977403Y-21025533D01*
X29710660Y-20970175D01*
X29438242Y-20967919D01*
X29170619Y-21018853D01*
X28918074Y-21121018D01*
X28897778Y-21131867D01*
X28819126Y-21354982D01*
X28501051Y-21354982D01*
X28496383Y-21347996D01*
X28277004Y-21128617D01*
X28019042Y-20956253D01*
X27732411Y-20837526D01*
X27428124Y-20777000D01*
X27117876Y-20777000D01*
X26813589Y-20837526D01*
X26526958Y-20956253D01*
X26268996Y-21128617D01*
X26049617Y-21347996D01*
X25877253Y-21605958D01*
X25758526Y-21892589D01*
X25698000Y-22196876D01*
X22107318Y-22196876D01*
X22086959Y-22176517D01*
X21632455Y-21872827D01*
X21127438Y-21663642D01*
X20591314Y-21557000D01*
X20044686Y-21557000D01*
X19508562Y-21663642D01*
X19003545Y-21872827D01*
X18549041Y-22176517D01*
X18162517Y-22563041D01*
X17858827Y-23017545D01*
X17649642Y-23522562D01*
X17543000Y-24058686D01*
X13627000Y-24058686D01*
X13627000Y-15258212D01*
X14117723Y-15258212D01*
X14222050Y-15519040D01*
X14375258Y-15754503D01*
X14571458Y-15955552D01*
X14803111Y-16114461D01*
X15061315Y-16225123D01*
X15094789Y-16235270D01*
X15315000Y-16133744D01*
X15315000Y-15038000D01*
X14217967Y-15038000D01*
X14117723Y-15258212D01*
X13627000Y-15258212D01*
X13627000Y-14459788D01*
X14117723Y-14459788D01*
X14217967Y-14680000D01*
X15315000Y-14680000D01*
X15315000Y-13584256D01*
X15673000Y-13584256D01*
X15673000Y-14680000D01*
X15693000Y-14680000D01*
X15693000Y-15038000D01*
X15673000Y-15038000D01*
X15673000Y-16133744D01*
X15893211Y-16235270D01*
X15926685Y-16225123D01*
X16184889Y-16114461D01*
X16416542Y-15955552D01*
X16612742Y-15754503D01*
X16644226Y-15706116D01*
X16676325Y-15766170D01*
X16879392Y-16013608D01*
X17126830Y-16216675D01*
X17409131Y-16367568D01*
X17715444Y-16460487D01*
X17954176Y-16484000D01*
X18113824Y-16484000D01*
X18352556Y-16460487D01*
X18658869Y-16367568D01*
X18941170Y-16216675D01*
X19188608Y-16013608D01*
X19391675Y-15766170D01*
X19423774Y-15706116D01*
X19455258Y-15754503D01*
X19651458Y-15955552D01*
X19883111Y-16114461D01*
X20141315Y-16225123D01*
X20174789Y-16235270D01*
X20395000Y-16133744D01*
X20395000Y-15038000D01*
X20375000Y-15038000D01*
X20375000Y-14680000D01*
X20395000Y-14680000D01*
X20395000Y-13584256D01*
X20753000Y-13584256D01*
X20753000Y-14680000D01*
X20773000Y-14680000D01*
X20773000Y-15038000D01*
X20753000Y-15038000D01*
X20753000Y-16133744D01*
X20973211Y-16235270D01*
X21006685Y-16225123D01*
X21264889Y-16114461D01*
X21496542Y-15955552D01*
X21692742Y-15754503D01*
X21724226Y-15706116D01*
X21756325Y-15766170D01*
X21959392Y-16013608D01*
X22206830Y-16216675D01*
X22489131Y-16367568D01*
X22795444Y-16460487D01*
X23034176Y-16484000D01*
X23193824Y-16484000D01*
X23432556Y-16460487D01*
X23738869Y-16367568D01*
X24021170Y-16216675D01*
X24268608Y-16013608D01*
X24384000Y-15873002D01*
X24499392Y-16013608D01*
X24746830Y-16216675D01*
X25029131Y-16367568D01*
X25335444Y-16460487D01*
X25574176Y-16484000D01*
X25733824Y-16484000D01*
X25972556Y-16460487D01*
X26278869Y-16367568D01*
X26561170Y-16216675D01*
X26808608Y-16013608D01*
X26924000Y-15873002D01*
X27039392Y-16013608D01*
X27286830Y-16216675D01*
X27569131Y-16367568D01*
X27875444Y-16460487D01*
X28114176Y-16484000D01*
X28273824Y-16484000D01*
X28512556Y-16460487D01*
X28818869Y-16367568D01*
X29101170Y-16216675D01*
X29348608Y-16013608D01*
X29464000Y-15873002D01*
X29579392Y-16013608D01*
X29826830Y-16216675D01*
X30109131Y-16367568D01*
X30415444Y-16460487D01*
X30654176Y-16484000D01*
X30813824Y-16484000D01*
X31052556Y-16460487D01*
X31358869Y-16367568D01*
X31641170Y-16216675D01*
X31888608Y-16013608D01*
X32004000Y-15873002D01*
X32119392Y-16013608D01*
X32366830Y-16216675D01*
X32649131Y-16367568D01*
X32955444Y-16460487D01*
X33194176Y-16484000D01*
X33353824Y-16484000D01*
X33592556Y-16460487D01*
X33898869Y-16367568D01*
X34181170Y-16216675D01*
X34428608Y-16013608D01*
X34544000Y-15873002D01*
X34659392Y-16013608D01*
X34906830Y-16216675D01*
X35189131Y-16367568D01*
X35495444Y-16460487D01*
X35734176Y-16484000D01*
X35893824Y-16484000D01*
X36132556Y-16460487D01*
X36438869Y-16367568D01*
X36721170Y-16216675D01*
X36968608Y-16013608D01*
X37084000Y-15873002D01*
X37199392Y-16013608D01*
X37446830Y-16216675D01*
X37729131Y-16367568D01*
X38035444Y-16460487D01*
X38274176Y-16484000D01*
X38433824Y-16484000D01*
X38672556Y-16460487D01*
X38978869Y-16367568D01*
X39261170Y-16216675D01*
X39508608Y-16013608D01*
X39711675Y-15766170D01*
X39743774Y-15706116D01*
X39775258Y-15754503D01*
X39971458Y-15955552D01*
X40203111Y-16114461D01*
X40461315Y-16225123D01*
X40494789Y-16235270D01*
X40715000Y-16133744D01*
X40715000Y-15038000D01*
X40695000Y-15038000D01*
X40695000Y-14680000D01*
X40715000Y-14680000D01*
X40715000Y-13584256D01*
X41073000Y-13584256D01*
X41073000Y-14680000D01*
X41093000Y-14680000D01*
X41093000Y-15038000D01*
X41073000Y-15038000D01*
X41073000Y-16133744D01*
X41293211Y-16235270D01*
X41326685Y-16225123D01*
X41584889Y-16114461D01*
X41816542Y-15955552D01*
X41841241Y-15930242D01*
X41864530Y-16007014D01*
X41936494Y-16141650D01*
X42033341Y-16259659D01*
X42151350Y-16356506D01*
X42285986Y-16428470D01*
X42432074Y-16472786D01*
X42584000Y-16487749D01*
X44284000Y-16487749D01*
X44435926Y-16472786D01*
X44582014Y-16428470D01*
X44716650Y-16356506D01*
X44834659Y-16259659D01*
X44931506Y-16141650D01*
X45003470Y-16007014D01*
X45047786Y-15860926D01*
X45062749Y-15709000D01*
X45062749Y-14009000D01*
X45047786Y-13857074D01*
X45003470Y-13710986D01*
X44931506Y-13576350D01*
X44834659Y-13458341D01*
X44716650Y-13361494D01*
X44582014Y-13289530D01*
X44435926Y-13245214D01*
X44284000Y-13230251D01*
X42584000Y-13230251D01*
X42432074Y-13245214D01*
X42285986Y-13289530D01*
X42151350Y-13361494D01*
X42033341Y-13458341D01*
X41936494Y-13576350D01*
X41864530Y-13710986D01*
X41841241Y-13787758D01*
X41816542Y-13762448D01*
X41584889Y-13603539D01*
X41326685Y-13492877D01*
X41293211Y-13482730D01*
X41073000Y-13584256D01*
X40715000Y-13584256D01*
X40494789Y-13482730D01*
X40461315Y-13492877D01*
X40203111Y-13603539D01*
X39971458Y-13762448D01*
X39775258Y-13963497D01*
X39743774Y-14011884D01*
X39711675Y-13951830D01*
X39508608Y-13704392D01*
X39261170Y-13501325D01*
X38978869Y-13350432D01*
X38672556Y-13257513D01*
X38433824Y-13234000D01*
X38274176Y-13234000D01*
X38035444Y-13257513D01*
X37729131Y-13350432D01*
X37446830Y-13501325D01*
X37199392Y-13704392D01*
X37084000Y-13844998D01*
X36968608Y-13704392D01*
X36721170Y-13501325D01*
X36438869Y-13350432D01*
X36132556Y-13257513D01*
X35893824Y-13234000D01*
X35734176Y-13234000D01*
X35495444Y-13257513D01*
X35189131Y-13350432D01*
X34906830Y-13501325D01*
X34659392Y-13704392D01*
X34544000Y-13844998D01*
X34428608Y-13704392D01*
X34181170Y-13501325D01*
X33898869Y-13350432D01*
X33592556Y-13257513D01*
X33353824Y-13234000D01*
X33194176Y-13234000D01*
X32955444Y-13257513D01*
X32649131Y-13350432D01*
X32366830Y-13501325D01*
X32119392Y-13704392D01*
X32004000Y-13844998D01*
X31888608Y-13704392D01*
X31641170Y-13501325D01*
X31358869Y-13350432D01*
X31052556Y-13257513D01*
X30813824Y-13234000D01*
X30654176Y-13234000D01*
X30415444Y-13257513D01*
X30109131Y-13350432D01*
X29826830Y-13501325D01*
X29579392Y-13704392D01*
X29464000Y-13844998D01*
X29348608Y-13704392D01*
X29101170Y-13501325D01*
X28818869Y-13350432D01*
X28512556Y-13257513D01*
X28273824Y-13234000D01*
X28114176Y-13234000D01*
X27875444Y-13257513D01*
X27569131Y-13350432D01*
X27286830Y-13501325D01*
X27039392Y-13704392D01*
X26924000Y-13844998D01*
X26808608Y-13704392D01*
X26561170Y-13501325D01*
X26278869Y-13350432D01*
X25972556Y-13257513D01*
X25733824Y-13234000D01*
X25574176Y-13234000D01*
X25335444Y-13257513D01*
X25029131Y-13350432D01*
X24746830Y-13501325D01*
X24499392Y-13704392D01*
X24384000Y-13844998D01*
X24268608Y-13704392D01*
X24021170Y-13501325D01*
X23738869Y-13350432D01*
X23432556Y-13257513D01*
X23193824Y-13234000D01*
X23034176Y-13234000D01*
X22795444Y-13257513D01*
X22489131Y-13350432D01*
X22206830Y-13501325D01*
X21959392Y-13704392D01*
X21756325Y-13951830D01*
X21724226Y-14011884D01*
X21692742Y-13963497D01*
X21496542Y-13762448D01*
X21264889Y-13603539D01*
X21006685Y-13492877D01*
X20973211Y-13482730D01*
X20753000Y-13584256D01*
X20395000Y-13584256D01*
X20174789Y-13482730D01*
X20141315Y-13492877D01*
X19883111Y-13603539D01*
X19651458Y-13762448D01*
X19455258Y-13963497D01*
X19423774Y-14011884D01*
X19391675Y-13951830D01*
X19188608Y-13704392D01*
X18941170Y-13501325D01*
X18658869Y-13350432D01*
X18352556Y-13257513D01*
X18113824Y-13234000D01*
X17954176Y-13234000D01*
X17715444Y-13257513D01*
X17409131Y-13350432D01*
X17126830Y-13501325D01*
X16879392Y-13704392D01*
X16676325Y-13951830D01*
X16644226Y-14011884D01*
X16612742Y-13963497D01*
X16416542Y-13762448D01*
X16184889Y-13603539D01*
X15926685Y-13492877D01*
X15893211Y-13482730D01*
X15673000Y-13584256D01*
X15315000Y-13584256D01*
X15094789Y-13482730D01*
X15061315Y-13492877D01*
X14803111Y-13603539D01*
X14571458Y-13762448D01*
X14375258Y-13963497D01*
X14222050Y-14198960D01*
X14117723Y-14459788D01*
X13627000Y-14459788D01*
X13627000Y-12865000D01*
X52038000Y-12865000D01*
X52038000Y-13069717D01*
M02*
