G04 #@! TF.GenerationSoftware,KiCad,Pcbnew,(5.1.0-0)*
G04 #@! TF.CreationDate,2019-04-21T16:41:31+03:00*
G04 #@! TF.ProjectId,ovms-swcan-dongle,6f766d73-2d73-4776-9361-6e2d646f6e67,rev?*
G04 #@! TF.SameCoordinates,Original*
G04 #@! TF.FileFunction,Copper,L2,Inr*
G04 #@! TF.FilePolarity,Positive*
%FSLAX46Y46*%
G04 Gerber Fmt 4.6, Leading zero omitted, Abs format (unit mm)*
G04 Created by KiCad (PCBNEW (5.1.0-0)) date 2019-04-21 16:41:31*
%MOMM*%
%LPD*%
G04 APERTURE LIST*
%ADD10O,1.700000X1.700000*%
%ADD11R,1.700000X1.700000*%
%ADD12C,1.700000*%
%ADD13C,4.000000*%
%ADD14C,1.600000*%
%ADD15R,1.600000X1.600000*%
%ADD16C,0.800000*%
%ADD17C,0.250000*%
%ADD18C,1.000000*%
%ADD19C,0.200000*%
G04 APERTURE END LIST*
D10*
X15494000Y-14859000D03*
X18034000Y-14859000D03*
X20574000Y-14859000D03*
X23114000Y-14859000D03*
X25654000Y-14859000D03*
X28194000Y-14859000D03*
X30734000Y-14859000D03*
X33274000Y-14859000D03*
X35814000Y-14859000D03*
X38354000Y-14859000D03*
X40894000Y-14859000D03*
D11*
X43434000Y-14859000D03*
D12*
X40055800Y-30607000D03*
X46555800Y-30607000D03*
X40055800Y-35107000D03*
X46555800Y-35107000D03*
X28448000Y-30607000D03*
X34948000Y-30607000D03*
X28448000Y-35107000D03*
X34948000Y-35107000D03*
X16891000Y-30607000D03*
X23391000Y-30607000D03*
X16891000Y-35107000D03*
X23391000Y-35107000D03*
D13*
X20318000Y-24332000D03*
X53618000Y-24332000D03*
D14*
X29563000Y-26312000D03*
X31853000Y-26312000D03*
X34143000Y-26312000D03*
X36433000Y-26312000D03*
X38723000Y-26312000D03*
X41013000Y-26312000D03*
X43303000Y-26312000D03*
X45593000Y-26312000D03*
X28418000Y-24332000D03*
X30708000Y-24332000D03*
X32998000Y-24332000D03*
X35288000Y-24332000D03*
X37578000Y-24332000D03*
X39868000Y-24332000D03*
X42158000Y-24332000D03*
X44448000Y-24332000D03*
X46738000Y-24332000D03*
X27273000Y-22352000D03*
X29563000Y-22352000D03*
X31853000Y-22352000D03*
X34143000Y-22352000D03*
X36433000Y-22352000D03*
X38723000Y-22352000D03*
X41013000Y-22352000D03*
X43303000Y-22352000D03*
D15*
X45593000Y-22352000D03*
D11*
X50546000Y-33528000D03*
X55626000Y-33528000D03*
D16*
X46736000Y-29046000D03*
X25273000Y-35433000D03*
X40132000Y-32893000D03*
X16510000Y-33274000D03*
X29464002Y-33401000D03*
X15951200Y-28181300D03*
X28956000Y-32258000D03*
X53213000Y-12953990D03*
X17856200Y-32283400D03*
D17*
X42604081Y-14478000D02*
X43942000Y-14478000D01*
D18*
X21463000Y-19431000D02*
X19761200Y-19431000D01*
X24384000Y-22352000D02*
X21463000Y-19431000D01*
X27273000Y-22352000D02*
X24384000Y-22352000D01*
X18923000Y-19380200D02*
X18948400Y-19405600D01*
X18923000Y-19329400D02*
X18923000Y-19380200D01*
X17780000Y-18186400D02*
X18923000Y-19329400D01*
X18948400Y-19405600D02*
X19786600Y-19405600D01*
X17780000Y-14986000D02*
X17780000Y-18186400D01*
D19*
G36*
X57468001Y-36132000D02*
G01*
X47855355Y-36132000D01*
X48018011Y-35888568D01*
X48142392Y-35588287D01*
X48205800Y-35269511D01*
X48205800Y-34944489D01*
X48142392Y-34625713D01*
X48018011Y-34325432D01*
X47837439Y-34055186D01*
X47607614Y-33825361D01*
X47337368Y-33644789D01*
X47037087Y-33520408D01*
X46718311Y-33457000D01*
X46393289Y-33457000D01*
X46074513Y-33520408D01*
X45774232Y-33644789D01*
X45503986Y-33825361D01*
X45274161Y-34055186D01*
X45093589Y-34325432D01*
X44969208Y-34625713D01*
X44905800Y-34944489D01*
X44905800Y-35269511D01*
X44969208Y-35588287D01*
X45093589Y-35888568D01*
X45256245Y-36132000D01*
X41355355Y-36132000D01*
X41518011Y-35888568D01*
X41642392Y-35588287D01*
X41705800Y-35269511D01*
X41705800Y-34944489D01*
X41642392Y-34625713D01*
X41518011Y-34325432D01*
X41337439Y-34055186D01*
X41107614Y-33825361D01*
X40981177Y-33740879D01*
X41064101Y-33657955D01*
X41195426Y-33461413D01*
X41285884Y-33243027D01*
X41332000Y-33011190D01*
X41332000Y-32774810D01*
X41312743Y-32678000D01*
X48892130Y-32678000D01*
X48892130Y-34378000D01*
X48907576Y-34534827D01*
X48953321Y-34685628D01*
X49027607Y-34824606D01*
X49127578Y-34946422D01*
X49249394Y-35046393D01*
X49388372Y-35120679D01*
X49539173Y-35166424D01*
X49696000Y-35181870D01*
X51396000Y-35181870D01*
X51552827Y-35166424D01*
X51703628Y-35120679D01*
X51842606Y-35046393D01*
X51964422Y-34946422D01*
X52064393Y-34824606D01*
X52138679Y-34685628D01*
X52184424Y-34534827D01*
X52199870Y-34378000D01*
X52199870Y-32678000D01*
X53972130Y-32678000D01*
X53972130Y-34378000D01*
X53987576Y-34534827D01*
X54033321Y-34685628D01*
X54107607Y-34824606D01*
X54207578Y-34946422D01*
X54329394Y-35046393D01*
X54468372Y-35120679D01*
X54619173Y-35166424D01*
X54776000Y-35181870D01*
X56476000Y-35181870D01*
X56632827Y-35166424D01*
X56783628Y-35120679D01*
X56922606Y-35046393D01*
X57044422Y-34946422D01*
X57144393Y-34824606D01*
X57218679Y-34685628D01*
X57264424Y-34534827D01*
X57279870Y-34378000D01*
X57279870Y-32678000D01*
X57264424Y-32521173D01*
X57218679Y-32370372D01*
X57144393Y-32231394D01*
X57044422Y-32109578D01*
X56922606Y-32009607D01*
X56783628Y-31935321D01*
X56632827Y-31889576D01*
X56476000Y-31874130D01*
X54776000Y-31874130D01*
X54619173Y-31889576D01*
X54468372Y-31935321D01*
X54329394Y-32009607D01*
X54207578Y-32109578D01*
X54107607Y-32231394D01*
X54033321Y-32370372D01*
X53987576Y-32521173D01*
X53972130Y-32678000D01*
X52199870Y-32678000D01*
X52184424Y-32521173D01*
X52138679Y-32370372D01*
X52064393Y-32231394D01*
X51964422Y-32109578D01*
X51842606Y-32009607D01*
X51703628Y-31935321D01*
X51552827Y-31889576D01*
X51396000Y-31874130D01*
X49696000Y-31874130D01*
X49539173Y-31889576D01*
X49388372Y-31935321D01*
X49249394Y-32009607D01*
X49127578Y-32109578D01*
X49027607Y-32231394D01*
X48953321Y-32370372D01*
X48907576Y-32521173D01*
X48892130Y-32678000D01*
X41312743Y-32678000D01*
X41285884Y-32542973D01*
X41195426Y-32324587D01*
X41064101Y-32128045D01*
X40938016Y-32001960D01*
X41107614Y-31888639D01*
X41337439Y-31658814D01*
X41518011Y-31388568D01*
X41642392Y-31088287D01*
X41705800Y-30769511D01*
X41705800Y-30444489D01*
X44905800Y-30444489D01*
X44905800Y-30769511D01*
X44969208Y-31088287D01*
X45093589Y-31388568D01*
X45274161Y-31658814D01*
X45503986Y-31888639D01*
X45774232Y-32069211D01*
X46074513Y-32193592D01*
X46393289Y-32257000D01*
X46718311Y-32257000D01*
X47037087Y-32193592D01*
X47337368Y-32069211D01*
X47607614Y-31888639D01*
X47837439Y-31658814D01*
X48018011Y-31388568D01*
X48142392Y-31088287D01*
X48205800Y-30769511D01*
X48205800Y-30444489D01*
X48142392Y-30125713D01*
X48018011Y-29825432D01*
X47837439Y-29555186D01*
X47827907Y-29545654D01*
X47889884Y-29396027D01*
X47936000Y-29164190D01*
X47936000Y-28927810D01*
X47889884Y-28695973D01*
X47799426Y-28477587D01*
X47668101Y-28281045D01*
X47500955Y-28113899D01*
X47304413Y-27982574D01*
X47086027Y-27892116D01*
X46854190Y-27846000D01*
X46617810Y-27846000D01*
X46385973Y-27892116D01*
X46167587Y-27982574D01*
X45971045Y-28113899D01*
X45803899Y-28281045D01*
X45672574Y-28477587D01*
X45582116Y-28695973D01*
X45536000Y-28927810D01*
X45536000Y-29164190D01*
X45560542Y-29287571D01*
X45503986Y-29325361D01*
X45274161Y-29555186D01*
X45093589Y-29825432D01*
X44969208Y-30125713D01*
X44905800Y-30444489D01*
X41705800Y-30444489D01*
X41642392Y-30125713D01*
X41518011Y-29825432D01*
X41337439Y-29555186D01*
X41107614Y-29325361D01*
X40837368Y-29144789D01*
X40537087Y-29020408D01*
X40218311Y-28957000D01*
X39893289Y-28957000D01*
X39574513Y-29020408D01*
X39274232Y-29144789D01*
X39003986Y-29325361D01*
X38774161Y-29555186D01*
X38593589Y-29825432D01*
X38469208Y-30125713D01*
X38405800Y-30444489D01*
X38405800Y-30769511D01*
X38469208Y-31088287D01*
X38593589Y-31388568D01*
X38774161Y-31658814D01*
X39003986Y-31888639D01*
X39264941Y-32063003D01*
X39199899Y-32128045D01*
X39068574Y-32324587D01*
X38978116Y-32542973D01*
X38932000Y-32774810D01*
X38932000Y-33011190D01*
X38978116Y-33243027D01*
X39068574Y-33461413D01*
X39199899Y-33657955D01*
X39221780Y-33679836D01*
X39003986Y-33825361D01*
X38774161Y-34055186D01*
X38593589Y-34325432D01*
X38469208Y-34625713D01*
X38405800Y-34944489D01*
X38405800Y-35269511D01*
X38469208Y-35588287D01*
X38593589Y-35888568D01*
X38756245Y-36132000D01*
X36247555Y-36132000D01*
X36410211Y-35888568D01*
X36534592Y-35588287D01*
X36598000Y-35269511D01*
X36598000Y-34944489D01*
X36534592Y-34625713D01*
X36410211Y-34325432D01*
X36229639Y-34055186D01*
X35999814Y-33825361D01*
X35729568Y-33644789D01*
X35429287Y-33520408D01*
X35110511Y-33457000D01*
X34785489Y-33457000D01*
X34466713Y-33520408D01*
X34166432Y-33644789D01*
X33896186Y-33825361D01*
X33666361Y-34055186D01*
X33485789Y-34325432D01*
X33361408Y-34625713D01*
X33298000Y-34944489D01*
X33298000Y-35269511D01*
X33361408Y-35588287D01*
X33485789Y-35888568D01*
X33648445Y-36132000D01*
X29747555Y-36132000D01*
X29910211Y-35888568D01*
X30034592Y-35588287D01*
X30098000Y-35269511D01*
X30098000Y-34944489D01*
X30034592Y-34625713D01*
X29977249Y-34487276D01*
X30032415Y-34464426D01*
X30228957Y-34333101D01*
X30396103Y-34165955D01*
X30527428Y-33969413D01*
X30617886Y-33751027D01*
X30664002Y-33519190D01*
X30664002Y-33282810D01*
X30617886Y-33050973D01*
X30527428Y-32832587D01*
X30396103Y-32636045D01*
X30228957Y-32468899D01*
X30032415Y-32337574D01*
X29814029Y-32247116D01*
X29582192Y-32201000D01*
X29345812Y-32201000D01*
X29113975Y-32247116D01*
X28895589Y-32337574D01*
X28699047Y-32468899D01*
X28531901Y-32636045D01*
X28400576Y-32832587D01*
X28310118Y-33050973D01*
X28264002Y-33282810D01*
X28264002Y-33461274D01*
X27966713Y-33520408D01*
X27666432Y-33644789D01*
X27396186Y-33825361D01*
X27166361Y-34055186D01*
X26985789Y-34325432D01*
X26861408Y-34625713D01*
X26798000Y-34944489D01*
X26798000Y-35269511D01*
X26861408Y-35588287D01*
X26985789Y-35888568D01*
X27148445Y-36132000D01*
X26249171Y-36132000D01*
X26336426Y-36001413D01*
X26426884Y-35783027D01*
X26473000Y-35551190D01*
X26473000Y-35314810D01*
X26426884Y-35082973D01*
X26336426Y-34864587D01*
X26205101Y-34668045D01*
X26037955Y-34500899D01*
X25841413Y-34369574D01*
X25623027Y-34279116D01*
X25391190Y-34233000D01*
X25154810Y-34233000D01*
X24922973Y-34279116D01*
X24844095Y-34311788D01*
X24672639Y-34055186D01*
X24442814Y-33825361D01*
X24172568Y-33644789D01*
X23872287Y-33520408D01*
X23553511Y-33457000D01*
X23228489Y-33457000D01*
X22909713Y-33520408D01*
X22609432Y-33644789D01*
X22339186Y-33825361D01*
X22109361Y-34055186D01*
X21928789Y-34325432D01*
X21804408Y-34625713D01*
X21741000Y-34944489D01*
X21741000Y-35269511D01*
X21804408Y-35588287D01*
X21928789Y-35888568D01*
X22091445Y-36132000D01*
X18190555Y-36132000D01*
X18353211Y-35888568D01*
X18477592Y-35588287D01*
X18541000Y-35269511D01*
X18541000Y-34944489D01*
X18477592Y-34625713D01*
X18353211Y-34325432D01*
X18172639Y-34055186D01*
X17942814Y-33825361D01*
X17672568Y-33644789D01*
X17657815Y-33638678D01*
X17663884Y-33624027D01*
X17710000Y-33392190D01*
X17710000Y-33155810D01*
X17663884Y-32923973D01*
X17573426Y-32705587D01*
X17442101Y-32509045D01*
X17274955Y-32341899D01*
X17126243Y-32242533D01*
X17372287Y-32193592D01*
X17672568Y-32069211D01*
X17942814Y-31888639D01*
X18172639Y-31658814D01*
X18353211Y-31388568D01*
X18477592Y-31088287D01*
X18541000Y-30769511D01*
X18541000Y-30444489D01*
X21741000Y-30444489D01*
X21741000Y-30769511D01*
X21804408Y-31088287D01*
X21928789Y-31388568D01*
X22109361Y-31658814D01*
X22339186Y-31888639D01*
X22609432Y-32069211D01*
X22909713Y-32193592D01*
X23228489Y-32257000D01*
X23553511Y-32257000D01*
X23872287Y-32193592D01*
X24172568Y-32069211D01*
X24442814Y-31888639D01*
X24672639Y-31658814D01*
X24853211Y-31388568D01*
X24977592Y-31088287D01*
X25041000Y-30769511D01*
X25041000Y-30444489D01*
X26798000Y-30444489D01*
X26798000Y-30769511D01*
X26861408Y-31088287D01*
X26985789Y-31388568D01*
X27166361Y-31658814D01*
X27396186Y-31888639D01*
X27666432Y-32069211D01*
X27966713Y-32193592D01*
X28285489Y-32257000D01*
X28610511Y-32257000D01*
X28929287Y-32193592D01*
X29229568Y-32069211D01*
X29499814Y-31888639D01*
X29729639Y-31658814D01*
X29910211Y-31388568D01*
X30034592Y-31088287D01*
X30098000Y-30769511D01*
X30098000Y-30444489D01*
X33298000Y-30444489D01*
X33298000Y-30769511D01*
X33361408Y-31088287D01*
X33485789Y-31388568D01*
X33666361Y-31658814D01*
X33896186Y-31888639D01*
X34166432Y-32069211D01*
X34466713Y-32193592D01*
X34785489Y-32257000D01*
X35110511Y-32257000D01*
X35429287Y-32193592D01*
X35729568Y-32069211D01*
X35999814Y-31888639D01*
X36229639Y-31658814D01*
X36410211Y-31388568D01*
X36534592Y-31088287D01*
X36598000Y-30769511D01*
X36598000Y-30444489D01*
X36534592Y-30125713D01*
X36410211Y-29825432D01*
X36229639Y-29555186D01*
X35999814Y-29325361D01*
X35729568Y-29144789D01*
X35429287Y-29020408D01*
X35110511Y-28957000D01*
X34785489Y-28957000D01*
X34466713Y-29020408D01*
X34166432Y-29144789D01*
X33896186Y-29325361D01*
X33666361Y-29555186D01*
X33485789Y-29825432D01*
X33361408Y-30125713D01*
X33298000Y-30444489D01*
X30098000Y-30444489D01*
X30034592Y-30125713D01*
X29910211Y-29825432D01*
X29729639Y-29555186D01*
X29499814Y-29325361D01*
X29229568Y-29144789D01*
X28929287Y-29020408D01*
X28610511Y-28957000D01*
X28285489Y-28957000D01*
X27966713Y-29020408D01*
X27666432Y-29144789D01*
X27396186Y-29325361D01*
X27166361Y-29555186D01*
X26985789Y-29825432D01*
X26861408Y-30125713D01*
X26798000Y-30444489D01*
X25041000Y-30444489D01*
X24977592Y-30125713D01*
X24853211Y-29825432D01*
X24672639Y-29555186D01*
X24442814Y-29325361D01*
X24172568Y-29144789D01*
X23872287Y-29020408D01*
X23553511Y-28957000D01*
X23228489Y-28957000D01*
X22909713Y-29020408D01*
X22609432Y-29144789D01*
X22339186Y-29325361D01*
X22109361Y-29555186D01*
X21928789Y-29825432D01*
X21804408Y-30125713D01*
X21741000Y-30444489D01*
X18541000Y-30444489D01*
X18477592Y-30125713D01*
X18353211Y-29825432D01*
X18172639Y-29555186D01*
X17942814Y-29325361D01*
X17672568Y-29144789D01*
X17372287Y-29020408D01*
X17053511Y-28957000D01*
X16728489Y-28957000D01*
X16409713Y-29020408D01*
X16109432Y-29144789D01*
X15839186Y-29325361D01*
X15609361Y-29555186D01*
X15428789Y-29825432D01*
X15304408Y-30125713D01*
X15241000Y-30444489D01*
X15241000Y-30769511D01*
X15304408Y-31088287D01*
X15428789Y-31388568D01*
X15609361Y-31658814D01*
X15839186Y-31888639D01*
X16109432Y-32069211D01*
X16208853Y-32110393D01*
X16159973Y-32120116D01*
X15941587Y-32210574D01*
X15745045Y-32341899D01*
X15577899Y-32509045D01*
X15446574Y-32705587D01*
X15356116Y-32923973D01*
X15310000Y-33155810D01*
X15310000Y-33392190D01*
X15356116Y-33624027D01*
X15446574Y-33842413D01*
X15577899Y-34038955D01*
X15603260Y-34064316D01*
X15428789Y-34325432D01*
X15304408Y-34625713D01*
X15241000Y-34944489D01*
X15241000Y-35269511D01*
X15304408Y-35588287D01*
X15428789Y-35888568D01*
X15591445Y-36132000D01*
X13652000Y-36132000D01*
X13652000Y-24056224D01*
X17518000Y-24056224D01*
X17518000Y-24607776D01*
X17625602Y-25148730D01*
X17836672Y-25658297D01*
X18143098Y-26116896D01*
X18533104Y-26506902D01*
X18991703Y-26813328D01*
X19501270Y-27024398D01*
X20042224Y-27132000D01*
X20593776Y-27132000D01*
X21134730Y-27024398D01*
X21644297Y-26813328D01*
X22102896Y-26506902D01*
X22492902Y-26116896D01*
X22799328Y-25658297D01*
X23010398Y-25148730D01*
X23118000Y-24607776D01*
X23118000Y-24056224D01*
X23010398Y-23515270D01*
X22799328Y-23005703D01*
X22492902Y-22547104D01*
X22102896Y-22157098D01*
X21644297Y-21850672D01*
X21134730Y-21639602D01*
X20593776Y-21532000D01*
X20042224Y-21532000D01*
X19501270Y-21639602D01*
X18991703Y-21850672D01*
X18533104Y-22157098D01*
X18143098Y-22547104D01*
X17836672Y-23005703D01*
X17625602Y-23515270D01*
X17518000Y-24056224D01*
X13652000Y-24056224D01*
X13652000Y-14859000D01*
X13836017Y-14859000D01*
X13867875Y-15182456D01*
X13962223Y-15493483D01*
X14115438Y-15780126D01*
X14321629Y-16031371D01*
X14572874Y-16237562D01*
X14859517Y-16390777D01*
X15170544Y-16485125D01*
X15412948Y-16509000D01*
X15575052Y-16509000D01*
X15817456Y-16485125D01*
X16128483Y-16390777D01*
X16415126Y-16237562D01*
X16480000Y-16184321D01*
X16480001Y-18122529D01*
X16473710Y-18186400D01*
X16486816Y-18319460D01*
X16498811Y-18441245D01*
X16518852Y-18507313D01*
X16573145Y-18686295D01*
X16693860Y-18912135D01*
X16709428Y-18931105D01*
X16856314Y-19110087D01*
X16905921Y-19150798D01*
X17809073Y-20053951D01*
X17836860Y-20105936D01*
X17999314Y-20303887D01*
X18013262Y-20315334D01*
X18024713Y-20329287D01*
X18222664Y-20491740D01*
X18448504Y-20612455D01*
X18693555Y-20686790D01*
X18884536Y-20705600D01*
X18884538Y-20705600D01*
X18948399Y-20711890D01*
X19012260Y-20705600D01*
X19484631Y-20705600D01*
X19506355Y-20712190D01*
X19697336Y-20731000D01*
X20924523Y-20731000D01*
X23419601Y-23226079D01*
X23460313Y-23275687D01*
X23658264Y-23438140D01*
X23884104Y-23558855D01*
X24129155Y-23633190D01*
X24320136Y-23652000D01*
X24320139Y-23652000D01*
X24384000Y-23658290D01*
X24447861Y-23652000D01*
X26338663Y-23652000D01*
X26515116Y-23769902D01*
X26806297Y-23890513D01*
X26871877Y-23903558D01*
X26818000Y-24174414D01*
X26818000Y-24489586D01*
X26879487Y-24798703D01*
X27000098Y-25089884D01*
X27175199Y-25351941D01*
X27398059Y-25574801D01*
X27660116Y-25749902D01*
X27951297Y-25870513D01*
X28016877Y-25883558D01*
X27963000Y-26154414D01*
X27963000Y-26469586D01*
X28024487Y-26778703D01*
X28145098Y-27069884D01*
X28320199Y-27331941D01*
X28543059Y-27554801D01*
X28805116Y-27729902D01*
X29096297Y-27850513D01*
X29405414Y-27912000D01*
X29720586Y-27912000D01*
X30029703Y-27850513D01*
X30320884Y-27729902D01*
X30582941Y-27554801D01*
X30708000Y-27429742D01*
X30833059Y-27554801D01*
X31095116Y-27729902D01*
X31386297Y-27850513D01*
X31695414Y-27912000D01*
X32010586Y-27912000D01*
X32319703Y-27850513D01*
X32610884Y-27729902D01*
X32872941Y-27554801D01*
X33095801Y-27331941D01*
X33112349Y-27307174D01*
X33365615Y-27307174D01*
X33440924Y-27540327D01*
X33694048Y-27653693D01*
X33964426Y-27715498D01*
X34241666Y-27723369D01*
X34515114Y-27677001D01*
X34774263Y-27578177D01*
X34845076Y-27540327D01*
X34920385Y-27307174D01*
X34143000Y-26529789D01*
X33365615Y-27307174D01*
X33112349Y-27307174D01*
X33270902Y-27069884D01*
X33344140Y-26893071D01*
X33925211Y-26312000D01*
X33911069Y-26297858D01*
X34128858Y-26080069D01*
X34143000Y-26094211D01*
X34157142Y-26080069D01*
X34374931Y-26297858D01*
X34360789Y-26312000D01*
X34941860Y-26893071D01*
X35015098Y-27069884D01*
X35190199Y-27331941D01*
X35413059Y-27554801D01*
X35675116Y-27729902D01*
X35966297Y-27850513D01*
X36275414Y-27912000D01*
X36590586Y-27912000D01*
X36899703Y-27850513D01*
X37190884Y-27729902D01*
X37452941Y-27554801D01*
X37578000Y-27429742D01*
X37703059Y-27554801D01*
X37965116Y-27729902D01*
X38256297Y-27850513D01*
X38565414Y-27912000D01*
X38880586Y-27912000D01*
X39189703Y-27850513D01*
X39480884Y-27729902D01*
X39742941Y-27554801D01*
X39868000Y-27429742D01*
X39993059Y-27554801D01*
X40255116Y-27729902D01*
X40546297Y-27850513D01*
X40855414Y-27912000D01*
X41170586Y-27912000D01*
X41479703Y-27850513D01*
X41770884Y-27729902D01*
X42032941Y-27554801D01*
X42158000Y-27429742D01*
X42283059Y-27554801D01*
X42545116Y-27729902D01*
X42836297Y-27850513D01*
X43145414Y-27912000D01*
X43460586Y-27912000D01*
X43769703Y-27850513D01*
X44060884Y-27729902D01*
X44322941Y-27554801D01*
X44448000Y-27429742D01*
X44573059Y-27554801D01*
X44835116Y-27729902D01*
X45126297Y-27850513D01*
X45435414Y-27912000D01*
X45750586Y-27912000D01*
X46059703Y-27850513D01*
X46350884Y-27729902D01*
X46612941Y-27554801D01*
X46835801Y-27331941D01*
X47010902Y-27069884D01*
X47131513Y-26778703D01*
X47193000Y-26469586D01*
X47193000Y-26154414D01*
X47139123Y-25883558D01*
X47204703Y-25870513D01*
X47495884Y-25749902D01*
X47757941Y-25574801D01*
X47980801Y-25351941D01*
X48155902Y-25089884D01*
X48276513Y-24798703D01*
X48338000Y-24489586D01*
X48338000Y-24174414D01*
X48314491Y-24056224D01*
X50818000Y-24056224D01*
X50818000Y-24607776D01*
X50925602Y-25148730D01*
X51136672Y-25658297D01*
X51443098Y-26116896D01*
X51833104Y-26506902D01*
X52291703Y-26813328D01*
X52801270Y-27024398D01*
X53342224Y-27132000D01*
X53893776Y-27132000D01*
X54434730Y-27024398D01*
X54944297Y-26813328D01*
X55402896Y-26506902D01*
X55792902Y-26116896D01*
X56099328Y-25658297D01*
X56310398Y-25148730D01*
X56418000Y-24607776D01*
X56418000Y-24056224D01*
X56310398Y-23515270D01*
X56099328Y-23005703D01*
X55792902Y-22547104D01*
X55402896Y-22157098D01*
X54944297Y-21850672D01*
X54434730Y-21639602D01*
X53893776Y-21532000D01*
X53342224Y-21532000D01*
X52801270Y-21639602D01*
X52291703Y-21850672D01*
X51833104Y-22157098D01*
X51443098Y-22547104D01*
X51136672Y-23005703D01*
X50925602Y-23515270D01*
X50818000Y-24056224D01*
X48314491Y-24056224D01*
X48276513Y-23865297D01*
X48155902Y-23574116D01*
X47980801Y-23312059D01*
X47757941Y-23089199D01*
X47495884Y-22914098D01*
X47204703Y-22793487D01*
X47196870Y-22791929D01*
X47196870Y-21552000D01*
X47181424Y-21395173D01*
X47135679Y-21244372D01*
X47061393Y-21105394D01*
X46961422Y-20983578D01*
X46839606Y-20883607D01*
X46700628Y-20809321D01*
X46549827Y-20763576D01*
X46393000Y-20748130D01*
X44793000Y-20748130D01*
X44636173Y-20763576D01*
X44485372Y-20809321D01*
X44346394Y-20883607D01*
X44224578Y-20983578D01*
X44192831Y-21022262D01*
X44060884Y-20934098D01*
X43769703Y-20813487D01*
X43460586Y-20752000D01*
X43145414Y-20752000D01*
X42836297Y-20813487D01*
X42545116Y-20934098D01*
X42283059Y-21109199D01*
X42158000Y-21234258D01*
X42032941Y-21109199D01*
X41770884Y-20934098D01*
X41479703Y-20813487D01*
X41170586Y-20752000D01*
X40855414Y-20752000D01*
X40546297Y-20813487D01*
X40255116Y-20934098D01*
X39993059Y-21109199D01*
X39868000Y-21234258D01*
X39742941Y-21109199D01*
X39480884Y-20934098D01*
X39189703Y-20813487D01*
X38880586Y-20752000D01*
X38565414Y-20752000D01*
X38256297Y-20813487D01*
X37965116Y-20934098D01*
X37703059Y-21109199D01*
X37578000Y-21234258D01*
X37452941Y-21109199D01*
X37190884Y-20934098D01*
X36899703Y-20813487D01*
X36590586Y-20752000D01*
X36275414Y-20752000D01*
X35966297Y-20813487D01*
X35675116Y-20934098D01*
X35413059Y-21109199D01*
X35288000Y-21234258D01*
X35162941Y-21109199D01*
X34900884Y-20934098D01*
X34609703Y-20813487D01*
X34300586Y-20752000D01*
X33985414Y-20752000D01*
X33676297Y-20813487D01*
X33385116Y-20934098D01*
X33123059Y-21109199D01*
X32998000Y-21234258D01*
X32872941Y-21109199D01*
X32610884Y-20934098D01*
X32319703Y-20813487D01*
X32010586Y-20752000D01*
X31695414Y-20752000D01*
X31386297Y-20813487D01*
X31095116Y-20934098D01*
X30833059Y-21109199D01*
X30708000Y-21234258D01*
X30582941Y-21109199D01*
X30320884Y-20934098D01*
X30029703Y-20813487D01*
X29720586Y-20752000D01*
X29405414Y-20752000D01*
X29096297Y-20813487D01*
X28805116Y-20934098D01*
X28543059Y-21109199D01*
X28418000Y-21234258D01*
X28292941Y-21109199D01*
X28030884Y-20934098D01*
X27739703Y-20813487D01*
X27430586Y-20752000D01*
X27115414Y-20752000D01*
X26806297Y-20813487D01*
X26515116Y-20934098D01*
X26338663Y-21052000D01*
X24922478Y-21052000D01*
X22427403Y-18556926D01*
X22386687Y-18507313D01*
X22188736Y-18344860D01*
X21962896Y-18224145D01*
X21717845Y-18149810D01*
X21526864Y-18131000D01*
X21526861Y-18131000D01*
X21463000Y-18124710D01*
X21399139Y-18131000D01*
X20063169Y-18131000D01*
X20041445Y-18124410D01*
X19850464Y-18105600D01*
X19537678Y-18105600D01*
X19080000Y-17647923D01*
X19080000Y-16135081D01*
X19206371Y-16031371D01*
X19304000Y-15912409D01*
X19401629Y-16031371D01*
X19652874Y-16237562D01*
X19939517Y-16390777D01*
X20250544Y-16485125D01*
X20492948Y-16509000D01*
X20655052Y-16509000D01*
X20897456Y-16485125D01*
X21208483Y-16390777D01*
X21495126Y-16237562D01*
X21746371Y-16031371D01*
X21952562Y-15780126D01*
X21965623Y-15755691D01*
X22153878Y-15956246D01*
X22386389Y-16122473D01*
X22646861Y-16240146D01*
X22735090Y-16266903D01*
X22960000Y-16155889D01*
X22960000Y-15013000D01*
X22940000Y-15013000D01*
X22940000Y-14705000D01*
X22960000Y-14705000D01*
X22960000Y-13562111D01*
X23268000Y-13562111D01*
X23268000Y-14705000D01*
X23288000Y-14705000D01*
X23288000Y-15013000D01*
X23268000Y-15013000D01*
X23268000Y-16155889D01*
X23492910Y-16266903D01*
X23581139Y-16240146D01*
X23841611Y-16122473D01*
X24074122Y-15956246D01*
X24262377Y-15755691D01*
X24275438Y-15780126D01*
X24481629Y-16031371D01*
X24732874Y-16237562D01*
X25019517Y-16390777D01*
X25330544Y-16485125D01*
X25572948Y-16509000D01*
X25735052Y-16509000D01*
X25977456Y-16485125D01*
X26288483Y-16390777D01*
X26575126Y-16237562D01*
X26826371Y-16031371D01*
X26924000Y-15912409D01*
X27021629Y-16031371D01*
X27272874Y-16237562D01*
X27559517Y-16390777D01*
X27870544Y-16485125D01*
X28112948Y-16509000D01*
X28275052Y-16509000D01*
X28517456Y-16485125D01*
X28828483Y-16390777D01*
X29115126Y-16237562D01*
X29366371Y-16031371D01*
X29464000Y-15912409D01*
X29561629Y-16031371D01*
X29812874Y-16237562D01*
X30099517Y-16390777D01*
X30410544Y-16485125D01*
X30652948Y-16509000D01*
X30815052Y-16509000D01*
X31057456Y-16485125D01*
X31368483Y-16390777D01*
X31655126Y-16237562D01*
X31906371Y-16031371D01*
X32004000Y-15912409D01*
X32101629Y-16031371D01*
X32352874Y-16237562D01*
X32639517Y-16390777D01*
X32950544Y-16485125D01*
X33192948Y-16509000D01*
X33355052Y-16509000D01*
X33597456Y-16485125D01*
X33908483Y-16390777D01*
X34195126Y-16237562D01*
X34446371Y-16031371D01*
X34544000Y-15912409D01*
X34641629Y-16031371D01*
X34892874Y-16237562D01*
X35179517Y-16390777D01*
X35490544Y-16485125D01*
X35732948Y-16509000D01*
X35895052Y-16509000D01*
X36137456Y-16485125D01*
X36448483Y-16390777D01*
X36735126Y-16237562D01*
X36986371Y-16031371D01*
X37084000Y-15912409D01*
X37181629Y-16031371D01*
X37432874Y-16237562D01*
X37719517Y-16390777D01*
X38030544Y-16485125D01*
X38272948Y-16509000D01*
X38435052Y-16509000D01*
X38677456Y-16485125D01*
X38988483Y-16390777D01*
X39275126Y-16237562D01*
X39526371Y-16031371D01*
X39624000Y-15912409D01*
X39721629Y-16031371D01*
X39972874Y-16237562D01*
X40259517Y-16390777D01*
X40570544Y-16485125D01*
X40812948Y-16509000D01*
X40975052Y-16509000D01*
X41217456Y-16485125D01*
X41528483Y-16390777D01*
X41815126Y-16237562D01*
X41915419Y-16155254D01*
X41915607Y-16155606D01*
X42015578Y-16277422D01*
X42137394Y-16377393D01*
X42276372Y-16451679D01*
X42427173Y-16497424D01*
X42584000Y-16512870D01*
X44284000Y-16512870D01*
X44440827Y-16497424D01*
X44591628Y-16451679D01*
X44730606Y-16377393D01*
X44852422Y-16277422D01*
X44952393Y-16155606D01*
X45026679Y-16016628D01*
X45072424Y-15865827D01*
X45087870Y-15709000D01*
X45087870Y-14009000D01*
X45072424Y-13852173D01*
X45026679Y-13701372D01*
X44952393Y-13562394D01*
X44852422Y-13440578D01*
X44730606Y-13340607D01*
X44591628Y-13266321D01*
X44440827Y-13220576D01*
X44284000Y-13205130D01*
X42584000Y-13205130D01*
X42427173Y-13220576D01*
X42276372Y-13266321D01*
X42137394Y-13340607D01*
X42015578Y-13440578D01*
X41915607Y-13562394D01*
X41915419Y-13562746D01*
X41815126Y-13480438D01*
X41528483Y-13327223D01*
X41217456Y-13232875D01*
X40975052Y-13209000D01*
X40812948Y-13209000D01*
X40570544Y-13232875D01*
X40259517Y-13327223D01*
X39972874Y-13480438D01*
X39721629Y-13686629D01*
X39624000Y-13805591D01*
X39526371Y-13686629D01*
X39275126Y-13480438D01*
X38988483Y-13327223D01*
X38677456Y-13232875D01*
X38435052Y-13209000D01*
X38272948Y-13209000D01*
X38030544Y-13232875D01*
X37719517Y-13327223D01*
X37432874Y-13480438D01*
X37181629Y-13686629D01*
X37084000Y-13805591D01*
X36986371Y-13686629D01*
X36735126Y-13480438D01*
X36448483Y-13327223D01*
X36137456Y-13232875D01*
X35895052Y-13209000D01*
X35732948Y-13209000D01*
X35490544Y-13232875D01*
X35179517Y-13327223D01*
X34892874Y-13480438D01*
X34641629Y-13686629D01*
X34544000Y-13805591D01*
X34446371Y-13686629D01*
X34195126Y-13480438D01*
X33908483Y-13327223D01*
X33597456Y-13232875D01*
X33355052Y-13209000D01*
X33192948Y-13209000D01*
X32950544Y-13232875D01*
X32639517Y-13327223D01*
X32352874Y-13480438D01*
X32101629Y-13686629D01*
X32004000Y-13805591D01*
X31906371Y-13686629D01*
X31655126Y-13480438D01*
X31368483Y-13327223D01*
X31057456Y-13232875D01*
X30815052Y-13209000D01*
X30652948Y-13209000D01*
X30410544Y-13232875D01*
X30099517Y-13327223D01*
X29812874Y-13480438D01*
X29561629Y-13686629D01*
X29464000Y-13805591D01*
X29366371Y-13686629D01*
X29115126Y-13480438D01*
X28828483Y-13327223D01*
X28517456Y-13232875D01*
X28275052Y-13209000D01*
X28112948Y-13209000D01*
X27870544Y-13232875D01*
X27559517Y-13327223D01*
X27272874Y-13480438D01*
X27021629Y-13686629D01*
X26924000Y-13805591D01*
X26826371Y-13686629D01*
X26575126Y-13480438D01*
X26288483Y-13327223D01*
X25977456Y-13232875D01*
X25735052Y-13209000D01*
X25572948Y-13209000D01*
X25330544Y-13232875D01*
X25019517Y-13327223D01*
X24732874Y-13480438D01*
X24481629Y-13686629D01*
X24275438Y-13937874D01*
X24262377Y-13962309D01*
X24074122Y-13761754D01*
X23841611Y-13595527D01*
X23581139Y-13477854D01*
X23492910Y-13451097D01*
X23268000Y-13562111D01*
X22960000Y-13562111D01*
X22735090Y-13451097D01*
X22646861Y-13477854D01*
X22386389Y-13595527D01*
X22153878Y-13761754D01*
X21965623Y-13962309D01*
X21952562Y-13937874D01*
X21746371Y-13686629D01*
X21495126Y-13480438D01*
X21208483Y-13327223D01*
X20897456Y-13232875D01*
X20655052Y-13209000D01*
X20492948Y-13209000D01*
X20250544Y-13232875D01*
X19939517Y-13327223D01*
X19652874Y-13480438D01*
X19401629Y-13686629D01*
X19304000Y-13805591D01*
X19206371Y-13686629D01*
X18955126Y-13480438D01*
X18668483Y-13327223D01*
X18357456Y-13232875D01*
X18115052Y-13209000D01*
X17952948Y-13209000D01*
X17710544Y-13232875D01*
X17399517Y-13327223D01*
X17112874Y-13480438D01*
X16861629Y-13686629D01*
X16764000Y-13805591D01*
X16666371Y-13686629D01*
X16415126Y-13480438D01*
X16128483Y-13327223D01*
X15817456Y-13232875D01*
X15575052Y-13209000D01*
X15412948Y-13209000D01*
X15170544Y-13232875D01*
X14859517Y-13327223D01*
X14572874Y-13480438D01*
X14321629Y-13686629D01*
X14115438Y-13937874D01*
X13962223Y-14224517D01*
X13867875Y-14535544D01*
X13836017Y-14859000D01*
X13652000Y-14859000D01*
X13652000Y-12890000D01*
X57468000Y-12890000D01*
X57468001Y-36132000D01*
X57468001Y-36132000D01*
G37*
X57468001Y-36132000D02*
X47855355Y-36132000D01*
X48018011Y-35888568D01*
X48142392Y-35588287D01*
X48205800Y-35269511D01*
X48205800Y-34944489D01*
X48142392Y-34625713D01*
X48018011Y-34325432D01*
X47837439Y-34055186D01*
X47607614Y-33825361D01*
X47337368Y-33644789D01*
X47037087Y-33520408D01*
X46718311Y-33457000D01*
X46393289Y-33457000D01*
X46074513Y-33520408D01*
X45774232Y-33644789D01*
X45503986Y-33825361D01*
X45274161Y-34055186D01*
X45093589Y-34325432D01*
X44969208Y-34625713D01*
X44905800Y-34944489D01*
X44905800Y-35269511D01*
X44969208Y-35588287D01*
X45093589Y-35888568D01*
X45256245Y-36132000D01*
X41355355Y-36132000D01*
X41518011Y-35888568D01*
X41642392Y-35588287D01*
X41705800Y-35269511D01*
X41705800Y-34944489D01*
X41642392Y-34625713D01*
X41518011Y-34325432D01*
X41337439Y-34055186D01*
X41107614Y-33825361D01*
X40981177Y-33740879D01*
X41064101Y-33657955D01*
X41195426Y-33461413D01*
X41285884Y-33243027D01*
X41332000Y-33011190D01*
X41332000Y-32774810D01*
X41312743Y-32678000D01*
X48892130Y-32678000D01*
X48892130Y-34378000D01*
X48907576Y-34534827D01*
X48953321Y-34685628D01*
X49027607Y-34824606D01*
X49127578Y-34946422D01*
X49249394Y-35046393D01*
X49388372Y-35120679D01*
X49539173Y-35166424D01*
X49696000Y-35181870D01*
X51396000Y-35181870D01*
X51552827Y-35166424D01*
X51703628Y-35120679D01*
X51842606Y-35046393D01*
X51964422Y-34946422D01*
X52064393Y-34824606D01*
X52138679Y-34685628D01*
X52184424Y-34534827D01*
X52199870Y-34378000D01*
X52199870Y-32678000D01*
X53972130Y-32678000D01*
X53972130Y-34378000D01*
X53987576Y-34534827D01*
X54033321Y-34685628D01*
X54107607Y-34824606D01*
X54207578Y-34946422D01*
X54329394Y-35046393D01*
X54468372Y-35120679D01*
X54619173Y-35166424D01*
X54776000Y-35181870D01*
X56476000Y-35181870D01*
X56632827Y-35166424D01*
X56783628Y-35120679D01*
X56922606Y-35046393D01*
X57044422Y-34946422D01*
X57144393Y-34824606D01*
X57218679Y-34685628D01*
X57264424Y-34534827D01*
X57279870Y-34378000D01*
X57279870Y-32678000D01*
X57264424Y-32521173D01*
X57218679Y-32370372D01*
X57144393Y-32231394D01*
X57044422Y-32109578D01*
X56922606Y-32009607D01*
X56783628Y-31935321D01*
X56632827Y-31889576D01*
X56476000Y-31874130D01*
X54776000Y-31874130D01*
X54619173Y-31889576D01*
X54468372Y-31935321D01*
X54329394Y-32009607D01*
X54207578Y-32109578D01*
X54107607Y-32231394D01*
X54033321Y-32370372D01*
X53987576Y-32521173D01*
X53972130Y-32678000D01*
X52199870Y-32678000D01*
X52184424Y-32521173D01*
X52138679Y-32370372D01*
X52064393Y-32231394D01*
X51964422Y-32109578D01*
X51842606Y-32009607D01*
X51703628Y-31935321D01*
X51552827Y-31889576D01*
X51396000Y-31874130D01*
X49696000Y-31874130D01*
X49539173Y-31889576D01*
X49388372Y-31935321D01*
X49249394Y-32009607D01*
X49127578Y-32109578D01*
X49027607Y-32231394D01*
X48953321Y-32370372D01*
X48907576Y-32521173D01*
X48892130Y-32678000D01*
X41312743Y-32678000D01*
X41285884Y-32542973D01*
X41195426Y-32324587D01*
X41064101Y-32128045D01*
X40938016Y-32001960D01*
X41107614Y-31888639D01*
X41337439Y-31658814D01*
X41518011Y-31388568D01*
X41642392Y-31088287D01*
X41705800Y-30769511D01*
X41705800Y-30444489D01*
X44905800Y-30444489D01*
X44905800Y-30769511D01*
X44969208Y-31088287D01*
X45093589Y-31388568D01*
X45274161Y-31658814D01*
X45503986Y-31888639D01*
X45774232Y-32069211D01*
X46074513Y-32193592D01*
X46393289Y-32257000D01*
X46718311Y-32257000D01*
X47037087Y-32193592D01*
X47337368Y-32069211D01*
X47607614Y-31888639D01*
X47837439Y-31658814D01*
X48018011Y-31388568D01*
X48142392Y-31088287D01*
X48205800Y-30769511D01*
X48205800Y-30444489D01*
X48142392Y-30125713D01*
X48018011Y-29825432D01*
X47837439Y-29555186D01*
X47827907Y-29545654D01*
X47889884Y-29396027D01*
X47936000Y-29164190D01*
X47936000Y-28927810D01*
X47889884Y-28695973D01*
X47799426Y-28477587D01*
X47668101Y-28281045D01*
X47500955Y-28113899D01*
X47304413Y-27982574D01*
X47086027Y-27892116D01*
X46854190Y-27846000D01*
X46617810Y-27846000D01*
X46385973Y-27892116D01*
X46167587Y-27982574D01*
X45971045Y-28113899D01*
X45803899Y-28281045D01*
X45672574Y-28477587D01*
X45582116Y-28695973D01*
X45536000Y-28927810D01*
X45536000Y-29164190D01*
X45560542Y-29287571D01*
X45503986Y-29325361D01*
X45274161Y-29555186D01*
X45093589Y-29825432D01*
X44969208Y-30125713D01*
X44905800Y-30444489D01*
X41705800Y-30444489D01*
X41642392Y-30125713D01*
X41518011Y-29825432D01*
X41337439Y-29555186D01*
X41107614Y-29325361D01*
X40837368Y-29144789D01*
X40537087Y-29020408D01*
X40218311Y-28957000D01*
X39893289Y-28957000D01*
X39574513Y-29020408D01*
X39274232Y-29144789D01*
X39003986Y-29325361D01*
X38774161Y-29555186D01*
X38593589Y-29825432D01*
X38469208Y-30125713D01*
X38405800Y-30444489D01*
X38405800Y-30769511D01*
X38469208Y-31088287D01*
X38593589Y-31388568D01*
X38774161Y-31658814D01*
X39003986Y-31888639D01*
X39264941Y-32063003D01*
X39199899Y-32128045D01*
X39068574Y-32324587D01*
X38978116Y-32542973D01*
X38932000Y-32774810D01*
X38932000Y-33011190D01*
X38978116Y-33243027D01*
X39068574Y-33461413D01*
X39199899Y-33657955D01*
X39221780Y-33679836D01*
X39003986Y-33825361D01*
X38774161Y-34055186D01*
X38593589Y-34325432D01*
X38469208Y-34625713D01*
X38405800Y-34944489D01*
X38405800Y-35269511D01*
X38469208Y-35588287D01*
X38593589Y-35888568D01*
X38756245Y-36132000D01*
X36247555Y-36132000D01*
X36410211Y-35888568D01*
X36534592Y-35588287D01*
X36598000Y-35269511D01*
X36598000Y-34944489D01*
X36534592Y-34625713D01*
X36410211Y-34325432D01*
X36229639Y-34055186D01*
X35999814Y-33825361D01*
X35729568Y-33644789D01*
X35429287Y-33520408D01*
X35110511Y-33457000D01*
X34785489Y-33457000D01*
X34466713Y-33520408D01*
X34166432Y-33644789D01*
X33896186Y-33825361D01*
X33666361Y-34055186D01*
X33485789Y-34325432D01*
X33361408Y-34625713D01*
X33298000Y-34944489D01*
X33298000Y-35269511D01*
X33361408Y-35588287D01*
X33485789Y-35888568D01*
X33648445Y-36132000D01*
X29747555Y-36132000D01*
X29910211Y-35888568D01*
X30034592Y-35588287D01*
X30098000Y-35269511D01*
X30098000Y-34944489D01*
X30034592Y-34625713D01*
X29977249Y-34487276D01*
X30032415Y-34464426D01*
X30228957Y-34333101D01*
X30396103Y-34165955D01*
X30527428Y-33969413D01*
X30617886Y-33751027D01*
X30664002Y-33519190D01*
X30664002Y-33282810D01*
X30617886Y-33050973D01*
X30527428Y-32832587D01*
X30396103Y-32636045D01*
X30228957Y-32468899D01*
X30032415Y-32337574D01*
X29814029Y-32247116D01*
X29582192Y-32201000D01*
X29345812Y-32201000D01*
X29113975Y-32247116D01*
X28895589Y-32337574D01*
X28699047Y-32468899D01*
X28531901Y-32636045D01*
X28400576Y-32832587D01*
X28310118Y-33050973D01*
X28264002Y-33282810D01*
X28264002Y-33461274D01*
X27966713Y-33520408D01*
X27666432Y-33644789D01*
X27396186Y-33825361D01*
X27166361Y-34055186D01*
X26985789Y-34325432D01*
X26861408Y-34625713D01*
X26798000Y-34944489D01*
X26798000Y-35269511D01*
X26861408Y-35588287D01*
X26985789Y-35888568D01*
X27148445Y-36132000D01*
X26249171Y-36132000D01*
X26336426Y-36001413D01*
X26426884Y-35783027D01*
X26473000Y-35551190D01*
X26473000Y-35314810D01*
X26426884Y-35082973D01*
X26336426Y-34864587D01*
X26205101Y-34668045D01*
X26037955Y-34500899D01*
X25841413Y-34369574D01*
X25623027Y-34279116D01*
X25391190Y-34233000D01*
X25154810Y-34233000D01*
X24922973Y-34279116D01*
X24844095Y-34311788D01*
X24672639Y-34055186D01*
X24442814Y-33825361D01*
X24172568Y-33644789D01*
X23872287Y-33520408D01*
X23553511Y-33457000D01*
X23228489Y-33457000D01*
X22909713Y-33520408D01*
X22609432Y-33644789D01*
X22339186Y-33825361D01*
X22109361Y-34055186D01*
X21928789Y-34325432D01*
X21804408Y-34625713D01*
X21741000Y-34944489D01*
X21741000Y-35269511D01*
X21804408Y-35588287D01*
X21928789Y-35888568D01*
X22091445Y-36132000D01*
X18190555Y-36132000D01*
X18353211Y-35888568D01*
X18477592Y-35588287D01*
X18541000Y-35269511D01*
X18541000Y-34944489D01*
X18477592Y-34625713D01*
X18353211Y-34325432D01*
X18172639Y-34055186D01*
X17942814Y-33825361D01*
X17672568Y-33644789D01*
X17657815Y-33638678D01*
X17663884Y-33624027D01*
X17710000Y-33392190D01*
X17710000Y-33155810D01*
X17663884Y-32923973D01*
X17573426Y-32705587D01*
X17442101Y-32509045D01*
X17274955Y-32341899D01*
X17126243Y-32242533D01*
X17372287Y-32193592D01*
X17672568Y-32069211D01*
X17942814Y-31888639D01*
X18172639Y-31658814D01*
X18353211Y-31388568D01*
X18477592Y-31088287D01*
X18541000Y-30769511D01*
X18541000Y-30444489D01*
X21741000Y-30444489D01*
X21741000Y-30769511D01*
X21804408Y-31088287D01*
X21928789Y-31388568D01*
X22109361Y-31658814D01*
X22339186Y-31888639D01*
X22609432Y-32069211D01*
X22909713Y-32193592D01*
X23228489Y-32257000D01*
X23553511Y-32257000D01*
X23872287Y-32193592D01*
X24172568Y-32069211D01*
X24442814Y-31888639D01*
X24672639Y-31658814D01*
X24853211Y-31388568D01*
X24977592Y-31088287D01*
X25041000Y-30769511D01*
X25041000Y-30444489D01*
X26798000Y-30444489D01*
X26798000Y-30769511D01*
X26861408Y-31088287D01*
X26985789Y-31388568D01*
X27166361Y-31658814D01*
X27396186Y-31888639D01*
X27666432Y-32069211D01*
X27966713Y-32193592D01*
X28285489Y-32257000D01*
X28610511Y-32257000D01*
X28929287Y-32193592D01*
X29229568Y-32069211D01*
X29499814Y-31888639D01*
X29729639Y-31658814D01*
X29910211Y-31388568D01*
X30034592Y-31088287D01*
X30098000Y-30769511D01*
X30098000Y-30444489D01*
X33298000Y-30444489D01*
X33298000Y-30769511D01*
X33361408Y-31088287D01*
X33485789Y-31388568D01*
X33666361Y-31658814D01*
X33896186Y-31888639D01*
X34166432Y-32069211D01*
X34466713Y-32193592D01*
X34785489Y-32257000D01*
X35110511Y-32257000D01*
X35429287Y-32193592D01*
X35729568Y-32069211D01*
X35999814Y-31888639D01*
X36229639Y-31658814D01*
X36410211Y-31388568D01*
X36534592Y-31088287D01*
X36598000Y-30769511D01*
X36598000Y-30444489D01*
X36534592Y-30125713D01*
X36410211Y-29825432D01*
X36229639Y-29555186D01*
X35999814Y-29325361D01*
X35729568Y-29144789D01*
X35429287Y-29020408D01*
X35110511Y-28957000D01*
X34785489Y-28957000D01*
X34466713Y-29020408D01*
X34166432Y-29144789D01*
X33896186Y-29325361D01*
X33666361Y-29555186D01*
X33485789Y-29825432D01*
X33361408Y-30125713D01*
X33298000Y-30444489D01*
X30098000Y-30444489D01*
X30034592Y-30125713D01*
X29910211Y-29825432D01*
X29729639Y-29555186D01*
X29499814Y-29325361D01*
X29229568Y-29144789D01*
X28929287Y-29020408D01*
X28610511Y-28957000D01*
X28285489Y-28957000D01*
X27966713Y-29020408D01*
X27666432Y-29144789D01*
X27396186Y-29325361D01*
X27166361Y-29555186D01*
X26985789Y-29825432D01*
X26861408Y-30125713D01*
X26798000Y-30444489D01*
X25041000Y-30444489D01*
X24977592Y-30125713D01*
X24853211Y-29825432D01*
X24672639Y-29555186D01*
X24442814Y-29325361D01*
X24172568Y-29144789D01*
X23872287Y-29020408D01*
X23553511Y-28957000D01*
X23228489Y-28957000D01*
X22909713Y-29020408D01*
X22609432Y-29144789D01*
X22339186Y-29325361D01*
X22109361Y-29555186D01*
X21928789Y-29825432D01*
X21804408Y-30125713D01*
X21741000Y-30444489D01*
X18541000Y-30444489D01*
X18477592Y-30125713D01*
X18353211Y-29825432D01*
X18172639Y-29555186D01*
X17942814Y-29325361D01*
X17672568Y-29144789D01*
X17372287Y-29020408D01*
X17053511Y-28957000D01*
X16728489Y-28957000D01*
X16409713Y-29020408D01*
X16109432Y-29144789D01*
X15839186Y-29325361D01*
X15609361Y-29555186D01*
X15428789Y-29825432D01*
X15304408Y-30125713D01*
X15241000Y-30444489D01*
X15241000Y-30769511D01*
X15304408Y-31088287D01*
X15428789Y-31388568D01*
X15609361Y-31658814D01*
X15839186Y-31888639D01*
X16109432Y-32069211D01*
X16208853Y-32110393D01*
X16159973Y-32120116D01*
X15941587Y-32210574D01*
X15745045Y-32341899D01*
X15577899Y-32509045D01*
X15446574Y-32705587D01*
X15356116Y-32923973D01*
X15310000Y-33155810D01*
X15310000Y-33392190D01*
X15356116Y-33624027D01*
X15446574Y-33842413D01*
X15577899Y-34038955D01*
X15603260Y-34064316D01*
X15428789Y-34325432D01*
X15304408Y-34625713D01*
X15241000Y-34944489D01*
X15241000Y-35269511D01*
X15304408Y-35588287D01*
X15428789Y-35888568D01*
X15591445Y-36132000D01*
X13652000Y-36132000D01*
X13652000Y-24056224D01*
X17518000Y-24056224D01*
X17518000Y-24607776D01*
X17625602Y-25148730D01*
X17836672Y-25658297D01*
X18143098Y-26116896D01*
X18533104Y-26506902D01*
X18991703Y-26813328D01*
X19501270Y-27024398D01*
X20042224Y-27132000D01*
X20593776Y-27132000D01*
X21134730Y-27024398D01*
X21644297Y-26813328D01*
X22102896Y-26506902D01*
X22492902Y-26116896D01*
X22799328Y-25658297D01*
X23010398Y-25148730D01*
X23118000Y-24607776D01*
X23118000Y-24056224D01*
X23010398Y-23515270D01*
X22799328Y-23005703D01*
X22492902Y-22547104D01*
X22102896Y-22157098D01*
X21644297Y-21850672D01*
X21134730Y-21639602D01*
X20593776Y-21532000D01*
X20042224Y-21532000D01*
X19501270Y-21639602D01*
X18991703Y-21850672D01*
X18533104Y-22157098D01*
X18143098Y-22547104D01*
X17836672Y-23005703D01*
X17625602Y-23515270D01*
X17518000Y-24056224D01*
X13652000Y-24056224D01*
X13652000Y-14859000D01*
X13836017Y-14859000D01*
X13867875Y-15182456D01*
X13962223Y-15493483D01*
X14115438Y-15780126D01*
X14321629Y-16031371D01*
X14572874Y-16237562D01*
X14859517Y-16390777D01*
X15170544Y-16485125D01*
X15412948Y-16509000D01*
X15575052Y-16509000D01*
X15817456Y-16485125D01*
X16128483Y-16390777D01*
X16415126Y-16237562D01*
X16480000Y-16184321D01*
X16480001Y-18122529D01*
X16473710Y-18186400D01*
X16486816Y-18319460D01*
X16498811Y-18441245D01*
X16518852Y-18507313D01*
X16573145Y-18686295D01*
X16693860Y-18912135D01*
X16709428Y-18931105D01*
X16856314Y-19110087D01*
X16905921Y-19150798D01*
X17809073Y-20053951D01*
X17836860Y-20105936D01*
X17999314Y-20303887D01*
X18013262Y-20315334D01*
X18024713Y-20329287D01*
X18222664Y-20491740D01*
X18448504Y-20612455D01*
X18693555Y-20686790D01*
X18884536Y-20705600D01*
X18884538Y-20705600D01*
X18948399Y-20711890D01*
X19012260Y-20705600D01*
X19484631Y-20705600D01*
X19506355Y-20712190D01*
X19697336Y-20731000D01*
X20924523Y-20731000D01*
X23419601Y-23226079D01*
X23460313Y-23275687D01*
X23658264Y-23438140D01*
X23884104Y-23558855D01*
X24129155Y-23633190D01*
X24320136Y-23652000D01*
X24320139Y-23652000D01*
X24384000Y-23658290D01*
X24447861Y-23652000D01*
X26338663Y-23652000D01*
X26515116Y-23769902D01*
X26806297Y-23890513D01*
X26871877Y-23903558D01*
X26818000Y-24174414D01*
X26818000Y-24489586D01*
X26879487Y-24798703D01*
X27000098Y-25089884D01*
X27175199Y-25351941D01*
X27398059Y-25574801D01*
X27660116Y-25749902D01*
X27951297Y-25870513D01*
X28016877Y-25883558D01*
X27963000Y-26154414D01*
X27963000Y-26469586D01*
X28024487Y-26778703D01*
X28145098Y-27069884D01*
X28320199Y-27331941D01*
X28543059Y-27554801D01*
X28805116Y-27729902D01*
X29096297Y-27850513D01*
X29405414Y-27912000D01*
X29720586Y-27912000D01*
X30029703Y-27850513D01*
X30320884Y-27729902D01*
X30582941Y-27554801D01*
X30708000Y-27429742D01*
X30833059Y-27554801D01*
X31095116Y-27729902D01*
X31386297Y-27850513D01*
X31695414Y-27912000D01*
X32010586Y-27912000D01*
X32319703Y-27850513D01*
X32610884Y-27729902D01*
X32872941Y-27554801D01*
X33095801Y-27331941D01*
X33112349Y-27307174D01*
X33365615Y-27307174D01*
X33440924Y-27540327D01*
X33694048Y-27653693D01*
X33964426Y-27715498D01*
X34241666Y-27723369D01*
X34515114Y-27677001D01*
X34774263Y-27578177D01*
X34845076Y-27540327D01*
X34920385Y-27307174D01*
X34143000Y-26529789D01*
X33365615Y-27307174D01*
X33112349Y-27307174D01*
X33270902Y-27069884D01*
X33344140Y-26893071D01*
X33925211Y-26312000D01*
X33911069Y-26297858D01*
X34128858Y-26080069D01*
X34143000Y-26094211D01*
X34157142Y-26080069D01*
X34374931Y-26297858D01*
X34360789Y-26312000D01*
X34941860Y-26893071D01*
X35015098Y-27069884D01*
X35190199Y-27331941D01*
X35413059Y-27554801D01*
X35675116Y-27729902D01*
X35966297Y-27850513D01*
X36275414Y-27912000D01*
X36590586Y-27912000D01*
X36899703Y-27850513D01*
X37190884Y-27729902D01*
X37452941Y-27554801D01*
X37578000Y-27429742D01*
X37703059Y-27554801D01*
X37965116Y-27729902D01*
X38256297Y-27850513D01*
X38565414Y-27912000D01*
X38880586Y-27912000D01*
X39189703Y-27850513D01*
X39480884Y-27729902D01*
X39742941Y-27554801D01*
X39868000Y-27429742D01*
X39993059Y-27554801D01*
X40255116Y-27729902D01*
X40546297Y-27850513D01*
X40855414Y-27912000D01*
X41170586Y-27912000D01*
X41479703Y-27850513D01*
X41770884Y-27729902D01*
X42032941Y-27554801D01*
X42158000Y-27429742D01*
X42283059Y-27554801D01*
X42545116Y-27729902D01*
X42836297Y-27850513D01*
X43145414Y-27912000D01*
X43460586Y-27912000D01*
X43769703Y-27850513D01*
X44060884Y-27729902D01*
X44322941Y-27554801D01*
X44448000Y-27429742D01*
X44573059Y-27554801D01*
X44835116Y-27729902D01*
X45126297Y-27850513D01*
X45435414Y-27912000D01*
X45750586Y-27912000D01*
X46059703Y-27850513D01*
X46350884Y-27729902D01*
X46612941Y-27554801D01*
X46835801Y-27331941D01*
X47010902Y-27069884D01*
X47131513Y-26778703D01*
X47193000Y-26469586D01*
X47193000Y-26154414D01*
X47139123Y-25883558D01*
X47204703Y-25870513D01*
X47495884Y-25749902D01*
X47757941Y-25574801D01*
X47980801Y-25351941D01*
X48155902Y-25089884D01*
X48276513Y-24798703D01*
X48338000Y-24489586D01*
X48338000Y-24174414D01*
X48314491Y-24056224D01*
X50818000Y-24056224D01*
X50818000Y-24607776D01*
X50925602Y-25148730D01*
X51136672Y-25658297D01*
X51443098Y-26116896D01*
X51833104Y-26506902D01*
X52291703Y-26813328D01*
X52801270Y-27024398D01*
X53342224Y-27132000D01*
X53893776Y-27132000D01*
X54434730Y-27024398D01*
X54944297Y-26813328D01*
X55402896Y-26506902D01*
X55792902Y-26116896D01*
X56099328Y-25658297D01*
X56310398Y-25148730D01*
X56418000Y-24607776D01*
X56418000Y-24056224D01*
X56310398Y-23515270D01*
X56099328Y-23005703D01*
X55792902Y-22547104D01*
X55402896Y-22157098D01*
X54944297Y-21850672D01*
X54434730Y-21639602D01*
X53893776Y-21532000D01*
X53342224Y-21532000D01*
X52801270Y-21639602D01*
X52291703Y-21850672D01*
X51833104Y-22157098D01*
X51443098Y-22547104D01*
X51136672Y-23005703D01*
X50925602Y-23515270D01*
X50818000Y-24056224D01*
X48314491Y-24056224D01*
X48276513Y-23865297D01*
X48155902Y-23574116D01*
X47980801Y-23312059D01*
X47757941Y-23089199D01*
X47495884Y-22914098D01*
X47204703Y-22793487D01*
X47196870Y-22791929D01*
X47196870Y-21552000D01*
X47181424Y-21395173D01*
X47135679Y-21244372D01*
X47061393Y-21105394D01*
X46961422Y-20983578D01*
X46839606Y-20883607D01*
X46700628Y-20809321D01*
X46549827Y-20763576D01*
X46393000Y-20748130D01*
X44793000Y-20748130D01*
X44636173Y-20763576D01*
X44485372Y-20809321D01*
X44346394Y-20883607D01*
X44224578Y-20983578D01*
X44192831Y-21022262D01*
X44060884Y-20934098D01*
X43769703Y-20813487D01*
X43460586Y-20752000D01*
X43145414Y-20752000D01*
X42836297Y-20813487D01*
X42545116Y-20934098D01*
X42283059Y-21109199D01*
X42158000Y-21234258D01*
X42032941Y-21109199D01*
X41770884Y-20934098D01*
X41479703Y-20813487D01*
X41170586Y-20752000D01*
X40855414Y-20752000D01*
X40546297Y-20813487D01*
X40255116Y-20934098D01*
X39993059Y-21109199D01*
X39868000Y-21234258D01*
X39742941Y-21109199D01*
X39480884Y-20934098D01*
X39189703Y-20813487D01*
X38880586Y-20752000D01*
X38565414Y-20752000D01*
X38256297Y-20813487D01*
X37965116Y-20934098D01*
X37703059Y-21109199D01*
X37578000Y-21234258D01*
X37452941Y-21109199D01*
X37190884Y-20934098D01*
X36899703Y-20813487D01*
X36590586Y-20752000D01*
X36275414Y-20752000D01*
X35966297Y-20813487D01*
X35675116Y-20934098D01*
X35413059Y-21109199D01*
X35288000Y-21234258D01*
X35162941Y-21109199D01*
X34900884Y-20934098D01*
X34609703Y-20813487D01*
X34300586Y-20752000D01*
X33985414Y-20752000D01*
X33676297Y-20813487D01*
X33385116Y-20934098D01*
X33123059Y-21109199D01*
X32998000Y-21234258D01*
X32872941Y-21109199D01*
X32610884Y-20934098D01*
X32319703Y-20813487D01*
X32010586Y-20752000D01*
X31695414Y-20752000D01*
X31386297Y-20813487D01*
X31095116Y-20934098D01*
X30833059Y-21109199D01*
X30708000Y-21234258D01*
X30582941Y-21109199D01*
X30320884Y-20934098D01*
X30029703Y-20813487D01*
X29720586Y-20752000D01*
X29405414Y-20752000D01*
X29096297Y-20813487D01*
X28805116Y-20934098D01*
X28543059Y-21109199D01*
X28418000Y-21234258D01*
X28292941Y-21109199D01*
X28030884Y-20934098D01*
X27739703Y-20813487D01*
X27430586Y-20752000D01*
X27115414Y-20752000D01*
X26806297Y-20813487D01*
X26515116Y-20934098D01*
X26338663Y-21052000D01*
X24922478Y-21052000D01*
X22427403Y-18556926D01*
X22386687Y-18507313D01*
X22188736Y-18344860D01*
X21962896Y-18224145D01*
X21717845Y-18149810D01*
X21526864Y-18131000D01*
X21526861Y-18131000D01*
X21463000Y-18124710D01*
X21399139Y-18131000D01*
X20063169Y-18131000D01*
X20041445Y-18124410D01*
X19850464Y-18105600D01*
X19537678Y-18105600D01*
X19080000Y-17647923D01*
X19080000Y-16135081D01*
X19206371Y-16031371D01*
X19304000Y-15912409D01*
X19401629Y-16031371D01*
X19652874Y-16237562D01*
X19939517Y-16390777D01*
X20250544Y-16485125D01*
X20492948Y-16509000D01*
X20655052Y-16509000D01*
X20897456Y-16485125D01*
X21208483Y-16390777D01*
X21495126Y-16237562D01*
X21746371Y-16031371D01*
X21952562Y-15780126D01*
X21965623Y-15755691D01*
X22153878Y-15956246D01*
X22386389Y-16122473D01*
X22646861Y-16240146D01*
X22735090Y-16266903D01*
X22960000Y-16155889D01*
X22960000Y-15013000D01*
X22940000Y-15013000D01*
X22940000Y-14705000D01*
X22960000Y-14705000D01*
X22960000Y-13562111D01*
X23268000Y-13562111D01*
X23268000Y-14705000D01*
X23288000Y-14705000D01*
X23288000Y-15013000D01*
X23268000Y-15013000D01*
X23268000Y-16155889D01*
X23492910Y-16266903D01*
X23581139Y-16240146D01*
X23841611Y-16122473D01*
X24074122Y-15956246D01*
X24262377Y-15755691D01*
X24275438Y-15780126D01*
X24481629Y-16031371D01*
X24732874Y-16237562D01*
X25019517Y-16390777D01*
X25330544Y-16485125D01*
X25572948Y-16509000D01*
X25735052Y-16509000D01*
X25977456Y-16485125D01*
X26288483Y-16390777D01*
X26575126Y-16237562D01*
X26826371Y-16031371D01*
X26924000Y-15912409D01*
X27021629Y-16031371D01*
X27272874Y-16237562D01*
X27559517Y-16390777D01*
X27870544Y-16485125D01*
X28112948Y-16509000D01*
X28275052Y-16509000D01*
X28517456Y-16485125D01*
X28828483Y-16390777D01*
X29115126Y-16237562D01*
X29366371Y-16031371D01*
X29464000Y-15912409D01*
X29561629Y-16031371D01*
X29812874Y-16237562D01*
X30099517Y-16390777D01*
X30410544Y-16485125D01*
X30652948Y-16509000D01*
X30815052Y-16509000D01*
X31057456Y-16485125D01*
X31368483Y-16390777D01*
X31655126Y-16237562D01*
X31906371Y-16031371D01*
X32004000Y-15912409D01*
X32101629Y-16031371D01*
X32352874Y-16237562D01*
X32639517Y-16390777D01*
X32950544Y-16485125D01*
X33192948Y-16509000D01*
X33355052Y-16509000D01*
X33597456Y-16485125D01*
X33908483Y-16390777D01*
X34195126Y-16237562D01*
X34446371Y-16031371D01*
X34544000Y-15912409D01*
X34641629Y-16031371D01*
X34892874Y-16237562D01*
X35179517Y-16390777D01*
X35490544Y-16485125D01*
X35732948Y-16509000D01*
X35895052Y-16509000D01*
X36137456Y-16485125D01*
X36448483Y-16390777D01*
X36735126Y-16237562D01*
X36986371Y-16031371D01*
X37084000Y-15912409D01*
X37181629Y-16031371D01*
X37432874Y-16237562D01*
X37719517Y-16390777D01*
X38030544Y-16485125D01*
X38272948Y-16509000D01*
X38435052Y-16509000D01*
X38677456Y-16485125D01*
X38988483Y-16390777D01*
X39275126Y-16237562D01*
X39526371Y-16031371D01*
X39624000Y-15912409D01*
X39721629Y-16031371D01*
X39972874Y-16237562D01*
X40259517Y-16390777D01*
X40570544Y-16485125D01*
X40812948Y-16509000D01*
X40975052Y-16509000D01*
X41217456Y-16485125D01*
X41528483Y-16390777D01*
X41815126Y-16237562D01*
X41915419Y-16155254D01*
X41915607Y-16155606D01*
X42015578Y-16277422D01*
X42137394Y-16377393D01*
X42276372Y-16451679D01*
X42427173Y-16497424D01*
X42584000Y-16512870D01*
X44284000Y-16512870D01*
X44440827Y-16497424D01*
X44591628Y-16451679D01*
X44730606Y-16377393D01*
X44852422Y-16277422D01*
X44952393Y-16155606D01*
X45026679Y-16016628D01*
X45072424Y-15865827D01*
X45087870Y-15709000D01*
X45087870Y-14009000D01*
X45072424Y-13852173D01*
X45026679Y-13701372D01*
X44952393Y-13562394D01*
X44852422Y-13440578D01*
X44730606Y-13340607D01*
X44591628Y-13266321D01*
X44440827Y-13220576D01*
X44284000Y-13205130D01*
X42584000Y-13205130D01*
X42427173Y-13220576D01*
X42276372Y-13266321D01*
X42137394Y-13340607D01*
X42015578Y-13440578D01*
X41915607Y-13562394D01*
X41915419Y-13562746D01*
X41815126Y-13480438D01*
X41528483Y-13327223D01*
X41217456Y-13232875D01*
X40975052Y-13209000D01*
X40812948Y-13209000D01*
X40570544Y-13232875D01*
X40259517Y-13327223D01*
X39972874Y-13480438D01*
X39721629Y-13686629D01*
X39624000Y-13805591D01*
X39526371Y-13686629D01*
X39275126Y-13480438D01*
X38988483Y-13327223D01*
X38677456Y-13232875D01*
X38435052Y-13209000D01*
X38272948Y-13209000D01*
X38030544Y-13232875D01*
X37719517Y-13327223D01*
X37432874Y-13480438D01*
X37181629Y-13686629D01*
X37084000Y-13805591D01*
X36986371Y-13686629D01*
X36735126Y-13480438D01*
X36448483Y-13327223D01*
X36137456Y-13232875D01*
X35895052Y-13209000D01*
X35732948Y-13209000D01*
X35490544Y-13232875D01*
X35179517Y-13327223D01*
X34892874Y-13480438D01*
X34641629Y-13686629D01*
X34544000Y-13805591D01*
X34446371Y-13686629D01*
X34195126Y-13480438D01*
X33908483Y-13327223D01*
X33597456Y-13232875D01*
X33355052Y-13209000D01*
X33192948Y-13209000D01*
X32950544Y-13232875D01*
X32639517Y-13327223D01*
X32352874Y-13480438D01*
X32101629Y-13686629D01*
X32004000Y-13805591D01*
X31906371Y-13686629D01*
X31655126Y-13480438D01*
X31368483Y-13327223D01*
X31057456Y-13232875D01*
X30815052Y-13209000D01*
X30652948Y-13209000D01*
X30410544Y-13232875D01*
X30099517Y-13327223D01*
X29812874Y-13480438D01*
X29561629Y-13686629D01*
X29464000Y-13805591D01*
X29366371Y-13686629D01*
X29115126Y-13480438D01*
X28828483Y-13327223D01*
X28517456Y-13232875D01*
X28275052Y-13209000D01*
X28112948Y-13209000D01*
X27870544Y-13232875D01*
X27559517Y-13327223D01*
X27272874Y-13480438D01*
X27021629Y-13686629D01*
X26924000Y-13805591D01*
X26826371Y-13686629D01*
X26575126Y-13480438D01*
X26288483Y-13327223D01*
X25977456Y-13232875D01*
X25735052Y-13209000D01*
X25572948Y-13209000D01*
X25330544Y-13232875D01*
X25019517Y-13327223D01*
X24732874Y-13480438D01*
X24481629Y-13686629D01*
X24275438Y-13937874D01*
X24262377Y-13962309D01*
X24074122Y-13761754D01*
X23841611Y-13595527D01*
X23581139Y-13477854D01*
X23492910Y-13451097D01*
X23268000Y-13562111D01*
X22960000Y-13562111D01*
X22735090Y-13451097D01*
X22646861Y-13477854D01*
X22386389Y-13595527D01*
X22153878Y-13761754D01*
X21965623Y-13962309D01*
X21952562Y-13937874D01*
X21746371Y-13686629D01*
X21495126Y-13480438D01*
X21208483Y-13327223D01*
X20897456Y-13232875D01*
X20655052Y-13209000D01*
X20492948Y-13209000D01*
X20250544Y-13232875D01*
X19939517Y-13327223D01*
X19652874Y-13480438D01*
X19401629Y-13686629D01*
X19304000Y-13805591D01*
X19206371Y-13686629D01*
X18955126Y-13480438D01*
X18668483Y-13327223D01*
X18357456Y-13232875D01*
X18115052Y-13209000D01*
X17952948Y-13209000D01*
X17710544Y-13232875D01*
X17399517Y-13327223D01*
X17112874Y-13480438D01*
X16861629Y-13686629D01*
X16764000Y-13805591D01*
X16666371Y-13686629D01*
X16415126Y-13480438D01*
X16128483Y-13327223D01*
X15817456Y-13232875D01*
X15575052Y-13209000D01*
X15412948Y-13209000D01*
X15170544Y-13232875D01*
X14859517Y-13327223D01*
X14572874Y-13480438D01*
X14321629Y-13686629D01*
X14115438Y-13937874D01*
X13962223Y-14224517D01*
X13867875Y-14535544D01*
X13836017Y-14859000D01*
X13652000Y-14859000D01*
X13652000Y-12890000D01*
X57468000Y-12890000D01*
X57468001Y-36132000D01*
M02*
