G04 #@! TF.GenerationSoftware,KiCad,Pcbnew,(5.1.0-0)*
G04 #@! TF.CreationDate,2019-04-21T16:41:31+03:00*
G04 #@! TF.ProjectId,ovms-swcan-dongle,6f766d73-2d73-4776-9361-6e2d646f6e67,rev?*
G04 #@! TF.SameCoordinates,Original*
G04 #@! TF.FileFunction,Soldermask,Top*
G04 #@! TF.FilePolarity,Negative*
%FSLAX46Y46*%
G04 Gerber Fmt 4.6, Leading zero omitted, Abs format (unit mm)*
G04 Created by KiCad (PCBNEW (5.1.0-0)) date 2019-04-21 16:41:31*
%MOMM*%
%LPD*%
G04 APERTURE LIST*
%ADD10C,0.100000*%
G04 APERTURE END LIST*
D10*
G36*
X46669312Y-34210927D02*
G01*
X46818612Y-34240624D01*
X46982584Y-34308544D01*
X47130154Y-34407147D01*
X47255653Y-34532646D01*
X47354256Y-34680216D01*
X47422176Y-34844188D01*
X47456800Y-35018259D01*
X47456800Y-35195741D01*
X47422176Y-35369812D01*
X47354256Y-35533784D01*
X47255653Y-35681354D01*
X47130154Y-35806853D01*
X46982584Y-35905456D01*
X46818612Y-35973376D01*
X46669312Y-36003073D01*
X46644542Y-36008000D01*
X46467058Y-36008000D01*
X46442288Y-36003073D01*
X46292988Y-35973376D01*
X46129016Y-35905456D01*
X45981446Y-35806853D01*
X45855947Y-35681354D01*
X45757344Y-35533784D01*
X45689424Y-35369812D01*
X45654800Y-35195741D01*
X45654800Y-35018259D01*
X45689424Y-34844188D01*
X45757344Y-34680216D01*
X45855947Y-34532646D01*
X45981446Y-34407147D01*
X46129016Y-34308544D01*
X46292988Y-34240624D01*
X46442288Y-34210927D01*
X46467058Y-34206000D01*
X46644542Y-34206000D01*
X46669312Y-34210927D01*
X46669312Y-34210927D01*
G37*
G36*
X40169312Y-34210927D02*
G01*
X40318612Y-34240624D01*
X40482584Y-34308544D01*
X40630154Y-34407147D01*
X40755653Y-34532646D01*
X40854256Y-34680216D01*
X40922176Y-34844188D01*
X40956800Y-35018259D01*
X40956800Y-35195741D01*
X40922176Y-35369812D01*
X40854256Y-35533784D01*
X40755653Y-35681354D01*
X40630154Y-35806853D01*
X40482584Y-35905456D01*
X40318612Y-35973376D01*
X40169312Y-36003073D01*
X40144542Y-36008000D01*
X39967058Y-36008000D01*
X39942288Y-36003073D01*
X39792988Y-35973376D01*
X39629016Y-35905456D01*
X39481446Y-35806853D01*
X39355947Y-35681354D01*
X39257344Y-35533784D01*
X39189424Y-35369812D01*
X39154800Y-35195741D01*
X39154800Y-35018259D01*
X39189424Y-34844188D01*
X39257344Y-34680216D01*
X39355947Y-34532646D01*
X39481446Y-34407147D01*
X39629016Y-34308544D01*
X39792988Y-34240624D01*
X39942288Y-34210927D01*
X39967058Y-34206000D01*
X40144542Y-34206000D01*
X40169312Y-34210927D01*
X40169312Y-34210927D01*
G37*
G36*
X35061512Y-34210927D02*
G01*
X35210812Y-34240624D01*
X35374784Y-34308544D01*
X35522354Y-34407147D01*
X35647853Y-34532646D01*
X35746456Y-34680216D01*
X35814376Y-34844188D01*
X35849000Y-35018259D01*
X35849000Y-35195741D01*
X35814376Y-35369812D01*
X35746456Y-35533784D01*
X35647853Y-35681354D01*
X35522354Y-35806853D01*
X35374784Y-35905456D01*
X35210812Y-35973376D01*
X35061512Y-36003073D01*
X35036742Y-36008000D01*
X34859258Y-36008000D01*
X34834488Y-36003073D01*
X34685188Y-35973376D01*
X34521216Y-35905456D01*
X34373646Y-35806853D01*
X34248147Y-35681354D01*
X34149544Y-35533784D01*
X34081624Y-35369812D01*
X34047000Y-35195741D01*
X34047000Y-35018259D01*
X34081624Y-34844188D01*
X34149544Y-34680216D01*
X34248147Y-34532646D01*
X34373646Y-34407147D01*
X34521216Y-34308544D01*
X34685188Y-34240624D01*
X34834488Y-34210927D01*
X34859258Y-34206000D01*
X35036742Y-34206000D01*
X35061512Y-34210927D01*
X35061512Y-34210927D01*
G37*
G36*
X28561512Y-34210927D02*
G01*
X28710812Y-34240624D01*
X28874784Y-34308544D01*
X29022354Y-34407147D01*
X29147853Y-34532646D01*
X29246456Y-34680216D01*
X29314376Y-34844188D01*
X29349000Y-35018259D01*
X29349000Y-35195741D01*
X29314376Y-35369812D01*
X29246456Y-35533784D01*
X29147853Y-35681354D01*
X29022354Y-35806853D01*
X28874784Y-35905456D01*
X28710812Y-35973376D01*
X28561512Y-36003073D01*
X28536742Y-36008000D01*
X28359258Y-36008000D01*
X28334488Y-36003073D01*
X28185188Y-35973376D01*
X28021216Y-35905456D01*
X27873646Y-35806853D01*
X27748147Y-35681354D01*
X27649544Y-35533784D01*
X27581624Y-35369812D01*
X27547000Y-35195741D01*
X27547000Y-35018259D01*
X27581624Y-34844188D01*
X27649544Y-34680216D01*
X27748147Y-34532646D01*
X27873646Y-34407147D01*
X28021216Y-34308544D01*
X28185188Y-34240624D01*
X28334488Y-34210927D01*
X28359258Y-34206000D01*
X28536742Y-34206000D01*
X28561512Y-34210927D01*
X28561512Y-34210927D01*
G37*
G36*
X23504512Y-34210927D02*
G01*
X23653812Y-34240624D01*
X23817784Y-34308544D01*
X23965354Y-34407147D01*
X24090853Y-34532646D01*
X24189456Y-34680216D01*
X24257376Y-34844188D01*
X24292000Y-35018259D01*
X24292000Y-35195741D01*
X24257376Y-35369812D01*
X24189456Y-35533784D01*
X24090853Y-35681354D01*
X23965354Y-35806853D01*
X23817784Y-35905456D01*
X23653812Y-35973376D01*
X23504512Y-36003073D01*
X23479742Y-36008000D01*
X23302258Y-36008000D01*
X23277488Y-36003073D01*
X23128188Y-35973376D01*
X22964216Y-35905456D01*
X22816646Y-35806853D01*
X22691147Y-35681354D01*
X22592544Y-35533784D01*
X22524624Y-35369812D01*
X22490000Y-35195741D01*
X22490000Y-35018259D01*
X22524624Y-34844188D01*
X22592544Y-34680216D01*
X22691147Y-34532646D01*
X22816646Y-34407147D01*
X22964216Y-34308544D01*
X23128188Y-34240624D01*
X23277488Y-34210927D01*
X23302258Y-34206000D01*
X23479742Y-34206000D01*
X23504512Y-34210927D01*
X23504512Y-34210927D01*
G37*
G36*
X17004512Y-34210927D02*
G01*
X17153812Y-34240624D01*
X17317784Y-34308544D01*
X17465354Y-34407147D01*
X17590853Y-34532646D01*
X17689456Y-34680216D01*
X17757376Y-34844188D01*
X17792000Y-35018259D01*
X17792000Y-35195741D01*
X17757376Y-35369812D01*
X17689456Y-35533784D01*
X17590853Y-35681354D01*
X17465354Y-35806853D01*
X17317784Y-35905456D01*
X17153812Y-35973376D01*
X17004512Y-36003073D01*
X16979742Y-36008000D01*
X16802258Y-36008000D01*
X16777488Y-36003073D01*
X16628188Y-35973376D01*
X16464216Y-35905456D01*
X16316646Y-35806853D01*
X16191147Y-35681354D01*
X16092544Y-35533784D01*
X16024624Y-35369812D01*
X15990000Y-35195741D01*
X15990000Y-35018259D01*
X16024624Y-34844188D01*
X16092544Y-34680216D01*
X16191147Y-34532646D01*
X16316646Y-34407147D01*
X16464216Y-34308544D01*
X16628188Y-34240624D01*
X16777488Y-34210927D01*
X16802258Y-34206000D01*
X16979742Y-34206000D01*
X17004512Y-34210927D01*
X17004512Y-34210927D01*
G37*
G36*
X56527000Y-34429000D02*
G01*
X54725000Y-34429000D01*
X54725000Y-32627000D01*
X56527000Y-32627000D01*
X56527000Y-34429000D01*
X56527000Y-34429000D01*
G37*
G36*
X51447000Y-34429000D02*
G01*
X49645000Y-34429000D01*
X49645000Y-32627000D01*
X51447000Y-32627000D01*
X51447000Y-34429000D01*
X51447000Y-34429000D01*
G37*
G36*
X35061512Y-29710927D02*
G01*
X35210812Y-29740624D01*
X35374784Y-29808544D01*
X35522354Y-29907147D01*
X35647853Y-30032646D01*
X35746456Y-30180216D01*
X35814376Y-30344188D01*
X35849000Y-30518259D01*
X35849000Y-30695741D01*
X35814376Y-30869812D01*
X35746456Y-31033784D01*
X35647853Y-31181354D01*
X35522354Y-31306853D01*
X35374784Y-31405456D01*
X35210812Y-31473376D01*
X35061512Y-31503073D01*
X35036742Y-31508000D01*
X34859258Y-31508000D01*
X34834488Y-31503073D01*
X34685188Y-31473376D01*
X34521216Y-31405456D01*
X34373646Y-31306853D01*
X34248147Y-31181354D01*
X34149544Y-31033784D01*
X34081624Y-30869812D01*
X34047000Y-30695741D01*
X34047000Y-30518259D01*
X34081624Y-30344188D01*
X34149544Y-30180216D01*
X34248147Y-30032646D01*
X34373646Y-29907147D01*
X34521216Y-29808544D01*
X34685188Y-29740624D01*
X34834488Y-29710927D01*
X34859258Y-29706000D01*
X35036742Y-29706000D01*
X35061512Y-29710927D01*
X35061512Y-29710927D01*
G37*
G36*
X23504512Y-29710927D02*
G01*
X23653812Y-29740624D01*
X23817784Y-29808544D01*
X23965354Y-29907147D01*
X24090853Y-30032646D01*
X24189456Y-30180216D01*
X24257376Y-30344188D01*
X24292000Y-30518259D01*
X24292000Y-30695741D01*
X24257376Y-30869812D01*
X24189456Y-31033784D01*
X24090853Y-31181354D01*
X23965354Y-31306853D01*
X23817784Y-31405456D01*
X23653812Y-31473376D01*
X23504512Y-31503073D01*
X23479742Y-31508000D01*
X23302258Y-31508000D01*
X23277488Y-31503073D01*
X23128188Y-31473376D01*
X22964216Y-31405456D01*
X22816646Y-31306853D01*
X22691147Y-31181354D01*
X22592544Y-31033784D01*
X22524624Y-30869812D01*
X22490000Y-30695741D01*
X22490000Y-30518259D01*
X22524624Y-30344188D01*
X22592544Y-30180216D01*
X22691147Y-30032646D01*
X22816646Y-29907147D01*
X22964216Y-29808544D01*
X23128188Y-29740624D01*
X23277488Y-29710927D01*
X23302258Y-29706000D01*
X23479742Y-29706000D01*
X23504512Y-29710927D01*
X23504512Y-29710927D01*
G37*
G36*
X28561512Y-29710927D02*
G01*
X28710812Y-29740624D01*
X28874784Y-29808544D01*
X29022354Y-29907147D01*
X29147853Y-30032646D01*
X29246456Y-30180216D01*
X29314376Y-30344188D01*
X29349000Y-30518259D01*
X29349000Y-30695741D01*
X29314376Y-30869812D01*
X29246456Y-31033784D01*
X29147853Y-31181354D01*
X29022354Y-31306853D01*
X28874784Y-31405456D01*
X28710812Y-31473376D01*
X28561512Y-31503073D01*
X28536742Y-31508000D01*
X28359258Y-31508000D01*
X28334488Y-31503073D01*
X28185188Y-31473376D01*
X28021216Y-31405456D01*
X27873646Y-31306853D01*
X27748147Y-31181354D01*
X27649544Y-31033784D01*
X27581624Y-30869812D01*
X27547000Y-30695741D01*
X27547000Y-30518259D01*
X27581624Y-30344188D01*
X27649544Y-30180216D01*
X27748147Y-30032646D01*
X27873646Y-29907147D01*
X28021216Y-29808544D01*
X28185188Y-29740624D01*
X28334488Y-29710927D01*
X28359258Y-29706000D01*
X28536742Y-29706000D01*
X28561512Y-29710927D01*
X28561512Y-29710927D01*
G37*
G36*
X17004512Y-29710927D02*
G01*
X17153812Y-29740624D01*
X17317784Y-29808544D01*
X17465354Y-29907147D01*
X17590853Y-30032646D01*
X17689456Y-30180216D01*
X17757376Y-30344188D01*
X17792000Y-30518259D01*
X17792000Y-30695741D01*
X17757376Y-30869812D01*
X17689456Y-31033784D01*
X17590853Y-31181354D01*
X17465354Y-31306853D01*
X17317784Y-31405456D01*
X17153812Y-31473376D01*
X17004512Y-31503073D01*
X16979742Y-31508000D01*
X16802258Y-31508000D01*
X16777488Y-31503073D01*
X16628188Y-31473376D01*
X16464216Y-31405456D01*
X16316646Y-31306853D01*
X16191147Y-31181354D01*
X16092544Y-31033784D01*
X16024624Y-30869812D01*
X15990000Y-30695741D01*
X15990000Y-30518259D01*
X16024624Y-30344188D01*
X16092544Y-30180216D01*
X16191147Y-30032646D01*
X16316646Y-29907147D01*
X16464216Y-29808544D01*
X16628188Y-29740624D01*
X16777488Y-29710927D01*
X16802258Y-29706000D01*
X16979742Y-29706000D01*
X17004512Y-29710927D01*
X17004512Y-29710927D01*
G37*
G36*
X40169312Y-29710927D02*
G01*
X40318612Y-29740624D01*
X40482584Y-29808544D01*
X40630154Y-29907147D01*
X40755653Y-30032646D01*
X40854256Y-30180216D01*
X40922176Y-30344188D01*
X40956800Y-30518259D01*
X40956800Y-30695741D01*
X40922176Y-30869812D01*
X40854256Y-31033784D01*
X40755653Y-31181354D01*
X40630154Y-31306853D01*
X40482584Y-31405456D01*
X40318612Y-31473376D01*
X40169312Y-31503073D01*
X40144542Y-31508000D01*
X39967058Y-31508000D01*
X39942288Y-31503073D01*
X39792988Y-31473376D01*
X39629016Y-31405456D01*
X39481446Y-31306853D01*
X39355947Y-31181354D01*
X39257344Y-31033784D01*
X39189424Y-30869812D01*
X39154800Y-30695741D01*
X39154800Y-30518259D01*
X39189424Y-30344188D01*
X39257344Y-30180216D01*
X39355947Y-30032646D01*
X39481446Y-29907147D01*
X39629016Y-29808544D01*
X39792988Y-29740624D01*
X39942288Y-29710927D01*
X39967058Y-29706000D01*
X40144542Y-29706000D01*
X40169312Y-29710927D01*
X40169312Y-29710927D01*
G37*
G36*
X46669312Y-29710927D02*
G01*
X46818612Y-29740624D01*
X46982584Y-29808544D01*
X47130154Y-29907147D01*
X47255653Y-30032646D01*
X47354256Y-30180216D01*
X47422176Y-30344188D01*
X47456800Y-30518259D01*
X47456800Y-30695741D01*
X47422176Y-30869812D01*
X47354256Y-31033784D01*
X47255653Y-31181354D01*
X47130154Y-31306853D01*
X46982584Y-31405456D01*
X46818612Y-31473376D01*
X46669312Y-31503073D01*
X46644542Y-31508000D01*
X46467058Y-31508000D01*
X46442288Y-31503073D01*
X46292988Y-31473376D01*
X46129016Y-31405456D01*
X45981446Y-31306853D01*
X45855947Y-31181354D01*
X45757344Y-31033784D01*
X45689424Y-30869812D01*
X45654800Y-30695741D01*
X45654800Y-30518259D01*
X45689424Y-30344188D01*
X45757344Y-30180216D01*
X45855947Y-30032646D01*
X45981446Y-29907147D01*
X46129016Y-29808544D01*
X46292988Y-29740624D01*
X46442288Y-29710927D01*
X46467058Y-29706000D01*
X46644542Y-29706000D01*
X46669312Y-29710927D01*
X46669312Y-29710927D01*
G37*
G36*
X38971228Y-25493703D02*
G01*
X39126100Y-25557853D01*
X39265481Y-25650985D01*
X39384015Y-25769519D01*
X39477147Y-25908900D01*
X39541297Y-26063772D01*
X39574000Y-26228184D01*
X39574000Y-26395816D01*
X39541297Y-26560228D01*
X39477147Y-26715100D01*
X39384015Y-26854481D01*
X39265481Y-26973015D01*
X39126100Y-27066147D01*
X38971228Y-27130297D01*
X38806816Y-27163000D01*
X38639184Y-27163000D01*
X38474772Y-27130297D01*
X38319900Y-27066147D01*
X38180519Y-26973015D01*
X38061985Y-26854481D01*
X37968853Y-26715100D01*
X37904703Y-26560228D01*
X37872000Y-26395816D01*
X37872000Y-26228184D01*
X37904703Y-26063772D01*
X37968853Y-25908900D01*
X38061985Y-25769519D01*
X38180519Y-25650985D01*
X38319900Y-25557853D01*
X38474772Y-25493703D01*
X38639184Y-25461000D01*
X38806816Y-25461000D01*
X38971228Y-25493703D01*
X38971228Y-25493703D01*
G37*
G36*
X41261228Y-25493703D02*
G01*
X41416100Y-25557853D01*
X41555481Y-25650985D01*
X41674015Y-25769519D01*
X41767147Y-25908900D01*
X41831297Y-26063772D01*
X41864000Y-26228184D01*
X41864000Y-26395816D01*
X41831297Y-26560228D01*
X41767147Y-26715100D01*
X41674015Y-26854481D01*
X41555481Y-26973015D01*
X41416100Y-27066147D01*
X41261228Y-27130297D01*
X41096816Y-27163000D01*
X40929184Y-27163000D01*
X40764772Y-27130297D01*
X40609900Y-27066147D01*
X40470519Y-26973015D01*
X40351985Y-26854481D01*
X40258853Y-26715100D01*
X40194703Y-26560228D01*
X40162000Y-26395816D01*
X40162000Y-26228184D01*
X40194703Y-26063772D01*
X40258853Y-25908900D01*
X40351985Y-25769519D01*
X40470519Y-25650985D01*
X40609900Y-25557853D01*
X40764772Y-25493703D01*
X40929184Y-25461000D01*
X41096816Y-25461000D01*
X41261228Y-25493703D01*
X41261228Y-25493703D01*
G37*
G36*
X43551228Y-25493703D02*
G01*
X43706100Y-25557853D01*
X43845481Y-25650985D01*
X43964015Y-25769519D01*
X44057147Y-25908900D01*
X44121297Y-26063772D01*
X44154000Y-26228184D01*
X44154000Y-26395816D01*
X44121297Y-26560228D01*
X44057147Y-26715100D01*
X43964015Y-26854481D01*
X43845481Y-26973015D01*
X43706100Y-27066147D01*
X43551228Y-27130297D01*
X43386816Y-27163000D01*
X43219184Y-27163000D01*
X43054772Y-27130297D01*
X42899900Y-27066147D01*
X42760519Y-26973015D01*
X42641985Y-26854481D01*
X42548853Y-26715100D01*
X42484703Y-26560228D01*
X42452000Y-26395816D01*
X42452000Y-26228184D01*
X42484703Y-26063772D01*
X42548853Y-25908900D01*
X42641985Y-25769519D01*
X42760519Y-25650985D01*
X42899900Y-25557853D01*
X43054772Y-25493703D01*
X43219184Y-25461000D01*
X43386816Y-25461000D01*
X43551228Y-25493703D01*
X43551228Y-25493703D01*
G37*
G36*
X45841228Y-25493703D02*
G01*
X45996100Y-25557853D01*
X46135481Y-25650985D01*
X46254015Y-25769519D01*
X46347147Y-25908900D01*
X46411297Y-26063772D01*
X46444000Y-26228184D01*
X46444000Y-26395816D01*
X46411297Y-26560228D01*
X46347147Y-26715100D01*
X46254015Y-26854481D01*
X46135481Y-26973015D01*
X45996100Y-27066147D01*
X45841228Y-27130297D01*
X45676816Y-27163000D01*
X45509184Y-27163000D01*
X45344772Y-27130297D01*
X45189900Y-27066147D01*
X45050519Y-26973015D01*
X44931985Y-26854481D01*
X44838853Y-26715100D01*
X44774703Y-26560228D01*
X44742000Y-26395816D01*
X44742000Y-26228184D01*
X44774703Y-26063772D01*
X44838853Y-25908900D01*
X44931985Y-25769519D01*
X45050519Y-25650985D01*
X45189900Y-25557853D01*
X45344772Y-25493703D01*
X45509184Y-25461000D01*
X45676816Y-25461000D01*
X45841228Y-25493703D01*
X45841228Y-25493703D01*
G37*
G36*
X36681228Y-25493703D02*
G01*
X36836100Y-25557853D01*
X36975481Y-25650985D01*
X37094015Y-25769519D01*
X37187147Y-25908900D01*
X37251297Y-26063772D01*
X37284000Y-26228184D01*
X37284000Y-26395816D01*
X37251297Y-26560228D01*
X37187147Y-26715100D01*
X37094015Y-26854481D01*
X36975481Y-26973015D01*
X36836100Y-27066147D01*
X36681228Y-27130297D01*
X36516816Y-27163000D01*
X36349184Y-27163000D01*
X36184772Y-27130297D01*
X36029900Y-27066147D01*
X35890519Y-26973015D01*
X35771985Y-26854481D01*
X35678853Y-26715100D01*
X35614703Y-26560228D01*
X35582000Y-26395816D01*
X35582000Y-26228184D01*
X35614703Y-26063772D01*
X35678853Y-25908900D01*
X35771985Y-25769519D01*
X35890519Y-25650985D01*
X36029900Y-25557853D01*
X36184772Y-25493703D01*
X36349184Y-25461000D01*
X36516816Y-25461000D01*
X36681228Y-25493703D01*
X36681228Y-25493703D01*
G37*
G36*
X34391228Y-25493703D02*
G01*
X34546100Y-25557853D01*
X34685481Y-25650985D01*
X34804015Y-25769519D01*
X34897147Y-25908900D01*
X34961297Y-26063772D01*
X34994000Y-26228184D01*
X34994000Y-26395816D01*
X34961297Y-26560228D01*
X34897147Y-26715100D01*
X34804015Y-26854481D01*
X34685481Y-26973015D01*
X34546100Y-27066147D01*
X34391228Y-27130297D01*
X34226816Y-27163000D01*
X34059184Y-27163000D01*
X33894772Y-27130297D01*
X33739900Y-27066147D01*
X33600519Y-26973015D01*
X33481985Y-26854481D01*
X33388853Y-26715100D01*
X33324703Y-26560228D01*
X33292000Y-26395816D01*
X33292000Y-26228184D01*
X33324703Y-26063772D01*
X33388853Y-25908900D01*
X33481985Y-25769519D01*
X33600519Y-25650985D01*
X33739900Y-25557853D01*
X33894772Y-25493703D01*
X34059184Y-25461000D01*
X34226816Y-25461000D01*
X34391228Y-25493703D01*
X34391228Y-25493703D01*
G37*
G36*
X32101228Y-25493703D02*
G01*
X32256100Y-25557853D01*
X32395481Y-25650985D01*
X32514015Y-25769519D01*
X32607147Y-25908900D01*
X32671297Y-26063772D01*
X32704000Y-26228184D01*
X32704000Y-26395816D01*
X32671297Y-26560228D01*
X32607147Y-26715100D01*
X32514015Y-26854481D01*
X32395481Y-26973015D01*
X32256100Y-27066147D01*
X32101228Y-27130297D01*
X31936816Y-27163000D01*
X31769184Y-27163000D01*
X31604772Y-27130297D01*
X31449900Y-27066147D01*
X31310519Y-26973015D01*
X31191985Y-26854481D01*
X31098853Y-26715100D01*
X31034703Y-26560228D01*
X31002000Y-26395816D01*
X31002000Y-26228184D01*
X31034703Y-26063772D01*
X31098853Y-25908900D01*
X31191985Y-25769519D01*
X31310519Y-25650985D01*
X31449900Y-25557853D01*
X31604772Y-25493703D01*
X31769184Y-25461000D01*
X31936816Y-25461000D01*
X32101228Y-25493703D01*
X32101228Y-25493703D01*
G37*
G36*
X29811228Y-25493703D02*
G01*
X29966100Y-25557853D01*
X30105481Y-25650985D01*
X30224015Y-25769519D01*
X30317147Y-25908900D01*
X30381297Y-26063772D01*
X30414000Y-26228184D01*
X30414000Y-26395816D01*
X30381297Y-26560228D01*
X30317147Y-26715100D01*
X30224015Y-26854481D01*
X30105481Y-26973015D01*
X29966100Y-27066147D01*
X29811228Y-27130297D01*
X29646816Y-27163000D01*
X29479184Y-27163000D01*
X29314772Y-27130297D01*
X29159900Y-27066147D01*
X29020519Y-26973015D01*
X28901985Y-26854481D01*
X28808853Y-26715100D01*
X28744703Y-26560228D01*
X28712000Y-26395816D01*
X28712000Y-26228184D01*
X28744703Y-26063772D01*
X28808853Y-25908900D01*
X28901985Y-25769519D01*
X29020519Y-25650985D01*
X29159900Y-25557853D01*
X29314772Y-25493703D01*
X29479184Y-25461000D01*
X29646816Y-25461000D01*
X29811228Y-25493703D01*
X29811228Y-25493703D01*
G37*
G36*
X54216254Y-22359818D02*
G01*
X54589511Y-22514426D01*
X54589513Y-22514427D01*
X54925436Y-22738884D01*
X55211116Y-23024564D01*
X55308491Y-23170295D01*
X55435574Y-23360489D01*
X55590182Y-23733746D01*
X55669000Y-24129993D01*
X55669000Y-24534007D01*
X55590182Y-24930254D01*
X55499038Y-25150295D01*
X55435573Y-25303513D01*
X55211116Y-25639436D01*
X54925436Y-25925116D01*
X54589513Y-26149573D01*
X54589512Y-26149574D01*
X54589511Y-26149574D01*
X54216254Y-26304182D01*
X53820007Y-26383000D01*
X53415993Y-26383000D01*
X53019746Y-26304182D01*
X52646489Y-26149574D01*
X52646488Y-26149574D01*
X52646487Y-26149573D01*
X52310564Y-25925116D01*
X52024884Y-25639436D01*
X51800427Y-25303513D01*
X51736962Y-25150295D01*
X51645818Y-24930254D01*
X51567000Y-24534007D01*
X51567000Y-24129993D01*
X51645818Y-23733746D01*
X51800426Y-23360489D01*
X51927510Y-23170295D01*
X52024884Y-23024564D01*
X52310564Y-22738884D01*
X52646487Y-22514427D01*
X52646489Y-22514426D01*
X53019746Y-22359818D01*
X53415993Y-22281000D01*
X53820007Y-22281000D01*
X54216254Y-22359818D01*
X54216254Y-22359818D01*
G37*
G36*
X20916254Y-22359818D02*
G01*
X21289511Y-22514426D01*
X21289513Y-22514427D01*
X21625436Y-22738884D01*
X21911116Y-23024564D01*
X22008491Y-23170295D01*
X22135574Y-23360489D01*
X22290182Y-23733746D01*
X22369000Y-24129993D01*
X22369000Y-24534007D01*
X22290182Y-24930254D01*
X22199038Y-25150295D01*
X22135573Y-25303513D01*
X21911116Y-25639436D01*
X21625436Y-25925116D01*
X21289513Y-26149573D01*
X21289512Y-26149574D01*
X21289511Y-26149574D01*
X20916254Y-26304182D01*
X20520007Y-26383000D01*
X20115993Y-26383000D01*
X19719746Y-26304182D01*
X19346489Y-26149574D01*
X19346488Y-26149574D01*
X19346487Y-26149573D01*
X19010564Y-25925116D01*
X18724884Y-25639436D01*
X18500427Y-25303513D01*
X18436962Y-25150295D01*
X18345818Y-24930254D01*
X18267000Y-24534007D01*
X18267000Y-24129993D01*
X18345818Y-23733746D01*
X18500426Y-23360489D01*
X18627510Y-23170295D01*
X18724884Y-23024564D01*
X19010564Y-22738884D01*
X19346487Y-22514427D01*
X19346489Y-22514426D01*
X19719746Y-22359818D01*
X20115993Y-22281000D01*
X20520007Y-22281000D01*
X20916254Y-22359818D01*
X20916254Y-22359818D01*
G37*
G36*
X37826228Y-23513703D02*
G01*
X37981100Y-23577853D01*
X38120481Y-23670985D01*
X38239015Y-23789519D01*
X38332147Y-23928900D01*
X38396297Y-24083772D01*
X38429000Y-24248184D01*
X38429000Y-24415816D01*
X38396297Y-24580228D01*
X38332147Y-24735100D01*
X38239015Y-24874481D01*
X38120481Y-24993015D01*
X37981100Y-25086147D01*
X37826228Y-25150297D01*
X37661816Y-25183000D01*
X37494184Y-25183000D01*
X37329772Y-25150297D01*
X37174900Y-25086147D01*
X37035519Y-24993015D01*
X36916985Y-24874481D01*
X36823853Y-24735100D01*
X36759703Y-24580228D01*
X36727000Y-24415816D01*
X36727000Y-24248184D01*
X36759703Y-24083772D01*
X36823853Y-23928900D01*
X36916985Y-23789519D01*
X37035519Y-23670985D01*
X37174900Y-23577853D01*
X37329772Y-23513703D01*
X37494184Y-23481000D01*
X37661816Y-23481000D01*
X37826228Y-23513703D01*
X37826228Y-23513703D01*
G37*
G36*
X46986228Y-23513703D02*
G01*
X47141100Y-23577853D01*
X47280481Y-23670985D01*
X47399015Y-23789519D01*
X47492147Y-23928900D01*
X47556297Y-24083772D01*
X47589000Y-24248184D01*
X47589000Y-24415816D01*
X47556297Y-24580228D01*
X47492147Y-24735100D01*
X47399015Y-24874481D01*
X47280481Y-24993015D01*
X47141100Y-25086147D01*
X46986228Y-25150297D01*
X46821816Y-25183000D01*
X46654184Y-25183000D01*
X46489772Y-25150297D01*
X46334900Y-25086147D01*
X46195519Y-24993015D01*
X46076985Y-24874481D01*
X45983853Y-24735100D01*
X45919703Y-24580228D01*
X45887000Y-24415816D01*
X45887000Y-24248184D01*
X45919703Y-24083772D01*
X45983853Y-23928900D01*
X46076985Y-23789519D01*
X46195519Y-23670985D01*
X46334900Y-23577853D01*
X46489772Y-23513703D01*
X46654184Y-23481000D01*
X46821816Y-23481000D01*
X46986228Y-23513703D01*
X46986228Y-23513703D01*
G37*
G36*
X44696228Y-23513703D02*
G01*
X44851100Y-23577853D01*
X44990481Y-23670985D01*
X45109015Y-23789519D01*
X45202147Y-23928900D01*
X45266297Y-24083772D01*
X45299000Y-24248184D01*
X45299000Y-24415816D01*
X45266297Y-24580228D01*
X45202147Y-24735100D01*
X45109015Y-24874481D01*
X44990481Y-24993015D01*
X44851100Y-25086147D01*
X44696228Y-25150297D01*
X44531816Y-25183000D01*
X44364184Y-25183000D01*
X44199772Y-25150297D01*
X44044900Y-25086147D01*
X43905519Y-24993015D01*
X43786985Y-24874481D01*
X43693853Y-24735100D01*
X43629703Y-24580228D01*
X43597000Y-24415816D01*
X43597000Y-24248184D01*
X43629703Y-24083772D01*
X43693853Y-23928900D01*
X43786985Y-23789519D01*
X43905519Y-23670985D01*
X44044900Y-23577853D01*
X44199772Y-23513703D01*
X44364184Y-23481000D01*
X44531816Y-23481000D01*
X44696228Y-23513703D01*
X44696228Y-23513703D01*
G37*
G36*
X42406228Y-23513703D02*
G01*
X42561100Y-23577853D01*
X42700481Y-23670985D01*
X42819015Y-23789519D01*
X42912147Y-23928900D01*
X42976297Y-24083772D01*
X43009000Y-24248184D01*
X43009000Y-24415816D01*
X42976297Y-24580228D01*
X42912147Y-24735100D01*
X42819015Y-24874481D01*
X42700481Y-24993015D01*
X42561100Y-25086147D01*
X42406228Y-25150297D01*
X42241816Y-25183000D01*
X42074184Y-25183000D01*
X41909772Y-25150297D01*
X41754900Y-25086147D01*
X41615519Y-24993015D01*
X41496985Y-24874481D01*
X41403853Y-24735100D01*
X41339703Y-24580228D01*
X41307000Y-24415816D01*
X41307000Y-24248184D01*
X41339703Y-24083772D01*
X41403853Y-23928900D01*
X41496985Y-23789519D01*
X41615519Y-23670985D01*
X41754900Y-23577853D01*
X41909772Y-23513703D01*
X42074184Y-23481000D01*
X42241816Y-23481000D01*
X42406228Y-23513703D01*
X42406228Y-23513703D01*
G37*
G36*
X40116228Y-23513703D02*
G01*
X40271100Y-23577853D01*
X40410481Y-23670985D01*
X40529015Y-23789519D01*
X40622147Y-23928900D01*
X40686297Y-24083772D01*
X40719000Y-24248184D01*
X40719000Y-24415816D01*
X40686297Y-24580228D01*
X40622147Y-24735100D01*
X40529015Y-24874481D01*
X40410481Y-24993015D01*
X40271100Y-25086147D01*
X40116228Y-25150297D01*
X39951816Y-25183000D01*
X39784184Y-25183000D01*
X39619772Y-25150297D01*
X39464900Y-25086147D01*
X39325519Y-24993015D01*
X39206985Y-24874481D01*
X39113853Y-24735100D01*
X39049703Y-24580228D01*
X39017000Y-24415816D01*
X39017000Y-24248184D01*
X39049703Y-24083772D01*
X39113853Y-23928900D01*
X39206985Y-23789519D01*
X39325519Y-23670985D01*
X39464900Y-23577853D01*
X39619772Y-23513703D01*
X39784184Y-23481000D01*
X39951816Y-23481000D01*
X40116228Y-23513703D01*
X40116228Y-23513703D01*
G37*
G36*
X28666228Y-23513703D02*
G01*
X28821100Y-23577853D01*
X28960481Y-23670985D01*
X29079015Y-23789519D01*
X29172147Y-23928900D01*
X29236297Y-24083772D01*
X29269000Y-24248184D01*
X29269000Y-24415816D01*
X29236297Y-24580228D01*
X29172147Y-24735100D01*
X29079015Y-24874481D01*
X28960481Y-24993015D01*
X28821100Y-25086147D01*
X28666228Y-25150297D01*
X28501816Y-25183000D01*
X28334184Y-25183000D01*
X28169772Y-25150297D01*
X28014900Y-25086147D01*
X27875519Y-24993015D01*
X27756985Y-24874481D01*
X27663853Y-24735100D01*
X27599703Y-24580228D01*
X27567000Y-24415816D01*
X27567000Y-24248184D01*
X27599703Y-24083772D01*
X27663853Y-23928900D01*
X27756985Y-23789519D01*
X27875519Y-23670985D01*
X28014900Y-23577853D01*
X28169772Y-23513703D01*
X28334184Y-23481000D01*
X28501816Y-23481000D01*
X28666228Y-23513703D01*
X28666228Y-23513703D01*
G37*
G36*
X35536228Y-23513703D02*
G01*
X35691100Y-23577853D01*
X35830481Y-23670985D01*
X35949015Y-23789519D01*
X36042147Y-23928900D01*
X36106297Y-24083772D01*
X36139000Y-24248184D01*
X36139000Y-24415816D01*
X36106297Y-24580228D01*
X36042147Y-24735100D01*
X35949015Y-24874481D01*
X35830481Y-24993015D01*
X35691100Y-25086147D01*
X35536228Y-25150297D01*
X35371816Y-25183000D01*
X35204184Y-25183000D01*
X35039772Y-25150297D01*
X34884900Y-25086147D01*
X34745519Y-24993015D01*
X34626985Y-24874481D01*
X34533853Y-24735100D01*
X34469703Y-24580228D01*
X34437000Y-24415816D01*
X34437000Y-24248184D01*
X34469703Y-24083772D01*
X34533853Y-23928900D01*
X34626985Y-23789519D01*
X34745519Y-23670985D01*
X34884900Y-23577853D01*
X35039772Y-23513703D01*
X35204184Y-23481000D01*
X35371816Y-23481000D01*
X35536228Y-23513703D01*
X35536228Y-23513703D01*
G37*
G36*
X33246228Y-23513703D02*
G01*
X33401100Y-23577853D01*
X33540481Y-23670985D01*
X33659015Y-23789519D01*
X33752147Y-23928900D01*
X33816297Y-24083772D01*
X33849000Y-24248184D01*
X33849000Y-24415816D01*
X33816297Y-24580228D01*
X33752147Y-24735100D01*
X33659015Y-24874481D01*
X33540481Y-24993015D01*
X33401100Y-25086147D01*
X33246228Y-25150297D01*
X33081816Y-25183000D01*
X32914184Y-25183000D01*
X32749772Y-25150297D01*
X32594900Y-25086147D01*
X32455519Y-24993015D01*
X32336985Y-24874481D01*
X32243853Y-24735100D01*
X32179703Y-24580228D01*
X32147000Y-24415816D01*
X32147000Y-24248184D01*
X32179703Y-24083772D01*
X32243853Y-23928900D01*
X32336985Y-23789519D01*
X32455519Y-23670985D01*
X32594900Y-23577853D01*
X32749772Y-23513703D01*
X32914184Y-23481000D01*
X33081816Y-23481000D01*
X33246228Y-23513703D01*
X33246228Y-23513703D01*
G37*
G36*
X30956228Y-23513703D02*
G01*
X31111100Y-23577853D01*
X31250481Y-23670985D01*
X31369015Y-23789519D01*
X31462147Y-23928900D01*
X31526297Y-24083772D01*
X31559000Y-24248184D01*
X31559000Y-24415816D01*
X31526297Y-24580228D01*
X31462147Y-24735100D01*
X31369015Y-24874481D01*
X31250481Y-24993015D01*
X31111100Y-25086147D01*
X30956228Y-25150297D01*
X30791816Y-25183000D01*
X30624184Y-25183000D01*
X30459772Y-25150297D01*
X30304900Y-25086147D01*
X30165519Y-24993015D01*
X30046985Y-24874481D01*
X29953853Y-24735100D01*
X29889703Y-24580228D01*
X29857000Y-24415816D01*
X29857000Y-24248184D01*
X29889703Y-24083772D01*
X29953853Y-23928900D01*
X30046985Y-23789519D01*
X30165519Y-23670985D01*
X30304900Y-23577853D01*
X30459772Y-23513703D01*
X30624184Y-23481000D01*
X30791816Y-23481000D01*
X30956228Y-23513703D01*
X30956228Y-23513703D01*
G37*
G36*
X27521228Y-21533703D02*
G01*
X27676100Y-21597853D01*
X27815481Y-21690985D01*
X27934015Y-21809519D01*
X28027147Y-21948900D01*
X28091297Y-22103772D01*
X28124000Y-22268184D01*
X28124000Y-22435816D01*
X28091297Y-22600228D01*
X28027147Y-22755100D01*
X27934015Y-22894481D01*
X27815481Y-23013015D01*
X27676100Y-23106147D01*
X27521228Y-23170297D01*
X27356816Y-23203000D01*
X27189184Y-23203000D01*
X27024772Y-23170297D01*
X26869900Y-23106147D01*
X26730519Y-23013015D01*
X26611985Y-22894481D01*
X26518853Y-22755100D01*
X26454703Y-22600228D01*
X26422000Y-22435816D01*
X26422000Y-22268184D01*
X26454703Y-22103772D01*
X26518853Y-21948900D01*
X26611985Y-21809519D01*
X26730519Y-21690985D01*
X26869900Y-21597853D01*
X27024772Y-21533703D01*
X27189184Y-21501000D01*
X27356816Y-21501000D01*
X27521228Y-21533703D01*
X27521228Y-21533703D01*
G37*
G36*
X29811228Y-21533703D02*
G01*
X29966100Y-21597853D01*
X30105481Y-21690985D01*
X30224015Y-21809519D01*
X30317147Y-21948900D01*
X30381297Y-22103772D01*
X30414000Y-22268184D01*
X30414000Y-22435816D01*
X30381297Y-22600228D01*
X30317147Y-22755100D01*
X30224015Y-22894481D01*
X30105481Y-23013015D01*
X29966100Y-23106147D01*
X29811228Y-23170297D01*
X29646816Y-23203000D01*
X29479184Y-23203000D01*
X29314772Y-23170297D01*
X29159900Y-23106147D01*
X29020519Y-23013015D01*
X28901985Y-22894481D01*
X28808853Y-22755100D01*
X28744703Y-22600228D01*
X28712000Y-22435816D01*
X28712000Y-22268184D01*
X28744703Y-22103772D01*
X28808853Y-21948900D01*
X28901985Y-21809519D01*
X29020519Y-21690985D01*
X29159900Y-21597853D01*
X29314772Y-21533703D01*
X29479184Y-21501000D01*
X29646816Y-21501000D01*
X29811228Y-21533703D01*
X29811228Y-21533703D01*
G37*
G36*
X32101228Y-21533703D02*
G01*
X32256100Y-21597853D01*
X32395481Y-21690985D01*
X32514015Y-21809519D01*
X32607147Y-21948900D01*
X32671297Y-22103772D01*
X32704000Y-22268184D01*
X32704000Y-22435816D01*
X32671297Y-22600228D01*
X32607147Y-22755100D01*
X32514015Y-22894481D01*
X32395481Y-23013015D01*
X32256100Y-23106147D01*
X32101228Y-23170297D01*
X31936816Y-23203000D01*
X31769184Y-23203000D01*
X31604772Y-23170297D01*
X31449900Y-23106147D01*
X31310519Y-23013015D01*
X31191985Y-22894481D01*
X31098853Y-22755100D01*
X31034703Y-22600228D01*
X31002000Y-22435816D01*
X31002000Y-22268184D01*
X31034703Y-22103772D01*
X31098853Y-21948900D01*
X31191985Y-21809519D01*
X31310519Y-21690985D01*
X31449900Y-21597853D01*
X31604772Y-21533703D01*
X31769184Y-21501000D01*
X31936816Y-21501000D01*
X32101228Y-21533703D01*
X32101228Y-21533703D01*
G37*
G36*
X36681228Y-21533703D02*
G01*
X36836100Y-21597853D01*
X36975481Y-21690985D01*
X37094015Y-21809519D01*
X37187147Y-21948900D01*
X37251297Y-22103772D01*
X37284000Y-22268184D01*
X37284000Y-22435816D01*
X37251297Y-22600228D01*
X37187147Y-22755100D01*
X37094015Y-22894481D01*
X36975481Y-23013015D01*
X36836100Y-23106147D01*
X36681228Y-23170297D01*
X36516816Y-23203000D01*
X36349184Y-23203000D01*
X36184772Y-23170297D01*
X36029900Y-23106147D01*
X35890519Y-23013015D01*
X35771985Y-22894481D01*
X35678853Y-22755100D01*
X35614703Y-22600228D01*
X35582000Y-22435816D01*
X35582000Y-22268184D01*
X35614703Y-22103772D01*
X35678853Y-21948900D01*
X35771985Y-21809519D01*
X35890519Y-21690985D01*
X36029900Y-21597853D01*
X36184772Y-21533703D01*
X36349184Y-21501000D01*
X36516816Y-21501000D01*
X36681228Y-21533703D01*
X36681228Y-21533703D01*
G37*
G36*
X38971228Y-21533703D02*
G01*
X39126100Y-21597853D01*
X39265481Y-21690985D01*
X39384015Y-21809519D01*
X39477147Y-21948900D01*
X39541297Y-22103772D01*
X39574000Y-22268184D01*
X39574000Y-22435816D01*
X39541297Y-22600228D01*
X39477147Y-22755100D01*
X39384015Y-22894481D01*
X39265481Y-23013015D01*
X39126100Y-23106147D01*
X38971228Y-23170297D01*
X38806816Y-23203000D01*
X38639184Y-23203000D01*
X38474772Y-23170297D01*
X38319900Y-23106147D01*
X38180519Y-23013015D01*
X38061985Y-22894481D01*
X37968853Y-22755100D01*
X37904703Y-22600228D01*
X37872000Y-22435816D01*
X37872000Y-22268184D01*
X37904703Y-22103772D01*
X37968853Y-21948900D01*
X38061985Y-21809519D01*
X38180519Y-21690985D01*
X38319900Y-21597853D01*
X38474772Y-21533703D01*
X38639184Y-21501000D01*
X38806816Y-21501000D01*
X38971228Y-21533703D01*
X38971228Y-21533703D01*
G37*
G36*
X41261228Y-21533703D02*
G01*
X41416100Y-21597853D01*
X41555481Y-21690985D01*
X41674015Y-21809519D01*
X41767147Y-21948900D01*
X41831297Y-22103772D01*
X41864000Y-22268184D01*
X41864000Y-22435816D01*
X41831297Y-22600228D01*
X41767147Y-22755100D01*
X41674015Y-22894481D01*
X41555481Y-23013015D01*
X41416100Y-23106147D01*
X41261228Y-23170297D01*
X41096816Y-23203000D01*
X40929184Y-23203000D01*
X40764772Y-23170297D01*
X40609900Y-23106147D01*
X40470519Y-23013015D01*
X40351985Y-22894481D01*
X40258853Y-22755100D01*
X40194703Y-22600228D01*
X40162000Y-22435816D01*
X40162000Y-22268184D01*
X40194703Y-22103772D01*
X40258853Y-21948900D01*
X40351985Y-21809519D01*
X40470519Y-21690985D01*
X40609900Y-21597853D01*
X40764772Y-21533703D01*
X40929184Y-21501000D01*
X41096816Y-21501000D01*
X41261228Y-21533703D01*
X41261228Y-21533703D01*
G37*
G36*
X43551228Y-21533703D02*
G01*
X43706100Y-21597853D01*
X43845481Y-21690985D01*
X43964015Y-21809519D01*
X44057147Y-21948900D01*
X44121297Y-22103772D01*
X44154000Y-22268184D01*
X44154000Y-22435816D01*
X44121297Y-22600228D01*
X44057147Y-22755100D01*
X43964015Y-22894481D01*
X43845481Y-23013015D01*
X43706100Y-23106147D01*
X43551228Y-23170297D01*
X43386816Y-23203000D01*
X43219184Y-23203000D01*
X43054772Y-23170297D01*
X42899900Y-23106147D01*
X42760519Y-23013015D01*
X42641985Y-22894481D01*
X42548853Y-22755100D01*
X42484703Y-22600228D01*
X42452000Y-22435816D01*
X42452000Y-22268184D01*
X42484703Y-22103772D01*
X42548853Y-21948900D01*
X42641985Y-21809519D01*
X42760519Y-21690985D01*
X42899900Y-21597853D01*
X43054772Y-21533703D01*
X43219184Y-21501000D01*
X43386816Y-21501000D01*
X43551228Y-21533703D01*
X43551228Y-21533703D01*
G37*
G36*
X46444000Y-23203000D02*
G01*
X44742000Y-23203000D01*
X44742000Y-21501000D01*
X46444000Y-21501000D01*
X46444000Y-23203000D01*
X46444000Y-23203000D01*
G37*
G36*
X34391228Y-21533703D02*
G01*
X34546100Y-21597853D01*
X34685481Y-21690985D01*
X34804015Y-21809519D01*
X34897147Y-21948900D01*
X34961297Y-22103772D01*
X34994000Y-22268184D01*
X34994000Y-22435816D01*
X34961297Y-22600228D01*
X34897147Y-22755100D01*
X34804015Y-22894481D01*
X34685481Y-23013015D01*
X34546100Y-23106147D01*
X34391228Y-23170297D01*
X34226816Y-23203000D01*
X34059184Y-23203000D01*
X33894772Y-23170297D01*
X33739900Y-23106147D01*
X33600519Y-23013015D01*
X33481985Y-22894481D01*
X33388853Y-22755100D01*
X33324703Y-22600228D01*
X33292000Y-22435816D01*
X33292000Y-22268184D01*
X33324703Y-22103772D01*
X33388853Y-21948900D01*
X33481985Y-21809519D01*
X33600519Y-21690985D01*
X33739900Y-21597853D01*
X33894772Y-21533703D01*
X34059184Y-21501000D01*
X34226816Y-21501000D01*
X34391228Y-21533703D01*
X34391228Y-21533703D01*
G37*
G36*
X43492000Y-18962000D02*
G01*
X41090000Y-18962000D01*
X41090000Y-17360000D01*
X43492000Y-17360000D01*
X43492000Y-18962000D01*
X43492000Y-18962000D01*
G37*
G36*
X47959674Y-15262465D02*
G01*
X47997367Y-15273899D01*
X48032103Y-15292466D01*
X48062548Y-15317452D01*
X48087534Y-15347897D01*
X48106101Y-15382633D01*
X48117535Y-15420326D01*
X48122000Y-15465661D01*
X48122000Y-16302339D01*
X48117535Y-16347674D01*
X48106101Y-16385367D01*
X48087534Y-16420103D01*
X48062548Y-16450548D01*
X48032103Y-16475534D01*
X47997367Y-16494101D01*
X47959674Y-16505535D01*
X47914339Y-16510000D01*
X46827661Y-16510000D01*
X46782326Y-16505535D01*
X46744633Y-16494101D01*
X46709897Y-16475534D01*
X46679452Y-16450548D01*
X46654466Y-16420103D01*
X46635899Y-16385367D01*
X46624465Y-16347674D01*
X46620000Y-16302339D01*
X46620000Y-15465661D01*
X46624465Y-15420326D01*
X46635899Y-15382633D01*
X46654466Y-15347897D01*
X46679452Y-15317452D01*
X46709897Y-15292466D01*
X46744633Y-15273899D01*
X46782326Y-15262465D01*
X46827661Y-15258000D01*
X47914339Y-15258000D01*
X47959674Y-15262465D01*
X47959674Y-15262465D01*
G37*
G36*
X51769674Y-15262465D02*
G01*
X51807367Y-15273899D01*
X51842103Y-15292466D01*
X51872548Y-15317452D01*
X51897534Y-15347897D01*
X51916101Y-15382633D01*
X51927535Y-15420326D01*
X51932000Y-15465661D01*
X51932000Y-16302339D01*
X51927535Y-16347674D01*
X51916101Y-16385367D01*
X51897534Y-16420103D01*
X51872548Y-16450548D01*
X51842103Y-16475534D01*
X51807367Y-16494101D01*
X51769674Y-16505535D01*
X51724339Y-16510000D01*
X50637661Y-16510000D01*
X50592326Y-16505535D01*
X50554633Y-16494101D01*
X50519897Y-16475534D01*
X50489452Y-16450548D01*
X50464466Y-16420103D01*
X50445899Y-16385367D01*
X50434465Y-16347674D01*
X50430000Y-16302339D01*
X50430000Y-15465661D01*
X50434465Y-15420326D01*
X50445899Y-15382633D01*
X50464466Y-15347897D01*
X50489452Y-15317452D01*
X50519897Y-15292466D01*
X50554633Y-15273899D01*
X50592326Y-15262465D01*
X50637661Y-15258000D01*
X51724339Y-15258000D01*
X51769674Y-15262465D01*
X51769674Y-15262465D01*
G37*
G36*
X55706674Y-15262465D02*
G01*
X55744367Y-15273899D01*
X55779103Y-15292466D01*
X55809548Y-15317452D01*
X55834534Y-15347897D01*
X55853101Y-15382633D01*
X55864535Y-15420326D01*
X55869000Y-15465661D01*
X55869000Y-16302339D01*
X55864535Y-16347674D01*
X55853101Y-16385367D01*
X55834534Y-16420103D01*
X55809548Y-16450548D01*
X55779103Y-16475534D01*
X55744367Y-16494101D01*
X55706674Y-16505535D01*
X55661339Y-16510000D01*
X54574661Y-16510000D01*
X54529326Y-16505535D01*
X54491633Y-16494101D01*
X54456897Y-16475534D01*
X54426452Y-16450548D01*
X54401466Y-16420103D01*
X54382899Y-16385367D01*
X54371465Y-16347674D01*
X54367000Y-16302339D01*
X54367000Y-15465661D01*
X54371465Y-15420326D01*
X54382899Y-15382633D01*
X54401466Y-15347897D01*
X54426452Y-15317452D01*
X54456897Y-15292466D01*
X54491633Y-15273899D01*
X54529326Y-15262465D01*
X54574661Y-15258000D01*
X55661339Y-15258000D01*
X55706674Y-15262465D01*
X55706674Y-15262465D01*
G37*
G36*
X49640499Y-15162445D02*
G01*
X49677995Y-15173820D01*
X49712554Y-15192292D01*
X49742847Y-15217153D01*
X49767708Y-15247446D01*
X49786180Y-15282005D01*
X49797555Y-15319501D01*
X49802000Y-15364638D01*
X49802000Y-16103362D01*
X49797555Y-16148499D01*
X49786180Y-16185995D01*
X49767708Y-16220554D01*
X49742847Y-16250847D01*
X49712554Y-16275708D01*
X49677995Y-16294180D01*
X49640499Y-16305555D01*
X49595362Y-16310000D01*
X48956638Y-16310000D01*
X48911501Y-16305555D01*
X48874005Y-16294180D01*
X48839446Y-16275708D01*
X48809153Y-16250847D01*
X48784292Y-16220554D01*
X48765820Y-16185995D01*
X48754445Y-16148499D01*
X48750000Y-16103362D01*
X48750000Y-15364638D01*
X48754445Y-15319501D01*
X48765820Y-15282005D01*
X48784292Y-15247446D01*
X48809153Y-15217153D01*
X48839446Y-15192292D01*
X48874005Y-15173820D01*
X48911501Y-15162445D01*
X48956638Y-15158000D01*
X49595362Y-15158000D01*
X49640499Y-15162445D01*
X49640499Y-15162445D01*
G37*
G36*
X57387499Y-15162445D02*
G01*
X57424995Y-15173820D01*
X57459554Y-15192292D01*
X57489847Y-15217153D01*
X57514708Y-15247446D01*
X57533180Y-15282005D01*
X57544555Y-15319501D01*
X57549000Y-15364638D01*
X57549000Y-16103362D01*
X57544555Y-16148499D01*
X57533180Y-16185995D01*
X57514708Y-16220554D01*
X57489847Y-16250847D01*
X57459554Y-16275708D01*
X57424995Y-16294180D01*
X57387499Y-16305555D01*
X57342362Y-16310000D01*
X56703638Y-16310000D01*
X56658501Y-16305555D01*
X56621005Y-16294180D01*
X56586446Y-16275708D01*
X56556153Y-16250847D01*
X56531292Y-16220554D01*
X56512820Y-16185995D01*
X56501445Y-16148499D01*
X56497000Y-16103362D01*
X56497000Y-15364638D01*
X56501445Y-15319501D01*
X56512820Y-15282005D01*
X56531292Y-15247446D01*
X56556153Y-15217153D01*
X56586446Y-15192292D01*
X56621005Y-15173820D01*
X56658501Y-15162445D01*
X56703638Y-15158000D01*
X57342362Y-15158000D01*
X57387499Y-15162445D01*
X57387499Y-15162445D01*
G37*
G36*
X53577499Y-15035445D02*
G01*
X53614995Y-15046820D01*
X53649554Y-15065292D01*
X53679847Y-15090153D01*
X53704708Y-15120446D01*
X53723180Y-15155005D01*
X53734555Y-15192501D01*
X53739000Y-15237638D01*
X53739000Y-15976362D01*
X53734555Y-16021499D01*
X53723180Y-16058995D01*
X53704708Y-16093554D01*
X53679847Y-16123847D01*
X53649554Y-16148708D01*
X53614995Y-16167180D01*
X53577499Y-16178555D01*
X53532362Y-16183000D01*
X52893638Y-16183000D01*
X52848501Y-16178555D01*
X52811005Y-16167180D01*
X52776446Y-16148708D01*
X52746153Y-16123847D01*
X52721292Y-16093554D01*
X52702820Y-16058995D01*
X52691445Y-16021499D01*
X52687000Y-15976362D01*
X52687000Y-15237638D01*
X52691445Y-15192501D01*
X52702820Y-15155005D01*
X52721292Y-15120446D01*
X52746153Y-15090153D01*
X52776446Y-15065292D01*
X52811005Y-15046820D01*
X52848501Y-15035445D01*
X52893638Y-15031000D01*
X53532362Y-15031000D01*
X53577499Y-15035445D01*
X53577499Y-15035445D01*
G37*
G36*
X30844443Y-13964519D02*
G01*
X30910627Y-13971037D01*
X31080466Y-14022557D01*
X31236991Y-14106222D01*
X31272729Y-14135552D01*
X31374186Y-14218814D01*
X31454038Y-14316115D01*
X31486778Y-14356009D01*
X31570443Y-14512534D01*
X31621963Y-14682373D01*
X31639359Y-14859000D01*
X31621963Y-15035627D01*
X31570443Y-15205466D01*
X31486778Y-15361991D01*
X31472850Y-15378962D01*
X31374186Y-15499186D01*
X31272729Y-15582448D01*
X31236991Y-15611778D01*
X31080466Y-15695443D01*
X30910627Y-15746963D01*
X30844443Y-15753481D01*
X30778260Y-15760000D01*
X30689740Y-15760000D01*
X30623557Y-15753481D01*
X30557373Y-15746963D01*
X30387534Y-15695443D01*
X30231009Y-15611778D01*
X30195271Y-15582448D01*
X30093814Y-15499186D01*
X29995150Y-15378962D01*
X29981222Y-15361991D01*
X29897557Y-15205466D01*
X29846037Y-15035627D01*
X29828641Y-14859000D01*
X29846037Y-14682373D01*
X29897557Y-14512534D01*
X29981222Y-14356009D01*
X30013962Y-14316115D01*
X30093814Y-14218814D01*
X30195271Y-14135552D01*
X30231009Y-14106222D01*
X30387534Y-14022557D01*
X30557373Y-13971037D01*
X30623557Y-13964519D01*
X30689740Y-13958000D01*
X30778260Y-13958000D01*
X30844443Y-13964519D01*
X30844443Y-13964519D01*
G37*
G36*
X44335000Y-15760000D02*
G01*
X42533000Y-15760000D01*
X42533000Y-13958000D01*
X44335000Y-13958000D01*
X44335000Y-15760000D01*
X44335000Y-15760000D01*
G37*
G36*
X41004443Y-13964519D02*
G01*
X41070627Y-13971037D01*
X41240466Y-14022557D01*
X41396991Y-14106222D01*
X41432729Y-14135552D01*
X41534186Y-14218814D01*
X41614038Y-14316115D01*
X41646778Y-14356009D01*
X41730443Y-14512534D01*
X41781963Y-14682373D01*
X41799359Y-14859000D01*
X41781963Y-15035627D01*
X41730443Y-15205466D01*
X41646778Y-15361991D01*
X41632850Y-15378962D01*
X41534186Y-15499186D01*
X41432729Y-15582448D01*
X41396991Y-15611778D01*
X41240466Y-15695443D01*
X41070627Y-15746963D01*
X41004443Y-15753481D01*
X40938260Y-15760000D01*
X40849740Y-15760000D01*
X40783557Y-15753481D01*
X40717373Y-15746963D01*
X40547534Y-15695443D01*
X40391009Y-15611778D01*
X40355271Y-15582448D01*
X40253814Y-15499186D01*
X40155150Y-15378962D01*
X40141222Y-15361991D01*
X40057557Y-15205466D01*
X40006037Y-15035627D01*
X39988641Y-14859000D01*
X40006037Y-14682373D01*
X40057557Y-14512534D01*
X40141222Y-14356009D01*
X40173962Y-14316115D01*
X40253814Y-14218814D01*
X40355271Y-14135552D01*
X40391009Y-14106222D01*
X40547534Y-14022557D01*
X40717373Y-13971037D01*
X40783557Y-13964519D01*
X40849740Y-13958000D01*
X40938260Y-13958000D01*
X41004443Y-13964519D01*
X41004443Y-13964519D01*
G37*
G36*
X38464443Y-13964519D02*
G01*
X38530627Y-13971037D01*
X38700466Y-14022557D01*
X38856991Y-14106222D01*
X38892729Y-14135552D01*
X38994186Y-14218814D01*
X39074038Y-14316115D01*
X39106778Y-14356009D01*
X39190443Y-14512534D01*
X39241963Y-14682373D01*
X39259359Y-14859000D01*
X39241963Y-15035627D01*
X39190443Y-15205466D01*
X39106778Y-15361991D01*
X39092850Y-15378962D01*
X38994186Y-15499186D01*
X38892729Y-15582448D01*
X38856991Y-15611778D01*
X38700466Y-15695443D01*
X38530627Y-15746963D01*
X38464443Y-15753481D01*
X38398260Y-15760000D01*
X38309740Y-15760000D01*
X38243557Y-15753481D01*
X38177373Y-15746963D01*
X38007534Y-15695443D01*
X37851009Y-15611778D01*
X37815271Y-15582448D01*
X37713814Y-15499186D01*
X37615150Y-15378962D01*
X37601222Y-15361991D01*
X37517557Y-15205466D01*
X37466037Y-15035627D01*
X37448641Y-14859000D01*
X37466037Y-14682373D01*
X37517557Y-14512534D01*
X37601222Y-14356009D01*
X37633962Y-14316115D01*
X37713814Y-14218814D01*
X37815271Y-14135552D01*
X37851009Y-14106222D01*
X38007534Y-14022557D01*
X38177373Y-13971037D01*
X38243557Y-13964519D01*
X38309740Y-13958000D01*
X38398260Y-13958000D01*
X38464443Y-13964519D01*
X38464443Y-13964519D01*
G37*
G36*
X35924443Y-13964519D02*
G01*
X35990627Y-13971037D01*
X36160466Y-14022557D01*
X36316991Y-14106222D01*
X36352729Y-14135552D01*
X36454186Y-14218814D01*
X36534038Y-14316115D01*
X36566778Y-14356009D01*
X36650443Y-14512534D01*
X36701963Y-14682373D01*
X36719359Y-14859000D01*
X36701963Y-15035627D01*
X36650443Y-15205466D01*
X36566778Y-15361991D01*
X36552850Y-15378962D01*
X36454186Y-15499186D01*
X36352729Y-15582448D01*
X36316991Y-15611778D01*
X36160466Y-15695443D01*
X35990627Y-15746963D01*
X35924443Y-15753481D01*
X35858260Y-15760000D01*
X35769740Y-15760000D01*
X35703557Y-15753481D01*
X35637373Y-15746963D01*
X35467534Y-15695443D01*
X35311009Y-15611778D01*
X35275271Y-15582448D01*
X35173814Y-15499186D01*
X35075150Y-15378962D01*
X35061222Y-15361991D01*
X34977557Y-15205466D01*
X34926037Y-15035627D01*
X34908641Y-14859000D01*
X34926037Y-14682373D01*
X34977557Y-14512534D01*
X35061222Y-14356009D01*
X35093962Y-14316115D01*
X35173814Y-14218814D01*
X35275271Y-14135552D01*
X35311009Y-14106222D01*
X35467534Y-14022557D01*
X35637373Y-13971037D01*
X35703557Y-13964519D01*
X35769740Y-13958000D01*
X35858260Y-13958000D01*
X35924443Y-13964519D01*
X35924443Y-13964519D01*
G37*
G36*
X33384443Y-13964519D02*
G01*
X33450627Y-13971037D01*
X33620466Y-14022557D01*
X33776991Y-14106222D01*
X33812729Y-14135552D01*
X33914186Y-14218814D01*
X33994038Y-14316115D01*
X34026778Y-14356009D01*
X34110443Y-14512534D01*
X34161963Y-14682373D01*
X34179359Y-14859000D01*
X34161963Y-15035627D01*
X34110443Y-15205466D01*
X34026778Y-15361991D01*
X34012850Y-15378962D01*
X33914186Y-15499186D01*
X33812729Y-15582448D01*
X33776991Y-15611778D01*
X33620466Y-15695443D01*
X33450627Y-15746963D01*
X33384443Y-15753481D01*
X33318260Y-15760000D01*
X33229740Y-15760000D01*
X33163557Y-15753481D01*
X33097373Y-15746963D01*
X32927534Y-15695443D01*
X32771009Y-15611778D01*
X32735271Y-15582448D01*
X32633814Y-15499186D01*
X32535150Y-15378962D01*
X32521222Y-15361991D01*
X32437557Y-15205466D01*
X32386037Y-15035627D01*
X32368641Y-14859000D01*
X32386037Y-14682373D01*
X32437557Y-14512534D01*
X32521222Y-14356009D01*
X32553962Y-14316115D01*
X32633814Y-14218814D01*
X32735271Y-14135552D01*
X32771009Y-14106222D01*
X32927534Y-14022557D01*
X33097373Y-13971037D01*
X33163557Y-13964519D01*
X33229740Y-13958000D01*
X33318260Y-13958000D01*
X33384443Y-13964519D01*
X33384443Y-13964519D01*
G37*
G36*
X15604443Y-13964519D02*
G01*
X15670627Y-13971037D01*
X15840466Y-14022557D01*
X15996991Y-14106222D01*
X16032729Y-14135552D01*
X16134186Y-14218814D01*
X16214038Y-14316115D01*
X16246778Y-14356009D01*
X16330443Y-14512534D01*
X16381963Y-14682373D01*
X16399359Y-14859000D01*
X16381963Y-15035627D01*
X16330443Y-15205466D01*
X16246778Y-15361991D01*
X16232850Y-15378962D01*
X16134186Y-15499186D01*
X16032729Y-15582448D01*
X15996991Y-15611778D01*
X15840466Y-15695443D01*
X15670627Y-15746963D01*
X15604443Y-15753481D01*
X15538260Y-15760000D01*
X15449740Y-15760000D01*
X15383557Y-15753481D01*
X15317373Y-15746963D01*
X15147534Y-15695443D01*
X14991009Y-15611778D01*
X14955271Y-15582448D01*
X14853814Y-15499186D01*
X14755150Y-15378962D01*
X14741222Y-15361991D01*
X14657557Y-15205466D01*
X14606037Y-15035627D01*
X14588641Y-14859000D01*
X14606037Y-14682373D01*
X14657557Y-14512534D01*
X14741222Y-14356009D01*
X14773962Y-14316115D01*
X14853814Y-14218814D01*
X14955271Y-14135552D01*
X14991009Y-14106222D01*
X15147534Y-14022557D01*
X15317373Y-13971037D01*
X15383557Y-13964519D01*
X15449740Y-13958000D01*
X15538260Y-13958000D01*
X15604443Y-13964519D01*
X15604443Y-13964519D01*
G37*
G36*
X18144443Y-13964519D02*
G01*
X18210627Y-13971037D01*
X18380466Y-14022557D01*
X18536991Y-14106222D01*
X18572729Y-14135552D01*
X18674186Y-14218814D01*
X18754038Y-14316115D01*
X18786778Y-14356009D01*
X18870443Y-14512534D01*
X18921963Y-14682373D01*
X18939359Y-14859000D01*
X18921963Y-15035627D01*
X18870443Y-15205466D01*
X18786778Y-15361991D01*
X18772850Y-15378962D01*
X18674186Y-15499186D01*
X18572729Y-15582448D01*
X18536991Y-15611778D01*
X18380466Y-15695443D01*
X18210627Y-15746963D01*
X18144443Y-15753481D01*
X18078260Y-15760000D01*
X17989740Y-15760000D01*
X17923557Y-15753481D01*
X17857373Y-15746963D01*
X17687534Y-15695443D01*
X17531009Y-15611778D01*
X17495271Y-15582448D01*
X17393814Y-15499186D01*
X17295150Y-15378962D01*
X17281222Y-15361991D01*
X17197557Y-15205466D01*
X17146037Y-15035627D01*
X17128641Y-14859000D01*
X17146037Y-14682373D01*
X17197557Y-14512534D01*
X17281222Y-14356009D01*
X17313962Y-14316115D01*
X17393814Y-14218814D01*
X17495271Y-14135552D01*
X17531009Y-14106222D01*
X17687534Y-14022557D01*
X17857373Y-13971037D01*
X17923557Y-13964519D01*
X17989740Y-13958000D01*
X18078260Y-13958000D01*
X18144443Y-13964519D01*
X18144443Y-13964519D01*
G37*
G36*
X20684443Y-13964519D02*
G01*
X20750627Y-13971037D01*
X20920466Y-14022557D01*
X21076991Y-14106222D01*
X21112729Y-14135552D01*
X21214186Y-14218814D01*
X21294038Y-14316115D01*
X21326778Y-14356009D01*
X21410443Y-14512534D01*
X21461963Y-14682373D01*
X21479359Y-14859000D01*
X21461963Y-15035627D01*
X21410443Y-15205466D01*
X21326778Y-15361991D01*
X21312850Y-15378962D01*
X21214186Y-15499186D01*
X21112729Y-15582448D01*
X21076991Y-15611778D01*
X20920466Y-15695443D01*
X20750627Y-15746963D01*
X20684443Y-15753481D01*
X20618260Y-15760000D01*
X20529740Y-15760000D01*
X20463557Y-15753481D01*
X20397373Y-15746963D01*
X20227534Y-15695443D01*
X20071009Y-15611778D01*
X20035271Y-15582448D01*
X19933814Y-15499186D01*
X19835150Y-15378962D01*
X19821222Y-15361991D01*
X19737557Y-15205466D01*
X19686037Y-15035627D01*
X19668641Y-14859000D01*
X19686037Y-14682373D01*
X19737557Y-14512534D01*
X19821222Y-14356009D01*
X19853962Y-14316115D01*
X19933814Y-14218814D01*
X20035271Y-14135552D01*
X20071009Y-14106222D01*
X20227534Y-14022557D01*
X20397373Y-13971037D01*
X20463557Y-13964519D01*
X20529740Y-13958000D01*
X20618260Y-13958000D01*
X20684443Y-13964519D01*
X20684443Y-13964519D01*
G37*
G36*
X23224443Y-13964519D02*
G01*
X23290627Y-13971037D01*
X23460466Y-14022557D01*
X23616991Y-14106222D01*
X23652729Y-14135552D01*
X23754186Y-14218814D01*
X23834038Y-14316115D01*
X23866778Y-14356009D01*
X23950443Y-14512534D01*
X24001963Y-14682373D01*
X24019359Y-14859000D01*
X24001963Y-15035627D01*
X23950443Y-15205466D01*
X23866778Y-15361991D01*
X23852850Y-15378962D01*
X23754186Y-15499186D01*
X23652729Y-15582448D01*
X23616991Y-15611778D01*
X23460466Y-15695443D01*
X23290627Y-15746963D01*
X23224443Y-15753481D01*
X23158260Y-15760000D01*
X23069740Y-15760000D01*
X23003557Y-15753481D01*
X22937373Y-15746963D01*
X22767534Y-15695443D01*
X22611009Y-15611778D01*
X22575271Y-15582448D01*
X22473814Y-15499186D01*
X22375150Y-15378962D01*
X22361222Y-15361991D01*
X22277557Y-15205466D01*
X22226037Y-15035627D01*
X22208641Y-14859000D01*
X22226037Y-14682373D01*
X22277557Y-14512534D01*
X22361222Y-14356009D01*
X22393962Y-14316115D01*
X22473814Y-14218814D01*
X22575271Y-14135552D01*
X22611009Y-14106222D01*
X22767534Y-14022557D01*
X22937373Y-13971037D01*
X23003557Y-13964519D01*
X23069740Y-13958000D01*
X23158260Y-13958000D01*
X23224443Y-13964519D01*
X23224443Y-13964519D01*
G37*
G36*
X25764443Y-13964519D02*
G01*
X25830627Y-13971037D01*
X26000466Y-14022557D01*
X26156991Y-14106222D01*
X26192729Y-14135552D01*
X26294186Y-14218814D01*
X26374038Y-14316115D01*
X26406778Y-14356009D01*
X26490443Y-14512534D01*
X26541963Y-14682373D01*
X26559359Y-14859000D01*
X26541963Y-15035627D01*
X26490443Y-15205466D01*
X26406778Y-15361991D01*
X26392850Y-15378962D01*
X26294186Y-15499186D01*
X26192729Y-15582448D01*
X26156991Y-15611778D01*
X26000466Y-15695443D01*
X25830627Y-15746963D01*
X25764443Y-15753481D01*
X25698260Y-15760000D01*
X25609740Y-15760000D01*
X25543557Y-15753481D01*
X25477373Y-15746963D01*
X25307534Y-15695443D01*
X25151009Y-15611778D01*
X25115271Y-15582448D01*
X25013814Y-15499186D01*
X24915150Y-15378962D01*
X24901222Y-15361991D01*
X24817557Y-15205466D01*
X24766037Y-15035627D01*
X24748641Y-14859000D01*
X24766037Y-14682373D01*
X24817557Y-14512534D01*
X24901222Y-14356009D01*
X24933962Y-14316115D01*
X25013814Y-14218814D01*
X25115271Y-14135552D01*
X25151009Y-14106222D01*
X25307534Y-14022557D01*
X25477373Y-13971037D01*
X25543557Y-13964519D01*
X25609740Y-13958000D01*
X25698260Y-13958000D01*
X25764443Y-13964519D01*
X25764443Y-13964519D01*
G37*
G36*
X28304443Y-13964519D02*
G01*
X28370627Y-13971037D01*
X28540466Y-14022557D01*
X28696991Y-14106222D01*
X28732729Y-14135552D01*
X28834186Y-14218814D01*
X28914038Y-14316115D01*
X28946778Y-14356009D01*
X29030443Y-14512534D01*
X29081963Y-14682373D01*
X29099359Y-14859000D01*
X29081963Y-15035627D01*
X29030443Y-15205466D01*
X28946778Y-15361991D01*
X28932850Y-15378962D01*
X28834186Y-15499186D01*
X28732729Y-15582448D01*
X28696991Y-15611778D01*
X28540466Y-15695443D01*
X28370627Y-15746963D01*
X28304443Y-15753481D01*
X28238260Y-15760000D01*
X28149740Y-15760000D01*
X28083557Y-15753481D01*
X28017373Y-15746963D01*
X27847534Y-15695443D01*
X27691009Y-15611778D01*
X27655271Y-15582448D01*
X27553814Y-15499186D01*
X27455150Y-15378962D01*
X27441222Y-15361991D01*
X27357557Y-15205466D01*
X27306037Y-15035627D01*
X27288641Y-14859000D01*
X27306037Y-14682373D01*
X27357557Y-14512534D01*
X27441222Y-14356009D01*
X27473962Y-14316115D01*
X27553814Y-14218814D01*
X27655271Y-14135552D01*
X27691009Y-14106222D01*
X27847534Y-14022557D01*
X28017373Y-13971037D01*
X28083557Y-13964519D01*
X28149740Y-13958000D01*
X28238260Y-13958000D01*
X28304443Y-13964519D01*
X28304443Y-13964519D01*
G37*
G36*
X57387499Y-13412445D02*
G01*
X57424995Y-13423820D01*
X57459554Y-13442292D01*
X57489847Y-13467153D01*
X57514708Y-13497446D01*
X57533180Y-13532005D01*
X57544555Y-13569501D01*
X57549000Y-13614638D01*
X57549000Y-14353362D01*
X57544555Y-14398499D01*
X57533180Y-14435995D01*
X57514708Y-14470554D01*
X57489847Y-14500847D01*
X57459554Y-14525708D01*
X57424995Y-14544180D01*
X57387499Y-14555555D01*
X57342362Y-14560000D01*
X56703638Y-14560000D01*
X56658501Y-14555555D01*
X56621005Y-14544180D01*
X56586446Y-14525708D01*
X56556153Y-14500847D01*
X56531292Y-14470554D01*
X56512820Y-14435995D01*
X56501445Y-14398499D01*
X56497000Y-14353362D01*
X56497000Y-13614638D01*
X56501445Y-13569501D01*
X56512820Y-13532005D01*
X56531292Y-13497446D01*
X56556153Y-13467153D01*
X56586446Y-13442292D01*
X56621005Y-13423820D01*
X56658501Y-13412445D01*
X56703638Y-13408000D01*
X57342362Y-13408000D01*
X57387499Y-13412445D01*
X57387499Y-13412445D01*
G37*
G36*
X49640499Y-13412445D02*
G01*
X49677995Y-13423820D01*
X49712554Y-13442292D01*
X49742847Y-13467153D01*
X49767708Y-13497446D01*
X49786180Y-13532005D01*
X49797555Y-13569501D01*
X49802000Y-13614638D01*
X49802000Y-14353362D01*
X49797555Y-14398499D01*
X49786180Y-14435995D01*
X49767708Y-14470554D01*
X49742847Y-14500847D01*
X49712554Y-14525708D01*
X49677995Y-14544180D01*
X49640499Y-14555555D01*
X49595362Y-14560000D01*
X48956638Y-14560000D01*
X48911501Y-14555555D01*
X48874005Y-14544180D01*
X48839446Y-14525708D01*
X48809153Y-14500847D01*
X48784292Y-14470554D01*
X48765820Y-14435995D01*
X48754445Y-14398499D01*
X48750000Y-14353362D01*
X48750000Y-13614638D01*
X48754445Y-13569501D01*
X48765820Y-13532005D01*
X48784292Y-13497446D01*
X48809153Y-13467153D01*
X48839446Y-13442292D01*
X48874005Y-13423820D01*
X48911501Y-13412445D01*
X48956638Y-13408000D01*
X49595362Y-13408000D01*
X49640499Y-13412445D01*
X49640499Y-13412445D01*
G37*
G36*
X55706674Y-13212465D02*
G01*
X55744367Y-13223899D01*
X55779103Y-13242466D01*
X55809548Y-13267452D01*
X55834534Y-13297897D01*
X55853101Y-13332633D01*
X55864535Y-13370326D01*
X55869000Y-13415661D01*
X55869000Y-14252339D01*
X55864535Y-14297674D01*
X55853101Y-14335367D01*
X55834534Y-14370103D01*
X55809548Y-14400548D01*
X55779103Y-14425534D01*
X55744367Y-14444101D01*
X55706674Y-14455535D01*
X55661339Y-14460000D01*
X54574661Y-14460000D01*
X54529326Y-14455535D01*
X54491633Y-14444101D01*
X54456897Y-14425534D01*
X54426452Y-14400548D01*
X54401466Y-14370103D01*
X54382899Y-14335367D01*
X54371465Y-14297674D01*
X54367000Y-14252339D01*
X54367000Y-13415661D01*
X54371465Y-13370326D01*
X54382899Y-13332633D01*
X54401466Y-13297897D01*
X54426452Y-13267452D01*
X54456897Y-13242466D01*
X54491633Y-13223899D01*
X54529326Y-13212465D01*
X54574661Y-13208000D01*
X55661339Y-13208000D01*
X55706674Y-13212465D01*
X55706674Y-13212465D01*
G37*
G36*
X51769674Y-13212465D02*
G01*
X51807367Y-13223899D01*
X51842103Y-13242466D01*
X51872548Y-13267452D01*
X51897534Y-13297897D01*
X51916101Y-13332633D01*
X51927535Y-13370326D01*
X51932000Y-13415661D01*
X51932000Y-14252339D01*
X51927535Y-14297674D01*
X51916101Y-14335367D01*
X51897534Y-14370103D01*
X51872548Y-14400548D01*
X51842103Y-14425534D01*
X51807367Y-14444101D01*
X51769674Y-14455535D01*
X51724339Y-14460000D01*
X50637661Y-14460000D01*
X50592326Y-14455535D01*
X50554633Y-14444101D01*
X50519897Y-14425534D01*
X50489452Y-14400548D01*
X50464466Y-14370103D01*
X50445899Y-14335367D01*
X50434465Y-14297674D01*
X50430000Y-14252339D01*
X50430000Y-13415661D01*
X50434465Y-13370326D01*
X50445899Y-13332633D01*
X50464466Y-13297897D01*
X50489452Y-13267452D01*
X50519897Y-13242466D01*
X50554633Y-13223899D01*
X50592326Y-13212465D01*
X50637661Y-13208000D01*
X51724339Y-13208000D01*
X51769674Y-13212465D01*
X51769674Y-13212465D01*
G37*
G36*
X47959674Y-13212465D02*
G01*
X47997367Y-13223899D01*
X48032103Y-13242466D01*
X48062548Y-13267452D01*
X48087534Y-13297897D01*
X48106101Y-13332633D01*
X48117535Y-13370326D01*
X48122000Y-13415661D01*
X48122000Y-14252339D01*
X48117535Y-14297674D01*
X48106101Y-14335367D01*
X48087534Y-14370103D01*
X48062548Y-14400548D01*
X48032103Y-14425534D01*
X47997367Y-14444101D01*
X47959674Y-14455535D01*
X47914339Y-14460000D01*
X46827661Y-14460000D01*
X46782326Y-14455535D01*
X46744633Y-14444101D01*
X46709897Y-14425534D01*
X46679452Y-14400548D01*
X46654466Y-14370103D01*
X46635899Y-14335367D01*
X46624465Y-14297674D01*
X46620000Y-14252339D01*
X46620000Y-13415661D01*
X46624465Y-13370326D01*
X46635899Y-13332633D01*
X46654466Y-13297897D01*
X46679452Y-13267452D01*
X46709897Y-13242466D01*
X46744633Y-13223899D01*
X46782326Y-13212465D01*
X46827661Y-13208000D01*
X47914339Y-13208000D01*
X47959674Y-13212465D01*
X47959674Y-13212465D01*
G37*
G36*
X53577499Y-13285445D02*
G01*
X53614995Y-13296820D01*
X53649554Y-13315292D01*
X53679847Y-13340153D01*
X53704708Y-13370446D01*
X53723180Y-13405005D01*
X53734555Y-13442501D01*
X53739000Y-13487638D01*
X53739000Y-14226362D01*
X53734555Y-14271499D01*
X53723180Y-14308995D01*
X53704708Y-14343554D01*
X53679847Y-14373847D01*
X53649554Y-14398708D01*
X53614995Y-14417180D01*
X53577499Y-14428555D01*
X53532362Y-14433000D01*
X52893638Y-14433000D01*
X52848501Y-14428555D01*
X52811005Y-14417180D01*
X52776446Y-14398708D01*
X52746153Y-14373847D01*
X52721292Y-14343554D01*
X52702820Y-14308995D01*
X52691445Y-14271499D01*
X52687000Y-14226362D01*
X52687000Y-13487638D01*
X52691445Y-13442501D01*
X52702820Y-13405005D01*
X52721292Y-13370446D01*
X52746153Y-13340153D01*
X52776446Y-13315292D01*
X52811005Y-13296820D01*
X52848501Y-13285445D01*
X52893638Y-13281000D01*
X53532362Y-13281000D01*
X53577499Y-13285445D01*
X53577499Y-13285445D01*
G37*
M02*
