G04 #@! TF.GenerationSoftware,KiCad,Pcbnew,(5.1.0-0)*
G04 #@! TF.CreationDate,2019-04-21T16:41:31+03:00*
G04 #@! TF.ProjectId,ovms-swcan-dongle,6f766d73-2d73-4776-9361-6e2d646f6e67,rev?*
G04 #@! TF.SameCoordinates,Original*
G04 #@! TF.FileFunction,Legend,Bot*
G04 #@! TF.FilePolarity,Positive*
%FSLAX46Y46*%
G04 Gerber Fmt 4.6, Leading zero omitted, Abs format (unit mm)*
G04 Created by KiCad (PCBNEW (5.1.0-0)) date 2019-04-21 16:41:31*
%MOMM*%
%LPD*%
G04 APERTURE LIST*
%ADD10C,0.150000*%
%ADD11C,0.120000*%
G04 APERTURE END LIST*
D10*
X56014380Y-13999904D02*
X55823904Y-13999904D01*
X55728666Y-14038000D01*
X55633428Y-14114190D01*
X55585809Y-14266571D01*
X55585809Y-14533238D01*
X55633428Y-14685619D01*
X55728666Y-14761809D01*
X55823904Y-14799904D01*
X56014380Y-14799904D01*
X56109619Y-14761809D01*
X56204857Y-14685619D01*
X56252476Y-14533238D01*
X56252476Y-14266571D01*
X56204857Y-14114190D01*
X56109619Y-14038000D01*
X56014380Y-13999904D01*
X55300095Y-13999904D02*
X54966761Y-14799904D01*
X54633428Y-13999904D01*
X54300095Y-14799904D02*
X54300095Y-13999904D01*
X53966761Y-14571333D01*
X53633428Y-13999904D01*
X53633428Y-14799904D01*
X53204857Y-14761809D02*
X53062000Y-14799904D01*
X52823904Y-14799904D01*
X52728666Y-14761809D01*
X52681047Y-14723714D01*
X52633428Y-14647523D01*
X52633428Y-14571333D01*
X52681047Y-14495142D01*
X52728666Y-14457047D01*
X52823904Y-14418952D01*
X53014380Y-14380857D01*
X53109619Y-14342761D01*
X53157238Y-14304666D01*
X53204857Y-14228476D01*
X53204857Y-14152285D01*
X53157238Y-14076095D01*
X53109619Y-14038000D01*
X53014380Y-13999904D01*
X52776285Y-13999904D01*
X52633428Y-14038000D01*
X51490571Y-14761809D02*
X51347714Y-14799904D01*
X51109619Y-14799904D01*
X51014380Y-14761809D01*
X50966761Y-14723714D01*
X50919142Y-14647523D01*
X50919142Y-14571333D01*
X50966761Y-14495142D01*
X51014380Y-14457047D01*
X51109619Y-14418952D01*
X51300095Y-14380857D01*
X51395333Y-14342761D01*
X51442952Y-14304666D01*
X51490571Y-14228476D01*
X51490571Y-14152285D01*
X51442952Y-14076095D01*
X51395333Y-14038000D01*
X51300095Y-13999904D01*
X51062000Y-13999904D01*
X50919142Y-14038000D01*
X50585809Y-13999904D02*
X50347714Y-14799904D01*
X50157238Y-14228476D01*
X49966761Y-14799904D01*
X49728666Y-13999904D01*
X48776285Y-14723714D02*
X48823904Y-14761809D01*
X48966761Y-14799904D01*
X49062000Y-14799904D01*
X49204857Y-14761809D01*
X49300095Y-14685619D01*
X49347714Y-14609428D01*
X49395333Y-14457047D01*
X49395333Y-14342761D01*
X49347714Y-14190380D01*
X49300095Y-14114190D01*
X49204857Y-14038000D01*
X49062000Y-13999904D01*
X48966761Y-13999904D01*
X48823904Y-14038000D01*
X48776285Y-14076095D01*
X48395333Y-14571333D02*
X47919142Y-14571333D01*
X48490571Y-14799904D02*
X48157238Y-13999904D01*
X47823904Y-14799904D01*
X47490571Y-14799904D02*
X47490571Y-13999904D01*
X46919142Y-14799904D01*
X46919142Y-13999904D01*
X55752476Y-16149904D02*
X55752476Y-15349904D01*
X55752476Y-16111809D02*
X55847714Y-16149904D01*
X56038190Y-16149904D01*
X56133428Y-16111809D01*
X56181047Y-16073714D01*
X56228666Y-15997523D01*
X56228666Y-15768952D01*
X56181047Y-15692761D01*
X56133428Y-15654666D01*
X56038190Y-15616571D01*
X55847714Y-15616571D01*
X55752476Y-15654666D01*
X55133428Y-16149904D02*
X55228666Y-16111809D01*
X55276285Y-16073714D01*
X55323904Y-15997523D01*
X55323904Y-15768952D01*
X55276285Y-15692761D01*
X55228666Y-15654666D01*
X55133428Y-15616571D01*
X54990571Y-15616571D01*
X54895333Y-15654666D01*
X54847714Y-15692761D01*
X54800095Y-15768952D01*
X54800095Y-15997523D01*
X54847714Y-16073714D01*
X54895333Y-16111809D01*
X54990571Y-16149904D01*
X55133428Y-16149904D01*
X54371523Y-15616571D02*
X54371523Y-16149904D01*
X54371523Y-15692761D02*
X54323904Y-15654666D01*
X54228666Y-15616571D01*
X54085809Y-15616571D01*
X53990571Y-15654666D01*
X53942952Y-15730857D01*
X53942952Y-16149904D01*
X53038190Y-15616571D02*
X53038190Y-16264190D01*
X53085809Y-16340380D01*
X53133428Y-16378476D01*
X53228666Y-16416571D01*
X53371523Y-16416571D01*
X53466761Y-16378476D01*
X53038190Y-16111809D02*
X53133428Y-16149904D01*
X53323904Y-16149904D01*
X53419142Y-16111809D01*
X53466761Y-16073714D01*
X53514380Y-15997523D01*
X53514380Y-15768952D01*
X53466761Y-15692761D01*
X53419142Y-15654666D01*
X53323904Y-15616571D01*
X53133428Y-15616571D01*
X53038190Y-15654666D01*
X52419142Y-16149904D02*
X52514380Y-16111809D01*
X52561999Y-16035619D01*
X52561999Y-15349904D01*
X51657238Y-16111809D02*
X51752476Y-16149904D01*
X51942952Y-16149904D01*
X52038190Y-16111809D01*
X52085809Y-16035619D01*
X52085809Y-15730857D01*
X52038190Y-15654666D01*
X51942952Y-15616571D01*
X51752476Y-15616571D01*
X51657238Y-15654666D01*
X51609619Y-15730857D01*
X51609619Y-15807047D01*
X52085809Y-15883238D01*
X50419142Y-16149904D02*
X50419142Y-15616571D01*
X50419142Y-15768952D02*
X50371523Y-15692761D01*
X50323904Y-15654666D01*
X50228666Y-15616571D01*
X50133428Y-15616571D01*
X49419142Y-16111809D02*
X49514380Y-16149904D01*
X49704857Y-16149904D01*
X49800095Y-16111809D01*
X49847714Y-16035619D01*
X49847714Y-15730857D01*
X49800095Y-15654666D01*
X49704857Y-15616571D01*
X49514380Y-15616571D01*
X49419142Y-15654666D01*
X49371523Y-15730857D01*
X49371523Y-15807047D01*
X49847714Y-15883238D01*
X49038190Y-15616571D02*
X48800095Y-16149904D01*
X48561999Y-15616571D01*
X46895333Y-16149904D02*
X47466761Y-16149904D01*
X47181047Y-16149904D02*
X47181047Y-15349904D01*
X47276285Y-15464190D01*
X47371523Y-15540380D01*
X47466761Y-15578476D01*
D11*
X48984470Y-22070256D02*
X48085202Y-27170256D01*
X24951530Y-22070256D02*
X25850798Y-27170256D01*
X46450421Y-28542000D02*
X27485579Y-28542000D01*
X47349689Y-20122000D02*
X26586311Y-20122000D01*
X45593000Y-17560675D02*
X45843000Y-17127662D01*
X45343000Y-17127662D02*
X45593000Y-17560675D01*
X45843000Y-17127662D02*
X45343000Y-17127662D01*
X56628000Y-29582000D02*
X56628000Y-19082000D01*
X18368000Y-30642000D02*
X55568000Y-30642000D01*
X17308000Y-19082000D02*
X17308000Y-29582000D01*
X55568000Y-18022000D02*
X18368000Y-18022000D01*
X25850798Y-27170256D02*
G75*
G03X27485579Y-28542000I1634781J288256D01*
G01*
X48085202Y-27170256D02*
G75*
G02X46450421Y-28542000I-1634781J288256D01*
G01*
X24951530Y-22070256D02*
G75*
G02X26586311Y-20122000I1634781J288256D01*
G01*
X48984470Y-22070256D02*
G75*
G03X47349689Y-20122000I-1634781J288256D01*
G01*
X18368000Y-30642000D02*
G75*
G02X17308000Y-29582000I0J1060000D01*
G01*
X55568000Y-30642000D02*
G75*
G03X56628000Y-29582000I0J1060000D01*
G01*
X17308000Y-19082000D02*
G75*
G02X18368000Y-18022000I1060000J0D01*
G01*
X55568000Y-18022000D02*
G75*
G02X56628000Y-19082000I0J-1060000D01*
G01*
X38276200Y-31283800D02*
X38276200Y-33743800D01*
X36806200Y-31283800D02*
X38276200Y-31283800D01*
X36806200Y-33743800D02*
X36806200Y-31283800D01*
X16571900Y-20907900D02*
X16571900Y-23367900D01*
X15101900Y-20907900D02*
X16571900Y-20907900D01*
X15101900Y-23367900D02*
X15101900Y-20907900D01*
X41647000Y-32031000D02*
X44107000Y-32031000D01*
X41647000Y-33501000D02*
X41647000Y-32031000D01*
X44107000Y-33501000D02*
X41647000Y-33501000D01*
X30090000Y-32793000D02*
X32550000Y-32793000D01*
X30090000Y-34263000D02*
X30090000Y-32793000D01*
X32550000Y-34263000D02*
X30090000Y-34263000D01*
X33410000Y-32739000D02*
X30950000Y-32739000D01*
X33410000Y-31269000D02*
X33410000Y-32739000D01*
X30950000Y-31269000D02*
X33410000Y-31269000D01*
X18406000Y-32920000D02*
X20866000Y-32920000D01*
X18406000Y-34390000D02*
X18406000Y-32920000D01*
X20866000Y-34390000D02*
X18406000Y-34390000D01*
X21726000Y-32866000D02*
X19266000Y-32866000D01*
X21726000Y-31396000D02*
X21726000Y-32866000D01*
X19266000Y-31396000D02*
X21726000Y-31396000D01*
X24411000Y-34680000D02*
X24411000Y-32220000D01*
X25881000Y-34680000D02*
X24411000Y-34680000D01*
X25881000Y-32220000D02*
X25881000Y-34680000D01*
X25935000Y-34680000D02*
X25935000Y-32220000D01*
X27405000Y-34680000D02*
X25935000Y-34680000D01*
X27405000Y-32220000D02*
X27405000Y-34680000D01*
X13984300Y-34146600D02*
X13984300Y-31686600D01*
X15454300Y-34146600D02*
X13984300Y-34146600D01*
X15454300Y-31686600D02*
X15454300Y-34146600D01*
X15492400Y-25568800D02*
X15492400Y-28028800D01*
X14022400Y-25568800D02*
X15492400Y-25568800D01*
X14022400Y-28028800D02*
X14022400Y-25568800D01*
D10*
X37903104Y-35096514D02*
X37522152Y-34829847D01*
X37903104Y-34639371D02*
X37103104Y-34639371D01*
X37103104Y-34944133D01*
X37141200Y-35020323D01*
X37179295Y-35058419D01*
X37255485Y-35096514D01*
X37369771Y-35096514D01*
X37445961Y-35058419D01*
X37484057Y-35020323D01*
X37522152Y-34944133D01*
X37522152Y-34639371D01*
X37903104Y-35858419D02*
X37903104Y-35401276D01*
X37903104Y-35629847D02*
X37103104Y-35629847D01*
X37217390Y-35553657D01*
X37293580Y-35477466D01*
X37331676Y-35401276D01*
X37369771Y-36544133D02*
X37903104Y-36544133D01*
X37065009Y-36353657D02*
X37636438Y-36163180D01*
X37636438Y-36658419D01*
X14866880Y-21810742D02*
X14390690Y-21477409D01*
X14866880Y-21239314D02*
X13866880Y-21239314D01*
X13866880Y-21620266D01*
X13914500Y-21715504D01*
X13962119Y-21763123D01*
X14057357Y-21810742D01*
X14200214Y-21810742D01*
X14295452Y-21763123D01*
X14343071Y-21715504D01*
X14390690Y-21620266D01*
X14390690Y-21239314D01*
X14866880Y-22763123D02*
X14866880Y-22191695D01*
X14866880Y-22477409D02*
X13866880Y-22477409D01*
X14009738Y-22382171D01*
X14104976Y-22286933D01*
X14152595Y-22191695D01*
X13866880Y-23096457D02*
X13866880Y-23715504D01*
X14247833Y-23382171D01*
X14247833Y-23525028D01*
X14295452Y-23620266D01*
X14343071Y-23667885D01*
X14438309Y-23715504D01*
X14676404Y-23715504D01*
X14771642Y-23667885D01*
X14819261Y-23620266D01*
X14866880Y-23525028D01*
X14866880Y-23239314D01*
X14819261Y-23144076D01*
X14771642Y-23096457D01*
X43473666Y-34648380D02*
X43807000Y-34172190D01*
X44045095Y-34648380D02*
X44045095Y-33648380D01*
X43664142Y-33648380D01*
X43568904Y-33696000D01*
X43521285Y-33743619D01*
X43473666Y-33838857D01*
X43473666Y-33981714D01*
X43521285Y-34076952D01*
X43568904Y-34124571D01*
X43664142Y-34172190D01*
X44045095Y-34172190D01*
X42997476Y-34648380D02*
X42807000Y-34648380D01*
X42711761Y-34600761D01*
X42664142Y-34553142D01*
X42568904Y-34410285D01*
X42521285Y-34219809D01*
X42521285Y-33838857D01*
X42568904Y-33743619D01*
X42616523Y-33696000D01*
X42711761Y-33648380D01*
X42902238Y-33648380D01*
X42997476Y-33696000D01*
X43045095Y-33743619D01*
X43092714Y-33838857D01*
X43092714Y-34076952D01*
X43045095Y-34172190D01*
X42997476Y-34219809D01*
X42902238Y-34267428D01*
X42711761Y-34267428D01*
X42616523Y-34219809D01*
X42568904Y-34172190D01*
X42521285Y-34076952D01*
X34456666Y-33980380D02*
X34790000Y-33504190D01*
X35028095Y-33980380D02*
X35028095Y-32980380D01*
X34647142Y-32980380D01*
X34551904Y-33028000D01*
X34504285Y-33075619D01*
X34456666Y-33170857D01*
X34456666Y-33313714D01*
X34504285Y-33408952D01*
X34551904Y-33456571D01*
X34647142Y-33504190D01*
X35028095Y-33504190D01*
X33885238Y-33408952D02*
X33980476Y-33361333D01*
X34028095Y-33313714D01*
X34075714Y-33218476D01*
X34075714Y-33170857D01*
X34028095Y-33075619D01*
X33980476Y-33028000D01*
X33885238Y-32980380D01*
X33694761Y-32980380D01*
X33599523Y-33028000D01*
X33551904Y-33075619D01*
X33504285Y-33170857D01*
X33504285Y-33218476D01*
X33551904Y-33313714D01*
X33599523Y-33361333D01*
X33694761Y-33408952D01*
X33885238Y-33408952D01*
X33980476Y-33456571D01*
X34028095Y-33504190D01*
X34075714Y-33599428D01*
X34075714Y-33789904D01*
X34028095Y-33885142D01*
X33980476Y-33932761D01*
X33885238Y-33980380D01*
X33694761Y-33980380D01*
X33599523Y-33932761D01*
X33551904Y-33885142D01*
X33504285Y-33789904D01*
X33504285Y-33599428D01*
X33551904Y-33504190D01*
X33599523Y-33456571D01*
X33694761Y-33408952D01*
X34456666Y-32583380D02*
X34790000Y-32107190D01*
X35028095Y-32583380D02*
X35028095Y-31583380D01*
X34647142Y-31583380D01*
X34551904Y-31631000D01*
X34504285Y-31678619D01*
X34456666Y-31773857D01*
X34456666Y-31916714D01*
X34504285Y-32011952D01*
X34551904Y-32059571D01*
X34647142Y-32107190D01*
X35028095Y-32107190D01*
X34123333Y-31583380D02*
X33456666Y-31583380D01*
X33885238Y-32583380D01*
X22899666Y-34107380D02*
X23233000Y-33631190D01*
X23471095Y-34107380D02*
X23471095Y-33107380D01*
X23090142Y-33107380D01*
X22994904Y-33155000D01*
X22947285Y-33202619D01*
X22899666Y-33297857D01*
X22899666Y-33440714D01*
X22947285Y-33535952D01*
X22994904Y-33583571D01*
X23090142Y-33631190D01*
X23471095Y-33631190D01*
X22042523Y-33107380D02*
X22233000Y-33107380D01*
X22328238Y-33155000D01*
X22375857Y-33202619D01*
X22471095Y-33345476D01*
X22518714Y-33535952D01*
X22518714Y-33916904D01*
X22471095Y-34012142D01*
X22423476Y-34059761D01*
X22328238Y-34107380D01*
X22137761Y-34107380D01*
X22042523Y-34059761D01*
X21994904Y-34012142D01*
X21947285Y-33916904D01*
X21947285Y-33678809D01*
X21994904Y-33583571D01*
X22042523Y-33535952D01*
X22137761Y-33488333D01*
X22328238Y-33488333D01*
X22423476Y-33535952D01*
X22471095Y-33583571D01*
X22518714Y-33678809D01*
X22899666Y-32583380D02*
X23233000Y-32107190D01*
X23471095Y-32583380D02*
X23471095Y-31583380D01*
X23090142Y-31583380D01*
X22994904Y-31631000D01*
X22947285Y-31678619D01*
X22899666Y-31773857D01*
X22899666Y-31916714D01*
X22947285Y-32011952D01*
X22994904Y-32059571D01*
X23090142Y-32107190D01*
X23471095Y-32107190D01*
X21994904Y-31583380D02*
X22471095Y-31583380D01*
X22518714Y-32059571D01*
X22471095Y-32011952D01*
X22375857Y-31964333D01*
X22137761Y-31964333D01*
X22042523Y-32011952D01*
X21994904Y-32059571D01*
X21947285Y-32154809D01*
X21947285Y-32392904D01*
X21994904Y-32488142D01*
X22042523Y-32535761D01*
X22137761Y-32583380D01*
X22375857Y-32583380D01*
X22471095Y-32535761D01*
X22518714Y-32488142D01*
X25598380Y-30313333D02*
X25122190Y-29980000D01*
X25598380Y-29741904D02*
X24598380Y-29741904D01*
X24598380Y-30122857D01*
X24646000Y-30218095D01*
X24693619Y-30265714D01*
X24788857Y-30313333D01*
X24931714Y-30313333D01*
X25026952Y-30265714D01*
X25074571Y-30218095D01*
X25122190Y-30122857D01*
X25122190Y-29741904D01*
X24931714Y-31170476D02*
X25598380Y-31170476D01*
X24550761Y-30932380D02*
X25265047Y-30694285D01*
X25265047Y-31313333D01*
X27122380Y-30313333D02*
X26646190Y-29980000D01*
X27122380Y-29741904D02*
X26122380Y-29741904D01*
X26122380Y-30122857D01*
X26170000Y-30218095D01*
X26217619Y-30265714D01*
X26312857Y-30313333D01*
X26455714Y-30313333D01*
X26550952Y-30265714D01*
X26598571Y-30218095D01*
X26646190Y-30122857D01*
X26646190Y-29741904D01*
X26122380Y-30646666D02*
X26122380Y-31265714D01*
X26503333Y-30932380D01*
X26503333Y-31075238D01*
X26550952Y-31170476D01*
X26598571Y-31218095D01*
X26693809Y-31265714D01*
X26931904Y-31265714D01*
X27027142Y-31218095D01*
X27074761Y-31170476D01*
X27122380Y-31075238D01*
X27122380Y-30789523D01*
X27074761Y-30694285D01*
X27027142Y-30646666D01*
X15171680Y-34859933D02*
X14695490Y-34526600D01*
X15171680Y-34288504D02*
X14171680Y-34288504D01*
X14171680Y-34669457D01*
X14219300Y-34764695D01*
X14266919Y-34812314D01*
X14362157Y-34859933D01*
X14505014Y-34859933D01*
X14600252Y-34812314D01*
X14647871Y-34764695D01*
X14695490Y-34669457D01*
X14695490Y-34288504D01*
X14266919Y-35240885D02*
X14219300Y-35288504D01*
X14171680Y-35383742D01*
X14171680Y-35621838D01*
X14219300Y-35717076D01*
X14266919Y-35764695D01*
X14362157Y-35812314D01*
X14457395Y-35812314D01*
X14600252Y-35764695D01*
X15171680Y-35193266D01*
X15171680Y-35812314D01*
X15209780Y-29616133D02*
X14733590Y-29282800D01*
X15209780Y-29044704D02*
X14209780Y-29044704D01*
X14209780Y-29425657D01*
X14257400Y-29520895D01*
X14305019Y-29568514D01*
X14400257Y-29616133D01*
X14543114Y-29616133D01*
X14638352Y-29568514D01*
X14685971Y-29520895D01*
X14733590Y-29425657D01*
X14733590Y-29044704D01*
X15209780Y-30568514D02*
X15209780Y-29997085D01*
X15209780Y-30282800D02*
X14209780Y-30282800D01*
X14352638Y-30187561D01*
X14447876Y-30092323D01*
X14495495Y-29997085D01*
M02*
