G04 #@! TF.GenerationSoftware,KiCad,Pcbnew,(5.1.0-0)*
G04 #@! TF.CreationDate,2019-04-23T20:34:44+03:00*
G04 #@! TF.ProjectId,ovms-swcan-dongle,6f766d73-2d73-4776-9361-6e2d646f6e67,rev?*
G04 #@! TF.SameCoordinates,Original*
G04 #@! TF.FileFunction,Copper,L4,Bot*
G04 #@! TF.FilePolarity,Positive*
%FSLAX46Y46*%
G04 Gerber Fmt 4.6, Leading zero omitted, Abs format (unit mm)*
G04 Created by KiCad (PCBNEW (5.1.0-0)) date 2019-04-23 20:34:44*
%MOMM*%
%LPD*%
G04 APERTURE LIST*
%ADD10O,1.700000X1.700000*%
%ADD11R,1.700000X1.700000*%
%ADD12C,1.700000*%
%ADD13C,4.000000*%
%ADD14C,1.600000*%
%ADD15R,1.600000X1.600000*%
%ADD16C,0.100000*%
%ADD17C,0.950000*%
%ADD18C,0.800000*%
%ADD19C,0.500000*%
%ADD20C,0.250000*%
%ADD21C,0.203300*%
%ADD22C,0.800000*%
G04 APERTURE END LIST*
D10*
X54559200Y-34696400D03*
D11*
X54559200Y-32156400D03*
D10*
X15316200Y-33858200D03*
D11*
X15316200Y-31318200D03*
D10*
X15494000Y-14859000D03*
X18034000Y-14859000D03*
X20574000Y-14859000D03*
X23114000Y-14859000D03*
X25654000Y-14859000D03*
X28194000Y-14859000D03*
X30734000Y-14859000D03*
X33274000Y-14859000D03*
X35814000Y-14859000D03*
X38354000Y-14859000D03*
X40894000Y-14859000D03*
D11*
X43434000Y-14859000D03*
D12*
X43205400Y-30607000D03*
X49705400Y-30607000D03*
X43205400Y-35107000D03*
X49705400Y-35107000D03*
X31597600Y-30607000D03*
X38097600Y-30607000D03*
X31597600Y-35107000D03*
X38097600Y-35107000D03*
X20040600Y-30607000D03*
X26540600Y-30607000D03*
X20040600Y-35107000D03*
X26540600Y-35107000D03*
D13*
X20318000Y-24332000D03*
X53618000Y-24332000D03*
D14*
X29563000Y-26312000D03*
X31853000Y-26312000D03*
X34143000Y-26312000D03*
X36433000Y-26312000D03*
X38723000Y-26312000D03*
X41013000Y-26312000D03*
X43303000Y-26312000D03*
X45593000Y-26312000D03*
X28418000Y-24332000D03*
X30708000Y-24332000D03*
X32998000Y-24332000D03*
X35288000Y-24332000D03*
X37578000Y-24332000D03*
X39868000Y-24332000D03*
X42158000Y-24332000D03*
X44448000Y-24332000D03*
X46738000Y-24332000D03*
X27273000Y-22352000D03*
X29563000Y-22352000D03*
X31853000Y-22352000D03*
X34143000Y-22352000D03*
X36433000Y-22352000D03*
X38723000Y-22352000D03*
X41013000Y-22352000D03*
X43303000Y-22352000D03*
D15*
X45593000Y-22352000D03*
D16*
G36*
X40951579Y-33294944D02*
G01*
X40974634Y-33298363D01*
X40997243Y-33304027D01*
X41019187Y-33311879D01*
X41040257Y-33321844D01*
X41060248Y-33333826D01*
X41078968Y-33347710D01*
X41096238Y-33363362D01*
X41111890Y-33380632D01*
X41125774Y-33399352D01*
X41137756Y-33419343D01*
X41147721Y-33440413D01*
X41155573Y-33462357D01*
X41161237Y-33484966D01*
X41164656Y-33508021D01*
X41165800Y-33531300D01*
X41165800Y-34106300D01*
X41164656Y-34129579D01*
X41161237Y-34152634D01*
X41155573Y-34175243D01*
X41147721Y-34197187D01*
X41137756Y-34218257D01*
X41125774Y-34238248D01*
X41111890Y-34256968D01*
X41096238Y-34274238D01*
X41078968Y-34289890D01*
X41060248Y-34303774D01*
X41040257Y-34315756D01*
X41019187Y-34325721D01*
X40997243Y-34333573D01*
X40974634Y-34339237D01*
X40951579Y-34342656D01*
X40928300Y-34343800D01*
X40453300Y-34343800D01*
X40430021Y-34342656D01*
X40406966Y-34339237D01*
X40384357Y-34333573D01*
X40362413Y-34325721D01*
X40341343Y-34315756D01*
X40321352Y-34303774D01*
X40302632Y-34289890D01*
X40285362Y-34274238D01*
X40269710Y-34256968D01*
X40255826Y-34238248D01*
X40243844Y-34218257D01*
X40233879Y-34197187D01*
X40226027Y-34175243D01*
X40220363Y-34152634D01*
X40216944Y-34129579D01*
X40215800Y-34106300D01*
X40215800Y-33531300D01*
X40216944Y-33508021D01*
X40220363Y-33484966D01*
X40226027Y-33462357D01*
X40233879Y-33440413D01*
X40243844Y-33419343D01*
X40255826Y-33399352D01*
X40269710Y-33380632D01*
X40285362Y-33363362D01*
X40302632Y-33347710D01*
X40321352Y-33333826D01*
X40341343Y-33321844D01*
X40362413Y-33311879D01*
X40384357Y-33304027D01*
X40406966Y-33298363D01*
X40430021Y-33294944D01*
X40453300Y-33293800D01*
X40928300Y-33293800D01*
X40951579Y-33294944D01*
X40951579Y-33294944D01*
G37*
D17*
X40690800Y-33818800D03*
D16*
G36*
X40951579Y-31544944D02*
G01*
X40974634Y-31548363D01*
X40997243Y-31554027D01*
X41019187Y-31561879D01*
X41040257Y-31571844D01*
X41060248Y-31583826D01*
X41078968Y-31597710D01*
X41096238Y-31613362D01*
X41111890Y-31630632D01*
X41125774Y-31649352D01*
X41137756Y-31669343D01*
X41147721Y-31690413D01*
X41155573Y-31712357D01*
X41161237Y-31734966D01*
X41164656Y-31758021D01*
X41165800Y-31781300D01*
X41165800Y-32356300D01*
X41164656Y-32379579D01*
X41161237Y-32402634D01*
X41155573Y-32425243D01*
X41147721Y-32447187D01*
X41137756Y-32468257D01*
X41125774Y-32488248D01*
X41111890Y-32506968D01*
X41096238Y-32524238D01*
X41078968Y-32539890D01*
X41060248Y-32553774D01*
X41040257Y-32565756D01*
X41019187Y-32575721D01*
X40997243Y-32583573D01*
X40974634Y-32589237D01*
X40951579Y-32592656D01*
X40928300Y-32593800D01*
X40453300Y-32593800D01*
X40430021Y-32592656D01*
X40406966Y-32589237D01*
X40384357Y-32583573D01*
X40362413Y-32575721D01*
X40341343Y-32565756D01*
X40321352Y-32553774D01*
X40302632Y-32539890D01*
X40285362Y-32524238D01*
X40269710Y-32506968D01*
X40255826Y-32488248D01*
X40243844Y-32468257D01*
X40233879Y-32447187D01*
X40226027Y-32425243D01*
X40220363Y-32402634D01*
X40216944Y-32379579D01*
X40215800Y-32356300D01*
X40215800Y-31781300D01*
X40216944Y-31758021D01*
X40220363Y-31734966D01*
X40226027Y-31712357D01*
X40233879Y-31690413D01*
X40243844Y-31669343D01*
X40255826Y-31649352D01*
X40269710Y-31630632D01*
X40285362Y-31613362D01*
X40302632Y-31597710D01*
X40321352Y-31583826D01*
X40341343Y-31571844D01*
X40362413Y-31561879D01*
X40384357Y-31554027D01*
X40406966Y-31548363D01*
X40430021Y-31544944D01*
X40453300Y-31543800D01*
X40928300Y-31543800D01*
X40951579Y-31544944D01*
X40951579Y-31544944D01*
G37*
D17*
X40690800Y-32068800D03*
D16*
G36*
X16097679Y-22919044D02*
G01*
X16120734Y-22922463D01*
X16143343Y-22928127D01*
X16165287Y-22935979D01*
X16186357Y-22945944D01*
X16206348Y-22957926D01*
X16225068Y-22971810D01*
X16242338Y-22987462D01*
X16257990Y-23004732D01*
X16271874Y-23023452D01*
X16283856Y-23043443D01*
X16293821Y-23064513D01*
X16301673Y-23086457D01*
X16307337Y-23109066D01*
X16310756Y-23132121D01*
X16311900Y-23155400D01*
X16311900Y-23730400D01*
X16310756Y-23753679D01*
X16307337Y-23776734D01*
X16301673Y-23799343D01*
X16293821Y-23821287D01*
X16283856Y-23842357D01*
X16271874Y-23862348D01*
X16257990Y-23881068D01*
X16242338Y-23898338D01*
X16225068Y-23913990D01*
X16206348Y-23927874D01*
X16186357Y-23939856D01*
X16165287Y-23949821D01*
X16143343Y-23957673D01*
X16120734Y-23963337D01*
X16097679Y-23966756D01*
X16074400Y-23967900D01*
X15599400Y-23967900D01*
X15576121Y-23966756D01*
X15553066Y-23963337D01*
X15530457Y-23957673D01*
X15508513Y-23949821D01*
X15487443Y-23939856D01*
X15467452Y-23927874D01*
X15448732Y-23913990D01*
X15431462Y-23898338D01*
X15415810Y-23881068D01*
X15401926Y-23862348D01*
X15389944Y-23842357D01*
X15379979Y-23821287D01*
X15372127Y-23799343D01*
X15366463Y-23776734D01*
X15363044Y-23753679D01*
X15361900Y-23730400D01*
X15361900Y-23155400D01*
X15363044Y-23132121D01*
X15366463Y-23109066D01*
X15372127Y-23086457D01*
X15379979Y-23064513D01*
X15389944Y-23043443D01*
X15401926Y-23023452D01*
X15415810Y-23004732D01*
X15431462Y-22987462D01*
X15448732Y-22971810D01*
X15467452Y-22957926D01*
X15487443Y-22945944D01*
X15508513Y-22935979D01*
X15530457Y-22928127D01*
X15553066Y-22922463D01*
X15576121Y-22919044D01*
X15599400Y-22917900D01*
X16074400Y-22917900D01*
X16097679Y-22919044D01*
X16097679Y-22919044D01*
G37*
D17*
X15836900Y-23442900D03*
D16*
G36*
X16097679Y-21169044D02*
G01*
X16120734Y-21172463D01*
X16143343Y-21178127D01*
X16165287Y-21185979D01*
X16186357Y-21195944D01*
X16206348Y-21207926D01*
X16225068Y-21221810D01*
X16242338Y-21237462D01*
X16257990Y-21254732D01*
X16271874Y-21273452D01*
X16283856Y-21293443D01*
X16293821Y-21314513D01*
X16301673Y-21336457D01*
X16307337Y-21359066D01*
X16310756Y-21382121D01*
X16311900Y-21405400D01*
X16311900Y-21980400D01*
X16310756Y-22003679D01*
X16307337Y-22026734D01*
X16301673Y-22049343D01*
X16293821Y-22071287D01*
X16283856Y-22092357D01*
X16271874Y-22112348D01*
X16257990Y-22131068D01*
X16242338Y-22148338D01*
X16225068Y-22163990D01*
X16206348Y-22177874D01*
X16186357Y-22189856D01*
X16165287Y-22199821D01*
X16143343Y-22207673D01*
X16120734Y-22213337D01*
X16097679Y-22216756D01*
X16074400Y-22217900D01*
X15599400Y-22217900D01*
X15576121Y-22216756D01*
X15553066Y-22213337D01*
X15530457Y-22207673D01*
X15508513Y-22199821D01*
X15487443Y-22189856D01*
X15467452Y-22177874D01*
X15448732Y-22163990D01*
X15431462Y-22148338D01*
X15415810Y-22131068D01*
X15401926Y-22112348D01*
X15389944Y-22092357D01*
X15379979Y-22071287D01*
X15372127Y-22049343D01*
X15366463Y-22026734D01*
X15363044Y-22003679D01*
X15361900Y-21980400D01*
X15361900Y-21405400D01*
X15363044Y-21382121D01*
X15366463Y-21359066D01*
X15372127Y-21336457D01*
X15379979Y-21314513D01*
X15389944Y-21293443D01*
X15401926Y-21273452D01*
X15415810Y-21254732D01*
X15431462Y-21237462D01*
X15448732Y-21221810D01*
X15467452Y-21207926D01*
X15487443Y-21195944D01*
X15508513Y-21185979D01*
X15530457Y-21178127D01*
X15553066Y-21172463D01*
X15576121Y-21169044D01*
X15599400Y-21167900D01*
X16074400Y-21167900D01*
X16097679Y-21169044D01*
X16097679Y-21169044D01*
G37*
D17*
X15836900Y-21692900D03*
D16*
G36*
X47642379Y-32292144D02*
G01*
X47665434Y-32295563D01*
X47688043Y-32301227D01*
X47709987Y-32309079D01*
X47731057Y-32319044D01*
X47751048Y-32331026D01*
X47769768Y-32344910D01*
X47787038Y-32360562D01*
X47802690Y-32377832D01*
X47816574Y-32396552D01*
X47828556Y-32416543D01*
X47838521Y-32437613D01*
X47846373Y-32459557D01*
X47852037Y-32482166D01*
X47855456Y-32505221D01*
X47856600Y-32528500D01*
X47856600Y-33003500D01*
X47855456Y-33026779D01*
X47852037Y-33049834D01*
X47846373Y-33072443D01*
X47838521Y-33094387D01*
X47828556Y-33115457D01*
X47816574Y-33135448D01*
X47802690Y-33154168D01*
X47787038Y-33171438D01*
X47769768Y-33187090D01*
X47751048Y-33200974D01*
X47731057Y-33212956D01*
X47709987Y-33222921D01*
X47688043Y-33230773D01*
X47665434Y-33236437D01*
X47642379Y-33239856D01*
X47619100Y-33241000D01*
X47044100Y-33241000D01*
X47020821Y-33239856D01*
X46997766Y-33236437D01*
X46975157Y-33230773D01*
X46953213Y-33222921D01*
X46932143Y-33212956D01*
X46912152Y-33200974D01*
X46893432Y-33187090D01*
X46876162Y-33171438D01*
X46860510Y-33154168D01*
X46846626Y-33135448D01*
X46834644Y-33115457D01*
X46824679Y-33094387D01*
X46816827Y-33072443D01*
X46811163Y-33049834D01*
X46807744Y-33026779D01*
X46806600Y-33003500D01*
X46806600Y-32528500D01*
X46807744Y-32505221D01*
X46811163Y-32482166D01*
X46816827Y-32459557D01*
X46824679Y-32437613D01*
X46834644Y-32416543D01*
X46846626Y-32396552D01*
X46860510Y-32377832D01*
X46876162Y-32360562D01*
X46893432Y-32344910D01*
X46912152Y-32331026D01*
X46932143Y-32319044D01*
X46953213Y-32309079D01*
X46975157Y-32301227D01*
X46997766Y-32295563D01*
X47020821Y-32292144D01*
X47044100Y-32291000D01*
X47619100Y-32291000D01*
X47642379Y-32292144D01*
X47642379Y-32292144D01*
G37*
D17*
X47331600Y-32766000D03*
D16*
G36*
X45892379Y-32292144D02*
G01*
X45915434Y-32295563D01*
X45938043Y-32301227D01*
X45959987Y-32309079D01*
X45981057Y-32319044D01*
X46001048Y-32331026D01*
X46019768Y-32344910D01*
X46037038Y-32360562D01*
X46052690Y-32377832D01*
X46066574Y-32396552D01*
X46078556Y-32416543D01*
X46088521Y-32437613D01*
X46096373Y-32459557D01*
X46102037Y-32482166D01*
X46105456Y-32505221D01*
X46106600Y-32528500D01*
X46106600Y-33003500D01*
X46105456Y-33026779D01*
X46102037Y-33049834D01*
X46096373Y-33072443D01*
X46088521Y-33094387D01*
X46078556Y-33115457D01*
X46066574Y-33135448D01*
X46052690Y-33154168D01*
X46037038Y-33171438D01*
X46019768Y-33187090D01*
X46001048Y-33200974D01*
X45981057Y-33212956D01*
X45959987Y-33222921D01*
X45938043Y-33230773D01*
X45915434Y-33236437D01*
X45892379Y-33239856D01*
X45869100Y-33241000D01*
X45294100Y-33241000D01*
X45270821Y-33239856D01*
X45247766Y-33236437D01*
X45225157Y-33230773D01*
X45203213Y-33222921D01*
X45182143Y-33212956D01*
X45162152Y-33200974D01*
X45143432Y-33187090D01*
X45126162Y-33171438D01*
X45110510Y-33154168D01*
X45096626Y-33135448D01*
X45084644Y-33115457D01*
X45074679Y-33094387D01*
X45066827Y-33072443D01*
X45061163Y-33049834D01*
X45057744Y-33026779D01*
X45056600Y-33003500D01*
X45056600Y-32528500D01*
X45057744Y-32505221D01*
X45061163Y-32482166D01*
X45066827Y-32459557D01*
X45074679Y-32437613D01*
X45084644Y-32416543D01*
X45096626Y-32396552D01*
X45110510Y-32377832D01*
X45126162Y-32360562D01*
X45143432Y-32344910D01*
X45162152Y-32331026D01*
X45182143Y-32319044D01*
X45203213Y-32309079D01*
X45225157Y-32301227D01*
X45247766Y-32295563D01*
X45270821Y-32292144D01*
X45294100Y-32291000D01*
X45869100Y-32291000D01*
X45892379Y-32292144D01*
X45892379Y-32292144D01*
G37*
D17*
X45581600Y-32766000D03*
D16*
G36*
X36085379Y-33054144D02*
G01*
X36108434Y-33057563D01*
X36131043Y-33063227D01*
X36152987Y-33071079D01*
X36174057Y-33081044D01*
X36194048Y-33093026D01*
X36212768Y-33106910D01*
X36230038Y-33122562D01*
X36245690Y-33139832D01*
X36259574Y-33158552D01*
X36271556Y-33178543D01*
X36281521Y-33199613D01*
X36289373Y-33221557D01*
X36295037Y-33244166D01*
X36298456Y-33267221D01*
X36299600Y-33290500D01*
X36299600Y-33765500D01*
X36298456Y-33788779D01*
X36295037Y-33811834D01*
X36289373Y-33834443D01*
X36281521Y-33856387D01*
X36271556Y-33877457D01*
X36259574Y-33897448D01*
X36245690Y-33916168D01*
X36230038Y-33933438D01*
X36212768Y-33949090D01*
X36194048Y-33962974D01*
X36174057Y-33974956D01*
X36152987Y-33984921D01*
X36131043Y-33992773D01*
X36108434Y-33998437D01*
X36085379Y-34001856D01*
X36062100Y-34003000D01*
X35487100Y-34003000D01*
X35463821Y-34001856D01*
X35440766Y-33998437D01*
X35418157Y-33992773D01*
X35396213Y-33984921D01*
X35375143Y-33974956D01*
X35355152Y-33962974D01*
X35336432Y-33949090D01*
X35319162Y-33933438D01*
X35303510Y-33916168D01*
X35289626Y-33897448D01*
X35277644Y-33877457D01*
X35267679Y-33856387D01*
X35259827Y-33834443D01*
X35254163Y-33811834D01*
X35250744Y-33788779D01*
X35249600Y-33765500D01*
X35249600Y-33290500D01*
X35250744Y-33267221D01*
X35254163Y-33244166D01*
X35259827Y-33221557D01*
X35267679Y-33199613D01*
X35277644Y-33178543D01*
X35289626Y-33158552D01*
X35303510Y-33139832D01*
X35319162Y-33122562D01*
X35336432Y-33106910D01*
X35355152Y-33093026D01*
X35375143Y-33081044D01*
X35396213Y-33071079D01*
X35418157Y-33063227D01*
X35440766Y-33057563D01*
X35463821Y-33054144D01*
X35487100Y-33053000D01*
X36062100Y-33053000D01*
X36085379Y-33054144D01*
X36085379Y-33054144D01*
G37*
D17*
X35774600Y-33528000D03*
D16*
G36*
X34335379Y-33054144D02*
G01*
X34358434Y-33057563D01*
X34381043Y-33063227D01*
X34402987Y-33071079D01*
X34424057Y-33081044D01*
X34444048Y-33093026D01*
X34462768Y-33106910D01*
X34480038Y-33122562D01*
X34495690Y-33139832D01*
X34509574Y-33158552D01*
X34521556Y-33178543D01*
X34531521Y-33199613D01*
X34539373Y-33221557D01*
X34545037Y-33244166D01*
X34548456Y-33267221D01*
X34549600Y-33290500D01*
X34549600Y-33765500D01*
X34548456Y-33788779D01*
X34545037Y-33811834D01*
X34539373Y-33834443D01*
X34531521Y-33856387D01*
X34521556Y-33877457D01*
X34509574Y-33897448D01*
X34495690Y-33916168D01*
X34480038Y-33933438D01*
X34462768Y-33949090D01*
X34444048Y-33962974D01*
X34424057Y-33974956D01*
X34402987Y-33984921D01*
X34381043Y-33992773D01*
X34358434Y-33998437D01*
X34335379Y-34001856D01*
X34312100Y-34003000D01*
X33737100Y-34003000D01*
X33713821Y-34001856D01*
X33690766Y-33998437D01*
X33668157Y-33992773D01*
X33646213Y-33984921D01*
X33625143Y-33974956D01*
X33605152Y-33962974D01*
X33586432Y-33949090D01*
X33569162Y-33933438D01*
X33553510Y-33916168D01*
X33539626Y-33897448D01*
X33527644Y-33877457D01*
X33517679Y-33856387D01*
X33509827Y-33834443D01*
X33504163Y-33811834D01*
X33500744Y-33788779D01*
X33499600Y-33765500D01*
X33499600Y-33290500D01*
X33500744Y-33267221D01*
X33504163Y-33244166D01*
X33509827Y-33221557D01*
X33517679Y-33199613D01*
X33527644Y-33178543D01*
X33539626Y-33158552D01*
X33553510Y-33139832D01*
X33569162Y-33122562D01*
X33586432Y-33106910D01*
X33605152Y-33093026D01*
X33625143Y-33081044D01*
X33646213Y-33071079D01*
X33668157Y-33063227D01*
X33690766Y-33057563D01*
X33713821Y-33054144D01*
X33737100Y-33053000D01*
X34312100Y-33053000D01*
X34335379Y-33054144D01*
X34335379Y-33054144D01*
G37*
D17*
X34024600Y-33528000D03*
D16*
G36*
X34335379Y-31530144D02*
G01*
X34358434Y-31533563D01*
X34381043Y-31539227D01*
X34402987Y-31547079D01*
X34424057Y-31557044D01*
X34444048Y-31569026D01*
X34462768Y-31582910D01*
X34480038Y-31598562D01*
X34495690Y-31615832D01*
X34509574Y-31634552D01*
X34521556Y-31654543D01*
X34531521Y-31675613D01*
X34539373Y-31697557D01*
X34545037Y-31720166D01*
X34548456Y-31743221D01*
X34549600Y-31766500D01*
X34549600Y-32241500D01*
X34548456Y-32264779D01*
X34545037Y-32287834D01*
X34539373Y-32310443D01*
X34531521Y-32332387D01*
X34521556Y-32353457D01*
X34509574Y-32373448D01*
X34495690Y-32392168D01*
X34480038Y-32409438D01*
X34462768Y-32425090D01*
X34444048Y-32438974D01*
X34424057Y-32450956D01*
X34402987Y-32460921D01*
X34381043Y-32468773D01*
X34358434Y-32474437D01*
X34335379Y-32477856D01*
X34312100Y-32479000D01*
X33737100Y-32479000D01*
X33713821Y-32477856D01*
X33690766Y-32474437D01*
X33668157Y-32468773D01*
X33646213Y-32460921D01*
X33625143Y-32450956D01*
X33605152Y-32438974D01*
X33586432Y-32425090D01*
X33569162Y-32409438D01*
X33553510Y-32392168D01*
X33539626Y-32373448D01*
X33527644Y-32353457D01*
X33517679Y-32332387D01*
X33509827Y-32310443D01*
X33504163Y-32287834D01*
X33500744Y-32264779D01*
X33499600Y-32241500D01*
X33499600Y-31766500D01*
X33500744Y-31743221D01*
X33504163Y-31720166D01*
X33509827Y-31697557D01*
X33517679Y-31675613D01*
X33527644Y-31654543D01*
X33539626Y-31634552D01*
X33553510Y-31615832D01*
X33569162Y-31598562D01*
X33586432Y-31582910D01*
X33605152Y-31569026D01*
X33625143Y-31557044D01*
X33646213Y-31547079D01*
X33668157Y-31539227D01*
X33690766Y-31533563D01*
X33713821Y-31530144D01*
X33737100Y-31529000D01*
X34312100Y-31529000D01*
X34335379Y-31530144D01*
X34335379Y-31530144D01*
G37*
D17*
X34024600Y-32004000D03*
D16*
G36*
X36085379Y-31530144D02*
G01*
X36108434Y-31533563D01*
X36131043Y-31539227D01*
X36152987Y-31547079D01*
X36174057Y-31557044D01*
X36194048Y-31569026D01*
X36212768Y-31582910D01*
X36230038Y-31598562D01*
X36245690Y-31615832D01*
X36259574Y-31634552D01*
X36271556Y-31654543D01*
X36281521Y-31675613D01*
X36289373Y-31697557D01*
X36295037Y-31720166D01*
X36298456Y-31743221D01*
X36299600Y-31766500D01*
X36299600Y-32241500D01*
X36298456Y-32264779D01*
X36295037Y-32287834D01*
X36289373Y-32310443D01*
X36281521Y-32332387D01*
X36271556Y-32353457D01*
X36259574Y-32373448D01*
X36245690Y-32392168D01*
X36230038Y-32409438D01*
X36212768Y-32425090D01*
X36194048Y-32438974D01*
X36174057Y-32450956D01*
X36152987Y-32460921D01*
X36131043Y-32468773D01*
X36108434Y-32474437D01*
X36085379Y-32477856D01*
X36062100Y-32479000D01*
X35487100Y-32479000D01*
X35463821Y-32477856D01*
X35440766Y-32474437D01*
X35418157Y-32468773D01*
X35396213Y-32460921D01*
X35375143Y-32450956D01*
X35355152Y-32438974D01*
X35336432Y-32425090D01*
X35319162Y-32409438D01*
X35303510Y-32392168D01*
X35289626Y-32373448D01*
X35277644Y-32353457D01*
X35267679Y-32332387D01*
X35259827Y-32310443D01*
X35254163Y-32287834D01*
X35250744Y-32264779D01*
X35249600Y-32241500D01*
X35249600Y-31766500D01*
X35250744Y-31743221D01*
X35254163Y-31720166D01*
X35259827Y-31697557D01*
X35267679Y-31675613D01*
X35277644Y-31654543D01*
X35289626Y-31634552D01*
X35303510Y-31615832D01*
X35319162Y-31598562D01*
X35336432Y-31582910D01*
X35355152Y-31569026D01*
X35375143Y-31557044D01*
X35396213Y-31547079D01*
X35418157Y-31539227D01*
X35440766Y-31533563D01*
X35463821Y-31530144D01*
X35487100Y-31529000D01*
X36062100Y-31529000D01*
X36085379Y-31530144D01*
X36085379Y-31530144D01*
G37*
D17*
X35774600Y-32004000D03*
D16*
G36*
X24401379Y-33181144D02*
G01*
X24424434Y-33184563D01*
X24447043Y-33190227D01*
X24468987Y-33198079D01*
X24490057Y-33208044D01*
X24510048Y-33220026D01*
X24528768Y-33233910D01*
X24546038Y-33249562D01*
X24561690Y-33266832D01*
X24575574Y-33285552D01*
X24587556Y-33305543D01*
X24597521Y-33326613D01*
X24605373Y-33348557D01*
X24611037Y-33371166D01*
X24614456Y-33394221D01*
X24615600Y-33417500D01*
X24615600Y-33892500D01*
X24614456Y-33915779D01*
X24611037Y-33938834D01*
X24605373Y-33961443D01*
X24597521Y-33983387D01*
X24587556Y-34004457D01*
X24575574Y-34024448D01*
X24561690Y-34043168D01*
X24546038Y-34060438D01*
X24528768Y-34076090D01*
X24510048Y-34089974D01*
X24490057Y-34101956D01*
X24468987Y-34111921D01*
X24447043Y-34119773D01*
X24424434Y-34125437D01*
X24401379Y-34128856D01*
X24378100Y-34130000D01*
X23803100Y-34130000D01*
X23779821Y-34128856D01*
X23756766Y-34125437D01*
X23734157Y-34119773D01*
X23712213Y-34111921D01*
X23691143Y-34101956D01*
X23671152Y-34089974D01*
X23652432Y-34076090D01*
X23635162Y-34060438D01*
X23619510Y-34043168D01*
X23605626Y-34024448D01*
X23593644Y-34004457D01*
X23583679Y-33983387D01*
X23575827Y-33961443D01*
X23570163Y-33938834D01*
X23566744Y-33915779D01*
X23565600Y-33892500D01*
X23565600Y-33417500D01*
X23566744Y-33394221D01*
X23570163Y-33371166D01*
X23575827Y-33348557D01*
X23583679Y-33326613D01*
X23593644Y-33305543D01*
X23605626Y-33285552D01*
X23619510Y-33266832D01*
X23635162Y-33249562D01*
X23652432Y-33233910D01*
X23671152Y-33220026D01*
X23691143Y-33208044D01*
X23712213Y-33198079D01*
X23734157Y-33190227D01*
X23756766Y-33184563D01*
X23779821Y-33181144D01*
X23803100Y-33180000D01*
X24378100Y-33180000D01*
X24401379Y-33181144D01*
X24401379Y-33181144D01*
G37*
D17*
X24090600Y-33655000D03*
D16*
G36*
X22651379Y-33181144D02*
G01*
X22674434Y-33184563D01*
X22697043Y-33190227D01*
X22718987Y-33198079D01*
X22740057Y-33208044D01*
X22760048Y-33220026D01*
X22778768Y-33233910D01*
X22796038Y-33249562D01*
X22811690Y-33266832D01*
X22825574Y-33285552D01*
X22837556Y-33305543D01*
X22847521Y-33326613D01*
X22855373Y-33348557D01*
X22861037Y-33371166D01*
X22864456Y-33394221D01*
X22865600Y-33417500D01*
X22865600Y-33892500D01*
X22864456Y-33915779D01*
X22861037Y-33938834D01*
X22855373Y-33961443D01*
X22847521Y-33983387D01*
X22837556Y-34004457D01*
X22825574Y-34024448D01*
X22811690Y-34043168D01*
X22796038Y-34060438D01*
X22778768Y-34076090D01*
X22760048Y-34089974D01*
X22740057Y-34101956D01*
X22718987Y-34111921D01*
X22697043Y-34119773D01*
X22674434Y-34125437D01*
X22651379Y-34128856D01*
X22628100Y-34130000D01*
X22053100Y-34130000D01*
X22029821Y-34128856D01*
X22006766Y-34125437D01*
X21984157Y-34119773D01*
X21962213Y-34111921D01*
X21941143Y-34101956D01*
X21921152Y-34089974D01*
X21902432Y-34076090D01*
X21885162Y-34060438D01*
X21869510Y-34043168D01*
X21855626Y-34024448D01*
X21843644Y-34004457D01*
X21833679Y-33983387D01*
X21825827Y-33961443D01*
X21820163Y-33938834D01*
X21816744Y-33915779D01*
X21815600Y-33892500D01*
X21815600Y-33417500D01*
X21816744Y-33394221D01*
X21820163Y-33371166D01*
X21825827Y-33348557D01*
X21833679Y-33326613D01*
X21843644Y-33305543D01*
X21855626Y-33285552D01*
X21869510Y-33266832D01*
X21885162Y-33249562D01*
X21902432Y-33233910D01*
X21921152Y-33220026D01*
X21941143Y-33208044D01*
X21962213Y-33198079D01*
X21984157Y-33190227D01*
X22006766Y-33184563D01*
X22029821Y-33181144D01*
X22053100Y-33180000D01*
X22628100Y-33180000D01*
X22651379Y-33181144D01*
X22651379Y-33181144D01*
G37*
D17*
X22340600Y-33655000D03*
D16*
G36*
X22651379Y-31657144D02*
G01*
X22674434Y-31660563D01*
X22697043Y-31666227D01*
X22718987Y-31674079D01*
X22740057Y-31684044D01*
X22760048Y-31696026D01*
X22778768Y-31709910D01*
X22796038Y-31725562D01*
X22811690Y-31742832D01*
X22825574Y-31761552D01*
X22837556Y-31781543D01*
X22847521Y-31802613D01*
X22855373Y-31824557D01*
X22861037Y-31847166D01*
X22864456Y-31870221D01*
X22865600Y-31893500D01*
X22865600Y-32368500D01*
X22864456Y-32391779D01*
X22861037Y-32414834D01*
X22855373Y-32437443D01*
X22847521Y-32459387D01*
X22837556Y-32480457D01*
X22825574Y-32500448D01*
X22811690Y-32519168D01*
X22796038Y-32536438D01*
X22778768Y-32552090D01*
X22760048Y-32565974D01*
X22740057Y-32577956D01*
X22718987Y-32587921D01*
X22697043Y-32595773D01*
X22674434Y-32601437D01*
X22651379Y-32604856D01*
X22628100Y-32606000D01*
X22053100Y-32606000D01*
X22029821Y-32604856D01*
X22006766Y-32601437D01*
X21984157Y-32595773D01*
X21962213Y-32587921D01*
X21941143Y-32577956D01*
X21921152Y-32565974D01*
X21902432Y-32552090D01*
X21885162Y-32536438D01*
X21869510Y-32519168D01*
X21855626Y-32500448D01*
X21843644Y-32480457D01*
X21833679Y-32459387D01*
X21825827Y-32437443D01*
X21820163Y-32414834D01*
X21816744Y-32391779D01*
X21815600Y-32368500D01*
X21815600Y-31893500D01*
X21816744Y-31870221D01*
X21820163Y-31847166D01*
X21825827Y-31824557D01*
X21833679Y-31802613D01*
X21843644Y-31781543D01*
X21855626Y-31761552D01*
X21869510Y-31742832D01*
X21885162Y-31725562D01*
X21902432Y-31709910D01*
X21921152Y-31696026D01*
X21941143Y-31684044D01*
X21962213Y-31674079D01*
X21984157Y-31666227D01*
X22006766Y-31660563D01*
X22029821Y-31657144D01*
X22053100Y-31656000D01*
X22628100Y-31656000D01*
X22651379Y-31657144D01*
X22651379Y-31657144D01*
G37*
D17*
X22340600Y-32131000D03*
D16*
G36*
X24401379Y-31657144D02*
G01*
X24424434Y-31660563D01*
X24447043Y-31666227D01*
X24468987Y-31674079D01*
X24490057Y-31684044D01*
X24510048Y-31696026D01*
X24528768Y-31709910D01*
X24546038Y-31725562D01*
X24561690Y-31742832D01*
X24575574Y-31761552D01*
X24587556Y-31781543D01*
X24597521Y-31802613D01*
X24605373Y-31824557D01*
X24611037Y-31847166D01*
X24614456Y-31870221D01*
X24615600Y-31893500D01*
X24615600Y-32368500D01*
X24614456Y-32391779D01*
X24611037Y-32414834D01*
X24605373Y-32437443D01*
X24597521Y-32459387D01*
X24587556Y-32480457D01*
X24575574Y-32500448D01*
X24561690Y-32519168D01*
X24546038Y-32536438D01*
X24528768Y-32552090D01*
X24510048Y-32565974D01*
X24490057Y-32577956D01*
X24468987Y-32587921D01*
X24447043Y-32595773D01*
X24424434Y-32601437D01*
X24401379Y-32604856D01*
X24378100Y-32606000D01*
X23803100Y-32606000D01*
X23779821Y-32604856D01*
X23756766Y-32601437D01*
X23734157Y-32595773D01*
X23712213Y-32587921D01*
X23691143Y-32577956D01*
X23671152Y-32565974D01*
X23652432Y-32552090D01*
X23635162Y-32536438D01*
X23619510Y-32519168D01*
X23605626Y-32500448D01*
X23593644Y-32480457D01*
X23583679Y-32459387D01*
X23575827Y-32437443D01*
X23570163Y-32414834D01*
X23566744Y-32391779D01*
X23565600Y-32368500D01*
X23565600Y-31893500D01*
X23566744Y-31870221D01*
X23570163Y-31847166D01*
X23575827Y-31824557D01*
X23583679Y-31802613D01*
X23593644Y-31781543D01*
X23605626Y-31761552D01*
X23619510Y-31742832D01*
X23635162Y-31725562D01*
X23652432Y-31709910D01*
X23671152Y-31696026D01*
X23691143Y-31684044D01*
X23712213Y-31674079D01*
X23734157Y-31666227D01*
X23756766Y-31660563D01*
X23779821Y-31657144D01*
X23803100Y-31656000D01*
X24378100Y-31656000D01*
X24401379Y-31657144D01*
X24401379Y-31657144D01*
G37*
D17*
X24090600Y-32131000D03*
D16*
G36*
X28556379Y-31621144D02*
G01*
X28579434Y-31624563D01*
X28602043Y-31630227D01*
X28623987Y-31638079D01*
X28645057Y-31648044D01*
X28665048Y-31660026D01*
X28683768Y-31673910D01*
X28701038Y-31689562D01*
X28716690Y-31706832D01*
X28730574Y-31725552D01*
X28742556Y-31745543D01*
X28752521Y-31766613D01*
X28760373Y-31788557D01*
X28766037Y-31811166D01*
X28769456Y-31834221D01*
X28770600Y-31857500D01*
X28770600Y-32432500D01*
X28769456Y-32455779D01*
X28766037Y-32478834D01*
X28760373Y-32501443D01*
X28752521Y-32523387D01*
X28742556Y-32544457D01*
X28730574Y-32564448D01*
X28716690Y-32583168D01*
X28701038Y-32600438D01*
X28683768Y-32616090D01*
X28665048Y-32629974D01*
X28645057Y-32641956D01*
X28623987Y-32651921D01*
X28602043Y-32659773D01*
X28579434Y-32665437D01*
X28556379Y-32668856D01*
X28533100Y-32670000D01*
X28058100Y-32670000D01*
X28034821Y-32668856D01*
X28011766Y-32665437D01*
X27989157Y-32659773D01*
X27967213Y-32651921D01*
X27946143Y-32641956D01*
X27926152Y-32629974D01*
X27907432Y-32616090D01*
X27890162Y-32600438D01*
X27874510Y-32583168D01*
X27860626Y-32564448D01*
X27848644Y-32544457D01*
X27838679Y-32523387D01*
X27830827Y-32501443D01*
X27825163Y-32478834D01*
X27821744Y-32455779D01*
X27820600Y-32432500D01*
X27820600Y-31857500D01*
X27821744Y-31834221D01*
X27825163Y-31811166D01*
X27830827Y-31788557D01*
X27838679Y-31766613D01*
X27848644Y-31745543D01*
X27860626Y-31725552D01*
X27874510Y-31706832D01*
X27890162Y-31689562D01*
X27907432Y-31673910D01*
X27926152Y-31660026D01*
X27946143Y-31648044D01*
X27967213Y-31638079D01*
X27989157Y-31630227D01*
X28011766Y-31624563D01*
X28034821Y-31621144D01*
X28058100Y-31620000D01*
X28533100Y-31620000D01*
X28556379Y-31621144D01*
X28556379Y-31621144D01*
G37*
D17*
X28295600Y-32145000D03*
D16*
G36*
X28556379Y-33371144D02*
G01*
X28579434Y-33374563D01*
X28602043Y-33380227D01*
X28623987Y-33388079D01*
X28645057Y-33398044D01*
X28665048Y-33410026D01*
X28683768Y-33423910D01*
X28701038Y-33439562D01*
X28716690Y-33456832D01*
X28730574Y-33475552D01*
X28742556Y-33495543D01*
X28752521Y-33516613D01*
X28760373Y-33538557D01*
X28766037Y-33561166D01*
X28769456Y-33584221D01*
X28770600Y-33607500D01*
X28770600Y-34182500D01*
X28769456Y-34205779D01*
X28766037Y-34228834D01*
X28760373Y-34251443D01*
X28752521Y-34273387D01*
X28742556Y-34294457D01*
X28730574Y-34314448D01*
X28716690Y-34333168D01*
X28701038Y-34350438D01*
X28683768Y-34366090D01*
X28665048Y-34379974D01*
X28645057Y-34391956D01*
X28623987Y-34401921D01*
X28602043Y-34409773D01*
X28579434Y-34415437D01*
X28556379Y-34418856D01*
X28533100Y-34420000D01*
X28058100Y-34420000D01*
X28034821Y-34418856D01*
X28011766Y-34415437D01*
X27989157Y-34409773D01*
X27967213Y-34401921D01*
X27946143Y-34391956D01*
X27926152Y-34379974D01*
X27907432Y-34366090D01*
X27890162Y-34350438D01*
X27874510Y-34333168D01*
X27860626Y-34314448D01*
X27848644Y-34294457D01*
X27838679Y-34273387D01*
X27830827Y-34251443D01*
X27825163Y-34228834D01*
X27821744Y-34205779D01*
X27820600Y-34182500D01*
X27820600Y-33607500D01*
X27821744Y-33584221D01*
X27825163Y-33561166D01*
X27830827Y-33538557D01*
X27838679Y-33516613D01*
X27848644Y-33495543D01*
X27860626Y-33475552D01*
X27874510Y-33456832D01*
X27890162Y-33439562D01*
X27907432Y-33423910D01*
X27926152Y-33410026D01*
X27946143Y-33398044D01*
X27967213Y-33388079D01*
X27989157Y-33380227D01*
X28011766Y-33374563D01*
X28034821Y-33371144D01*
X28058100Y-33370000D01*
X28533100Y-33370000D01*
X28556379Y-33371144D01*
X28556379Y-33371144D01*
G37*
D17*
X28295600Y-33895000D03*
D16*
G36*
X30080379Y-31621144D02*
G01*
X30103434Y-31624563D01*
X30126043Y-31630227D01*
X30147987Y-31638079D01*
X30169057Y-31648044D01*
X30189048Y-31660026D01*
X30207768Y-31673910D01*
X30225038Y-31689562D01*
X30240690Y-31706832D01*
X30254574Y-31725552D01*
X30266556Y-31745543D01*
X30276521Y-31766613D01*
X30284373Y-31788557D01*
X30290037Y-31811166D01*
X30293456Y-31834221D01*
X30294600Y-31857500D01*
X30294600Y-32432500D01*
X30293456Y-32455779D01*
X30290037Y-32478834D01*
X30284373Y-32501443D01*
X30276521Y-32523387D01*
X30266556Y-32544457D01*
X30254574Y-32564448D01*
X30240690Y-32583168D01*
X30225038Y-32600438D01*
X30207768Y-32616090D01*
X30189048Y-32629974D01*
X30169057Y-32641956D01*
X30147987Y-32651921D01*
X30126043Y-32659773D01*
X30103434Y-32665437D01*
X30080379Y-32668856D01*
X30057100Y-32670000D01*
X29582100Y-32670000D01*
X29558821Y-32668856D01*
X29535766Y-32665437D01*
X29513157Y-32659773D01*
X29491213Y-32651921D01*
X29470143Y-32641956D01*
X29450152Y-32629974D01*
X29431432Y-32616090D01*
X29414162Y-32600438D01*
X29398510Y-32583168D01*
X29384626Y-32564448D01*
X29372644Y-32544457D01*
X29362679Y-32523387D01*
X29354827Y-32501443D01*
X29349163Y-32478834D01*
X29345744Y-32455779D01*
X29344600Y-32432500D01*
X29344600Y-31857500D01*
X29345744Y-31834221D01*
X29349163Y-31811166D01*
X29354827Y-31788557D01*
X29362679Y-31766613D01*
X29372644Y-31745543D01*
X29384626Y-31725552D01*
X29398510Y-31706832D01*
X29414162Y-31689562D01*
X29431432Y-31673910D01*
X29450152Y-31660026D01*
X29470143Y-31648044D01*
X29491213Y-31638079D01*
X29513157Y-31630227D01*
X29535766Y-31624563D01*
X29558821Y-31621144D01*
X29582100Y-31620000D01*
X30057100Y-31620000D01*
X30080379Y-31621144D01*
X30080379Y-31621144D01*
G37*
D17*
X29819600Y-32145000D03*
D16*
G36*
X30080379Y-33371144D02*
G01*
X30103434Y-33374563D01*
X30126043Y-33380227D01*
X30147987Y-33388079D01*
X30169057Y-33398044D01*
X30189048Y-33410026D01*
X30207768Y-33423910D01*
X30225038Y-33439562D01*
X30240690Y-33456832D01*
X30254574Y-33475552D01*
X30266556Y-33495543D01*
X30276521Y-33516613D01*
X30284373Y-33538557D01*
X30290037Y-33561166D01*
X30293456Y-33584221D01*
X30294600Y-33607500D01*
X30294600Y-34182500D01*
X30293456Y-34205779D01*
X30290037Y-34228834D01*
X30284373Y-34251443D01*
X30276521Y-34273387D01*
X30266556Y-34294457D01*
X30254574Y-34314448D01*
X30240690Y-34333168D01*
X30225038Y-34350438D01*
X30207768Y-34366090D01*
X30189048Y-34379974D01*
X30169057Y-34391956D01*
X30147987Y-34401921D01*
X30126043Y-34409773D01*
X30103434Y-34415437D01*
X30080379Y-34418856D01*
X30057100Y-34420000D01*
X29582100Y-34420000D01*
X29558821Y-34418856D01*
X29535766Y-34415437D01*
X29513157Y-34409773D01*
X29491213Y-34401921D01*
X29470143Y-34391956D01*
X29450152Y-34379974D01*
X29431432Y-34366090D01*
X29414162Y-34350438D01*
X29398510Y-34333168D01*
X29384626Y-34314448D01*
X29372644Y-34294457D01*
X29362679Y-34273387D01*
X29354827Y-34251443D01*
X29349163Y-34228834D01*
X29345744Y-34205779D01*
X29344600Y-34182500D01*
X29344600Y-33607500D01*
X29345744Y-33584221D01*
X29349163Y-33561166D01*
X29354827Y-33538557D01*
X29362679Y-33516613D01*
X29372644Y-33495543D01*
X29384626Y-33475552D01*
X29398510Y-33456832D01*
X29414162Y-33439562D01*
X29431432Y-33423910D01*
X29450152Y-33410026D01*
X29470143Y-33398044D01*
X29491213Y-33388079D01*
X29513157Y-33380227D01*
X29535766Y-33374563D01*
X29558821Y-33371144D01*
X29582100Y-33370000D01*
X30057100Y-33370000D01*
X30080379Y-33371144D01*
X30080379Y-33371144D01*
G37*
D17*
X29819600Y-33895000D03*
D16*
G36*
X18129679Y-31494144D02*
G01*
X18152734Y-31497563D01*
X18175343Y-31503227D01*
X18197287Y-31511079D01*
X18218357Y-31521044D01*
X18238348Y-31533026D01*
X18257068Y-31546910D01*
X18274338Y-31562562D01*
X18289990Y-31579832D01*
X18303874Y-31598552D01*
X18315856Y-31618543D01*
X18325821Y-31639613D01*
X18333673Y-31661557D01*
X18339337Y-31684166D01*
X18342756Y-31707221D01*
X18343900Y-31730500D01*
X18343900Y-32305500D01*
X18342756Y-32328779D01*
X18339337Y-32351834D01*
X18333673Y-32374443D01*
X18325821Y-32396387D01*
X18315856Y-32417457D01*
X18303874Y-32437448D01*
X18289990Y-32456168D01*
X18274338Y-32473438D01*
X18257068Y-32489090D01*
X18238348Y-32502974D01*
X18218357Y-32514956D01*
X18197287Y-32524921D01*
X18175343Y-32532773D01*
X18152734Y-32538437D01*
X18129679Y-32541856D01*
X18106400Y-32543000D01*
X17631400Y-32543000D01*
X17608121Y-32541856D01*
X17585066Y-32538437D01*
X17562457Y-32532773D01*
X17540513Y-32524921D01*
X17519443Y-32514956D01*
X17499452Y-32502974D01*
X17480732Y-32489090D01*
X17463462Y-32473438D01*
X17447810Y-32456168D01*
X17433926Y-32437448D01*
X17421944Y-32417457D01*
X17411979Y-32396387D01*
X17404127Y-32374443D01*
X17398463Y-32351834D01*
X17395044Y-32328779D01*
X17393900Y-32305500D01*
X17393900Y-31730500D01*
X17395044Y-31707221D01*
X17398463Y-31684166D01*
X17404127Y-31661557D01*
X17411979Y-31639613D01*
X17421944Y-31618543D01*
X17433926Y-31598552D01*
X17447810Y-31579832D01*
X17463462Y-31562562D01*
X17480732Y-31546910D01*
X17499452Y-31533026D01*
X17519443Y-31521044D01*
X17540513Y-31511079D01*
X17562457Y-31503227D01*
X17585066Y-31497563D01*
X17608121Y-31494144D01*
X17631400Y-31493000D01*
X18106400Y-31493000D01*
X18129679Y-31494144D01*
X18129679Y-31494144D01*
G37*
D17*
X17868900Y-32018000D03*
D16*
G36*
X18129679Y-33244144D02*
G01*
X18152734Y-33247563D01*
X18175343Y-33253227D01*
X18197287Y-33261079D01*
X18218357Y-33271044D01*
X18238348Y-33283026D01*
X18257068Y-33296910D01*
X18274338Y-33312562D01*
X18289990Y-33329832D01*
X18303874Y-33348552D01*
X18315856Y-33368543D01*
X18325821Y-33389613D01*
X18333673Y-33411557D01*
X18339337Y-33434166D01*
X18342756Y-33457221D01*
X18343900Y-33480500D01*
X18343900Y-34055500D01*
X18342756Y-34078779D01*
X18339337Y-34101834D01*
X18333673Y-34124443D01*
X18325821Y-34146387D01*
X18315856Y-34167457D01*
X18303874Y-34187448D01*
X18289990Y-34206168D01*
X18274338Y-34223438D01*
X18257068Y-34239090D01*
X18238348Y-34252974D01*
X18218357Y-34264956D01*
X18197287Y-34274921D01*
X18175343Y-34282773D01*
X18152734Y-34288437D01*
X18129679Y-34291856D01*
X18106400Y-34293000D01*
X17631400Y-34293000D01*
X17608121Y-34291856D01*
X17585066Y-34288437D01*
X17562457Y-34282773D01*
X17540513Y-34274921D01*
X17519443Y-34264956D01*
X17499452Y-34252974D01*
X17480732Y-34239090D01*
X17463462Y-34223438D01*
X17447810Y-34206168D01*
X17433926Y-34187448D01*
X17421944Y-34167457D01*
X17411979Y-34146387D01*
X17404127Y-34124443D01*
X17398463Y-34101834D01*
X17395044Y-34078779D01*
X17393900Y-34055500D01*
X17393900Y-33480500D01*
X17395044Y-33457221D01*
X17398463Y-33434166D01*
X17404127Y-33411557D01*
X17411979Y-33389613D01*
X17421944Y-33368543D01*
X17433926Y-33348552D01*
X17447810Y-33329832D01*
X17463462Y-33312562D01*
X17480732Y-33296910D01*
X17499452Y-33283026D01*
X17519443Y-33271044D01*
X17540513Y-33261079D01*
X17562457Y-33253227D01*
X17585066Y-33247563D01*
X17608121Y-33244144D01*
X17631400Y-33243000D01*
X18106400Y-33243000D01*
X18129679Y-33244144D01*
X18129679Y-33244144D01*
G37*
D17*
X17868900Y-33768000D03*
D16*
G36*
X15449979Y-27097344D02*
G01*
X15473034Y-27100763D01*
X15495643Y-27106427D01*
X15517587Y-27114279D01*
X15538657Y-27124244D01*
X15558648Y-27136226D01*
X15577368Y-27150110D01*
X15594638Y-27165762D01*
X15610290Y-27183032D01*
X15624174Y-27201752D01*
X15636156Y-27221743D01*
X15646121Y-27242813D01*
X15653973Y-27264757D01*
X15659637Y-27287366D01*
X15663056Y-27310421D01*
X15664200Y-27333700D01*
X15664200Y-27908700D01*
X15663056Y-27931979D01*
X15659637Y-27955034D01*
X15653973Y-27977643D01*
X15646121Y-27999587D01*
X15636156Y-28020657D01*
X15624174Y-28040648D01*
X15610290Y-28059368D01*
X15594638Y-28076638D01*
X15577368Y-28092290D01*
X15558648Y-28106174D01*
X15538657Y-28118156D01*
X15517587Y-28128121D01*
X15495643Y-28135973D01*
X15473034Y-28141637D01*
X15449979Y-28145056D01*
X15426700Y-28146200D01*
X14951700Y-28146200D01*
X14928421Y-28145056D01*
X14905366Y-28141637D01*
X14882757Y-28135973D01*
X14860813Y-28128121D01*
X14839743Y-28118156D01*
X14819752Y-28106174D01*
X14801032Y-28092290D01*
X14783762Y-28076638D01*
X14768110Y-28059368D01*
X14754226Y-28040648D01*
X14742244Y-28020657D01*
X14732279Y-27999587D01*
X14724427Y-27977643D01*
X14718763Y-27955034D01*
X14715344Y-27931979D01*
X14714200Y-27908700D01*
X14714200Y-27333700D01*
X14715344Y-27310421D01*
X14718763Y-27287366D01*
X14724427Y-27264757D01*
X14732279Y-27242813D01*
X14742244Y-27221743D01*
X14754226Y-27201752D01*
X14768110Y-27183032D01*
X14783762Y-27165762D01*
X14801032Y-27150110D01*
X14819752Y-27136226D01*
X14839743Y-27124244D01*
X14860813Y-27114279D01*
X14882757Y-27106427D01*
X14905366Y-27100763D01*
X14928421Y-27097344D01*
X14951700Y-27096200D01*
X15426700Y-27096200D01*
X15449979Y-27097344D01*
X15449979Y-27097344D01*
G37*
D17*
X15189200Y-27621200D03*
D16*
G36*
X15449979Y-25347344D02*
G01*
X15473034Y-25350763D01*
X15495643Y-25356427D01*
X15517587Y-25364279D01*
X15538657Y-25374244D01*
X15558648Y-25386226D01*
X15577368Y-25400110D01*
X15594638Y-25415762D01*
X15610290Y-25433032D01*
X15624174Y-25451752D01*
X15636156Y-25471743D01*
X15646121Y-25492813D01*
X15653973Y-25514757D01*
X15659637Y-25537366D01*
X15663056Y-25560421D01*
X15664200Y-25583700D01*
X15664200Y-26158700D01*
X15663056Y-26181979D01*
X15659637Y-26205034D01*
X15653973Y-26227643D01*
X15646121Y-26249587D01*
X15636156Y-26270657D01*
X15624174Y-26290648D01*
X15610290Y-26309368D01*
X15594638Y-26326638D01*
X15577368Y-26342290D01*
X15558648Y-26356174D01*
X15538657Y-26368156D01*
X15517587Y-26378121D01*
X15495643Y-26385973D01*
X15473034Y-26391637D01*
X15449979Y-26395056D01*
X15426700Y-26396200D01*
X14951700Y-26396200D01*
X14928421Y-26395056D01*
X14905366Y-26391637D01*
X14882757Y-26385973D01*
X14860813Y-26378121D01*
X14839743Y-26368156D01*
X14819752Y-26356174D01*
X14801032Y-26342290D01*
X14783762Y-26326638D01*
X14768110Y-26309368D01*
X14754226Y-26290648D01*
X14742244Y-26270657D01*
X14732279Y-26249587D01*
X14724427Y-26227643D01*
X14718763Y-26205034D01*
X14715344Y-26181979D01*
X14714200Y-26158700D01*
X14714200Y-25583700D01*
X14715344Y-25560421D01*
X14718763Y-25537366D01*
X14724427Y-25514757D01*
X14732279Y-25492813D01*
X14742244Y-25471743D01*
X14754226Y-25451752D01*
X14768110Y-25433032D01*
X14783762Y-25415762D01*
X14801032Y-25400110D01*
X14819752Y-25386226D01*
X14839743Y-25374244D01*
X14860813Y-25364279D01*
X14882757Y-25356427D01*
X14905366Y-25350763D01*
X14928421Y-25347344D01*
X14951700Y-25346200D01*
X15426700Y-25346200D01*
X15449979Y-25347344D01*
X15449979Y-25347344D01*
G37*
D17*
X15189200Y-25871200D03*
D18*
X46736000Y-29046000D03*
X28422600Y-35433000D03*
X43281600Y-32893000D03*
X19659600Y-33274000D03*
X32613602Y-33401000D03*
X16129000Y-28702000D03*
X32105600Y-32258000D03*
X21005800Y-32283400D03*
X53213000Y-13182600D03*
X25654000Y-27000200D03*
D19*
X46736000Y-29046000D02*
X41873000Y-29046000D01*
X41013000Y-28186000D02*
X41013000Y-26312000D01*
X41873000Y-29046000D02*
X41013000Y-28186000D01*
D20*
X48133000Y-21463000D02*
X43434000Y-16764000D01*
X43434000Y-16764000D02*
X43434000Y-14859000D01*
X48133000Y-25400000D02*
X48133000Y-21463000D01*
X47221000Y-26312000D02*
X48133000Y-25400000D01*
X45593000Y-26312000D02*
X47221000Y-26312000D01*
D21*
X21959600Y-33274000D02*
X22340600Y-33655000D01*
X19659600Y-33274000D02*
X21959600Y-33274000D01*
X33897600Y-33401000D02*
X34024600Y-33528000D01*
X32613602Y-33401000D02*
X33897600Y-33401000D01*
X28422600Y-35433000D02*
X28422600Y-33895000D01*
X19572000Y-33361600D02*
X19659600Y-33274000D01*
X17868900Y-33361600D02*
X19572000Y-33361600D01*
X45313600Y-32893000D02*
X45440600Y-32766000D01*
X43281600Y-32893000D02*
X45313600Y-32893000D01*
X33770600Y-32258000D02*
X34024600Y-32004000D01*
X32105600Y-32258000D02*
X33770600Y-32258000D01*
X31992600Y-32145000D02*
X32105600Y-32258000D01*
X29819600Y-32145000D02*
X31992600Y-32145000D01*
X20860285Y-32258000D02*
X22340600Y-32258000D01*
X21005800Y-32283400D02*
X20860285Y-32258000D01*
X15163800Y-27736800D02*
X15163800Y-27559000D01*
X16129000Y-28702000D02*
X15163800Y-27736800D01*
X40360600Y-32018000D02*
X40741600Y-31637000D01*
X38723000Y-27521600D02*
X38723000Y-26312000D01*
X40690800Y-29489400D02*
X40576500Y-29375100D01*
X40690800Y-32068800D02*
X40690800Y-29489400D01*
X40576500Y-29375100D02*
X38723000Y-27521600D01*
X40640000Y-29438600D02*
X40576500Y-29375100D01*
D20*
X43303000Y-27936000D02*
X43303000Y-26312000D01*
X43688000Y-28321000D02*
X43303000Y-27936000D01*
X48598000Y-28321000D02*
X43688000Y-28321000D01*
D21*
X48598000Y-28321000D02*
X51028600Y-28321000D01*
X51028600Y-28321000D02*
X51892200Y-29184600D01*
X51892200Y-32029400D02*
X54559200Y-34696400D01*
X51892200Y-29184600D02*
X51892200Y-32029400D01*
D20*
X44448000Y-27303000D02*
X44448000Y-24332000D01*
X52789000Y-27686000D02*
X44831000Y-27686000D01*
X54559200Y-29456200D02*
X52789000Y-27686000D01*
X44831000Y-27686000D02*
X44448000Y-27303000D01*
X54559200Y-32156400D02*
X54559200Y-29456200D01*
D21*
X38723000Y-22352000D02*
X38366700Y-22352000D01*
X16473200Y-21056600D02*
X15836900Y-21692900D01*
X34478044Y-21056600D02*
X16473200Y-21056600D01*
X35280600Y-21859156D02*
X34478044Y-21056600D01*
X35280600Y-22758400D02*
X35280600Y-21859156D01*
X36017200Y-23495000D02*
X35280600Y-22758400D01*
X36779200Y-23495000D02*
X36017200Y-23495000D01*
X38723000Y-22352000D02*
X36779200Y-23495000D01*
X24889600Y-32258000D02*
X26540600Y-30607000D01*
X24090600Y-32258000D02*
X24889600Y-32258000D01*
X24090600Y-33655000D02*
X24090600Y-32131000D01*
X36700600Y-32004000D02*
X38097600Y-30607000D01*
X35774600Y-32004000D02*
X36700600Y-32004000D01*
X35774600Y-33528000D02*
X35774600Y-32004000D01*
X48728600Y-30607000D02*
X49019600Y-30607000D01*
X47345600Y-31990000D02*
X48728600Y-30607000D01*
X47345600Y-32766000D02*
X47345600Y-31990000D01*
X19913600Y-30480000D02*
X20040600Y-30607000D01*
X15240000Y-25908000D02*
X17805400Y-28473400D01*
X17805400Y-28473400D02*
X17805400Y-32029400D01*
X15113000Y-25908000D02*
X15240000Y-25908000D01*
X15836900Y-25184100D02*
X15113000Y-25908000D01*
X15836900Y-23442900D02*
X15836900Y-25184100D01*
X18694400Y-31953200D02*
X20040600Y-30607000D01*
X18210500Y-31953200D02*
X18694400Y-31953200D01*
X17868900Y-31611600D02*
X18210500Y-31953200D01*
X31484600Y-30494000D02*
X31597600Y-30607000D01*
X29819600Y-33542000D02*
X29819600Y-33895000D01*
X28422600Y-32145000D02*
X29819600Y-33542000D01*
X30395519Y-30607000D02*
X31597600Y-30607000D01*
X29335600Y-30607000D02*
X30395519Y-30607000D01*
X28422600Y-31520000D02*
X29335600Y-30607000D01*
X28422600Y-32145000D02*
X28422600Y-31520000D01*
X39039800Y-29083000D02*
X37261800Y-29083000D01*
X39598600Y-29641800D02*
X39039800Y-29083000D01*
X39598600Y-33006000D02*
X39598600Y-29641800D01*
X40360600Y-33768000D02*
X39598600Y-33006000D01*
X33121600Y-29083000D02*
X31597600Y-30607000D01*
X37261800Y-29083000D02*
X33121600Y-29083000D01*
X26162000Y-14478000D02*
X25654000Y-14478000D01*
X26162000Y-15748000D02*
X25558183Y-15144183D01*
X26162000Y-18542000D02*
X26162000Y-15748000D01*
X28067000Y-20447000D02*
X26162000Y-18542000D01*
X34528000Y-20447000D02*
X28067000Y-20447000D01*
X36433000Y-22352000D02*
X34528000Y-20447000D01*
D22*
X25749800Y-27000200D02*
X28418000Y-24332000D01*
X25654000Y-27000200D02*
X25749800Y-27000200D01*
M02*
