G04 #@! TF.GenerationSoftware,KiCad,Pcbnew,(5.1.0-0)*
G04 #@! TF.CreationDate,2019-04-21T16:41:31+03:00*
G04 #@! TF.ProjectId,ovms-swcan-dongle,6f766d73-2d73-4776-9361-6e2d646f6e67,rev?*
G04 #@! TF.SameCoordinates,Original*
G04 #@! TF.FileFunction,Legend,Top*
G04 #@! TF.FilePolarity,Positive*
%FSLAX46Y46*%
G04 Gerber Fmt 4.6, Leading zero omitted, Abs format (unit mm)*
G04 Created by KiCad (PCBNEW (5.1.0-0)) date 2019-04-21 16:41:31*
%MOMM*%
%LPD*%
G04 APERTURE LIST*
%ADD10C,0.150000*%
%ADD11C,0.120000*%
G04 APERTURE END LIST*
D10*
X42348285Y-13531809D02*
X42462571Y-13569904D01*
X42653047Y-13569904D01*
X42729238Y-13531809D01*
X42767333Y-13493714D01*
X42805428Y-13417523D01*
X42805428Y-13341333D01*
X42767333Y-13265142D01*
X42729238Y-13227047D01*
X42653047Y-13188952D01*
X42500666Y-13150857D01*
X42424476Y-13112761D01*
X42386380Y-13074666D01*
X42348285Y-12998476D01*
X42348285Y-12922285D01*
X42386380Y-12846095D01*
X42424476Y-12808000D01*
X42500666Y-12769904D01*
X42691142Y-12769904D01*
X42805428Y-12808000D01*
X43072095Y-12769904D02*
X43262571Y-13569904D01*
X43414952Y-12998476D01*
X43567333Y-13569904D01*
X43757809Y-12769904D01*
X44519714Y-13493714D02*
X44481619Y-13531809D01*
X44367333Y-13569904D01*
X44291142Y-13569904D01*
X44176857Y-13531809D01*
X44100666Y-13455619D01*
X44062571Y-13379428D01*
X44024476Y-13227047D01*
X44024476Y-13112761D01*
X44062571Y-12960380D01*
X44100666Y-12884190D01*
X44176857Y-12808000D01*
X44291142Y-12769904D01*
X44367333Y-12769904D01*
X44481619Y-12808000D01*
X44519714Y-12846095D01*
X40284476Y-12808000D02*
X40208285Y-12769904D01*
X40094000Y-12769904D01*
X39979714Y-12808000D01*
X39903523Y-12884190D01*
X39865428Y-12960380D01*
X39827333Y-13112761D01*
X39827333Y-13227047D01*
X39865428Y-13379428D01*
X39903523Y-13455619D01*
X39979714Y-13531809D01*
X40094000Y-13569904D01*
X40170190Y-13569904D01*
X40284476Y-13531809D01*
X40322571Y-13493714D01*
X40322571Y-13227047D01*
X40170190Y-13227047D01*
X40665428Y-13569904D02*
X40665428Y-12769904D01*
X41122571Y-13569904D01*
X41122571Y-12769904D01*
X41503523Y-13569904D02*
X41503523Y-12769904D01*
X41694000Y-12769904D01*
X41808285Y-12808000D01*
X41884476Y-12884190D01*
X41922571Y-12960380D01*
X41960666Y-13112761D01*
X41960666Y-13227047D01*
X41922571Y-13379428D01*
X41884476Y-13455619D01*
X41808285Y-13531809D01*
X41694000Y-13569904D01*
X41503523Y-13569904D01*
X38385714Y-20669047D02*
X38423809Y-20707142D01*
X38461904Y-20821428D01*
X38461904Y-20897619D01*
X38423809Y-21011904D01*
X38347619Y-21088095D01*
X38271428Y-21126190D01*
X38119047Y-21164285D01*
X38004761Y-21164285D01*
X37852380Y-21126190D01*
X37776190Y-21088095D01*
X37700000Y-21011904D01*
X37661904Y-20897619D01*
X37661904Y-20821428D01*
X37700000Y-20707142D01*
X37738095Y-20669047D01*
X38233333Y-20364285D02*
X38233333Y-19983333D01*
X38461904Y-20440476D02*
X37661904Y-20173809D01*
X38461904Y-19907142D01*
X38461904Y-19640476D02*
X37661904Y-19640476D01*
X38461904Y-19183333D01*
X37661904Y-19183333D01*
X37738095Y-18840476D02*
X37700000Y-18802380D01*
X37661904Y-18726190D01*
X37661904Y-18535714D01*
X37700000Y-18459523D01*
X37738095Y-18421428D01*
X37814285Y-18383333D01*
X37890476Y-18383333D01*
X38004761Y-18421428D01*
X38461904Y-18878571D01*
X38461904Y-18383333D01*
X38538095Y-18230952D02*
X38538095Y-17621428D01*
X38461904Y-17430952D02*
X37661904Y-17430952D01*
X38042857Y-17430952D02*
X38042857Y-16973809D01*
X38461904Y-16973809D02*
X37661904Y-16973809D01*
X35845714Y-20573809D02*
X35883809Y-20611904D01*
X35921904Y-20726190D01*
X35921904Y-20802380D01*
X35883809Y-20916666D01*
X35807619Y-20992857D01*
X35731428Y-21030952D01*
X35579047Y-21069047D01*
X35464761Y-21069047D01*
X35312380Y-21030952D01*
X35236190Y-20992857D01*
X35160000Y-20916666D01*
X35121904Y-20802380D01*
X35121904Y-20726190D01*
X35160000Y-20611904D01*
X35198095Y-20573809D01*
X35693333Y-20269047D02*
X35693333Y-19888095D01*
X35921904Y-20345238D02*
X35121904Y-20078571D01*
X35921904Y-19811904D01*
X35921904Y-19545238D02*
X35121904Y-19545238D01*
X35921904Y-19088095D01*
X35121904Y-19088095D01*
X35198095Y-18745238D02*
X35160000Y-18707142D01*
X35121904Y-18630952D01*
X35121904Y-18440476D01*
X35160000Y-18364285D01*
X35198095Y-18326190D01*
X35274285Y-18288095D01*
X35350476Y-18288095D01*
X35464761Y-18326190D01*
X35921904Y-18783333D01*
X35921904Y-18288095D01*
X35998095Y-18135714D02*
X35998095Y-17526190D01*
X35921904Y-16954761D02*
X35921904Y-17335714D01*
X35121904Y-17335714D01*
X33305714Y-20669047D02*
X33343809Y-20707142D01*
X33381904Y-20821428D01*
X33381904Y-20897619D01*
X33343809Y-21011904D01*
X33267619Y-21088095D01*
X33191428Y-21126190D01*
X33039047Y-21164285D01*
X32924761Y-21164285D01*
X32772380Y-21126190D01*
X32696190Y-21088095D01*
X32620000Y-21011904D01*
X32581904Y-20897619D01*
X32581904Y-20821428D01*
X32620000Y-20707142D01*
X32658095Y-20669047D01*
X33153333Y-20364285D02*
X33153333Y-19983333D01*
X33381904Y-20440476D02*
X32581904Y-20173809D01*
X33381904Y-19907142D01*
X33381904Y-19640476D02*
X32581904Y-19640476D01*
X33381904Y-19183333D01*
X32581904Y-19183333D01*
X33381904Y-18383333D02*
X33381904Y-18840476D01*
X33381904Y-18611904D02*
X32581904Y-18611904D01*
X32696190Y-18688095D01*
X32772380Y-18764285D01*
X32810476Y-18840476D01*
X33458095Y-18230952D02*
X33458095Y-17621428D01*
X33381904Y-17430952D02*
X32581904Y-17430952D01*
X32962857Y-17430952D02*
X32962857Y-16973809D01*
X33381904Y-16973809D02*
X32581904Y-16973809D01*
X30816514Y-20573809D02*
X30854609Y-20611904D01*
X30892704Y-20726190D01*
X30892704Y-20802380D01*
X30854609Y-20916666D01*
X30778419Y-20992857D01*
X30702228Y-21030952D01*
X30549847Y-21069047D01*
X30435561Y-21069047D01*
X30283180Y-21030952D01*
X30206990Y-20992857D01*
X30130800Y-20916666D01*
X30092704Y-20802380D01*
X30092704Y-20726190D01*
X30130800Y-20611904D01*
X30168895Y-20573809D01*
X30664133Y-20269047D02*
X30664133Y-19888095D01*
X30892704Y-20345238D02*
X30092704Y-20078571D01*
X30892704Y-19811904D01*
X30892704Y-19545238D02*
X30092704Y-19545238D01*
X30892704Y-19088095D01*
X30092704Y-19088095D01*
X30892704Y-18288095D02*
X30892704Y-18745238D01*
X30892704Y-18516666D02*
X30092704Y-18516666D01*
X30206990Y-18592857D01*
X30283180Y-18669047D01*
X30321276Y-18745238D01*
X30968895Y-18135714D02*
X30968895Y-17526190D01*
X30892704Y-16954761D02*
X30892704Y-17335714D01*
X30092704Y-17335714D01*
X28124114Y-20669047D02*
X28162209Y-20707142D01*
X28200304Y-20821428D01*
X28200304Y-20897619D01*
X28162209Y-21011904D01*
X28086019Y-21088095D01*
X28009828Y-21126190D01*
X27857447Y-21164285D01*
X27743161Y-21164285D01*
X27590780Y-21126190D01*
X27514590Y-21088095D01*
X27438400Y-21011904D01*
X27400304Y-20897619D01*
X27400304Y-20821428D01*
X27438400Y-20707142D01*
X27476495Y-20669047D01*
X27971733Y-20364285D02*
X27971733Y-19983333D01*
X28200304Y-20440476D02*
X27400304Y-20173809D01*
X28200304Y-19907142D01*
X28200304Y-19640476D02*
X27400304Y-19640476D01*
X28200304Y-19183333D01*
X27400304Y-19183333D01*
X27400304Y-18650000D02*
X27400304Y-18573809D01*
X27438400Y-18497619D01*
X27476495Y-18459523D01*
X27552685Y-18421428D01*
X27705066Y-18383333D01*
X27895542Y-18383333D01*
X28047923Y-18421428D01*
X28124114Y-18459523D01*
X28162209Y-18497619D01*
X28200304Y-18573809D01*
X28200304Y-18650000D01*
X28162209Y-18726190D01*
X28124114Y-18764285D01*
X28047923Y-18802380D01*
X27895542Y-18840476D01*
X27705066Y-18840476D01*
X27552685Y-18802380D01*
X27476495Y-18764285D01*
X27438400Y-18726190D01*
X27400304Y-18650000D01*
X28276495Y-18230952D02*
X28276495Y-17621428D01*
X28200304Y-17430952D02*
X27400304Y-17430952D01*
X27781257Y-17430952D02*
X27781257Y-16973809D01*
X28200304Y-16973809D02*
X27400304Y-16973809D01*
X25660314Y-20573809D02*
X25698409Y-20611904D01*
X25736504Y-20726190D01*
X25736504Y-20802380D01*
X25698409Y-20916666D01*
X25622219Y-20992857D01*
X25546028Y-21030952D01*
X25393647Y-21069047D01*
X25279361Y-21069047D01*
X25126980Y-21030952D01*
X25050790Y-20992857D01*
X24974600Y-20916666D01*
X24936504Y-20802380D01*
X24936504Y-20726190D01*
X24974600Y-20611904D01*
X25012695Y-20573809D01*
X25507933Y-20269047D02*
X25507933Y-19888095D01*
X25736504Y-20345238D02*
X24936504Y-20078571D01*
X25736504Y-19811904D01*
X25736504Y-19545238D02*
X24936504Y-19545238D01*
X25736504Y-19088095D01*
X24936504Y-19088095D01*
X24936504Y-18554761D02*
X24936504Y-18478571D01*
X24974600Y-18402380D01*
X25012695Y-18364285D01*
X25088885Y-18326190D01*
X25241266Y-18288095D01*
X25431742Y-18288095D01*
X25584123Y-18326190D01*
X25660314Y-18364285D01*
X25698409Y-18402380D01*
X25736504Y-18478571D01*
X25736504Y-18554761D01*
X25698409Y-18630952D01*
X25660314Y-18669047D01*
X25584123Y-18707142D01*
X25431742Y-18745238D01*
X25241266Y-18745238D01*
X25088885Y-18707142D01*
X25012695Y-18669047D01*
X24974600Y-18630952D01*
X24936504Y-18554761D01*
X25812695Y-18135714D02*
X25812695Y-17526190D01*
X25736504Y-16954761D02*
X25736504Y-17335714D01*
X24936504Y-17335714D01*
X22917142Y-19824523D02*
X22917142Y-19215000D01*
X23221904Y-19519761D02*
X22612380Y-19519761D01*
X22421904Y-18910238D02*
X22421904Y-18415000D01*
X22726666Y-18681666D01*
X22726666Y-18567380D01*
X22764761Y-18491190D01*
X22802857Y-18453095D01*
X22879047Y-18415000D01*
X23069523Y-18415000D01*
X23145714Y-18453095D01*
X23183809Y-18491190D01*
X23221904Y-18567380D01*
X23221904Y-18795952D01*
X23183809Y-18872142D01*
X23145714Y-18910238D01*
X22421904Y-18186428D02*
X23221904Y-17919761D01*
X22421904Y-17653095D01*
X22421904Y-17462619D02*
X22421904Y-16967380D01*
X22726666Y-17234047D01*
X22726666Y-17119761D01*
X22764761Y-17043571D01*
X22802857Y-17005476D01*
X22879047Y-16967380D01*
X23069523Y-16967380D01*
X23145714Y-17005476D01*
X23183809Y-17043571D01*
X23221904Y-17119761D01*
X23221904Y-17348333D01*
X23183809Y-17424523D01*
X23145714Y-17462619D01*
X14840000Y-18643523D02*
X14801904Y-18719714D01*
X14801904Y-18834000D01*
X14840000Y-18948285D01*
X14916190Y-19024476D01*
X14992380Y-19062571D01*
X15144761Y-19100666D01*
X15259047Y-19100666D01*
X15411428Y-19062571D01*
X15487619Y-19024476D01*
X15563809Y-18948285D01*
X15601904Y-18834000D01*
X15601904Y-18757809D01*
X15563809Y-18643523D01*
X15525714Y-18605428D01*
X15259047Y-18605428D01*
X15259047Y-18757809D01*
X15601904Y-18262571D02*
X14801904Y-18262571D01*
X15601904Y-17805428D01*
X14801904Y-17805428D01*
X15601904Y-17424476D02*
X14801904Y-17424476D01*
X14801904Y-17234000D01*
X14840000Y-17119714D01*
X14916190Y-17043523D01*
X14992380Y-17005428D01*
X15144761Y-16967333D01*
X15259047Y-16967333D01*
X15411428Y-17005428D01*
X15487619Y-17043523D01*
X15563809Y-17119714D01*
X15601904Y-17234000D01*
X15601904Y-17424476D01*
X19920000Y-18643523D02*
X19881904Y-18719714D01*
X19881904Y-18834000D01*
X19920000Y-18948285D01*
X19996190Y-19024476D01*
X20072380Y-19062571D01*
X20224761Y-19100666D01*
X20339047Y-19100666D01*
X20491428Y-19062571D01*
X20567619Y-19024476D01*
X20643809Y-18948285D01*
X20681904Y-18834000D01*
X20681904Y-18757809D01*
X20643809Y-18643523D01*
X20605714Y-18605428D01*
X20339047Y-18605428D01*
X20339047Y-18757809D01*
X20681904Y-18262571D02*
X19881904Y-18262571D01*
X20681904Y-17805428D01*
X19881904Y-17805428D01*
X20681904Y-17424476D02*
X19881904Y-17424476D01*
X19881904Y-17234000D01*
X19920000Y-17119714D01*
X19996190Y-17043523D01*
X20072380Y-17005428D01*
X20224761Y-16967333D01*
X20339047Y-16967333D01*
X20491428Y-17005428D01*
X20567619Y-17043523D01*
X20643809Y-17119714D01*
X20681904Y-17234000D01*
X20681904Y-17424476D01*
X17837142Y-19951523D02*
X17837142Y-19342000D01*
X18141904Y-19646761D02*
X17532380Y-19646761D01*
X18141904Y-18542000D02*
X18141904Y-18999142D01*
X18141904Y-18770571D02*
X17341904Y-18770571D01*
X17456190Y-18846761D01*
X17532380Y-18922952D01*
X17570476Y-18999142D01*
X17418095Y-18237238D02*
X17380000Y-18199142D01*
X17341904Y-18122952D01*
X17341904Y-17932476D01*
X17380000Y-17856285D01*
X17418095Y-17818190D01*
X17494285Y-17780095D01*
X17570476Y-17780095D01*
X17684761Y-17818190D01*
X18141904Y-18275333D01*
X18141904Y-17780095D01*
X17341904Y-17551523D02*
X18141904Y-17284857D01*
X17341904Y-17018190D01*
D11*
X44764000Y-14859000D02*
X44764000Y-16189000D01*
X44764000Y-16189000D02*
X43434000Y-16189000D01*
X42164000Y-16189000D02*
X14164000Y-16189000D01*
X14164000Y-13529000D02*
X14164000Y-16189000D01*
X42164000Y-13529000D02*
X14164000Y-13529000D01*
X42164000Y-13529000D02*
X42164000Y-16189000D01*
X40891000Y-17161000D02*
X43691000Y-17161000D01*
X43691000Y-17161000D02*
X43691000Y-19161000D01*
X43691000Y-19161000D02*
X40891000Y-19161000D01*
X40891000Y-19161000D02*
X40891000Y-17161000D01*
X46425800Y-31517000D02*
X46425800Y-34197000D01*
X40185800Y-34197000D02*
X40185800Y-31517000D01*
X40335800Y-29737000D02*
X46275800Y-29737000D01*
X40335800Y-35977000D02*
X46275800Y-35977000D01*
X44720014Y-32857000D02*
G75*
G03X44720014Y-32857000I-1414214J0D01*
G01*
X34818000Y-31517000D02*
X34818000Y-34197000D01*
X28578000Y-34197000D02*
X28578000Y-31517000D01*
X28728000Y-29737000D02*
X34668000Y-29737000D01*
X28728000Y-35977000D02*
X34668000Y-35977000D01*
X33112214Y-32857000D02*
G75*
G03X33112214Y-32857000I-1414214J0D01*
G01*
X23261000Y-31517000D02*
X23261000Y-34197000D01*
X17021000Y-34197000D02*
X17021000Y-31517000D01*
X17171000Y-29737000D02*
X23111000Y-29737000D01*
X17171000Y-35977000D02*
X23111000Y-35977000D01*
X21555214Y-32857000D02*
G75*
G03X21555214Y-32857000I-1414214J0D01*
G01*
X49216000Y-32198000D02*
X50546000Y-32198000D01*
X49216000Y-33528000D02*
X49216000Y-32198000D01*
X49216000Y-34798000D02*
X51876000Y-34798000D01*
X51876000Y-34798000D02*
X51876000Y-34858000D01*
X49216000Y-34798000D02*
X49216000Y-34858000D01*
X49216000Y-34858000D02*
X51876000Y-34858000D01*
X54296000Y-32198000D02*
X55626000Y-32198000D01*
X54296000Y-33528000D02*
X54296000Y-32198000D01*
X54296000Y-34798000D02*
X56956000Y-34798000D01*
X56956000Y-34798000D02*
X56956000Y-34858000D01*
X54296000Y-34798000D02*
X54296000Y-34858000D01*
X54296000Y-34858000D02*
X56956000Y-34858000D01*
X56288000Y-13199000D02*
X56288000Y-15659000D01*
X57758000Y-13199000D02*
X56288000Y-13199000D01*
X57758000Y-15659000D02*
X57758000Y-13199000D01*
X52478000Y-13072000D02*
X52478000Y-15532000D01*
X53948000Y-13072000D02*
X52478000Y-13072000D01*
X53948000Y-15532000D02*
X53948000Y-13072000D01*
X48541000Y-13199000D02*
X48541000Y-15659000D01*
X50011000Y-13199000D02*
X48541000Y-13199000D01*
X50011000Y-15659000D02*
X50011000Y-13199000D01*
X56078000Y-16719000D02*
X56078000Y-13859000D01*
X54158000Y-16719000D02*
X56078000Y-16719000D01*
X54158000Y-13859000D02*
X54158000Y-16719000D01*
X52141000Y-16719000D02*
X52141000Y-13859000D01*
X50221000Y-16719000D02*
X52141000Y-16719000D01*
X50221000Y-13859000D02*
X50221000Y-16719000D01*
X48331000Y-16719000D02*
X48331000Y-13859000D01*
X46411000Y-16719000D02*
X48331000Y-16719000D01*
X46411000Y-13859000D02*
X46411000Y-16719000D01*
D10*
X45216380Y-15192333D02*
X45930666Y-15192333D01*
X46073523Y-15239952D01*
X46168761Y-15335190D01*
X46216380Y-15478047D01*
X46216380Y-15573285D01*
X46216380Y-14192333D02*
X46216380Y-14763761D01*
X46216380Y-14478047D02*
X45216380Y-14478047D01*
X45359238Y-14573285D01*
X45454476Y-14668523D01*
X45502095Y-14763761D01*
X40141000Y-20344333D02*
X40241000Y-20377666D01*
X40407666Y-20377666D01*
X40474333Y-20344333D01*
X40507666Y-20311000D01*
X40541000Y-20244333D01*
X40541000Y-20177666D01*
X40507666Y-20111000D01*
X40474333Y-20077666D01*
X40407666Y-20044333D01*
X40274333Y-20011000D01*
X40207666Y-19977666D01*
X40174333Y-19944333D01*
X40141000Y-19877666D01*
X40141000Y-19811000D01*
X40174333Y-19744333D01*
X40207666Y-19711000D01*
X40274333Y-19677666D01*
X40441000Y-19677666D01*
X40541000Y-19711000D01*
X40774333Y-19677666D02*
X40941000Y-20377666D01*
X41074333Y-19877666D01*
X41207666Y-20377666D01*
X41374333Y-19677666D01*
X42041000Y-20311000D02*
X42007666Y-20344333D01*
X41907666Y-20377666D01*
X41841000Y-20377666D01*
X41741000Y-20344333D01*
X41674333Y-20277666D01*
X41641000Y-20211000D01*
X41607666Y-20077666D01*
X41607666Y-19977666D01*
X41641000Y-19844333D01*
X41674333Y-19777666D01*
X41741000Y-19711000D01*
X41841000Y-19677666D01*
X41907666Y-19677666D01*
X42007666Y-19711000D01*
X42041000Y-19744333D01*
X42174333Y-20444333D02*
X42707666Y-20444333D01*
X42841000Y-20344333D02*
X42941000Y-20377666D01*
X43107666Y-20377666D01*
X43174333Y-20344333D01*
X43207666Y-20311000D01*
X43241000Y-20244333D01*
X43241000Y-20177666D01*
X43207666Y-20111000D01*
X43174333Y-20077666D01*
X43107666Y-20044333D01*
X42974333Y-20011000D01*
X42907666Y-19977666D01*
X42874333Y-19944333D01*
X42841000Y-19877666D01*
X42841000Y-19811000D01*
X42874333Y-19744333D01*
X42907666Y-19711000D01*
X42974333Y-19677666D01*
X43141000Y-19677666D01*
X43241000Y-19711000D01*
X43541000Y-20011000D02*
X43774333Y-20011000D01*
X43874333Y-20377666D02*
X43541000Y-20377666D01*
X43541000Y-19677666D01*
X43874333Y-19677666D01*
X44507666Y-20377666D02*
X44174333Y-20377666D01*
X44174333Y-19677666D01*
X41972466Y-28961761D02*
X42115323Y-29009380D01*
X42353419Y-29009380D01*
X42448657Y-28961761D01*
X42496276Y-28914142D01*
X42543895Y-28818904D01*
X42543895Y-28723666D01*
X42496276Y-28628428D01*
X42448657Y-28580809D01*
X42353419Y-28533190D01*
X42162942Y-28485571D01*
X42067704Y-28437952D01*
X42020085Y-28390333D01*
X41972466Y-28295095D01*
X41972466Y-28199857D01*
X42020085Y-28104619D01*
X42067704Y-28057000D01*
X42162942Y-28009380D01*
X42401038Y-28009380D01*
X42543895Y-28057000D01*
X42877228Y-28009380D02*
X43115323Y-29009380D01*
X43305800Y-28295095D01*
X43496276Y-29009380D01*
X43734371Y-28009380D01*
X44020085Y-28009380D02*
X44639133Y-28009380D01*
X44305800Y-28390333D01*
X44448657Y-28390333D01*
X44543895Y-28437952D01*
X44591514Y-28485571D01*
X44639133Y-28580809D01*
X44639133Y-28818904D01*
X44591514Y-28914142D01*
X44543895Y-28961761D01*
X44448657Y-29009380D01*
X44162942Y-29009380D01*
X44067704Y-28961761D01*
X44020085Y-28914142D01*
X30364666Y-28961761D02*
X30507523Y-29009380D01*
X30745619Y-29009380D01*
X30840857Y-28961761D01*
X30888476Y-28914142D01*
X30936095Y-28818904D01*
X30936095Y-28723666D01*
X30888476Y-28628428D01*
X30840857Y-28580809D01*
X30745619Y-28533190D01*
X30555142Y-28485571D01*
X30459904Y-28437952D01*
X30412285Y-28390333D01*
X30364666Y-28295095D01*
X30364666Y-28199857D01*
X30412285Y-28104619D01*
X30459904Y-28057000D01*
X30555142Y-28009380D01*
X30793238Y-28009380D01*
X30936095Y-28057000D01*
X31269428Y-28009380D02*
X31507523Y-29009380D01*
X31698000Y-28295095D01*
X31888476Y-29009380D01*
X32126571Y-28009380D01*
X32459904Y-28104619D02*
X32507523Y-28057000D01*
X32602761Y-28009380D01*
X32840857Y-28009380D01*
X32936095Y-28057000D01*
X32983714Y-28104619D01*
X33031333Y-28199857D01*
X33031333Y-28295095D01*
X32983714Y-28437952D01*
X32412285Y-29009380D01*
X33031333Y-29009380D01*
X18807666Y-28961761D02*
X18950523Y-29009380D01*
X19188619Y-29009380D01*
X19283857Y-28961761D01*
X19331476Y-28914142D01*
X19379095Y-28818904D01*
X19379095Y-28723666D01*
X19331476Y-28628428D01*
X19283857Y-28580809D01*
X19188619Y-28533190D01*
X18998142Y-28485571D01*
X18902904Y-28437952D01*
X18855285Y-28390333D01*
X18807666Y-28295095D01*
X18807666Y-28199857D01*
X18855285Y-28104619D01*
X18902904Y-28057000D01*
X18998142Y-28009380D01*
X19236238Y-28009380D01*
X19379095Y-28057000D01*
X19712428Y-28009380D02*
X19950523Y-29009380D01*
X20141000Y-28295095D01*
X20331476Y-29009380D01*
X20569571Y-28009380D01*
X21474333Y-29009380D02*
X20902904Y-29009380D01*
X21188619Y-29009380D02*
X21188619Y-28009380D01*
X21093380Y-28152238D01*
X20998142Y-28247476D01*
X20902904Y-28295095D01*
X49284095Y-30650380D02*
X49855523Y-30650380D01*
X49569809Y-31650380D02*
X49569809Y-30650380D01*
X50188857Y-31650380D02*
X50188857Y-30650380D01*
X50569809Y-30650380D01*
X50665047Y-30698000D01*
X50712666Y-30745619D01*
X50760285Y-30840857D01*
X50760285Y-30983714D01*
X50712666Y-31078952D01*
X50665047Y-31126571D01*
X50569809Y-31174190D01*
X50188857Y-31174190D01*
X51141238Y-30745619D02*
X51188857Y-30698000D01*
X51284095Y-30650380D01*
X51522190Y-30650380D01*
X51617428Y-30698000D01*
X51665047Y-30745619D01*
X51712666Y-30840857D01*
X51712666Y-30936095D01*
X51665047Y-31078952D01*
X51093619Y-31650380D01*
X51712666Y-31650380D01*
X54364095Y-30650380D02*
X54935523Y-30650380D01*
X54649809Y-31650380D02*
X54649809Y-30650380D01*
X55268857Y-31650380D02*
X55268857Y-30650380D01*
X55649809Y-30650380D01*
X55745047Y-30698000D01*
X55792666Y-30745619D01*
X55840285Y-30840857D01*
X55840285Y-30983714D01*
X55792666Y-31078952D01*
X55745047Y-31126571D01*
X55649809Y-31174190D01*
X55268857Y-31174190D01*
X56792666Y-31650380D02*
X56221238Y-31650380D01*
X56506952Y-31650380D02*
X56506952Y-30650380D01*
X56411714Y-30793238D01*
X56316476Y-30888476D01*
X56221238Y-30936095D01*
X57475380Y-18803857D02*
X56999190Y-19137190D01*
X57475380Y-19375285D02*
X56475380Y-19375285D01*
X56475380Y-18994333D01*
X56523000Y-18899095D01*
X56570619Y-18851476D01*
X56665857Y-18803857D01*
X56808714Y-18803857D01*
X56903952Y-18851476D01*
X56951571Y-18899095D01*
X56999190Y-18994333D01*
X56999190Y-19375285D01*
X57475380Y-17851476D02*
X57475380Y-18422904D01*
X57475380Y-18137190D02*
X56475380Y-18137190D01*
X56618238Y-18232428D01*
X56713476Y-18327666D01*
X56761095Y-18422904D01*
X56570619Y-17470523D02*
X56523000Y-17422904D01*
X56475380Y-17327666D01*
X56475380Y-17089571D01*
X56523000Y-16994333D01*
X56570619Y-16946714D01*
X56665857Y-16899095D01*
X56761095Y-16899095D01*
X56903952Y-16946714D01*
X57475380Y-17518142D01*
X57475380Y-16899095D01*
X53665380Y-18676857D02*
X53189190Y-19010190D01*
X53665380Y-19248285D02*
X52665380Y-19248285D01*
X52665380Y-18867333D01*
X52713000Y-18772095D01*
X52760619Y-18724476D01*
X52855857Y-18676857D01*
X52998714Y-18676857D01*
X53093952Y-18724476D01*
X53141571Y-18772095D01*
X53189190Y-18867333D01*
X53189190Y-19248285D01*
X53665380Y-17724476D02*
X53665380Y-18295904D01*
X53665380Y-18010190D02*
X52665380Y-18010190D01*
X52808238Y-18105428D01*
X52903476Y-18200666D01*
X52951095Y-18295904D01*
X53665380Y-16772095D02*
X53665380Y-17343523D01*
X53665380Y-17057809D02*
X52665380Y-17057809D01*
X52808238Y-17153047D01*
X52903476Y-17248285D01*
X52951095Y-17343523D01*
X49728380Y-18803857D02*
X49252190Y-19137190D01*
X49728380Y-19375285D02*
X48728380Y-19375285D01*
X48728380Y-18994333D01*
X48776000Y-18899095D01*
X48823619Y-18851476D01*
X48918857Y-18803857D01*
X49061714Y-18803857D01*
X49156952Y-18851476D01*
X49204571Y-18899095D01*
X49252190Y-18994333D01*
X49252190Y-19375285D01*
X49728380Y-17851476D02*
X49728380Y-18422904D01*
X49728380Y-18137190D02*
X48728380Y-18137190D01*
X48871238Y-18232428D01*
X48966476Y-18327666D01*
X49014095Y-18422904D01*
X48728380Y-17232428D02*
X48728380Y-17137190D01*
X48776000Y-17041952D01*
X48823619Y-16994333D01*
X48918857Y-16946714D01*
X49109333Y-16899095D01*
X49347428Y-16899095D01*
X49537904Y-16946714D01*
X49633142Y-16994333D01*
X49680761Y-17041952D01*
X49728380Y-17137190D01*
X49728380Y-17232428D01*
X49680761Y-17327666D01*
X49633142Y-17375285D01*
X49537904Y-17422904D01*
X49347428Y-17470523D01*
X49109333Y-17470523D01*
X48918857Y-17422904D01*
X48823619Y-17375285D01*
X48776000Y-17327666D01*
X48728380Y-17232428D01*
X55570380Y-18073666D02*
X55094190Y-18407000D01*
X55570380Y-18645095D02*
X54570380Y-18645095D01*
X54570380Y-18264142D01*
X54618000Y-18168904D01*
X54665619Y-18121285D01*
X54760857Y-18073666D01*
X54903714Y-18073666D01*
X54998952Y-18121285D01*
X55046571Y-18168904D01*
X55094190Y-18264142D01*
X55094190Y-18645095D01*
X54570380Y-17740333D02*
X55570380Y-17073666D01*
X54570380Y-17073666D02*
X55570380Y-17740333D01*
X50633380Y-18541904D02*
X50633380Y-17970476D01*
X51633380Y-18256190D02*
X50633380Y-18256190D01*
X50633380Y-17732380D02*
X51633380Y-17065714D01*
X50633380Y-17065714D02*
X51633380Y-17732380D01*
X47775761Y-21907190D02*
X47823380Y-21764333D01*
X47823380Y-21526238D01*
X47775761Y-21431000D01*
X47728142Y-21383380D01*
X47632904Y-21335761D01*
X47537666Y-21335761D01*
X47442428Y-21383380D01*
X47394809Y-21431000D01*
X47347190Y-21526238D01*
X47299571Y-21716714D01*
X47251952Y-21811952D01*
X47204333Y-21859571D01*
X47109095Y-21907190D01*
X47013857Y-21907190D01*
X46918619Y-21859571D01*
X46871000Y-21811952D01*
X46823380Y-21716714D01*
X46823380Y-21478619D01*
X46871000Y-21335761D01*
X46823380Y-21050047D02*
X46823380Y-20478619D01*
X47823380Y-20764333D02*
X46823380Y-20764333D01*
X47537666Y-20192904D02*
X47537666Y-19716714D01*
X47823380Y-20288142D02*
X46823380Y-19954809D01*
X47823380Y-19621476D01*
X46823380Y-19431000D02*
X46823380Y-18859571D01*
X47823380Y-19145285D02*
X46823380Y-19145285D01*
X46823380Y-18526238D02*
X47632904Y-18526238D01*
X47728142Y-18478619D01*
X47775761Y-18431000D01*
X47823380Y-18335761D01*
X47823380Y-18145285D01*
X47775761Y-18050047D01*
X47728142Y-18002428D01*
X47632904Y-17954809D01*
X46823380Y-17954809D01*
X47775761Y-17526238D02*
X47823380Y-17383380D01*
X47823380Y-17145285D01*
X47775761Y-17050047D01*
X47728142Y-17002428D01*
X47632904Y-16954809D01*
X47537666Y-16954809D01*
X47442428Y-17002428D01*
X47394809Y-17050047D01*
X47347190Y-17145285D01*
X47299571Y-17335761D01*
X47251952Y-17431000D01*
X47204333Y-17478619D01*
X47109095Y-17526238D01*
X47013857Y-17526238D01*
X46918619Y-17478619D01*
X46871000Y-17431000D01*
X46823380Y-17335761D01*
X46823380Y-17097666D01*
X46871000Y-16954809D01*
M02*
