G04 #@! TF.GenerationSoftware,KiCad,Pcbnew,(5.1.0-0)*
G04 #@! TF.CreationDate,2019-04-23T20:34:44+03:00*
G04 #@! TF.ProjectId,ovms-swcan-dongle,6f766d73-2d73-4776-9361-6e2d646f6e67,rev?*
G04 #@! TF.SameCoordinates,Original*
G04 #@! TF.FileFunction,Copper,L3,Inr*
G04 #@! TF.FilePolarity,Positive*
%FSLAX46Y46*%
G04 Gerber Fmt 4.6, Leading zero omitted, Abs format (unit mm)*
G04 Created by KiCad (PCBNEW (5.1.0-0)) date 2019-04-23 20:34:44*
%MOMM*%
%LPD*%
G04 APERTURE LIST*
%ADD10O,1.700000X1.700000*%
%ADD11R,1.700000X1.700000*%
%ADD12C,1.700000*%
%ADD13C,4.000000*%
%ADD14C,1.600000*%
%ADD15R,1.600000X1.600000*%
%ADD16C,0.800000*%
%ADD17C,0.200000*%
G04 APERTURE END LIST*
D10*
X54559200Y-34696400D03*
D11*
X54559200Y-32156400D03*
D10*
X15316200Y-33858200D03*
D11*
X15316200Y-31318200D03*
D10*
X15494000Y-14859000D03*
X18034000Y-14859000D03*
X20574000Y-14859000D03*
X23114000Y-14859000D03*
X25654000Y-14859000D03*
X28194000Y-14859000D03*
X30734000Y-14859000D03*
X33274000Y-14859000D03*
X35814000Y-14859000D03*
X38354000Y-14859000D03*
X40894000Y-14859000D03*
D11*
X43434000Y-14859000D03*
D12*
X43205400Y-30607000D03*
X49705400Y-30607000D03*
X43205400Y-35107000D03*
X49705400Y-35107000D03*
X31597600Y-30607000D03*
X38097600Y-30607000D03*
X31597600Y-35107000D03*
X38097600Y-35107000D03*
X20040600Y-30607000D03*
X26540600Y-30607000D03*
X20040600Y-35107000D03*
X26540600Y-35107000D03*
D13*
X20318000Y-24332000D03*
X53618000Y-24332000D03*
D14*
X29563000Y-26312000D03*
X31853000Y-26312000D03*
X34143000Y-26312000D03*
X36433000Y-26312000D03*
X38723000Y-26312000D03*
X41013000Y-26312000D03*
X43303000Y-26312000D03*
X45593000Y-26312000D03*
X28418000Y-24332000D03*
X30708000Y-24332000D03*
X32998000Y-24332000D03*
X35288000Y-24332000D03*
X37578000Y-24332000D03*
X39868000Y-24332000D03*
X42158000Y-24332000D03*
X44448000Y-24332000D03*
X46738000Y-24332000D03*
X27273000Y-22352000D03*
X29563000Y-22352000D03*
X31853000Y-22352000D03*
X34143000Y-22352000D03*
X36433000Y-22352000D03*
X38723000Y-22352000D03*
X41013000Y-22352000D03*
X43303000Y-22352000D03*
D15*
X45593000Y-22352000D03*
D16*
X46736000Y-29046000D03*
X28422600Y-35433000D03*
X43281600Y-32893000D03*
X19659600Y-33274000D03*
X32613602Y-33401000D03*
X16129000Y-28702000D03*
X32105600Y-32258000D03*
X21005800Y-32283400D03*
X53213000Y-13182600D03*
X25654000Y-27000200D03*
D17*
G36*
X52013000Y-13064410D02*
G01*
X52013000Y-13300790D01*
X52059116Y-13532627D01*
X52149574Y-13751013D01*
X52280899Y-13947555D01*
X52448045Y-14114701D01*
X52644587Y-14246026D01*
X52862973Y-14336484D01*
X53094810Y-14382600D01*
X53331190Y-14382600D01*
X53563027Y-14336484D01*
X53781413Y-14246026D01*
X53977955Y-14114701D01*
X54145101Y-13947555D01*
X54276426Y-13751013D01*
X54366884Y-13532627D01*
X54413000Y-13300790D01*
X54413000Y-13064410D01*
X54378307Y-12890000D01*
X57468000Y-12890000D01*
X57468001Y-36132000D01*
X55373616Y-36132000D01*
X55480326Y-36074962D01*
X55731571Y-35868771D01*
X55937762Y-35617526D01*
X56090977Y-35330883D01*
X56185325Y-35019856D01*
X56217183Y-34696400D01*
X56185325Y-34372944D01*
X56090977Y-34061917D01*
X55937762Y-33775274D01*
X55855454Y-33674981D01*
X55855806Y-33674793D01*
X55977622Y-33574822D01*
X56077593Y-33453006D01*
X56151879Y-33314028D01*
X56197624Y-33163227D01*
X56213070Y-33006400D01*
X56213070Y-31306400D01*
X56197624Y-31149573D01*
X56151879Y-30998772D01*
X56077593Y-30859794D01*
X55977622Y-30737978D01*
X55855806Y-30638007D01*
X55716828Y-30563721D01*
X55566027Y-30517976D01*
X55409200Y-30502530D01*
X53709200Y-30502530D01*
X53552373Y-30517976D01*
X53401572Y-30563721D01*
X53262594Y-30638007D01*
X53140778Y-30737978D01*
X53040807Y-30859794D01*
X52966521Y-30998772D01*
X52920776Y-31149573D01*
X52905330Y-31306400D01*
X52905330Y-33006400D01*
X52920776Y-33163227D01*
X52966521Y-33314028D01*
X53040807Y-33453006D01*
X53140778Y-33574822D01*
X53262594Y-33674793D01*
X53262946Y-33674981D01*
X53180638Y-33775274D01*
X53027423Y-34061917D01*
X52933075Y-34372944D01*
X52901217Y-34696400D01*
X52933075Y-35019856D01*
X53027423Y-35330883D01*
X53180638Y-35617526D01*
X53386829Y-35868771D01*
X53638074Y-36074962D01*
X53744784Y-36132000D01*
X51004955Y-36132000D01*
X51167611Y-35888568D01*
X51291992Y-35588287D01*
X51355400Y-35269511D01*
X51355400Y-34944489D01*
X51291992Y-34625713D01*
X51167611Y-34325432D01*
X50987039Y-34055186D01*
X50757214Y-33825361D01*
X50486968Y-33644789D01*
X50186687Y-33520408D01*
X49867911Y-33457000D01*
X49542889Y-33457000D01*
X49224113Y-33520408D01*
X48923832Y-33644789D01*
X48653586Y-33825361D01*
X48423761Y-34055186D01*
X48243189Y-34325432D01*
X48118808Y-34625713D01*
X48055400Y-34944489D01*
X48055400Y-35269511D01*
X48118808Y-35588287D01*
X48243189Y-35888568D01*
X48405845Y-36132000D01*
X44504955Y-36132000D01*
X44667611Y-35888568D01*
X44791992Y-35588287D01*
X44855400Y-35269511D01*
X44855400Y-34944489D01*
X44791992Y-34625713D01*
X44667611Y-34325432D01*
X44487039Y-34055186D01*
X44257214Y-33825361D01*
X43986968Y-33644789D01*
X43686687Y-33520408D01*
X43367911Y-33457000D01*
X43042889Y-33457000D01*
X42724113Y-33520408D01*
X42423832Y-33644789D01*
X42153586Y-33825361D01*
X41923761Y-34055186D01*
X41743189Y-34325432D01*
X41618808Y-34625713D01*
X41555400Y-34944489D01*
X41555400Y-35269511D01*
X41618808Y-35588287D01*
X41743189Y-35888568D01*
X41905845Y-36132000D01*
X39397155Y-36132000D01*
X39559811Y-35888568D01*
X39684192Y-35588287D01*
X39747600Y-35269511D01*
X39747600Y-34944489D01*
X39684192Y-34625713D01*
X39559811Y-34325432D01*
X39379239Y-34055186D01*
X39149414Y-33825361D01*
X38879168Y-33644789D01*
X38578887Y-33520408D01*
X38260111Y-33457000D01*
X37935089Y-33457000D01*
X37616313Y-33520408D01*
X37316032Y-33644789D01*
X37045786Y-33825361D01*
X36815961Y-34055186D01*
X36635389Y-34325432D01*
X36511008Y-34625713D01*
X36447600Y-34944489D01*
X36447600Y-35269511D01*
X36511008Y-35588287D01*
X36635389Y-35888568D01*
X36798045Y-36132000D01*
X32897155Y-36132000D01*
X33059811Y-35888568D01*
X33184192Y-35588287D01*
X33247600Y-35269511D01*
X33247600Y-34944489D01*
X33184192Y-34625713D01*
X33059811Y-34325432D01*
X32879239Y-34055186D01*
X32649414Y-33825361D01*
X32379168Y-33644789D01*
X32078887Y-33520408D01*
X31760111Y-33457000D01*
X31435089Y-33457000D01*
X31116313Y-33520408D01*
X30816032Y-33644789D01*
X30545786Y-33825361D01*
X30315961Y-34055186D01*
X30135389Y-34325432D01*
X30011008Y-34625713D01*
X29947600Y-34944489D01*
X29947600Y-35269511D01*
X30011008Y-35588287D01*
X30135389Y-35888568D01*
X30298045Y-36132000D01*
X27840155Y-36132000D01*
X28002811Y-35888568D01*
X28127192Y-35588287D01*
X28190600Y-35269511D01*
X28190600Y-34944489D01*
X28127192Y-34625713D01*
X28002811Y-34325432D01*
X27822239Y-34055186D01*
X27592414Y-33825361D01*
X27322168Y-33644789D01*
X27021887Y-33520408D01*
X26703111Y-33457000D01*
X26378089Y-33457000D01*
X26059313Y-33520408D01*
X25759032Y-33644789D01*
X25488786Y-33825361D01*
X25258961Y-34055186D01*
X25078389Y-34325432D01*
X24954008Y-34625713D01*
X24890600Y-34944489D01*
X24890600Y-35269511D01*
X24954008Y-35588287D01*
X25078389Y-35888568D01*
X25241045Y-36132000D01*
X21340155Y-36132000D01*
X21502811Y-35888568D01*
X21627192Y-35588287D01*
X21690600Y-35269511D01*
X21690600Y-34944489D01*
X21627192Y-34625713D01*
X21502811Y-34325432D01*
X21322239Y-34055186D01*
X21092414Y-33825361D01*
X20822168Y-33644789D01*
X20521887Y-33520408D01*
X20203111Y-33457000D01*
X19878089Y-33457000D01*
X19559313Y-33520408D01*
X19259032Y-33644789D01*
X18988786Y-33825361D01*
X18758961Y-34055186D01*
X18578389Y-34325432D01*
X18454008Y-34625713D01*
X18390600Y-34944489D01*
X18390600Y-35269511D01*
X18454008Y-35588287D01*
X18578389Y-35888568D01*
X18741045Y-36132000D01*
X13652000Y-36132000D01*
X13652000Y-34237110D01*
X13908297Y-34237110D01*
X13935054Y-34325339D01*
X14052727Y-34585811D01*
X14218954Y-34818322D01*
X14427348Y-35013936D01*
X14669900Y-35165135D01*
X14937289Y-35266109D01*
X15162200Y-35156050D01*
X15162200Y-34012200D01*
X15470200Y-34012200D01*
X15470200Y-35156050D01*
X15695111Y-35266109D01*
X15962500Y-35165135D01*
X16205052Y-35013936D01*
X16413446Y-34818322D01*
X16579673Y-34585811D01*
X16697346Y-34325339D01*
X16724103Y-34237110D01*
X16613089Y-34012200D01*
X15470200Y-34012200D01*
X15162200Y-34012200D01*
X14019311Y-34012200D01*
X13908297Y-34237110D01*
X13652000Y-34237110D01*
X13652000Y-30468200D01*
X13662330Y-30468200D01*
X13662330Y-32168200D01*
X13677776Y-32325027D01*
X13723521Y-32475828D01*
X13797807Y-32614806D01*
X13897778Y-32736622D01*
X14019594Y-32836593D01*
X14158572Y-32910879D01*
X14200672Y-32923650D01*
X14052727Y-33130589D01*
X13935054Y-33391061D01*
X13908297Y-33479290D01*
X14019311Y-33704200D01*
X15162200Y-33704200D01*
X15162200Y-33684200D01*
X15470200Y-33684200D01*
X15470200Y-33704200D01*
X16613089Y-33704200D01*
X16724103Y-33479290D01*
X16697346Y-33391061D01*
X16579673Y-33130589D01*
X16431728Y-32923650D01*
X16473828Y-32910879D01*
X16612806Y-32836593D01*
X16734622Y-32736622D01*
X16834593Y-32614806D01*
X16908879Y-32475828D01*
X16954624Y-32325027D01*
X16970070Y-32168200D01*
X16970070Y-30468200D01*
X16967735Y-30444489D01*
X18390600Y-30444489D01*
X18390600Y-30769511D01*
X18454008Y-31088287D01*
X18578389Y-31388568D01*
X18758961Y-31658814D01*
X18988786Y-31888639D01*
X19259032Y-32069211D01*
X19559313Y-32193592D01*
X19805800Y-32242621D01*
X19805800Y-32401590D01*
X19851916Y-32633427D01*
X19942374Y-32851813D01*
X20073699Y-33048355D01*
X20240845Y-33215501D01*
X20437387Y-33346826D01*
X20655773Y-33437284D01*
X20887610Y-33483400D01*
X21123990Y-33483400D01*
X21355827Y-33437284D01*
X21574213Y-33346826D01*
X21770755Y-33215501D01*
X21937901Y-33048355D01*
X22069226Y-32851813D01*
X22159684Y-32633427D01*
X22205800Y-32401590D01*
X22205800Y-32165210D01*
X22159684Y-31933373D01*
X22069226Y-31714987D01*
X21937901Y-31518445D01*
X21770755Y-31351299D01*
X21574213Y-31219974D01*
X21572875Y-31219420D01*
X21627192Y-31088287D01*
X21690600Y-30769511D01*
X21690600Y-30444489D01*
X24890600Y-30444489D01*
X24890600Y-30769511D01*
X24954008Y-31088287D01*
X25078389Y-31388568D01*
X25258961Y-31658814D01*
X25488786Y-31888639D01*
X25759032Y-32069211D01*
X26059313Y-32193592D01*
X26378089Y-32257000D01*
X26703111Y-32257000D01*
X27021887Y-32193592D01*
X27322168Y-32069211D01*
X27592414Y-31888639D01*
X27822239Y-31658814D01*
X28002811Y-31388568D01*
X28127192Y-31088287D01*
X28190600Y-30769511D01*
X28190600Y-30444489D01*
X29947600Y-30444489D01*
X29947600Y-30769511D01*
X30011008Y-31088287D01*
X30135389Y-31388568D01*
X30315961Y-31658814D01*
X30545786Y-31888639D01*
X30816032Y-32069211D01*
X30911756Y-32108861D01*
X30905600Y-32139810D01*
X30905600Y-32376190D01*
X30951716Y-32608027D01*
X31042174Y-32826413D01*
X31173499Y-33022955D01*
X31340645Y-33190101D01*
X31537187Y-33321426D01*
X31755573Y-33411884D01*
X31987410Y-33458000D01*
X32223790Y-33458000D01*
X32455627Y-33411884D01*
X32674013Y-33321426D01*
X32870555Y-33190101D01*
X33037701Y-33022955D01*
X33169026Y-32826413D01*
X33259484Y-32608027D01*
X33305600Y-32376190D01*
X33305600Y-32139810D01*
X33259484Y-31907973D01*
X33169026Y-31689587D01*
X33037701Y-31493045D01*
X33009107Y-31464451D01*
X33059811Y-31388568D01*
X33184192Y-31088287D01*
X33247600Y-30769511D01*
X33247600Y-30444489D01*
X36447600Y-30444489D01*
X36447600Y-30769511D01*
X36511008Y-31088287D01*
X36635389Y-31388568D01*
X36815961Y-31658814D01*
X37045786Y-31888639D01*
X37316032Y-32069211D01*
X37616313Y-32193592D01*
X37935089Y-32257000D01*
X38260111Y-32257000D01*
X38578887Y-32193592D01*
X38879168Y-32069211D01*
X39149414Y-31888639D01*
X39379239Y-31658814D01*
X39559811Y-31388568D01*
X39684192Y-31088287D01*
X39747600Y-30769511D01*
X39747600Y-30444489D01*
X41555400Y-30444489D01*
X41555400Y-30769511D01*
X41618808Y-31088287D01*
X41743189Y-31388568D01*
X41923761Y-31658814D01*
X42153586Y-31888639D01*
X42423832Y-32069211D01*
X42724113Y-32193592D01*
X43042889Y-32257000D01*
X43367911Y-32257000D01*
X43686687Y-32193592D01*
X43986968Y-32069211D01*
X44257214Y-31888639D01*
X44487039Y-31658814D01*
X44667611Y-31388568D01*
X44791992Y-31088287D01*
X44855400Y-30769511D01*
X44855400Y-30444489D01*
X48055400Y-30444489D01*
X48055400Y-30769511D01*
X48118808Y-31088287D01*
X48243189Y-31388568D01*
X48423761Y-31658814D01*
X48653586Y-31888639D01*
X48923832Y-32069211D01*
X49224113Y-32193592D01*
X49542889Y-32257000D01*
X49867911Y-32257000D01*
X50186687Y-32193592D01*
X50486968Y-32069211D01*
X50757214Y-31888639D01*
X50987039Y-31658814D01*
X51167611Y-31388568D01*
X51291992Y-31088287D01*
X51355400Y-30769511D01*
X51355400Y-30444489D01*
X51291992Y-30125713D01*
X51167611Y-29825432D01*
X50987039Y-29555186D01*
X50757214Y-29325361D01*
X50486968Y-29144789D01*
X50186687Y-29020408D01*
X49867911Y-28957000D01*
X49542889Y-28957000D01*
X49224113Y-29020408D01*
X48923832Y-29144789D01*
X48653586Y-29325361D01*
X48423761Y-29555186D01*
X48243189Y-29825432D01*
X48118808Y-30125713D01*
X48055400Y-30444489D01*
X44855400Y-30444489D01*
X44791992Y-30125713D01*
X44667611Y-29825432D01*
X44487039Y-29555186D01*
X44257214Y-29325361D01*
X43986968Y-29144789D01*
X43686687Y-29020408D01*
X43367911Y-28957000D01*
X43042889Y-28957000D01*
X42724113Y-29020408D01*
X42423832Y-29144789D01*
X42153586Y-29325361D01*
X41923761Y-29555186D01*
X41743189Y-29825432D01*
X41618808Y-30125713D01*
X41555400Y-30444489D01*
X39747600Y-30444489D01*
X39684192Y-30125713D01*
X39559811Y-29825432D01*
X39379239Y-29555186D01*
X39149414Y-29325361D01*
X38879168Y-29144789D01*
X38578887Y-29020408D01*
X38260111Y-28957000D01*
X37935089Y-28957000D01*
X37616313Y-29020408D01*
X37316032Y-29144789D01*
X37045786Y-29325361D01*
X36815961Y-29555186D01*
X36635389Y-29825432D01*
X36511008Y-30125713D01*
X36447600Y-30444489D01*
X33247600Y-30444489D01*
X33184192Y-30125713D01*
X33059811Y-29825432D01*
X32879239Y-29555186D01*
X32649414Y-29325361D01*
X32379168Y-29144789D01*
X32078887Y-29020408D01*
X31760111Y-28957000D01*
X31435089Y-28957000D01*
X31116313Y-29020408D01*
X30816032Y-29144789D01*
X30545786Y-29325361D01*
X30315961Y-29555186D01*
X30135389Y-29825432D01*
X30011008Y-30125713D01*
X29947600Y-30444489D01*
X28190600Y-30444489D01*
X28127192Y-30125713D01*
X28002811Y-29825432D01*
X27822239Y-29555186D01*
X27592414Y-29325361D01*
X27322168Y-29144789D01*
X27021887Y-29020408D01*
X26703111Y-28957000D01*
X26378089Y-28957000D01*
X26059313Y-29020408D01*
X25759032Y-29144789D01*
X25488786Y-29325361D01*
X25258961Y-29555186D01*
X25078389Y-29825432D01*
X24954008Y-30125713D01*
X24890600Y-30444489D01*
X21690600Y-30444489D01*
X21627192Y-30125713D01*
X21502811Y-29825432D01*
X21322239Y-29555186D01*
X21092414Y-29325361D01*
X20822168Y-29144789D01*
X20521887Y-29020408D01*
X20203111Y-28957000D01*
X19878089Y-28957000D01*
X19559313Y-29020408D01*
X19259032Y-29144789D01*
X18988786Y-29325361D01*
X18758961Y-29555186D01*
X18578389Y-29825432D01*
X18454008Y-30125713D01*
X18390600Y-30444489D01*
X16967735Y-30444489D01*
X16954624Y-30311373D01*
X16908879Y-30160572D01*
X16834593Y-30021594D01*
X16734622Y-29899778D01*
X16613344Y-29800248D01*
X16697413Y-29765426D01*
X16893955Y-29634101D01*
X17061101Y-29466955D01*
X17192426Y-29270413D01*
X17282884Y-29052027D01*
X17307592Y-28927810D01*
X45536000Y-28927810D01*
X45536000Y-29164190D01*
X45582116Y-29396027D01*
X45672574Y-29614413D01*
X45803899Y-29810955D01*
X45971045Y-29978101D01*
X46167587Y-30109426D01*
X46385973Y-30199884D01*
X46617810Y-30246000D01*
X46854190Y-30246000D01*
X47086027Y-30199884D01*
X47304413Y-30109426D01*
X47500955Y-29978101D01*
X47668101Y-29810955D01*
X47799426Y-29614413D01*
X47889884Y-29396027D01*
X47936000Y-29164190D01*
X47936000Y-28927810D01*
X47889884Y-28695973D01*
X47799426Y-28477587D01*
X47668101Y-28281045D01*
X47500955Y-28113899D01*
X47304413Y-27982574D01*
X47086027Y-27892116D01*
X46854190Y-27846000D01*
X46617810Y-27846000D01*
X46385973Y-27892116D01*
X46167587Y-27982574D01*
X45971045Y-28113899D01*
X45803899Y-28281045D01*
X45672574Y-28477587D01*
X45582116Y-28695973D01*
X45536000Y-28927810D01*
X17307592Y-28927810D01*
X17329000Y-28820190D01*
X17329000Y-28583810D01*
X17282884Y-28351973D01*
X17192426Y-28133587D01*
X17061101Y-27937045D01*
X16893955Y-27769899D01*
X16697413Y-27638574D01*
X16479027Y-27548116D01*
X16247190Y-27502000D01*
X16010810Y-27502000D01*
X15778973Y-27548116D01*
X15560587Y-27638574D01*
X15364045Y-27769899D01*
X15196899Y-27937045D01*
X15065574Y-28133587D01*
X14975116Y-28351973D01*
X14929000Y-28583810D01*
X14929000Y-28820190D01*
X14975116Y-29052027D01*
X15065574Y-29270413D01*
X15196899Y-29466955D01*
X15364045Y-29634101D01*
X15409286Y-29664330D01*
X14466200Y-29664330D01*
X14309373Y-29679776D01*
X14158572Y-29725521D01*
X14019594Y-29799807D01*
X13897778Y-29899778D01*
X13797807Y-30021594D01*
X13723521Y-30160572D01*
X13677776Y-30311373D01*
X13662330Y-30468200D01*
X13652000Y-30468200D01*
X13652000Y-24056224D01*
X17518000Y-24056224D01*
X17518000Y-24607776D01*
X17625602Y-25148730D01*
X17836672Y-25658297D01*
X18143098Y-26116896D01*
X18533104Y-26506902D01*
X18991703Y-26813328D01*
X19501270Y-27024398D01*
X20042224Y-27132000D01*
X20593776Y-27132000D01*
X21134730Y-27024398D01*
X21478484Y-26882010D01*
X24454000Y-26882010D01*
X24454000Y-27118390D01*
X24500116Y-27350227D01*
X24590574Y-27568613D01*
X24721899Y-27765155D01*
X24889045Y-27932301D01*
X25085587Y-28063626D01*
X25303973Y-28154084D01*
X25535810Y-28200200D01*
X25772190Y-28200200D01*
X26004027Y-28154084D01*
X26222413Y-28063626D01*
X26418955Y-27932301D01*
X26586101Y-27765155D01*
X26717426Y-27568613D01*
X26807884Y-27350227D01*
X26854000Y-27118390D01*
X26854000Y-26882010D01*
X26807884Y-26650173D01*
X26717426Y-26431787D01*
X26586101Y-26235245D01*
X26418955Y-26068099D01*
X26222413Y-25936774D01*
X26004027Y-25846316D01*
X25772190Y-25800200D01*
X25535810Y-25800200D01*
X25303973Y-25846316D01*
X25085587Y-25936774D01*
X24889045Y-26068099D01*
X24721899Y-26235245D01*
X24590574Y-26431787D01*
X24500116Y-26650173D01*
X24454000Y-26882010D01*
X21478484Y-26882010D01*
X21644297Y-26813328D01*
X22102896Y-26506902D01*
X22492902Y-26116896D01*
X22799328Y-25658297D01*
X23010398Y-25148730D01*
X23118000Y-24607776D01*
X23118000Y-24056224D01*
X23010398Y-23515270D01*
X22799328Y-23005703D01*
X22492902Y-22547104D01*
X22140212Y-22194414D01*
X25673000Y-22194414D01*
X25673000Y-22509586D01*
X25734487Y-22818703D01*
X25855098Y-23109884D01*
X26030199Y-23371941D01*
X26253059Y-23594801D01*
X26515116Y-23769902D01*
X26806297Y-23890513D01*
X26871877Y-23903558D01*
X26818000Y-24174414D01*
X26818000Y-24489586D01*
X26879487Y-24798703D01*
X27000098Y-25089884D01*
X27175199Y-25351941D01*
X27398059Y-25574801D01*
X27660116Y-25749902D01*
X27951297Y-25870513D01*
X28016877Y-25883558D01*
X27963000Y-26154414D01*
X27963000Y-26469586D01*
X28024487Y-26778703D01*
X28145098Y-27069884D01*
X28320199Y-27331941D01*
X28543059Y-27554801D01*
X28805116Y-27729902D01*
X29096297Y-27850513D01*
X29405414Y-27912000D01*
X29720586Y-27912000D01*
X30029703Y-27850513D01*
X30320884Y-27729902D01*
X30582941Y-27554801D01*
X30708000Y-27429742D01*
X30833059Y-27554801D01*
X31095116Y-27729902D01*
X31386297Y-27850513D01*
X31695414Y-27912000D01*
X32010586Y-27912000D01*
X32319703Y-27850513D01*
X32610884Y-27729902D01*
X32872941Y-27554801D01*
X32998000Y-27429742D01*
X33123059Y-27554801D01*
X33385116Y-27729902D01*
X33676297Y-27850513D01*
X33985414Y-27912000D01*
X34300586Y-27912000D01*
X34609703Y-27850513D01*
X34900884Y-27729902D01*
X35162941Y-27554801D01*
X35385801Y-27331941D01*
X35402349Y-27307174D01*
X35655615Y-27307174D01*
X35730924Y-27540327D01*
X35984048Y-27653693D01*
X36254426Y-27715498D01*
X36531666Y-27723369D01*
X36805114Y-27677001D01*
X37064263Y-27578177D01*
X37135076Y-27540327D01*
X37210385Y-27307174D01*
X36433000Y-26529789D01*
X35655615Y-27307174D01*
X35402349Y-27307174D01*
X35560902Y-27069884D01*
X35634140Y-26893071D01*
X36215211Y-26312000D01*
X36201069Y-26297858D01*
X36418858Y-26080069D01*
X36433000Y-26094211D01*
X36447142Y-26080069D01*
X36664931Y-26297858D01*
X36650789Y-26312000D01*
X37231860Y-26893071D01*
X37305098Y-27069884D01*
X37480199Y-27331941D01*
X37703059Y-27554801D01*
X37965116Y-27729902D01*
X38256297Y-27850513D01*
X38565414Y-27912000D01*
X38880586Y-27912000D01*
X39189703Y-27850513D01*
X39480884Y-27729902D01*
X39742941Y-27554801D01*
X39868000Y-27429742D01*
X39993059Y-27554801D01*
X40255116Y-27729902D01*
X40546297Y-27850513D01*
X40855414Y-27912000D01*
X41170586Y-27912000D01*
X41479703Y-27850513D01*
X41770884Y-27729902D01*
X42032941Y-27554801D01*
X42158000Y-27429742D01*
X42283059Y-27554801D01*
X42545116Y-27729902D01*
X42836297Y-27850513D01*
X43145414Y-27912000D01*
X43460586Y-27912000D01*
X43769703Y-27850513D01*
X44060884Y-27729902D01*
X44322941Y-27554801D01*
X44448000Y-27429742D01*
X44573059Y-27554801D01*
X44835116Y-27729902D01*
X45126297Y-27850513D01*
X45435414Y-27912000D01*
X45750586Y-27912000D01*
X46059703Y-27850513D01*
X46350884Y-27729902D01*
X46612941Y-27554801D01*
X46835801Y-27331941D01*
X47010902Y-27069884D01*
X47131513Y-26778703D01*
X47193000Y-26469586D01*
X47193000Y-26154414D01*
X47139123Y-25883558D01*
X47204703Y-25870513D01*
X47495884Y-25749902D01*
X47757941Y-25574801D01*
X47980801Y-25351941D01*
X48155902Y-25089884D01*
X48276513Y-24798703D01*
X48338000Y-24489586D01*
X48338000Y-24174414D01*
X48314491Y-24056224D01*
X50818000Y-24056224D01*
X50818000Y-24607776D01*
X50925602Y-25148730D01*
X51136672Y-25658297D01*
X51443098Y-26116896D01*
X51833104Y-26506902D01*
X52291703Y-26813328D01*
X52801270Y-27024398D01*
X53342224Y-27132000D01*
X53893776Y-27132000D01*
X54434730Y-27024398D01*
X54944297Y-26813328D01*
X55402896Y-26506902D01*
X55792902Y-26116896D01*
X56099328Y-25658297D01*
X56310398Y-25148730D01*
X56418000Y-24607776D01*
X56418000Y-24056224D01*
X56310398Y-23515270D01*
X56099328Y-23005703D01*
X55792902Y-22547104D01*
X55402896Y-22157098D01*
X54944297Y-21850672D01*
X54434730Y-21639602D01*
X53893776Y-21532000D01*
X53342224Y-21532000D01*
X52801270Y-21639602D01*
X52291703Y-21850672D01*
X51833104Y-22157098D01*
X51443098Y-22547104D01*
X51136672Y-23005703D01*
X50925602Y-23515270D01*
X50818000Y-24056224D01*
X48314491Y-24056224D01*
X48276513Y-23865297D01*
X48155902Y-23574116D01*
X47980801Y-23312059D01*
X47757941Y-23089199D01*
X47495884Y-22914098D01*
X47204703Y-22793487D01*
X47196870Y-22791929D01*
X47196870Y-21552000D01*
X47181424Y-21395173D01*
X47135679Y-21244372D01*
X47061393Y-21105394D01*
X46961422Y-20983578D01*
X46839606Y-20883607D01*
X46700628Y-20809321D01*
X46549827Y-20763576D01*
X46393000Y-20748130D01*
X44793000Y-20748130D01*
X44636173Y-20763576D01*
X44485372Y-20809321D01*
X44346394Y-20883607D01*
X44224578Y-20983578D01*
X44192831Y-21022262D01*
X44060884Y-20934098D01*
X43769703Y-20813487D01*
X43460586Y-20752000D01*
X43145414Y-20752000D01*
X42836297Y-20813487D01*
X42545116Y-20934098D01*
X42283059Y-21109199D01*
X42158000Y-21234258D01*
X42032941Y-21109199D01*
X41770884Y-20934098D01*
X41479703Y-20813487D01*
X41170586Y-20752000D01*
X40855414Y-20752000D01*
X40546297Y-20813487D01*
X40255116Y-20934098D01*
X39993059Y-21109199D01*
X39868000Y-21234258D01*
X39742941Y-21109199D01*
X39480884Y-20934098D01*
X39189703Y-20813487D01*
X38880586Y-20752000D01*
X38565414Y-20752000D01*
X38256297Y-20813487D01*
X37965116Y-20934098D01*
X37703059Y-21109199D01*
X37578000Y-21234258D01*
X37452941Y-21109199D01*
X37190884Y-20934098D01*
X36899703Y-20813487D01*
X36590586Y-20752000D01*
X36275414Y-20752000D01*
X35966297Y-20813487D01*
X35675116Y-20934098D01*
X35413059Y-21109199D01*
X35288000Y-21234258D01*
X35162941Y-21109199D01*
X34900884Y-20934098D01*
X34609703Y-20813487D01*
X34300586Y-20752000D01*
X33985414Y-20752000D01*
X33676297Y-20813487D01*
X33385116Y-20934098D01*
X33123059Y-21109199D01*
X32998000Y-21234258D01*
X32872941Y-21109199D01*
X32610884Y-20934098D01*
X32319703Y-20813487D01*
X32010586Y-20752000D01*
X31695414Y-20752000D01*
X31386297Y-20813487D01*
X31095116Y-20934098D01*
X30833059Y-21109199D01*
X30610199Y-21332059D01*
X30435098Y-21594116D01*
X30361860Y-21770929D01*
X29780789Y-22352000D01*
X29794931Y-22366142D01*
X29577142Y-22583931D01*
X29563000Y-22569789D01*
X29548858Y-22583931D01*
X29331069Y-22366142D01*
X29345211Y-22352000D01*
X28764140Y-21770929D01*
X28690902Y-21594116D01*
X28532350Y-21356826D01*
X28785615Y-21356826D01*
X29563000Y-22134211D01*
X30340385Y-21356826D01*
X30265076Y-21123673D01*
X30011952Y-21010307D01*
X29741574Y-20948502D01*
X29464334Y-20940631D01*
X29190886Y-20986999D01*
X28931737Y-21085823D01*
X28860924Y-21123673D01*
X28785615Y-21356826D01*
X28532350Y-21356826D01*
X28515801Y-21332059D01*
X28292941Y-21109199D01*
X28030884Y-20934098D01*
X27739703Y-20813487D01*
X27430586Y-20752000D01*
X27115414Y-20752000D01*
X26806297Y-20813487D01*
X26515116Y-20934098D01*
X26253059Y-21109199D01*
X26030199Y-21332059D01*
X25855098Y-21594116D01*
X25734487Y-21885297D01*
X25673000Y-22194414D01*
X22140212Y-22194414D01*
X22102896Y-22157098D01*
X21644297Y-21850672D01*
X21134730Y-21639602D01*
X20593776Y-21532000D01*
X20042224Y-21532000D01*
X19501270Y-21639602D01*
X18991703Y-21850672D01*
X18533104Y-22157098D01*
X18143098Y-22547104D01*
X17836672Y-23005703D01*
X17625602Y-23515270D01*
X17518000Y-24056224D01*
X13652000Y-24056224D01*
X13652000Y-15237911D01*
X14086091Y-15237911D01*
X14187065Y-15505300D01*
X14338264Y-15747852D01*
X14533878Y-15956246D01*
X14766389Y-16122473D01*
X15026861Y-16240146D01*
X15115090Y-16266903D01*
X15340000Y-16155889D01*
X15340000Y-15013000D01*
X14196150Y-15013000D01*
X14086091Y-15237911D01*
X13652000Y-15237911D01*
X13652000Y-14480089D01*
X14086091Y-14480089D01*
X14196150Y-14705000D01*
X15340000Y-14705000D01*
X15340000Y-13562111D01*
X15648000Y-13562111D01*
X15648000Y-14705000D01*
X15668000Y-14705000D01*
X15668000Y-15013000D01*
X15648000Y-15013000D01*
X15648000Y-16155889D01*
X15872910Y-16266903D01*
X15961139Y-16240146D01*
X16221611Y-16122473D01*
X16454122Y-15956246D01*
X16642377Y-15755691D01*
X16655438Y-15780126D01*
X16861629Y-16031371D01*
X17112874Y-16237562D01*
X17399517Y-16390777D01*
X17710544Y-16485125D01*
X17952948Y-16509000D01*
X18115052Y-16509000D01*
X18357456Y-16485125D01*
X18668483Y-16390777D01*
X18955126Y-16237562D01*
X19206371Y-16031371D01*
X19412562Y-15780126D01*
X19425623Y-15755691D01*
X19613878Y-15956246D01*
X19846389Y-16122473D01*
X20106861Y-16240146D01*
X20195090Y-16266903D01*
X20420000Y-16155889D01*
X20420000Y-15013000D01*
X20400000Y-15013000D01*
X20400000Y-14705000D01*
X20420000Y-14705000D01*
X20420000Y-13562111D01*
X20728000Y-13562111D01*
X20728000Y-14705000D01*
X20748000Y-14705000D01*
X20748000Y-15013000D01*
X20728000Y-15013000D01*
X20728000Y-16155889D01*
X20952910Y-16266903D01*
X21041139Y-16240146D01*
X21301611Y-16122473D01*
X21534122Y-15956246D01*
X21722377Y-15755691D01*
X21735438Y-15780126D01*
X21941629Y-16031371D01*
X22192874Y-16237562D01*
X22479517Y-16390777D01*
X22790544Y-16485125D01*
X23032948Y-16509000D01*
X23195052Y-16509000D01*
X23437456Y-16485125D01*
X23748483Y-16390777D01*
X24035126Y-16237562D01*
X24286371Y-16031371D01*
X24384000Y-15912409D01*
X24481629Y-16031371D01*
X24732874Y-16237562D01*
X25019517Y-16390777D01*
X25330544Y-16485125D01*
X25572948Y-16509000D01*
X25735052Y-16509000D01*
X25977456Y-16485125D01*
X26288483Y-16390777D01*
X26575126Y-16237562D01*
X26826371Y-16031371D01*
X26924000Y-15912409D01*
X27021629Y-16031371D01*
X27272874Y-16237562D01*
X27559517Y-16390777D01*
X27870544Y-16485125D01*
X28112948Y-16509000D01*
X28275052Y-16509000D01*
X28517456Y-16485125D01*
X28828483Y-16390777D01*
X29115126Y-16237562D01*
X29366371Y-16031371D01*
X29464000Y-15912409D01*
X29561629Y-16031371D01*
X29812874Y-16237562D01*
X30099517Y-16390777D01*
X30410544Y-16485125D01*
X30652948Y-16509000D01*
X30815052Y-16509000D01*
X31057456Y-16485125D01*
X31368483Y-16390777D01*
X31655126Y-16237562D01*
X31906371Y-16031371D01*
X32004000Y-15912409D01*
X32101629Y-16031371D01*
X32352874Y-16237562D01*
X32639517Y-16390777D01*
X32950544Y-16485125D01*
X33192948Y-16509000D01*
X33355052Y-16509000D01*
X33597456Y-16485125D01*
X33908483Y-16390777D01*
X34195126Y-16237562D01*
X34446371Y-16031371D01*
X34544000Y-15912409D01*
X34641629Y-16031371D01*
X34892874Y-16237562D01*
X35179517Y-16390777D01*
X35490544Y-16485125D01*
X35732948Y-16509000D01*
X35895052Y-16509000D01*
X36137456Y-16485125D01*
X36448483Y-16390777D01*
X36735126Y-16237562D01*
X36986371Y-16031371D01*
X37084000Y-15912409D01*
X37181629Y-16031371D01*
X37432874Y-16237562D01*
X37719517Y-16390777D01*
X38030544Y-16485125D01*
X38272948Y-16509000D01*
X38435052Y-16509000D01*
X38677456Y-16485125D01*
X38988483Y-16390777D01*
X39275126Y-16237562D01*
X39526371Y-16031371D01*
X39732562Y-15780126D01*
X39745623Y-15755691D01*
X39933878Y-15956246D01*
X40166389Y-16122473D01*
X40426861Y-16240146D01*
X40515090Y-16266903D01*
X40740000Y-16155889D01*
X40740000Y-15013000D01*
X40720000Y-15013000D01*
X40720000Y-14705000D01*
X40740000Y-14705000D01*
X40740000Y-13562111D01*
X41048000Y-13562111D01*
X41048000Y-14705000D01*
X41068000Y-14705000D01*
X41068000Y-15013000D01*
X41048000Y-15013000D01*
X41048000Y-16155889D01*
X41272910Y-16266903D01*
X41361139Y-16240146D01*
X41621611Y-16122473D01*
X41828550Y-15974528D01*
X41841321Y-16016628D01*
X41915607Y-16155606D01*
X42015578Y-16277422D01*
X42137394Y-16377393D01*
X42276372Y-16451679D01*
X42427173Y-16497424D01*
X42584000Y-16512870D01*
X44284000Y-16512870D01*
X44440827Y-16497424D01*
X44591628Y-16451679D01*
X44730606Y-16377393D01*
X44852422Y-16277422D01*
X44952393Y-16155606D01*
X45026679Y-16016628D01*
X45072424Y-15865827D01*
X45087870Y-15709000D01*
X45087870Y-14009000D01*
X45072424Y-13852173D01*
X45026679Y-13701372D01*
X44952393Y-13562394D01*
X44852422Y-13440578D01*
X44730606Y-13340607D01*
X44591628Y-13266321D01*
X44440827Y-13220576D01*
X44284000Y-13205130D01*
X42584000Y-13205130D01*
X42427173Y-13220576D01*
X42276372Y-13266321D01*
X42137394Y-13340607D01*
X42015578Y-13440578D01*
X41915607Y-13562394D01*
X41841321Y-13701372D01*
X41828550Y-13743472D01*
X41621611Y-13595527D01*
X41361139Y-13477854D01*
X41272910Y-13451097D01*
X41048000Y-13562111D01*
X40740000Y-13562111D01*
X40515090Y-13451097D01*
X40426861Y-13477854D01*
X40166389Y-13595527D01*
X39933878Y-13761754D01*
X39745623Y-13962309D01*
X39732562Y-13937874D01*
X39526371Y-13686629D01*
X39275126Y-13480438D01*
X38988483Y-13327223D01*
X38677456Y-13232875D01*
X38435052Y-13209000D01*
X38272948Y-13209000D01*
X38030544Y-13232875D01*
X37719517Y-13327223D01*
X37432874Y-13480438D01*
X37181629Y-13686629D01*
X37084000Y-13805591D01*
X36986371Y-13686629D01*
X36735126Y-13480438D01*
X36448483Y-13327223D01*
X36137456Y-13232875D01*
X35895052Y-13209000D01*
X35732948Y-13209000D01*
X35490544Y-13232875D01*
X35179517Y-13327223D01*
X34892874Y-13480438D01*
X34641629Y-13686629D01*
X34544000Y-13805591D01*
X34446371Y-13686629D01*
X34195126Y-13480438D01*
X33908483Y-13327223D01*
X33597456Y-13232875D01*
X33355052Y-13209000D01*
X33192948Y-13209000D01*
X32950544Y-13232875D01*
X32639517Y-13327223D01*
X32352874Y-13480438D01*
X32101629Y-13686629D01*
X32004000Y-13805591D01*
X31906371Y-13686629D01*
X31655126Y-13480438D01*
X31368483Y-13327223D01*
X31057456Y-13232875D01*
X30815052Y-13209000D01*
X30652948Y-13209000D01*
X30410544Y-13232875D01*
X30099517Y-13327223D01*
X29812874Y-13480438D01*
X29561629Y-13686629D01*
X29464000Y-13805591D01*
X29366371Y-13686629D01*
X29115126Y-13480438D01*
X28828483Y-13327223D01*
X28517456Y-13232875D01*
X28275052Y-13209000D01*
X28112948Y-13209000D01*
X27870544Y-13232875D01*
X27559517Y-13327223D01*
X27272874Y-13480438D01*
X27021629Y-13686629D01*
X26924000Y-13805591D01*
X26826371Y-13686629D01*
X26575126Y-13480438D01*
X26288483Y-13327223D01*
X25977456Y-13232875D01*
X25735052Y-13209000D01*
X25572948Y-13209000D01*
X25330544Y-13232875D01*
X25019517Y-13327223D01*
X24732874Y-13480438D01*
X24481629Y-13686629D01*
X24384000Y-13805591D01*
X24286371Y-13686629D01*
X24035126Y-13480438D01*
X23748483Y-13327223D01*
X23437456Y-13232875D01*
X23195052Y-13209000D01*
X23032948Y-13209000D01*
X22790544Y-13232875D01*
X22479517Y-13327223D01*
X22192874Y-13480438D01*
X21941629Y-13686629D01*
X21735438Y-13937874D01*
X21722377Y-13962309D01*
X21534122Y-13761754D01*
X21301611Y-13595527D01*
X21041139Y-13477854D01*
X20952910Y-13451097D01*
X20728000Y-13562111D01*
X20420000Y-13562111D01*
X20195090Y-13451097D01*
X20106861Y-13477854D01*
X19846389Y-13595527D01*
X19613878Y-13761754D01*
X19425623Y-13962309D01*
X19412562Y-13937874D01*
X19206371Y-13686629D01*
X18955126Y-13480438D01*
X18668483Y-13327223D01*
X18357456Y-13232875D01*
X18115052Y-13209000D01*
X17952948Y-13209000D01*
X17710544Y-13232875D01*
X17399517Y-13327223D01*
X17112874Y-13480438D01*
X16861629Y-13686629D01*
X16655438Y-13937874D01*
X16642377Y-13962309D01*
X16454122Y-13761754D01*
X16221611Y-13595527D01*
X15961139Y-13477854D01*
X15872910Y-13451097D01*
X15648000Y-13562111D01*
X15340000Y-13562111D01*
X15115090Y-13451097D01*
X15026861Y-13477854D01*
X14766389Y-13595527D01*
X14533878Y-13761754D01*
X14338264Y-13970148D01*
X14187065Y-14212700D01*
X14086091Y-14480089D01*
X13652000Y-14480089D01*
X13652000Y-12890000D01*
X52047693Y-12890000D01*
X52013000Y-13064410D01*
X52013000Y-13064410D01*
G37*
X52013000Y-13064410D02*
X52013000Y-13300790D01*
X52059116Y-13532627D01*
X52149574Y-13751013D01*
X52280899Y-13947555D01*
X52448045Y-14114701D01*
X52644587Y-14246026D01*
X52862973Y-14336484D01*
X53094810Y-14382600D01*
X53331190Y-14382600D01*
X53563027Y-14336484D01*
X53781413Y-14246026D01*
X53977955Y-14114701D01*
X54145101Y-13947555D01*
X54276426Y-13751013D01*
X54366884Y-13532627D01*
X54413000Y-13300790D01*
X54413000Y-13064410D01*
X54378307Y-12890000D01*
X57468000Y-12890000D01*
X57468001Y-36132000D01*
X55373616Y-36132000D01*
X55480326Y-36074962D01*
X55731571Y-35868771D01*
X55937762Y-35617526D01*
X56090977Y-35330883D01*
X56185325Y-35019856D01*
X56217183Y-34696400D01*
X56185325Y-34372944D01*
X56090977Y-34061917D01*
X55937762Y-33775274D01*
X55855454Y-33674981D01*
X55855806Y-33674793D01*
X55977622Y-33574822D01*
X56077593Y-33453006D01*
X56151879Y-33314028D01*
X56197624Y-33163227D01*
X56213070Y-33006400D01*
X56213070Y-31306400D01*
X56197624Y-31149573D01*
X56151879Y-30998772D01*
X56077593Y-30859794D01*
X55977622Y-30737978D01*
X55855806Y-30638007D01*
X55716828Y-30563721D01*
X55566027Y-30517976D01*
X55409200Y-30502530D01*
X53709200Y-30502530D01*
X53552373Y-30517976D01*
X53401572Y-30563721D01*
X53262594Y-30638007D01*
X53140778Y-30737978D01*
X53040807Y-30859794D01*
X52966521Y-30998772D01*
X52920776Y-31149573D01*
X52905330Y-31306400D01*
X52905330Y-33006400D01*
X52920776Y-33163227D01*
X52966521Y-33314028D01*
X53040807Y-33453006D01*
X53140778Y-33574822D01*
X53262594Y-33674793D01*
X53262946Y-33674981D01*
X53180638Y-33775274D01*
X53027423Y-34061917D01*
X52933075Y-34372944D01*
X52901217Y-34696400D01*
X52933075Y-35019856D01*
X53027423Y-35330883D01*
X53180638Y-35617526D01*
X53386829Y-35868771D01*
X53638074Y-36074962D01*
X53744784Y-36132000D01*
X51004955Y-36132000D01*
X51167611Y-35888568D01*
X51291992Y-35588287D01*
X51355400Y-35269511D01*
X51355400Y-34944489D01*
X51291992Y-34625713D01*
X51167611Y-34325432D01*
X50987039Y-34055186D01*
X50757214Y-33825361D01*
X50486968Y-33644789D01*
X50186687Y-33520408D01*
X49867911Y-33457000D01*
X49542889Y-33457000D01*
X49224113Y-33520408D01*
X48923832Y-33644789D01*
X48653586Y-33825361D01*
X48423761Y-34055186D01*
X48243189Y-34325432D01*
X48118808Y-34625713D01*
X48055400Y-34944489D01*
X48055400Y-35269511D01*
X48118808Y-35588287D01*
X48243189Y-35888568D01*
X48405845Y-36132000D01*
X44504955Y-36132000D01*
X44667611Y-35888568D01*
X44791992Y-35588287D01*
X44855400Y-35269511D01*
X44855400Y-34944489D01*
X44791992Y-34625713D01*
X44667611Y-34325432D01*
X44487039Y-34055186D01*
X44257214Y-33825361D01*
X43986968Y-33644789D01*
X43686687Y-33520408D01*
X43367911Y-33457000D01*
X43042889Y-33457000D01*
X42724113Y-33520408D01*
X42423832Y-33644789D01*
X42153586Y-33825361D01*
X41923761Y-34055186D01*
X41743189Y-34325432D01*
X41618808Y-34625713D01*
X41555400Y-34944489D01*
X41555400Y-35269511D01*
X41618808Y-35588287D01*
X41743189Y-35888568D01*
X41905845Y-36132000D01*
X39397155Y-36132000D01*
X39559811Y-35888568D01*
X39684192Y-35588287D01*
X39747600Y-35269511D01*
X39747600Y-34944489D01*
X39684192Y-34625713D01*
X39559811Y-34325432D01*
X39379239Y-34055186D01*
X39149414Y-33825361D01*
X38879168Y-33644789D01*
X38578887Y-33520408D01*
X38260111Y-33457000D01*
X37935089Y-33457000D01*
X37616313Y-33520408D01*
X37316032Y-33644789D01*
X37045786Y-33825361D01*
X36815961Y-34055186D01*
X36635389Y-34325432D01*
X36511008Y-34625713D01*
X36447600Y-34944489D01*
X36447600Y-35269511D01*
X36511008Y-35588287D01*
X36635389Y-35888568D01*
X36798045Y-36132000D01*
X32897155Y-36132000D01*
X33059811Y-35888568D01*
X33184192Y-35588287D01*
X33247600Y-35269511D01*
X33247600Y-34944489D01*
X33184192Y-34625713D01*
X33059811Y-34325432D01*
X32879239Y-34055186D01*
X32649414Y-33825361D01*
X32379168Y-33644789D01*
X32078887Y-33520408D01*
X31760111Y-33457000D01*
X31435089Y-33457000D01*
X31116313Y-33520408D01*
X30816032Y-33644789D01*
X30545786Y-33825361D01*
X30315961Y-34055186D01*
X30135389Y-34325432D01*
X30011008Y-34625713D01*
X29947600Y-34944489D01*
X29947600Y-35269511D01*
X30011008Y-35588287D01*
X30135389Y-35888568D01*
X30298045Y-36132000D01*
X27840155Y-36132000D01*
X28002811Y-35888568D01*
X28127192Y-35588287D01*
X28190600Y-35269511D01*
X28190600Y-34944489D01*
X28127192Y-34625713D01*
X28002811Y-34325432D01*
X27822239Y-34055186D01*
X27592414Y-33825361D01*
X27322168Y-33644789D01*
X27021887Y-33520408D01*
X26703111Y-33457000D01*
X26378089Y-33457000D01*
X26059313Y-33520408D01*
X25759032Y-33644789D01*
X25488786Y-33825361D01*
X25258961Y-34055186D01*
X25078389Y-34325432D01*
X24954008Y-34625713D01*
X24890600Y-34944489D01*
X24890600Y-35269511D01*
X24954008Y-35588287D01*
X25078389Y-35888568D01*
X25241045Y-36132000D01*
X21340155Y-36132000D01*
X21502811Y-35888568D01*
X21627192Y-35588287D01*
X21690600Y-35269511D01*
X21690600Y-34944489D01*
X21627192Y-34625713D01*
X21502811Y-34325432D01*
X21322239Y-34055186D01*
X21092414Y-33825361D01*
X20822168Y-33644789D01*
X20521887Y-33520408D01*
X20203111Y-33457000D01*
X19878089Y-33457000D01*
X19559313Y-33520408D01*
X19259032Y-33644789D01*
X18988786Y-33825361D01*
X18758961Y-34055186D01*
X18578389Y-34325432D01*
X18454008Y-34625713D01*
X18390600Y-34944489D01*
X18390600Y-35269511D01*
X18454008Y-35588287D01*
X18578389Y-35888568D01*
X18741045Y-36132000D01*
X13652000Y-36132000D01*
X13652000Y-34237110D01*
X13908297Y-34237110D01*
X13935054Y-34325339D01*
X14052727Y-34585811D01*
X14218954Y-34818322D01*
X14427348Y-35013936D01*
X14669900Y-35165135D01*
X14937289Y-35266109D01*
X15162200Y-35156050D01*
X15162200Y-34012200D01*
X15470200Y-34012200D01*
X15470200Y-35156050D01*
X15695111Y-35266109D01*
X15962500Y-35165135D01*
X16205052Y-35013936D01*
X16413446Y-34818322D01*
X16579673Y-34585811D01*
X16697346Y-34325339D01*
X16724103Y-34237110D01*
X16613089Y-34012200D01*
X15470200Y-34012200D01*
X15162200Y-34012200D01*
X14019311Y-34012200D01*
X13908297Y-34237110D01*
X13652000Y-34237110D01*
X13652000Y-30468200D01*
X13662330Y-30468200D01*
X13662330Y-32168200D01*
X13677776Y-32325027D01*
X13723521Y-32475828D01*
X13797807Y-32614806D01*
X13897778Y-32736622D01*
X14019594Y-32836593D01*
X14158572Y-32910879D01*
X14200672Y-32923650D01*
X14052727Y-33130589D01*
X13935054Y-33391061D01*
X13908297Y-33479290D01*
X14019311Y-33704200D01*
X15162200Y-33704200D01*
X15162200Y-33684200D01*
X15470200Y-33684200D01*
X15470200Y-33704200D01*
X16613089Y-33704200D01*
X16724103Y-33479290D01*
X16697346Y-33391061D01*
X16579673Y-33130589D01*
X16431728Y-32923650D01*
X16473828Y-32910879D01*
X16612806Y-32836593D01*
X16734622Y-32736622D01*
X16834593Y-32614806D01*
X16908879Y-32475828D01*
X16954624Y-32325027D01*
X16970070Y-32168200D01*
X16970070Y-30468200D01*
X16967735Y-30444489D01*
X18390600Y-30444489D01*
X18390600Y-30769511D01*
X18454008Y-31088287D01*
X18578389Y-31388568D01*
X18758961Y-31658814D01*
X18988786Y-31888639D01*
X19259032Y-32069211D01*
X19559313Y-32193592D01*
X19805800Y-32242621D01*
X19805800Y-32401590D01*
X19851916Y-32633427D01*
X19942374Y-32851813D01*
X20073699Y-33048355D01*
X20240845Y-33215501D01*
X20437387Y-33346826D01*
X20655773Y-33437284D01*
X20887610Y-33483400D01*
X21123990Y-33483400D01*
X21355827Y-33437284D01*
X21574213Y-33346826D01*
X21770755Y-33215501D01*
X21937901Y-33048355D01*
X22069226Y-32851813D01*
X22159684Y-32633427D01*
X22205800Y-32401590D01*
X22205800Y-32165210D01*
X22159684Y-31933373D01*
X22069226Y-31714987D01*
X21937901Y-31518445D01*
X21770755Y-31351299D01*
X21574213Y-31219974D01*
X21572875Y-31219420D01*
X21627192Y-31088287D01*
X21690600Y-30769511D01*
X21690600Y-30444489D01*
X24890600Y-30444489D01*
X24890600Y-30769511D01*
X24954008Y-31088287D01*
X25078389Y-31388568D01*
X25258961Y-31658814D01*
X25488786Y-31888639D01*
X25759032Y-32069211D01*
X26059313Y-32193592D01*
X26378089Y-32257000D01*
X26703111Y-32257000D01*
X27021887Y-32193592D01*
X27322168Y-32069211D01*
X27592414Y-31888639D01*
X27822239Y-31658814D01*
X28002811Y-31388568D01*
X28127192Y-31088287D01*
X28190600Y-30769511D01*
X28190600Y-30444489D01*
X29947600Y-30444489D01*
X29947600Y-30769511D01*
X30011008Y-31088287D01*
X30135389Y-31388568D01*
X30315961Y-31658814D01*
X30545786Y-31888639D01*
X30816032Y-32069211D01*
X30911756Y-32108861D01*
X30905600Y-32139810D01*
X30905600Y-32376190D01*
X30951716Y-32608027D01*
X31042174Y-32826413D01*
X31173499Y-33022955D01*
X31340645Y-33190101D01*
X31537187Y-33321426D01*
X31755573Y-33411884D01*
X31987410Y-33458000D01*
X32223790Y-33458000D01*
X32455627Y-33411884D01*
X32674013Y-33321426D01*
X32870555Y-33190101D01*
X33037701Y-33022955D01*
X33169026Y-32826413D01*
X33259484Y-32608027D01*
X33305600Y-32376190D01*
X33305600Y-32139810D01*
X33259484Y-31907973D01*
X33169026Y-31689587D01*
X33037701Y-31493045D01*
X33009107Y-31464451D01*
X33059811Y-31388568D01*
X33184192Y-31088287D01*
X33247600Y-30769511D01*
X33247600Y-30444489D01*
X36447600Y-30444489D01*
X36447600Y-30769511D01*
X36511008Y-31088287D01*
X36635389Y-31388568D01*
X36815961Y-31658814D01*
X37045786Y-31888639D01*
X37316032Y-32069211D01*
X37616313Y-32193592D01*
X37935089Y-32257000D01*
X38260111Y-32257000D01*
X38578887Y-32193592D01*
X38879168Y-32069211D01*
X39149414Y-31888639D01*
X39379239Y-31658814D01*
X39559811Y-31388568D01*
X39684192Y-31088287D01*
X39747600Y-30769511D01*
X39747600Y-30444489D01*
X41555400Y-30444489D01*
X41555400Y-30769511D01*
X41618808Y-31088287D01*
X41743189Y-31388568D01*
X41923761Y-31658814D01*
X42153586Y-31888639D01*
X42423832Y-32069211D01*
X42724113Y-32193592D01*
X43042889Y-32257000D01*
X43367911Y-32257000D01*
X43686687Y-32193592D01*
X43986968Y-32069211D01*
X44257214Y-31888639D01*
X44487039Y-31658814D01*
X44667611Y-31388568D01*
X44791992Y-31088287D01*
X44855400Y-30769511D01*
X44855400Y-30444489D01*
X48055400Y-30444489D01*
X48055400Y-30769511D01*
X48118808Y-31088287D01*
X48243189Y-31388568D01*
X48423761Y-31658814D01*
X48653586Y-31888639D01*
X48923832Y-32069211D01*
X49224113Y-32193592D01*
X49542889Y-32257000D01*
X49867911Y-32257000D01*
X50186687Y-32193592D01*
X50486968Y-32069211D01*
X50757214Y-31888639D01*
X50987039Y-31658814D01*
X51167611Y-31388568D01*
X51291992Y-31088287D01*
X51355400Y-30769511D01*
X51355400Y-30444489D01*
X51291992Y-30125713D01*
X51167611Y-29825432D01*
X50987039Y-29555186D01*
X50757214Y-29325361D01*
X50486968Y-29144789D01*
X50186687Y-29020408D01*
X49867911Y-28957000D01*
X49542889Y-28957000D01*
X49224113Y-29020408D01*
X48923832Y-29144789D01*
X48653586Y-29325361D01*
X48423761Y-29555186D01*
X48243189Y-29825432D01*
X48118808Y-30125713D01*
X48055400Y-30444489D01*
X44855400Y-30444489D01*
X44791992Y-30125713D01*
X44667611Y-29825432D01*
X44487039Y-29555186D01*
X44257214Y-29325361D01*
X43986968Y-29144789D01*
X43686687Y-29020408D01*
X43367911Y-28957000D01*
X43042889Y-28957000D01*
X42724113Y-29020408D01*
X42423832Y-29144789D01*
X42153586Y-29325361D01*
X41923761Y-29555186D01*
X41743189Y-29825432D01*
X41618808Y-30125713D01*
X41555400Y-30444489D01*
X39747600Y-30444489D01*
X39684192Y-30125713D01*
X39559811Y-29825432D01*
X39379239Y-29555186D01*
X39149414Y-29325361D01*
X38879168Y-29144789D01*
X38578887Y-29020408D01*
X38260111Y-28957000D01*
X37935089Y-28957000D01*
X37616313Y-29020408D01*
X37316032Y-29144789D01*
X37045786Y-29325361D01*
X36815961Y-29555186D01*
X36635389Y-29825432D01*
X36511008Y-30125713D01*
X36447600Y-30444489D01*
X33247600Y-30444489D01*
X33184192Y-30125713D01*
X33059811Y-29825432D01*
X32879239Y-29555186D01*
X32649414Y-29325361D01*
X32379168Y-29144789D01*
X32078887Y-29020408D01*
X31760111Y-28957000D01*
X31435089Y-28957000D01*
X31116313Y-29020408D01*
X30816032Y-29144789D01*
X30545786Y-29325361D01*
X30315961Y-29555186D01*
X30135389Y-29825432D01*
X30011008Y-30125713D01*
X29947600Y-30444489D01*
X28190600Y-30444489D01*
X28127192Y-30125713D01*
X28002811Y-29825432D01*
X27822239Y-29555186D01*
X27592414Y-29325361D01*
X27322168Y-29144789D01*
X27021887Y-29020408D01*
X26703111Y-28957000D01*
X26378089Y-28957000D01*
X26059313Y-29020408D01*
X25759032Y-29144789D01*
X25488786Y-29325361D01*
X25258961Y-29555186D01*
X25078389Y-29825432D01*
X24954008Y-30125713D01*
X24890600Y-30444489D01*
X21690600Y-30444489D01*
X21627192Y-30125713D01*
X21502811Y-29825432D01*
X21322239Y-29555186D01*
X21092414Y-29325361D01*
X20822168Y-29144789D01*
X20521887Y-29020408D01*
X20203111Y-28957000D01*
X19878089Y-28957000D01*
X19559313Y-29020408D01*
X19259032Y-29144789D01*
X18988786Y-29325361D01*
X18758961Y-29555186D01*
X18578389Y-29825432D01*
X18454008Y-30125713D01*
X18390600Y-30444489D01*
X16967735Y-30444489D01*
X16954624Y-30311373D01*
X16908879Y-30160572D01*
X16834593Y-30021594D01*
X16734622Y-29899778D01*
X16613344Y-29800248D01*
X16697413Y-29765426D01*
X16893955Y-29634101D01*
X17061101Y-29466955D01*
X17192426Y-29270413D01*
X17282884Y-29052027D01*
X17307592Y-28927810D01*
X45536000Y-28927810D01*
X45536000Y-29164190D01*
X45582116Y-29396027D01*
X45672574Y-29614413D01*
X45803899Y-29810955D01*
X45971045Y-29978101D01*
X46167587Y-30109426D01*
X46385973Y-30199884D01*
X46617810Y-30246000D01*
X46854190Y-30246000D01*
X47086027Y-30199884D01*
X47304413Y-30109426D01*
X47500955Y-29978101D01*
X47668101Y-29810955D01*
X47799426Y-29614413D01*
X47889884Y-29396027D01*
X47936000Y-29164190D01*
X47936000Y-28927810D01*
X47889884Y-28695973D01*
X47799426Y-28477587D01*
X47668101Y-28281045D01*
X47500955Y-28113899D01*
X47304413Y-27982574D01*
X47086027Y-27892116D01*
X46854190Y-27846000D01*
X46617810Y-27846000D01*
X46385973Y-27892116D01*
X46167587Y-27982574D01*
X45971045Y-28113899D01*
X45803899Y-28281045D01*
X45672574Y-28477587D01*
X45582116Y-28695973D01*
X45536000Y-28927810D01*
X17307592Y-28927810D01*
X17329000Y-28820190D01*
X17329000Y-28583810D01*
X17282884Y-28351973D01*
X17192426Y-28133587D01*
X17061101Y-27937045D01*
X16893955Y-27769899D01*
X16697413Y-27638574D01*
X16479027Y-27548116D01*
X16247190Y-27502000D01*
X16010810Y-27502000D01*
X15778973Y-27548116D01*
X15560587Y-27638574D01*
X15364045Y-27769899D01*
X15196899Y-27937045D01*
X15065574Y-28133587D01*
X14975116Y-28351973D01*
X14929000Y-28583810D01*
X14929000Y-28820190D01*
X14975116Y-29052027D01*
X15065574Y-29270413D01*
X15196899Y-29466955D01*
X15364045Y-29634101D01*
X15409286Y-29664330D01*
X14466200Y-29664330D01*
X14309373Y-29679776D01*
X14158572Y-29725521D01*
X14019594Y-29799807D01*
X13897778Y-29899778D01*
X13797807Y-30021594D01*
X13723521Y-30160572D01*
X13677776Y-30311373D01*
X13662330Y-30468200D01*
X13652000Y-30468200D01*
X13652000Y-24056224D01*
X17518000Y-24056224D01*
X17518000Y-24607776D01*
X17625602Y-25148730D01*
X17836672Y-25658297D01*
X18143098Y-26116896D01*
X18533104Y-26506902D01*
X18991703Y-26813328D01*
X19501270Y-27024398D01*
X20042224Y-27132000D01*
X20593776Y-27132000D01*
X21134730Y-27024398D01*
X21478484Y-26882010D01*
X24454000Y-26882010D01*
X24454000Y-27118390D01*
X24500116Y-27350227D01*
X24590574Y-27568613D01*
X24721899Y-27765155D01*
X24889045Y-27932301D01*
X25085587Y-28063626D01*
X25303973Y-28154084D01*
X25535810Y-28200200D01*
X25772190Y-28200200D01*
X26004027Y-28154084D01*
X26222413Y-28063626D01*
X26418955Y-27932301D01*
X26586101Y-27765155D01*
X26717426Y-27568613D01*
X26807884Y-27350227D01*
X26854000Y-27118390D01*
X26854000Y-26882010D01*
X26807884Y-26650173D01*
X26717426Y-26431787D01*
X26586101Y-26235245D01*
X26418955Y-26068099D01*
X26222413Y-25936774D01*
X26004027Y-25846316D01*
X25772190Y-25800200D01*
X25535810Y-25800200D01*
X25303973Y-25846316D01*
X25085587Y-25936774D01*
X24889045Y-26068099D01*
X24721899Y-26235245D01*
X24590574Y-26431787D01*
X24500116Y-26650173D01*
X24454000Y-26882010D01*
X21478484Y-26882010D01*
X21644297Y-26813328D01*
X22102896Y-26506902D01*
X22492902Y-26116896D01*
X22799328Y-25658297D01*
X23010398Y-25148730D01*
X23118000Y-24607776D01*
X23118000Y-24056224D01*
X23010398Y-23515270D01*
X22799328Y-23005703D01*
X22492902Y-22547104D01*
X22140212Y-22194414D01*
X25673000Y-22194414D01*
X25673000Y-22509586D01*
X25734487Y-22818703D01*
X25855098Y-23109884D01*
X26030199Y-23371941D01*
X26253059Y-23594801D01*
X26515116Y-23769902D01*
X26806297Y-23890513D01*
X26871877Y-23903558D01*
X26818000Y-24174414D01*
X26818000Y-24489586D01*
X26879487Y-24798703D01*
X27000098Y-25089884D01*
X27175199Y-25351941D01*
X27398059Y-25574801D01*
X27660116Y-25749902D01*
X27951297Y-25870513D01*
X28016877Y-25883558D01*
X27963000Y-26154414D01*
X27963000Y-26469586D01*
X28024487Y-26778703D01*
X28145098Y-27069884D01*
X28320199Y-27331941D01*
X28543059Y-27554801D01*
X28805116Y-27729902D01*
X29096297Y-27850513D01*
X29405414Y-27912000D01*
X29720586Y-27912000D01*
X30029703Y-27850513D01*
X30320884Y-27729902D01*
X30582941Y-27554801D01*
X30708000Y-27429742D01*
X30833059Y-27554801D01*
X31095116Y-27729902D01*
X31386297Y-27850513D01*
X31695414Y-27912000D01*
X32010586Y-27912000D01*
X32319703Y-27850513D01*
X32610884Y-27729902D01*
X32872941Y-27554801D01*
X32998000Y-27429742D01*
X33123059Y-27554801D01*
X33385116Y-27729902D01*
X33676297Y-27850513D01*
X33985414Y-27912000D01*
X34300586Y-27912000D01*
X34609703Y-27850513D01*
X34900884Y-27729902D01*
X35162941Y-27554801D01*
X35385801Y-27331941D01*
X35402349Y-27307174D01*
X35655615Y-27307174D01*
X35730924Y-27540327D01*
X35984048Y-27653693D01*
X36254426Y-27715498D01*
X36531666Y-27723369D01*
X36805114Y-27677001D01*
X37064263Y-27578177D01*
X37135076Y-27540327D01*
X37210385Y-27307174D01*
X36433000Y-26529789D01*
X35655615Y-27307174D01*
X35402349Y-27307174D01*
X35560902Y-27069884D01*
X35634140Y-26893071D01*
X36215211Y-26312000D01*
X36201069Y-26297858D01*
X36418858Y-26080069D01*
X36433000Y-26094211D01*
X36447142Y-26080069D01*
X36664931Y-26297858D01*
X36650789Y-26312000D01*
X37231860Y-26893071D01*
X37305098Y-27069884D01*
X37480199Y-27331941D01*
X37703059Y-27554801D01*
X37965116Y-27729902D01*
X38256297Y-27850513D01*
X38565414Y-27912000D01*
X38880586Y-27912000D01*
X39189703Y-27850513D01*
X39480884Y-27729902D01*
X39742941Y-27554801D01*
X39868000Y-27429742D01*
X39993059Y-27554801D01*
X40255116Y-27729902D01*
X40546297Y-27850513D01*
X40855414Y-27912000D01*
X41170586Y-27912000D01*
X41479703Y-27850513D01*
X41770884Y-27729902D01*
X42032941Y-27554801D01*
X42158000Y-27429742D01*
X42283059Y-27554801D01*
X42545116Y-27729902D01*
X42836297Y-27850513D01*
X43145414Y-27912000D01*
X43460586Y-27912000D01*
X43769703Y-27850513D01*
X44060884Y-27729902D01*
X44322941Y-27554801D01*
X44448000Y-27429742D01*
X44573059Y-27554801D01*
X44835116Y-27729902D01*
X45126297Y-27850513D01*
X45435414Y-27912000D01*
X45750586Y-27912000D01*
X46059703Y-27850513D01*
X46350884Y-27729902D01*
X46612941Y-27554801D01*
X46835801Y-27331941D01*
X47010902Y-27069884D01*
X47131513Y-26778703D01*
X47193000Y-26469586D01*
X47193000Y-26154414D01*
X47139123Y-25883558D01*
X47204703Y-25870513D01*
X47495884Y-25749902D01*
X47757941Y-25574801D01*
X47980801Y-25351941D01*
X48155902Y-25089884D01*
X48276513Y-24798703D01*
X48338000Y-24489586D01*
X48338000Y-24174414D01*
X48314491Y-24056224D01*
X50818000Y-24056224D01*
X50818000Y-24607776D01*
X50925602Y-25148730D01*
X51136672Y-25658297D01*
X51443098Y-26116896D01*
X51833104Y-26506902D01*
X52291703Y-26813328D01*
X52801270Y-27024398D01*
X53342224Y-27132000D01*
X53893776Y-27132000D01*
X54434730Y-27024398D01*
X54944297Y-26813328D01*
X55402896Y-26506902D01*
X55792902Y-26116896D01*
X56099328Y-25658297D01*
X56310398Y-25148730D01*
X56418000Y-24607776D01*
X56418000Y-24056224D01*
X56310398Y-23515270D01*
X56099328Y-23005703D01*
X55792902Y-22547104D01*
X55402896Y-22157098D01*
X54944297Y-21850672D01*
X54434730Y-21639602D01*
X53893776Y-21532000D01*
X53342224Y-21532000D01*
X52801270Y-21639602D01*
X52291703Y-21850672D01*
X51833104Y-22157098D01*
X51443098Y-22547104D01*
X51136672Y-23005703D01*
X50925602Y-23515270D01*
X50818000Y-24056224D01*
X48314491Y-24056224D01*
X48276513Y-23865297D01*
X48155902Y-23574116D01*
X47980801Y-23312059D01*
X47757941Y-23089199D01*
X47495884Y-22914098D01*
X47204703Y-22793487D01*
X47196870Y-22791929D01*
X47196870Y-21552000D01*
X47181424Y-21395173D01*
X47135679Y-21244372D01*
X47061393Y-21105394D01*
X46961422Y-20983578D01*
X46839606Y-20883607D01*
X46700628Y-20809321D01*
X46549827Y-20763576D01*
X46393000Y-20748130D01*
X44793000Y-20748130D01*
X44636173Y-20763576D01*
X44485372Y-20809321D01*
X44346394Y-20883607D01*
X44224578Y-20983578D01*
X44192831Y-21022262D01*
X44060884Y-20934098D01*
X43769703Y-20813487D01*
X43460586Y-20752000D01*
X43145414Y-20752000D01*
X42836297Y-20813487D01*
X42545116Y-20934098D01*
X42283059Y-21109199D01*
X42158000Y-21234258D01*
X42032941Y-21109199D01*
X41770884Y-20934098D01*
X41479703Y-20813487D01*
X41170586Y-20752000D01*
X40855414Y-20752000D01*
X40546297Y-20813487D01*
X40255116Y-20934098D01*
X39993059Y-21109199D01*
X39868000Y-21234258D01*
X39742941Y-21109199D01*
X39480884Y-20934098D01*
X39189703Y-20813487D01*
X38880586Y-20752000D01*
X38565414Y-20752000D01*
X38256297Y-20813487D01*
X37965116Y-20934098D01*
X37703059Y-21109199D01*
X37578000Y-21234258D01*
X37452941Y-21109199D01*
X37190884Y-20934098D01*
X36899703Y-20813487D01*
X36590586Y-20752000D01*
X36275414Y-20752000D01*
X35966297Y-20813487D01*
X35675116Y-20934098D01*
X35413059Y-21109199D01*
X35288000Y-21234258D01*
X35162941Y-21109199D01*
X34900884Y-20934098D01*
X34609703Y-20813487D01*
X34300586Y-20752000D01*
X33985414Y-20752000D01*
X33676297Y-20813487D01*
X33385116Y-20934098D01*
X33123059Y-21109199D01*
X32998000Y-21234258D01*
X32872941Y-21109199D01*
X32610884Y-20934098D01*
X32319703Y-20813487D01*
X32010586Y-20752000D01*
X31695414Y-20752000D01*
X31386297Y-20813487D01*
X31095116Y-20934098D01*
X30833059Y-21109199D01*
X30610199Y-21332059D01*
X30435098Y-21594116D01*
X30361860Y-21770929D01*
X29780789Y-22352000D01*
X29794931Y-22366142D01*
X29577142Y-22583931D01*
X29563000Y-22569789D01*
X29548858Y-22583931D01*
X29331069Y-22366142D01*
X29345211Y-22352000D01*
X28764140Y-21770929D01*
X28690902Y-21594116D01*
X28532350Y-21356826D01*
X28785615Y-21356826D01*
X29563000Y-22134211D01*
X30340385Y-21356826D01*
X30265076Y-21123673D01*
X30011952Y-21010307D01*
X29741574Y-20948502D01*
X29464334Y-20940631D01*
X29190886Y-20986999D01*
X28931737Y-21085823D01*
X28860924Y-21123673D01*
X28785615Y-21356826D01*
X28532350Y-21356826D01*
X28515801Y-21332059D01*
X28292941Y-21109199D01*
X28030884Y-20934098D01*
X27739703Y-20813487D01*
X27430586Y-20752000D01*
X27115414Y-20752000D01*
X26806297Y-20813487D01*
X26515116Y-20934098D01*
X26253059Y-21109199D01*
X26030199Y-21332059D01*
X25855098Y-21594116D01*
X25734487Y-21885297D01*
X25673000Y-22194414D01*
X22140212Y-22194414D01*
X22102896Y-22157098D01*
X21644297Y-21850672D01*
X21134730Y-21639602D01*
X20593776Y-21532000D01*
X20042224Y-21532000D01*
X19501270Y-21639602D01*
X18991703Y-21850672D01*
X18533104Y-22157098D01*
X18143098Y-22547104D01*
X17836672Y-23005703D01*
X17625602Y-23515270D01*
X17518000Y-24056224D01*
X13652000Y-24056224D01*
X13652000Y-15237911D01*
X14086091Y-15237911D01*
X14187065Y-15505300D01*
X14338264Y-15747852D01*
X14533878Y-15956246D01*
X14766389Y-16122473D01*
X15026861Y-16240146D01*
X15115090Y-16266903D01*
X15340000Y-16155889D01*
X15340000Y-15013000D01*
X14196150Y-15013000D01*
X14086091Y-15237911D01*
X13652000Y-15237911D01*
X13652000Y-14480089D01*
X14086091Y-14480089D01*
X14196150Y-14705000D01*
X15340000Y-14705000D01*
X15340000Y-13562111D01*
X15648000Y-13562111D01*
X15648000Y-14705000D01*
X15668000Y-14705000D01*
X15668000Y-15013000D01*
X15648000Y-15013000D01*
X15648000Y-16155889D01*
X15872910Y-16266903D01*
X15961139Y-16240146D01*
X16221611Y-16122473D01*
X16454122Y-15956246D01*
X16642377Y-15755691D01*
X16655438Y-15780126D01*
X16861629Y-16031371D01*
X17112874Y-16237562D01*
X17399517Y-16390777D01*
X17710544Y-16485125D01*
X17952948Y-16509000D01*
X18115052Y-16509000D01*
X18357456Y-16485125D01*
X18668483Y-16390777D01*
X18955126Y-16237562D01*
X19206371Y-16031371D01*
X19412562Y-15780126D01*
X19425623Y-15755691D01*
X19613878Y-15956246D01*
X19846389Y-16122473D01*
X20106861Y-16240146D01*
X20195090Y-16266903D01*
X20420000Y-16155889D01*
X20420000Y-15013000D01*
X20400000Y-15013000D01*
X20400000Y-14705000D01*
X20420000Y-14705000D01*
X20420000Y-13562111D01*
X20728000Y-13562111D01*
X20728000Y-14705000D01*
X20748000Y-14705000D01*
X20748000Y-15013000D01*
X20728000Y-15013000D01*
X20728000Y-16155889D01*
X20952910Y-16266903D01*
X21041139Y-16240146D01*
X21301611Y-16122473D01*
X21534122Y-15956246D01*
X21722377Y-15755691D01*
X21735438Y-15780126D01*
X21941629Y-16031371D01*
X22192874Y-16237562D01*
X22479517Y-16390777D01*
X22790544Y-16485125D01*
X23032948Y-16509000D01*
X23195052Y-16509000D01*
X23437456Y-16485125D01*
X23748483Y-16390777D01*
X24035126Y-16237562D01*
X24286371Y-16031371D01*
X24384000Y-15912409D01*
X24481629Y-16031371D01*
X24732874Y-16237562D01*
X25019517Y-16390777D01*
X25330544Y-16485125D01*
X25572948Y-16509000D01*
X25735052Y-16509000D01*
X25977456Y-16485125D01*
X26288483Y-16390777D01*
X26575126Y-16237562D01*
X26826371Y-16031371D01*
X26924000Y-15912409D01*
X27021629Y-16031371D01*
X27272874Y-16237562D01*
X27559517Y-16390777D01*
X27870544Y-16485125D01*
X28112948Y-16509000D01*
X28275052Y-16509000D01*
X28517456Y-16485125D01*
X28828483Y-16390777D01*
X29115126Y-16237562D01*
X29366371Y-16031371D01*
X29464000Y-15912409D01*
X29561629Y-16031371D01*
X29812874Y-16237562D01*
X30099517Y-16390777D01*
X30410544Y-16485125D01*
X30652948Y-16509000D01*
X30815052Y-16509000D01*
X31057456Y-16485125D01*
X31368483Y-16390777D01*
X31655126Y-16237562D01*
X31906371Y-16031371D01*
X32004000Y-15912409D01*
X32101629Y-16031371D01*
X32352874Y-16237562D01*
X32639517Y-16390777D01*
X32950544Y-16485125D01*
X33192948Y-16509000D01*
X33355052Y-16509000D01*
X33597456Y-16485125D01*
X33908483Y-16390777D01*
X34195126Y-16237562D01*
X34446371Y-16031371D01*
X34544000Y-15912409D01*
X34641629Y-16031371D01*
X34892874Y-16237562D01*
X35179517Y-16390777D01*
X35490544Y-16485125D01*
X35732948Y-16509000D01*
X35895052Y-16509000D01*
X36137456Y-16485125D01*
X36448483Y-16390777D01*
X36735126Y-16237562D01*
X36986371Y-16031371D01*
X37084000Y-15912409D01*
X37181629Y-16031371D01*
X37432874Y-16237562D01*
X37719517Y-16390777D01*
X38030544Y-16485125D01*
X38272948Y-16509000D01*
X38435052Y-16509000D01*
X38677456Y-16485125D01*
X38988483Y-16390777D01*
X39275126Y-16237562D01*
X39526371Y-16031371D01*
X39732562Y-15780126D01*
X39745623Y-15755691D01*
X39933878Y-15956246D01*
X40166389Y-16122473D01*
X40426861Y-16240146D01*
X40515090Y-16266903D01*
X40740000Y-16155889D01*
X40740000Y-15013000D01*
X40720000Y-15013000D01*
X40720000Y-14705000D01*
X40740000Y-14705000D01*
X40740000Y-13562111D01*
X41048000Y-13562111D01*
X41048000Y-14705000D01*
X41068000Y-14705000D01*
X41068000Y-15013000D01*
X41048000Y-15013000D01*
X41048000Y-16155889D01*
X41272910Y-16266903D01*
X41361139Y-16240146D01*
X41621611Y-16122473D01*
X41828550Y-15974528D01*
X41841321Y-16016628D01*
X41915607Y-16155606D01*
X42015578Y-16277422D01*
X42137394Y-16377393D01*
X42276372Y-16451679D01*
X42427173Y-16497424D01*
X42584000Y-16512870D01*
X44284000Y-16512870D01*
X44440827Y-16497424D01*
X44591628Y-16451679D01*
X44730606Y-16377393D01*
X44852422Y-16277422D01*
X44952393Y-16155606D01*
X45026679Y-16016628D01*
X45072424Y-15865827D01*
X45087870Y-15709000D01*
X45087870Y-14009000D01*
X45072424Y-13852173D01*
X45026679Y-13701372D01*
X44952393Y-13562394D01*
X44852422Y-13440578D01*
X44730606Y-13340607D01*
X44591628Y-13266321D01*
X44440827Y-13220576D01*
X44284000Y-13205130D01*
X42584000Y-13205130D01*
X42427173Y-13220576D01*
X42276372Y-13266321D01*
X42137394Y-13340607D01*
X42015578Y-13440578D01*
X41915607Y-13562394D01*
X41841321Y-13701372D01*
X41828550Y-13743472D01*
X41621611Y-13595527D01*
X41361139Y-13477854D01*
X41272910Y-13451097D01*
X41048000Y-13562111D01*
X40740000Y-13562111D01*
X40515090Y-13451097D01*
X40426861Y-13477854D01*
X40166389Y-13595527D01*
X39933878Y-13761754D01*
X39745623Y-13962309D01*
X39732562Y-13937874D01*
X39526371Y-13686629D01*
X39275126Y-13480438D01*
X38988483Y-13327223D01*
X38677456Y-13232875D01*
X38435052Y-13209000D01*
X38272948Y-13209000D01*
X38030544Y-13232875D01*
X37719517Y-13327223D01*
X37432874Y-13480438D01*
X37181629Y-13686629D01*
X37084000Y-13805591D01*
X36986371Y-13686629D01*
X36735126Y-13480438D01*
X36448483Y-13327223D01*
X36137456Y-13232875D01*
X35895052Y-13209000D01*
X35732948Y-13209000D01*
X35490544Y-13232875D01*
X35179517Y-13327223D01*
X34892874Y-13480438D01*
X34641629Y-13686629D01*
X34544000Y-13805591D01*
X34446371Y-13686629D01*
X34195126Y-13480438D01*
X33908483Y-13327223D01*
X33597456Y-13232875D01*
X33355052Y-13209000D01*
X33192948Y-13209000D01*
X32950544Y-13232875D01*
X32639517Y-13327223D01*
X32352874Y-13480438D01*
X32101629Y-13686629D01*
X32004000Y-13805591D01*
X31906371Y-13686629D01*
X31655126Y-13480438D01*
X31368483Y-13327223D01*
X31057456Y-13232875D01*
X30815052Y-13209000D01*
X30652948Y-13209000D01*
X30410544Y-13232875D01*
X30099517Y-13327223D01*
X29812874Y-13480438D01*
X29561629Y-13686629D01*
X29464000Y-13805591D01*
X29366371Y-13686629D01*
X29115126Y-13480438D01*
X28828483Y-13327223D01*
X28517456Y-13232875D01*
X28275052Y-13209000D01*
X28112948Y-13209000D01*
X27870544Y-13232875D01*
X27559517Y-13327223D01*
X27272874Y-13480438D01*
X27021629Y-13686629D01*
X26924000Y-13805591D01*
X26826371Y-13686629D01*
X26575126Y-13480438D01*
X26288483Y-13327223D01*
X25977456Y-13232875D01*
X25735052Y-13209000D01*
X25572948Y-13209000D01*
X25330544Y-13232875D01*
X25019517Y-13327223D01*
X24732874Y-13480438D01*
X24481629Y-13686629D01*
X24384000Y-13805591D01*
X24286371Y-13686629D01*
X24035126Y-13480438D01*
X23748483Y-13327223D01*
X23437456Y-13232875D01*
X23195052Y-13209000D01*
X23032948Y-13209000D01*
X22790544Y-13232875D01*
X22479517Y-13327223D01*
X22192874Y-13480438D01*
X21941629Y-13686629D01*
X21735438Y-13937874D01*
X21722377Y-13962309D01*
X21534122Y-13761754D01*
X21301611Y-13595527D01*
X21041139Y-13477854D01*
X20952910Y-13451097D01*
X20728000Y-13562111D01*
X20420000Y-13562111D01*
X20195090Y-13451097D01*
X20106861Y-13477854D01*
X19846389Y-13595527D01*
X19613878Y-13761754D01*
X19425623Y-13962309D01*
X19412562Y-13937874D01*
X19206371Y-13686629D01*
X18955126Y-13480438D01*
X18668483Y-13327223D01*
X18357456Y-13232875D01*
X18115052Y-13209000D01*
X17952948Y-13209000D01*
X17710544Y-13232875D01*
X17399517Y-13327223D01*
X17112874Y-13480438D01*
X16861629Y-13686629D01*
X16655438Y-13937874D01*
X16642377Y-13962309D01*
X16454122Y-13761754D01*
X16221611Y-13595527D01*
X15961139Y-13477854D01*
X15872910Y-13451097D01*
X15648000Y-13562111D01*
X15340000Y-13562111D01*
X15115090Y-13451097D01*
X15026861Y-13477854D01*
X14766389Y-13595527D01*
X14533878Y-13761754D01*
X14338264Y-13970148D01*
X14187065Y-14212700D01*
X14086091Y-14480089D01*
X13652000Y-14480089D01*
X13652000Y-12890000D01*
X52047693Y-12890000D01*
X52013000Y-13064410D01*
M02*
